<?xml version="1.0" encoding="UTF-8" standalone="no"?>
<!-- Created with Inkscape (http://www.inkscape.org/) -->

<svg
   xmlns:dc="http://purl.org/dc/elements/1.1/"
   xmlns:cc="http://creativecommons.org/ns#"
   xmlns:rdf="http://www.w3.org/1999/02/22-rdf-syntax-ns#"
   xmlns:svg="http://www.w3.org/2000/svg"
   xmlns="http://www.w3.org/2000/svg"
   xmlns:xlink="http://www.w3.org/1999/xlink"
   xmlns:sodipodi="http://sodipodi.sourceforge.net/DTD/sodipodi-0.dtd"
   xmlns:inkscape="http://www.inkscape.org/namespaces/inkscape"
   version="1.0"
   width="96"
   height="96"
   id="svg2408"
   inkscape:version="0.48.4 r9939"
   sodipodi:docname="apport.svg">
  <sodipodi:namedview
     pagecolor="#ffffff"
     bordercolor="#666666"
     borderopacity="1"
     objecttolerance="10"
     gridtolerance="10"
     guidetolerance="10"
     inkscape:pageopacity="0"
     inkscape:pageshadow="2"
     inkscape:window-width="640"
     inkscape:window-height="480"
     id="namedview47"
     showgrid="false"
     inkscape:zoom="1.7383042"
     inkscape:cx="-92.353701"
     inkscape:cy="31.728813"
     inkscape:window-x="678"
     inkscape:window-y="136"
     inkscape:window-maximized="0"
     inkscape:current-layer="svg2408" />
  <defs
     id="defs2410">
    <linearGradient
       x1="45.447727"
       y1="92.539597"
       x2="45.447727"
       y2="7.0165396"
       id="ButtonShadow"
       gradientUnits="userSpaceOnUse"
       gradientTransform="scale(1.0058652,0.994169)">
      <stop
         id="stop3750"
         style="stop-color:#000000;stop-opacity:1"
         offset="0" />
      <stop
         id="stop3752"
         style="stop-color:#000000;stop-opacity:0.58823532"
         offset="1" />
    </linearGradient>
    <linearGradient
       id="linearGradient3737">
      <stop
         id="stop3739"
         style="stop-color:#ffffff;stop-opacity:1"
         offset="0" />
      <stop
         id="stop3741"
         style="stop-color:#ffffff;stop-opacity:0"
         offset="1" />
    </linearGradient>
    <filter
       color-interpolation-filters="sRGB"
       id="filter3174">
      <feGaussianBlur
         id="feGaussianBlur3176"
         stdDeviation="1.71" />
    </filter>
    <linearGradient
       x1="36.357143"
       y1="6"
       x2="36.357143"
       y2="63.893143"
       id="linearGradient3188"
       xlink:href="#linearGradient3737"
       gradientUnits="userSpaceOnUse" />
    <filter
       x="-0.192"
       y="-0.192"
       width="1.3839999"
       height="1.3839999"
       color-interpolation-filters="sRGB"
       id="filter3794">
      <feGaussianBlur
         id="feGaussianBlur3796"
         stdDeviation="5.28" />
    </filter>
    <linearGradient
       x1="48"
       y1="20.220806"
       x2="48"
       y2="138.66119"
       id="linearGradient3613"
       xlink:href="#linearGradient3737"
       gradientUnits="userSpaceOnUse" />
    <radialGradient
       cx="48"
       cy="90.171875"
       r="42"
       fx="48"
       fy="90.171875"
       id="radialGradient3619"
       xlink:href="#linearGradient3737"
       gradientUnits="userSpaceOnUse"
       gradientTransform="matrix(1.1573129,0,0,0.99590774,-7.5510206,0.19713193)" />
    <clipPath
       id="clipPath3613">
      <rect
         width="84"
         height="84"
         rx="6"
         ry="6"
         x="6"
         y="6"
         id="rect3615"
         style="fill:#ffffff;fill-opacity:1;fill-rule:nonzero;stroke:none" />
    </clipPath>
    <linearGradient
       x1="45.447727"
       y1="92.539597"
       x2="45.447727"
       y2="7.0165396"
       id="ButtonShadow-0"
       gradientUnits="userSpaceOnUse"
       gradientTransform="matrix(1.0058652,0,0,0.994169,100,0)">
      <stop
         id="stop3750-8"
         style="stop-color:#000000;stop-opacity:1"
         offset="0" />
      <stop
         id="stop3752-5"
         style="stop-color:#000000;stop-opacity:0.58823532"
         offset="1" />
    </linearGradient>
    <linearGradient
       x1="32.251034"
       y1="6.1317081"
       x2="32.251034"
       y2="90.238609"
       id="linearGradient3780"
       xlink:href="#ButtonShadow-0"
       gradientUnits="userSpaceOnUse"
       gradientTransform="matrix(1.0238095,0,0,-1.0119048,-1.1428571,98.071429)" />
    <linearGradient
       x1="32.251034"
       y1="6.1317081"
       x2="32.251034"
       y2="90.238609"
       id="linearGradient3772"
       xlink:href="#ButtonShadow-0"
       gradientUnits="userSpaceOnUse"
       gradientTransform="matrix(1.0238095,0,0,-1.0119048,-1.1428571,98.071429)" />
    <linearGradient
       x1="32.251034"
       y1="6.1317081"
       x2="32.251034"
       y2="90.238609"
       id="linearGradient3725"
       xlink:href="#ButtonShadow-0"
       gradientUnits="userSpaceOnUse"
       gradientTransform="matrix(1.0238095,0,0,-1.0119048,-1.1428571,98.071429)" />
    <linearGradient
       x1="32.251034"
       y1="6.1317081"
       x2="32.251034"
       y2="90.238609"
       id="linearGradient3721"
       xlink:href="#ButtonShadow-0"
       gradientUnits="userSpaceOnUse"
       gradientTransform="matrix(1,0,0,-1,0,97)" />
    <linearGradient
       x1="32.251034"
       y1="6.1317081"
       x2="32.251034"
       y2="90.238609"
       id="linearGradient3016"
       xlink:href="#ButtonShadow-0"
       gradientUnits="userSpaceOnUse"
       gradientTransform="matrix(1.0238095,0,0,-1.0119048,-1.1428571,98.071429)" />
    <linearGradient
       inkscape:collect="always"
       xlink:href="#linearGradient3737"
       id="linearGradient3028"
       gradientUnits="userSpaceOnUse"
       x1="36.357143"
       y1="6"
       x2="36.357143"
       y2="63.893143"
       gradientTransform="translate(179.38983,8.1355932)" />
    <linearGradient
       id="linearGradient3183">
      <stop
         offset="0"
         style="stop-color:#c80000;stop-opacity:1"
         id="stop3185" />
      <stop
         offset="1"
         style="stop-color:#f3604d;stop-opacity:1"
         id="stop3187" />
    </linearGradient>
    <linearGradient
       gradientTransform="matrix(0,-3.0000004,2.9652505,0,45.335916,49.000009)"
       gradientUnits="userSpaceOnUse"
       xlink:href="#linearGradient3183"
       id="linearGradient2927"
       y2="11.015625"
       x2="19"
       y1="11.015625"
       x1="11" />
    <linearGradient
       gradientTransform="matrix(-4.5057883,0,0,3.8842887,81.128906,14.057144)"
       gradientUnits="userSpaceOnUse"
       xlink:href="#linearGradient3731"
       id="linearGradient3053"
       y2="1.0923122"
       x2="6.6201301"
       y1="16.384687"
       x1="6.6201301" />
    <linearGradient
       gradientTransform="matrix(1.0238095,0,0,1.0119048,-1.1428571,-98.071429)"
       gradientUnits="userSpaceOnUse"
       xlink:href="#ButtonShadow-0-8"
       id="linearGradient2918"
       y2="90.238609"
       x2="32.251034"
       y1="6.1317081"
       x1="32.251034" />
    <linearGradient
       gradientTransform="translate(0,-97)"
       gradientUnits="userSpaceOnUse"
       xlink:href="#ButtonShadow-0-8"
       id="linearGradient3721-0"
       y2="90.238609"
       x2="32.251034"
       y1="6.1317081"
       x1="32.251034" />
    <linearGradient
       gradientTransform="matrix(1.0238095,0,0,1.0119048,-1.1428571,-98.071429)"
       gradientUnits="userSpaceOnUse"
       xlink:href="#ButtonShadow-0-8"
       id="linearGradient3725-1"
       y2="90.238609"
       x2="32.251034"
       y1="6.1317081"
       x1="32.251034" />
    <linearGradient
       gradientTransform="matrix(1.0238095,0,0,1.0119048,-1.1428571,-98.071429)"
       gradientUnits="userSpaceOnUse"
       xlink:href="#ButtonShadow-0-8"
       id="linearGradient3772-0"
       y2="90.238609"
       x2="32.251034"
       y1="6.1317081"
       x1="32.251034" />
    <linearGradient
       gradientTransform="matrix(1.0238095,0,0,1.0119048,-1.1428571,-98.071429)"
       gradientUnits="userSpaceOnUse"
       xlink:href="#ButtonShadow-0-8"
       id="linearGradient3780-4"
       y2="90.238609"
       x2="32.251034"
       y1="6.1317081"
       x1="32.251034" />
    <linearGradient
       gradientTransform="matrix(1.0058652,0,0,0.994169,100,0)"
       gradientUnits="userSpaceOnUse"
       id="ButtonShadow-0-8"
       y2="7.0165396"
       x2="45.447727"
       y1="92.539597"
       x1="45.447727">
      <stop
         offset="0"
         style="stop-color:#000000;stop-opacity:1"
         id="stop3750-8-7" />
      <stop
         offset="1"
         style="stop-color:#000000;stop-opacity:0.58823532"
         id="stop3752-5-4" />
    </linearGradient>
    <linearGradient
       gradientUnits="userSpaceOnUse"
       xlink:href="#linearGradient2881"
       id="linearGradient3617"
       y2="5.9877172"
       x2="48"
       y1="90"
       x1="48" />
    <clipPath
       id="clipPath3613-1">
      <rect
         style="fill:#ffffff;fill-opacity:1;fill-rule:nonzero;stroke:none"
         id="rect3615-2"
         y="6"
         x="6"
         ry="6"
         rx="6"
         height="84"
         width="84" />
    </clipPath>
    <radialGradient
       gradientTransform="matrix(1.1573129,0,0,0.99590774,-7.5510206,0.19713193)"
       gradientUnits="userSpaceOnUse"
       xlink:href="#linearGradient3737-7"
       id="radialGradient3619-2"
       fy="90.171875"
       fx="48"
       r="42"
       cy="90.171875"
       cx="48" />
    <linearGradient
       gradientUnits="userSpaceOnUse"
       xlink:href="#linearGradient3737-7"
       id="linearGradient3613-6"
       y2="138.66119"
       x2="48"
       y1="20.220806"
       x1="48" />
    <filter
       id="filter3794-7"
       color-interpolation-filters="sRGB"
       height="1.3839999"
       width="1.3839999"
       y="-0.192"
       x="-0.192">
      <feGaussianBlur
         stdDeviation="5.28"
         id="feGaussianBlur3796-3" />
    </filter>
    <linearGradient
       gradientUnits="userSpaceOnUse"
       xlink:href="#linearGradient3737-7"
       id="linearGradient3188-9"
       y2="63.893143"
       x2="36.357143"
       y1="6"
       x1="36.357143" />
    <filter
       id="filter3174-1"
       color-interpolation-filters="sRGB">
      <feGaussianBlur
         stdDeviation="1.71"
         id="feGaussianBlur3176-3" />
    </filter>
    <linearGradient
       id="linearGradient3737-7">
      <stop
         offset="0"
         style="stop-color:#ffffff;stop-opacity:1"
         id="stop3739-6" />
      <stop
         offset="1"
         style="stop-color:#ffffff;stop-opacity:0"
         id="stop3741-4" />
    </linearGradient>
    <linearGradient
       gradientTransform="scale(1.0058652,0.994169)"
       gradientUnits="userSpaceOnUse"
       id="ButtonShadow-8"
       y2="7.0165396"
       x2="45.447727"
       y1="92.539597"
       x1="45.447727">
      <stop
         offset="0"
         style="stop-color:#000000;stop-opacity:1"
         id="stop3750-9" />
      <stop
         offset="1"
         style="stop-color:#000000;stop-opacity:0.58823532"
         id="stop3752-0" />
    </linearGradient>
    <linearGradient
       id="linearGradient2881">
      <stop
         offset="0"
         style="stop-color:#a90c0c;stop-opacity:1"
         id="stop2883" />
      <stop
         offset="1"
         style="stop-color:#f05530;stop-opacity:1"
         id="stop2885" />
    </linearGradient>
    <linearGradient
       id="linearGradient3731">
      <stop
         offset="0"
         style="stop-color:#dcdcdc;stop-opacity:1"
         id="stop3733" />
      <stop
         offset="0.30654153"
         style="stop-color:#ebebeb;stop-opacity:1"
         id="stop3757" />
      <stop
         offset="0.70706075"
         style="stop-color:#ffffff;stop-opacity:1"
         id="stop3737" />
      <stop
         offset="0.84501493"
         style="stop-color:#fafafa;stop-opacity:1"
         id="stop3759" />
      <stop
         offset="1"
         style="stop-color:#f0f0f0;stop-opacity:1"
         id="stop3735" />
    </linearGradient>
    <linearGradient
       gradientTransform="matrix(1.0238095,0,0,1.0119048,-1.1428571,-98.071429)"
       gradientUnits="userSpaceOnUse"
       xlink:href="#ButtonShadow-0-4"
       id="linearGradient2918-9"
       y2="90.238609"
       x2="32.251034"
       y1="6.1317081"
       x1="32.251034" />
    <linearGradient
       gradientTransform="translate(0,-97)"
       gradientUnits="userSpaceOnUse"
       xlink:href="#ButtonShadow-0-4"
       id="linearGradient3721-7"
       y2="90.238609"
       x2="32.251034"
       y1="6.1317081"
       x1="32.251034" />
    <linearGradient
       gradientTransform="matrix(1.0238095,0,0,1.0119048,-1.1428571,-98.071429)"
       gradientUnits="userSpaceOnUse"
       xlink:href="#ButtonShadow-0-4"
       id="linearGradient3725-2"
       y2="90.238609"
       x2="32.251034"
       y1="6.1317081"
       x1="32.251034" />
    <linearGradient
       gradientTransform="matrix(1.0238095,0,0,1.0119048,-1.1428571,-98.071429)"
       gradientUnits="userSpaceOnUse"
       xlink:href="#ButtonShadow-0-4"
       id="linearGradient3772-2"
       y2="90.238609"
       x2="32.251034"
       y1="6.1317081"
       x1="32.251034" />
    <linearGradient
       gradientTransform="matrix(1.0238095,0,0,1.0119048,-1.1428571,-98.071429)"
       gradientUnits="userSpaceOnUse"
       xlink:href="#ButtonShadow-0-4"
       id="linearGradient3780-7"
       y2="90.238609"
       x2="32.251034"
       y1="6.1317081"
       x1="32.251034" />
    <linearGradient
       gradientTransform="matrix(1.0058652,0,0,0.994169,100,0)"
       gradientUnits="userSpaceOnUse"
       id="ButtonShadow-0-4"
       y2="7.0165396"
       x2="45.447727"
       y1="92.539597"
       x1="45.447727">
      <stop
         offset="0"
         style="stop-color:#000000;stop-opacity:1"
         id="stop3750-8-72" />
      <stop
         offset="1"
         style="stop-color:#000000;stop-opacity:0.58823532"
         id="stop3752-5-2" />
    </linearGradient>
    <linearGradient
       gradientTransform="translate(0,1)"
       gradientUnits="userSpaceOnUse"
       xlink:href="#linearGradient3731-0"
       id="linearGradient3707"
       y2="16.972879"
       x2="46.654823"
       y1="75.561722"
       x1="48.082497" />
    <linearGradient
       gradientUnits="userSpaceOnUse"
       xlink:href="#linearGradient2881-1"
       id="linearGradient3617-2"
       y2="5.9877172"
       x2="48"
       y1="90"
       x1="48" />
    <clipPath
       id="clipPath3613-9">
      <rect
         style="fill:#ffffff;fill-opacity:1;fill-rule:nonzero;stroke:none"
         id="rect3615-3"
         y="6"
         x="6"
         ry="6"
         rx="6"
         height="84"
         width="84" />
    </clipPath>
    <radialGradient
       gradientTransform="matrix(1.1573129,0,0,0.99590774,-7.5510206,0.19713193)"
       gradientUnits="userSpaceOnUse"
       xlink:href="#linearGradient3737-8"
       id="radialGradient3619-7"
       fy="90.171875"
       fx="48"
       r="42"
       cy="90.171875"
       cx="48" />
    <linearGradient
       gradientUnits="userSpaceOnUse"
       xlink:href="#linearGradient3737-8"
       id="linearGradient3613-3"
       y2="138.66119"
       x2="48"
       y1="20.220806"
       x1="48" />
    <filter
       id="filter3794-74"
       color-interpolation-filters="sRGB"
       height="1.3839999"
       width="1.3839999"
       y="-0.192"
       x="-0.192">
      <feGaussianBlur
         stdDeviation="5.28"
         id="feGaussianBlur3796-7" />
    </filter>
    <linearGradient
       gradientUnits="userSpaceOnUse"
       xlink:href="#linearGradient3737-8"
       id="linearGradient3188-7"
       y2="63.893143"
       x2="36.357143"
       y1="6"
       x1="36.357143" />
    <filter
       id="filter3174-7"
       color-interpolation-filters="sRGB">
      <feGaussianBlur
         stdDeviation="1.71"
         id="feGaussianBlur3176-2" />
    </filter>
    <linearGradient
       id="linearGradient3737-8">
      <stop
         offset="0"
         style="stop-color:#ffffff;stop-opacity:1"
         id="stop3739-8" />
      <stop
         offset="1"
         style="stop-color:#ffffff;stop-opacity:0"
         id="stop3741-1" />
    </linearGradient>
    <linearGradient
       gradientTransform="scale(1.0058652,0.994169)"
       gradientUnits="userSpaceOnUse"
       id="ButtonShadow-87"
       y2="7.0165396"
       x2="45.447727"
       y1="92.539597"
       x1="45.447727">
      <stop
         offset="0"
         style="stop-color:#000000;stop-opacity:1"
         id="stop3750-4" />
      <stop
         offset="1"
         style="stop-color:#000000;stop-opacity:0.58823532"
         id="stop3752-3" />
    </linearGradient>
    <linearGradient
       id="linearGradient2881-1">
      <stop
         offset="0"
         style="stop-color:#a90c0c;stop-opacity:1"
         id="stop2883-2" />
      <stop
         offset="1"
         style="stop-color:#f05530;stop-opacity:1"
         id="stop2885-6" />
    </linearGradient>
    <linearGradient
       id="linearGradient3731-0">
      <stop
         offset="0"
         style="stop-color:#dcdcdc;stop-opacity:1"
         id="stop3733-9" />
      <stop
         offset="0.30654153"
         style="stop-color:#ebebeb;stop-opacity:1"
         id="stop3757-0" />
      <stop
         offset="0.70706075"
         style="stop-color:#ffffff;stop-opacity:1"
         id="stop3737-0" />
      <stop
         offset="0.84501493"
         style="stop-color:#fafafa;stop-opacity:1"
         id="stop3759-7" />
      <stop
         offset="1"
         style="stop-color:#f0f0f0;stop-opacity:1"
         id="stop3735-5" />
    </linearGradient>
    <linearGradient
       inkscape:collect="always"
       xlink:href="#linearGradient3731-0"
       id="linearGradient3457"
       gradientUnits="userSpaceOnUse"
       gradientTransform="translate(0,1)"
       x1="48.082497"
       y1="75.561722"
       x2="46.654823"
       y2="16.972879" />
  </defs>
  <metadata
     id="metadata2413">
    <rdf:RDF>
      <cc:Work
         rdf:about="">
        <dc:format>image/svg+xml</dc:format>
        <dc:type
           rdf:resource="http://purl.org/dc/dcmitype/StillImage" />
        <dc:title></dc:title>
      </cc:Work>
    </rdf:RDF>
  </metadata>
  <g
     id="layer2"
     style="display:none">
    <rect
       width="86"
       height="85"
       rx="6"
       ry="6"
       x="5"
       y="7"
       id="rect3745"
       style="opacity:0.9;fill:url(#ButtonShadow);fill-opacity:1;fill-rule:nonzero;stroke:none;filter:url(#filter3174)" />
  </g>
  <rect
     style="fill:#aa0000;fill-opacity:1;fill-rule:nonzero;stroke:none"
     id="rect2419"
     y="5.3290705e-15"
     x="0"
     ry="0"
     rx="0"
     height="96"
     width="96" />
  <path
     style="opacity:0.01000001;fill:url(#linearGradient3028);fill-opacity:1;fill-rule:nonzero;stroke:none"
     id="rect3728"
     inkscape:connector-curvature="0"
     d="m 191.38983,14.135593 c -3.324,0 -6,2.676 -6,6 l 0,2 0,68 0,2 c 0,0.334721 0.0414,0.6507 0.0937,0.96875 0.0487,0.295596 0.097,0.596915 0.1875,0.875 0.01,0.03038 0.0209,0.0636 0.0312,0.09375 0.0989,0.287771 0.23488,0.547452 0.375,0.8125 0.14459,0.273507 0.31562,0.535615 0.5,0.78125 0.18438,0.245635 0.37378,0.473472 0.59375,0.6875 0.43995,0.428056 0.94291,0.814526 1.5,1.09375 0.27854,0.139612 0.57347,0.246947 0.875,0.34375 -0.2562,-0.100222 -0.48671,-0.236272 -0.71875,-0.375 -0.007,-0.0044 -0.0239,0.0045 -0.0312,0 -0.0319,-0.0193 -0.0623,-0.04251 -0.0937,-0.0625 -0.1204,-0.0767 -0.23102,-0.163513 -0.34375,-0.25 -0.10617,-0.0808 -0.21328,-0.161112 -0.3125,-0.25 -0.17793,-0.161433 -0.34746,-0.345388 -0.5,-0.53125 -0.10758,-0.130255 -0.21839,-0.265285 -0.3125,-0.40625 -0.0251,-0.03838 -0.0384,-0.08587 -0.0625,-0.125 -0.0648,-0.103032 -0.13023,-0.204517 -0.1875,-0.3125 -0.10101,-0.194706 -0.20567,-0.415701 -0.28125,-0.625 -0.008,-0.02181 -0.0236,-0.04055 -0.0312,-0.0625 -0.0318,-0.09195 -0.0358,-0.186831 -0.0625,-0.28125 -0.0303,-0.106618 -0.0704,-0.203031 -0.0937,-0.3125 -0.0729,-0.341512 -0.125,-0.698205 -0.125,-1.0625 l 0,-2 0,-68 0,-2 c 0,-2.781848 2.21815,-5 5,-5 l 2,0 68,0 2,0 c 2.78185,0 5,2.218152 5,5 l 0,2 0,68 0,2 c 0,0.364295 -0.0521,0.720988 -0.125,1.0625 -0.0442,0.206893 -0.0884,0.397658 -0.15625,0.59375 -0.008,0.02195 -0.0233,0.04069 -0.0312,0.0625 -0.0627,0.173739 -0.13838,0.367449 -0.21875,0.53125 -0.0416,0.0828 -0.079,0.169954 -0.125,0.25 -0.0546,0.09721 -0.12677,0.18835 -0.1875,0.28125 -0.0941,0.140965 -0.20492,0.275995 -0.3125,0.40625 -0.14317,0.17445 -0.30314,0.346998 -0.46875,0.5 -0.0112,0.0102 -0.02,0.02115 -0.0312,0.03125 -0.13839,0.125556 -0.28509,0.234436 -0.4375,0.34375 -0.10257,0.07315 -0.20432,0.153364 -0.3125,0.21875 -0.007,0.0045 -0.0238,-0.0044 -0.0312,0 -0.23204,0.138728 -0.46255,0.274778 -0.71875,0.375 0.30153,-0.0968 0.59645,-0.204138 0.875,-0.34375 0.55709,-0.279224 1.06005,-0.665694 1.5,-1.09375 0.21997,-0.214028 0.40937,-0.441865 0.59375,-0.6875 0.18438,-0.245635 0.35541,-0.507743 0.5,-0.78125 0.14012,-0.265048 0.27613,-0.524729 0.375,-0.8125 0.0104,-0.03078 0.0213,-0.06274 0.0312,-0.09375 0.0905,-0.278085 0.1388,-0.579404 0.1875,-0.875 0.0524,-0.31805 0.0937,-0.634029 0.0937,-0.96875 l 0,-2 0,-68 0,-2 c 0,-3.324 -2.676,-6 -6,-6 l -72,0 z" />
  <g
     id="layer5"
     style="display:none">
    <rect
       width="66"
       height="66"
       rx="12"
       ry="12"
       x="15"
       y="15"
       clip-path="url(#clipPath3613)"
       id="rect3171"
       style="opacity:0.1;fill:url(#linearGradient3613);fill-opacity:1;fill-rule:nonzero;stroke:#ffffff;stroke-width:0.5;stroke-linecap:round;stroke-linejoin:miter;stroke-miterlimit:4;stroke-opacity:1;stroke-dasharray:none;stroke-dashoffset:0;filter:url(#filter3794)" />
  </g>
  <g
     id="layer2-1"
     style="display:none"
     transform="translate(-133.14045,25.214888)">
    <rect
       width="86"
       height="85"
       rx="6"
       ry="6"
       x="5"
       y="7"
       id="rect3745-2"
       style="opacity:0.9;fill:url(#ButtonShadow-8);fill-opacity:1;fill-rule:nonzero;stroke:none;filter:url(#filter3174-1)" />
  </g>
  <g
     id="layer5-2"
     style="display:none"
     transform="translate(-133.14045,25.214888)">
    <rect
       width="66"
       height="66"
       rx="12"
       ry="12"
       x="15"
       y="15"
       clip-path="url(#clipPath3613-1)"
       id="rect3171-2"
       style="opacity:0.1;fill:url(#linearGradient3613-6);fill-opacity:1;fill-rule:nonzero;stroke:#ffffff;stroke-width:0.5;stroke-linecap:round;stroke-linejoin:miter;stroke-miterlimit:4;stroke-opacity:1;stroke-dasharray:none;stroke-dashoffset:0;filter:url(#filter3794-7)" />
  </g>
  <g
     id="layer2-8"
     style="display:none"
     transform="translate(-170.19434,2.2039556)">
    <rect
       width="86"
       height="85"
       rx="6"
       ry="6"
       x="5"
       y="7"
       id="rect3745-4"
       style="opacity:0.9;fill:url(#ButtonShadow-87);fill-opacity:1;fill-rule:nonzero;stroke:none;filter:url(#filter3174-7)" />
  </g>
  <path
     style="fill:#ffffff;fill-opacity:1;stroke:none;display:inline"
     id="path3620"
     inkscape:connector-curvature="0"
     d="m 50.100019,13.87595 c -20.925975,0 -37.889823,13.810902 -37.889823,30.847512 0,10.851969 6.888783,20.386163 17.294408,25.884775 -0.395696,2.866252 -2.197621,9.882419 -10.728273,12.28188 11.048809,1.194852 18.386437,-4.165907 22.281798,-8.211722 2.897436,0.577534 5.925819,0.892578 9.04189,0.892578 20.925975,0 37.889823,-13.810901 37.889823,-30.847511 0,-17.03661 -16.963848,-30.847512 -37.889823,-30.847512 z m -9.006009,12.567505 9.006009,8.961488 9.006009,-8.961488 8.216638,8.176018 -9.006009,8.961488 9.006009,8.961488 -8.216638,8.176019 -9.006009,-8.961488 -9.006009,8.961488 -8.216638,-8.176019 9.00601,-8.961488 -9.00601,-8.961488 8.216638,-8.176018 z" />
</svg>
