<?xml version="1.0" encoding="UTF-8" standalone="no"?>
<!-- Created with Inkscape (http://www.inkscape.org/) -->

<svg
   xmlns:dc="http://purl.org/dc/elements/1.1/"
   xmlns:cc="http://creativecommons.org/ns#"
   xmlns:rdf="http://www.w3.org/1999/02/22-rdf-syntax-ns#"
   xmlns:svg="http://www.w3.org/2000/svg"
   xmlns="http://www.w3.org/2000/svg"
   xmlns:xlink="http://www.w3.org/1999/xlink"
   xmlns:sodipodi="http://sodipodi.sourceforge.net/DTD/sodipodi-0.dtd"
   xmlns:inkscape="http://www.inkscape.org/namespaces/inkscape"
   version="1.0"
   width="96"
   height="96"
   id="svg2408"
   inkscape:version="0.48.4 r9939"
   sodipodi:docname="nm-signal-00.svg">
  <sodipodi:namedview
     pagecolor="#ffffff"
     bordercolor="#666666"
     borderopacity="1"
     objecttolerance="10"
     gridtolerance="10"
     guidetolerance="10"
     inkscape:pageopacity="0"
     inkscape:pageshadow="2"
     inkscape:window-width="640"
     inkscape:window-height="480"
     id="namedview47"
     showgrid="false"
     inkscape:zoom="1.7383042"
     inkscape:cx="48"
     inkscape:cy="31.728813"
     inkscape:window-x="685"
     inkscape:window-y="137"
     inkscape:window-maximized="0"
     inkscape:current-layer="svg2408" />
  <defs
     id="defs2410">
    <linearGradient
       x1="45.447727"
       y1="92.539597"
       x2="45.447727"
       y2="7.0165396"
       id="ButtonShadow"
       gradientUnits="userSpaceOnUse"
       gradientTransform="scale(1.0058652,0.994169)">
      <stop
         id="stop3750"
         style="stop-color:#000000;stop-opacity:1"
         offset="0" />
      <stop
         id="stop3752"
         style="stop-color:#000000;stop-opacity:0.58823532"
         offset="1" />
    </linearGradient>
    <linearGradient
       id="linearGradient3737">
      <stop
         id="stop3739"
         style="stop-color:#ffffff;stop-opacity:1"
         offset="0" />
      <stop
         id="stop3741"
         style="stop-color:#ffffff;stop-opacity:0"
         offset="1" />
    </linearGradient>
    <filter
       color-interpolation-filters="sRGB"
       id="filter3174">
      <feGaussianBlur
         id="feGaussianBlur3176"
         stdDeviation="1.71" />
    </filter>
    <linearGradient
       x1="36.357143"
       y1="6"
       x2="36.357143"
       y2="63.893143"
       id="linearGradient3188"
       xlink:href="#linearGradient3737"
       gradientUnits="userSpaceOnUse" />
    <filter
       x="-0.192"
       y="-0.192"
       width="1.3839999"
       height="1.3839999"
       color-interpolation-filters="sRGB"
       id="filter3794">
      <feGaussianBlur
         id="feGaussianBlur3796"
         stdDeviation="5.28" />
    </filter>
    <linearGradient
       x1="48"
       y1="20.220806"
       x2="48"
       y2="138.66119"
       id="linearGradient3613"
       xlink:href="#linearGradient3737"
       gradientUnits="userSpaceOnUse" />
    <radialGradient
       cx="48"
       cy="90.171875"
       r="42"
       fx="48"
       fy="90.171875"
       id="radialGradient3619"
       xlink:href="#linearGradient3737"
       gradientUnits="userSpaceOnUse"
       gradientTransform="matrix(1.1573129,0,0,0.99590774,-7.5510206,0.19713193)" />
    <clipPath
       id="clipPath3613">
      <rect
         width="84"
         height="84"
         rx="6"
         ry="6"
         x="6"
         y="6"
         id="rect3615"
         style="fill:#ffffff;fill-opacity:1;fill-rule:nonzero;stroke:none" />
    </clipPath>
    <linearGradient
       x1="45.447727"
       y1="92.539597"
       x2="45.447727"
       y2="7.0165396"
       id="ButtonShadow-0"
       gradientUnits="userSpaceOnUse"
       gradientTransform="matrix(1.0058652,0,0,0.994169,100,0)">
      <stop
         id="stop3750-8"
         style="stop-color:#000000;stop-opacity:1"
         offset="0" />
      <stop
         id="stop3752-5"
         style="stop-color:#000000;stop-opacity:0.58823532"
         offset="1" />
    </linearGradient>
    <linearGradient
       x1="32.251034"
       y1="6.1317081"
       x2="32.251034"
       y2="90.238609"
       id="linearGradient3780"
       xlink:href="#ButtonShadow-0"
       gradientUnits="userSpaceOnUse"
       gradientTransform="matrix(1.0238095,0,0,-1.0119048,-1.1428571,98.071429)" />
    <linearGradient
       x1="32.251034"
       y1="6.1317081"
       x2="32.251034"
       y2="90.238609"
       id="linearGradient3772"
       xlink:href="#ButtonShadow-0"
       gradientUnits="userSpaceOnUse"
       gradientTransform="matrix(1.0238095,0,0,-1.0119048,-1.1428571,98.071429)" />
    <linearGradient
       x1="32.251034"
       y1="6.1317081"
       x2="32.251034"
       y2="90.238609"
       id="linearGradient3725"
       xlink:href="#ButtonShadow-0"
       gradientUnits="userSpaceOnUse"
       gradientTransform="matrix(1.0238095,0,0,-1.0119048,-1.1428571,98.071429)" />
    <linearGradient
       x1="32.251034"
       y1="6.1317081"
       x2="32.251034"
       y2="90.238609"
       id="linearGradient3721"
       xlink:href="#ButtonShadow-0"
       gradientUnits="userSpaceOnUse"
       gradientTransform="matrix(1,0,0,-1,0,97)" />
    <linearGradient
       x1="32.251034"
       y1="6.1317081"
       x2="32.251034"
       y2="90.238609"
       id="linearGradient3016"
       xlink:href="#ButtonShadow-0"
       gradientUnits="userSpaceOnUse"
       gradientTransform="matrix(1.0238095,0,0,-1.0119048,-1.1428571,98.071429)" />
    <linearGradient
       inkscape:collect="always"
       xlink:href="#linearGradient3737"
       id="linearGradient3028"
       gradientUnits="userSpaceOnUse"
       x1="36.357143"
       y1="6"
       x2="36.357143"
       y2="63.893143"
       gradientTransform="translate(179.38983,8.1355932)" />
  </defs>
  <metadata
     id="metadata2413">
    <rdf:RDF>
      <cc:Work
         rdf:about="">
        <dc:format>image/svg+xml</dc:format>
        <dc:type
           rdf:resource="http://purl.org/dc/dcmitype/StillImage" />
        <dc:title />
      </cc:Work>
    </rdf:RDF>
  </metadata>
  <g
     id="layer2"
     style="display:none">
    <rect
       width="86"
       height="85"
       rx="6"
       ry="6"
       x="5"
       y="7"
       id="rect3745"
       style="opacity:0.9;fill:url(#ButtonShadow);fill-opacity:1;fill-rule:nonzero;stroke:none;filter:url(#filter3174)" />
  </g>
  <rect
     style="fill:#aa0000;fill-opacity:1;fill-rule:nonzero;stroke:none"
     id="rect2419"
     y="5.3290705e-15"
     x="0"
     ry="0"
     rx="0"
     height="96"
     width="96" />
  <path
     style="opacity:0.01000001;fill:url(#linearGradient3028);fill-opacity:1;fill-rule:nonzero;stroke:none"
     id="rect3728"
     inkscape:connector-curvature="0"
     d="m 191.38983,14.135593 c -3.324,0 -6,2.676 -6,6 l 0,2 0,68 0,2 c 0,0.334721 0.0414,0.6507 0.0937,0.96875 0.0487,0.295596 0.097,0.596915 0.1875,0.875 0.01,0.03038 0.0209,0.0636 0.0312,0.09375 0.0989,0.287771 0.23488,0.547452 0.375,0.8125 0.14459,0.273507 0.31562,0.535615 0.5,0.78125 0.18438,0.245635 0.37378,0.473472 0.59375,0.6875 0.43995,0.428056 0.94291,0.814526 1.5,1.09375 0.27854,0.139612 0.57347,0.246947 0.875,0.34375 -0.2562,-0.100222 -0.48671,-0.236272 -0.71875,-0.375 -0.007,-0.0044 -0.0239,0.0045 -0.0312,0 -0.0319,-0.0193 -0.0623,-0.04251 -0.0937,-0.0625 -0.1204,-0.0767 -0.23102,-0.163513 -0.34375,-0.25 -0.10617,-0.0808 -0.21328,-0.161112 -0.3125,-0.25 -0.17793,-0.161433 -0.34746,-0.345388 -0.5,-0.53125 -0.10758,-0.130255 -0.21839,-0.265285 -0.3125,-0.40625 -0.0251,-0.03838 -0.0384,-0.08587 -0.0625,-0.125 -0.0648,-0.103032 -0.13023,-0.204517 -0.1875,-0.3125 -0.10101,-0.194706 -0.20567,-0.415701 -0.28125,-0.625 -0.008,-0.02181 -0.0236,-0.04055 -0.0312,-0.0625 -0.0318,-0.09195 -0.0358,-0.186831 -0.0625,-0.28125 -0.0303,-0.106618 -0.0704,-0.203031 -0.0937,-0.3125 -0.0729,-0.341512 -0.125,-0.698205 -0.125,-1.0625 l 0,-2 0,-68 0,-2 c 0,-2.781848 2.21815,-5 5,-5 l 2,0 68,0 2,0 c 2.78185,0 5,2.218152 5,5 l 0,2 0,68 0,2 c 0,0.364295 -0.0521,0.720988 -0.125,1.0625 -0.0442,0.206893 -0.0884,0.397658 -0.15625,0.59375 -0.008,0.02195 -0.0233,0.04069 -0.0312,0.0625 -0.0627,0.173739 -0.13838,0.367449 -0.21875,0.53125 -0.0416,0.0828 -0.079,0.169954 -0.125,0.25 -0.0546,0.09721 -0.12677,0.18835 -0.1875,0.28125 -0.0941,0.140965 -0.20492,0.275995 -0.3125,0.40625 -0.14317,0.17445 -0.30314,0.346998 -0.46875,0.5 -0.0112,0.0102 -0.02,0.02115 -0.0312,0.03125 -0.13839,0.125556 -0.28509,0.234436 -0.4375,0.34375 -0.10257,0.07315 -0.20432,0.153364 -0.3125,0.21875 -0.007,0.0045 -0.0238,-0.0044 -0.0312,0 -0.23204,0.138728 -0.46255,0.274778 -0.71875,0.375 0.30153,-0.0968 0.59645,-0.204138 0.875,-0.34375 0.55709,-0.279224 1.06005,-0.665694 1.5,-1.09375 0.21997,-0.214028 0.40937,-0.441865 0.59375,-0.6875 0.18438,-0.245635 0.35541,-0.507743 0.5,-0.78125 0.14012,-0.265048 0.27613,-0.524729 0.375,-0.8125 0.0104,-0.03078 0.0213,-0.06274 0.0312,-0.09375 0.0905,-0.278085 0.1388,-0.579404 0.1875,-0.875 0.0524,-0.31805 0.0937,-0.634029 0.0937,-0.96875 l 0,-2 0,-68 0,-2 c 0,-3.324 -2.676,-6 -6,-6 l -72,0 z" />
  <g
     id="layer5"
     style="display:none">
    <rect
       width="66"
       height="66"
       rx="12"
       ry="12"
       x="15"
       y="15"
       clip-path="url(#clipPath3613)"
       id="rect3171"
       style="opacity:0.1;fill:url(#linearGradient3613);fill-opacity:1;fill-rule:nonzero;stroke:#ffffff;stroke-width:0.5;stroke-linecap:round;stroke-linejoin:miter;stroke-miterlimit:4;stroke-opacity:1;stroke-dasharray:none;stroke-dashoffset:0;filter:url(#filter3794)" />
  </g>
  <path
     style="fill:#ff00ff"
     d="m -95.336906,68.745249 c -1.703999,-0.598688 -3.319656,-2.309585 -3.95215,-4.18513 -0.519791,-1.541345 -0.432439,-3.801208 0.205591,-5.318842 0.576681,-1.371697 1.735283,-2.662859 2.972212,-3.312275 0.830101,-0.435824 1.206581,-0.508299 2.640392,-0.508299 1.433811,0 1.810297,0.07249 2.640393,0.508299 1.236934,0.649416 2.395536,1.940578 2.972211,3.312275 0.638036,1.517634 0.725388,3.777497 0.205591,5.318842 -0.649021,1.924555 -2.255864,3.596915 -4.032729,4.197158 -0.995511,0.336293 -2.675866,0.330757 -3.651511,-0.01203 z M -109.40948,53.311138 c -2.03402,-0.916117 -3.19428,-2.642313 -3.36577,-5.007477 -0.14799,-2.041144 0.33656,-3.233909 2.12275,-5.225238 1.7967,-2.003058 3.41689,-3.337668 5.55726,-4.577707 4.13961,-2.398328 7.17341,-3.245304 11.624379,-3.245304 4.450974,0 7.484771,0.846976 11.624389,3.245304 3.034471,1.75805 6.302418,4.84876 7.138877,6.751702 1.284739,2.922788 0.308664,6.276807 -2.253497,7.743531 -0.511787,0.292975 -1.184775,0.461003 -2.086731,0.521 -1.171641,0.07794 -1.446109,0.02685 -2.288344,-0.425917 -0.526362,-0.282962 -1.663032,-1.214464 -2.525933,-2.070003 -1.515907,-1.502974 -2.846228,-2.452092 -4.503995,-3.213376 -1.162075,-0.533647 -3.791562,-1.100545 -5.104766,-1.100545 -1.313199,0 -3.942691,0.566898 -5.104761,1.100545 -1.633478,0.750127 -2.970228,1.696239 -4.411418,3.122256 -2.20923,2.185963 -2.74728,2.495277 -4.46169,2.56492 -0.84485,0.03431 -1.64265,-0.04042 -1.96075,-0.183691 z m -10.37731,-14.068353 c -1.29414,-0.19291 -2.09722,-0.636621 -2.97807,-1.645415 -1.50094,-1.71895 -1.89618,-4.218238 -1.01695,-6.430603 0.4654,-1.171063 2.63705,-3.538555 5.31521,-5.794555 5.36698,-4.520968 11.72067,-7.643137 17.95469,-8.822841 4.42314,-0.837016 9.658958,-0.837016 14.082104,0 6.116739,1.157511 12.55493,4.290285 17.736079,8.630248 2.84173,2.380358 4.844979,4.52136 5.425613,5.798702 1.772637,3.899647 -0.660359,8.277777 -4.600366,8.278267 -1.636539,1.96e-4 -2.552742,-0.512315 -4.656898,-2.60505 -2.493364,-2.479827 -4.411163,-3.922417 -7.47947,-5.626145 -4.557272,-2.530503 -8.354365,-3.524258 -13.466013,-3.524258 -5.111643,0 -8.908739,0.993755 -13.466009,3.524258 -3.07847,1.709367 -4.98641,3.146426 -7.50842,5.655308 -0.90472,0.900015 -1.88258,1.774961 -2.17303,1.944332 -0.84526,0.492906 -2.21476,0.759914 -3.16847,0.617752 z m -11.61774,-14.659168 c -1.64845,-0.313011 -2.98739,-1.43887 -3.8183,-3.210643 -0.53618,-1.143306 -0.54906,-3.573717 -0.0257,-4.846985 0.61023,-1.484586 4.0126,-4.936329 7.8926,-8.007133 7.96108,-6.300748 16.99129,-10.148004 27.02108,-11.512121 3.507126,-0.476992 10.220837,-0.476992 13.727965,0 11.609181,1.57893 22.10791,6.603388 30.741447,14.712185 3.682954,3.459098 4.411499,4.529264 4.592028,6.745262 0.295836,3.631389 -2.597523,6.677638 -5.799165,6.10561 -1.42297,-0.25424 -2.076896,-0.653858 -3.615707,-2.209582 -3.611699,-3.651387 -7.128027,-6.328093 -11.395391,-8.674412 -3.469773,-1.907779 -5.457701,-2.752156 -8.733562,-3.709602 -8.440714,-2.466995 -16.866549,-2.466995 -25.307265,0 -3.27586,0.957446 -5.26378,1.801823 -8.73356,3.709602 -4.25446,2.33922 -7.91961,5.128942 -11.3735,8.656916 -1.82621,1.865384 -3.44882,2.568288 -5.17298,2.240903 z"
     id="path3806"
     inkscape:connector-curvature="0" />
  <path
     style="fill:#ffffff;stroke:#ffffff;stroke-width:0.53841989999999995;stroke-opacity:1;fill-opacity:1"
     d="m 46.950656,83.754243 c -1.205479,-0.469936 -2.731563,-1.894577 -3.306713,-3.086895 -1.650804,-3.422243 -0.310437,-7.343328 3.056835,-8.94239 1.026753,-0.487589 1.365107,-0.55817 2.675798,-0.55817 1.310691,0 1.649048,0.07058 2.675801,0.55817 3.367269,1.599062 4.707638,5.520147 3.056831,8.94239 -0.592404,1.228093 -2.10056,2.618901 -3.356823,3.095631 -1.317818,0.500087 -3.506709,0.49611 -4.801729,-0.0087 z m 4.824691,-0.589539 c 1.328563,-0.616907 2.406181,-1.698639 3.003575,-3.015035 0.424096,-0.934532 0.507884,-1.354144 0.509335,-2.550826 0.0021,-1.796489 -0.536489,-3.024281 -1.901159,-4.333333 -2.947701,-2.827566 -7.603223,-1.891927 -9.437662,1.896732 -0.408397,0.843459 -0.485998,1.233696 -0.484543,2.436601 0.0011,1.196682 0.08524,1.616294 0.509337,2.550826 1.37625,3.032659 4.861928,4.379833 7.801117,3.015035 z M 34.170894,69.986333 c -2.574279,-0.441003 -4.201604,-2.357847 -4.351437,-5.125602 -0.069,-1.274598 -0.02372,-1.581173 0.358602,-2.428192 1.096953,-2.430226 5.366016,-5.890071 9.401659,-7.619541 9.362786,-4.012399 20.601874,-1.81258 27.380438,5.359154 1.636093,1.730989 1.920792,2.389854 1.921386,4.446506 5.26e-4,1.548956 -0.04598,1.78597 -0.520066,2.653964 -0.966606,1.769829 -2.737473,2.794685 -4.788548,2.771282 -1.684512,-0.01922 -2.749034,-0.551486 -4.739631,-2.369829 -5.5704,-5.088374 -13.316649,-5.12952 -18.802218,-0.09987 -1.747355,1.602119 -2.380068,2.014872 -3.589047,2.341322 -1.010593,0.272882 -1.079112,0.275018 -2.271138,0.07082 z m 3.030999,-0.892374 c 0.43403,-0.223449 1.284671,-0.875037 1.89031,-1.447972 1.961241,-1.855346 3.588564,-2.842696 6.047896,-3.669457 1.386273,-0.466031 1.708566,-0.504404 4.236477,-0.504404 2.52791,0 2.850207,0.03837 4.236478,0.504404 2.496855,0.839377 3.890327,1.693683 6.236374,3.823378 1.03172,0.936575 1.629248,1.333475 2.357114,1.565683 4.070499,1.298583 7.730555,-3.091993 5.799639,-6.957198 -0.635998,-1.273105 -2.560028,-3.164824 -4.795372,-4.714836 -4.261017,-2.954636 -8.779669,-4.387822 -13.834233,-4.387822 -5.058244,0 -9.546062,1.424284 -13.856813,4.397689 -2.104291,1.451466 -4.36605,3.7101 -4.87016,4.863443 -0.488378,1.117336 -0.522868,2.896862 -0.07618,3.930161 1.141857,2.641394 4.208425,3.842828 6.628475,2.596931 z M 22.545546,56.933733 c -1.755467,-0.407496 -2.933691,-1.3476 -3.720467,-2.968558 -0.524267,-1.080128 -0.55548,-1.251343 -0.480563,-2.636113 0.104472,-1.931153 0.480942,-2.656813 2.318109,-4.468303 3.038729,-2.996248 7.175572,-5.84068 11.356328,-7.808445 2.700598,-1.271099 3.752042,-1.67263 6.224861,-2.37719 7.071892,-2.014929 15.193634,-2.014929 22.265521,0 4.896698,1.395173 9.830582,3.893833 13.930755,7.05493 2.710383,2.089611 4.706376,4.0039 5.352457,5.133346 0.525699,0.919011 0.563277,1.098173 0.563277,2.685556 0,1.5379 -0.04852,1.789654 -0.506489,2.627765 -0.613876,1.123439 -1.167478,1.674952 -2.276835,2.268262 -1.796743,0.960937 -4.082022,0.737671 -5.826205,-0.569205 -0.507632,-0.380358 -1.034894,-0.828348 -1.171695,-0.995534 -0.136801,-0.167187 -0.970769,-0.892551 -1.853252,-1.611919 -9.559337,-7.792406 -22.124,-9.281464 -32.736932,-3.879702 -2.987415,1.520532 -5.214874,3.095453 -7.962584,5.629926 -0.633354,0.584199 -1.549424,1.248044 -2.035716,1.475212 -0.989832,0.462388 -2.507781,0.6565 -3.44057,0.439972 z m 3.286681,-0.875881 c 0.37676,-0.19594 1.286342,-0.913395 2.02129,-1.594345 4.821237,-4.466993 10.175692,-7.215693 16.196095,-8.31423 2.90781,-0.530585 7.74612,-0.530585 10.653929,0 6.007621,1.096206 11.359517,3.839875 16.175138,8.292244 1.523487,1.408568 2.566255,1.976983 3.820314,2.082463 3.212875,0.270235 5.950271,-2.853321 5.217105,-5.953074 -0.315023,-1.331904 -0.915123,-2.186454 -2.663813,-3.793311 -5.315272,-4.884152 -11.673441,-8.370922 -18.181297,-9.970473 -3.626509,-0.891349 -5.43947,-1.096386 -9.694412,-1.096386 -4.25494,0 -6.067905,0.205037 -9.694412,1.096386 -6.423185,1.578739 -13.015492,5.173183 -18.00459,9.816959 -2.446137,2.276824 -2.885917,3.026679 -2.888403,4.924871 -0.0029,2.035549 1.0473,3.674852 2.944001,4.596472 0.770623,0.374451 1.082046,0.425429 2.157338,0.353152 0.761292,-0.05117 1.526735,-0.224912 1.941717,-0.440728 z M 10.599416,43.425092 C 8.9960139,42.891598 7.7214098,41.682407 7.1278934,40.131721 6.7211776,39.069089 6.7509134,37.289076 7.1955211,36.083824 7.7369998,34.615951 10.521615,31.942529 14.83616,28.748293 22.59381,23.00498 31.613637,19.391557 41.78622,17.951864 c 3.138904,-0.444239 12.041816,-0.444239 15.180716,0 6.837575,0.9677 12.336443,2.63123 18.140011,5.487755 4.67455,2.300818 8.679774,4.934956 12.391866,8.149821 3.846491,3.331256 4.330807,4.071722 4.330807,6.621255 0,1.33914 -0.06968,1.747433 -0.412249,2.417001 -1.018881,1.991191 -2.601769,2.945529 -4.883348,2.944227 -1.787389,-0.0011 -2.575009,-0.369549 -4.453082,-2.083603 -3.74335,-3.416428 -7.222828,-5.830507 -11.433718,-7.93278 -5.976942,-2.983973 -11.91753,-4.554574 -18.538858,-4.9014 -13.322902,-0.697851 -25.489967,3.694294 -35.34966,12.760754 -0.707071,0.650185 -1.687906,1.388933 -2.179623,1.64166 -1.097514,0.564081 -2.892405,0.730298 -3.979666,0.368538 z m 3.776316,-0.800337 c 0.409441,-0.212868 1.243499,-0.856799 1.853456,-1.430958 7.209135,-6.786002 15.899393,-11.033426 25.759043,-12.589906 2.16652,-0.342016 3.238087,-0.400034 7.388345,-0.400034 4.15026,0 5.221821,0.05802 7.388344,0.400034 9.843802,1.553979 18.549224,5.804444 25.730972,12.563272 2.16587,2.038325 4.030752,2.478506 6.163954,1.454928 2.691314,-1.29137 3.657264,-4.519795 2.09665,-7.007434 -0.436267,-0.695426 -2.24389,-2.503222 -3.869433,-3.869819 -6.839599,-5.750046 -14.515993,-9.756116 -22.75712,-11.876239 -5.02479,-1.292682 -9.323237,-1.824158 -14.753367,-1.824158 -1.990261,0 -4.49243,0.08891 -5.560379,0.197564 -9.813488,0.998491 -18.517669,4.088676 -26.515011,9.413434 -4.40763,2.934675 -8.663723,6.68745 -9.5343229,8.406811 -0.596563,1.178169 -0.6349158,2.842316 -0.093743,4.067647 0.472642,1.070156 1.7675042,2.355462 2.7383009,2.718083 1.047549,0.391291 2.993016,0.281744 3.964311,-0.223225 z"
     id="path3815"
     inkscape:connector-curvature="0" />
</svg>
