<?xml version="1.0" encoding="UTF-8" standalone="no"?>
<!-- Created with Inkscape (http://www.inkscape.org/) -->

<svg
   xmlns:dc="http://purl.org/dc/elements/1.1/"
   xmlns:cc="http://creativecommons.org/ns#"
   xmlns:rdf="http://www.w3.org/1999/02/22-rdf-syntax-ns#"
   xmlns:svg="http://www.w3.org/2000/svg"
   xmlns="http://www.w3.org/2000/svg"
   xmlns:xlink="http://www.w3.org/1999/xlink"
   xmlns:sodipodi="http://sodipodi.sourceforge.net/DTD/sodipodi-0.dtd"
   xmlns:inkscape="http://www.inkscape.org/namespaces/inkscape"
   version="1.0"
   width="96"
   height="96"
   id="svg2408"
   inkscape:version="0.48.4 r9939"
   sodipodi:docname="nm-signal-100.svg">
  <sodipodi:namedview
     pagecolor="#ffffff"
     bordercolor="#666666"
     borderopacity="1"
     objecttolerance="10"
     gridtolerance="10"
     guidetolerance="10"
     inkscape:pageopacity="0"
     inkscape:pageshadow="2"
     inkscape:window-width="640"
     inkscape:window-height="480"
     id="namedview47"
     showgrid="false"
     inkscape:zoom="3.4766083"
     inkscape:cx="48"
     inkscape:cy="39.864407"
     inkscape:window-x="723"
     inkscape:window-y="39"
     inkscape:window-maximized="0"
     inkscape:current-layer="svg2408" />
  <defs
     id="defs2410">
    <linearGradient
       x1="45.447727"
       y1="92.539597"
       x2="45.447727"
       y2="7.0165396"
       id="ButtonShadow"
       gradientUnits="userSpaceOnUse"
       gradientTransform="scale(1.0058652,0.994169)">
      <stop
         id="stop3750"
         style="stop-color:#000000;stop-opacity:1"
         offset="0" />
      <stop
         id="stop3752"
         style="stop-color:#000000;stop-opacity:0.58823532"
         offset="1" />
    </linearGradient>
    <linearGradient
       id="linearGradient3737">
      <stop
         id="stop3739"
         style="stop-color:#ffffff;stop-opacity:1"
         offset="0" />
      <stop
         id="stop3741"
         style="stop-color:#ffffff;stop-opacity:0"
         offset="1" />
    </linearGradient>
    <filter
       color-interpolation-filters="sRGB"
       id="filter3174">
      <feGaussianBlur
         id="feGaussianBlur3176"
         stdDeviation="1.71" />
    </filter>
    <linearGradient
       x1="36.357143"
       y1="6"
       x2="36.357143"
       y2="63.893143"
       id="linearGradient3188"
       xlink:href="#linearGradient3737"
       gradientUnits="userSpaceOnUse" />
    <filter
       x="-0.192"
       y="-0.192"
       width="1.3839999"
       height="1.3839999"
       color-interpolation-filters="sRGB"
       id="filter3794">
      <feGaussianBlur
         id="feGaussianBlur3796"
         stdDeviation="5.28" />
    </filter>
    <linearGradient
       x1="48"
       y1="20.220806"
       x2="48"
       y2="138.66119"
       id="linearGradient3613"
       xlink:href="#linearGradient3737"
       gradientUnits="userSpaceOnUse" />
    <radialGradient
       cx="48"
       cy="90.171875"
       r="42"
       fx="48"
       fy="90.171875"
       id="radialGradient3619"
       xlink:href="#linearGradient3737"
       gradientUnits="userSpaceOnUse"
       gradientTransform="matrix(1.1573129,0,0,0.99590774,-7.5510206,0.19713193)" />
    <clipPath
       id="clipPath3613">
      <rect
         width="84"
         height="84"
         rx="6"
         ry="6"
         x="6"
         y="6"
         id="rect3615"
         style="fill:#ffffff;fill-opacity:1;fill-rule:nonzero;stroke:none" />
    </clipPath>
    <linearGradient
       x1="45.447727"
       y1="92.539597"
       x2="45.447727"
       y2="7.0165396"
       id="ButtonShadow-0"
       gradientUnits="userSpaceOnUse"
       gradientTransform="matrix(1.0058652,0,0,0.994169,100,0)">
      <stop
         id="stop3750-8"
         style="stop-color:#000000;stop-opacity:1"
         offset="0" />
      <stop
         id="stop3752-5"
         style="stop-color:#000000;stop-opacity:0.58823532"
         offset="1" />
    </linearGradient>
    <linearGradient
       x1="32.251034"
       y1="6.1317081"
       x2="32.251034"
       y2="90.238609"
       id="linearGradient3780"
       xlink:href="#ButtonShadow-0"
       gradientUnits="userSpaceOnUse"
       gradientTransform="matrix(1.0238095,0,0,-1.0119048,-1.1428571,98.071429)" />
    <linearGradient
       x1="32.251034"
       y1="6.1317081"
       x2="32.251034"
       y2="90.238609"
       id="linearGradient3772"
       xlink:href="#ButtonShadow-0"
       gradientUnits="userSpaceOnUse"
       gradientTransform="matrix(1.0238095,0,0,-1.0119048,-1.1428571,98.071429)" />
    <linearGradient
       x1="32.251034"
       y1="6.1317081"
       x2="32.251034"
       y2="90.238609"
       id="linearGradient3725"
       xlink:href="#ButtonShadow-0"
       gradientUnits="userSpaceOnUse"
       gradientTransform="matrix(1.0238095,0,0,-1.0119048,-1.1428571,98.071429)" />
    <linearGradient
       x1="32.251034"
       y1="6.1317081"
       x2="32.251034"
       y2="90.238609"
       id="linearGradient3721"
       xlink:href="#ButtonShadow-0"
       gradientUnits="userSpaceOnUse"
       gradientTransform="matrix(1,0,0,-1,0,97)" />
    <linearGradient
       x1="32.251034"
       y1="6.1317081"
       x2="32.251034"
       y2="90.238609"
       id="linearGradient3016"
       xlink:href="#ButtonShadow-0"
       gradientUnits="userSpaceOnUse"
       gradientTransform="matrix(1.0238095,0,0,-1.0119048,-1.1428571,98.071429)" />
    <linearGradient
       inkscape:collect="always"
       xlink:href="#linearGradient3737"
       id="linearGradient3028"
       gradientUnits="userSpaceOnUse"
       x1="36.357143"
       y1="6"
       x2="36.357143"
       y2="63.893143"
       gradientTransform="translate(179.38983,8.1355932)" />
  </defs>
  <metadata
     id="metadata2413">
    <rdf:RDF>
      <cc:Work
         rdf:about="">
        <dc:format>image/svg+xml</dc:format>
        <dc:type
           rdf:resource="http://purl.org/dc/dcmitype/StillImage" />
        <dc:title></dc:title>
      </cc:Work>
    </rdf:RDF>
  </metadata>
  <g
     id="layer2"
     style="display:none">
    <rect
       width="86"
       height="85"
       rx="6"
       ry="6"
       x="5"
       y="7"
       id="rect3745"
       style="opacity:0.9;fill:url(#ButtonShadow);fill-opacity:1;fill-rule:nonzero;stroke:none;filter:url(#filter3174)" />
  </g>
  <rect
     style="fill:#00aad4;fill-opacity:1;fill-rule:nonzero;stroke:none"
     id="rect2419"
     y="5.3290705e-15"
     x="0"
     ry="0"
     rx="0"
     height="96"
     width="96" />
  <path
     style="opacity:0.01000001;fill:url(#linearGradient3028);fill-opacity:1;fill-rule:nonzero;stroke:none"
     id="rect3728"
     inkscape:connector-curvature="0"
     d="m 191.38983,14.135593 c -3.324,0 -6,2.676 -6,6 l 0,2 0,68 0,2 c 0,0.334721 0.0414,0.6507 0.0937,0.96875 0.0487,0.295596 0.097,0.596915 0.1875,0.875 0.01,0.03038 0.0209,0.0636 0.0312,0.09375 0.0989,0.287771 0.23488,0.547452 0.375,0.8125 0.14459,0.273507 0.31562,0.535615 0.5,0.78125 0.18438,0.245635 0.37378,0.473472 0.59375,0.6875 0.43995,0.428056 0.94291,0.814526 1.5,1.09375 0.27854,0.139612 0.57347,0.246947 0.875,0.34375 -0.2562,-0.100222 -0.48671,-0.236272 -0.71875,-0.375 -0.007,-0.0044 -0.0239,0.0045 -0.0312,0 -0.0319,-0.0193 -0.0623,-0.04251 -0.0937,-0.0625 -0.1204,-0.0767 -0.23102,-0.163513 -0.34375,-0.25 -0.10617,-0.0808 -0.21328,-0.161112 -0.3125,-0.25 -0.17793,-0.161433 -0.34746,-0.345388 -0.5,-0.53125 -0.10758,-0.130255 -0.21839,-0.265285 -0.3125,-0.40625 -0.0251,-0.03838 -0.0384,-0.08587 -0.0625,-0.125 -0.0648,-0.103032 -0.13023,-0.204517 -0.1875,-0.3125 -0.10101,-0.194706 -0.20567,-0.415701 -0.28125,-0.625 -0.008,-0.02181 -0.0236,-0.04055 -0.0312,-0.0625 -0.0318,-0.09195 -0.0358,-0.186831 -0.0625,-0.28125 -0.0303,-0.106618 -0.0704,-0.203031 -0.0937,-0.3125 -0.0729,-0.341512 -0.125,-0.698205 -0.125,-1.0625 l 0,-2 0,-68 0,-2 c 0,-2.781848 2.21815,-5 5,-5 l 2,0 68,0 2,0 c 2.78185,0 5,2.218152 5,5 l 0,2 0,68 0,2 c 0,0.364295 -0.0521,0.720988 -0.125,1.0625 -0.0442,0.206893 -0.0884,0.397658 -0.15625,0.59375 -0.008,0.02195 -0.0233,0.04069 -0.0312,0.0625 -0.0627,0.173739 -0.13838,0.367449 -0.21875,0.53125 -0.0416,0.0828 -0.079,0.169954 -0.125,0.25 -0.0546,0.09721 -0.12677,0.18835 -0.1875,0.28125 -0.0941,0.140965 -0.20492,0.275995 -0.3125,0.40625 -0.14317,0.17445 -0.30314,0.346998 -0.46875,0.5 -0.0112,0.0102 -0.02,0.02115 -0.0312,0.03125 -0.13839,0.125556 -0.28509,0.234436 -0.4375,0.34375 -0.10257,0.07315 -0.20432,0.153364 -0.3125,0.21875 -0.007,0.0045 -0.0238,-0.0044 -0.0312,0 -0.23204,0.138728 -0.46255,0.274778 -0.71875,0.375 0.30153,-0.0968 0.59645,-0.204138 0.875,-0.34375 0.55709,-0.279224 1.06005,-0.665694 1.5,-1.09375 0.21997,-0.214028 0.40937,-0.441865 0.59375,-0.6875 0.18438,-0.245635 0.35541,-0.507743 0.5,-0.78125 0.14012,-0.265048 0.27613,-0.524729 0.375,-0.8125 0.0104,-0.03078 0.0213,-0.06274 0.0312,-0.09375 0.0905,-0.278085 0.1388,-0.579404 0.1875,-0.875 0.0524,-0.31805 0.0937,-0.634029 0.0937,-0.96875 l 0,-2 0,-68 0,-2 c 0,-3.324 -2.676,-6 -6,-6 l -72,0 z" />
  <g
     id="layer5"
     style="display:none">
    <rect
       width="66"
       height="66"
       rx="12"
       ry="12"
       x="15"
       y="15"
       clip-path="url(#clipPath3613)"
       id="rect3171"
       style="opacity:0.1;fill:url(#linearGradient3613);fill-opacity:1;fill-rule:nonzero;stroke:#ffffff;stroke-width:0.5;stroke-linecap:round;stroke-linejoin:miter;stroke-miterlimit:4;stroke-opacity:1;stroke-dasharray:none;stroke-dashoffset:0;filter:url(#filter3794)" />
  </g>
  <path
     style="fill:#ffffff;stroke:#ffffff;stroke-width:0.53841989999999995;stroke-opacity:1;fill-opacity:1"
     d="m 46.950656,83.754243 c -1.205479,-0.469936 -2.731563,-1.894577 -3.306713,-3.086895 -1.650804,-3.422243 -0.310437,-7.343328 3.056835,-8.94239 1.026753,-0.487589 1.365107,-0.55817 2.675798,-0.55817 1.310691,0 1.649048,0.07058 2.675801,0.55817 3.367269,1.599062 4.707638,5.520147 3.056831,8.94239 -0.592404,1.228093 -2.10056,2.618901 -3.356823,3.095631 -1.317818,0.500087 -3.506709,0.49611 -4.801729,-0.0087 z m 4.824691,-0.589539 c 1.328563,-0.616907 2.406181,-1.698639 3.003575,-3.015035 0.424096,-0.934532 0.507884,-1.354144 0.509335,-2.550826 0.0021,-1.796489 -0.536489,-3.024281 -1.901159,-4.333333 -2.947701,-2.827566 -7.603223,-1.891927 -9.437662,1.896732 -0.408397,0.843459 -0.485998,1.233696 -0.484543,2.436601 0.0011,1.196682 0.08524,1.616294 0.509337,2.550826 1.37625,3.032659 4.861928,4.379833 7.801117,3.015035 z M 34.170894,69.986333 c -2.574279,-0.441003 -4.201604,-2.357847 -4.351437,-5.125602 -0.069,-1.274598 -0.02372,-1.581173 0.358602,-2.428192 1.096953,-2.430226 5.366016,-5.890071 9.401659,-7.619541 9.362786,-4.012399 20.601874,-1.81258 27.380438,5.359154 1.636093,1.730989 1.920792,2.389854 1.921386,4.446506 5.26e-4,1.548956 -0.04598,1.78597 -0.520066,2.653964 -0.966606,1.769829 -2.737473,2.794685 -4.788548,2.771282 -1.684512,-0.01922 -2.749034,-0.551486 -4.739631,-2.369829 -5.5704,-5.088374 -13.316649,-5.12952 -18.802218,-0.09987 -1.747355,1.602119 -2.380068,2.014872 -3.589047,2.341322 -1.010593,0.272882 -1.079112,0.275018 -2.271138,0.07082 z m 3.030999,-0.892374 c 0.43403,-0.223449 1.284671,-0.875037 1.89031,-1.447972 1.961241,-1.855346 3.588564,-2.842696 6.047896,-3.669457 1.386273,-0.466031 1.708566,-0.504404 4.236477,-0.504404 2.52791,0 2.850207,0.03837 4.236478,0.504404 2.496855,0.839377 3.890327,1.693683 6.236374,3.823378 1.03172,0.936575 1.629248,1.333475 2.357114,1.565683 4.070499,1.298583 7.730555,-3.091993 5.799639,-6.957198 -0.635998,-1.273105 -2.560028,-3.164824 -4.795372,-4.714836 -4.261017,-2.954636 -8.779669,-4.387822 -13.834233,-4.387822 -5.058244,0 -9.546062,1.424284 -13.856813,4.397689 -2.104291,1.451466 -4.36605,3.7101 -4.87016,4.863443 -0.488378,1.117336 -0.522868,2.896862 -0.07618,3.930161 1.141857,2.641394 4.208425,3.842828 6.628475,2.596931 z M 22.545546,56.933733 c -1.755467,-0.407496 -2.933691,-1.3476 -3.720467,-2.968558 -0.524267,-1.080128 -0.55548,-1.251343 -0.480563,-2.636113 0.104472,-1.931153 0.480942,-2.656813 2.318109,-4.468303 3.038729,-2.996248 7.175572,-5.84068 11.356328,-7.808445 2.700598,-1.271099 3.752042,-1.67263 6.224861,-2.37719 7.071892,-2.014929 15.193634,-2.014929 22.265521,0 4.896698,1.395173 9.830582,3.893833 13.930755,7.05493 2.710383,2.089611 4.706376,4.0039 5.352457,5.133346 0.525699,0.919011 0.563277,1.098173 0.563277,2.685556 0,1.5379 -0.04852,1.789654 -0.506489,2.627765 -0.613876,1.123439 -1.167478,1.674952 -2.276835,2.268262 -1.796743,0.960937 -4.082022,0.737671 -5.826205,-0.569205 -0.507632,-0.380358 -1.034894,-0.828348 -1.171695,-0.995534 -0.136801,-0.167187 -0.970769,-0.892551 -1.853252,-1.611919 -9.559337,-7.792406 -22.124,-9.281464 -32.736932,-3.879702 -2.987415,1.520532 -5.214874,3.095453 -7.962584,5.629926 -0.633354,0.584199 -1.549424,1.248044 -2.035716,1.475212 -0.989832,0.462388 -2.507781,0.6565 -3.44057,0.439972 z m 3.286681,-0.875881 c 0.37676,-0.19594 1.286342,-0.913395 2.02129,-1.594345 4.821237,-4.466993 10.175692,-7.215693 16.196095,-8.31423 2.90781,-0.530585 7.74612,-0.530585 10.653929,0 6.007621,1.096206 11.359517,3.839875 16.175138,8.292244 1.523487,1.408568 2.566255,1.976983 3.820314,2.082463 3.212875,0.270235 5.950271,-2.853321 5.217105,-5.953074 -0.315023,-1.331904 -0.915123,-2.186454 -2.663813,-3.793311 -5.315272,-4.884152 -11.673441,-8.370922 -18.181297,-9.970473 -3.626509,-0.891349 -5.43947,-1.096386 -9.694412,-1.096386 -4.25494,0 -6.067905,0.205037 -9.694412,1.096386 -6.423185,1.578739 -13.015492,5.173183 -18.00459,9.816959 -2.446137,2.276824 -2.885917,3.026679 -2.888403,4.924871 -0.0029,2.035549 1.0473,3.674852 2.944001,4.596472 0.770623,0.374451 1.082046,0.425429 2.157338,0.353152 0.761292,-0.05117 1.526735,-0.224912 1.941717,-0.440728 z M 10.599416,43.425092 C 8.9960139,42.891598 7.7214098,41.682407 7.1278934,40.131721 6.7211776,39.069089 6.7509134,37.289076 7.1955211,36.083824 7.7369998,34.615951 10.521615,31.942529 14.83616,28.748293 22.59381,23.00498 31.613637,19.391557 41.78622,17.951864 c 3.138904,-0.444239 12.041816,-0.444239 15.180716,0 6.837575,0.9677 12.336443,2.63123 18.140011,5.487755 4.67455,2.300818 8.679774,4.934956 12.391866,8.149821 3.846491,3.331256 4.330807,4.071722 4.330807,6.621255 0,1.33914 -0.06968,1.747433 -0.412249,2.417001 -1.018881,1.991191 -2.601769,2.945529 -4.883348,2.944227 -1.787389,-0.0011 -2.575009,-0.369549 -4.453082,-2.083603 -3.74335,-3.416428 -7.222828,-5.830507 -11.433718,-7.93278 -5.976942,-2.983973 -11.91753,-4.554574 -18.538858,-4.9014 -13.322902,-0.697851 -25.489967,3.694294 -35.34966,12.760754 -0.707071,0.650185 -1.687906,1.388933 -2.179623,1.64166 -1.097514,0.564081 -2.892405,0.730298 -3.979666,0.368538 z m 3.776316,-0.800337 c 0.409441,-0.212868 1.243499,-0.856799 1.853456,-1.430958 7.209135,-6.786002 15.899393,-11.033426 25.759043,-12.589906 2.16652,-0.342016 3.238087,-0.400034 7.388345,-0.400034 4.15026,0 5.221821,0.05802 7.388344,0.400034 9.843802,1.553979 18.549224,5.804444 25.730972,12.563272 2.16587,2.038325 4.030752,2.478506 6.163954,1.454928 2.691314,-1.29137 3.657264,-4.519795 2.09665,-7.007434 -0.436267,-0.695426 -2.24389,-2.503222 -3.869433,-3.869819 -6.839599,-5.750046 -14.515993,-9.756116 -22.75712,-11.876239 -5.02479,-1.292682 -9.323237,-1.824158 -14.753367,-1.824158 -1.990261,0 -4.49243,0.08891 -5.560379,0.197564 -9.813488,0.998491 -18.517669,4.088676 -26.515011,9.413434 -4.40763,2.934675 -8.663723,6.68745 -9.5343229,8.406811 -0.596563,1.178169 -0.6349158,2.842316 -0.093743,4.067647 0.472642,1.070156 1.7675042,2.355462 2.7383009,2.718083 1.047549,0.391291 2.993016,0.281744 3.964311,-0.223225 z"
     id="path3815"
     inkscape:connector-curvature="0" />
  <path
     sodipodi:type="arc"
     style="fill:#ffffff;fill-opacity:1;stroke:none"
     id="path3836"
     sodipodi:cx="49.220341"
     sodipodi:cy="78.508476"
     sodipodi:rx="3.6610169"
     sodipodi:ry="3.8644068"
     d="m 52.881358,78.508476 a 3.6610169,3.8644068 0 1 1 -7.322034,0 3.6610169,3.8644068 0 1 1 7.322034,0 z"
     transform="matrix(1.6944444,0,0,1.5789473,-34.079097,-46.265834)" />
  <path
     style="fill:#ffffff;stroke:none"
     d="m 64.677966,69.355932 c 4.121319,-0.745763 5.832154,-7.186441 -0.40678,-10.779661 -14.998482,-10.632449 -22.043978,-4.790856 -29.694915,-0.20339 -8.778693,6.968519 -4.335179,11.195109 0.81356,11.593221 3.879848,-1.456646 9.323886,-6.482176 14.645348,-6.425668 4.502792,0.04782 10.778422,6.51914 14.642787,5.815498 z"
     id="path3857"
     inkscape:connector-curvature="0"
     sodipodi:nodetypes="ccccsc" />
  <path
     sodipodi:nodetypes="cccscsssc"
     inkscape:connector-curvature="0"
     id="path3878"
     d="M 74.933161,56.824212 C 81.45306,55.925744 82.023995,48.267945 73.882857,43.023712 50.203348,30.010736 35.546918,37.251864 26.9057,42.778675 c -7.950933,4.806465 -9.058747,8.291768 -8.06779,10.744104 0.73994,1.831141 2.313498,2.509472 5.592125,3.426374 2.693115,-0.770001 7.93234,-6.998642 11.51638,-7.955365 4.584365,-1.223749 6.840508,-2.770438 11.550767,-3.141976 4.431112,-0.34952 11.045554,1.256446 14.208062,2.642058 5.11682,2.241871 9.856671,7.91507 13.227917,8.330342 z"
     style="fill:#ffffff;stroke:none" />
  <path
     style="fill:#ffffff"
     d="m 47.317963,84.010719 c -1.715617,-0.55109 -3.342288,-2.125962 -3.979095,-3.852392 -0.523334,-1.4188 -0.435387,-3.498993 0.206993,-4.895968 0.580613,-1.26264 1.747114,-2.451149 2.992475,-3.048933 0.835761,-0.401174 1.214807,-0.467887 2.658394,-0.467887 1.443586,0 1.822638,0.06673 2.658394,0.467887 1.245367,0.597784 2.411868,1.786293 2.992474,3.048933 0.642386,1.396975 0.730333,3.477168 0.206993,4.895968 -0.653446,1.771544 -2.271244,3.310943 -4.060223,3.863463 -1.002298,0.309557 -2.694109,0.304461 -3.676405,-0.01107 z M 33.149447,69.803695 c -2.047887,-0.843281 -3.216057,-2.432236 -3.388716,-4.609358 -0.148999,-1.878863 0.338854,-2.976797 2.137222,-4.809806 1.808949,-1.843805 3.440185,-3.072307 5.595147,-4.213757 4.167832,-2.207649 7.222316,-2.987286 11.70363,-2.987286 4.481319,0 7.535799,0.779637 11.703639,2.987286 3.055159,1.618277 6.345385,4.46326 7.187547,6.214909 1.293498,2.690412 0.310768,5.77777 -2.26886,7.127882 -0.515277,0.269682 -1.192853,0.424351 -2.100958,0.479578 -1.179629,0.07174 -1.455968,0.02472 -2.303945,-0.392054 -0.52995,-0.260465 -1.67437,-1.117909 -2.543154,-1.905428 -1.526242,-1.38348 -2.865632,-2.257139 -4.534701,-2.957897 -1.169998,-0.491219 -3.817412,-1.013046 -5.139568,-1.013046 -1.322152,0 -3.969571,0.521827 -5.139564,1.013046 -1.644614,0.690488 -2.990477,1.56138 -4.441493,2.874022 -2.224292,2.012168 -2.76601,2.29689 -4.492108,2.360996 -0.85061,0.03158 -1.653849,-0.03721 -1.974118,-0.169087 z M 22.701389,56.853845 c -1.302963,-0.177573 -2.111518,-0.586006 -2.998373,-1.514596 -1.511173,-1.582285 -1.909108,-3.882868 -1.023883,-5.919339 0.468573,-1.077958 2.655028,-3.257223 5.351447,-5.333859 5.40357,-4.161529 11.800576,-7.035471 18.077098,-8.121382 4.453295,-0.77047 9.724808,-0.77047 14.17811,0 6.15844,1.065483 12.640524,3.949186 17.856996,7.944101 2.861104,2.191108 4.87801,4.161889 5.462603,5.337676 1.784722,3.589606 -0.664861,7.619654 -4.63173,7.620105 -1.647696,1.8e-4 -2.570145,-0.471584 -4.688646,-2.397936 -2.510363,-2.282669 -4.441237,-3.610566 -7.530463,-5.178839 -4.588341,-2.329316 -8.411321,-3.244062 -13.557818,-3.244062 -5.146493,0 -8.969476,0.914746 -13.557815,3.244062 -3.099458,1.573464 -5.020406,2.89627 -7.55961,5.205683 -0.910888,0.82846 -1.895414,1.633843 -2.187845,1.789748 -0.851022,0.453718 -2.229859,0.699498 -3.190071,0.568638 z M 11.004444,43.360153 C 9.3447558,43.072028 7.9966874,42.03568 7.1601136,40.404772 6.6202782,39.352364 6.6073104,37.115183 7.1342384,35.943146 7.7486287,34.576591 11.174193,31.399279 15.080646,28.57262 c 8.015355,-5.799808 17.10713,-9.341188 27.205299,-10.596851 3.531036,-0.439069 10.290518,-0.439069 13.821556,0 11.688328,1.453397 22.258633,6.078386 30.95103,13.542493 3.708063,3.184083 4.441575,4.169165 4.623335,6.208981 0.297853,3.342676 -2.615232,6.146733 -5.838701,5.620184 -1.432672,-0.234027 -2.091056,-0.601873 -3.640358,-2.03391 -3.636322,-3.361083 -7.176623,-5.824978 -11.47308,-7.984753 -3.493429,-1.756102 -5.49491,-2.533346 -8.793104,-3.41467 -8.498259,-2.270857 -16.981538,-2.270857 -25.4798,0 -3.298193,0.881324 -5.299666,1.658568 -8.793102,3.41467 -4.283465,2.15324 -7.973603,4.721166 -11.45104,7.968648 -1.83866,1.717077 -3.472332,2.364097 -5.208247,2.062741 z"
     id="path3806"
     inkscape:connector-curvature="0" />
</svg>
