<?xml version="1.0" encoding="UTF-8" standalone="no"?>
<!-- Created with Inkscape (http://www.inkscape.org/) -->

<svg
   xmlns:dc="http://purl.org/dc/elements/1.1/"
   xmlns:cc="http://creativecommons.org/ns#"
   xmlns:rdf="http://www.w3.org/1999/02/22-rdf-syntax-ns#"
   xmlns:svg="http://www.w3.org/2000/svg"
   xmlns="http://www.w3.org/2000/svg"
   xmlns:xlink="http://www.w3.org/1999/xlink"
   xmlns:sodipodi="http://sodipodi.sourceforge.net/DTD/sodipodi-0.dtd"
   xmlns:inkscape="http://www.inkscape.org/namespaces/inkscape"
   version="1.0"
   width="96"
   height="96"
   id="svg2408"
   inkscape:version="0.48.4 r9939"
   sodipodi:docname="mail-message-new.svg">
  <sodipodi:namedview
     pagecolor="#ffffff"
     bordercolor="#666666"
     borderopacity="1"
     objecttolerance="10"
     gridtolerance="10"
     guidetolerance="10"
     inkscape:pageopacity="0"
     inkscape:pageshadow="2"
     inkscape:window-width="640"
     inkscape:window-height="480"
     id="namedview113"
     showgrid="false"
     inkscape:zoom="2.4583333"
     inkscape:cx="48"
     inkscape:cy="48"
     inkscape:window-x="364"
     inkscape:window-y="108"
     inkscape:window-maximized="0"
     inkscape:current-layer="svg2408" />
  <defs
     id="defs2410">
    <linearGradient
       id="linearGradient3983">
      <stop
         id="stop3985"
         style="stop-color:#d7e866;stop-opacity:1"
         offset="0" />
      <stop
         id="stop3987"
         style="stop-color:#a4c33a;stop-opacity:1"
         offset="0.69214535" />
      <stop
         id="stop3989"
         style="stop-color:#7a9525;stop-opacity:0"
         offset="1" />
    </linearGradient>
    <linearGradient
       id="linearGradient4226">
      <stop
         id="stop4228"
         style="stop-color:#000000;stop-opacity:1"
         offset="0" />
      <stop
         id="stop4230"
         style="stop-color:#000000;stop-opacity:0"
         offset="1" />
    </linearGradient>
    <linearGradient
       id="linearGradient4213">
      <stop
         id="stop4215"
         style="stop-color:#ffffff;stop-opacity:1"
         offset="0" />
      <stop
         id="stop4217"
         style="stop-color:#ffffff;stop-opacity:0"
         offset="1" />
    </linearGradient>
    <linearGradient
       id="linearGradient4081">
      <stop
         id="stop4083"
         style="stop-color:#000000;stop-opacity:1"
         offset="0" />
      <stop
         id="stop4085"
         style="stop-color:#000000;stop-opacity:0"
         offset="1" />
    </linearGradient>
    <linearGradient
       id="linearGradient4064">
      <stop
         id="stop4066"
         style="stop-color:#ffffff;stop-opacity:1"
         offset="0" />
      <stop
         id="stop4068"
         style="stop-color:#ffffff;stop-opacity:0"
         offset="1" />
    </linearGradient>
    <linearGradient
       id="linearGradient4052">
      <stop
         id="stop4054"
         style="stop-color:#969696;stop-opacity:0"
         offset="0" />
      <stop
         id="stop4056"
         style="stop-color:#acacac;stop-opacity:1"
         offset="0.125" />
      <stop
         id="stop4060"
         style="stop-color:#dedede;stop-opacity:0"
         offset="1" />
    </linearGradient>
    <linearGradient
       id="linearGradient4012">
      <stop
         id="stop4014"
         style="stop-color:#000000;stop-opacity:1"
         offset="0" />
      <stop
         id="stop4016"
         style="stop-color:#000000;stop-opacity:0"
         offset="1" />
    </linearGradient>
    <linearGradient
       id="linearGradient3999">
      <stop
         id="stop4001"
         style="stop-color:#000000;stop-opacity:1"
         offset="0" />
      <stop
         id="stop4003"
         style="stop-color:#000000;stop-opacity:0"
         offset="1" />
    </linearGradient>
    <linearGradient
       id="linearGradient4327">
      <stop
         id="stop4329"
         style="stop-color:#f0f0f0;stop-opacity:1"
         offset="0" />
      <stop
         id="stop4331"
         style="stop-color:#b4b4b4;stop-opacity:1"
         offset="1" />
    </linearGradient>
    <linearGradient
       id="linearGradient3322">
      <stop
         id="stop3324"
         style="stop-color:#7a7a7a;stop-opacity:1"
         offset="0" />
      <stop
         id="stop3326"
         style="stop-color:#f9f9f9;stop-opacity:1"
         offset="0.2032043" />
      <stop
         id="stop3328"
         style="stop-color:#c9c9c9;stop-opacity:1"
         offset="0.42969123" />
      <stop
         id="stop3330"
         style="stop-color:#dedede;stop-opacity:0"
         offset="1" />
    </linearGradient>
    <linearGradient
       id="linearGradient3448">
      <stop
         id="stop3450"
         style="stop-color:#000000;stop-opacity:1"
         offset="0" />
      <stop
         id="stop3452"
         style="stop-color:#000000;stop-opacity:0"
         offset="1" />
    </linearGradient>
    <linearGradient
       id="linearGradient3273">
      <stop
         id="stop3275"
         style="stop-color:#7a7a7a;stop-opacity:1"
         offset="0" />
      <stop
         id="stop3281"
         style="stop-color:#f9f9f9;stop-opacity:1"
         offset="0.14636412" />
      <stop
         id="stop3283"
         style="stop-color:#c9c9c9;stop-opacity:1"
         offset="0.37253973" />
      <stop
         id="stop3277"
         style="stop-color:#dedede;stop-opacity:0"
         offset="1" />
    </linearGradient>
    <linearGradient
       x1="45.447727"
       y1="92.539597"
       x2="45.447727"
       y2="7.0165396"
       id="ButtonShadow"
       gradientUnits="userSpaceOnUse"
       gradientTransform="scale(1.0058652,0.994169)">
      <stop
         id="stop3750"
         style="stop-color:#000000;stop-opacity:1"
         offset="0" />
      <stop
         id="stop3752"
         style="stop-color:#000000;stop-opacity:0.58823532"
         offset="1" />
    </linearGradient>
    <linearGradient
       id="linearGradient3737">
      <stop
         id="stop3739"
         style="stop-color:#ffffff;stop-opacity:1"
         offset="0" />
      <stop
         id="stop3741"
         style="stop-color:#ffffff;stop-opacity:0"
         offset="1" />
    </linearGradient>
    <filter
       color-interpolation-filters="sRGB"
       id="filter3174">
      <feGaussianBlur
         id="feGaussianBlur3176"
         stdDeviation="1.71" />
    </filter>
    <linearGradient
       x1="36.357143"
       y1="6"
       x2="36.357143"
       y2="63.893143"
       id="linearGradient3188"
       xlink:href="#linearGradient3737"
       gradientUnits="userSpaceOnUse" />
    <linearGradient
       x1="6"
       y1="77.09375"
       x2="32"
       y2="77.09375"
       id="linearGradient3279"
       xlink:href="#linearGradient3322"
       gradientUnits="userSpaceOnUse" />
    <linearGradient
       x1="6"
       y1="77.09375"
       x2="32.030617"
       y2="77.09375"
       id="linearGradient3287"
       xlink:href="#linearGradient3273"
       gradientUnits="userSpaceOnUse"
       gradientTransform="matrix(-1,0,0,1,96.030615,0)" />
    <linearGradient
       x1="45.447727"
       y1="92.539597"
       x2="45.447727"
       y2="7.0165396"
       id="ButtonShadow-0"
       gradientUnits="userSpaceOnUse"
       gradientTransform="matrix(1.0058652,0,0,0.994169,100,0)">
      <stop
         id="stop3750-8"
         style="stop-color:#000000;stop-opacity:1"
         offset="0" />
      <stop
         id="stop3752-5"
         style="stop-color:#000000;stop-opacity:0.58823532"
         offset="1" />
    </linearGradient>
    <linearGradient
       x1="32.251034"
       y1="6.1317081"
       x2="32.251034"
       y2="90.238609"
       id="linearGradient3780"
       xlink:href="#ButtonShadow-0"
       gradientUnits="userSpaceOnUse"
       gradientTransform="matrix(1.0238095,0,0,1.0119048,-1.1428571,-98.071429)" />
    <linearGradient
       x1="32.251034"
       y1="6.1317081"
       x2="32.251034"
       y2="90.238609"
       id="linearGradient3772"
       xlink:href="#ButtonShadow-0"
       gradientUnits="userSpaceOnUse"
       gradientTransform="matrix(1.0238095,0,0,1.0119048,-1.1428571,-98.071429)" />
    <linearGradient
       x1="32.251034"
       y1="6.1317081"
       x2="32.251034"
       y2="90.238609"
       id="linearGradient3725"
       xlink:href="#ButtonShadow-0"
       gradientUnits="userSpaceOnUse"
       gradientTransform="matrix(1.0238095,0,0,1.0119048,-1.1428571,-98.071429)" />
    <linearGradient
       x1="32.251034"
       y1="6.1317081"
       x2="32.251034"
       y2="90.238609"
       id="linearGradient3721"
       xlink:href="#ButtonShadow-0"
       gradientUnits="userSpaceOnUse"
       gradientTransform="translate(0,-97)" />
    <linearGradient
       x1="32.251034"
       y1="6.1317081"
       x2="32.251034"
       y2="90.238609"
       id="linearGradient2918"
       xlink:href="#ButtonShadow-0"
       gradientUnits="userSpaceOnUse"
       gradientTransform="matrix(1.0238095,0,0,1.0119048,-1.1428571,-98.071429)" />
    <linearGradient
       x1="38.765545"
       y1="73"
       x2="38.765545"
       y2="-60.29591"
       id="linearGradient3177"
       xlink:href="#linearGradient3448"
       gradientUnits="userSpaceOnUse"
       gradientTransform="matrix(1.0277778,0,0,1.0499999,-100.30556,-2.6499999)" />
    <linearGradient
       x1="48"
       y1="8"
       x2="48"
       y2="64"
       id="linearGradient3964"
       xlink:href="#linearGradient4327"
       gradientUnits="userSpaceOnUse" />
    <linearGradient
       x1="6"
       y1="72.5"
       x2="48"
       y2="72.5"
       id="linearGradient4005"
       xlink:href="#linearGradient3999"
       gradientUnits="userSpaceOnUse"
       gradientTransform="matrix(-1,0,0,1,96,-1)" />
    <linearGradient
       x1="48"
       y1="80"
       x2="48"
       y2="-15"
       id="linearGradient4018"
       xlink:href="#linearGradient4012"
       gradientUnits="userSpaceOnUse"
       gradientTransform="translate(0,-1)" />
    <linearGradient
       x1="32.420471"
       y1="12"
       x2="64.306427"
       y2="131"
       id="linearGradient4029"
       xlink:href="#linearGradient4064"
       gradientUnits="userSpaceOnUse"
       gradientTransform="matrix(1,0,0,-1,0,83)" />
    <linearGradient
       x1="7"
       y1="77"
       x2="32"
       y2="77.09375"
       id="linearGradient4062"
       xlink:href="#linearGradient4052"
       gradientUnits="userSpaceOnUse"
       gradientTransform="matrix(1,0,0,-1,0,95)" />
    <linearGradient
       x1="7"
       y1="77"
       x2="32"
       y2="77.09375"
       id="linearGradient4072"
       xlink:href="#linearGradient4052"
       gradientUnits="userSpaceOnUse"
       gradientTransform="matrix(-1,0,0,-1,96,95)" />
    <linearGradient
       x1="43"
       y1="23"
       x2="43"
       y2="79"
       id="linearGradient4087"
       xlink:href="#linearGradient4081"
       gradientUnits="userSpaceOnUse" />
    <linearGradient
       x1="49"
       y1="62"
       x2="49"
       y2="34"
       id="linearGradient4219"
       xlink:href="#linearGradient4213"
       gradientUnits="userSpaceOnUse"
       gradientTransform="translate(0,-2)" />
    <linearGradient
       x1="52"
       y1="65"
       x2="52"
       y2="26"
       id="linearGradient4232"
       xlink:href="#linearGradient4226"
       gradientUnits="userSpaceOnUse"
       gradientTransform="translate(0,-2)" />
    <linearGradient
       x1="52"
       y1="65"
       x2="52"
       y2="26"
       id="linearGradient4240"
       xlink:href="#linearGradient4226"
       gradientUnits="userSpaceOnUse" />
    <linearGradient
       x1="52"
       y1="65"
       x2="52"
       y2="26"
       id="linearGradient4254"
       xlink:href="#linearGradient4226"
       gradientUnits="userSpaceOnUse"
       gradientTransform="translate(0,-2)" />
    <linearGradient
       x1="52"
       y1="65"
       x2="52"
       y2="26"
       id="linearGradient4262"
       xlink:href="#linearGradient4226"
       gradientUnits="userSpaceOnUse" />
    <linearGradient
       x1="12.788539"
       y1="14.001868"
       x2="37.835972"
       y2="14.001868"
       id="linearGradient4264"
       xlink:href="#linearGradient3983"
       gradientUnits="userSpaceOnUse"
       gradientTransform="matrix(0,-1.724646,-1.61437,0,86.387461,75.954965)" />
    <linearGradient
       id="linearGradient3779">
      <stop
         offset="0"
         style="stop-color:#d00000;stop-opacity:1"
         id="stop3781" />
      <stop
         offset="1"
         style="stop-color:#ff3c22;stop-opacity:1"
         id="stop3783" />
    </linearGradient>
    <linearGradient
       gradientUnits="userSpaceOnUse"
       xlink:href="#linearGradient3779"
       id="linearGradient3755"
       y2="23.566277"
       x2="56.65815"
       y1="51.019985"
       x1="56.65815" />
    <linearGradient
       gradientTransform="matrix(1.0238095,0,0,1.0119048,-1.1428571,-98.071429)"
       gradientUnits="userSpaceOnUse"
       xlink:href="#ButtonShadow-0-1"
       id="linearGradient2918-5"
       y2="90.238609"
       x2="32.251034"
       y1="6.1317081"
       x1="32.251034" />
    <linearGradient
       gradientTransform="translate(0,-97)"
       gradientUnits="userSpaceOnUse"
       xlink:href="#ButtonShadow-0-1"
       id="linearGradient3721-7"
       y2="90.238609"
       x2="32.251034"
       y1="6.1317081"
       x1="32.251034" />
    <linearGradient
       gradientTransform="matrix(1.0238095,0,0,1.0119048,-1.1428571,-98.071429)"
       gradientUnits="userSpaceOnUse"
       xlink:href="#ButtonShadow-0-1"
       id="linearGradient3725-0"
       y2="90.238609"
       x2="32.251034"
       y1="6.1317081"
       x1="32.251034" />
    <linearGradient
       gradientTransform="matrix(1.0238095,0,0,1.0119048,-1.1428571,-98.071429)"
       gradientUnits="userSpaceOnUse"
       xlink:href="#ButtonShadow-0-1"
       id="linearGradient3772-6"
       y2="90.238609"
       x2="32.251034"
       y1="6.1317081"
       x1="32.251034" />
    <linearGradient
       gradientTransform="matrix(1.0238095,0,0,1.0119048,-1.1428571,-98.071429)"
       gradientUnits="userSpaceOnUse"
       xlink:href="#ButtonShadow-0-1"
       id="linearGradient3780-8"
       y2="90.238609"
       x2="32.251034"
       y1="6.1317081"
       x1="32.251034" />
    <linearGradient
       gradientTransform="matrix(1.0058652,0,0,0.994169,100,0)"
       gradientUnits="userSpaceOnUse"
       id="ButtonShadow-0-1"
       y2="7.0165396"
       x2="45.447727"
       y1="92.539597"
       x1="45.447727">
      <stop
         offset="0"
         style="stop-color:#000000;stop-opacity:1"
         id="stop3750-8-3" />
      <stop
         offset="1"
         style="stop-color:#000000;stop-opacity:0.58823532"
         id="stop3752-5-0" />
    </linearGradient>
    <radialGradient
       gradientTransform="matrix(1.1573129,0,0,0.99590774,-7.551021,0.1971319)"
       gradientUnits="userSpaceOnUse"
       xlink:href="#linearGradient3737-3"
       id="radialGradient2858"
       fy="90.171875"
       fx="48"
       r="42"
       cy="90.171875"
       cx="48" />
    <linearGradient
       id="linearGradient3737-3">
      <stop
         offset="0"
         style="stop-color:#ffffff;stop-opacity:1"
         id="stop3739-5" />
      <stop
         offset="1"
         style="stop-color:#ffffff;stop-opacity:0"
         id="stop3741-7" />
    </linearGradient>
    <linearGradient
       gradientTransform="translate(100,-1)"
       gradientUnits="userSpaceOnUse"
       xlink:href="#linearGradient3641"
       id="linearGradient3707"
       y2="21"
       x2="51"
       y1="62"
       x1="51" />
    <clipPath
       id="clipPath3703">
      <rect
         style="fill:#ff00ff;fill-opacity:1;fill-rule:nonzero;stroke:none"
         id="rect3705"
         y="6"
         x="106"
         ry="6"
         rx="6"
         height="84"
         width="84" />
    </clipPath>
    <linearGradient
       gradientTransform="translate(100,0)"
       gradientUnits="userSpaceOnUse"
       xlink:href="#linearGradient3641"
       id="linearGradient3701"
       y2="80"
       x2="48"
       y1="32"
       x1="48" />
    <clipPath
       id="clipPath3696">
      <rect
         style="fill:#ff00ff;fill-opacity:1;fill-rule:nonzero;stroke:none"
         id="rect3698"
         y="6"
         x="106"
         ry="6"
         rx="6"
         height="84"
         width="84" />
    </clipPath>
    <linearGradient
       gradientUnits="userSpaceOnUse"
       xlink:href="#linearGradient3700"
       id="linearGradient3689"
       y2="5.9877172"
       x2="48"
       y1="90"
       x1="48" />
    <linearGradient
       gradientUnits="userSpaceOnUse"
       xlink:href="#linearGradient3737-31"
       id="linearGradient3687"
       y2="63.893143"
       x2="36.357143"
       y1="6"
       x1="36.357143" />
    <filter
       id="filter3665"
       color-interpolation-filters="sRGB">
      <feGaussianBlur
         stdDeviation="0.69"
         id="feGaussianBlur3667" />
    </filter>
    <filter
       id="filter3649"
       color-interpolation-filters="sRGB">
      <feGaussianBlur
         stdDeviation="1.38"
         id="feGaussianBlur3651" />
    </filter>
    <linearGradient
       gradientUnits="userSpaceOnUse"
       xlink:href="#linearGradient3727"
       id="linearGradient3635"
       y2="36"
       x2="48"
       y1="88"
       x1="48" />
    <linearGradient
       gradientUnits="userSpaceOnUse"
       xlink:href="#linearGradient3700"
       id="linearGradient3627"
       y2="32"
       x2="48"
       y1="88"
       x1="48" />
    <clipPath
       id="clipPath3613">
      <rect
         style="fill:#ffffff;fill-opacity:1;fill-rule:nonzero;stroke:none"
         id="rect3615"
         y="6"
         x="6"
         ry="6"
         rx="6"
         height="84"
         width="84" />
    </clipPath>
    <radialGradient
       gradientTransform="matrix(1.1573129,0,0,0.99590774,-7.5510206,0.19713193)"
       gradientUnits="userSpaceOnUse"
       xlink:href="#linearGradient3737-31"
       id="radialGradient3619"
       fy="90.171875"
       fx="48"
       r="42"
       cy="90.171875"
       cx="48" />
    <linearGradient
       gradientUnits="userSpaceOnUse"
       xlink:href="#linearGradient3737-31"
       id="linearGradient3613"
       y2="138.66119"
       x2="48"
       y1="20.220806"
       x1="48" />
    <filter
       id="filter3794"
       color-interpolation-filters="sRGB"
       height="1.3839999"
       width="1.3839999"
       y="-0.192"
       x="-0.192">
      <feGaussianBlur
         stdDeviation="5.28"
         id="feGaussianBlur3796" />
    </filter>
    <filter
       id="filter3174-9"
       color-interpolation-filters="sRGB">
      <feGaussianBlur
         stdDeviation="1.71"
         id="feGaussianBlur3176-5" />
    </filter>
    <linearGradient
       id="linearGradient3700">
      <stop
         offset="0"
         style="stop-color:#dcdcdc;stop-opacity:1"
         id="stop3702" />
      <stop
         offset="1"
         style="stop-color:#f0f0f0;stop-opacity:1"
         id="stop3704" />
    </linearGradient>
    <linearGradient
       id="linearGradient3737-31">
      <stop
         offset="0"
         style="stop-color:#ffffff;stop-opacity:1"
         id="stop3739-3" />
      <stop
         offset="1"
         style="stop-color:#ffffff;stop-opacity:0"
         id="stop3741-3" />
    </linearGradient>
    <linearGradient
       gradientTransform="scale(1.0058652,0.994169)"
       gradientUnits="userSpaceOnUse"
       id="ButtonShadow-8"
       y2="7.0165396"
       x2="45.447727"
       y1="92.539597"
       x1="45.447727">
      <stop
         offset="0"
         style="stop-color:#000000;stop-opacity:1"
         id="stop3750-2" />
      <stop
         offset="1"
         style="stop-color:#000000;stop-opacity:0.58823532"
         id="stop3752-8" />
    </linearGradient>
    <linearGradient
       id="linearGradient3641">
      <stop
         offset="0"
         style="stop-color:#000000;stop-opacity:1"
         id="stop3643" />
      <stop
         offset="1"
         style="stop-color:#000000;stop-opacity:0"
         id="stop3645" />
    </linearGradient>
    <linearGradient
       id="linearGradient3727">
      <stop
         offset="0"
         style="stop-color:#d5d5d5;stop-opacity:1"
         id="stop3729" />
      <stop
         offset="1"
         style="stop-color:#f1f1f1;stop-opacity:1"
         id="stop3731" />
    </linearGradient>
    <linearGradient
       inkscape:collect="always"
       xlink:href="#linearGradient3737-31"
       id="linearGradient3299"
       gradientUnits="userSpaceOnUse"
       x1="48"
       y1="20.220806"
       x2="48"
       y2="138.66119" />
    <linearGradient
       inkscape:collect="always"
       xlink:href="#linearGradient3641"
       id="linearGradient3309"
       gradientUnits="userSpaceOnUse"
       gradientTransform="translate(100,0)"
       x1="48"
       y1="32"
       x2="48"
       y2="80" />
    <linearGradient
       inkscape:collect="always"
       xlink:href="#linearGradient3641"
       id="linearGradient3313"
       gradientUnits="userSpaceOnUse"
       gradientTransform="translate(100,-1)"
       x1="51"
       y1="62"
       x2="51"
       y2="21" />
    <linearGradient
       inkscape:collect="always"
       xlink:href="#linearGradient3641"
       id="linearGradient3330"
       gradientUnits="userSpaceOnUse"
       gradientTransform="translate(100,0)"
       x1="48"
       y1="32"
       x2="48"
       y2="80" />
    <linearGradient
       inkscape:collect="always"
       xlink:href="#linearGradient3641"
       id="linearGradient3332"
       gradientUnits="userSpaceOnUse"
       gradientTransform="translate(100,-1)"
       x1="51"
       y1="62"
       x2="51"
       y2="21" />
    <linearGradient
       inkscape:collect="always"
       xlink:href="#linearGradient3779"
       id="linearGradient4148"
       gradientUnits="userSpaceOnUse"
       x1="56.65815"
       y1="51.019985"
       x2="56.65815"
       y2="23.566277"
       gradientTransform="matrix(1.157921,0,0,1.1555958,126.86298,0.49826771)" />
  </defs>
  <metadata
     id="metadata2413">
    <rdf:RDF>
      <cc:Work
         rdf:about="">
        <dc:format>image/svg+xml</dc:format>
        <dc:type
           rdf:resource="http://purl.org/dc/dcmitype/StillImage" />
        <dc:title></dc:title>
      </cc:Work>
    </rdf:RDF>
  </metadata>
  <rect
     style="fill:#800080;fill-opacity:1;stroke:none"
     id="rect4121"
     width="96"
     height="96"
     x="0"
     y="7.1054274e-15"
     rx="0"
     ry="0" />
  <g
     id="layer2"
     style="display:none">
    <rect
       width="86"
       height="85"
       rx="6"
       ry="6"
       x="5"
       y="7"
       id="rect3745"
       style="opacity:0.9;fill:url(#ButtonShadow);fill-opacity:1;fill-rule:nonzero;stroke:none;filter:url(#filter3174)" />
  </g>
  <g
     id="layer2-1"
     style="display:none"
     transform="translate(-152.54237,35.516949)">
    <rect
       width="86"
       height="85"
       rx="6"
       ry="6"
       x="5"
       y="7"
       id="rect3745-9"
       style="opacity:0.9;fill:url(#ButtonShadow-8);fill-opacity:1;fill-rule:nonzero;stroke:none;filter:url(#filter3174-9)" />
  </g>
  <g
     id="layer3"
     style="display:inline"
     transform="translate(-152.54237,35.516949)">
    <path
       inkscape:connector-curvature="0"
       d="m 12,-95.03125 c -5.5110903,0 -10.03125,4.52016 -10.03125,10.03125 l 0,71 c 0,5.5110902 4.5201598,10.03125 10.03125,10.03125 l 72,0 c 5.51109,0 10.03125,-4.5201597 10.03125,-10.03125 l 0,-71 c 0,-5.51109 -4.52016,-10.03125 -10.03125,-10.03125 l -72,0 z"
       transform="scale(1,-1)"
       id="path3786"
       style="opacity:0.07999998;fill:url(#linearGradient2918-5);fill-opacity:1;fill-rule:nonzero;stroke:none;display:inline" />
    <path
       inkscape:connector-curvature="0"
       d="m 12,-94.03125 c -4.971633,0 -9.03125,4.059617 -9.03125,9.03125 l 0,71 c 0,4.9716329 4.0596171,9.03125 9.03125,9.03125 l 72,0 c 4.971633,0 9.03125,-4.059617 9.03125,-9.03125 l 0,-71 c 0,-4.971633 -4.059617,-9.03125 -9.03125,-9.03125 l -72,0 z"
       transform="scale(1,-1)"
       id="path3778"
       style="opacity:0.1;fill:url(#linearGradient3780-8);fill-opacity:1;fill-rule:nonzero;stroke:none;display:inline" />
    <path
       inkscape:connector-curvature="0"
       d="m 12,-93 c -4.4091333,0 -8,3.590867 -8,8 l 0,71 c 0,4.4091333 3.5908667,8 8,8 l 72,0 c 4.409133,0 8,-3.5908667 8,-8 l 0,-71 c 0,-4.409133 -3.590867,-8 -8,-8 l -72,0 z"
       transform="scale(1,-1)"
       id="path3770"
       style="opacity:0.2;fill:url(#linearGradient3772-6);fill-opacity:1;fill-rule:nonzero;stroke:none;display:inline" />
    <rect
       width="86"
       height="85"
       rx="7"
       ry="7"
       x="5"
       y="-92"
       transform="scale(1,-1)"
       id="rect3723"
       style="opacity:0.3;fill:url(#linearGradient3725-0);fill-opacity:1;fill-rule:nonzero;stroke:none;display:inline" />
    <rect
       width="84"
       height="84"
       rx="6"
       ry="6"
       x="6"
       y="-91"
       transform="scale(1,-1)"
       id="rect3716"
       style="opacity:0.45;fill:url(#linearGradient3721-7);fill-opacity:1;fill-rule:nonzero;stroke:none;display:inline" />
  </g>
  <rect
     style="fill:#ffffff;fill-opacity:1;fill-rule:nonzero;stroke:#ffffff;stroke-width:0.84777808;stroke-opacity:1"
     id="rect2419"
     y="19.07863"
     x="9.3771057"
     ry="4.0799727"
     rx="5.6661224"
     height="57.11961"
     width="79.325714" />
  <path
     style="fill:#ffffff;fill-opacity:1;stroke:#800080;stroke-width:3.69506812000000018;stroke-miterlimit:4;stroke-opacity:1;stroke-dasharray:none"
     id="path3619"
     inkscape:connector-curvature="0"
     d="m 13.522765,77.362796 c -3.314837,0 -5.983461,-1.9526 -5.983461,-4.378032 l 0,-4.378032 41.884226,-30.64623 41.88422,30.64623 0,4.378032 c 0,2.425432 -2.668621,4.378032 -5.98346,4.378032 l -71.801525,0 z" />
  <path
     style="fill:#ffffff;fill-opacity:1;stroke:none"
     id="path3613"
     inkscape:connector-curvature="0"
     d="m 18.665156,20.936178 c -2.804607,0 -5.062466,1.484337 -5.062466,3.328108 l 0,3.328108 35.437273,23.296753 35.437273,-23.296753 0,-3.328108 c 0,-1.843771 -2.25786,-3.328108 -5.062467,-3.328108 l -60.749613,0 z" />
  <path
     style="fill:#ffffff;fill-opacity:1;stroke:#800080;stroke-width:2.40435648000000013;stroke-miterlimit:4;stroke-opacity:1;stroke-dasharray:none"
     id="path3709"
     inkscape:connector-curvature="0"
     d="m 9.3135486,25.541727 0,0.569066 39.7264144,23.900803 39.726413,-23.900803 0,-0.569066 L 49.039963,49.442529 9.3135486,25.541727 z" />
  <path
     style="opacity:0.05;color:#000000;fill:#000000;fill-opacity:1;fill-rule:nonzero;stroke:none;stroke-width:1.5;marker:none;visibility:visible;display:inline;overflow:visible;enable-background:accumulate"
     id="path3777"
     d="m -81.4751,77.003178 c -1.389952,0.146873 -2.574648,0.711202 -3.40625,1.34375 a 1.0194857,1.0194857 0 0 0 -0.03125,0.03125 c -1.765579,1.526876 -2.486936,3.577781 -3.46875,5.09375 a 1.0194857,1.0194857 0 0 0 -0.03125,0.0625 c -4.256974,7.336967 -8.480805,14.712433 -12.75,22.031252 a 1.0194857,1.0194857 0 0 0 -0.0625,0.0937 c -0.8492,1.95297 -0.86227,4.21552 0.3125,6.125 0.007,0.0132 0.0237,0.0181 0.0312,0.0312 1.275389,2.21622 3.801425,3.24872 6.21875,3.0625 l 0,0.0312 c 9.554939,-0.0232 19.100643,-0.0409 28.65625,-0.0625 a 1.0194857,1.0194857 0 0 0 0.0625,0 c 2.603579,-0.18187 4.941399,-1.9454 5.71875,-4.46875 0.662483,-2.03759 0.192166,-4.20498 -0.96875,-5.9375 -0.01169,-0.0201 -0.01956,-0.0424 -0.03125,-0.0625 -4.752926,-8.174267 -9.542028,-16.32533 -14.28125,-24.500002 a 1.0194857,1.0194857 0 0 0 -0.0625,-0.09375 c -1.333746,-1.85708 -3.547193,-2.993916 -5.90625,-2.78125 z"
     inkscape:connector-curvature="0" />
  <path
     style="opacity:0.1;color:#000000;fill:#000000;fill-opacity:1;fill-rule:nonzero;stroke:none;stroke-width:1.5;marker:none;visibility:visible;display:inline;overflow:visible;enable-background:accumulate"
     id="path3767"
     inkscape:connector-curvature="0"
     d="m -81.369849,77.995051 c -1.163818,0.122978 -2.194482,0.622906 -2.894802,1.155596 -1.509944,1.305802 -2.207741,3.249033 -3.274892,4.896766 -4.255043,7.333639 -8.483147,14.683441 -12.755077,22.006947 -0.74397,1.71096 -0.74694,3.62892 0.25329,5.2363 1.052366,1.86218 3.283581,2.78779 5.384144,2.59821 9.555326,-0.0232 19.110648,-0.0487 28.665976,-0.0703 2.180383,-0.1523 4.168419,-1.66458 4.812609,-3.75568 0.557722,-1.71538 0.132897,-3.59644 -0.902374,-5.11169 -4.763053,-8.192063 -9.542634,-16.374752 -14.295339,-24.57268 -1.13582,-1.581492 -3.023654,-2.560998 -4.993535,-2.383416 z" />
  <path
     style="opacity:0.15;color:#000000;fill:#000000;fill-opacity:1;fill-rule:nonzero;stroke:none;stroke-width:1.5;marker:none;visibility:visible;display:inline;overflow:visible;enable-background:accumulate"
     id="path3763"
     d="m -81.11655,78.933972 c -0.05105,0.0028 -0.238697,0.03021 -0.28948,0.03611 -0.05079,0.0059 -0.239163,0.02706 -0.28948,0.03611 -0.05032,0.009 -0.203639,0.06007 -0.253295,0.07223 -0.04965,0.01216 -0.240678,0.05702 -0.289481,0.07223 -0.04881,0.01521 -0.205535,0.05401 -0.253295,0.07222 -0.04776,0.01821 -0.206763,0.0872 -0.253295,0.108337 -0.04654,0.02114 -0.20817,0.120462 -0.253295,0.14445 -0.04512,0.02399 -0.209753,0.0816 -0.253295,0.108337 -0.04354,0.02674 -0.175319,0.151169 -0.217111,0.180562 -0.04179,0.0294 -0.177231,0.11252 -0.21711,0.144449 -0.03988,0.03193 -0.179298,0.146219 -0.21711,0.180562 -0.03781,0.03434 -0.181511,0.18005 -0.21711,0.216674 -0.0356,0.03662 -0.147678,0.1418 -0.180925,0.180562 -0.03324,0.03876 -0.150158,0.175923 -0.180925,0.216674 -0.03077,0.04075 -0.116572,0.210204 -0.144741,0.252787 -0.02817,0.04258 -0.119279,0.172426 -0.14474,0.216674 l -14.510197,25.061981 c -0.02701,0.0465 -0.120837,0.20465 -0.14474,0.25279 -0.0239,0.0481 -0.08786,0.2393 -0.108555,0.2889 -0.02069,0.0496 -0.09116,0.20194 -0.108556,0.25279 -0.01739,0.0508 -0.05835,0.23702 -0.07237,0.28889 -0.01402,0.0519 -0.06179,0.23623 -0.07237,0.2889 -0.01054,0.0527 -0.06526,0.23565 -0.07237,0.2889 -0.0071,0.0533 0.0036,0.2353 0,0.2889 -0.0036,0.0536 -0.03612,0.23517 -0.03619,0.2889 -7.4e-5,0.0537 0.03274,0.23528 0.03619,0.2889 0.0035,0.0536 -0.0069,0.23562 0,0.2889 0.0069,0.0533 0.06193,0.23619 0.07237,0.2889 0.01042,0.0527 0.0223,0.23699 0.03619,0.2889 0.01388,0.0519 0.0913,0.238 0.108555,0.28889 0.01725,0.0509 0.088,0.20314 0.108556,0.25279 0.02055,0.0497 0.08478,0.2407 0.108555,0.2889 0.02377,0.0482 0.117856,0.20624 0.14474,0.25279 0.02689,0.0465 0.114865,0.20809 0.14474,0.25278 0.02987,0.0447 0.148177,0.17403 0.180925,0.21668 0.03275,0.0426 0.145449,0.21237 0.180925,0.25278 0.03548,0.0404 0.142874,0.17867 0.180925,0.21668 0.03805,0.038 0.176647,0.14512 0.217111,0.18056 0.04047,0.0354 0.210593,0.14785 0.253295,0.18056 0.0427,0.0327 0.172353,0.15071 0.21711,0.18056 0.04475,0.0299 0.206675,0.11759 0.253295,0.14445 0.04662,0.0269 0.205012,0.12069 0.253295,0.14445 0.04829,0.0238 0.239742,0.0878 0.289481,0.10834 0.04973,0.0206 0.202315,0.0911 0.253295,0.10834 0.05098,0.0173 0.237477,0.0944 0.28948,0.10833 0.052,0.0139 0.236677,0.0257 0.28948,0.0361 0.0528,0.0105 0.236104,0.0652 0.289481,0.0722 0.05338,0.007 0.235759,0.0326 0.28948,0.0361 0.05372,0.003 0.235646,3e-5 0.28948,0 l 29.05658,-0.0722 c 0.05383,3e-5 0.23576,0.003 0.28948,0 0.05372,-0.003 0.236104,-0.0291 0.289481,-0.0361 0.05338,-0.007 0.236676,-0.0618 0.28948,-0.0722 0.0528,-0.0105 0.237477,-0.0222 0.28948,-0.0361 0.052,-0.0139 0.238501,-0.0911 0.28948,-0.10834 0.05098,-0.0173 0.203557,-0.0878 0.253296,-0.10833 0.04974,-0.0206 0.241197,-0.0846 0.28948,-0.10834 0.04829,-0.0238 0.206675,-0.11758 0.253295,-0.14445 0.04662,-0.0269 0.208538,-0.11459 0.253295,-0.14445 0.04475,-0.0299 0.174409,-0.14785 0.217111,-0.18056 0.0427,-0.0327 0.212831,-0.14513 0.253295,-0.18056 0.04046,-0.0354 0.179058,-0.14256 0.21711,-0.18057 0.03805,-0.038 0.145449,-0.17626 0.180925,-0.21667 0.03548,-0.0404 0.148177,-0.21014 0.180925,-0.25279 0.03275,-0.0426 0.151045,-0.17198 0.180925,-0.21667 0.02989,-0.0447 0.117857,-0.20624 0.144741,-0.25279 0.02689,-0.0465 0.120968,-0.20458 0.14474,-0.25278 0.02377,-0.0482 0.088,-0.23925 0.108555,-0.2889 0.02055,-0.0497 0.0913,-0.2019 0.108555,-0.25279 0.01725,-0.0509 0.09467,-0.23699 0.108555,-0.2889 0.01388,-0.0519 0.02574,-0.23619 0.03618,-0.2889 0.01042,-0.0527 0.06541,-0.23562 0.07237,-0.2889 0.0069,-0.0533 -0.0035,-0.23528 0,-0.2889 0.0035,-0.0536 0.03626,-0.23517 0.03619,-0.28889 -7.4e-5,-0.0537 -0.03258,-0.2353 -0.03619,-0.2889 -0.0036,-0.0536 0.0071,-0.23565 0,-0.2889 -0.0071,-0.0533 -0.06179,-0.23622 -0.07237,-0.2889 -0.01054,-0.0527 -0.05835,-0.23703 -0.07237,-0.2889 -0.01402,-0.0519 -0.05498,-0.23806 -0.07237,-0.2889 -0.01739,-0.0509 -0.08786,-0.20319 -0.108555,-0.25279 -0.02069,-0.0496 -0.08466,-0.24076 -0.108555,-0.2889 -0.0239,-0.0481 -0.11773,-0.20631 -0.14474,-0.25278 L -77.027641,81.172939 c -0.02814,-0.04887 -0.113314,-0.205956 -0.14474,-0.252786 -0.03143,-0.04682 -0.146344,-0.208223 -0.180925,-0.252787 -0.03459,-0.04456 -0.179543,-0.174585 -0.217111,-0.216674 -0.03756,-0.04209 -0.176734,-0.213373 -0.21711,-0.252787 -0.04038,-0.03942 -0.174116,-0.144009 -0.21711,-0.180562 -0.04299,-0.03655 -0.207887,-0.183155 -0.253295,-0.216674 -0.0454,-0.03352 -0.205687,-0.114126 -0.253295,-0.144449 -0.0476,-0.03032 -0.203712,-0.153571 -0.253296,-0.180562 -0.04958,-0.02699 -0.238156,-0.120922 -0.28948,-0.14445 -0.05132,-0.02353 -0.200473,-0.08838 -0.253295,-0.108337 -0.05282,-0.01996 -0.23541,-0.09205 -0.28948,-0.108337 -0.05407,-0.01628 -0.270602,-0.05969 -0.325666,-0.07223 -0.05506,-0.01254 -0.233683,-0.02738 -0.28948,-0.03611 -0.0558,-0.0088 -0.233213,-0.03122 -0.28948,-0.03611 -0.05626,-0.0049 -0.269195,-0.0351 -0.325665,-0.03611 -0.05647,-0.001 -0.233074,-0.0029 -0.289481,0 z"
     inkscape:connector-curvature="0" />
  <path
     style="opacity:0.3;color:#000000;fill:#000000;fill-opacity:1;fill-rule:nonzero;stroke:none;stroke-width:1.5;marker:none;visibility:visible;display:inline;overflow:visible;enable-background:accumulate"
     id="path3757"
     d="m -81.080365,79.945119 a 3.469737,3.4627695 0 0 0 -2.822432,1.733393 L -98.412995,106.7405 a 3.469737,3.4627695 0 0 0 3.003358,5.20018 l 29.05658,-0.0722 a 3.469737,3.4627695 0 0 0 3.003358,-5.20018 L -77.896082,81.678512 a 3.469737,3.4627695 0 0 0 -3.184283,-1.733393 z"
     inkscape:connector-curvature="0" />
  <path
     style="color:#000000;fill:url(#linearGradient4148);fill-opacity:1;fill-rule:nonzero;stroke:none;stroke-width:1.5;marker:none;visibility:visible;display:inline;overflow:visible;enable-background:accumulate"
     id="path3746"
     d="m 191.05523,27.690882 a 3.469737,3.4627695 0 0 0 -2.82243,1.733393 l -14.5102,25.061988 a 3.469737,3.4627695 0 0 0 3.00336,5.20018 l 29.05658,-0.0722 a 3.469737,3.4627695 0 0 0 3.00335,-5.20018 L 194.23951,29.424275 a 3.469737,3.4627695 0 0 0 -3.18428,-1.733393 z"
     inkscape:connector-curvature="0" />
  <path
     style="color:#000000;fill:#ffffff;fill-opacity:1;fill-rule:nonzero;stroke:none;stroke-width:1.5;marker:none;visibility:visible;display:inline;overflow:visible;enable-background:accumulate"
     id="path3787"
     inkscape:connector-curvature="0"
     d="m 7.7028661,107.38136 c -1.152004,0.0553 -1.421833,1.27891 -1.96875,2.0625 -4.601411,7.93707 -9.168744,15.88245 -13.781251,23.8125 -0.461304,0.81991 0.139615,2.06232 1.125,2.09375 2.634591,0.0786 5.294508,0.0135 7.937501,0.0312 7.131503,-0.0218 14.2751179,-0.0304 21.4062499,-0.0625 1.017747,-0.0364 1.712133,-1.20006 1.25,-2.125 -1.851088,-3.07672 -3.663716,-6.28114 -5.5,-9.40625 -3.037579,-5.23803 -6.141673,-10.4711 -9.1562499,-15.71875 -0.289099,-0.43499 -0.786217,-0.70581 -1.3125,-0.6875 z m 0.0625,2 c 2.9432329,5.11449 5.9583739,10.1979 8.9062499,15.28125 1.73504,2.9528 3.48095,5.97959 5.25,8.9375 -6.961554,0.0302 -13.9392309,0.0412 -20.9062499,0.0625 -2.477086,-0.0166 -4.893281,0.0212 -7.281251,-0.0312 4.491297,-7.72537 8.92913,-15.46409 13.406251,-23.1875 0.02593,-0.0447 0.06781,-0.0803 0.09375,-0.125 0.271996,-0.41648 0.415731,-0.72113 0.53125,-0.9375 z" />
  <path
     style="opacity:0.4;color:#000000;fill:#550000;fill-opacity:1;fill-rule:nonzero;stroke:none;stroke-width:1.5;marker:none;visibility:visible;display:inline;overflow:visible;enable-background:accumulate"
     id="path3815"
     inkscape:connector-curvature="0"
     d="m -62.9126,106.90943 a 3.469737,3.4627695 0 0 1 -3.4375,2.96875 l -29.062501,0.0625 a 3.469737,3.4627695 0 0 1 -3.4375,-2.96875 3.469737,3.4627695 0 0 0 3.4375,3.96875 l 29.062501,-0.0625 a 3.469737,3.4627695 0 0 0 3.4375,-3.96875 z" />
  <rect
     style="color:#000000;fill:#ffffff;fill-opacity:1;fill-rule:nonzero;stroke:none;stroke-width:1.5;marker:none;visibility:visible;display:inline;overflow:visible;enable-background:accumulate"
     id="rect3826"
     y="89.940681"
     x="-82.881348"
     ry="2"
     rx="1.9171129"
     height="10"
     width="4.000001" />
  <path
     style="color:#000000;fill:#ffffff;fill-opacity:1;fill-rule:nonzero;stroke:none;stroke-width:1.5;marker:none;visibility:visible;display:inline;overflow:visible;enable-background:accumulate"
     id="path3828"
     d="m -78.88135,102.94068 a 2,2 0 0 1 -4,0 2,2 0 1 1 4,0 z"
     inkscape:connector-curvature="0" />
  <path
     style="fill:#800080;fill-opacity:1;fill-rule:nonzero;stroke:#ffffff;stroke-width:2.44700002999999988;stroke-miterlimit:4;stroke-opacity:1;stroke-dasharray:none;marker:none;visibility:visible;display:inline;overflow:visible"
     id="path3288-2"
     inkscape:connector-curvature="0"
     d="M 92.992215,69.193159 74.802139,43.00778 l -18.09945,26.185379 9.072381,0 0,18.00245 18.144763,0 0,-18.00245 z" />
</svg>
