<?xml version="1.0" encoding="UTF-8" standalone="no"?>
<!-- Created with Inkscape (http://www.inkscape.org/) -->

<svg
   xmlns:dc="http://purl.org/dc/elements/1.1/"
   xmlns:cc="http://creativecommons.org/ns#"
   xmlns:rdf="http://www.w3.org/1999/02/22-rdf-syntax-ns#"
   xmlns:svg="http://www.w3.org/2000/svg"
   xmlns="http://www.w3.org/2000/svg"
   xmlns:xlink="http://www.w3.org/1999/xlink"
   xmlns:sodipodi="http://sodipodi.sourceforge.net/DTD/sodipodi-0.dtd"
   xmlns:inkscape="http://www.inkscape.org/namespaces/inkscape"
   version="1.0"
   width="96"
   height="96"
   id="svg2408"
   inkscape:version="0.48.4 r9939"
   sodipodi:docname="drive-harddisk-ieee1394.svg">
  <sodipodi:namedview
     pagecolor="#ffffff"
     bordercolor="#666666"
     borderopacity="1"
     objecttolerance="10"
     gridtolerance="10"
     guidetolerance="10"
     inkscape:pageopacity="0"
     inkscape:pageshadow="2"
     inkscape:window-width="1001"
     inkscape:window-height="651"
     id="namedview106"
     showgrid="false"
     inkscape:zoom="2.4583333"
     inkscape:cx="21.808429"
     inkscape:cy="72.167289"
     inkscape:window-x="337"
     inkscape:window-y="38"
     inkscape:window-maximized="0"
     inkscape:current-layer="svg2408" />
  <defs
     id="defs2410">
    <linearGradient
       id="linearGradient4327">
      <stop
         id="stop4329"
         style="stop-color:#f0f0f0;stop-opacity:1"
         offset="0" />
      <stop
         id="stop4331"
         style="stop-color:#b4b4b4;stop-opacity:1"
         offset="1" />
    </linearGradient>
    <linearGradient
       id="linearGradient4225">
      <stop
         id="stop4227"
         style="stop-color:#000000;stop-opacity:1"
         offset="0" />
      <stop
         id="stop4229"
         style="stop-color:#484848;stop-opacity:1"
         offset="1" />
    </linearGradient>
    <linearGradient
       id="linearGradient3322">
      <stop
         id="stop3324"
         style="stop-color:#7a7a7a;stop-opacity:1"
         offset="0" />
      <stop
         id="stop3326"
         style="stop-color:#f9f9f9;stop-opacity:1"
         offset="0.2032043" />
      <stop
         id="stop3328"
         style="stop-color:#c9c9c9;stop-opacity:1"
         offset="0.42969123" />
      <stop
         id="stop3330"
         style="stop-color:#dedede;stop-opacity:0"
         offset="1" />
    </linearGradient>
    <linearGradient
       id="linearGradient3448">
      <stop
         id="stop3450"
         style="stop-color:#000000;stop-opacity:1"
         offset="0" />
      <stop
         id="stop3452"
         style="stop-color:#000000;stop-opacity:0"
         offset="1" />
    </linearGradient>
    <linearGradient
       id="linearGradient3376">
      <stop
         id="stop3378"
         style="stop-color:#767676;stop-opacity:1"
         offset="0" />
      <stop
         id="stop3380"
         style="stop-color:#fdfdfd;stop-opacity:1"
         offset="1" />
    </linearGradient>
    <linearGradient
       id="linearGradient3366">
      <stop
         id="stop3368"
         style="stop-color:#c1ff97;stop-opacity:1"
         offset="0" />
      <stop
         id="stop3370"
         style="stop-color:#30c700;stop-opacity:1"
         offset="1" />
    </linearGradient>
    <linearGradient
       id="linearGradient3273">
      <stop
         id="stop3275"
         style="stop-color:#7a7a7a;stop-opacity:1"
         offset="0" />
      <stop
         id="stop3281"
         style="stop-color:#f9f9f9;stop-opacity:1"
         offset="0.14636412" />
      <stop
         id="stop3283"
         style="stop-color:#c9c9c9;stop-opacity:1"
         offset="0.37253973" />
      <stop
         id="stop3277"
         style="stop-color:#dedede;stop-opacity:0"
         offset="1" />
    </linearGradient>
    <linearGradient
       id="linearGradient3220">
      <stop
         id="stop3222"
         style="stop-color:#ffffff;stop-opacity:1"
         offset="0" />
      <stop
         id="stop3224"
         style="stop-color:#bfbfbf;stop-opacity:0"
         offset="1" />
    </linearGradient>
    <linearGradient
       id="linearGradient3173">
      <stop
         id="stop3175"
         style="stop-color:#e6e6e6;stop-opacity:1"
         offset="0" />
      <stop
         id="stop3189"
         style="stop-color:#c3c3c3;stop-opacity:1"
         offset="0.26003402" />
      <stop
         id="stop3187"
         style="stop-color:#b9b9b9;stop-opacity:1"
         offset="0.49180263" />
      <stop
         id="stop3191"
         style="stop-color:#c8c8c8;stop-opacity:1"
         offset="0.75914466" />
      <stop
         id="stop3177"
         style="stop-color:#e6e6e6;stop-opacity:1"
         offset="1" />
    </linearGradient>
    <linearGradient
       x1="45.447727"
       y1="92.539597"
       x2="45.447727"
       y2="7.0165396"
       id="ButtonShadow"
       gradientUnits="userSpaceOnUse"
       gradientTransform="scale(1.0058652,0.994169)">
      <stop
         id="stop3750"
         style="stop-color:#000000;stop-opacity:1"
         offset="0" />
      <stop
         id="stop3752"
         style="stop-color:#000000;stop-opacity:0.58823532"
         offset="1" />
    </linearGradient>
    <linearGradient
       id="linearGradient3737">
      <stop
         id="stop3739"
         style="stop-color:#ffffff;stop-opacity:1"
         offset="0" />
      <stop
         id="stop3741"
         style="stop-color:#ffffff;stop-opacity:0"
         offset="1" />
    </linearGradient>
    <filter
       x="-0.29508197"
       y="-0.46153846"
       width="1.5901639"
       height="1.9230769"
       color-interpolation-filters="sRGB"
       id="filter3179">
      <feGaussianBlur
         id="feGaussianBlur3181"
         stdDeviation="6.6964288" />
    </filter>
    <filter
       color-interpolation-filters="sRGB"
       id="filter3174">
      <feGaussianBlur
         id="feGaussianBlur3176"
         stdDeviation="1.71" />
    </filter>
    <linearGradient
       x1="36.357143"
       y1="6"
       x2="36.357143"
       y2="63.893143"
       id="linearGradient3188"
       xlink:href="#linearGradient3737"
       gradientUnits="userSpaceOnUse" />
    <linearGradient
       x1="-1.857143"
       y1="86.214287"
       x2="88"
       y2="8.6071424"
       id="linearGradient3179"
       xlink:href="#linearGradient3173"
       gradientUnits="userSpaceOnUse" />
    <linearGradient
       x1="6"
       y1="77.09375"
       x2="32"
       y2="77.09375"
       id="linearGradient3279"
       xlink:href="#linearGradient3322"
       gradientUnits="userSpaceOnUse" />
    <linearGradient
       x1="6"
       y1="77.09375"
       x2="32.030617"
       y2="77.09375"
       id="linearGradient3287"
       xlink:href="#linearGradient3273"
       gradientUnits="userSpaceOnUse"
       gradientTransform="matrix(-1,0,0,1,96.030615,0)" />
    <linearGradient
       x1="6"
       y1="75.5"
       x2="45.219246"
       y2="75.5"
       id="linearGradient3454"
       xlink:href="#linearGradient3448"
       gradientUnits="userSpaceOnUse"
       gradientTransform="matrix(-1,0,0,1,96,0)" />
    <linearGradient
       x1="48"
       y1="77.09375"
       x2="48"
       y2="90"
       id="linearGradient3460"
       xlink:href="#linearGradient3448"
       gradientUnits="userSpaceOnUse" />
    <linearGradient
       x1="41.041885"
       y1="72"
       x2="48"
       y2="19.160589"
       id="linearGradient3517"
       xlink:href="#linearGradient3737"
       gradientUnits="userSpaceOnUse" />
    <linearGradient
       x1="38.765545"
       y1="73"
       x2="38.765545"
       y2="-60.29591"
       id="linearGradient3527"
       xlink:href="#linearGradient3448"
       gradientUnits="userSpaceOnUse"
       gradientTransform="matrix(1.0277778,0,0,1.0499999,-0.3055556,-2.6499999)" />
    <linearGradient
       x1="44.324883"
       y1="12"
       x2="44.324883"
       y2="72.11245"
       id="linearGradient3547"
       xlink:href="#linearGradient4327"
       gradientUnits="userSpaceOnUse" />
    <linearGradient
       x1="18.742928"
       y1="8.046936"
       x2="109.1929"
       y2="68.516502"
       id="linearGradient3551"
       xlink:href="#linearGradient3220"
       gradientUnits="userSpaceOnUse"
       gradientTransform="matrix(1,0,0,-1,0,84)" />
    <linearGradient
       x1="15.999999"
       y1="85.0625"
       x2="20.178572"
       y2="85.0625"
       id="linearGradient3556"
       xlink:href="#linearGradient3376"
       gradientUnits="userSpaceOnUse" />
    <radialGradient
       cx="18.089285"
       cy="85.0625"
       r="2.0892856"
       fx="18.089285"
       fy="85.0625"
       id="radialGradient3558"
       xlink:href="#linearGradient3366"
       gradientUnits="userSpaceOnUse"
       gradientTransform="matrix(1,0,0,1.0042736,0,-0.3635233)" />
    <linearGradient
       x1="67.071426"
       y1="80"
       x2="67.071426"
       y2="88.011475"
       id="linearGradient4231"
       xlink:href="#linearGradient4225"
       gradientUnits="userSpaceOnUse"
       gradientTransform="translate(-2,0)" />
    <linearGradient
       x1="67.071426"
       y1="80"
       x2="67.071426"
       y2="88.011475"
       id="linearGradient4239"
       xlink:href="#linearGradient3737"
       gradientUnits="userSpaceOnUse" />
    <clipPath
       id="clipPath3306">
      <rect
         width="72"
         height="60"
         rx="4"
         ry="4"
         x="12"
         y="12"
         id="rect3308"
         style="fill:#ffffff;fill-opacity:1;fill-rule:nonzero;stroke:none" />
    </clipPath>
    <linearGradient
       x1="15.656256"
       y1="69.394279"
       x2="46.594883"
       y2="39.82095"
       id="linearGradient3540"
       xlink:href="#linearGradient3220"
       gradientUnits="userSpaceOnUse" />
    <filter
       x="-0.12267826"
       y="-0.17991199"
       width="1.2453564"
       height="1.3598239"
       color-interpolation-filters="sRGB"
       id="filter3642">
      <feGaussianBlur
         id="feGaussianBlur3644"
         stdDeviation="3.178304" />
    </filter>
    <linearGradient
       x1="45.447727"
       y1="92.539597"
       x2="45.447727"
       y2="7.0165396"
       id="ButtonShadow-0"
       gradientUnits="userSpaceOnUse"
       gradientTransform="matrix(1.0058652,0,0,0.994169,100,0)">
      <stop
         id="stop3750-8"
         style="stop-color:#000000;stop-opacity:1"
         offset="0" />
      <stop
         id="stop3752-5"
         style="stop-color:#000000;stop-opacity:0.58823532"
         offset="1" />
    </linearGradient>
    <linearGradient
       x1="32.251034"
       y1="6.1317081"
       x2="32.251034"
       y2="90.238609"
       id="linearGradient3780"
       xlink:href="#ButtonShadow-0"
       gradientUnits="userSpaceOnUse"
       gradientTransform="matrix(1.0238095,0,0,1.0119048,-1.1428571,-98.071429)" />
    <linearGradient
       x1="32.251034"
       y1="6.1317081"
       x2="32.251034"
       y2="90.238609"
       id="linearGradient3772"
       xlink:href="#ButtonShadow-0"
       gradientUnits="userSpaceOnUse"
       gradientTransform="matrix(1.0238095,0,0,1.0119048,-1.1428571,-98.071429)" />
    <linearGradient
       x1="32.251034"
       y1="6.1317081"
       x2="32.251034"
       y2="90.238609"
       id="linearGradient3725"
       xlink:href="#ButtonShadow-0"
       gradientUnits="userSpaceOnUse"
       gradientTransform="matrix(1.0238095,0,0,1.0119048,-1.1428571,-98.071429)" />
    <linearGradient
       x1="32.251034"
       y1="6.1317081"
       x2="32.251034"
       y2="90.238609"
       id="linearGradient3721"
       xlink:href="#ButtonShadow-0"
       gradientUnits="userSpaceOnUse"
       gradientTransform="translate(0,-97)" />
    <linearGradient
       x1="32.251034"
       y1="6.1317081"
       x2="32.251034"
       y2="90.238609"
       id="linearGradient2918"
       xlink:href="#ButtonShadow-0"
       gradientUnits="userSpaceOnUse"
       gradientTransform="matrix(1.0238095,0,0,1.0119048,-1.1428571,-98.071429)" />
    <linearGradient
       gradientTransform="matrix(1.0238095,0,0,1.0119048,-1.1428571,-98.071429)"
       gradientUnits="userSpaceOnUse"
       xlink:href="#ButtonShadow-0-4"
       id="linearGradient2918-3"
       y2="90.238609"
       x2="32.251034"
       y1="6.1317081"
       x1="32.251034" />
    <linearGradient
       gradientTransform="translate(0,-97)"
       gradientUnits="userSpaceOnUse"
       xlink:href="#ButtonShadow-0-4"
       id="linearGradient3721-4"
       y2="90.238609"
       x2="32.251034"
       y1="6.1317081"
       x1="32.251034" />
    <linearGradient
       gradientTransform="matrix(1.0238095,0,0,1.0119048,-1.1428571,-98.071429)"
       gradientUnits="userSpaceOnUse"
       xlink:href="#ButtonShadow-0-4"
       id="linearGradient3725-9"
       y2="90.238609"
       x2="32.251034"
       y1="6.1317081"
       x1="32.251034" />
    <linearGradient
       gradientTransform="matrix(1.0238095,0,0,1.0119048,-1.1428571,-98.071429)"
       gradientUnits="userSpaceOnUse"
       xlink:href="#ButtonShadow-0-4"
       id="linearGradient3772-4"
       y2="90.238609"
       x2="32.251034"
       y1="6.1317081"
       x1="32.251034" />
    <linearGradient
       gradientTransform="matrix(1.0238095,0,0,1.0119048,-1.1428571,-98.071429)"
       gradientUnits="userSpaceOnUse"
       xlink:href="#ButtonShadow-0-4"
       id="linearGradient3780-5"
       y2="90.238609"
       x2="32.251034"
       y1="6.1317081"
       x1="32.251034" />
    <linearGradient
       gradientTransform="matrix(1.0058652,0,0,0.994169,100,0)"
       gradientUnits="userSpaceOnUse"
       id="ButtonShadow-0-4"
       y2="7.0165396"
       x2="45.447727"
       y1="92.539597"
       x1="45.447727">
      <stop
         offset="0"
         style="stop-color:#000000;stop-opacity:1"
         id="stop3750-8-7" />
      <stop
         offset="1"
         style="stop-color:#000000;stop-opacity:0.58823532"
         id="stop3752-5-9" />
    </linearGradient>
    <filter
       id="filter3548"
       color-interpolation-filters="sRGB"
       height="1.2496001"
       width="1.231111"
       y="-0.1248"
       x="-0.11555556">
      <feGaussianBlur
         stdDeviation="2.6"
         id="feGaussianBlur3550" />
    </filter>
    <clipPath
       id="clipPath3532">
      <path
         style="fill:#ffffff;fill-opacity:1;fill-rule:nonzero;stroke:none;display:inline"
         id="path3534"
         inkscape:connector-curvature="0"
         d="m 12,-14 c -3.324,0 -6,2.676 -6,6 l 0,58 c 0,3.324 2.676,6 6,6 l 72,0 c 3.324,0 6,-2.676 6,-6 l 0,-58 c 0,-3.324 -2.676,-6 -6,-6 l -72,0 z M 65.28125,-4 74,3.5625 63.0625,12.90625 54.34375,5.4375 65.28125,-4 z m -33.3125,0.375 3.34375,2.8125 -10,8.65625 L 22,4.96875 31.96875,-3.625 z M 38.625,2.0625 41.9375,4.90625 31.96875,13.5 28.65625,10.65625 38.625,2.0625 z m 9.21875,7.3125 c 5.900686,-10e-7 10.6875,4.133876 10.6875,9.21875 -2e-6,5.084874 -4.78613,9.1875 -10.6875,9.1875 -5.901368,-5.9e-4 -10.6875,-4.103216 -10.6875,-9.1875 0,-5.084285 4.786131,-9.21875 10.6875,-9.21875 z m 0,4.0625 c -3.304793,-2e-6 -6,2.30988 -6,5.15625 -6.84e-4,2.848144 2.695206,5.15625 6,5.15625 3.306164,-1e-6 5.96875,-2.308106 5.96875,-5.15625 -2e-6,-2.84637 -2.662587,-5.15625 -5.96875,-5.15625 z m -7.0625,18.40625 14.125,0 0,4.0625 -14.125,0 0,-4.0625 z m 0,8.09375 14.125,0 0,4.0625 -14.125,0 0,-4.0625 z" />
    </clipPath>
    <linearGradient
       gradientUnits="userSpaceOnUse"
       xlink:href="#linearGradient3448-8"
       id="linearGradient4196"
       y2="82.00309"
       x2="43.05357"
       y1="80.14286"
       x1="43.05357" />
    <filter
       id="filter4180"
       color-interpolation-filters="sRGB"
       height="3.8298349"
       width="1.2288935"
       y="-1.4149175"
       x="-0.11444673">
      <feGaussianBlur
         stdDeviation="3.5372897"
         id="feGaussianBlur4182" />
    </filter>
    <radialGradient
       gradientTransform="matrix(1.0666667,0,0,0.06666667,-3.2,77.4)"
       gradientUnits="userSpaceOnUse"
       xlink:href="#linearGradient3313"
       id="radialGradient4138"
       fy="84"
       fx="48"
       r="30"
       cy="84"
       cx="48" />
    <filter
       id="filter3829"
       color-interpolation-filters="sRGB"
       height="1.3598239"
       width="1.2453564"
       y="-0.17991199"
       x="-0.12267826">
      <feGaussianBlur
         stdDeviation="3.5487715"
         id="feGaussianBlur3831" />
    </filter>
    <clipPath
       id="clipPath3785">
      <rect
         style="fill:#ffffff;fill-opacity:1;fill-rule:nonzero;stroke:none"
         id="rect3787"
         y="6"
         x="6"
         ry="6"
         rx="6"
         height="72"
         width="84" />
    </clipPath>
    <linearGradient
       gradientTransform="matrix(1.1165614,0,0,1.1165614,0.8046986,-5.6759082)"
       gradientUnits="userSpaceOnUse"
       xlink:href="#linearGradient3220-1"
       id="linearGradient3781"
       y2="39.82095"
       x2="46.594883"
       y1="69.394279"
       x1="15.656256" />
    <linearGradient
       gradientTransform="matrix(1,0,0,-1,0,84)"
       gradientUnits="userSpaceOnUse"
       xlink:href="#linearGradient3220-1"
       id="linearGradient3551-4"
       y2="68.516502"
       x2="109.1929"
       y1="8.046936"
       x1="18.742928" />
    <linearGradient
       gradientUnits="userSpaceOnUse"
       xlink:href="#linearGradient3448-8"
       id="linearGradient3460-1"
       y2="90"
       x2="48"
       y1="77.09375"
       x1="48" />
    <linearGradient
       gradientTransform="matrix(-1,0,0,1,96,-2)"
       gradientUnits="userSpaceOnUse"
       xlink:href="#linearGradient3448-8"
       id="linearGradient3454-3"
       y2="75.5"
       x2="45.219246"
       y1="75.5"
       x1="6" />
    <linearGradient
       gradientTransform="matrix(-1,0,0,1,96.030615,0)"
       gradientUnits="userSpaceOnUse"
       xlink:href="#linearGradient3273-3"
       id="linearGradient3287-3"
       y2="77.09375"
       x2="32.030617"
       y1="77.09375"
       x1="6" />
    <linearGradient
       gradientUnits="userSpaceOnUse"
       xlink:href="#linearGradient3322-8"
       id="linearGradient3279-1"
       y2="77.09375"
       x2="32"
       y1="77.09375"
       x1="6" />
    <linearGradient
       gradientUnits="userSpaceOnUse"
       xlink:href="#linearGradient4327-4"
       id="linearGradient3179-7"
       y2="78.000145"
       x2="46"
       y1="6"
       x1="46" />
    <linearGradient
       gradientUnits="userSpaceOnUse"
       xlink:href="#linearGradient3737-4"
       id="linearGradient3188-2"
       y2="63.893143"
       x2="36.357143"
       y1="6"
       x1="36.357143" />
    <filter
       id="filter3174-8"
       color-interpolation-filters="sRGB">
      <feGaussianBlur
         stdDeviation="1.71"
         id="feGaussianBlur3176-9" />
    </filter>
    <linearGradient
       id="linearGradient3737-4">
      <stop
         offset="0"
         style="stop-color:#ffffff;stop-opacity:1"
         id="stop3739-4" />
      <stop
         offset="1"
         style="stop-color:#ffffff;stop-opacity:0"
         id="stop3741-0" />
    </linearGradient>
    <linearGradient
       gradientTransform="scale(1.0058652,0.994169)"
       gradientUnits="userSpaceOnUse"
       id="ButtonShadow-3"
       y2="7.0165396"
       x2="45.447727"
       y1="92.539597"
       x1="45.447727">
      <stop
         offset="0"
         style="stop-color:#000000;stop-opacity:1"
         id="stop3750-5" />
      <stop
         offset="1"
         style="stop-color:#000000;stop-opacity:0.58823532"
         id="stop3752-1" />
    </linearGradient>
    <linearGradient
       id="linearGradient3220-1">
      <stop
         offset="0"
         style="stop-color:#ffffff;stop-opacity:1"
         id="stop3222-1" />
      <stop
         offset="1"
         style="stop-color:#bfbfbf;stop-opacity:0"
         id="stop3224-5" />
    </linearGradient>
    <linearGradient
       id="linearGradient3273-3">
      <stop
         offset="0"
         style="stop-color:#7a7a7a;stop-opacity:1"
         id="stop3275-6" />
      <stop
         offset="0.14636412"
         style="stop-color:#f9f9f9;stop-opacity:1"
         id="stop3281-7" />
      <stop
         offset="0.37253973"
         style="stop-color:#c9c9c9;stop-opacity:1"
         id="stop3283-7" />
      <stop
         offset="1"
         style="stop-color:#dedede;stop-opacity:0"
         id="stop3277-7" />
    </linearGradient>
    <linearGradient
       id="linearGradient3448-8">
      <stop
         offset="0"
         style="stop-color:#000000;stop-opacity:1"
         id="stop3450-9" />
      <stop
         offset="1"
         style="stop-color:#000000;stop-opacity:0"
         id="stop3452-7" />
    </linearGradient>
    <linearGradient
       id="linearGradient3322-8">
      <stop
         offset="0"
         style="stop-color:#7a7a7a;stop-opacity:1"
         id="stop3324-3" />
      <stop
         offset="0.2032043"
         style="stop-color:#f9f9f9;stop-opacity:1"
         id="stop3326-5" />
      <stop
         offset="0.42969123"
         style="stop-color:#c9c9c9;stop-opacity:1"
         id="stop3328-1" />
      <stop
         offset="1"
         style="stop-color:#dedede;stop-opacity:0"
         id="stop3330-7" />
    </linearGradient>
    <linearGradient
       id="linearGradient4327-4">
      <stop
         offset="0"
         style="stop-color:#f0f0f0;stop-opacity:1"
         id="stop4329-0" />
      <stop
         offset="1"
         style="stop-color:#b4b4b4;stop-opacity:1"
         id="stop4331-9" />
    </linearGradient>
    <linearGradient
       id="linearGradient3313">
      <stop
         offset="0"
         style="stop-color:#4dbeff;stop-opacity:1"
         id="stop3315" />
      <stop
         offset="0.67213112"
         style="stop-color:#1379ff;stop-opacity:0.65040648"
         id="stop4186" />
      <stop
         offset="1"
         style="stop-color:#0066ff;stop-opacity:0"
         id="stop3317" />
    </linearGradient>
    <linearGradient
       id="linearGradient3767">
      <stop
         offset="0"
         style="stop-color:#4d4d4d;stop-opacity:0.70731705"
         id="stop3769" />
      <stop
         offset="1"
         style="stop-color:#4d4d4d;stop-opacity:0.25203252"
         id="stop3771" />
    </linearGradient>
    <linearGradient
       gradientTransform="matrix(0,0.7058823,-0.8125,0,101.62499,4.0000002)"
       gradientUnits="userSpaceOnUse"
       xlink:href="#linearGradient3767"
       id="linearGradient3421"
       y2="65.999985"
       x2="16.919882"
       y1="65.999985"
       x1="85.000008" />
    <linearGradient
       inkscape:collect="always"
       xlink:href="#linearGradient3767"
       id="linearGradient4110"
       gradientUnits="userSpaceOnUse"
       gradientTransform="matrix(0,0.7058823,-0.8125,0,101.62499,4.0000002)"
       x1="85.000008"
       y1="65.999985"
       x2="16.919882"
       y2="65.999985" />
  </defs>
  <metadata
     id="metadata2413">
    <rdf:RDF>
      <cc:Work
         rdf:about="">
        <dc:format>image/svg+xml</dc:format>
        <dc:type
           rdf:resource="http://purl.org/dc/dcmitype/StillImage" />
        <dc:title />
      </cc:Work>
    </rdf:RDF>
  </metadata>
  <rect
     style="fill:#3771c8;fill-opacity:1;stroke:none"
     id="rect3096"
     width="96"
     height="96"
     x="0"
     y="1.5987212e-14"
     rx="0"
     ry="0" />
  <g
     id="layer2"
     style="display:none">
    <rect
       width="86"
       height="85"
       rx="6"
       ry="6"
       x="5"
       y="7"
       id="rect3745"
       style="opacity:0.9;fill:url(#ButtonShadow);fill-opacity:1;fill-rule:nonzero;stroke:none;filter:url(#filter3174)" />
  </g>
  <g
     id="layer4" />
  <path
     style="fill:#ffffff"
     d="M 14.857994,87.187419 C 11.775794,86.540501 9.0053514,84.127751 7.9756617,81.193666 7.6529174,80.274011 7.5875909,79.733542 7.5261178,77.474472 c -0.043429,-1.595925 -0.00112,-3.035804 0.1067548,-3.634137 0.6631188,-3.677641 3.6290544,-6.638132 7.4172454,-7.403628 1.675913,-0.338658 64.694698,-0.338658 66.37061,0 3.788191,0.765496 6.754124,3.725987 7.417243,7.403628 0.107884,0.598333 0.150188,2.038212 0.106756,3.634137 -0.08559,3.14543 -0.354184,4.121768 -1.635954,5.946786 -1.352112,1.925185 -3.452425,3.298685 -5.769354,3.772878 -1.554652,0.318182 -65.163992,0.311774 -66.681425,-0.0068 z m 61.960797,-6.298037 c 0.999403,-0.428884 1.909485,-1.287659 2.350842,-2.218311 0.481581,-1.015466 0.471431,-2.755845 -0.0217,-3.722518 -1.197725,-2.347846 -3.982021,-3.275896 -6.370261,-2.123303 -3.157816,1.523996 -3.468014,5.760515 -0.563369,7.69425 1.381481,0.919706 3.017107,1.051098 4.604496,0.369882 z M 7.5705303,65.860371 c 0.262546,-1.047606 9.3104067,-48.045987 9.3127157,-48.374151 0.0063,-0.896352 0.509326,-2.623739 1.102559,-3.786248 1.087027,-2.130154 3.0775,-3.7882833 5.447768,-4.5381646 l 1.166273,-0.368974 23.635577,0 23.635577,0 1.166274,0.368974 c 2.245485,0.7104061 4.273893,2.3413916 5.32637,4.2827856 0.684619,1.262844 1.004994,2.317357 1.225367,4.033265 0.0923,0.71863 2.235044,11.959204 4.761669,24.979056 2.526626,13.019853 4.570945,23.696738 4.542931,23.726413 -0.028,0.02967 -0.289733,-0.121952 -0.581595,-0.336954 -1.26146,-0.929244 -3.843691,-1.961302 -6.095477,-2.436216 -1.408072,-0.296972 -66.554159,-0.296972 -67.962231,0 -2.236687,0.471729 -4.8334723,1.506569 -6.0744052,2.420692 -0.6293917,0.463638 -0.7192596,0.467992 -0.6093725,0.02953 z M 50.941179,53.751103 c 6.795822,-0.581791 12.723759,-3.044589 16.80259,-6.980735 1.785312,-1.722858 2.654563,-2.874728 3.579264,-4.742981 1.038454,-2.098085 1.319993,-3.367083 1.319993,-5.949739 0,-2.624667 -0.282844,-3.864676 -1.384972,-6.071831 -5.350582,-10.715253 -23.112329,-15.037444 -36.329453,-8.840518 -5.487873,2.573024 -9.433274,6.775246 -10.753703,11.45371 -0.497941,1.764277 -0.497569,5.15549 7.63e-4,6.917275 0.413768,1.462828 1.338421,3.383221 2.272642,4.720004 1.043709,1.49345 3.657126,3.917114 5.485266,5.086999 5.288947,3.38456 12.210708,4.9897 19.007611,4.407816 z m -5.17277,-7.943343 c -4.880606,-0.430172 -9.262443,-2.243301 -11.532825,-4.77209 -0.781797,-0.870782 -1.682816,-2.615442 -1.840774,-3.564334 -0.275929,-1.65758 0.01284,-3.749955 0.69467,-5.033522 l 0.293159,-0.551877 0.10052,1.367669 c 0.200599,2.729362 1.426929,5.033473 3.88556,7.300451 2.534048,2.33652 6.132469,4.244443 9.672989,5.128736 l 0.79581,0.198763 -0.716228,-0.0089 c -0.393927,-0.0049 -1.002722,-0.03409 -1.35288,-0.06496 z m 0.596967,-7.200716 c -2.474743,-0.643595 -4.036145,-2.182827 -4.05301,-3.995466 -0.01407,-1.513039 1.054725,-2.922976 2.801105,-3.695145 3.985059,-1.762006 9.076431,0.317963 9.04501,3.695145 -0.02656,2.854871 -4.116331,4.951666 -7.793105,3.995466 z"
     id="path3094"
     inkscape:connector-curvature="0" />
  <rect
     style="fill:#ffffff;fill-opacity:1;stroke:none"
     id="rect3885"
     width="51.254238"
     height="41.491528"
     x="23.59322"
     y="13.016949"
     ry="0" />
  <g
     id="layer2-2"
     style="display:none"
     transform="translate(-120.81356,-30.381356)">
    <rect
       width="86"
       height="85"
       rx="6"
       ry="6"
       x="5"
       y="7"
       id="rect3745-0"
       style="opacity:0.9;fill:url(#ButtonShadow-3);fill-opacity:1;fill-rule:nonzero;stroke:none;filter:url(#filter3174-8)" />
  </g>
  <path
     style="fill:#3771c8;fill-opacity:1;display:inline"
     id="path2582"
     inkscape:connector-curvature="0"
     d="m 37.156166,36.226109 c 0,-4.524152 4.784244,-8.192834 10.685613,-8.192834 5.900685,0 10.68493,3.668158 10.68493,8.192834 0,4.524676 -4.78356,8.19441 -10.68493,8.19441 -5.901369,-5.24e-4 -10.685613,-3.670259 -10.685613,-8.19441 m 10.685613,4.588744 c 3.306163,0 5.98219,-2.054378 5.98219,-4.588744 0,-2.532787 -2.676027,-4.58927 -5.98219,-4.58927 -3.304794,0 -5.982876,2.056483 -5.982876,4.58927 -6.85e-4,2.534366 2.678082,4.588744 5.982876,4.588744 z m -7.054108,7.209758 14.103422,0 0,3.603567 -14.103422,0 0,-3.603567 z m 0,7.20765 14.103422,0 0,3.606722 -14.103422,0 0,-3.606722 z M 28.647947,29.15814 31.973289,31.709836 41.947946,24.06158 38.623289,21.510411 28.647947,29.15814 M 22,24.102541 25.323291,26.653709 35.298631,18.962392 31.973289,16.454286 22,24.102541 M 65.29041,16.127119 54.338355,24.52371 63.047943,31.160004 74,22.847438 65.29041,16.127119" />
</svg>
