/* XPM */
static char * desktop_xpm[] = {
"22 22 85 1",
" 	c #009FEB",
".	c #009EEB",
"+	c #22ACEE",
"@	c #3CB6F0",
"#	c #3AB5EF",
"$	c #3BB5F0",
"%	c #39B5EF",
"&	c #0DA4EC",
"*	c #5BC1F2",
"=	c #40B7F0",
"-	c #2DB0EE",
";	c #30B1EF",
">	c #31B1EF",
",	c #2FB1EF",
"'	c #5EC2F2",
")	c #2EB0EF",
"!	c #53BEF2",
"~	c #29AEEE",
"{	c #6AC7F3",
"]	c #21ABED",
"^	c #009DEB",
"/	c #019EEB",
"(	c #009DEA",
"_	c #3EB6F0",
":	c #52BEF2",
"<	c #3AB5F0",
"[	c #BFE7FA",
"}	c #18A8ED",
"|	c #92D6F6",
"1	c #82D0F5",
"2	c #0AA3EC",
"3	c #3DB6F0",
"4	c #35B3EF",
"5	c #A3DCF8",
"6	c #33B2EF",
"7	c #50BDF1",
"8	c #FCFEFF",
"9	c #EFF9FE",
"0	c #37B4EF",
"a	c #AEE1F9",
"b	c #B0E1F9",
"c	c #9EDAF7",
"d	c #10A5EC",
"e	c #38B4EF",
"f	c #B3E2F9",
"g	c #09A2EC",
"h	c #07A1EC",
"i	c #86D2F5",
"j	c #2AAFEE",
"k	c #55BFF2",
"l	c #14A6EC",
"m	c #57C0F2",
"n	c #5CC2F2",
"o	c #4FBDF1",
"p	c #54BFF2",
"q	c #71CAF4",
"r	c #77CCF4",
"s	c #70C9F4",
"t	c #4EBDF1",
"u	c #6CC8F3",
"v	c #29AFEE",
"w	c #0EA4EC",
"x	c #1DAAED",
"y	c #1EAAED",
"z	c #21ABEE",
"A	c #1FABED",
"B	c #DEF3FC",
"C	c #FFFFFF",
"D	c #D9F1FC",
"E	c #20ABED",
"F	c #1AA9ED",
"G	c #05A1EB",
"H	c #49BBF1",
"I	c #9EDBF7",
"J	c #ADE0F9",
"K	c #9CDAF7",
"L	c #52BEF1",
"M	c #1FAAED",
"N	c #45B9F0",
"O	c #4BBBF1",
"P	c #4ABBF1",
"Q	c #4EBCF1",
"R	c #02A0EB",
"S	c #06A1EB",
"T	c #019FEB",
"                      ",
"                      ",
"                      ",
"   ................   ",
"   +@############$%&  ",
"   *=-;>>>>>>>>>>,'). ",
"   !~{]^.......//(_,. ",
"   :<[@.     .}|123,. ",
"   :456.     ^789>$,. ",
"   :0a0.     .+bcd3,. ",
"   :efe.       gh._,. ",
"   !,ij.         ._,. ",
"   kl.....^^^....^_,. ",
"   mno7opqrrrs!o7tuv. ",
"   wxyzAeBCCCD6AExFG  ",
"    .=tHpIaJaKLHkM.   ",
"     N!ttOPPPOtQ*+.   ",
"     RSSSSSSSSSSGT    ",
"                      ",
"                      ",
"                      ",
"                      "};
