/* XPM */
static char * desktop_xpm[] = {
"48 48 128 2",
"  	c #009FEB",
". 	c #04A0EB",
"+ 	c #05A1EB",
"@ 	c #029FEB",
"# 	c #009EEB",
"$ 	c #3BB5F0",
"% 	c #91D6F6",
"& 	c #8ED5F6",
"* 	c #8ED4F6",
"= 	c #8DD4F6",
"- 	c #92D6F6",
"; 	c #61C4F3",
"> 	c #04A1EB",
", 	c #009DEB",
"' 	c #71CAF4",
") 	c #A3DCF8",
"! 	c #4BBBF1",
"~ 	c #4EBDF1",
"{ 	c #4CBCF1",
"] 	c #7ACDF4",
"^ 	c #A2DCF8",
"/ 	c #0CA3EC",
"( 	c #71C9F4",
"_ 	c #78CCF4",
": 	c #009CEA",
"< 	c #3CB5F0",
"[ 	c #9CDAF7",
"} 	c #0CA4EC",
"| 	c #78CCF5",
"1 	c #0BA3EC",
"2 	c #07A2EC",
"3 	c #3DB6F0",
"4 	c #9DDAF7",
"5 	c #ACE0F8",
"6 	c #B6E4F9",
"7 	c #66C5F3",
"8 	c #019FEB",
"9 	c #55BFF2",
"0 	c #F6FCFE",
"a 	c #FFFFFF",
"b 	c #92D6F7",
"c 	c #01A0EB",
"d 	c #14A6EC",
"e 	c #33B2EF",
"f 	c #25ADEE",
"g 	c #51BDF1",
"h 	c #EDF8FE",
"i 	c #FBFEFF",
"j 	c #32B2EF",
"k 	c #BCE6FA",
"l 	c #ECF8FE",
"m 	c #E0F3FD",
"n 	c #77CCF4",
"o 	c #08A2EC",
"p 	c #21ABEE",
"q 	c #61C4F2",
"r 	c #67C6F3",
"s 	c #3AB5EF",
"t 	c #ACE0F9",
"u 	c #EEF8FE",
"v 	c #49BAF1",
"w 	c #39B5EF",
"x 	c #A8DEF8",
"y 	c #B3E2F9",
"z 	c #64C5F3",
"A 	c #1DAAED",
"B 	c #E1F4FD",
"C 	c #7CCEF5",
"D 	c #14A7ED",
"E 	c #CCECFB",
"F 	c #65C5F3",
"G 	c #68C6F3",
"H 	c #EEF9FE",
"I 	c #FDFEFF",
"J 	c #B9E5F9",
"K 	c #86D2F6",
"L 	c #70C9F4",
"M 	c #20ABED",
"N 	c #51BEF1",
"O 	c #FCFEFF",
"P 	c #56BFF2",
"Q 	c #5BC1F2",
"R 	c #78CBF4",
"S 	c #3BB4F0",
"T 	c #B5E3F9",
"U 	c #6EC9F4",
"V 	c #73CAF4",
"W 	c #73CBF4",
"X 	c #6FC9F4",
"Y 	c #94D7F7",
"Z 	c #A4DDF8",
"` 	c #30B1EF",
" .	c #7ECFF5",
"..	c #7ECEF5",
"+.	c #A7DEF8",
"@.	c #FAFDFF",
"#.	c #B0E1F9",
"$.	c #80CFF5",
"%.	c #50BDF1",
"&.	c #03A0EB",
"*.	c #F5FBFE",
"=.	c #62C3F2",
"-.	c #18A8ED",
";.	c #6DC8F4",
">.	c #6CC8F4",
",.	c #6AC7F3",
"'.	c #97D8F7",
").	c #F2FAFE",
"!.	c #F1FAFE",
"~.	c #EFF9FE",
"{.	c #A0DBF8",
"].	c #35B3EF",
"^.	c #3FB7F0",
"/.	c #99D9F7",
"(.	c #4ABBF1",
"_.	c #47BAF0",
":.	c #47BAF1",
"<.	c #81D0F5",
"[.	c #3EB7F0",
"}.	c #53BEF2",
"|.	c #53BEF1",
"1.	c #87D2F6",
"2.	c #72CAF4",
"3.	c #16A7ED",
"4.	c #5FC3F2",
"5.	c #63C5F3",
"6.	c #66C6F3",
"7.	c #31B1EF",
"                                                                                                ",
"                                                                                                ",
"                                                                                                ",
"                                                                                                ",
"                                                                                                ",
"                                                                                                ",
"                                                                                                ",
"                                                                                                ",
"                                                                                                ",
"                . + + + + + + + + + + + + + + + + + + + + + + + + + + + + + + + + @             ",
"            # $ % & * * * * * * * * * * * * * * * * * * * * * * * * * * * * * = - ; >           ",
"            , ' ) ! ~ ~ ~ ~ ~ ~ ~ ~ ~ ~ ~ ~ ~ ~ ~ ~ ~ ~ ~ ~ ~ ~ ~ ~ ~ ~ ~ ~ ~ { ] ^ /           ",
"            , ( _ : # , , # # # # # # # # # # # # # # # # # # # # # # # # # # , < [ }           ",
"            , ( | , . 1 } 2                                                   # 3 4 }           ",
"            , ( | : $ 5 6 7 8                                       # #       # 3 4 }           ",
"            , ( | : 9 0 a b c                                     d e f +     # 3 4 }           ",
"            , ( | : g h i = 8                                 # j k l m n o   # 3 4 }           ",
"            , ( | , p q r s                                   1 t a a a u v # # 3 4 }           ",
"            , ( | : w x y z 8                               # A B a a a a C , # 3 4 }           ",
"            , ( | : 9 0 a b c                               # D E a a a i F # # 3 4 }           ",
"            , ( | : g h i = 8                                 8 G H a I J A # # 3 4 }           ",
"            , ( | , p q r s                                     2 ! K L M     # 3 4 }           ",
"            , ( | : w x y z 8                                     # # # #     # 3 4 }           ",
"            , ( | : 9 0 a b c                                                 # 3 4 }           ",
"            , ( | : N H O = 8                                                 # 3 4 }           ",
"            , ( | , A P Q e                                                   # 3 4 }           ",
"            , ( | ,   # # #                                                   # 3 4 }           ",
"            , ( | ,                                                           # 3 4 }           ",
"            , ( R : , , , , , , , , , , , , , , , , , , , , , , , , , , , , , : S [ }           ",
"            , L T U L L L L L L L L L V _ _ _ _ _ _ _ _ _ _ W L L L L L L L L X Y Z 1           ",
"            # ` C  .................C +.@.a a a a a a a a I #.C ................$.%.&.          ",
"              # , , , , , , , , , , : g *.a a a a a a a a @.=.: , , , , , , , , , #             ",
"                        # # # # # # : g *.a a a a a a a a @.=.: # # # # # #                     ",
"                      -.G ;.>.>.>.>.,.'.l ).!.!.!.!.!.!.).~.{.,.>.>.>.>.L ].#                   ",
"                    # ^./.(.(.(.(.(.(.v _._._._._._._._._._.v (.(.(.(.:.<.V ,                   ",
"                    # [.4 }.|.|.|.|.|.|.|.|.|.|.|.|.|.|.|.|.|.|.|.|.|.N 1.2.,                   ",
"                      3.4.z 5.5.5.5.5.5.5.5.5.5.5.5.5.5.5.5.5.5.5.5.5.5.6.7.#                   ",
"                        # # # # # # # # # # # # # # # # # # # # # # # # # #                     ",
"                                                                                                ",
"                                                                                                ",
"                                                                                                ",
"                                                                                                ",
"                                                                                                ",
"                                                                                                ",
"                                                                                                ",
"                                                                                                ",
"                                                                                                ",
"                                                                                                "};
