<?xml version="1.0" encoding="UTF-8" standalone="no"?>
<!-- Created with Inkscape (http://www.inkscape.org/) -->

<svg
   xmlns:dc="http://purl.org/dc/elements/1.1/"
   xmlns:cc="http://creativecommons.org/ns#"
   xmlns:rdf="http://www.w3.org/1999/02/22-rdf-syntax-ns#"
   xmlns:svg="http://www.w3.org/2000/svg"
   xmlns="http://www.w3.org/2000/svg"
   xmlns:xlink="http://www.w3.org/1999/xlink"
   xmlns:sodipodi="http://sodipodi.sourceforge.net/DTD/sodipodi-0.dtd"
   xmlns:inkscape="http://www.inkscape.org/namespaces/inkscape"
   version="1.0"
   width="96"
   height="96"
   id="svg2408"
   inkscape:version="0.48.4 r9939"
   sodipodi:docname="distributor-logo-fedora.svg">
  <sodipodi:namedview
     pagecolor="#ffffff"
     bordercolor="#666666"
     borderopacity="1"
     objecttolerance="10"
     gridtolerance="10"
     guidetolerance="10"
     inkscape:pageopacity="0"
     inkscape:pageshadow="2"
     inkscape:window-width="640"
     inkscape:window-height="480"
     id="namedview62"
     showgrid="false"
     inkscape:zoom="2.4583333"
     inkscape:cx="47.999999"
     inkscape:cy="47.999999"
     inkscape:window-x="338"
     inkscape:window-y="144"
     inkscape:window-maximized="0"
     inkscape:current-layer="svg2408" />
  <defs
     id="defs2410">
    <linearGradient
       id="linearGradient3925">
      <stop
         id="stop3927"
         style="stop-color:#3c6eb4;stop-opacity:1"
         offset="0" />
      <stop
         id="stop3929"
         style="stop-color:#81a4d5;stop-opacity:1"
         offset="1" />
    </linearGradient>
    <radialGradient
       cx="115.8989"
       cy="133.10451"
       r="154.62019"
       fx="115.8989"
       fy="133.10451"
       id="radialGradient3897"
       gradientUnits="userSpaceOnUse">
      <stop
         id="stop3899"
         style="stop-color:#294172;stop-opacity:0.37404579"
         offset="0" />
      <stop
         id="stop3901"
         style="stop-color:#294172;stop-opacity:1"
         offset="1" />
    </radialGradient>
    <linearGradient
       x1="45.447727"
       y1="92.539597"
       x2="45.447727"
       y2="7.0165396"
       id="ButtonShadow"
       gradientUnits="userSpaceOnUse"
       gradientTransform="scale(1.0058652,0.994169)">
      <stop
         id="stop3750"
         style="stop-color:#000000;stop-opacity:1"
         offset="0" />
      <stop
         id="stop3752"
         style="stop-color:#000000;stop-opacity:0.58823532"
         offset="1" />
    </linearGradient>
    <linearGradient
       id="linearGradient3737">
      <stop
         id="stop3739"
         style="stop-color:#ffffff;stop-opacity:1"
         offset="0" />
      <stop
         id="stop3741"
         style="stop-color:#ffffff;stop-opacity:0"
         offset="1" />
    </linearGradient>
    <filter
       color-interpolation-filters="sRGB"
       id="filter3174">
      <feGaussianBlur
         id="feGaussianBlur3176"
         stdDeviation="1.71" />
    </filter>
    <linearGradient
       x1="36.357143"
       y1="6"
       x2="36.357143"
       y2="63.893143"
       id="linearGradient3188"
       xlink:href="#linearGradient3737"
       gradientUnits="userSpaceOnUse" />
    <radialGradient
       cx="48"
       cy="90.171875"
       r="42"
       fx="48"
       fy="90.171875"
       id="radialGradient3619"
       xlink:href="#linearGradient3737"
       gradientUnits="userSpaceOnUse"
       gradientTransform="matrix(1.1573129,0,0,0.99590774,-7.5510206,0.19713193)" />
    <linearGradient
       x1="45.447727"
       y1="92.539597"
       x2="45.447727"
       y2="7.0165396"
       id="ButtonShadow-0"
       gradientUnits="userSpaceOnUse"
       gradientTransform="matrix(1.0058652,0,0,0.994169,100,0)">
      <stop
         id="stop3750-8"
         style="stop-color:#000000;stop-opacity:1"
         offset="0" />
      <stop
         id="stop3752-5"
         style="stop-color:#000000;stop-opacity:0.58823532"
         offset="1" />
    </linearGradient>
    <linearGradient
       x1="32.251034"
       y1="6.1317081"
       x2="32.251034"
       y2="90.238609"
       id="linearGradient3780"
       xlink:href="#ButtonShadow-0"
       gradientUnits="userSpaceOnUse"
       gradientTransform="matrix(1.0238095,0,0,1.0119048,-1.1428571,-98.071429)" />
    <linearGradient
       x1="32.251034"
       y1="6.1317081"
       x2="32.251034"
       y2="90.238609"
       id="linearGradient3772"
       xlink:href="#ButtonShadow-0"
       gradientUnits="userSpaceOnUse"
       gradientTransform="matrix(1.0238095,0,0,1.0119048,-1.1428571,-98.071429)" />
    <linearGradient
       x1="32.251034"
       y1="6.1317081"
       x2="32.251034"
       y2="90.238609"
       id="linearGradient3725"
       xlink:href="#ButtonShadow-0"
       gradientUnits="userSpaceOnUse"
       gradientTransform="matrix(1.0238095,0,0,1.0119048,-1.1428571,-98.071429)" />
    <linearGradient
       x1="32.251034"
       y1="6.1317081"
       x2="32.251034"
       y2="90.238609"
       id="linearGradient3721"
       xlink:href="#ButtonShadow-0"
       gradientUnits="userSpaceOnUse"
       gradientTransform="translate(0,-97)" />
    <linearGradient
       x1="32.251034"
       y1="6.1317081"
       x2="32.251034"
       y2="90.238609"
       id="linearGradient3026"
       xlink:href="#ButtonShadow-0"
       gradientUnits="userSpaceOnUse"
       gradientTransform="matrix(1.0238095,0,0,1.0119048,-1.1428571,-98.071429)" />
    <radialGradient
       cx="115.8989"
       cy="133.10451"
       r="154.62019"
       fx="115.8989"
       fy="133.10451"
       id="radialGradient2877"
       xlink:href="#radialGradient3897"
       gradientUnits="userSpaceOnUse"
       gradientTransform="matrix(0.25364919,0,0,0.25365619,16,16.000007)" />
    <linearGradient
       x1="64"
       y1="88"
       x2="64"
       y2="8"
       id="linearGradient3931"
       xlink:href="#linearGradient3925"
       gradientUnits="userSpaceOnUse" />
    <radialGradient
       cx="115.8989"
       cy="133.10451"
       r="154.62019"
       fx="115.8989"
       fy="133.10451"
       id="radialGradient2877-6"
       xlink:href="#radialGradient3897-3"
       gradientUnits="userSpaceOnUse"
       gradientTransform="matrix(0.25364919,0,0,0.25365619,16,16.000007)" />
    <radialGradient
       cx="115.8989"
       cy="133.10451"
       r="154.62019"
       fx="115.8989"
       fy="133.10451"
       id="radialGradient3897-3"
       gradientUnits="userSpaceOnUse">
      <stop
         id="stop3899-4"
         style="stop-color:#294172;stop-opacity:0.37404579"
         offset="0" />
      <stop
         id="stop3901-7"
         style="stop-color:#294172;stop-opacity:1"
         offset="1" />
    </radialGradient>
    <linearGradient
       id="linearGradient3925-3">
      <stop
         id="stop3927-9"
         style="stop-color:#3c6eb4;stop-opacity:1"
         offset="0" />
      <stop
         id="stop3929-8"
         style="stop-color:#81a4d5;stop-opacity:1"
         offset="1" />
    </linearGradient>
    <linearGradient
       x1="64"
       y1="88"
       x2="64"
       y2="8"
       id="linearGradient3983"
       xlink:href="#linearGradient3925-3"
       gradientUnits="userSpaceOnUse" />
  </defs>
  <metadata
     id="metadata2413">
    <rdf:RDF>
      <cc:Work
         rdf:about="">
        <dc:format>image/svg+xml</dc:format>
        <dc:type
           rdf:resource="http://purl.org/dc/dcmitype/StillImage" />
        <dc:title></dc:title>
      </cc:Work>
    </rdf:RDF>
  </metadata>
  <g
     id="layer2"
     style="display:none">
    <rect
       width="86"
       height="85"
       rx="6"
       ry="6"
       x="5"
       y="7"
       id="rect3745"
       style="opacity:0.9;fill:url(#ButtonShadow);fill-opacity:1;fill-rule:nonzero;stroke:none;filter:url(#filter3174)" />
  </g>
  <rect
     style="color:#000000;fill:#294172;fill-opacity:1;fill-rule:nonzero;stroke:none;stroke-width:1.5;marker:none;visibility:visible;display:inline;overflow:visible;enable-background:accumulate"
     id="rect3959"
     y="0"
     x="0"
     height="96"
     width="96" />
  <path
     style="fill:#ffffff;display:inline"
     id="blue-inifity-connectors"
     inkscape:connector-curvature="0"
     d="m 43.927146,46.895349 0,-8.121532 c 0,-0.0036 0,-0.0076 0,-0.01063 0,-8.474485 6.86942,-15.344359 15.34419,-15.344359 1.28557,0 2.19903,0.144861 3.38898,0.456349 1.73543,0.455056 3.15264,1.876713 3.15342,3.531598 7.7e-4,2.000581 -1.45142,3.454892 -3.62168,3.454892 -1.03395,0 -1.40762,-0.197986 -2.92149,-0.197986 -4.46802,0 -8.09099,3.61867 -8.09851,8.086549 l 0,7.001259 0,2.6e-4 c 0,0.632308 0.51102,1.143336 1.14279,1.143336 7.7e-4,0 0.003,0 0.004,0 l 5.31798,0 c 1.98187,0 3.58229,1.586732 3.58385,3.573838 0,1.987885 -1.60276,3.570988 -3.58385,3.570988 l -6.46491,0 0,8.154963 c 0,0.0046 0,0.0076 0,0.01218 0,8.473703 -6.86969,15.343321 -15.34316,15.343321 -1.28583,0 -2.19929,-0.144864 -3.38924,-0.456609 -1.73543,-0.454797 -3.15316,-1.877233 -3.15394,-3.531601 0,-2.000061 1.45116,-3.454889 3.62246,-3.454889 1.03291,0 1.40763,0.198242 2.92072,0.198242 4.46801,0 8.09202,-3.618925 8.09902,-8.08525 0,0 0,-7.036761 0,-7.038056 0,-0.631013 -0.51231,-1.142042 -1.14408,-1.142042 -7.8e-4,0 -10e-4,0 -0.003,0 l -5.31772,0 c -1.98239,0 -3.58411,-1.581548 -3.58411,-3.569951 -5.2e-4,-1.999545 1.6183,-3.574615 3.62168,-3.574615 l 6.4263,0 0,-2.59e-4 z" />
  <path
     style="fill:none;stroke:#ffffff;stroke-opacity:1;display:inline"
     id="f-script-path"
     inkscape:connector-curvature="0"
     d="m 59.271336,23.41909 c -8.47477,0 -15.34419,6.869874 -15.34419,15.34436 0,0.0029 0,0.0067 0,0.01062 l 0,8.121275 -8.09617,0 c -10e-4,0 -10e-4,0 -0.002,0 -8.47452,0 -15.34394,6.836444 -15.34394,15.310411 0,8.475266 6.86968,15.344878 15.34394,15.344878 8.47347,0 15.34315,-6.869612 15.34315,-15.344878 0,-0.0032 0,-0.0059 0,-0.01062 l 0,-8.154962 8.09592,0 c 0.002,0 0.003,0 0.003,0 8.47347,0 15.343156,-6.802757 15.343156,-15.276723 0,-8.474486 -6.869686,-15.344361 -15.343156,-15.344361 z m -15.34419,38.801183 c -0.006,4.465288 -3.63049,8.085251 -8.09825,8.085251 -4.47242,0 -8.13167,-3.625923 -8.13167,-8.098467 0,-4.4741 3.65925,-8.167142 8.13167,-8.167142 0.004,0 0.007,0 0.0106,0 l 6.9394,0 c 0.002,0 0.004,0 0.005,0 0.63177,0 1.14408,0.511288 1.14408,1.142041 0,0.0012 -7.8e-4,0.0012 -7.8e-4,0.0029 l 0,7.035466 -2.6e-4,0 z m 15.34342,-15.324924 c -0.003,0 -0.005,0 -0.008,0 l -6.94406,0 c -10e-4,0 -0.003,0 -0.004,0 -0.63177,0 -1.14279,-0.51103 -1.14279,-1.143338 l 0,-2.59e-4 0,-7.001518 c 0.008,-4.46788 3.63049,-8.086549 8.09851,-8.086549 4.47242,0 8.13245,3.626184 8.13245,8.099506 0,4.472803 -3.66003,8.132158 -8.13245,8.132158 z" />
  <path
     style="fill:none;stroke:#ffffff;stroke-width:1.02503264;stroke-opacity:1;display:inline"
     id="speech-bubble"
     inkscape:connector-curvature="0"
     d="m 49.220335,15.605737 c -18.107088,0 -32.788558,14.678162 -32.801043,32.78367 l 0,20.865494 0,4.517093 0,2.345413 c 0,2.819756 2.270663,5.090417 5.090415,5.090417 l 2.362792,0 16.43526,0 8.929951,0 c 18.108902,-0.0076 32.783668,-14.689815 32.783668,-32.801043 0,-18.116689 -14.685631,-32.801044 -32.801043,-32.801044 z" />
</svg>
