/* XPM */
static char * desktop_xpm[] = {
"24 24 94 2",
"  	c #009FEB",
". 	c #02A0EB",
"+ 	c #0EA4EC",
"@ 	c #10A5EC",
"# 	c #0AA3EC",
"$ 	c #009EEB",
"% 	c #2DB0EF",
"& 	c #70C9F4",
"* 	c #5AC1F2",
"= 	c #5BC1F2",
"- 	c #5CC2F2",
"; 	c #5EC2F2",
"> 	c #6CC8F3",
", 	c #3CB5F0",
"' 	c #40B7F0",
") 	c #0CA3EC",
"! 	c #11A6EC",
"~ 	c #05A1EB",
"{ 	c #04A0EB",
"] 	c #03A0EB",
"^ 	c #06A1EB",
"/ 	c #5DC2F2",
"( 	c #15A7ED",
"_ 	c #3BB5F0",
": 	c #3EB6F0",
"< 	c #80CFF5",
"[ 	c #9EDAF7",
"} 	c #08A2EC",
"| 	c #0DA4EC",
"1 	c #22ACEE",
"2 	c #029FEB",
"3 	c #3DB6F0",
"4 	c #8BD3F6",
"5 	c #07A2EC",
"6 	c #9AD9F7",
"7 	c #E4F5FD",
"8 	c #6DC8F4",
"9 	c #019FEB",
"0 	c #81D0F5",
"a 	c #9FDBF7",
"b 	c #19A8ED",
"c 	c #D8F0FC",
"d 	c #FFFFFF",
"e 	c #AADFF8",
"f 	c #6AC7F3",
"g 	c #B1E2F9",
"h 	c #45B9F0",
"i 	c #82D0F5",
"j 	c #A0DBF8",
"k 	c #65C5F3",
"l 	c #7DCEF5",
"m 	c #3DB5F0",
"n 	c #009DEB",
"o 	c #029EEB",
"p 	c #3AB5F0",
"q 	c #66C5F3",
"r 	c #39B4EF",
"s 	c #46B9F0",
"t 	c #72CAF4",
"u 	c #13A6EC",
"v 	c #11A5EC",
"w 	c #3CB6F0",
"x 	c #39B5F0",
"y 	c #63C4F3",
"z 	c #EDF8FE",
"A 	c #FAFDFF",
"B 	c #F9FDFF",
"C 	c #F0F9FE",
"D 	c #69C6F3",
"E 	c #39B5EF",
"F 	c #3FB7F0",
"G 	c #34B3EF",
"H 	c #04A1EB",
"I 	c #0AA2EC",
"J 	c #2BAFEE",
"K 	c #54BFF2",
"L 	c #DEF2FC",
"M 	c #EBF7FD",
"N 	c #EAF7FD",
"O 	c #E1F4FD",
"P 	c #2EB1EF",
"Q 	c #25ADEE",
"R 	c #019EEB",
"S 	c #26ADEE",
"T 	c #71CAF4",
"U 	c #58C0F2",
"V 	c #59C1F2",
"W 	c #5FC3F2",
"X 	c #6BC7F3",
"Y 	c #07A1EC",
"Z 	c #2EB0EF",
"` 	c #2FB1EF",
" .	c #30B1EF",
"..	c #01A0EB",
"                                                ",
"                                                ",
"                                                ",
"                                                ",
"      . + @ @ @ @ @ @ @ @ @ @ @ @ @ @ @ #       ",
"    $ % & * = - - - - - - - - - - - - ; > +     ",
"    $ , ' ) ! ~ { { { { { { { { ] . ] ^ / (     ",
"    $ _ : < [ }                 | 1 ^ 2 = (     ",
"    $ _ 3 & 4 5               # 6 7 8 9 = (     ",
"    $ _ : 0 a }             $ b c d e ~ = (     ",
"    $ _ 3 & 4 5               ] f g h   = (     ",
"    $ _ : i j }                 9 ~   . = (     ",
"    $ _ 3 k l ^                       . = (     ",
"    $ _ m n $ $ $ $ n n n n n $ $ $ $ o = (     ",
"    $ p q r _ _ _ 3 h s s s h : _ _ _ 3 t u     ",
"      v : : w w x y z A B A C D E w w F G H     ",
"        n I % % J K L M N N O * J P Q R $       ",
"        $ S T U V * W W W W W * V / X Y         ",
"          # Z ` ` P Z Z Z Z Z P `  .S ..        ",
"            $ $ $ $ $ $ $ $ $ $ $ $ $           ",
"                                                ",
"                                                ",
"                                                ",
"                                                "};
