/* XPM */
static char * desktop_xpm[] = {
"32 32 112 2",
"  	c #009FEB",
". 	c #009EEB",
"+ 	c #03A0EB",
"@ 	c #25ADEE",
"# 	c #30B1EF",
"$ 	c #21ABEE",
"% 	c #01A0EB",
"& 	c #18A8ED",
"* 	c #93D6F7",
"= 	c #6AC7F3",
"- 	c #67C6F3",
"; 	c #6FC9F4",
"> 	c #8BD3F6",
", 	c #0EA4EC",
"' 	c #1DAAED",
") 	c #79CCF5",
"! 	c #029FEB",
"~ 	c #0CA3EC",
"{ 	c #7ACDF4",
"] 	c #12A6EC",
"^ 	c #78CCF5",
"/ 	c #0AA3EC",
"( 	c #65C5F3",
"_ 	c #76CBF4",
": 	c #14A7ED",
"< 	c #13A6EC",
"[ 	c #C9EBFB",
"} 	c #EAF7FD",
"| 	c #29AEEE",
"1 	c #09A2EC",
"2 	c #4FBDF1",
"3 	c #62C4F3",
"4 	c #1BA9ED",
"5 	c #0CA4EC",
"6 	c #77CCF4",
"7 	c #66C5F3",
"8 	c #F5FBFE",
"9 	c #FFFFFF",
"0 	c #A4DDF8",
"a 	c #0BA3EC",
"b 	c #0FA5EC",
"c 	c #9AD9F7",
"d 	c #B3E2F9",
"e 	c #1FABED",
"f 	c #A0DBF8",
"g 	c #DBF2FC",
"h 	c #1AA9ED",
"i 	c #C0E7FA",
"j 	c #E0F3FD",
"k 	c #27AEEE",
"l 	c #5FC3F3",
"m 	c #F1FAFE",
"n 	c #FDFEFF",
"o 	c #9CDAF7",
"p 	c #07A2EC",
"q 	c #64C5F3",
"r 	c #75CBF4",
"s 	c #07A1EC",
"t 	c #44B8F0",
"u 	c #55BFF2",
"v 	c #15A7ED",
"w 	c #BDE6FA",
"x 	c #DCF2FC",
"y 	c #26ADEE",
"z 	c #009DEB",
"A 	c #A0DBF7",
"B 	c #BBE5FA",
"C 	c #20ABEE",
"D 	c #11A5EC",
"E 	c #029EEB",
"F 	c #0CA2EC",
"G 	c #79CDF4",
"H 	c #94D7F7",
"I 	c #50BDF1",
"J 	c #4EBCF1",
"K 	c #53BEF1",
"L 	c #4DBCF1",
"M 	c #57C0F2",
"N 	c #8FD5F6",
"O 	c #10A5EC",
"P 	c #47BAF1",
"Q 	c #54BFF2",
"R 	c #53BEF2",
"S 	c #5EC3F2",
"T 	c #D7F0FC",
"U 	c #F7FCFE",
"V 	c #84D1F5",
"W 	c #51BEF1",
"X 	c #40B7F0",
"Y 	c #04A0EB",
"Z 	c #C6EAFB",
"` 	c #49BAF1",
" .	c #5FC3F2",
"..	c #A8DEF8",
"+.	c #BFE7FA",
"@.	c #BEE6FA",
"#.	c #BAE5FA",
"$.	c #7ACDF5",
"%.	c #60C3F3",
"&.	c #69C7F3",
"*.	c #11A6EC",
"=.	c #7CCEF5",
"-.	c #4CBCF1",
";.	c #4ABBF1",
">.	c #49BBF1",
",.	c #4EBDF1",
"'.	c #83D0F5",
").	c #3FB7F0",
"!.	c #41B8F0",
"~.	c #42B8F0",
"{.	c #3CB6F0",
"].	c #08A2EC",
"                                                                ",
"                                                                ",
"                                                                ",
"                                                                ",
"                                                                ",
"          . . . . . . . . . . . . . . . . . . . . . . .         ",
"        + @ # # # # # # # # # # # # # # # # # # # # # $ %       ",
"      . & * = - - - - - - - - - - - - - - - - - - - ; > ,       ",
"      . ' ) ! . . .                               . ~ { ]       ",
"      . ' ^ / ( _ :                         . . .   ~ { ]       ",
"      . ' ^ < [ } | .                     1 2 3 4 . 5 { ]       ",
"      . ' ^ ~ 6 > & .                   . 7 8 9 0 1 a { ]       ",
"      . ' ^ b c d e .                     f 9 9 g h / { ]       ",
"      . ' ^ ] i j k .                   . l m n o p a { ]       ",
"      . ' ^ / q r :                       s t u v . 5 { ]       ",
"      . ' ^ ] w x y .                       . z     ~ { ]       ",
"      . ' ^ b A B C .                               ~ { ]       ",
"      . ' ) + , D +                                 ~ { ]       ",
"      . ' ) E z z z z z z z z z z z z z z z z z z z F G ]       ",
"      . 4 H I J J J J J J K u u u u u u I J J J J L M N O       ",
"        p P u Q Q Q Q R S T 9 n n n n U V W Q Q Q Q u X Y       ",
"          . z z .     . O Z 9 9 9 9 9 U ` z     . z z .         ",
"            . ' =  .l  .( ..+.w w w @.#.$.S l %.&.*.            ",
"            . # =.-.J J J ;.>.>.>.>.>.;.L J J ,.'.' .           ",
"              , ).!.!.!.!.!.!.!.!.!.!.!.!.!.!.~.{.].            ",
"                . . . . . . . . . . . . . . . . .               ",
"                                                                ",
"                                                                ",
"                                                                ",
"                                                                ",
"                                                                ",
"                                                                "};
