/* XPM */
static char * desktop_xpm[] = {
"16 16 75 1",
" 	c #009FEB",
".	c #019FEB",
"+	c #05A0EB",
"@	c #03A0EB",
"#	c #2DB0EF",
"$	c #3EB6F0",
"%	c #39B4F0",
"&	c #3BB5F0",
"*	c #3AB5F0",
"=	c #3CB5F0",
"-	c #40B7F0",
";	c #0CA4EC",
">	c #029FEB",
",	c #3DB6F0",
"'	c #35B3EF",
")	c #0DA4EC",
"!	c #11A5EC",
"~	c #0EA4EC",
"{	c #17A8ED",
"]	c #67C6F3",
"^	c #65C5F3",
"/	c #009EEB",
"(	c #29AEEE",
"_	c #92D6F6",
":	c #34B3EF",
"<	c #16A8ED",
"[	c #69C7F3",
"}	c #46B9F1",
"|	c #DDF2FC",
"1	c #63C4F3",
"2	c #16A7ED",
"3	c #68C6F3",
"4	c #66C5F3",
"5	c #0BA3EC",
"6	c #31B1EF",
"7	c #36B3EF",
"8	c #3AB4F0",
"9	c #42B7F0",
"0	c #39B4EF",
"a	c #009DEB",
"b	c #41B7F0",
"c	c #35B2EF",
"d	c #27ADEE",
"e	c #28ADEE",
"f	c #3DB5F0",
"g	c #2DAFEE",
"h	c #4BBBF1",
"i	c #15A7EC",
"j	c #18A8ED",
"k	c #2EB0EF",
"l	c #34B2EF",
"m	c #84D1F5",
"n	c #E7F6FD",
"o	c #EAF7FD",
"p	c #D9F1FC",
"q	c #5CC1F2",
"r	c #32B1EF",
"s	c #26ADEE",
"t	c #06A1EB",
"u	c #17A7ED",
"v	c #4EBDF1",
"w	c #4ABBF1",
"x	c #8BD4F6",
"y	c #8CD4F6",
"z	c #87D2F6",
"A	c #58C0F2",
"B	c #019EEB",
"C	c #09A2EC",
"D	c #22ACEE",
"E	c #21ABEE",
"F	c #1FAAED",
"G	c #1FABED",
"H	c #22ABEE",
"I	c #24ACEE",
"J	c #FFFFFF",
"                ",
"                ",
"  .++++++++++@  ",
"  #$%&&&&&&*=-; ",
" >,-'))))))!~${ ",
" >%]^.   /(_=:< ",
" >%[].   /}|1:2 ",
" >%34.    56!7< ",
" >890//////a/7< ",
" >bcde6ff&ge(hi ",
"  jk'lmnopq:rst ",
"  /uvw]xyzAv'B  ",
"   CDDEFFGHI2   ",
"    ////////    ",
"                ",
"                "};
