<?xml version="1.0" encoding="UTF-8" standalone="no"?>
<!-- Created with Inkscape (http://www.inkscape.org/) -->

<svg
   xmlns:dc="http://purl.org/dc/elements/1.1/"
   xmlns:cc="http://creativecommons.org/ns#"
   xmlns:rdf="http://www.w3.org/1999/02/22-rdf-syntax-ns#"
   xmlns:svg="http://www.w3.org/2000/svg"
   xmlns="http://www.w3.org/2000/svg"
   xmlns:xlink="http://www.w3.org/1999/xlink"
   xmlns:sodipodi="http://sodipodi.sourceforge.net/DTD/sodipodi-0.dtd"
   xmlns:inkscape="http://www.inkscape.org/namespaces/inkscape"
   width="96"
   height="96"
   id="svg2"
   version="1.1"
   inkscape:version="0.48.4 r9939"
   sodipodi:docname="Nuevo documento 1">
  <defs
     id="defs4">
    <linearGradient
       gradientTransform="matrix(0.8665485,0.18119434,-0.27628685,0.56829955,37.568198,28.213422)"
       gradientUnits="userSpaceOnUse"
       xlink:href="#linearGradient11508"
       id="linearGradient3010"
       y2="16.211916"
       x2="77.923637"
       y1="82.473648"
       x1="43.700191" />
    <linearGradient
       id="linearGradient10410">
      <stop
         offset="0"
         style="stop-color:#ffffff;stop-opacity:1"
         id="stop10412" />
      <stop
         offset="1"
         style="stop-color:#ffffff;stop-opacity:0"
         id="stop10414" />
    </linearGradient>
    <radialGradient
       gradientTransform="matrix(1,0,0,0.125,0,36.491262)"
       gradientUnits="userSpaceOnUse"
       xlink:href="#linearGradient10410"
       id="radialGradient10416"
       fy="41.7043"
       fx="59.85154"
       r="18.182745"
       cy="41.7043"
       cx="59.85154" />
    <linearGradient
       id="linearGradient10386">
      <stop
         offset="0"
         style="stop-color:#ffffff;stop-opacity:1"
         id="stop10388" />
      <stop
         offset="1"
         style="stop-color:#ffffff;stop-opacity:0"
         id="stop10390" />
    </linearGradient>
    <linearGradient
       gradientTransform="matrix(0.81423351,0,0,0.81423351,16.895076,15.45345)"
       gradientUnits="userSpaceOnUse"
       xlink:href="#linearGradient10386"
       id="linearGradient10392"
       y2="57.993305"
       x2="47.450871"
       y1="68.171875"
       x1="58.651787" />
    <linearGradient
       id="linearGradient6531">
      <stop
         offset="0"
         style="stop-color:#c38125;stop-opacity:1"
         id="stop6533" />
      <stop
         offset="0.62962961"
         style="stop-color:#c68d31;stop-opacity:1"
         id="stop10377" />
      <stop
         offset="1"
         style="stop-color:#fffce6;stop-opacity:1"
         id="stop6535" />
    </linearGradient>
    <linearGradient
       gradientTransform="matrix(0.59071981,-0.15821626,0.15862362,0.59174222,38.27202,30.327666)"
       gradientUnits="userSpaceOnUse"
       xlink:href="#linearGradient6531"
       id="linearGradient8183"
       y2="67.6745"
       x2="13.405647"
       y1="77.502068"
       x1="24.248737" />
    <linearGradient
       id="linearGradient10394">
      <stop
         offset="0"
         style="stop-color:#1a1a1a;stop-opacity:1"
         id="stop10396" />
      <stop
         offset="0.35185185"
         style="stop-color:#636363;stop-opacity:1"
         id="stop10404" />
      <stop
         offset="0.5"
         style="stop-color:#c7c7c7;stop-opacity:1"
         id="stop10402" />
      <stop
         offset="0.64999998"
         style="stop-color:#636363;stop-opacity:1"
         id="stop10406" />
      <stop
         offset="1"
         style="stop-color:#000000;stop-opacity:1"
         id="stop10398" />
    </linearGradient>
    <linearGradient
       gradientTransform="matrix(0.81423351,0,0,0.81423351,16.895076,15.45345)"
       gradientUnits="userSpaceOnUse"
       xlink:href="#linearGradient10394"
       id="linearGradient10400"
       y2="39.53442"
       x2="68.2229"
       y1="35.60585"
       x1="60.899021" />
    <linearGradient
       gradientTransform="matrix(0.84442773,0.12130865,-0.12943075,0.79143776,26.341674,12.197185)"
       gradientUnits="userSpaceOnUse"
       xlink:href="#linearGradient11508"
       id="linearGradient10454"
       y2="6.208179"
       x2="87.732079"
       y1="82.473648"
       x1="43.700191" />
    <linearGradient
       id="linearGradient11508">
      <stop
         offset="0"
         style="stop-color:#000000;stop-opacity:1"
         id="stop11510" />
      <stop
         offset="1"
         style="stop-color:#000000;stop-opacity:0"
         id="stop11512" />
    </linearGradient>
    <linearGradient
       gradientTransform="matrix(1.5026823,0,0,1.5189631,11.130641,11.16563)"
       gradientUnits="userSpaceOnUse"
       xlink:href="#linearGradient3719"
       id="linearGradient3715"
       y2="44.5"
       x2="35.09507"
       y1="4.7142863"
       x1="25.071428" />
    <linearGradient
       gradientTransform="translate(-45.02195,3.8774041)"
       gradientUnits="userSpaceOnUse"
       xlink:href="#linearGradient8568"
       id="linearGradient3712"
       y2="68.068893"
       x2="25"
       y1="-0.12132034"
       x1="24.898985" />
    <linearGradient
       id="linearGradient8568">
      <stop
         offset="0"
         style="stop-color:#ffffff;stop-opacity:1"
         id="stop8570" />
      <stop
         offset="1"
         style="stop-color:#ffffff;stop-opacity:0"
         id="stop8572" />
    </linearGradient>
    <linearGradient
       id="linearGradient7668">
      <stop
         offset="0"
         style="stop-color:#94b6db;stop-opacity:1"
         id="stop7670" />
      <stop
         offset="1"
         style="stop-color:#3465a4;stop-opacity:1"
         id="stop7672" />
    </linearGradient>
    <linearGradient
       id="linearGradient10950">
      <stop
         offset="0"
         style="stop-color:#000000;stop-opacity:1"
         id="stop10952" />
      <stop
         offset="1"
         style="stop-color:#000000;stop-opacity:0"
         id="stop10954" />
    </linearGradient>
    <radialGradient
       gradientTransform="matrix(0.941776,0,0,0.274284,0.317611,14.4024)"
       gradientUnits="userSpaceOnUse"
       xlink:href="#linearGradient10950"
       id="radialGradient10960"
       fy="20.123863"
       fx="5.4549971"
       r="4.3310289"
       cy="20.123863"
       cx="5.4549971" />
    <linearGradient
       gradientTransform="matrix(1.0238095,0,0,1.0119048,-1.1428571,-98.071429)"
       gradientUnits="userSpaceOnUse"
       xlink:href="#ButtonShadow-0"
       id="linearGradient3026"
       y2="90.238609"
       x2="32.251034"
       y1="6.1317081"
       x1="32.251034" />
    <linearGradient
       gradientTransform="translate(0,-97)"
       gradientUnits="userSpaceOnUse"
       xlink:href="#ButtonShadow-0"
       id="linearGradient3721"
       y2="90.238609"
       x2="32.251034"
       y1="6.1317081"
       x1="32.251034" />
    <linearGradient
       gradientTransform="matrix(1.0238095,0,0,1.0119048,-1.1428571,-98.071429)"
       gradientUnits="userSpaceOnUse"
       xlink:href="#ButtonShadow-0"
       id="linearGradient3725"
       y2="90.238609"
       x2="32.251034"
       y1="6.1317081"
       x1="32.251034" />
    <linearGradient
       gradientTransform="matrix(1.0238095,0,0,1.0119048,-1.1428571,-98.071429)"
       gradientUnits="userSpaceOnUse"
       xlink:href="#ButtonShadow-0"
       id="linearGradient3772"
       y2="90.238609"
       x2="32.251034"
       y1="6.1317081"
       x1="32.251034" />
    <linearGradient
       gradientTransform="matrix(1.0238095,0,0,1.0119048,-1.1428571,-98.071429)"
       gradientUnits="userSpaceOnUse"
       xlink:href="#ButtonShadow-0"
       id="linearGradient3780"
       y2="90.238609"
       x2="32.251034"
       y1="6.1317081"
       x1="32.251034" />
    <linearGradient
       gradientTransform="matrix(1.0058652,0,0,0.994169,100,0)"
       gradientUnits="userSpaceOnUse"
       id="ButtonShadow-0"
       y2="7.0165396"
       x2="45.447727"
       y1="92.539597"
       x1="45.447727">
      <stop
         offset="0"
         style="stop-color:#000000;stop-opacity:1"
         id="stop3750-8" />
      <stop
         offset="1"
         style="stop-color:#000000;stop-opacity:0.58823532"
         id="stop3752-5" />
    </linearGradient>
    <linearGradient
       gradientTransform="translate(0,-96)"
       gradientUnits="userSpaceOnUse"
       xlink:href="#linearGradient7668"
       id="linearGradient3617"
       y2="5.9877172"
       x2="48"
       y1="90"
       x1="48" />
    <clipPath
       id="clipPath3613">
      <rect
         style="fill:#ffffff;fill-opacity:1;fill-rule:nonzero;stroke:none"
         id="rect3615"
         y="6"
         x="6"
         ry="6"
         rx="6"
         height="84"
         width="84" />
    </clipPath>
    <radialGradient
       gradientTransform="matrix(1.1573129,0,0,0.99590774,-7.5510206,0.19713193)"
       gradientUnits="userSpaceOnUse"
       xlink:href="#linearGradient3737"
       id="radialGradient3619"
       fy="90.171875"
       fx="48"
       r="42"
       cy="90.171875"
       cx="48" />
    <linearGradient
       gradientUnits="userSpaceOnUse"
       xlink:href="#linearGradient3737"
       id="linearGradient3613"
       y2="138.66119"
       x2="48"
       y1="20.220806"
       x1="48" />
    <filter
       id="filter3794"
       color-interpolation-filters="sRGB"
       height="1.3839999"
       width="1.3839999"
       y="-0.192"
       x="-0.192">
      <feGaussianBlur
         stdDeviation="5.28"
         id="feGaussianBlur3796" />
    </filter>
    <linearGradient
       gradientUnits="userSpaceOnUse"
       xlink:href="#linearGradient3737"
       id="linearGradient3188"
       y2="63.893143"
       x2="36.357143"
       y1="6"
       x1="36.357143" />
    <filter
       id="filter3174"
       color-interpolation-filters="sRGB">
      <feGaussianBlur
         stdDeviation="1.71"
         id="feGaussianBlur3176" />
    </filter>
    <linearGradient
       id="linearGradient3737">
      <stop
         offset="0"
         style="stop-color:#ffffff;stop-opacity:1"
         id="stop3739" />
      <stop
         offset="1"
         style="stop-color:#ffffff;stop-opacity:0"
         id="stop3741" />
    </linearGradient>
    <linearGradient
       gradientTransform="scale(1.0058652,0.994169)"
       gradientUnits="userSpaceOnUse"
       id="ButtonShadow"
       y2="7.0165396"
       x2="45.447727"
       y1="92.539597"
       x1="45.447727">
      <stop
         offset="0"
         style="stop-color:#000000;stop-opacity:1"
         id="stop3750" />
      <stop
         offset="1"
         style="stop-color:#000000;stop-opacity:0.58823532"
         id="stop3752" />
    </linearGradient>
    <linearGradient
       id="linearGradient3719">
      <stop
         offset="0"
         style="stop-color:#eaedf1;stop-opacity:1"
         id="stop3721" />
      <stop
         offset="1"
         style="stop-color:#c1ccdb;stop-opacity:1"
         id="stop3723" />
    </linearGradient>
    <linearGradient
       inkscape:collect="always"
       xlink:href="#linearGradient3737"
       id="linearGradient3216"
       gradientUnits="userSpaceOnUse"
       x1="48"
       y1="20.220806"
       x2="48"
       y2="138.66119" />
    <linearGradient
       inkscape:collect="always"
       xlink:href="#linearGradient11508"
       id="linearGradient3248"
       gradientUnits="userSpaceOnUse"
       gradientTransform="matrix(0.84442773,0.12130865,-0.12943075,0.79143776,327.94893,491.55357)"
       x1="43.700191"
       y1="82.473648"
       x2="87.732079"
       y2="6.208179" />
    <linearGradient
       inkscape:collect="always"
       xlink:href="#linearGradient11508"
       id="linearGradient3251"
       gradientUnits="userSpaceOnUse"
       gradientTransform="matrix(0.8665485,0.18119434,-0.27628685,0.56829955,338.67038,547.97591)"
       x1="43.700191"
       y1="82.473648"
       x2="77.923637"
       y2="16.211916" />
  </defs>
  <sodipodi:namedview
     id="base"
     pagecolor="#ffffff"
     bordercolor="#666666"
     borderopacity="1.0"
     inkscape:pageopacity="0.0"
     inkscape:pageshadow="2"
     inkscape:zoom="1.979899"
     inkscape:cx="80.302669"
     inkscape:cy="27.081055"
     inkscape:document-units="px"
     inkscape:current-layer="layer1"
     showgrid="false"
     fit-margin-top="0"
     fit-margin-left="0"
     fit-margin-right="0"
     fit-margin-bottom="0"
     inkscape:window-width="1280"
     inkscape:window-height="776"
     inkscape:window-x="0"
     inkscape:window-y="24"
     inkscape:window-maximized="1" />
  <metadata
     id="metadata7">
    <rdf:RDF>
      <cc:Work
         rdf:about="">
        <dc:format>image/svg+xml</dc:format>
        <dc:type
           rdf:resource="http://purl.org/dc/dcmitype/StillImage" />
        <dc:title></dc:title>
      </cc:Work>
    </rdf:RDF>
  </metadata>
  <g
     inkscape:label="Capa 1"
     inkscape:groupmode="layer"
     id="layer1"
     transform="translate(-187.3833,-463.44324)">
    <g
       id="layer2"
       style="display:none"
       transform="translate(301.60726,479.35639)">
      <rect
         width="86"
         height="85"
         rx="6"
         ry="6"
         x="5"
         y="7"
         id="rect3745"
         style="opacity:0.9;fill:url(#ButtonShadow);fill-opacity:1;fill-rule:nonzero;stroke:none;filter:url(#filter3174)" />
    </g>
    <path
       style="opacity:0.05;fill:#000000;fill-opacity:1;fill-rule:evenodd;stroke:none"
       id="path3766"
       d="m 350.01351,496.38764 c -1.88202,0.0424 -3.58286,0.99159 -5.25,2.3125 -1.67143,1.32431 -3.37601,3.12823 -5.09375,5.28125 -3.43611,4.30683 -6.94187,10.06236 -10.1875,16.25 -3.24591,6.18816 -6.20781,12.80984 -8.34375,18.84375 -2.13001,6.01716 -3.50407,11.37737 -3.5,15.4375 1e-5,0.009 -2e-5,0.0223 0,0.0313 -5e-5,0.0311 -9e-5,0.0905 0,0.0937 a 0.8642156,0.8642156 0 0 0 0,0.0313 c 0.14849,2.60168 1.8975,4.33247 3.75,5 1.76817,0.63714 3.56924,0.62134 4.8125,0.65625 a 0.8642156,0.8642156 0 0 0 0.0313,0 c 0.004,-4e-5 0.1206,2.9e-4 0.125,0 0.004,-2.9e-4 0.0894,-0.0307 0.0937,-0.0313 0.004,-5.5e-4 0.12066,8e-4 0.125,0 0.003,-6.1e-4 0.0636,-0.0247 0.0937,-0.0313 0.01,-0.002 0.0218,0.002 0.0313,0 8.89398,-1.85264 18.9103,-6.57359 26.90625,-10.96875 4.002,-2.1998 7.48293,-4.31144 10.03125,-5.96875 1.28172,-0.83357 2.30659,-1.57493 3.0625,-2.125 0.3607,-0.26248 0.70689,-0.4773 1,-0.71875 0.16563,-0.13644 0.3859,-0.37231 0.625,-0.6875 5.15901,9.25737 9.53125,17.625 9.53125,17.625 0.003,0.006 0.0903,0.11958 0.0937,0.125 0.003,0.005 0.0899,0.15114 0.0937,0.15625 0.004,0.005 0.0895,0.12023 0.0937,0.125 0.004,0.005 0.12033,0.0894 0.125,0.0937 0.005,0.004 0.11998,0.12101 0.125,0.125 0.005,0.004 0.11967,0.0902 0.125,0.0937 0.005,0.004 0.15064,0.0907 0.15625,0.0937 0.006,0.003 0.1504,0.0599 0.15625,0.0625 0.006,0.003 0.11895,0.0604 0.125,0.0625 0.006,0.002 0.15004,0.0609 0.15625,0.0625 0.006,0.002 0.18118,0.0302 0.1875,0.0313 0.006,0.001 0.14986,-5.3e-4 0.15625,0 0.006,5.3e-4 0.14984,0 0.15625,0 0.006,0 0.14986,5.4e-4 0.15625,0 0.006,-5.4e-4 0.18118,0.001 0.1875,0 0.006,-10e-4 0.15004,-0.0297 0.15625,-0.0313 0.006,-0.002 0.1502,-0.0604 0.15625,-0.0625 0.006,-0.002 0.1504,-0.0599 0.15625,-0.0625 0.006,-0.003 0.11939,-0.0594 0.125,-0.0625 0.006,-0.003 0.15092,-0.0902 0.15625,-0.0937 0.005,-0.004 0.11998,-0.0898 0.125,-0.0937 0.005,-0.004 0.12034,-0.12061 0.125,-0.125 0.005,-0.004 0.12072,-0.089 0.125,-0.0937 0.004,-0.005 0.0899,-0.11989 0.0937,-0.125 0.004,-0.005 0.0903,-0.15083 0.0937,-0.15625 0.003,-0.005 0.0908,-0.11931 0.0937,-0.125 0.003,-0.006 0.06,-0.15034 0.0625,-0.15625 0.002,-0.006 0.0605,-0.15015 0.0625,-0.15625 0.002,-0.006 0.0298,-0.15001 0.0313,-0.15625 10e-4,-0.006 0.0303,-0.14991 0.0313,-0.15625 9.2e-4,-0.006 0.0309,-0.14985 0.0313,-0.15625 3.8e-4,-0.006 1.6e-4,-0.18109 0,-0.1875 -0.24486,-11.23348 -5.32329,-25.9089 -11.53125,-38 -3.10439,-6.04635 -6.51442,-11.42766 -9.84375,-15.375 -3.31811,-3.93403 -6.57311,-6.769 -10.1875,-6.6875 z m 0.125,16.1875 c 0.0879,0.0489 0.17773,0.0987 0.3125,0.1875 0.35282,0.23236 0.85822,0.61195 1.375,1.15625 1.07762,1.13501 2.42422,2.91628 3.90625,5.03125 2.95985,4.22395 6.43608,9.91872 9.71875,15.625 0.43789,0.76118 0.72624,1.33587 1.15625,2.09375 -0.041,0.005 -0.0903,-5.2e-4 -0.0937,0 -0.006,8.6e-4 -0.15059,0.03 -0.15625,0.0313 -0.006,10e-4 -0.11946,0.0608 -0.125,0.0625 a 0.8642156,0.8642156 0 0 0 -0.0313,0 c 0,0 -8.65216,2.80346 -17.53125,5.1875 -4.43934,1.19196 -8.9421,2.29448 -12.34375,2.84375 -1.70293,0.27497 -3.12648,0.39623 -4.03125,0.375 -0.146,-0.003 -0.18746,-0.0161 -0.3125,-0.0313 0.0126,-0.25575 0.0191,-0.50259 0.0937,-0.84375 0.23349,-1.06762 0.72591,-2.56116 1.375,-4.28125 1.29591,-3.43415 3.26469,-7.80048 5.5,-12 2.23586,-4.20057 4.74639,-8.27593 6.96875,-11.21875 1.10799,-1.46718 2.15405,-2.6365 3,-3.375 0.41073,-0.35856 0.76784,-0.61163 1.03125,-0.75 0.17923,-0.0942 0.16921,-0.0818 0.1875,-0.0937 z"
       inkscape:connector-curvature="0" />
    <path
       style="opacity:0.1;fill:#000000;fill-opacity:1;fill-rule:evenodd;stroke:none"
       id="path3762"
       d="m 350.04476,497.26264 c -1.59764,0.036 -3.15389,0.86037 -4.75,2.125 -1.59611,1.26463 -3.24685,3.00593 -4.9375,5.125 -3.38131,4.23814 -6.89671,9.97042 -10.125,16.125 -3.22829,6.15458 -6.16259,12.73365 -8.28125,18.71875 -2.11866,5.9851 -3.4471,11.32431 -3.4375,15.1875 a 1.0931349,1.0931349 0 0 0 0,0.0625 c 0.12861,2.25336 1.57923,3.68174 3.15625,4.25 1.57702,0.56826 3.2928,0.5581 4.5625,0.59375 a 1.0931349,1.0931349 0 0 0 0.25,-0.0313 c 8.73998,-1.81509 18.75434,-6.49717 26.71875,-10.875 3.98221,-2.18891 7.43986,-4.29282 9.96875,-5.9375 1.26445,-0.82234 2.28114,-1.5479 3.03125,-2.09375 0.37505,-0.27293 0.69838,-0.49053 0.9375,-0.6875 0.23912,-0.19697 0.35119,-0.25138 0.59375,-0.625 a 1.0931349,1.0931349 0 0 0 -1.25,-1.625 c 0,0 -8.68583,2.82697 -17.59375,5.21875 -4.45396,1.19589 -8.97836,2.2852 -12.4375,2.84375 -1.72957,0.27928 -3.1775,0.42995 -4.1875,0.40625 -0.505,-0.0118 -0.91989,-0.0931 -1.125,-0.15625 -0.20511,-0.0632 -0.13855,-0.0803 -0.0625,0.0625 0.0683,0.12819 -0.0943,-0.69809 0.15625,-1.84375 0.25056,-1.14566 0.74951,-2.6659 1.40625,-4.40625 1.31347,-3.4807 3.31047,-7.8628 5.5625,-12.09375 2.25203,-4.23095 4.76525,-8.34315 7.03125,-11.34375 1.133,-1.5003 2.20895,-2.70031 3.125,-3.5 0.91605,-0.79969 1.66226,-1.09931 1.90625,-1.09375 0.0271,6.3e-4 1.05134,0.45959 2.1875,1.65625 1.13616,1.19666 2.50641,2.99353 4,5.125 2.98717,4.26293 6.46013,9.96872 9.75,15.6875 6.57973,11.43756 12.4375,22.875 12.4375,22.875 a 1.0931349,1.0931349 0 0 0 2.0625,-0.53125 c -0.23948,-10.98646 -5.27253,-25.61763 -11.4375,-37.625 -3.08263,-6.00398 -6.4531,-11.34691 -9.71875,-15.21875 -3.26565,-3.87184 -6.37216,-6.44553 -9.5,-6.375 z"
       inkscape:connector-curvature="0" />
    <path
       style="opacity:0.3;fill:#000000;fill-opacity:1;fill-rule:evenodd;stroke:none"
       id="path3756"
       inkscape:connector-curvature="0"
       d="m 319.60731,554.55898 c -0.0358,-14.39398 20.78953,-55.98306 30.48298,-56.20163 4.84762,-0.10931 12.11058,9.09489 18.21978,20.99364 6.1092,11.89874 11.06463,26.49204 11.29719,37.16094 0,0 -23.45258,-45.813 -29.3023,-45.94862 -5.95706,-0.13563 -22.126,32.27733 -20.20269,35.88789 1.87836,3.52617 36.73219,-7.84133 36.73219,-7.84133 -0.75134,1.15731 -23.50624,16.20227 -40.57242,19.74652 -2.57602,-0.0723 -6.44007,-0.0362 -6.65473,-3.79741 z" />
    <path
       style="opacity:0.3;fill:url(#linearGradient3251);fill-opacity:1;stroke:none"
       id="path10456"
       inkscape:connector-curvature="0"
       d="m 391.27827,573.35769 c -3.68576,2.00063 -7.28471,3.98833 -10.53414,6.20853 -4.36505,2.98245 -7.4244,5.96876 -8.82935,8.24412 -0.006,0.0104 -0.0191,0.0151 -0.0254,0.0254 -0.85525,0.51272 -6.98728,4.21247 -10.10158,6.3612 -3.39999,2.34583 -9.13469,8.34589 -9.13469,8.34589 l 0.66157,0.40712 c 5.63563,-2.62767 16.97168,-5.24163 16.97168,-5.24163 l 0.38167,-0.10178 -0.10178,-0.25445 c 0,0 -0.0496,-0.10618 0,-0.43256 0.0497,-0.32638 0.21762,-0.83977 0.63612,-1.52669 0.90936,-1.49263 3.20688,-3.06792 4.75818,-4.02028 3.57789,-0.88321 8.63959,-3.23873 13.35852,-6.46298 0.67025,-0.45795 1.31324,-0.92541 1.95925,-1.39946 l 0,-10.15247 z" />
    <path
       style="opacity:0.2;fill:url(#linearGradient3248);fill-opacity:1;stroke:none"
       id="path10430"
       inkscape:connector-curvature="0"
       d="m 391.78335,507.53224 c -5.82978,7.27235 -12.57812,13.15294 -17.76047,20.12683 -3.38381,4.5536 -5.54036,8.95285 -6.33575,12.16262 -0.004,0.0147 -0.0219,0.0363 -0.0255,0.0509 -0.67899,0.7972 -5.5292,6.49431 -7.93878,9.7708 -2.6306,3.57704 -6.61564,12.31528 -6.61564,12.31528 l 0.71245,0.45801 c 4.64187,-4.25758 14.55443,-9.26191 14.55443,-9.26191 l 0.33078,-0.17811 -0.12722,-0.33079 c 0,0 -0.075,-0.14565 -0.10178,-0.58523 -0.0268,-0.43957 -0.006,-1.14367 0.229,-2.11192 0.51038,-2.1039 2.31022,-4.50385 3.53683,-5.97952 3.12227,-1.66216 7.28312,-5.45871 10.94126,-10.38148 3.14441,-4.23144 5.76624,-8.82717 8.60034,-13.56208 l 0,-12.49339 z" />
    <path
       style="fill:none;stroke:#2e3436;stroke-width:1.96899939;stroke-linecap:round;stroke-miterlimit:4;stroke-opacity:1;stroke-dasharray:none"
       id="path4343"
       d="m 369.45041,537.30813 a 3.336401,2.6238034 29.387745 1 1 -5.64924,1.51307 3.336401,2.6238034 29.387745 1 1 5.64924,-1.51307 z"
       inkscape:connector-curvature="0" />
    <rect
       style="fill:#654bff;fill-opacity:1;stroke:none"
       id="rect4029"
       width="96"
       height="96"
       x="187.3833"
       y="463.44324" />
    <path
       style="fill:#ffffff;fill-opacity:1;fill-rule:evenodd;stroke:none"
       id="path5556"
       inkscape:connector-curvature="0"
       d="m 200.37941,529.70582 c -0.0334,-13.43579 19.4056,-52.25635 28.45377,-52.46037 4.52492,-0.10203 11.3044,8.48946 17.00692,19.59613 5.70252,11.10666 10.32807,24.7285 10.54515,34.68719 0,0 -21.89138,-42.7633 -27.35169,-42.88989 -5.56051,-0.1266 -20.65311,30.12868 -18.85783,33.49889 1.75332,3.29143 34.28698,-7.31935 34.28698,-7.31935 -0.70132,1.08027 -21.94146,15.12371 -37.87157,18.43203 -2.40454,-0.0675 -6.01136,-0.0338 -6.21173,-3.54463 z" />
    <path
       style="fill:#ffffff;fill-opacity:1;stroke:none"
       id="path10375"
       inkscape:connector-curvature="0"
       d="m 258.70304,513.62867 c -3.38408,6.89498 -8.15944,11.79842 -9.89799,10.86439 -1.8544,-0.9963 -0.9579,-7.35076 2.51443,-14.42553 3.4715,-7.0731 8.88082,-13.20349 12.43604,-21.10072 0.67755,-1.50503 1.98962,-3.72852 3.85243,-2.7841 1.93084,0.97891 1.40699,2.81071 0.38687,4.89142 -3.9395,8.03525 -5.9077,15.65956 -9.29178,22.55454 z" />
    <path
       style="fill:#ffffff;fill-opacity:1;fill-rule:evenodd;stroke:none"
       id="path4341"
       inkscape:connector-curvature="0"
       d="m 236.35866,546.39246 c 0,0 2.01188,-7.84677 3.57776,-11.0769 1.56588,-3.23014 5.26811,-9.65582 5.26811,-9.65582 0,0 1.06816,-1.59777 2.79245,-0.74791 1.72427,0.84984 1.22657,2.4822 1.22657,2.4822 0,0 -2.60032,3.91627 -2.81666,6.93803 -0.1247,1.74186 0.28363,2.45369 0.28363,2.45369 0,0 -7.16128,5.38464 -10.33186,9.60671 z" />
  </g>
</svg>
