<?xml version="1.0" encoding="UTF-8" standalone="no"?>
<!-- Created with Inkscape (http://www.inkscape.org/) -->

<svg
   xmlns:dc="http://purl.org/dc/elements/1.1/"
   xmlns:cc="http://creativecommons.org/ns#"
   xmlns:rdf="http://www.w3.org/1999/02/22-rdf-syntax-ns#"
   xmlns:svg="http://www.w3.org/2000/svg"
   xmlns="http://www.w3.org/2000/svg"
   xmlns:xlink="http://www.w3.org/1999/xlink"
   xmlns:sodipodi="http://sodipodi.sourceforge.net/DTD/sodipodi-0.dtd"
   xmlns:inkscape="http://www.inkscape.org/namespaces/inkscape"
   width="96"
   height="96"
   id="svg2"
   version="1.1"
   inkscape:version="0.48.4 r9939"
   sodipodi:docname="accessories-calculator.svg">
  <defs
     id="defs4">
    <linearGradient
       gradientTransform="matrix(0.8665485,0.18119434,-0.27628685,0.56829955,37.568198,28.213422)"
       gradientUnits="userSpaceOnUse"
       xlink:href="#linearGradient11508"
       id="linearGradient3010"
       y2="16.211916"
       x2="77.923637"
       y1="82.473648"
       x1="43.700191" />
    <linearGradient
       id="linearGradient10410">
      <stop
         offset="0"
         style="stop-color:#ffffff;stop-opacity:1"
         id="stop10412" />
      <stop
         offset="1"
         style="stop-color:#ffffff;stop-opacity:0"
         id="stop10414" />
    </linearGradient>
    <radialGradient
       gradientTransform="matrix(1,0,0,0.125,0,36.491262)"
       gradientUnits="userSpaceOnUse"
       xlink:href="#linearGradient10410"
       id="radialGradient10416"
       fy="41.7043"
       fx="59.85154"
       r="18.182745"
       cy="41.7043"
       cx="59.85154" />
    <linearGradient
       id="linearGradient10386">
      <stop
         offset="0"
         style="stop-color:#ffffff;stop-opacity:1"
         id="stop10388" />
      <stop
         offset="1"
         style="stop-color:#ffffff;stop-opacity:0"
         id="stop10390" />
    </linearGradient>
    <linearGradient
       gradientTransform="matrix(0.81423351,0,0,0.81423351,16.895076,15.45345)"
       gradientUnits="userSpaceOnUse"
       xlink:href="#linearGradient10386"
       id="linearGradient10392"
       y2="57.993305"
       x2="47.450871"
       y1="68.171875"
       x1="58.651787" />
    <linearGradient
       id="linearGradient6531">
      <stop
         offset="0"
         style="stop-color:#c38125;stop-opacity:1"
         id="stop6533" />
      <stop
         offset="0.62962961"
         style="stop-color:#c68d31;stop-opacity:1"
         id="stop10377" />
      <stop
         offset="1"
         style="stop-color:#fffce6;stop-opacity:1"
         id="stop6535" />
    </linearGradient>
    <linearGradient
       gradientTransform="matrix(0.59071981,-0.15821626,0.15862362,0.59174222,38.27202,30.327666)"
       gradientUnits="userSpaceOnUse"
       xlink:href="#linearGradient6531"
       id="linearGradient8183"
       y2="67.6745"
       x2="13.405647"
       y1="77.502068"
       x1="24.248737" />
    <linearGradient
       id="linearGradient10394">
      <stop
         offset="0"
         style="stop-color:#1a1a1a;stop-opacity:1"
         id="stop10396" />
      <stop
         offset="0.35185185"
         style="stop-color:#636363;stop-opacity:1"
         id="stop10404" />
      <stop
         offset="0.5"
         style="stop-color:#c7c7c7;stop-opacity:1"
         id="stop10402" />
      <stop
         offset="0.64999998"
         style="stop-color:#636363;stop-opacity:1"
         id="stop10406" />
      <stop
         offset="1"
         style="stop-color:#000000;stop-opacity:1"
         id="stop10398" />
    </linearGradient>
    <linearGradient
       gradientTransform="matrix(0.81423351,0,0,0.81423351,16.895076,15.45345)"
       gradientUnits="userSpaceOnUse"
       xlink:href="#linearGradient10394"
       id="linearGradient10400"
       y2="39.53442"
       x2="68.2229"
       y1="35.60585"
       x1="60.899021" />
    <linearGradient
       gradientTransform="matrix(0.84442773,0.12130865,-0.12943075,0.79143776,26.341674,12.197185)"
       gradientUnits="userSpaceOnUse"
       xlink:href="#linearGradient11508"
       id="linearGradient10454"
       y2="6.208179"
       x2="87.732079"
       y1="82.473648"
       x1="43.700191" />
    <linearGradient
       id="linearGradient11508">
      <stop
         offset="0"
         style="stop-color:#000000;stop-opacity:1"
         id="stop11510" />
      <stop
         offset="1"
         style="stop-color:#000000;stop-opacity:0"
         id="stop11512" />
    </linearGradient>
    <linearGradient
       gradientTransform="matrix(1.5026823,0,0,1.5189631,11.130641,11.16563)"
       gradientUnits="userSpaceOnUse"
       xlink:href="#linearGradient3719"
       id="linearGradient3715"
       y2="44.5"
       x2="35.09507"
       y1="4.7142863"
       x1="25.071428" />
    <linearGradient
       gradientTransform="translate(-45.02195,3.8774041)"
       gradientUnits="userSpaceOnUse"
       xlink:href="#linearGradient8568"
       id="linearGradient3712"
       y2="68.068893"
       x2="25"
       y1="-0.12132034"
       x1="24.898985" />
    <linearGradient
       id="linearGradient8568">
      <stop
         offset="0"
         style="stop-color:#ffffff;stop-opacity:1"
         id="stop8570" />
      <stop
         offset="1"
         style="stop-color:#ffffff;stop-opacity:0"
         id="stop8572" />
    </linearGradient>
    <linearGradient
       id="linearGradient7668">
      <stop
         offset="0"
         style="stop-color:#94b6db;stop-opacity:1"
         id="stop7670" />
      <stop
         offset="1"
         style="stop-color:#3465a4;stop-opacity:1"
         id="stop7672" />
    </linearGradient>
    <linearGradient
       id="linearGradient10950">
      <stop
         offset="0"
         style="stop-color:#000000;stop-opacity:1"
         id="stop10952" />
      <stop
         offset="1"
         style="stop-color:#000000;stop-opacity:0"
         id="stop10954" />
    </linearGradient>
    <radialGradient
       gradientTransform="matrix(0.941776,0,0,0.274284,0.317611,14.4024)"
       gradientUnits="userSpaceOnUse"
       xlink:href="#linearGradient10950"
       id="radialGradient10960"
       fy="20.123863"
       fx="5.4549971"
       r="4.3310289"
       cy="20.123863"
       cx="5.4549971" />
    <linearGradient
       gradientTransform="matrix(1.0238095,0,0,1.0119048,-1.1428571,-98.071429)"
       gradientUnits="userSpaceOnUse"
       xlink:href="#ButtonShadow-0"
       id="linearGradient3026"
       y2="90.238609"
       x2="32.251034"
       y1="6.1317081"
       x1="32.251034" />
    <linearGradient
       gradientTransform="translate(0,-97)"
       gradientUnits="userSpaceOnUse"
       xlink:href="#ButtonShadow-0"
       id="linearGradient3721"
       y2="90.238609"
       x2="32.251034"
       y1="6.1317081"
       x1="32.251034" />
    <linearGradient
       gradientTransform="matrix(1.0238095,0,0,1.0119048,-1.1428571,-98.071429)"
       gradientUnits="userSpaceOnUse"
       xlink:href="#ButtonShadow-0"
       id="linearGradient3725"
       y2="90.238609"
       x2="32.251034"
       y1="6.1317081"
       x1="32.251034" />
    <linearGradient
       gradientTransform="matrix(1.0238095,0,0,1.0119048,-1.1428571,-98.071429)"
       gradientUnits="userSpaceOnUse"
       xlink:href="#ButtonShadow-0"
       id="linearGradient3772"
       y2="90.238609"
       x2="32.251034"
       y1="6.1317081"
       x1="32.251034" />
    <linearGradient
       gradientTransform="matrix(1.0238095,0,0,1.0119048,-1.1428571,-98.071429)"
       gradientUnits="userSpaceOnUse"
       xlink:href="#ButtonShadow-0"
       id="linearGradient3780"
       y2="90.238609"
       x2="32.251034"
       y1="6.1317081"
       x1="32.251034" />
    <linearGradient
       gradientTransform="matrix(1.0058652,0,0,0.994169,100,0)"
       gradientUnits="userSpaceOnUse"
       id="ButtonShadow-0"
       y2="7.0165396"
       x2="45.447727"
       y1="92.539597"
       x1="45.447727">
      <stop
         offset="0"
         style="stop-color:#000000;stop-opacity:1"
         id="stop3750-8" />
      <stop
         offset="1"
         style="stop-color:#000000;stop-opacity:0.58823532"
         id="stop3752-5" />
    </linearGradient>
    <linearGradient
       gradientTransform="translate(0,-96)"
       gradientUnits="userSpaceOnUse"
       xlink:href="#linearGradient7668"
       id="linearGradient3617"
       y2="5.9877172"
       x2="48"
       y1="90"
       x1="48" />
    <clipPath
       id="clipPath3613">
      <rect
         style="fill:#ffffff;fill-opacity:1;fill-rule:nonzero;stroke:none"
         id="rect3615"
         y="6"
         x="6"
         ry="6"
         rx="6"
         height="84"
         width="84" />
    </clipPath>
    <radialGradient
       gradientTransform="matrix(1.1573129,0,0,0.99590774,-7.5510206,0.19713193)"
       gradientUnits="userSpaceOnUse"
       xlink:href="#linearGradient3737"
       id="radialGradient3619"
       fy="90.171875"
       fx="48"
       r="42"
       cy="90.171875"
       cx="48" />
    <linearGradient
       gradientUnits="userSpaceOnUse"
       xlink:href="#linearGradient3737"
       id="linearGradient3613"
       y2="138.66119"
       x2="48"
       y1="20.220806"
       x1="48" />
    <filter
       id="filter3794"
       color-interpolation-filters="sRGB"
       height="1.3839999"
       width="1.3839999"
       y="-0.192"
       x="-0.192">
      <feGaussianBlur
         stdDeviation="5.28"
         id="feGaussianBlur3796" />
    </filter>
    <linearGradient
       gradientUnits="userSpaceOnUse"
       xlink:href="#linearGradient3737"
       id="linearGradient3188"
       y2="63.893143"
       x2="36.357143"
       y1="6"
       x1="36.357143" />
    <filter
       id="filter3174"
       color-interpolation-filters="sRGB">
      <feGaussianBlur
         stdDeviation="1.71"
         id="feGaussianBlur3176" />
    </filter>
    <linearGradient
       id="linearGradient3737">
      <stop
         offset="0"
         style="stop-color:#ffffff;stop-opacity:1"
         id="stop3739" />
      <stop
         offset="1"
         style="stop-color:#ffffff;stop-opacity:0"
         id="stop3741" />
    </linearGradient>
    <linearGradient
       gradientTransform="scale(1.0058652,0.994169)"
       gradientUnits="userSpaceOnUse"
       id="ButtonShadow"
       y2="7.0165396"
       x2="45.447727"
       y1="92.539597"
       x1="45.447727">
      <stop
         offset="0"
         style="stop-color:#000000;stop-opacity:1"
         id="stop3750" />
      <stop
         offset="1"
         style="stop-color:#000000;stop-opacity:0.58823532"
         id="stop3752" />
    </linearGradient>
    <linearGradient
       id="linearGradient3719">
      <stop
         offset="0"
         style="stop-color:#eaedf1;stop-opacity:1"
         id="stop3721" />
      <stop
         offset="1"
         style="stop-color:#c1ccdb;stop-opacity:1"
         id="stop3723" />
    </linearGradient>
    <linearGradient
       inkscape:collect="always"
       xlink:href="#linearGradient3737"
       id="linearGradient3216"
       gradientUnits="userSpaceOnUse"
       x1="48"
       y1="20.220806"
       x2="48"
       y2="138.66119" />
    <linearGradient
       gradientUnits="userSpaceOnUse"
       xlink:href="#linearGradient3888"
       id="linearGradient3902"
       y2="49"
       x2="37"
       y1="16"
       x1="37" />
    <linearGradient
       gradientUnits="userSpaceOnUse"
       xlink:href="#linearGradient3888"
       id="linearGradient3894"
       y2="39"
       x2="34"
       y1="14"
       x1="34" />
    <linearGradient
       gradientTransform="matrix(1.0238095,0,0,1.0119048,-1.1428571,-98.071429)"
       gradientUnits="userSpaceOnUse"
       xlink:href="#ButtonShadow-0-9"
       id="linearGradient2918"
       y2="90.238609"
       x2="32.251034"
       y1="6.1317081"
       x1="32.251034" />
    <linearGradient
       gradientTransform="translate(0,-97)"
       gradientUnits="userSpaceOnUse"
       xlink:href="#ButtonShadow-0-9"
       id="linearGradient3721-5"
       y2="90.238609"
       x2="32.251034"
       y1="6.1317081"
       x1="32.251034" />
    <linearGradient
       gradientTransform="matrix(1.0238095,0,0,1.0119048,-1.1428571,-98.071429)"
       gradientUnits="userSpaceOnUse"
       xlink:href="#ButtonShadow-0-9"
       id="linearGradient3725-7"
       y2="90.238609"
       x2="32.251034"
       y1="6.1317081"
       x1="32.251034" />
    <linearGradient
       gradientTransform="matrix(1.0238095,0,0,1.0119048,-1.1428571,-98.071429)"
       gradientUnits="userSpaceOnUse"
       xlink:href="#ButtonShadow-0-9"
       id="linearGradient3772-1"
       y2="90.238609"
       x2="32.251034"
       y1="6.1317081"
       x1="32.251034" />
    <linearGradient
       gradientTransform="matrix(1.0238095,0,0,1.0119048,-1.1428571,-98.071429)"
       gradientUnits="userSpaceOnUse"
       xlink:href="#ButtonShadow-0-9"
       id="linearGradient3780-2"
       y2="90.238609"
       x2="32.251034"
       y1="6.1317081"
       x1="32.251034" />
    <linearGradient
       gradientTransform="matrix(1.0058652,0,0,0.994169,100,0)"
       gradientUnits="userSpaceOnUse"
       id="ButtonShadow-0-9"
       y2="7.0165396"
       x2="45.447727"
       y1="92.539597"
       x1="45.447727">
      <stop
         offset="0"
         style="stop-color:#000000;stop-opacity:1"
         id="stop3750-8-7" />
      <stop
         offset="1"
         style="stop-color:#000000;stop-opacity:0.58823532"
         id="stop3752-5-5" />
    </linearGradient>
    <radialGradient
       gradientTransform="matrix(1.1573129,0,0,0.99590774,-7.551021,0.197132)"
       gradientUnits="userSpaceOnUse"
       xlink:href="#linearGradient3737-1"
       id="radialGradient2855"
       fy="90.171875"
       fx="48"
       r="42"
       cy="90.171875"
       cx="48" />
    <linearGradient
       id="linearGradient3737-1">
      <stop
         offset="0"
         style="stop-color:#ffffff;stop-opacity:1"
         id="stop3739-7" />
      <stop
         offset="1"
         style="stop-color:#ffffff;stop-opacity:0"
         id="stop3741-2" />
    </linearGradient>
    <linearGradient
       gradientTransform="matrix(1.025,0,0,1.0625,-9.5999986,-3.9999969)"
       gradientUnits="userSpaceOnUse"
       xlink:href="#linearGradient3465"
       id="linearGradient3812"
       y2="35.770973"
       x2="64"
       y1="15.5"
       x1="64" />
    <linearGradient
       gradientTransform="matrix(0.7499999,0,0,0.7500001,3.0000056,-0.7500239)"
       gradientUnits="userSpaceOnUse"
       xlink:href="#linearGradient3762"
       id="linearGradient3797"
       y2="112.04894"
       x2="94.746246"
       y1="102"
       x1="94.746246" />
    <linearGradient
       gradientTransform="matrix(0.7499999,0,0,0.7500001,1.0000094,-0.7500239)"
       gradientUnits="userSpaceOnUse"
       xlink:href="#linearGradient3720"
       id="linearGradient3795"
       y2="102"
       x2="74.666664"
       y1="112"
       x1="74.666664" />
    <linearGradient
       gradientTransform="matrix(0.7499999,0,0,0.7500001,-0.9999944,-159.75)"
       gradientUnits="userSpaceOnUse"
       xlink:href="#linearGradient3720"
       id="linearGradient3793"
       y2="112"
       x2="53.333332"
       y1="102"
       x1="53.333332" />
    <linearGradient
       gradientTransform="matrix(0.7499999,0,0,0.7500001,-2.9999963,-0.7500239)"
       gradientUnits="userSpaceOnUse"
       xlink:href="#linearGradient3778"
       id="linearGradient3791"
       y2="112.00001"
       x2="30.246527"
       y1="102"
       x1="30.246527" />
    <linearGradient
       gradientTransform="matrix(0.7499999,0,0,0.7500001,3.0000056,-0.75002)"
       gradientUnits="userSpaceOnUse"
       xlink:href="#linearGradient3720"
       id="linearGradient3779"
       y2="85.996765"
       x2="95.745689"
       y1="96"
       x1="95.745689" />
    <linearGradient
       gradientTransform="matrix(0.7499999,0,0,0.7500001,33.000006,-12.750023)"
       gradientUnits="userSpaceOnUse"
       xlink:href="#linearGradient3778"
       id="linearGradient3777"
       y2="112.00001"
       x2="30.246527"
       y1="102"
       x1="30.246527" />
    <linearGradient
       gradientTransform="matrix(0.7499999,0,0,0.7500001,15.000004,-12.750023)"
       gradientUnits="userSpaceOnUse"
       xlink:href="#linearGradient3778"
       id="linearGradient3775"
       y2="112.00001"
       x2="30.246527"
       y1="102"
       x1="30.246527" />
    <linearGradient
       gradientTransform="matrix(0.7499999,0,0,0.7500001,-2.9999963,-12.750023)"
       gradientUnits="userSpaceOnUse"
       xlink:href="#linearGradient3778"
       id="linearGradient3773"
       y2="112.00001"
       x2="30.246527"
       y1="102"
       x1="30.246527" />
    <linearGradient
       gradientTransform="matrix(0.7499999,0,0,0.7500001,3.0000056,-0.7500124)"
       gradientUnits="userSpaceOnUse"
       xlink:href="#linearGradient3720"
       id="linearGradient3761"
       y2="70"
       x2="96"
       y1="80"
       x1="96" />
    <linearGradient
       gradientTransform="matrix(0.7499999,0,0,0.7500001,33.000006,-24.750019)"
       gradientUnits="userSpaceOnUse"
       xlink:href="#linearGradient3778"
       id="linearGradient3758"
       y2="112.00001"
       x2="30.246527"
       y1="102"
       x1="30.246527" />
    <linearGradient
       gradientTransform="matrix(0.7499999,0,0,0.7500001,15.000004,-24.750019)"
       gradientUnits="userSpaceOnUse"
       xlink:href="#linearGradient3778"
       id="linearGradient3756"
       y2="112.00001"
       x2="30.246527"
       y1="102"
       x1="30.246527" />
    <linearGradient
       gradientTransform="matrix(0.7499999,0,0,0.7500001,-2.9999963,-24.750019)"
       gradientUnits="userSpaceOnUse"
       xlink:href="#linearGradient3778"
       id="linearGradient3754"
       y2="112.00001"
       x2="30.246527"
       y1="102"
       x1="30.246527" />
    <linearGradient
       gradientTransform="matrix(0.7499999,0,0,0.7500001,3.0000056,-0.7500124)"
       gradientUnits="userSpaceOnUse"
       xlink:href="#linearGradient3770"
       id="linearGradient3742"
       y2="64.000008"
       x2="93.746803"
       y1="54"
       x1="93.746803" />
    <linearGradient
       gradientTransform="matrix(0.7499999,0,0,0.7500001,33.000006,-36.750022)"
       gradientUnits="userSpaceOnUse"
       xlink:href="#linearGradient3778"
       id="linearGradient3740"
       y2="112.00001"
       x2="30.246527"
       y1="102"
       x1="30.246527" />
    <linearGradient
       gradientTransform="matrix(0.7499999,0,0,0.7500001,15.000004,-36.750022)"
       gradientUnits="userSpaceOnUse"
       xlink:href="#linearGradient3778"
       id="linearGradient3738"
       y2="112.00001"
       x2="30.246527"
       y1="102"
       x1="30.246527" />
    <linearGradient
       gradientTransform="matrix(0.7499999,0,0,0.7500001,-2.9999963,-36.750022)"
       gradientUnits="userSpaceOnUse"
       xlink:href="#linearGradient3778"
       id="linearGradient3735"
       y2="112.00001"
       x2="30.246527"
       y1="102"
       x1="30.246527" />
    <linearGradient
       gradientUnits="userSpaceOnUse"
       xlink:href="#linearGradient3737-4"
       id="linearGradient3188-7"
       y2="63.893143"
       x2="36.357143"
       y1="6"
       x1="36.357143" />
    <filter
       id="filter3174-1"
       color-interpolation-filters="sRGB">
      <feGaussianBlur
         stdDeviation="1.71"
         id="feGaussianBlur3176-6" />
    </filter>
    <linearGradient
       gradientUnits="userSpaceOnUse"
       xlink:href="#linearGradient3187"
       id="linearGradient3706"
       y2="5.9877172"
       x2="48"
       y1="90"
       x1="48" />
    <linearGradient
       id="linearGradient3737-4">
      <stop
         offset="0"
         style="stop-color:#ffffff;stop-opacity:1"
         id="stop3739-71" />
      <stop
         offset="1"
         style="stop-color:#ffffff;stop-opacity:0"
         id="stop3741-7" />
    </linearGradient>
    <linearGradient
       gradientTransform="scale(1.0058652,0.994169)"
       gradientUnits="userSpaceOnUse"
       id="ButtonShadow-4"
       y2="7.0165396"
       x2="45.447727"
       y1="92.539597"
       x1="45.447727">
      <stop
         offset="0"
         style="stop-color:#000000;stop-opacity:1"
         id="stop3750-5" />
      <stop
         offset="1"
         style="stop-color:#000000;stop-opacity:0.58823532"
         id="stop3752-1" />
    </linearGradient>
    <linearGradient
       id="linearGradient3187">
      <stop
         offset="0"
         style="stop-color:#bcb5ac;stop-opacity:1"
         id="stop3189" />
      <stop
         offset="1"
         style="stop-color:#e9e7e4;stop-opacity:1"
         id="stop3191" />
    </linearGradient>
    <linearGradient
       id="linearGradient3778">
      <stop
         offset="0"
         style="stop-color:#323232;stop-opacity:1"
         id="stop3780" />
      <stop
         offset="1"
         style="stop-color:#505050;stop-opacity:1"
         id="stop3782" />
    </linearGradient>
    <linearGradient
       id="linearGradient3770">
      <stop
         offset="0"
         style="stop-color:#802b27;stop-opacity:1"
         id="stop3772" />
      <stop
         offset="1"
         style="stop-color:#a93833;stop-opacity:1"
         id="stop3774" />
    </linearGradient>
    <linearGradient
       id="linearGradient3762">
      <stop
         offset="0"
         style="stop-color:#c06517;stop-opacity:1"
         id="stop3764" />
      <stop
         offset="1"
         style="stop-color:#e88b3b;stop-opacity:1"
         id="stop3766" />
    </linearGradient>
    <linearGradient
       id="linearGradient3720">
      <stop
         offset="0"
         style="stop-color:#928075;stop-opacity:1"
         id="stop3722" />
      <stop
         offset="1"
         style="stop-color:#5b4f48;stop-opacity:1"
         id="stop3724" />
    </linearGradient>
    <linearGradient
       id="linearGradient3465">
      <stop
         offset="0"
         style="stop-color:#ccc7c1;stop-opacity:1"
         id="stop3467" />
      <stop
         offset="1"
         style="stop-color:#fefefd;stop-opacity:0.58015269"
         id="stop3469" />
    </linearGradient>
    <linearGradient
       id="linearGradient3888">
      <stop
         offset="0"
         style="stop-color:#717249;stop-opacity:1"
         id="stop3890" />
      <stop
         offset="1"
         style="stop-color:#717249;stop-opacity:0"
         id="stop3892" />
    </linearGradient>
  </defs>
  <sodipodi:namedview
     id="base"
     pagecolor="#ffffff"
     bordercolor="#666666"
     borderopacity="1.0"
     inkscape:pageopacity="0.0"
     inkscape:pageshadow="2"
     inkscape:zoom="1.4"
     inkscape:cx="39.871454"
     inkscape:cy="47.284106"
     inkscape:document-units="px"
     inkscape:current-layer="layer1"
     showgrid="false"
     fit-margin-top="0"
     fit-margin-left="0"
     fit-margin-right="0"
     fit-margin-bottom="0"
     inkscape:window-width="1280"
     inkscape:window-height="776"
     inkscape:window-x="0"
     inkscape:window-y="24"
     inkscape:window-maximized="1" />
  <metadata
     id="metadata7">
    <rdf:RDF>
      <cc:Work
         rdf:about="">
        <dc:format>image/svg+xml</dc:format>
        <dc:type
           rdf:resource="http://purl.org/dc/dcmitype/StillImage" />
        <dc:title></dc:title>
      </cc:Work>
    </rdf:RDF>
  </metadata>
  <g
     inkscape:label="Capa 1"
     inkscape:groupmode="layer"
     id="layer1"
     transform="translate(-187.3833,-463.44324)">
    <g
       id="layer2"
       style="display:none"
       transform="translate(301.60726,479.35639)">
      <rect
         width="86"
         height="85"
         rx="6"
         ry="6"
         x="5"
         y="7"
         id="rect3745"
         style="opacity:0.9;fill:url(#ButtonShadow);fill-opacity:1;fill-rule:nonzero;stroke:none;filter:url(#filter3174)" />
    </g>
    <rect
       style="fill:#666666;fill-opacity:1;stroke:none"
       id="rect4029"
       width="96"
       height="96"
       x="187.3833"
       y="463.44324" />
    <g
       id="layer2-2"
       style="display:none"
       transform="translate(144.43406,585.70468)">
      <rect
         width="86"
         height="85"
         rx="6"
         ry="6"
         x="5"
         y="7"
         id="rect3745-8"
         style="opacity:0.9;fill:url(#ButtonShadow-4);fill-opacity:1;fill-rule:nonzero;stroke:none;filter:url(#filter3174-1)" />
    </g>
    <g
       id="g4654"
       transform="matrix(0.8369681,0,0,0.8369681,39.189308,83.337622)">
      <g
         id="g4695"
         transform="translate(-1.0101525,-2.5253814)">
        <rect
           style="fill:#ffffff;fill-opacity:1;fill-rule:nonzero;stroke:none;display:inline"
           id="rect3907"
           y="481.13083"
           x="208.85184"
           ry="1.9246427"
           rx="2.1316483"
           height="20.529524"
           width="56.843967" />
        <path
           d="m 260.31758,490.13486 -1.12019,0.9787 -1.13493,-0.9787 0,-1.97399 1.13493,-0.97871 1.12019,0.97871 0,1.97399 m -1.31179,-3.102 -1.1202,0.9953 -2.25512,0 -1.12019,-0.9953 1.12019,-0.97869 2.25512,0 1.1202,0.97869 m 1.31179,7.33199 -1.12019,0.9787 -1.13493,-0.9787 0,-1.974 1.13493,-0.9787 1.12019,0.9787 0,1.974 m -4.8345,-4.22999 -1.12019,0.9787 -1.13492,-0.9787 0,-1.97399 1.13492,-0.97871 1.12019,0.97871 0,1.97399 m 3.52271,5.40775 -1.13493,0.9787 -2.24039,0 -1.13492,-0.9787 1.13492,-0.9953 2.24039,0 1.13493,0.9953 m -3.52271,-1.17776 -1.12019,0.9787 -1.13492,-0.9787 0,-1.974 1.13492,-0.9787 1.12019,0.9787 0,1.974"
           inkscape:connector-curvature="0"
           id="path3961"
           style="font-size:48px;font-style:normal;font-variant:normal;font-weight:900;font-stretch:normal;text-align:start;line-height:100%;writing-mode:lr-tb;text-anchor:start;opacity:0.5;fill:#000000;fill-opacity:1;stroke:none;display:inline;font-family:Endless Showroom;-inkscape-font-specification:Endless Showroom Heavy" />
        <path
           d="m 262.08755,496.7985 -1.20792,0.99892 -1.11618,-0.99892 1.16205,-1.01585 1.16205,1.01585"
           inkscape:connector-curvature="0"
           id="text3944"
           style="font-size:48px;font-style:normal;font-variant:normal;font-weight:900;font-stretch:normal;text-align:start;line-height:100%;writing-mode:lr-tb;text-anchor:start;opacity:0.5;fill:#000000;fill-opacity:1;stroke:none;display:inline;font-family:Endless Showroom;-inkscape-font-specification:Endless Showroom Heavy" />
        <path
           style="fill:none;stroke:#ffffff;stroke-width:0.90673608;stroke-opacity:1"
           id="rect2419"
           inkscape:connector-curvature="0"
           d="m 207.35268,473.21767 c -2.73808,0 -4.94237,2.67091 -4.94237,5.98859 l 0,71.86352 c 0,3.31768 2.20429,5.98858 4.94237,5.98858 l 59.30874,0 c 2.73808,0 4.94237,-2.6709 4.94237,-5.98858 l 0,-71.86352 c 0,-3.31768 -2.20429,-5.98859 -4.94237,-5.98859 l -59.30874,0 z m 4.94241,6.98671 49.42392,0 c 0.91271,0 1.64748,0.89031 1.64748,1.99622 l 0,17.96586 c 0,1.10589 -0.73477,1.99621 -1.64748,1.99621 l -49.42392,0 c -0.9127,0 -1.64748,-0.89032 -1.64748,-1.99621 l 0,-17.96586 c 0,-1.10591 0.73478,-1.99622 1.64748,-1.99622 z" />
        <rect
           style="fill:none;stroke:#ffffff;stroke-width:1.79886591;stroke-linecap:square;stroke-linejoin:round;stroke-miterlimit:4;stroke-opacity:1;stroke-dasharray:none;stroke-dashoffset:0;display:inline"
           id="rect3425"
           y="480.41629"
           x="209.33604"
           ry="1.903495"
           rx="1.6999879"
           height="20.93844"
           width="56.099606" />
        <path
           style="opacity:0.2;fill:#ffffff;fill-opacity:1;stroke:none;display:inline"
           id="path3773"
           d="m 208.8247,508.39189 c -0.85004,0 -1.55957,0.70952 -1.55957,1.55957 l 0,4.59663 c 0,0.85004 0.70952,1.55957 1.55957,1.55957 l 8.53659,0 c 0.85005,0 1.55957,-0.70953 1.55957,-1.55957 l 0,-4.59663 c 0,-0.85005 -0.70952,-1.55957 -1.55957,-1.55957 l -8.53659,0 z m 15.75987,0 c -0.85005,0 -1.55957,0.70952 -1.55957,1.55957 l 0,4.59663 c 0,0.85004 0.70951,1.55957 1.55957,1.55957 l 8.53659,0 c 0.85004,0 1.55957,-0.70953 1.55957,-1.55957 l 0,-4.59663 c 0,-0.85005 -0.70953,-1.55957 -1.55957,-1.55957 l -8.53659,0 z m 15.75986,0 c -0.85004,0 -1.55957,0.70952 -1.55957,1.55957 l 0,4.59663 c 0,0.85004 0.70952,1.55957 1.55957,1.55957 l 8.5366,0 c 0.85004,0 1.55957,-0.70953 1.55957,-1.55957 l 0,-4.59663 c 0,-0.85005 -0.70953,-1.55957 -1.55957,-1.55957 l -8.5366,0 z m 15.75987,0 c -0.85004,0 -1.55957,0.70952 -1.55957,1.55957 l 0,4.59663 c 0,0.85004 0.70952,1.55957 1.55957,1.55957 l 8.5366,0 c 0.85004,0 1.55957,-0.70953 1.55957,-1.55957 l 0,-4.59663 c 0,-0.85005 -0.70953,-1.55957 -1.55957,-1.55957 l -8.5366,0 z m -47.2796,10.50658 c -0.85004,0 -1.55957,0.70952 -1.55957,1.55957 l 0,4.59662 c 0,0.85005 0.70952,1.55957 1.55957,1.55957 l 8.53659,0 c 0.85005,0 1.55957,-0.70952 1.55957,-1.55957 l 0,-4.59662 c 0,-0.85005 -0.70952,-1.55957 -1.55957,-1.55957 l -8.53659,0 z m 15.75987,0 c -0.85005,0 -1.55957,0.70952 -1.55957,1.55957 l 0,4.59662 c 0,0.85005 0.70951,1.55957 1.55957,1.55957 l 8.53659,0 c 0.85004,0 1.55957,-0.70952 1.55957,-1.55957 l 0,-4.59662 c 0,-0.85005 -0.70953,-1.55957 -1.55957,-1.55957 l -8.53659,0 z m 15.75986,0 c -0.85004,0 -1.55957,0.70952 -1.55957,1.55957 l 0,4.59662 c 0,0.85005 0.70952,1.55957 1.55957,1.55957 l 8.5366,0 c 0.85004,0 1.55957,-0.70952 1.55957,-1.55957 l 0,-4.59662 c 0,-0.85005 -0.70953,-1.55957 -1.55957,-1.55957 l -8.5366,0 z m 15.75987,0 c -0.85004,0 -1.55957,0.70952 -1.55957,1.55957 l 0,4.59662 c 0,0.85005 0.70952,1.55957 1.55957,1.55957 l 8.5366,0 c 0.85004,0 1.55957,-0.70952 1.55957,-1.55957 l 0,-4.59662 c 0,-0.85005 -0.70953,-1.55957 -1.55957,-1.55957 l -8.5366,0 z m -47.2796,10.50657 c -0.85004,0 -1.55957,0.70953 -1.55957,1.55957 l 0,4.59663 c 0,0.85005 0.70952,1.55957 1.55957,1.55957 l 8.53659,0 c 0.85005,0 1.55957,-0.70952 1.55957,-1.55957 l 0,-4.59663 c 0,-0.85004 -0.70952,-1.55957 -1.55957,-1.55957 l -8.53659,0 z m 15.75987,0 c -0.85005,0 -1.55957,0.70953 -1.55957,1.55957 l 0,4.59663 c 0,0.85005 0.70951,1.55957 1.55957,1.55957 l 8.53659,0 c 0.85004,0 1.55957,-0.70952 1.55957,-1.55957 l 0,-4.59663 c 0,-0.85004 -0.70953,-1.55957 -1.55957,-1.55957 l -8.53659,0 z m 15.75986,0 c -0.85004,0 -1.55957,0.70953 -1.55957,1.55957 l 0,4.59663 c 0,0.85005 0.70952,1.55957 1.55957,1.55957 l 8.5366,0 c 0.85004,0 1.55957,-0.70952 1.55957,-1.55957 l 0,-4.59663 c 0,-0.85004 -0.70953,-1.55957 -1.55957,-1.55957 l -8.5366,0 z m 15.75987,0 c -0.85004,0 -1.55957,0.70953 -1.55957,1.55957 l 0,4.59663 c 0,0.85005 0.70952,1.55957 1.55957,1.55957 l 8.5366,0 c 0.85004,0 1.55957,-0.70952 1.55957,-1.55957 l 0,-4.59663 c 0,-0.85004 -0.70953,-1.55957 -1.55957,-1.55957 l -8.5366,0 z m -47.2796,10.50658 c -0.85004,0 -1.55957,0.70953 -1.55957,1.55957 l 0,4.59663 c 0,0.85004 0.70952,1.55957 1.55957,1.55957 l 8.53659,0 c 0.85005,0 1.55957,-0.70953 1.55957,-1.55957 l 0,-4.59663 c 0,-0.85004 -0.70952,-1.55957 -1.55957,-1.55957 l -8.53659,0 z m 15.75987,0 c -0.85006,0 -1.55957,0.70953 -1.55957,1.55957 l 0,4.59663 c 0,0.85004 0.70952,1.55957 1.55957,1.55957 l 8.53659,0 c 0.85004,0 1.55957,-0.70953 1.55957,-1.55957 l 0,-4.59663 c 0,-0.85004 -0.70953,-1.55957 -1.55957,-1.55957 l -8.53659,0 z m 15.75986,0 c -0.85004,0 -1.55957,0.70953 -1.55957,1.55957 l 0,4.59663 c 0,0.85004 0.70952,1.55957 1.55957,1.55957 l 8.5366,0 c 0.85004,0 1.55957,-0.70953 1.55957,-1.55957 l 0,-4.59663 c 0,-0.85004 -0.70953,-1.55957 -1.55957,-1.55957 l -8.5366,0 z m 15.75987,0 c -0.85004,0 -1.55957,0.70953 -1.55957,1.55957 l 0,4.59663 c 0,0.85004 0.70952,1.55957 1.55957,1.55957 l 8.5366,0 c 0.85004,0 1.55957,-0.70953 1.55957,-1.55957 l 0,-4.59663 c 0,-0.85004 -0.70953,-1.55957 -1.55957,-1.55957 l -8.5366,0 z"
           inkscape:connector-curvature="0" />
        <path
           style="opacity:0.6;fill:#ffffff;fill-opacity:1;stroke:none;display:inline"
           id="rect3636"
           inkscape:connector-curvature="0"
           d="m 208.8247,508.96647 c -0.54569,0 -0.98499,0.4393 -0.98499,0.98499 l 0,4.59663 c 0,0.54568 0.4393,0.98499 0.98499,0.98499 l 8.53659,0 c 0.54569,0 0.985,-0.43931 0.985,-0.98499 l 0,-4.59663 c 0,-0.54569 -0.43931,-0.98499 -0.985,-0.98499 l -8.53659,0 z m 15.75987,0 c -0.54569,0 -0.98499,0.4393 -0.98499,0.98499 l 0,4.59663 c 0,0.54568 0.4393,0.98499 0.98499,0.98499 l 8.53659,0 c 0.54569,0 0.98499,-0.43931 0.98499,-0.98499 l 0,-4.59663 c 0,-0.54569 -0.4393,-0.98499 -0.98499,-0.98499 l -8.53659,0 z m 15.75986,0 c -0.54568,0 -0.98499,0.4393 -0.98499,0.98499 l 0,4.59663 c 0,0.54568 0.43931,0.98499 0.98499,0.98499 l 8.5366,0 c 0.54568,0 0.98499,-0.43931 0.98499,-0.98499 l 0,-4.59663 c 0,-0.54569 -0.43931,-0.98499 -0.98499,-0.98499 l -8.5366,0 z m 15.75987,0 c -0.54568,0 -0.98499,0.4393 -0.98499,0.98499 l 0,4.59663 c 0,0.54568 0.43931,0.98499 0.98499,0.98499 l 8.5366,0 c 0.54568,0 0.98499,-0.43931 0.98499,-0.98499 l 0,-4.59663 c 0,-0.54569 -0.43931,-0.98499 -0.98499,-0.98499 l -8.5366,0 z m -47.2796,10.50657 c -0.54569,0 -0.98499,0.43931 -0.98499,0.985 l 0,4.59662 c 0,0.54569 0.4393,0.985 0.98499,0.985 l 8.53659,0 c 0.54569,0 0.985,-0.43931 0.985,-0.985 l 0,-4.59662 c 0,-0.54569 -0.43931,-0.985 -0.985,-0.985 l -8.53659,0 z m 15.75987,0 c -0.54569,0 -0.98499,0.43931 -0.98499,0.985 l 0,4.59662 c 0,0.54569 0.4393,0.985 0.98499,0.985 l 8.53659,0 c 0.54569,0 0.98499,-0.43931 0.98499,-0.985 l 0,-4.59662 c 0,-0.54569 -0.4393,-0.985 -0.98499,-0.985 l -8.53659,0 z m 15.75986,0 c -0.54568,0 -0.98499,0.43931 -0.98499,0.985 l 0,4.59662 c 0,0.54569 0.43931,0.985 0.98499,0.985 l 8.5366,0 c 0.54568,0 0.98499,-0.43931 0.98499,-0.985 l 0,-4.59662 c 0,-0.54569 -0.43931,-0.985 -0.98499,-0.985 l -8.5366,0 z m 15.75987,0 c -0.54568,0 -0.98499,0.43931 -0.98499,0.985 l 0,4.59662 c 0,0.54569 0.43931,0.985 0.98499,0.985 l 8.5366,0 c 0.54568,0 0.98499,-0.43931 0.98499,-0.985 l 0,-4.59662 c 0,-0.54569 -0.43931,-0.985 -0.98499,-0.985 l -8.5366,0 z m -47.2796,10.50658 c -0.54569,0 -0.98499,0.43931 -0.98499,0.98499 l 0,4.59663 c 0,0.54569 0.4393,0.98499 0.98499,0.98499 l 8.53659,0 c 0.54569,0 0.985,-0.4393 0.985,-0.98499 l 0,-4.59663 c 0,-0.54568 -0.43931,-0.98499 -0.985,-0.98499 l -8.53659,0 z m 15.75987,0 c -0.54569,0 -0.98499,0.43931 -0.98499,0.98499 l 0,4.59663 c 0,0.54569 0.4393,0.98499 0.98499,0.98499 l 8.53659,0 c 0.54569,0 0.98499,-0.4393 0.98499,-0.98499 l 0,-4.59663 c 0,-0.54568 -0.4393,-0.98499 -0.98499,-0.98499 l -8.53659,0 z m 15.75986,0 c -0.54568,0 -0.98499,0.43931 -0.98499,0.98499 l 0,4.59663 c 0,0.54569 0.43931,0.98499 0.98499,0.98499 l 8.5366,0 c 0.54568,0 0.98499,-0.4393 0.98499,-0.98499 l 0,-4.59663 c 0,-0.54568 -0.43931,-0.98499 -0.98499,-0.98499 l -8.5366,0 z m 15.75987,0 c -0.54568,0 -0.98499,0.43931 -0.98499,0.98499 l 0,4.59663 c 0,0.54569 0.43931,0.98499 0.98499,0.98499 l 8.5366,0 c 0.54568,0 0.98499,-0.4393 0.98499,-0.98499 l 0,-4.59663 c 0,-0.54568 -0.43931,-0.98499 -0.98499,-0.98499 l -8.5366,0 z m -47.2796,10.50658 c -0.54569,0 -0.98499,0.43931 -0.98499,0.98499 l 0,4.59663 c 0,0.54569 0.4393,0.98499 0.98499,0.98499 l 8.53659,0 c 0.54569,0 0.985,-0.4393 0.985,-0.98499 l 0,-4.59663 c 0,-0.54568 -0.43931,-0.98499 -0.985,-0.98499 l -8.53659,0 z m 15.75987,0 c -0.54569,0 -0.98499,0.43931 -0.98499,0.98499 l 0,4.59663 c 0,0.54569 0.4393,0.98499 0.98499,0.98499 l 8.53659,0 c 0.54569,0 0.98499,-0.4393 0.98499,-0.98499 l 0,-4.59663 c 0,-0.54568 -0.4393,-0.98499 -0.98499,-0.98499 l -8.53659,0 z m 15.75986,0 c -0.54568,0 -0.98499,0.43931 -0.98499,0.98499 l 0,4.59663 c 0,0.54569 0.43931,0.98499 0.98499,0.98499 l 8.5366,0 c 0.54568,0 0.98499,-0.4393 0.98499,-0.98499 l 0,-4.59663 c 0,-0.54568 -0.43931,-0.98499 -0.98499,-0.98499 l -8.5366,0 z m 15.75987,0 c -0.54568,0 -0.98499,0.43931 -0.98499,0.98499 l 0,4.59663 c 0,0.54569 0.43931,0.98499 0.98499,0.98499 l 8.5366,0 c 0.54568,0 0.98499,-0.4393 0.98499,-0.98499 l 0,-4.59663 c 0,-0.54568 -0.43931,-0.98499 -0.98499,-0.98499 l -8.5366,0 z" />
        <rect
           width="10.506577"
           height="6.5666122"
           rx="0.98499167"
           ry="0.98499197"
           x="207.83971"
           y="529.54187"
           id="rect3786"
           style="fill:#ffffff;fill-opacity:1;stroke:none;display:inline" />
        <path
           d="m 211.71796,534.85814 0,-0.60312 1.00711,0 0,-2.77318 -0.97537,0.6089 0,-0.63775 1.01865,-0.66083 0.7676,0 0,3.46286 0.9321,0 0,0.60312 -2.75009,0"
           inkscape:connector-curvature="0"
           id="text3826"
           style="font-size:9px;font-style:normal;font-variant:normal;font-weight:bold;font-stretch:normal;text-align:start;line-height:100%;writing-mode:lr-tb;text-anchor:start;fill:#666666;fill-opacity:1;stroke:none;display:inline;font-family:Liberation Sans;-inkscape-font-specification:Liberation Sans Bold" />
        <rect
           width="10.506577"
           height="6.5666122"
           rx="0.98499167"
           ry="0.98499197"
           x="223.59956"
           y="529.54187"
           id="rect3798"
           style="fill:#ffffff;fill-opacity:1;stroke:none;display:inline" />
        <path
           d="m 227.4302,534.88844 0,-0.56272 c 0.0924,-0.202 0.20489,-0.3838 0.33763,-0.5454 0.13275,-0.16352 0.27126,-0.31261 0.41555,-0.44728 0.1462,-0.13659 0.29049,-0.2626 0.43286,-0.37803 0.14428,-0.11735 0.27318,-0.2299 0.38668,-0.33763 0.11543,-0.10966 0.20874,-0.21932 0.27992,-0.32897 0.0712,-0.10966 0.10676,-0.22605 0.10677,-0.34918 -1e-5,-0.18084 -0.0452,-0.31453 -0.13563,-0.40111 -0.0904,-0.0866 -0.22316,-0.12986 -0.39823,-0.12986 -0.17314,0 -0.30589,0.0471 -0.39823,0.1414 -0.0904,0.0924 -0.1491,0.23182 -0.17603,0.41843 l -0.81666,-0.0461 c 0.0193,-0.15968 0.0587,-0.30973 0.11832,-0.45017 0.0596,-0.14043 0.14428,-0.26356 0.25395,-0.36937 0.11158,-0.10581 0.25009,-0.18853 0.41553,-0.24818 0.16738,-0.0616 0.36649,-0.0923 0.59735,-0.0923 0.21931,10e-6 0.41361,0.026 0.58292,0.0779 0.16928,0.05 0.31165,0.12409 0.42708,0.22221 0.11542,0.0981 0.20295,0.21835 0.2626,0.36071 0.0596,0.14044 0.0894,0.30108 0.0895,0.48192 -10e-6,0.19045 -0.0376,0.36264 -0.11254,0.51654 -0.075,0.15391 -0.17123,0.29627 -0.28858,0.42709 -0.11735,0.1289 -0.24817,0.2501 -0.39246,0.36359 -0.14236,0.11351 -0.28087,0.22414 -0.41554,0.33186 -0.13466,0.10774 -0.25779,0.21643 -0.36937,0.32609 -0.10966,0.10966 -0.19142,0.22702 -0.24529,0.35206 l 1.88726,0 0,0.6666 -2.84532,0"
           inkscape:connector-curvature="0"
           id="text3830"
           style="font-size:9px;font-style:normal;font-variant:normal;font-weight:bold;font-stretch:normal;text-align:start;line-height:100%;writing-mode:lr-tb;text-anchor:start;fill:#666666;fill-opacity:1;stroke:none;display:inline;font-family:Liberation Sans;-inkscape-font-specification:Liberation Sans Bold" />
        <rect
           width="10.506577"
           height="6.5666122"
           rx="0.98499167"
           ry="0.98499197"
           x="239.35944"
           y="529.54187"
           id="rect3810"
           style="fill:#ffffff;fill-opacity:1;stroke:none;display:inline" />
        <path
           d="m 246.08157,533.72693 c 0,0.18469 -0.0308,0.35111 -0.0924,0.49924 -0.0596,0.14621 -0.15006,0.27125 -0.27126,0.37514 -0.12119,0.10388 -0.27221,0.18372 -0.45306,0.23951 -0.17891,0.0539 -0.38764,0.0808 -0.62619,0.0808 -0.26549,0 -0.48962,-0.0337 -0.67238,-0.10101 -0.18083,-0.0673 -0.32993,-0.15582 -0.44728,-0.26548 -0.11543,-0.11158 -0.20296,-0.23759 -0.2626,-0.37803 -0.0577,-0.14044 -0.0952,-0.2828 -0.11255,-0.42708 l 0.82532,-0.0722 c 0.0116,0.0866 0.0328,0.16641 0.0635,0.23951 0.0327,0.0712 0.076,0.13275 0.12985,0.18469 0.0539,0.0519 0.11929,0.0923 0.19624,0.1212 0.0789,0.027 0.17122,0.0404 0.27702,0.0404 0.1943,0 0.34533,-0.0481 0.45306,-0.14429 0.10773,-0.0962 0.16159,-0.24336 0.1616,-0.44151 -1e-5,-0.12119 -0.026,-0.21835 -0.0779,-0.29145 -0.05,-0.0731 -0.11446,-0.1289 -0.19334,-0.16738 -0.077,-0.0404 -0.16065,-0.0673 -0.25106,-0.0808 -0.0904,-0.0135 -0.17603,-0.0202 -0.25684,-0.0202 l -0.28279,0 0,-0.65506 0.26549,0 c 0.0808,10e-6 0.16255,-0.008 0.24529,-0.0231 0.0847,-0.0154 0.16062,-0.0432 0.22796,-0.0837 0.0673,-0.0404 0.12217,-0.0962 0.16449,-0.16737 0.0423,-0.0731 0.0635,-0.16545 0.0635,-0.27704 0,-0.16736 -0.0471,-0.29818 -0.1414,-0.39245 -0.0924,-0.0962 -0.22798,-0.14428 -0.40689,-0.14428 -0.16737,0 -0.30301,0.0461 -0.40689,0.13851 -0.10196,0.0923 -0.16064,0.22317 -0.17603,0.39245 l -0.81088,-0.0577 c 0.0231,-0.19044 0.075,-0.3559 0.15582,-0.49633 0.0827,-0.14044 0.18565,-0.25683 0.30878,-0.34918 0.12505,-0.0923 0.26837,-0.16063 0.42997,-0.20488 0.1616,-0.0461 0.33282,-0.0693 0.51365,-0.0693 0.23856,0 0.44344,0.0289 0.61467,0.0866 0.17121,0.0577 0.31166,0.13563 0.42132,0.23373 0.10964,0.0981 0.19044,0.21258 0.24239,0.3434 0.0519,0.13083 0.0779,0.2703 0.0779,0.41843 0,0.11928 -0.0173,0.23087 -0.0519,0.33474 -0.0347,0.10197 -0.0876,0.19431 -0.15872,0.27704 -0.0693,0.0808 -0.15871,0.15102 -0.26837,0.21065 -0.10966,0.0577 -0.23952,0.10101 -0.38957,0.12986 l 0,0.0116 c 0.16737,0.0193 0.31261,0.0577 0.43574,0.11542 0.12312,0.0558 0.22412,0.12602 0.303,0.21067 0.0789,0.0847 0.13755,0.18084 0.17603,0.28857 0.0384,0.10581 0.0577,0.21836 0.0577,0.33762"
           inkscape:connector-curvature="0"
           id="text3834"
           style="font-size:9px;font-style:normal;font-variant:normal;font-weight:bold;font-stretch:normal;text-align:start;line-height:100%;writing-mode:lr-tb;text-anchor:start;fill:#666666;fill-opacity:1;stroke:none;display:inline;font-family:Liberation Sans;-inkscape-font-specification:Liberation Sans Bold" />
        <rect
           width="10.506577"
           height="6.5666122"
           rx="0.98499167"
           ry="0.98499197"
           x="255.11929"
           y="529.54187"
           id="rect3380"
           style="fill:#ffffff;fill-opacity:1;stroke:none;display:inline" />
        <path
           d="m 260.73011,533.18426 0,1.30819 -0.72464,0 0,-1.30819 -1.27933,0 0,-0.71822 1.27933,0 0,-1.30819 0.72464,0 0,1.30819 1.28896,0 0,0.71822 -1.28896,0"
           inkscape:connector-curvature="0"
           id="text3870"
           style="font-size:10px;font-style:normal;font-variant:normal;font-weight:bold;font-stretch:normal;text-align:start;line-height:100%;writing-mode:lr-tb;text-anchor:start;fill:#666666;fill-opacity:1;stroke:none;display:inline;font-family:Liberation Sans;-inkscape-font-specification:Liberation Sans Bold" />
        <rect
           width="10.506577"
           height="6.5666122"
           rx="0.98499167"
           ry="0.98499197"
           x="207.83971"
           y="519.03534"
           id="rect3790"
           style="fill:#ffffff;fill-opacity:1;stroke:none;display:inline" />
        <path
           d="m 214.1333,523.52337 0,0.82819 -0.77337,0 0,-0.82819 -1.84975,0 0,-0.6089 1.717,-2.62888 0.90612,0 0,2.63466 0.54251,0 0,0.60312 -0.54251,0 m -0.77337,-1.93343 c 0,-0.0327 0,-0.075 0,-0.12698 0.002,-0.0538 0.004,-0.1087 0.006,-0.16449 0.004,-0.0558 0.007,-0.10869 0.009,-0.15871 0.004,-0.0519 0.008,-0.0923 0.0116,-0.1212 -0.01,0.0212 -0.025,0.0519 -0.0461,0.0924 -0.0212,0.0384 -0.0452,0.0808 -0.0721,0.12697 -0.025,0.0442 -0.0519,0.0885 -0.0808,0.13274 -0.027,0.0442 -0.051,0.0827 -0.0721,0.11542 l -0.94363,1.43421 1.18892,0 0,-1.33031"
           inkscape:connector-curvature="0"
           id="text3838"
           style="font-size:9px;font-style:normal;font-variant:normal;font-weight:bold;font-stretch:normal;text-align:start;line-height:100%;writing-mode:lr-tb;text-anchor:start;fill:#666666;fill-opacity:1;stroke:none;display:inline;font-family:Liberation Sans;-inkscape-font-specification:Liberation Sans Bold" />
        <rect
           width="10.506577"
           height="6.5666122"
           rx="0.98499167"
           ry="0.98499197"
           x="223.59956"
           y="519.03534"
           id="rect3800"
           style="fill:#ffffff;fill-opacity:1;stroke:none;display:inline" />
        <path
           d="m 230.32314,522.96931 c -1e-5,0.20392 -0.0328,0.39246 -0.0981,0.5656 -0.0635,0.17122 -0.15872,0.32031 -0.28568,0.44729 -0.12698,0.12504 -0.28473,0.22316 -0.47326,0.29434 -0.18661,0.0693 -0.40304,0.10388 -0.64929,0.10388 -0.227,0 -0.42516,-0.027 -0.59445,-0.0808 -0.1693,-0.0558 -0.31262,-0.13178 -0.42997,-0.22798 -0.11544,-0.0981 -0.20682,-0.21257 -0.27415,-0.3434 -0.0654,-0.13081 -0.11061,-0.27125 -0.13563,-0.42131 l 0.81089,-0.0664 c 0.0154,0.0635 0.0366,0.12505 0.0635,0.18469 0.0289,0.0596 0.0683,0.11255 0.11831,0.15871 0.05,0.0461 0.11158,0.0837 0.18469,0.11255 0.0731,0.027 0.1616,0.0404 0.26548,0.0404 0.202,0 0.36264,-0.0644 0.48191,-0.19334 0.1212,-0.1289 0.18181,-0.31454 0.18181,-0.55694 0,-0.10774 -0.0154,-0.20489 -0.0461,-0.29147 -0.0289,-0.0866 -0.0712,-0.16063 -0.12697,-0.22219 -0.0539,-0.0616 -0.12121,-0.10869 -0.20201,-0.1414 -0.0789,-0.0327 -0.1693,-0.049 -0.27125,-0.049 -0.13467,0 -0.24529,0.026 -0.33186,0.0779 -0.0866,0.05 -0.15968,0.11158 -0.21932,0.18469 l -0.79068,0 0.1414,-2.28838 2.4442,0 0,0.60311 -1.70834,0 -0.0664,1.02732 c 0.0808,-0.0712 0.18276,-0.13178 0.30589,-0.1818 0.12312,-0.0519 0.26645,-0.0779 0.42996,-0.0779 0.20008,0 0.37899,0.0327 0.53675,0.0981 0.15775,0.0654 0.29145,0.15679 0.40111,0.27414 0.10966,0.11736 0.19334,0.25876 0.25106,0.42421 0.0577,0.16352 0.0866,0.34532 0.0866,0.54539"
           inkscape:connector-curvature="0"
           id="text3842"
           style="font-size:9px;font-style:normal;font-variant:normal;font-weight:bold;font-stretch:normal;text-align:start;line-height:100%;writing-mode:lr-tb;text-anchor:start;fill:#666666;fill-opacity:1;stroke:none;display:inline;font-family:Liberation Sans;-inkscape-font-specification:Liberation Sans Bold" />
        <rect
           width="10.506577"
           height="6.5666122"
           rx="0.98499167"
           ry="0.98499197"
           x="239.35944"
           y="519.03534"
           id="rect3812"
           style="fill:#ffffff;fill-opacity:1;stroke:none;display:inline" />
        <path
           d="m 246.04116,523.02269 c 0,0.20393 -0.0289,0.39149 -0.0866,0.56272 -0.0577,0.16929 -0.14428,0.3155 -0.25971,0.43863 -0.1135,0.1212 -0.25587,0.21643 -0.42708,0.28568 -0.17122,0.0673 -0.36938,0.101 -0.59446,0.101 -0.47903,0 -0.84744,-0.16737 -1.10523,-0.50211 -0.25586,-0.33667 -0.38381,-0.83493 -0.38381,-1.49481 0,-0.72527 0.12986,-1.27067 0.38958,-1.6362 0.26164,-0.36744 0.63486,-0.55116 1.11966,-0.55117 0.1616,10e-6 0.30877,0.0173 0.44152,0.0519 0.13273,0.0327 0.25105,0.0866 0.35494,0.1616 0.10388,0.075 0.19238,0.17218 0.26549,0.29146 0.0731,0.11736 0.13177,0.26068 0.17603,0.42997 l -0.76472,0.10677 c -0.0384,-0.14236 -0.10101,-0.24432 -0.18757,-0.30589 -0.0866,-0.0635 -0.18759,-0.0952 -0.303,-0.0952 -0.21739,0 -0.38861,0.1087 -0.51367,0.32608 -0.12312,0.2174 -0.18468,0.54733 -0.18468,0.98981 0.0866,-0.14428 0.20681,-0.25491 0.36072,-0.33186 0.1539,-0.077 0.32801,-0.11543 0.52232,-0.11543 0.1789,0 0.34051,0.0299 0.4848,0.0895 0.1462,0.0577 0.27029,0.14236 0.37225,0.25394 0.10389,0.10966 0.18372,0.24433 0.23951,0.404 0.0558,0.15967 0.0837,0.33955 0.0837,0.53963 m -0.81377,0.0231 c 0,-0.10965 -0.0125,-0.20777 -0.0375,-0.29434 -0.025,-0.0885 -0.0635,-0.16352 -0.11542,-0.22509 -0.05,-0.0616 -0.11255,-0.10869 -0.18757,-0.1414 -0.075,-0.0346 -0.16161,-0.0519 -0.25973,-0.0519 -0.0712,0 -0.14236,0.0116 -0.21354,0.0347 -0.0712,0.0231 -0.13467,0.0606 -0.19045,0.11255 -0.0558,0.05 -0.101,0.11447 -0.13563,0.19334 -0.0347,0.0789 -0.0519,0.17411 -0.0519,0.28569 0,0.11543 0.0144,0.22316 0.0433,0.3232 0.0289,0.10004 0.0693,0.18757 0.12119,0.2626 0.0538,0.0731 0.11832,0.13081 0.19335,0.17314 0.075,0.0404 0.15967,0.0606 0.25394,0.0606 0.18276,0 0.32512,-0.0644 0.42709,-0.19334 0.10196,-0.13083 0.15295,-0.3107 0.15295,-0.53963"
           inkscape:connector-curvature="0"
           id="text3846"
           style="font-size:9px;font-style:normal;font-variant:normal;font-weight:bold;font-stretch:normal;text-align:start;line-height:100%;writing-mode:lr-tb;text-anchor:start;fill:#666666;fill-opacity:1;stroke:none;display:inline;font-family:Liberation Sans;-inkscape-font-specification:Liberation Sans Bold" />
        <rect
           width="10.506577"
           height="6.5666122"
           rx="0.98499167"
           ry="0.98499197"
           x="255.11929"
           y="519.03534"
           id="rect3372"
           style="fill:#ffffff;fill-opacity:1;stroke:none;display:inline" />
        <path
           d="m 258.95886,522.70975 0,-0.78235 2.82749,0 0,0.78235 -2.82749,0"
           inkscape:connector-curvature="0"
           id="text3874"
           style="font-size:10px;font-style:normal;font-variant:normal;font-weight:bold;font-stretch:normal;text-align:start;line-height:100%;writing-mode:lr-tb;text-anchor:start;fill:#666666;fill-opacity:1;stroke:none;display:inline;font-family:Liberation Sans;-inkscape-font-specification:Liberation Sans Bold" />
        <rect
           width="10.506577"
           height="6.5666122"
           rx="0.98499167"
           ry="0.98499197"
           x="207.83971"
           y="508.52869"
           id="rect3794"
           style="fill:#ffffff;fill-opacity:1;stroke:none;display:inline" />
        <path
           d="m 214.47959,510.42252 c -0.18277,0.28857 -0.35591,0.56849 -0.51943,0.83975 -0.1616,0.27126 -0.303,0.54444 -0.42421,0.81954 -0.1212,0.27319 -0.21739,0.55502 -0.28857,0.84551 -0.0693,0.28858 -0.10388,0.59447 -0.10388,0.91767 l -0.84552,0 c 0,-0.32129 0.0375,-0.6262 0.11255,-0.91478 0.077,-0.29049 0.18083,-0.5733 0.31166,-0.8484 0.13081,-0.2751 0.28279,-0.54636 0.45594,-0.81377 0.17314,-0.26933 0.3559,-0.54347 0.54828,-0.82243 l -2.02,0 0,-0.6666 2.77318,0 0,0.64351"
           inkscape:connector-curvature="0"
           id="text3850"
           style="font-size:9px;font-style:normal;font-variant:normal;font-weight:bold;font-stretch:normal;text-align:start;line-height:100%;writing-mode:lr-tb;text-anchor:start;fill:#666666;fill-opacity:1;stroke:none;display:inline;font-family:Liberation Sans;-inkscape-font-specification:Liberation Sans Bold" />
        <rect
           width="10.506577"
           height="6.5666122"
           rx="0.98499167"
           ry="0.98499197"
           x="223.59956"
           y="508.52869"
           id="rect3802"
           style="fill:#ffffff;fill-opacity:1;stroke:none;display:inline" />
        <path
           d="m 230.3116,512.70079 c 0,0.17508 -0.0289,0.33668 -0.0866,0.4848 -0.0577,0.14622 -0.14622,0.27319 -0.26549,0.38092 -0.11928,0.10581 -0.2703,0.18854 -0.45306,0.24817 -0.18276,0.0596 -0.40015,0.0895 -0.65217,0.0895 -0.2501,0 -0.46749,-0.0299 -0.65217,-0.0895 -0.18276,-0.0596 -0.33475,-0.14236 -0.45595,-0.24817 -0.11927,-0.10773 -0.20777,-0.2347 -0.26548,-0.38092 -0.0577,-0.1462 -0.0866,-0.30588 -0.0866,-0.47902 0,-0.14813 0.0231,-0.27896 0.0693,-0.39246 0.0461,-0.11543 0.10774,-0.2145 0.18469,-0.29722 0.077,-0.0827 0.16544,-0.14814 0.26548,-0.19623 0.10004,-0.05 0.20296,-0.0837 0.30877,-0.10101 l 0,-0.0115 c -0.1135,-0.025 -0.21546,-0.0664 -0.30588,-0.12409 -0.0904,-0.0577 -0.16738,-0.12697 -0.23085,-0.20777 -0.0635,-0.0808 -0.11255,-0.17026 -0.14717,-0.26838 -0.0327,-0.10003 -0.049,-0.20392 -0.049,-0.31166 0,-0.16159 0.0289,-0.30876 0.0866,-0.44151 0.0596,-0.13273 0.14621,-0.24624 0.25971,-0.34051 0.1135,-0.0943 0.25394,-0.1664 0.42131,-0.21643 0.16929,-0.0519 0.36457,-0.0779 0.5858,-0.0779 0.23662,1e-5 0.44056,0.027 0.61177,0.0808 0.17314,0.0519 0.3155,0.12601 0.42708,0.2222 0.11158,0.0943 0.19432,0.20778 0.24818,0.34051 0.0538,0.13275 0.0808,0.27896 0.0808,0.43863 0,0.10581 -0.0173,0.20874 -0.0519,0.30877 -0.0327,0.0981 -0.0808,0.18758 -0.14429,0.26838 -0.0635,0.0808 -0.14139,0.14909 -0.23373,0.20488 -0.0904,0.0558 -0.19335,0.0952 -0.30878,0.11832 l 0,0.0115 c 0.11928,0.0193 0.2299,0.0548 0.33185,0.10678 0.10389,0.05 0.19335,0.11639 0.26838,0.19911 0.075,0.0808 0.1337,0.17891 0.17603,0.29435 0.0423,0.1135 0.0635,0.24239 0.0635,0.38668 m -0.93497,-1.85552 c 0,-0.0808 -0.009,-0.15487 -0.026,-0.2222 -0.0173,-0.0693 -0.0461,-0.12793 -0.0866,-0.17603 -0.0405,-0.05 -0.0953,-0.0885 -0.16449,-0.11543 -0.0673,-0.0289 -0.15295,-0.0433 -0.25684,-0.0433 -0.10004,0 -0.18372,0.0145 -0.25105,0.0433 -0.0673,0.027 -0.1212,0.0654 -0.1616,0.11543 -0.0404,0.0481 -0.0693,0.10678 -0.0866,0.17603 -0.0173,0.0673 -0.026,0.1414 -0.026,0.2222 0,0.0712 0.007,0.1414 0.0202,0.21066 0.0154,0.0693 0.0423,0.13178 0.0808,0.18756 0.0384,0.0539 0.0923,0.0981 0.1616,0.13276 0.0693,0.0346 0.15871,0.0519 0.26838,0.0519 0.11542,0 0.20776,-0.0173 0.27702,-0.0519 0.0712,-0.0346 0.12504,-0.0799 0.1616,-0.13564 0.0365,-0.0558 0.0606,-0.11831 0.0721,-0.18756 0.0116,-0.0693 0.0173,-0.13852 0.0173,-0.20778 m 0.0952,1.78915 c 0,-0.0827 -0.01,-0.16257 -0.0289,-0.23952 -0.0173,-0.077 -0.05,-0.14428 -0.0981,-0.202 -0.0461,-0.0596 -0.11062,-0.10677 -0.19334,-0.1414 -0.0827,-0.0365 -0.18758,-0.0548 -0.31454,-0.0548 -0.11543,0 -0.21259,0.0183 -0.29146,0.0548 -0.077,0.0346 -0.13948,0.0818 -0.18757,0.1414 -0.0461,0.0596 -0.0798,0.12889 -0.10101,0.20777 -0.0193,0.077 -0.0289,0.15872 -0.0289,0.24529 0,0.10196 0.01,0.19527 0.0289,0.27991 0.0212,0.0847 0.0558,0.15776 0.10389,0.21932 0.05,0.0596 0.11543,0.10581 0.19623,0.13852 0.0808,0.0327 0.1818,0.049 0.303,0.049 0.1212,0 0.22123,-0.0164 0.30011,-0.049 0.0789,-0.0346 0.1414,-0.0827 0.18758,-0.14429 0.0461,-0.0616 0.0779,-0.13467 0.0952,-0.21932 0.0193,-0.0866 0.0289,-0.1818 0.0289,-0.28568"
           inkscape:connector-curvature="0"
           id="text3854"
           style="font-size:9px;font-style:normal;font-variant:normal;font-weight:bold;font-stretch:normal;text-align:start;line-height:100%;writing-mode:lr-tb;text-anchor:start;fill:#666666;fill-opacity:1;stroke:none;display:inline;font-family:Liberation Sans;-inkscape-font-specification:Liberation Sans Bold" />
        <rect
           width="10.506577"
           height="6.5666122"
           rx="0.98499167"
           ry="0.98499197"
           x="239.35944"
           y="508.52869"
           id="rect3814"
           style="fill:#ffffff;fill-opacity:1;stroke:none;display:inline" />
        <path
           d="m 246.04405,511.74851 c 0,0.72143 -0.13178,1.26106 -0.39534,1.61889 -0.26357,0.35783 -0.63775,0.53674 -1.12255,0.53674 -0.17507,0 -0.33282,-0.0183 -0.47325,-0.0548 -0.13852,-0.0365 -0.25972,-0.0933 -0.3636,-0.17025 -0.10389,-0.077 -0.19239,-0.17603 -0.26549,-0.29723 -0.0712,-0.1212 -0.12793,-0.26549 -0.17026,-0.43287 l 0.76184,-0.10676 c 0.0384,0.14428 0.10099,0.25106 0.18756,0.32031 0.0885,0.0693 0.19911,0.10388 0.33186,0.10388 0.10966,0 0.20777,-0.026 0.29435,-0.0779 0.0866,-0.0519 0.16063,-0.13081 0.22219,-0.23662 0.0616,-0.10581 0.10869,-0.23952 0.1414,-0.40112 0.0347,-0.16353 0.0529,-0.3559 0.0548,-0.57714 -0.0384,0.075 -0.0894,0.1414 -0.15294,0.19911 -0.0635,0.0577 -0.13563,0.10581 -0.21642,0.14429 -0.0789,0.0384 -0.16353,0.0683 -0.25395,0.0894 -0.0904,0.0193 -0.1818,0.0289 -0.27414,0.0289 -0.17699,10e-6 -0.33763,-0.0308 -0.48191,-0.0923 -0.14429,-0.0635 -0.26741,-0.15391 -0.36938,-0.27126 -0.10196,-0.11735 -0.18083,-0.25875 -0.23662,-0.42421 -0.0538,-0.16737 -0.0808,-0.3559 -0.0808,-0.56559 0,-0.21547 0.0317,-0.40785 0.0952,-0.57715 0.0654,-0.16929 0.15872,-0.31166 0.27991,-0.42708 0.1212,-0.11735 0.26933,-0.20585 0.4444,-0.26549 0.177,-0.0616 0.37707,-0.0923 0.60024,-0.0924 0.23469,1e-5 0.44151,0.0405 0.62042,0.12121 0.18084,0.0789 0.33186,0.202 0.45306,0.36936 0.12119,0.16546 0.21258,0.37611 0.27414,0.63198 0.0635,0.25395 0.0952,0.55598 0.0952,0.90612 m -0.85705,-0.56849 c -10e-6,-0.11543 -0.0135,-0.22316 -0.0404,-0.3232 -0.025,-0.10196 -0.0635,-0.18949 -0.11543,-0.2626 -0.0519,-0.075 -0.11543,-0.13371 -0.19046,-0.17603 -0.075,-0.0423 -0.1616,-0.0635 -0.25971,-0.0635 -0.0904,0 -0.17122,0.0173 -0.24239,0.0519 -0.0712,0.0327 -0.13179,0.0808 -0.18181,0.14429 -0.05,0.0635 -0.0885,0.14044 -0.11543,0.23086 -0.025,0.0904 -0.0376,0.19238 -0.0376,0.30588 0,0.10582 0.0125,0.2049 0.0376,0.29723 0.025,0.0904 0.0616,0.1693 0.10965,0.23664 0.0481,0.0654 0.1087,0.11734 0.18181,0.15582 0.0731,0.0365 0.15678,0.0548 0.25105,0.0548 0.075,0 0.14814,-0.0135 0.21932,-0.0404 0.0731,-0.027 0.13756,-0.0673 0.19334,-0.12119 0.0577,-0.0539 0.10388,-0.1212 0.13852,-0.20201 0.0346,-0.0827 0.0519,-0.17891 0.0519,-0.28857"
           inkscape:connector-curvature="0"
           id="text3858"
           style="font-size:9px;font-style:normal;font-variant:normal;font-weight:bold;font-stretch:normal;text-align:start;line-height:100%;writing-mode:lr-tb;text-anchor:start;fill:#666666;fill-opacity:1;stroke:none;display:inline;font-family:Liberation Sans;-inkscape-font-specification:Liberation Sans Bold" />
        <rect
           width="10.506577"
           height="6.5666122"
           rx="0.98499167"
           ry="0.98499197"
           x="255.11929"
           y="508.52869"
           id="rect3396"
           style="fill:#ffffff;fill-opacity:1;stroke:none;display:inline" />
        <path
           d="m 258.7566,513.07658 c 0.14193,0 0.2642,-0.0197 0.36681,-0.059 0.1043,-0.0411 0.19408,-0.094 0.26932,-0.15904 0.077,-0.065 0.14023,-0.13851 0.18983,-0.22059 0.0513,-0.082 0.0932,-0.16503 0.12568,-0.24882 l 0.65923,0.24882 c -0.053,0.12996 -0.12227,0.25737 -0.20777,0.38219 -0.0855,0.12484 -0.19239,0.23514 -0.32064,0.3309 -0.12825,0.0958 -0.28131,0.17358 -0.45915,0.23342 -0.17613,0.0581 -0.38391,0.0872 -0.62331,0.0872 -0.31295,0 -0.58399,-0.0461 -0.81313,-0.13851 -0.22916,-0.0941 -0.41897,-0.22402 -0.56945,-0.38989 -0.14878,-0.16759 -0.25993,-0.36595 -0.33346,-0.5951 -0.0718,-0.22915 -0.10774,-0.47967 -0.10774,-0.75157 0,-0.28215 0.0359,-0.53696 0.10774,-0.76439 0.0735,-0.22744 0.18383,-0.42067 0.3309,-0.57971 0.14706,-0.16074 0.3326,-0.28387 0.55662,-0.36937 0.22572,-0.0872 0.49078,-0.13082 0.79517,-0.13082 0.23599,0 0.44205,0.0248 0.61818,0.0744 0.17785,0.0496 0.3309,0.11971 0.45915,0.21033 0.12996,0.0889 0.23685,0.19495 0.32064,0.31807 0.0855,0.12142 0.1522,0.25566 0.20008,0.40272 l -0.66692,0.18212 c -0.024,-0.077 -0.0607,-0.15048 -0.1103,-0.22059 -0.0496,-0.0718 -0.11287,-0.13509 -0.18982,-0.18982 -0.0752,-0.0547 -0.16417,-0.0983 -0.26677,-0.13082 -0.1026,-0.0342 -0.21889,-0.0513 -0.34885,-0.0513 -0.18298,0 -0.3403,0.0299 -0.47197,0.0898 -0.13168,0.0581 -0.24027,0.14193 -0.32577,0.25138 -0.0838,0.10944 -0.14621,0.24111 -0.18725,0.39502 -0.0393,0.15219 -0.059,0.3232 -0.059,0.51301 0,0.18811 0.0196,0.36083 0.059,0.51815 0.0411,0.15562 0.10431,0.28985 0.18982,0.40271 0.0855,0.11287 0.19495,0.20094 0.32833,0.26421 0.13509,0.0633 0.29669,0.0949 0.4848,0.0949 m 2.10849,0.54379 0,-3.6142 2.84211,0 0,0.58484 -2.0854,0 0,0.90804 1.92893,0 0,0.58484 -1.92893,0 0,0.95165 2.19057,0 0,0.58483 -2.94728,0"
           inkscape:connector-curvature="0"
           id="text3878"
           style="font-size:8px;font-style:normal;font-variant:normal;font-weight:bold;font-stretch:normal;text-align:start;line-height:100%;writing-mode:lr-tb;text-anchor:start;fill:#666666;fill-opacity:1;stroke:none;display:inline;font-family:Liberation Sans;-inkscape-font-specification:Liberation Sans Bold" />
        <rect
           width="10.506577"
           height="6.5666122"
           rx="0.98499167"
           ry="0.98499197"
           x="207.83971"
           y="540.04846"
           id="rect3382"
           style="fill:#ffffff;fill-opacity:1;stroke:none;display:inline" />
        <path
           d="m 214.49834,543.33172 c 0,0.38862 -0.0356,0.71662 -0.10676,0.98403 -0.0712,0.26549 -0.17027,0.48096 -0.29724,0.6464 -0.12505,0.16353 -0.27415,0.28184 -0.44729,0.35495 -0.17122,0.0712 -0.35879,0.10677 -0.56271,0.10677 -0.20393,0 -0.39149,-0.0356 -0.56272,-0.10677 -0.17121,-0.0712 -0.31839,-0.18854 -0.44151,-0.35206 -0.12312,-0.16545 -0.21932,-0.38092 -0.28857,-0.64641 -0.0693,-0.2674 -0.10388,-0.59638 -0.10388,-0.98691 0,-0.40977 0.0337,-0.74835 0.101,-1.01577 0.0692,-0.26933 0.1664,-0.48383 0.29145,-0.64351 0.12505,-0.15968 0.27414,-0.27126 0.44729,-0.33475 0.17507,-0.0654 0.36841,-0.0981 0.58003,-0.0981 0.19815,0 0.38188,0.0327 0.55117,0.0981 0.17121,0.0635 0.31839,0.17507 0.44151,0.33475 0.12505,0.15968 0.2222,0.37418 0.29147,0.64351 0.0712,0.26742 0.10676,0.606 0.10676,1.01577 m -0.81377,0 c 0,-0.28664 -0.0106,-0.52328 -0.0318,-0.70988 -0.0212,-0.18853 -0.0548,-0.33763 -0.10101,-0.44729 -0.0461,-0.11157 -0.10677,-0.18949 -0.18179,-0.23374 -0.0731,-0.0442 -0.16257,-0.0664 -0.26838,-0.0664 -0.1135,0 -0.20873,0.0231 -0.28568,0.0693 -0.077,0.0442 -0.13947,0.12216 -0.18757,0.23374 -0.0461,0.11158 -0.0798,0.26164 -0.101,0.45018 -0.0193,0.1866 -0.0289,0.42131 -0.0289,0.7041 0,0.27896 0.0106,0.51174 0.0317,0.69835 0.0212,0.18661 0.0548,0.33667 0.101,0.45018 0.0461,0.11158 0.10677,0.19046 0.1818,0.23663 0.075,0.0461 0.16737,0.0693 0.27703,0.0693 0.10581,0 0.19622,-0.0231 0.27126,-0.0693 0.075,-0.0462 0.13658,-0.12505 0.18469,-0.23663 0.0481,-0.11351 0.0827,-0.26357 0.10388,-0.45018 0.0231,-0.18661 0.0347,-0.41939 0.0347,-0.69835"
           inkscape:connector-curvature="0"
           id="text3822"
           style="font-size:9px;font-style:normal;font-variant:normal;font-weight:bold;font-stretch:normal;text-align:start;line-height:100%;writing-mode:lr-tb;text-anchor:start;fill:#666666;fill-opacity:1;stroke:none;display:inline;font-family:Liberation Sans;-inkscape-font-specification:Liberation Sans Bold" />
        <rect
           width="10.506577"
           height="6.5666122"
           rx="0.98499167"
           ry="0.98499197"
           x="223.59956"
           y="-546.61511"
           transform="scale(1,-1)"
           id="rect3384"
           style="fill:#ffffff;fill-opacity:1;stroke:none;display:inline" />
        <path
           d="m 228.38955,545.13402 0,-0.97794 0.92663,0 0,0.97794 -0.92663,0"
           inkscape:connector-curvature="0"
           id="text3862"
           style="font-size:10px;font-style:normal;font-variant:normal;font-weight:bold;font-stretch:normal;text-align:start;line-height:100%;writing-mode:lr-tb;text-anchor:start;fill:#666666;fill-opacity:1;stroke:none;display:inline;font-family:Liberation Sans;-inkscape-font-specification:Liberation Sans Bold" />
        <rect
           width="10.506577"
           height="6.5666122"
           rx="0.98499167"
           ry="0.98499197"
           x="239.35944"
           y="540.04846"
           id="rect3386"
           style="fill:#ffffff;fill-opacity:1;stroke:none;display:inline" />
        <path
           d="m 247.08868,544.11809 c 0,0.24047 -0.027,0.44343 -0.0808,0.60888 -0.0538,0.16545 -0.12697,0.29915 -0.21931,0.40112 -0.0924,0.10004 -0.20104,0.17217 -0.32608,0.21643 -0.12314,0.0442 -0.25491,0.0664 -0.39535,0.0664 -0.14429,0 -0.27895,-0.0222 -0.40399,-0.0664 -0.12313,-0.0442 -0.23087,-0.11639 -0.3232,-0.21643 -0.0904,-0.10197 -0.16258,-0.23567 -0.21643,-0.40112 -0.0519,-0.16545 -0.0779,-0.36841 -0.0779,-0.60888 -1e-5,-0.25395 0.026,-0.46364 0.0779,-0.62909 0.0539,-0.16737 0.12695,-0.30011 0.21931,-0.39823 0.0923,-0.10004 0.20103,-0.16929 0.32609,-0.20777 0.12696,-0.0404 0.26355,-0.0606 0.40977,-0.0606 0.1385,0 0.26933,0.0202 0.39245,0.0606 0.12313,0.0385 0.2299,0.10773 0.32032,0.20777 0.0923,0.0981 0.16448,0.23086 0.21642,0.39823 0.0538,0.16545 0.0808,0.37514 0.0808,0.62909 m -3.50615,1.24663 -0.59445,0 2.65485,-4.06598 0.60312,0 -2.66352,4.06598 m -0.41554,-4.11215 c 0.13851,10e-6 0.26933,0.0202 0.39246,0.0606 0.12312,0.0384 0.23085,0.10677 0.3232,0.20488 0.0923,0.0981 0.16545,0.23086 0.2193,0.39823 0.0539,0.16545 0.0808,0.37514 0.0808,0.62908 0,0.24049 -0.027,0.44345 -0.0808,0.60889 -0.0538,0.16544 -0.12792,0.29916 -0.22218,0.40112 -0.0924,0.10195 -0.20105,0.17506 -0.32609,0.21931 -0.12506,0.0442 -0.25876,0.0664 -0.40113,0.0664 -0.14043,0 -0.27317,-0.0222 -0.39821,-0.0664 -0.12313,-0.0442 -0.23087,-0.11638 -0.3232,-0.21643 -0.0904,-0.10196 -0.16258,-0.23567 -0.21644,-0.40112 -0.0519,-0.16544 -0.0779,-0.36937 -0.0779,-0.61177 0,-0.25394 0.026,-0.46363 0.0779,-0.62908 0.0519,-0.16737 0.12409,-0.30011 0.21644,-0.39823 0.0923,-0.0981 0.20103,-0.1664 0.32608,-0.20488 0.12697,-0.0404 0.26356,-0.0606 0.40977,-0.0606 m 3.30126,2.86552 c 0,-0.16737 -0.009,-0.30589 -0.026,-0.41555 -0.0154,-0.10965 -0.0395,-0.19622 -0.0721,-0.25971 -0.0327,-0.0654 -0.0731,-0.11062 -0.12121,-0.13563 -0.0481,-0.027 -0.10485,-0.0404 -0.17026,-0.0404 -0.0712,10e-6 -0.13275,0.0135 -0.18468,0.0404 -0.05,0.025 -0.0914,0.0702 -0.12409,0.13563 -0.0327,0.0654 -0.0577,0.15294 -0.075,0.26259 -0.0154,0.10967 -0.0231,0.24722 -0.0231,0.41267 0,0.1616 0.008,0.29626 0.0231,0.40399 0.0154,0.10581 0.0394,0.19142 0.0721,0.25684 0.0346,0.0654 0.077,0.11158 0.12697,0.13851 0.05,0.027 0.10965,0.0404 0.17892,0.0404 0.0635,0 0.11926,-0.0135 0.16737,-0.0404 0.05,-0.027 0.0914,-0.0721 0.12409,-0.13563 0.0346,-0.0654 0.0606,-0.15198 0.0779,-0.25972 0.0173,-0.10773 0.026,-0.24239 0.026,-0.40399 m -2.91168,-1.57272 c 0,-0.16545 -0.009,-0.30204 -0.026,-0.40978 -0.0154,-0.10965 -0.0394,-0.19622 -0.0721,-0.25971 -0.0327,-0.0654 -0.0731,-0.11061 -0.1212,-0.13562 -0.0481,-0.027 -0.10486,-0.0404 -0.17026,-0.0404 -0.0712,1e-5 -0.13275,0.0135 -0.18468,0.0404 -0.0519,0.027 -0.0943,0.0731 -0.12698,0.13851 -0.0327,0.0635 -0.0577,0.15006 -0.075,0.25971 -0.0154,0.10774 -0.0231,0.24336 -0.0231,0.40689 0,0.16161 0.008,0.29627 0.0231,0.40399 0.0173,0.10775 0.0423,0.19432 0.075,0.25973 0.0346,0.0654 0.077,0.11254 0.12698,0.14139 0.05,0.027 0.10965,0.0405 0.17891,0.0405 0.0654,0 0.12216,-0.0135 0.17026,-0.0405 0.05,-0.027 0.0914,-0.0731 0.12408,-0.13851 0.0346,-0.0654 0.0596,-0.15197 0.075,-0.25972 0.0173,-0.10965 0.026,-0.24527 0.026,-0.40688"
           inkscape:connector-curvature="0"
           id="text3866"
           style="font-size:9px;font-style:normal;font-variant:normal;font-weight:bold;font-stretch:normal;text-align:start;line-height:100%;writing-mode:lr-tb;text-anchor:start;fill:#666666;fill-opacity:1;stroke:none;display:inline;font-family:Liberation Sans;-inkscape-font-specification:Liberation Sans Bold" />
        <rect
           width="10.506577"
           height="6.5666122"
           rx="0.98499167"
           ry="0.98499197"
           x="255.11929"
           y="540.04846"
           id="rect3388"
           style="fill:#ffffff;fill-opacity:1;stroke:none;display:inline" />
        <path
           d="m 258.72614,542.80589 0,-0.71502 3.29293,0 0,0.71502 -3.29293,0 m 0,1.76669 0,-0.70859 3.29293,0 0,0.70859 -3.29293,0"
           inkscape:connector-curvature="0"
           id="text3882"
           style="font-size:10px;font-style:normal;font-variant:normal;font-weight:bold;font-stretch:normal;text-align:start;line-height:100%;writing-mode:lr-tb;text-anchor:start;fill:#666666;fill-opacity:1;stroke:none;display:inline;font-family:Liberation Sans;-inkscape-font-specification:Liberation Sans Bold" />
      </g>
    </g>
    <g
       id="g4425"
       transform="translate(-148.49242,-64.144687)">
      <rect
         style="fill:#654bff;fill-opacity:1;stroke:none"
         id="rect4427"
         width="96"
         height="96"
         x="187.3833"
         y="463.44324" />
      <path
         style="fill:#ffffff;fill-opacity:1;fill-rule:evenodd;stroke:none"
         id="path4429"
         inkscape:connector-curvature="0"
         d="m 200.37941,529.70582 c -0.0334,-13.43579 19.4056,-52.25635 28.45377,-52.46037 4.52492,-0.10203 11.3044,8.48946 17.00692,19.59613 5.70252,11.10666 10.32807,24.7285 10.54515,34.68719 0,0 -21.89138,-42.7633 -27.35169,-42.88989 -5.56051,-0.1266 -20.65311,30.12868 -18.85783,33.49889 1.75332,3.29143 34.28698,-7.31935 34.28698,-7.31935 -0.70132,1.08027 -21.94146,15.12371 -37.87157,18.43203 -2.40454,-0.0675 -6.01136,-0.0338 -6.21173,-3.54463 z" />
      <path
         style="fill:#ffffff;fill-opacity:1;stroke:none"
         id="path4431"
         inkscape:connector-curvature="0"
         d="m 258.70304,513.62867 c -3.38408,6.89498 -8.15944,11.79842 -9.89799,10.86439 -1.8544,-0.9963 -0.9579,-7.35076 2.51443,-14.42553 3.4715,-7.0731 8.88082,-13.20349 12.43604,-21.10072 0.67755,-1.50503 1.98962,-3.72852 3.85243,-2.7841 1.93084,0.97891 1.40699,2.81071 0.38687,4.89142 -3.9395,8.03525 -5.9077,15.65956 -9.29178,22.55454 z" />
      <path
         style="fill:#ffffff;fill-opacity:1;fill-rule:evenodd;stroke:none"
         id="path4433"
         inkscape:connector-curvature="0"
         d="m 236.35866,546.39246 c 0,0 2.01188,-7.84677 3.57776,-11.0769 1.56588,-3.23014 5.26811,-9.65582 5.26811,-9.65582 0,0 1.06816,-1.59777 2.79245,-0.74791 1.72427,0.84984 1.22657,2.4822 1.22657,2.4822 0,0 -2.60032,3.91627 -2.81666,6.93803 -0.1247,1.74186 0.28363,2.45369 0.28363,2.45369 0,0 -7.16128,5.38464 -10.33186,9.60671 z" />
    </g>
  </g>
</svg>
