<?xml version="1.0" encoding="UTF-8" standalone="no"?>
<!-- Created with Inkscape (http://www.inkscape.org/) -->

<svg
   xmlns:dc="http://purl.org/dc/elements/1.1/"
   xmlns:cc="http://creativecommons.org/ns#"
   xmlns:rdf="http://www.w3.org/1999/02/22-rdf-syntax-ns#"
   xmlns:svg="http://www.w3.org/2000/svg"
   xmlns="http://www.w3.org/2000/svg"
   xmlns:xlink="http://www.w3.org/1999/xlink"
   xmlns:sodipodi="http://sodipodi.sourceforge.net/DTD/sodipodi-0.dtd"
   xmlns:inkscape="http://www.inkscape.org/namespaces/inkscape"
   version="1.0"
   width="96"
   height="96"
   id="svg2408"
   inkscape:version="0.48.4 r9939"
   sodipodi:docname="computerjanitor.svg">
  <sodipodi:namedview
     pagecolor="#ffffff"
     bordercolor="#666666"
     borderopacity="1"
     objecttolerance="10"
     gridtolerance="10"
     guidetolerance="10"
     inkscape:pageopacity="0"
     inkscape:pageshadow="2"
     inkscape:window-width="640"
     inkscape:window-height="480"
     id="namedview226"
     showgrid="false"
     inkscape:zoom="2.4583333"
     inkscape:cx="84.374023"
     inkscape:cy="76.306603"
     inkscape:window-x="114"
     inkscape:window-y="134"
     inkscape:window-maximized="0"
     inkscape:current-layer="svg2408" />
  <defs
     id="defs2410">
    <linearGradient
       id="linearGradient3965">
      <stop
         id="stop3967"
         style="stop-color:#5fabd3;stop-opacity:1"
         offset="0" />
      <stop
         id="stop3969"
         style="stop-color:#0e3e5d;stop-opacity:1"
         offset="1" />
    </linearGradient>
    <linearGradient
       id="linearGradient3924">
      <stop
         id="stop3926"
         style="stop-color:#033b62;stop-opacity:1"
         offset="0" />
      <stop
         id="stop3928"
         style="stop-color:#156c95;stop-opacity:1"
         offset="1" />
    </linearGradient>
    <linearGradient
       id="linearGradient3768">
      <stop
         id="stop3770"
         style="stop-color:#cae6f9;stop-opacity:1"
         offset="0" />
      <stop
         id="stop3772"
         style="stop-color:#71bddf;stop-opacity:1"
         offset="0.37064087" />
      <stop
         id="stop3774"
         style="stop-color:#2b6e8b;stop-opacity:1"
         offset="0.7159912" />
      <stop
         id="stop3776"
         style="stop-color:#1d3f5a;stop-opacity:1"
         offset="1" />
    </linearGradient>
    <linearGradient
       id="linearGradient3640">
      <stop
         id="stop3642"
         style="stop-color:#ffffff;stop-opacity:1"
         offset="0" />
      <stop
         id="stop3644"
         style="stop-color:#ffffff;stop-opacity:0"
         offset="1" />
    </linearGradient>
    <linearGradient
       x1="45.447727"
       y1="92.539597"
       x2="45.447727"
       y2="7.0165396"
       id="ButtonShadow"
       gradientUnits="userSpaceOnUse"
       gradientTransform="scale(1.0058652,0.994169)">
      <stop
         id="stop3750"
         style="stop-color:#000000;stop-opacity:1"
         offset="0" />
      <stop
         id="stop3752"
         style="stop-color:#000000;stop-opacity:0.58823532"
         offset="1" />
    </linearGradient>
    <linearGradient
       id="linearGradient3737">
      <stop
         id="stop3739"
         style="stop-color:#ffffff;stop-opacity:1"
         offset="0" />
      <stop
         id="stop3741"
         style="stop-color:#ffffff;stop-opacity:0"
         offset="1" />
    </linearGradient>
    <filter
       color-interpolation-filters="sRGB"
       id="filter3174">
      <feGaussianBlur
         id="feGaussianBlur3176"
         stdDeviation="1.71" />
    </filter>
    <linearGradient
       x1="36.357143"
       y1="6"
       x2="36.357143"
       y2="63.893143"
       id="linearGradient3188"
       xlink:href="#linearGradient3737"
       gradientUnits="userSpaceOnUse" />
    <filter
       x="-0.192"
       y="-0.192"
       width="1.3839999"
       height="1.3839999"
       color-interpolation-filters="sRGB"
       id="filter3794">
      <feGaussianBlur
         id="feGaussianBlur3796"
         stdDeviation="5.28" />
    </filter>
    <radialGradient
       cx="48"
       cy="90.171875"
       r="42"
       fx="48"
       fy="90.171875"
       id="radialGradient3619"
       xlink:href="#linearGradient3737"
       gradientUnits="userSpaceOnUse"
       gradientTransform="matrix(1.1573129,0,0,0.99590774,-7.5510206,0.19713193)" />
    <clipPath
       id="clipPath3613">
      <rect
         width="84"
         height="84"
         rx="6"
         ry="6"
         x="6"
         y="6"
         id="rect3615"
         style="fill:#ffffff;fill-opacity:1;fill-rule:nonzero;stroke:none" />
    </clipPath>
    <linearGradient
       x1="6"
       y1="48"
       x2="90"
       y2="48"
       id="linearGradient3633"
       xlink:href="#linearGradient3924"
       gradientUnits="userSpaceOnUse"
       gradientTransform="translate(-96,0)" />
    <linearGradient
       x1="40"
       y1="8"
       x2="40"
       y2="56"
       id="linearGradient3646"
       xlink:href="#linearGradient3640"
       gradientUnits="userSpaceOnUse" />
    <filter
       x="-0.18000001"
       y="-0.18000001"
       width="1.36"
       height="1.36"
       color-interpolation-filters="sRGB"
       id="filter3740">
      <feGaussianBlur
         id="feGaussianBlur3742"
         stdDeviation="0.75" />
    </filter>
    <radialGradient
       cx="21"
       cy="71"
       r="5"
       fx="21"
       fy="71"
       id="radialGradient3794"
       xlink:href="#linearGradient3768"
       gradientUnits="userSpaceOnUse"
       gradientTransform="matrix(1.2,0,0,1.2,-4.2,-14.2)" />
    <linearGradient
       x1="19.501364"
       y1="64.030319"
       x2="19.501364"
       y2="74.196297"
       id="linearGradient3796"
       xlink:href="#linearGradient3737"
       gradientUnits="userSpaceOnUse" />
    <radialGradient
       cx="21"
       cy="71"
       r="5"
       fx="21"
       fy="71"
       id="radialGradient3808"
       xlink:href="#linearGradient3768"
       gradientUnits="userSpaceOnUse"
       gradientTransform="matrix(1.2,0,0,1.2,-4.2,-14.2)" />
    <linearGradient
       x1="19.501364"
       y1="64.030319"
       x2="19.501364"
       y2="74.196297"
       id="linearGradient3810"
       xlink:href="#linearGradient3737"
       gradientUnits="userSpaceOnUse" />
    <radialGradient
       cx="21"
       cy="71"
       r="5"
       fx="21"
       fy="71"
       id="radialGradient3822"
       xlink:href="#linearGradient3768"
       gradientUnits="userSpaceOnUse"
       gradientTransform="matrix(1.2,0,0,1.2,-4.2,-14.2)" />
    <linearGradient
       x1="19.501364"
       y1="64.030319"
       x2="19.501364"
       y2="74.196297"
       id="linearGradient3824"
       xlink:href="#linearGradient3737"
       gradientUnits="userSpaceOnUse" />
    <radialGradient
       cx="21"
       cy="71"
       r="5"
       fx="21"
       fy="71"
       id="radialGradient3836"
       xlink:href="#linearGradient3768"
       gradientUnits="userSpaceOnUse"
       gradientTransform="matrix(1.2,0,0,1.2,-4.2,-14.2)" />
    <linearGradient
       x1="19.501364"
       y1="64.030319"
       x2="19.501364"
       y2="74.196297"
       id="linearGradient3838"
       xlink:href="#linearGradient3737"
       gradientUnits="userSpaceOnUse" />
    <radialGradient
       cx="21"
       cy="71"
       r="5"
       fx="21"
       fy="71"
       id="radialGradient3850"
       xlink:href="#linearGradient3768"
       gradientUnits="userSpaceOnUse"
       gradientTransform="matrix(1.2,0,0,1.2,-4.2,-14.2)" />
    <linearGradient
       x1="19.501364"
       y1="64.030319"
       x2="19.501364"
       y2="74.196297"
       id="linearGradient3852"
       xlink:href="#linearGradient3737"
       gradientUnits="userSpaceOnUse" />
    <radialGradient
       cx="21"
       cy="71"
       r="5"
       fx="21"
       fy="71"
       id="radialGradient3864"
       xlink:href="#linearGradient3768"
       gradientUnits="userSpaceOnUse"
       gradientTransform="matrix(1.2,0,0,1.2,-4.2,-14.2)" />
    <linearGradient
       x1="19.501364"
       y1="64.030319"
       x2="19.501364"
       y2="74.196297"
       id="linearGradient3866"
       xlink:href="#linearGradient3737"
       gradientUnits="userSpaceOnUse" />
    <radialGradient
       cx="21"
       cy="71"
       r="5"
       fx="21"
       fy="71"
       id="radialGradient3878"
       xlink:href="#linearGradient3768"
       gradientUnits="userSpaceOnUse"
       gradientTransform="matrix(1.2,0,0,1.2,-4.2,-14.2)" />
    <linearGradient
       x1="19.501364"
       y1="64.030319"
       x2="19.501364"
       y2="74.196297"
       id="linearGradient3880"
       xlink:href="#linearGradient3737"
       gradientUnits="userSpaceOnUse" />
    <radialGradient
       cx="21"
       cy="71"
       r="5"
       fx="21"
       fy="71"
       id="radialGradient3892"
       xlink:href="#linearGradient3768"
       gradientUnits="userSpaceOnUse"
       gradientTransform="matrix(1.2,0,0,1.2,-4.2,-14.2)" />
    <linearGradient
       x1="19.501364"
       y1="64.030319"
       x2="19.501364"
       y2="74.196297"
       id="linearGradient3894"
       xlink:href="#linearGradient3737"
       gradientUnits="userSpaceOnUse" />
    <radialGradient
       cx="21"
       cy="71"
       r="5"
       fx="21"
       fy="71"
       id="radialGradient3906"
       xlink:href="#linearGradient3768"
       gradientUnits="userSpaceOnUse"
       gradientTransform="matrix(1.2,0,0,1.2,-4.2,-14.2)" />
    <linearGradient
       x1="19.501364"
       y1="64.030319"
       x2="19.501364"
       y2="74.196297"
       id="linearGradient3908"
       xlink:href="#linearGradient3737"
       gradientUnits="userSpaceOnUse" />
    <radialGradient
       cx="21"
       cy="71"
       r="5"
       fx="21"
       fy="71"
       id="radialGradient3920"
       xlink:href="#linearGradient3768"
       gradientUnits="userSpaceOnUse"
       gradientTransform="matrix(1.2,0,0,1.2,-4.2,-14.2)" />
    <linearGradient
       x1="19.501364"
       y1="64.030319"
       x2="19.501364"
       y2="74.196297"
       id="linearGradient3922"
       xlink:href="#linearGradient3737"
       gradientUnits="userSpaceOnUse" />
    <radialGradient
       cx="17.234739"
       cy="74.410851"
       r="4.1365595"
       fx="17.234739"
       fy="74.410851"
       id="radialGradient3971"
       xlink:href="#linearGradient3965"
       gradientUnits="userSpaceOnUse"
       gradientTransform="matrix(1.4149699,-1.0294744e-7,1.0261601e-7,1.4104144,-8.223334,-35.482892)" />
    <radialGradient
       cx="32.021839"
       cy="78.41758"
       r="5.6523323"
       fx="32.021839"
       fy="78.41758"
       id="radialGradient4013"
       xlink:href="#linearGradient3965"
       gradientUnits="userSpaceOnUse"
       gradientTransform="matrix(1.1431275,-1.2401918e-7,1.2566319e-7,1.1582809,-4.5832143,-12.721978)" />
    <radialGradient
       cx="24.559656"
       cy="64.915604"
       r="2.6787217"
       fx="24.559656"
       fy="64.915604"
       id="radialGradient4057"
       xlink:href="#linearGradient3965"
       gradientUnits="userSpaceOnUse"
       gradientTransform="matrix(1.1676549,-3.566961e-7,3.3401031e-7,1.0933923,-4.1175675,-6.4104389)" />
    <radialGradient
       cx="17.234739"
       cy="74.410851"
       r="4.1365595"
       fx="17.234739"
       fy="74.410851"
       id="radialGradient4122"
       xlink:href="#linearGradient3965"
       gradientUnits="userSpaceOnUse"
       gradientTransform="matrix(0.99422575,-7.2335811e-8,7.2102932e-8,0.99102483,63.476498,-35.57429)" />
    <radialGradient
       cx="77.150925"
       cy="71.061798"
       r="4.1480913"
       fx="77.150925"
       fy="71.061798"
       id="radialGradient4156"
       xlink:href="#linearGradient3965"
       gradientUnits="userSpaceOnUse"
       gradientTransform="matrix(1.122125,-1.5158017e-7,1.5031932e-7,1.1127911,-11.564923,-12.425036)" />
    <radialGradient
       cx="63.541813"
       cy="74.850975"
       r="5.1742191"
       fx="63.541813"
       fy="74.850975"
       id="radialGradient4191"
       xlink:href="#linearGradient3965"
       gradientUnits="userSpaceOnUse"
       gradientTransform="matrix(1.104155,2.3478423e-8,-2.0747789e-8,0.97573738,-3.4039111,7.4672385)" />
    <radialGradient
       cx="24.559656"
       cy="64.915604"
       r="2.6787217"
       fx="24.559656"
       fy="64.915604"
       id="radialGradient4218"
       xlink:href="#linearGradient3965"
       gradientUnits="userSpaceOnUse"
       gradientTransform="matrix(1.1676549,-3.566961e-7,3.3401031e-7,1.0933923,48.02529,7.5181325)" />
    <radialGradient
       cx="73.589157"
       cy="27.281597"
       r="4.56745"
       fx="73.589157"
       fy="27.281597"
       id="radialGradient4244"
       xlink:href="#linearGradient3965"
       gradientUnits="userSpaceOnUse"
       gradientTransform="matrix(0.92125464,1.9764611e-7,-2.8319914e-7,1.3200286,-45.424697,-7.8132832)" />
    <radialGradient
       cx="73.589157"
       cy="27.281597"
       r="4.56745"
       fx="73.589157"
       fy="27.281597"
       id="radialGradient4299"
       xlink:href="#linearGradient3965"
       gradientUnits="userSpaceOnUse"
       gradientTransform="matrix(1.4991046,3.2161813e-7,-4.6083364e-7,2.1480065,-36.728673,-30.907413)" />
    <radialGradient
       cx="63.541813"
       cy="74.850975"
       r="5.1742191"
       fx="63.541813"
       fy="74.850975"
       id="radialGradient4316"
       xlink:href="#linearGradient3965"
       gradientUnits="userSpaceOnUse"
       gradientTransform="matrix(0.91290908,0.17109255,-0.15119381,0.80673412,-28.549226,-51.360669)" />
    <radialGradient
       cx="32.021839"
       cy="78.41758"
       r="5.6523323"
       fx="32.021839"
       fy="78.41758"
       id="radialGradient4328"
       xlink:href="#linearGradient3965"
       gradientUnits="userSpaceOnUse"
       gradientTransform="matrix(1.1431275,-1.2401918e-7,1.2566319e-7,1.1582809,-4.5832143,-12.721978)" />
    <radialGradient
       cx="21.637022"
       cy="71.066391"
       r="5"
       fx="21.637022"
       fy="71.066391"
       id="radialGradient4362"
       xlink:href="#linearGradient3768"
       gradientUnits="userSpaceOnUse"
       gradientTransform="matrix(1.2,0,0,1.2,-4.2,-14.2)" />
    <linearGradient
       x1="19.501364"
       y1="64.030319"
       x2="19.501364"
       y2="74.196297"
       id="linearGradient4364"
       xlink:href="#linearGradient3737"
       gradientUnits="userSpaceOnUse" />
    <radialGradient
       cx="21"
       cy="71"
       r="5"
       fx="21"
       fy="71"
       id="radialGradient4376"
       xlink:href="#linearGradient3768"
       gradientUnits="userSpaceOnUse"
       gradientTransform="matrix(1.2,0,0,1.2,-4.2,-14.2)" />
    <linearGradient
       x1="19.501364"
       y1="64.030319"
       x2="19.501364"
       y2="74.196297"
       id="linearGradient4378"
       xlink:href="#linearGradient3737"
       gradientUnits="userSpaceOnUse" />
    <linearGradient
       x1="45.447727"
       y1="92.539597"
       x2="45.447727"
       y2="7.0165396"
       id="ButtonShadow-0"
       gradientUnits="userSpaceOnUse"
       gradientTransform="matrix(1.0058652,0,0,0.994169,100,0)">
      <stop
         id="stop3750-8"
         style="stop-color:#000000;stop-opacity:1"
         offset="0" />
      <stop
         id="stop3752-5"
         style="stop-color:#000000;stop-opacity:0.58823532"
         offset="1" />
    </linearGradient>
    <linearGradient
       x1="32.251034"
       y1="6.1317081"
       x2="32.251034"
       y2="90.238609"
       id="linearGradient3780"
       xlink:href="#ButtonShadow-0"
       gradientUnits="userSpaceOnUse"
       gradientTransform="matrix(1.0238095,0,0,1.0119048,-1.1428571,-98.071429)" />
    <linearGradient
       x1="32.251034"
       y1="6.1317081"
       x2="32.251034"
       y2="90.238609"
       id="linearGradient3772"
       xlink:href="#ButtonShadow-0"
       gradientUnits="userSpaceOnUse"
       gradientTransform="matrix(1.0238095,0,0,1.0119048,-1.1428571,-98.071429)" />
    <linearGradient
       x1="32.251034"
       y1="6.1317081"
       x2="32.251034"
       y2="90.238609"
       id="linearGradient3725"
       xlink:href="#ButtonShadow-0"
       gradientUnits="userSpaceOnUse"
       gradientTransform="matrix(1.0238095,0,0,1.0119048,-1.1428571,-98.071429)" />
    <linearGradient
       x1="32.251034"
       y1="6.1317081"
       x2="32.251034"
       y2="90.238609"
       id="linearGradient3721"
       xlink:href="#ButtonShadow-0"
       gradientUnits="userSpaceOnUse"
       gradientTransform="translate(0,-97)" />
    <linearGradient
       x1="32.251034"
       y1="6.1317081"
       x2="32.251034"
       y2="90.238609"
       id="linearGradient3059"
       xlink:href="#ButtonShadow-0"
       gradientUnits="userSpaceOnUse"
       gradientTransform="matrix(1.0238095,0,0,1.0119048,-1.1428571,-98.071429)" />
  </defs>
  <metadata
     id="metadata2413">
    <rdf:RDF>
      <cc:Work
         rdf:about="">
        <dc:format>image/svg+xml</dc:format>
        <dc:type
           rdf:resource="http://purl.org/dc/dcmitype/StillImage" />
      </cc:Work>
    </rdf:RDF>
  </metadata>
  <g
     id="layer2"
     style="display:none">
    <rect
       width="86"
       height="85"
       rx="6"
       ry="6"
       x="5"
       y="7"
       id="rect3745"
       style="opacity:0.9;fill:url(#ButtonShadow);fill-opacity:1;fill-rule:nonzero;stroke:none;filter:url(#filter3174)" />
  </g>
  <g
     id="layer6"
     style="display:none">
    <g
       id="g4286">
      <path
         d="m 17.8125,68.78125 c -1.095978,-0.13845 -2.173866,0.05447 -2.875,0.8125 -0.696713,0.75325 -0.960196,2.009143 -0.59375,3.71875 0.0019,0.0093 -0.0019,0.02192 0,0.03125 0.283049,1.358982 1.246771,2.634431 2.46875,3.375 1.222821,0.74108 2.773292,0.921122 4.09375,-0.03125 0.01447,-0.0086 0.01692,-0.02263 0.03125,-0.03125 1.206111,-0.725807 1.918676,-1.55534 2.15625,-2.4375 0.240396,-0.892639 -0.0061,-1.766914 -0.5,-2.53125 -0.987847,-1.528673 -2.955421,-2.675601 -4.78125,-2.90625 z"
         transform="translate(-1.0714286,-4.8214286)"
         id="path3990"
         style="opacity:0.5;fill:#162d50;fill-opacity:1;stroke:none" />
      <path
         d="m 19.65346,70.540329 c 7.538698,-4.474027 -7.95109,-11.971365 -6.02167,-3.125442 0.501636,2.491468 3.625343,4.883118 6.02167,3.125442 z"
         inkscape:connector-curvature="0"
         id="path3941"
         style="fill:url(#radialGradient3971);fill-opacity:1;stroke:none" />
      <path
         d="m 20.703224,70.965027 a 1.2421935,1.0192357 0 1 1 -2.484387,0 1.2421935,1.0192357 0 1 1 2.484387,0 z"
         transform="matrix(0.97007975,0.5388074,-0.41398856,0.74535337,28.539198,1.8401467)"
         id="path3973"
         style="opacity:0.9;fill:#ffffff;fill-opacity:1;stroke:none" />
      <path
         d="m 20.703224,70.965027 a 1.2421935,1.0192357 0 1 1 -2.484387,0 1.2421935,1.0192357 0 1 1 2.484387,0 z"
         transform="matrix(0.44544273,0.4102762,-0.31819717,0.34547122,34.149063,34.231784)"
         id="path3975"
         style="opacity:0.9;fill:#ffffff;fill-opacity:1;stroke:none" />
      <path
         d="m 13.491071,65.647321 c -0.04037,0.497472 0.0071,1.097357 0.15625,1.78125 0.501636,2.491468 3.603673,4.882676 6,3.125 1.74907,-1.038029 2.256254,-2.253355 2.03125,-3.375 -0.173143,0.814191 -0.789902,1.638291 -2.03125,2.375 -2.396327,1.757676 -5.498364,-0.633532 -6,-3.125 -0.06029,-0.276435 -0.128743,-0.536144 -0.15625,-0.78125 z"
         inkscape:connector-curvature="0"
         id="path3977"
         style="opacity:0.5;fill:#ffffff;fill-opacity:1;stroke:none" />
    </g>
    <g
       id="g4280">
      <path
         d="m 32.84375,71.0625 c -2.462077,0.479549 -4.765797,2.017978 -5.9375,4.3125 A 0.60151035,0.60151035 0 0 0 26.875,75.4375 c -0.586901,1.467409 0.09545,2.955904 0.875,4 0.0079,0.01052 0.02338,0.02082 0.03125,0.03125 0.770329,1.078518 1.846889,1.989666 3.15625,2.4375 1.127732,0.398716 2.410825,0.538099 3.625,0.125 A 0.60151035,0.60151035 0 0 0 34.65625,82 c 1.742468,-0.858318 3.549878,-2.137198 4.28125,-4.1875 0.0032,-0.0091 -0.0032,-0.02215 0,-0.03125 0.338939,-0.904285 0.356995,-2.032386 -0.28125,-2.90625 -0.0046,-0.0064 -0.02666,0.0063 -0.03125,0 -0.0047,-0.0065 0.0047,-0.0248 0,-0.03125 -0.784192,-1.071449 -1.853843,-1.649659 -2.5,-2.40625 a 0.60151035,0.60151035 0 0 0 -0.09375,-0.09375 c -0.843417,-0.691478 -1.869085,-1.177821 -3,-1.28125 a 0.60151035,0.60151035 0 0 0 -0.1875,0 z"
         id="path4028"
         style="opacity:0.5;fill:#162d50;fill-opacity:1;stroke:none" />
      <path
         d="m 32.963993,70.670719 c -2.291793,0.446382 -4.445839,1.883501 -5.51953,3.986088 -0.476503,1.191385 0.08385,2.488328 0.808037,3.447608 0.712244,1.009244 1.691633,1.845989 2.871259,2.24945 1.030563,0.364361 2.199277,0.481385 3.24578,0.125333 1.684056,-0.829545 3.360382,-2.057987 4.005066,-3.89551 0.295414,-0.769001 0.289795,-1.687833 -0.222343,-2.365731 -0.680113,-0.947916 -1.74233,-1.51995 -2.494397,-2.400552 -0.764186,-0.62652 -1.704588,-1.05621 -2.693872,-1.146686 z"
         inkscape:connector-curvature="0"
         id="path3999"
         style="fill:url(#radialGradient4013);fill-opacity:1;stroke:none" />
      <path
         d="m 36.91608,73.14077 a 1.9760432,1.1227518 0 1 1 -3.952086,0 1.9760432,1.1227518 0 1 1 3.952086,0 z"
         transform="matrix(0.94813382,0.31787145,-0.31787145,0.94813382,23.893906,-7.3129078)"
         id="path4030"
         style="opacity:0.9;fill:#ffffff;fill-opacity:1;stroke:none" />
      <path
         d="m 27.75,74.15625 c -0.103934,0.165785 -0.223026,0.324784 -0.3125,0.5 -0.476503,1.191385 0.08831,2.47822 0.8125,3.4375 0.712244,1.009244 1.695374,1.846539 2.875,2.25 1.030563,0.364361 2.203497,0.481052 3.25,0.125 1.613887,-0.794981 3.207743,-1.943583 3.90625,-3.65625 -0.808887,1.313412 -2.162954,2.263495 -3.53125,2.9375 -1.046503,0.356052 -2.219437,0.239361 -3.25,-0.125 -1.179626,-0.403461 -2.162756,-1.240756 -2.875,-2.25 -0.678925,-0.899325 -1.203412,-2.09108 -0.875,-3.21875 z"
         inkscape:connector-curvature="0"
         id="path4032"
         style="opacity:0.5;fill:#ffffff;fill-opacity:1;stroke:none" />
    </g>
    <g
       id="g4293">
      <path
         d="m 24.8125,61.75 c -0.239964,-0.01798 -0.479634,-0.01998 -0.71875,0.03125 -0.703463,0.150722 -1.397468,0.550465 -1.78125,1.125 -0.191891,0.287267 -0.314221,0.63561 -0.28125,1 0.03297,0.36439 0.242322,0.713754 0.5625,1.03125 0.572029,0.56831 1.379331,1.160904 2.28125,1.4375 0.901919,0.276596 1.956008,0.213046 2.6875,-0.59375 0.39794,-0.419458 0.585124,-0.905154 0.59375,-1.375 0.0086,-0.469846 -0.170962,-0.910058 -0.4375,-1.28125 C 27.216252,62.425199 26.37815,61.962053 25.5,61.90625 25.450838,61.884332 25.394512,61.89269 25.34375,61.875 25.169834,61.814394 24.998249,61.763917 24.8125,61.75 z"
         id="path4077"
         style="opacity:0.5;fill:#162d50;fill-opacity:1;stroke:none" />
      <path
         d="m 25.329281,61.598885 c -1.38021,-0.615339 -3.928445,1.005231 -2.475608,2.445902 1.066331,1.059397 3.170059,2.219804 4.423317,0.837527 1.378059,-1.452572 -0.361317,-3.279861 -1.947709,-3.283429 z"
         inkscape:connector-curvature="0"
         id="path4041"
         style="fill:url(#radialGradient4057);fill-opacity:1;stroke:none" />
      <path
         d="m 20.703224,70.965027 a 1.2421935,1.0192357 0 1 1 -2.484387,0 1.2421935,1.0192357 0 1 1 2.484387,0 z"
         transform="matrix(0.62584603,0.34761108,-0.26708433,0.48086402,32.437493,21.786695)"
         id="path4059"
         style="opacity:0.9;fill:#ffffff;fill-opacity:1;stroke:none" />
      <path
         d="m 23.21875,61.9375 c -0.746975,0.501122 -1.166087,1.309287 -0.375,2.09375 1.028843,1.022153 3.016607,2.133087 4.28125,0.96875 -1.25683,0.689425 -3.00446,-0.323028 -3.9375,-1.25 -0.656571,-0.651072 -0.469394,-1.310919 0.03125,-1.8125 z"
         inkscape:connector-curvature="0"
         id="path4061"
         style="opacity:0.5;fill:#ffffff;fill-opacity:1;stroke:none" />
    </g>
    <g
       transform="translate(-0.17857143,-1.25)"
       id="g4246">
      <path
         d="m 75.375,20.0625 c -0.297381,0.07576 -0.57557,0.209324 -0.8125,0.375 -0.473861,0.331352 -0.867976,0.761403 -1.1875,1.03125 -1.133095,0.845963 -2.469814,2.051299 -3.25,3.46875 -0.390093,0.708725 -0.645249,1.484263 -0.625,2.28125 0.02025,0.796987 0.32215,1.591812 0.96875,2.34375 A 0.39840504,0.39840504 0 0 0 70.5,29.59375 c 1.098617,1.205592 2.858655,1.810247 4.53125,1.71875 1.672595,-0.0915 3.294139,-0.955246 3.90625,-2.71875 0.49382,-1.423936 0.664728,-3.15477 0.3125,-4.75 -0.352228,-1.59523 -1.255678,-3.076801 -2.90625,-3.75 a 0.39840504,0.39840504 0 0 0 -0.03125,0 C 75.980508,19.985809 75.672381,19.986737 75.375,20.0625 z"
         id="path4106"
         style="opacity:0.5;fill:#162d50;fill-opacity:1;stroke:none" />
      <path
         d="m 73.75,20.642857 c -2.21312,1.652305 -5.224073,4.752232 -2.842003,7.522367 1.995057,2.189321 6.679508,2.368342 7.788596,-0.826964 0.939025,-2.707691 0.643508,-6.761931 -2.383127,-7.996369 C 75.278342,19.00534 74.449825,20.051835 73.75,20.642857 z"
         inkscape:connector-curvature="0"
         id="path4079"
         style="fill:url(#radialGradient4299);fill-opacity:1;stroke:none" />
      <path
         d="m 36.91608,73.14077 a 1.9760432,1.1227518 0 1 1 -3.952086,0 1.9760432,1.1227518 0 1 1 3.952086,0 z"
         transform="matrix(0.62696744,0.40034165,-0.40034165,0.62696744,83.65643,-38.375416)"
         id="path4097"
         style="opacity:0.9;fill:#ffffff;fill-opacity:1;stroke:none" />
      <path
         d="m 71.125,23.21875 c -1.120102,1.51713 -1.650201,3.27285 -0.21875,4.9375 1.904431,2.089871 6.237314,2.353961 7.59375,-0.40625 -1.722083,1.920088 -5.387913,1.528189 -7.09375,-0.34375 -1.191035,-1.385067 -1.012869,-2.859713 -0.28125,-4.1875 z"
         inkscape:connector-curvature="0"
         id="path4099"
         style="opacity:0.5;fill:#ffffff;fill-opacity:1;stroke:none" />
      <path
         d="m 36.91608,73.14077 a 1.9760432,1.1227518 0 1 1 -3.952086,0 1.9760432,1.1227518 0 1 1 3.952086,0 z"
         transform="matrix(0.62696744,0.40034165,-0.40034165,0.62696744,83.65643,-38.375416)"
         id="path4108"
         style="opacity:0.9;fill:#ffffff;fill-opacity:1;stroke:none" />
      <path
         d="m 36.91608,73.14077 a 1.9760432,1.1227518 0 1 1 -3.952086,0 1.9760432,1.1227518 0 1 1 3.952086,0 z"
         transform="matrix(0.39974589,0.25525237,-0.25525237,0.39974589,82.353215,-14.204008)"
         id="path4110"
         style="opacity:0.9;fill:#ffffff;fill-opacity:1;stroke:none" />
    </g>
    <g
       id="g4254">
      <path
         d="m 17.8125,68.78125 c -1.095978,-0.13845 -2.173866,0.05447 -2.875,0.8125 -0.696713,0.75325 -0.960196,2.009143 -0.59375,3.71875 0.0019,0.0093 -0.0019,0.02192 0,0.03125 0.283049,1.358982 1.246771,2.634431 2.46875,3.375 1.222821,0.74108 2.773292,0.921122 4.09375,-0.03125 0.01447,-0.0086 0.01692,-0.02263 0.03125,-0.03125 1.206111,-0.725807 1.918676,-1.55534 2.15625,-2.4375 0.240396,-0.892639 -0.0061,-1.766914 -0.5,-2.53125 -0.987847,-1.528673 -2.955421,-2.675601 -4.78125,-2.90625 z"
         transform="matrix(0.70264798,0,0,0.70264798,68.50177,-14.030075)"
         id="path4112"
         style="opacity:0.5;fill:#162d50;fill-opacity:1;stroke:none" />
      <path
         d="m 83.064071,38.922713 c 5.297051,-3.143666 -5.586817,-8.411656 -4.231114,-2.196086 0.352473,1.750625 2.54734,3.431113 4.231114,2.196086 z"
         inkscape:connector-curvature="0"
         id="path4114"
         style="fill:url(#radialGradient4122);fill-opacity:1;stroke:none" />
      <path
         d="m 20.703224,70.965027 a 1.2421935,1.0192357 0 1 1 -2.484387,0 1.2421935,1.0192357 0 1 1 2.484387,0 z"
         transform="matrix(0.68162458,0.37859193,-0.29088823,0.52372104,89.307617,-9.3493314)"
         id="path4116"
         style="opacity:0.9;fill:#ffffff;fill-opacity:1;stroke:none" />
      <path
         d="m 20.703224,70.965027 a 1.2421935,1.0192357 0 1 1 -2.484387,0 1.2421935,1.0192357 0 1 1 2.484387,0 z"
         transform="matrix(0.31298944,0.28827974,-0.2235806,0.24274466,93.249377,13.410587)"
         id="path4118"
         style="opacity:0.9;fill:#ffffff;fill-opacity:1;stroke:none" />
      <path
         d="m 78.734081,35.48465 c -0.02837,0.349548 0.005,0.771056 0.109789,1.251592 0.352473,1.750625 2.532113,3.430803 4.215887,2.195775 1.228981,-0.729369 1.585353,-1.583315 1.427254,-2.371437 -0.121658,0.57209 -0.555023,1.151142 -1.427254,1.668789 -1.683774,1.235028 -3.863414,-0.44515 -4.215887,-2.195775 -0.04236,-0.194236 -0.09046,-0.37672 -0.109789,-0.548944 z"
         inkscape:connector-curvature="0"
         id="path4120"
         style="opacity:0.5;fill:#ffffff;fill-opacity:1;stroke:none" />
    </g>
    <g
       id="g4261">
      <path
         d="M 77.46875,66.78125 C 76.398088,66.819465 75.335963,67.132729 74.375,67.75 a 0.41426459,0.41426459 0 0 0 -0.0625,0.03125 c -0.857467,0.816927 -1.397533,2.158366 -0.90625,3.375 0.288316,0.759593 0.898355,1.209895 1.34375,1.625 a 0.41426459,0.41426459 0 0 0 0.03125,0 c 1.160248,0.937336 2.645501,1.535765 4.1875,1.4375 1.070877,-0.06028 2.111634,-0.635102 2.625,-1.625 0.197129,-0.408791 0.567702,-0.888406 0.6875,-1.53125 0.0019,-0.01035 -0.0018,-0.02081 0,-0.03125 C 82.587805,69.629018 81.838851,68.231117 80.6875,67.5 a 0.41426459,0.41426459 0 0 0 -0.03125,-0.03125 c -1.029899,-0.488137 -2.114639,-0.725794 -3.1875,-0.6875 z"
         transform="translate(-2.1428571,-4.4893562)"
         id="path4169"
         style="opacity:0.5;fill:#162d50;fill-opacity:1;stroke:none" />
      <path
         d="m 72.447754,62.996287 c -0.756282,0.720526 -1.209123,1.88194 -0.800274,2.894431 0.234077,0.616696 0.768159,1.034384 1.23548,1.469924 1.091643,0.881912 2.498707,1.450116 3.916581,1.359761 0.935726,-0.05267 1.845026,-0.5777 2.281845,-1.419996 0.226508,-0.469715 0.555594,-0.899792 0.64635,-1.426919 0.278404,-1.211624 -0.382395,-2.485663 -1.405225,-3.135168 -1.952874,-0.925597 -4.074954,-0.89813 -5.874757,0.257967 z"
         inkscape:connector-curvature="0"
         id="path4124"
         style="fill:url(#radialGradient4156);fill-opacity:1;stroke:none" />
      <path
         d="m 20.703224,70.965027 a 1.2421935,1.0192357 0 1 1 -2.484387,0 1.2421935,1.0192357 0 1 1 2.484387,0 z"
         transform="matrix(1.1668969,0.42019685,-0.32831348,0.88167014,77.564453,-7.0663724)"
         id="path4143"
         style="opacity:0.9;fill:#ffffff;fill-opacity:1;stroke:none" />
      <path
         d="m 72.075893,63.455357 c -0.506078,0.702913 -0.76969,1.614851 -0.4375,2.4375 0.234077,0.616696 0.782679,1.03321 1.25,1.46875 1.091643,0.881912 2.488376,1.434105 3.90625,1.34375 0.935726,-0.05267 1.844431,-0.563954 2.28125,-1.40625 0.0303,-0.06283 0.0606,-0.125763 0.09375,-0.1875 -0.481975,0.64485 -1.258136,1.048474 -2.0625,1.09375 -1.417874,0.09035 -2.814607,-0.461838 -3.90625,-1.34375 -0.467321,-0.43554 -1.015923,-0.852054 -1.25,-1.46875 -0.255531,-0.632807 -0.156373,-1.332344 0.125,-1.9375 z"
         inkscape:connector-curvature="0"
         id="path4158"
         style="opacity:0.5;fill:#ffffff;fill-opacity:1;stroke:none" />
    </g>
    <g
       id="g4273">
      <path
         d="m 64.875,68.4375 c -1.522926,0.522138 -3.826616,1.589401 -5.21875,3 -0.696067,0.7053 -1.208318,1.546853 -1.09375,2.46875 0.11329,0.911612 0.833665,1.757553 2.15625,2.5 0.01156,0.0076 0.01962,0.02372 0.03125,0.03125 1.689384,1.094315 4.070077,1.259218 6,0.5625 0.971604,-0.350757 1.847039,-0.946038 2.40625,-1.78125 0.559211,-0.835212 0.784177,-1.913567 0.53125,-3.15625 -0.383863,-2.182788 -2.428796,-3.920176 -4.71875,-3.625 a 0.4551453,0.4551453 0 0 0 -0.09375,0 z"
         transform="translate(3.2142857,6.712148)"
         id="path4208"
         style="opacity:0.5;fill:#162d50;fill-opacity:1;stroke:none" />
      <path
         d="m 68.24407,74.945744 c -2.945144,1.009747 -9.214954,4.323057 -4.075261,7.169386 3.073504,2.025884 9.225746,0.682598 8.295515,-3.88783 -0.342685,-1.948635 -2.198554,-3.542154 -4.220254,-3.281556 z"
         inkscape:connector-curvature="0"
         id="path4171"
         style="fill:url(#radialGradient4191);fill-opacity:1;stroke:none" />
      <path
         d="m 20.703224,70.965027 a 1.2421935,1.0192357 0 1 1 -2.484387,0 1.2421935,1.0192357 0 1 1 2.484387,0 z"
         transform="matrix(1.1918753,0.35581441,-0.3353413,0.7465809,69.843412,16.659103)"
         id="path4193"
         style="opacity:0.9;fill:#ffffff;fill-opacity:1;stroke:none" />
      <path
         d="m 20.703224,70.965027 a 1.2421935,1.0192357 0 1 1 -2.484387,0 1.2421935,1.0192357 0 1 1 2.484387,0 z"
         transform="matrix(0.64235103,0.1626671,-0.18072933,0.34131319,71.285639,50.865892)"
         id="path4195"
         style="opacity:0.9;fill:#ffffff;fill-opacity:1;stroke:none" />
      <path
         d="m 62.401786,78.915178 c -0.46062,1.034189 -0.106599,2.142021 1.78125,3.1875 2.72906,1.798845 7.842251,0.945628 8.3125,-2.46875 -1.111879,2.726146 -5.659028,3.333531 -8.15625,1.6875 -1.409462,-0.780551 -1.940224,-1.612599 -1.9375,-2.40625 z"
         inkscape:connector-curvature="0"
         id="path4197"
         style="opacity:0.5;fill:#ffffff;fill-opacity:1;stroke:none" />
    </g>
    <g
       id="g4267">
      <path
         d="m 24.8125,61.75 c -0.239964,-0.01798 -0.479634,-0.01998 -0.71875,0.03125 -0.703463,0.150722 -1.397468,0.550465 -1.78125,1.125 -0.191891,0.287267 -0.314221,0.63561 -0.28125,1 0.03297,0.36439 0.242322,0.713754 0.5625,1.03125 0.572029,0.56831 1.379331,1.160904 2.28125,1.4375 0.901919,0.276596 1.956008,0.213046 2.6875,-0.59375 0.39794,-0.419458 0.585124,-0.905154 0.59375,-1.375 0.0086,-0.469846 -0.170962,-0.910058 -0.4375,-1.28125 C 27.216252,62.425199 26.37815,61.962053 25.5,61.90625 25.450838,61.884332 25.394512,61.89269 25.34375,61.875 25.169834,61.814394 24.998249,61.763917 24.8125,61.75 z"
         transform="translate(52.142857,13.928571)"
         id="path4210"
         style="opacity:0.5;fill:#162d50;fill-opacity:1;stroke:none" />
      <path
         d="m 77.472138,75.527456 c -1.38021,-0.615339 -3.928445,1.005231 -2.475608,2.445902 1.066331,1.059397 3.170059,2.219804 4.423317,0.837527 1.378059,-1.452572 -0.361317,-3.279861 -1.947709,-3.283429 z"
         inkscape:connector-curvature="0"
         id="path4212"
         style="fill:url(#radialGradient4218);fill-opacity:1;stroke:none" />
      <path
         d="m 20.703224,70.965027 a 1.2421935,1.0192357 0 1 1 -2.484387,0 1.2421935,1.0192357 0 1 1 2.484387,0 z"
         transform="matrix(0.62584603,0.34761108,-0.26708433,0.48086402,84.58035,35.715266)"
         id="path4214"
         style="opacity:0.9;fill:#ffffff;fill-opacity:1;stroke:none" />
      <path
         d="m 75.361607,75.866071 c -0.746975,0.501122 -1.166087,1.309287 -0.375,2.09375 1.028843,1.022153 3.016607,2.133087 4.28125,0.96875 -1.25683,0.689425 -3.00446,-0.323028 -3.9375,-1.25 -0.656571,-0.651072 -0.469394,-1.310919 0.03125,-1.8125 z"
         inkscape:connector-curvature="0"
         id="path4216"
         style="opacity:0.5;fill:#ffffff;fill-opacity:1;stroke:none" />
    </g>
    <g
       transform="matrix(1.165702,0,0,1.165702,-5.1669837,-2.5715909)"
       id="g4301">
      <path
         d="m 64.875,68.4375 c -1.522926,0.522138 -3.826616,1.589401 -5.21875,3 -0.696067,0.7053 -1.208318,1.546853 -1.09375,2.46875 0.11329,0.911612 0.833665,1.757553 2.15625,2.5 0.01156,0.0076 0.01962,0.02372 0.03125,0.03125 1.689384,1.094315 4.070077,1.259218 6,0.5625 0.971604,-0.350757 1.847039,-0.946038 2.40625,-1.78125 0.559211,-0.835212 0.784177,-1.913567 0.53125,-3.15625 -0.383863,-2.182788 -2.428796,-3.920176 -4.71875,-3.625 a 0.4551453,0.4551453 0 0 0 -0.09375,0 z"
         transform="matrix(0.82679432,0.15495337,-0.15495337,0.82679432,-22.960335,-50.959462)"
         id="path4220"
         style="opacity:0.5;fill:#162d50;fill-opacity:1;stroke:none" />
      <path
         d="m 20.232896,15.532272 c -2.591492,0.378494 -8.288744,2.146391 -4.480323,5.296132 2.227238,2.15124 7.522023,1.993929 7.461117,-1.929017 0.01862,-1.664221 -1.268883,-3.269307 -2.980794,-3.367115 z"
         inkscape:connector-curvature="0"
         id="path4222"
         style="fill:url(#radialGradient4316);fill-opacity:1;stroke:none" />
      <path
         d="m 20.703224,70.965027 a 1.2421935,1.0192357 0 1 1 -2.484387,0 1.2421935,1.0192357 0 1 1 2.484387,0 z"
         transform="matrix(0.93030107,0.47887043,-0.3929435,0.56530659,30.586935,-32.410968)"
         id="path4224"
         style="opacity:0.9;fill:#ffffff;fill-opacity:1;stroke:none" />
      <path
         d="m 20.703224,70.965027 a 1.2421935,1.0192357 0 1 1 -2.484387,0 1.2421935,1.0192357 0 1 1 2.484387,0 z"
         transform="matrix(0.50588637,0.23402669,-0.20231361,0.25419119,26.478903,-3.9055118)"
         id="path4226"
         style="opacity:0.9;fill:#ffffff;fill-opacity:1;stroke:none" />
      <path
         d="m 14.787452,17.908896 c -0.541089,0.783687 -0.420049,1.754493 0.978813,2.911418 1.977634,1.910152 6.337401,1.997023 7.255269,-0.753098 -1.341721,2.081671 -5.195394,1.879258 -7.005025,0.131376 -1.044386,-0.863756 -1.354289,-1.633932 -1.229057,-2.289696 z"
         inkscape:connector-curvature="0"
         id="path4228"
         style="opacity:0.5;fill:#ffffff;fill-opacity:1;stroke:none" />
    </g>
    <g
       id="g4308">
      <path
         d="m 75.375,20.0625 c -0.297381,0.07576 -0.57557,0.209324 -0.8125,0.375 -0.473861,0.331352 -0.867976,0.761403 -1.1875,1.03125 -1.133095,0.845963 -2.469814,2.051299 -3.25,3.46875 -0.390093,0.708725 -0.645249,1.484263 -0.625,2.28125 0.02025,0.796987 0.32215,1.591812 0.96875,2.34375 A 0.39840504,0.39840504 0 0 0 70.5,29.59375 c 1.098617,1.205592 2.858655,1.810247 4.53125,1.71875 1.672595,-0.0915 3.294139,-0.955246 3.90625,-2.71875 0.49382,-1.423936 0.664728,-3.15477 0.3125,-4.75 -0.352228,-1.59523 -1.255678,-3.076801 -2.90625,-3.75 a 0.39840504,0.39840504 0 0 0 -0.03125,0 C 75.980508,19.985809 75.672381,19.986737 75.375,20.0625 z"
         transform="matrix(0.6145366,0,0,0.6145366,-22.853583,11.180453)"
         id="path4232"
         style="opacity:0.5;fill:#162d50;fill-opacity:1;stroke:none" />
      <path
         d="m 22.46849,23.866244 c -1.360043,1.015402 -3.210384,2.92042 -1.746514,4.62277 1.226035,1.345418 4.104802,1.455433 4.786377,-0.5082 0.577065,-1.663975 0.395459,-4.155454 -1.464519,-4.914061 -0.636122,-0.206823 -1.145276,0.436286 -1.575344,0.799491 z"
         inkscape:connector-curvature="0"
         id="path4234"
         style="fill:url(#radialGradient4244);fill-opacity:1;stroke:none" />
      <path
         d="m 36.91608,73.14077 a 1.9760432,1.1227518 0 1 1 -3.952086,0 1.9760432,1.1227518 0 1 1 3.952086,0 z"
         transform="matrix(0.38529444,0.24602459,-0.24602459,0.38529444,28.556354,-12.402645)"
         id="path4236"
         style="opacity:0.9;fill:#ffffff;fill-opacity:1;stroke:none" />
      <path
         d="m 20.855332,25.449225 c -0.688344,0.932331 -1.014109,2.011286 -0.13443,3.034274 1.170342,1.284302 3.833058,1.446595 4.666637,-0.249656 -1.058283,1.179965 -3.311069,0.939129 -4.359369,-0.211246 -0.731934,-0.851175 -0.622445,-1.757399 -0.172838,-2.573372 z"
         inkscape:connector-curvature="0"
         id="path4238"
         style="opacity:0.5;fill:#ffffff;fill-opacity:1;stroke:none" />
      <path
         d="m 36.91608,73.14077 a 1.9760432,1.1227518 0 1 1 -3.952086,0 1.9760432,1.1227518 0 1 1 3.952086,0 z"
         transform="matrix(0.38529444,0.24602459,-0.24602459,0.38529444,28.556354,-12.402645)"
         id="path4240"
         style="opacity:0.9;fill:#ffffff;fill-opacity:1;stroke:none" />
      <path
         d="m 36.91608,73.14077 a 1.9760432,1.1227518 0 1 1 -3.952086,0 1.9760432,1.1227518 0 1 1 3.952086,0 z"
         transform="matrix(0.24565848,0.15686192,-0.15686192,0.24565848,27.755481,2.45157)"
         id="path4242"
         style="opacity:0.9;fill:#ffffff;fill-opacity:1;stroke:none" />
    </g>
    <g
       transform="matrix(0.41554772,0,0,0.41554772,2.3637006,13.803663)"
       id="g4318">
      <path
         d="m 32.84375,71.0625 c -2.462077,0.479549 -4.765797,2.017978 -5.9375,4.3125 A 0.60151035,0.60151035 0 0 0 26.875,75.4375 c -0.586901,1.467409 0.09545,2.955904 0.875,4 0.0079,0.01052 0.02338,0.02082 0.03125,0.03125 0.770329,1.078518 1.846889,1.989666 3.15625,2.4375 1.127732,0.398716 2.410825,0.538099 3.625,0.125 A 0.60151035,0.60151035 0 0 0 34.65625,82 c 1.742468,-0.858318 3.549878,-2.137198 4.28125,-4.1875 0.0032,-0.0091 -0.0032,-0.02215 0,-0.03125 0.338939,-0.904285 0.356995,-2.032386 -0.28125,-2.90625 -0.0046,-0.0064 -0.02666,0.0063 -0.03125,0 -0.0047,-0.0065 0.0047,-0.0248 0,-0.03125 -0.784192,-1.071449 -1.853843,-1.649659 -2.5,-2.40625 a 0.60151035,0.60151035 0 0 0 -0.09375,-0.09375 c -0.843417,-0.691478 -1.869085,-1.177821 -3,-1.28125 a 0.60151035,0.60151035 0 0 0 -0.1875,0 z"
         id="path4320"
         style="opacity:0.5;fill:#162d50;fill-opacity:1;stroke:none" />
      <path
         d="m 32.963993,70.670719 c -2.291793,0.446382 -4.445839,1.883501 -5.51953,3.986088 -0.476503,1.191385 0.08385,2.488328 0.808037,3.447608 0.712244,1.009244 1.691633,1.845989 2.871259,2.24945 1.030563,0.364361 2.199277,0.481385 3.24578,0.125333 1.684056,-0.829545 3.360382,-2.057987 4.005066,-3.89551 0.295414,-0.769001 0.289795,-1.687833 -0.222343,-2.365731 -0.680113,-0.947916 -1.74233,-1.51995 -2.494397,-2.400552 -0.764186,-0.62652 -1.704588,-1.05621 -2.693872,-1.146686 z"
         inkscape:connector-curvature="0"
         id="path4322"
         style="fill:url(#radialGradient4328);fill-opacity:1;stroke:none" />
      <path
         d="m 36.91608,73.14077 a 1.9760432,1.1227518 0 1 1 -3.952086,0 1.9760432,1.1227518 0 1 1 3.952086,0 z"
         transform="matrix(0.94813382,0.31787145,-0.31787145,0.94813382,23.893906,-7.3129078)"
         id="path4324"
         style="opacity:0.9;fill:#ffffff;fill-opacity:1;stroke:none" />
      <path
         d="m 27.75,74.15625 c -0.103934,0.165785 -0.223026,0.324784 -0.3125,0.5 -0.476503,1.191385 0.08831,2.47822 0.8125,3.4375 0.712244,1.009244 1.695374,1.846539 2.875,2.25 1.030563,0.364361 2.203497,0.481052 3.25,0.125 1.613887,-0.794981 3.207743,-1.943583 3.90625,-3.65625 -0.808887,1.313412 -2.162954,2.263495 -3.53125,2.9375 -1.046503,0.356052 -2.219437,0.239361 -3.25,-0.125 -1.179626,-0.403461 -2.162756,-1.240756 -2.875,-2.25 -0.678925,-0.899325 -1.203412,-2.09108 -0.875,-3.21875 z"
         inkscape:connector-curvature="0"
         id="path4326"
         style="opacity:0.5;fill:#ffffff;fill-opacity:1;stroke:none" />
    </g>
  </g>
  <rect
     style="fill:#2c5aa0;fill-opacity:1;stroke:none"
     id="rect3203"
     width="96"
     height="96"
     x="0"
     y="5.3290705e-15" />
  <g
     id="layer3"
     transform="translate(0.40677928,0.81355891)">
    <path
       d="m 48.09375,36 c -7.608404,-0.0089 -15.241624,1.190687 -22.5625,3.59375 L 32.28125,60 C 42.545369,56.630823 53.617266,56.644357 63.875,60.03125 l 6.75,-20.375 C 63.309752,37.236107 55.702154,36.008879 48.09375,36 z"
       inkscape:connector-curvature="0"
       id="path3649"
       style="fill:none;stroke:#ffffff;stroke-width:4;stroke-linejoin:round;stroke-miterlimit:4;stroke-dasharray:none" />
    <path
       d="m 50,64 a 2,2 0 1 1 -4,0 2,2 0 1 1 4,0 z"
       transform="matrix(1.5,0,0,1.5,-24,-24)"
       id="path3660"
       style="fill:none;stroke:#ffffff;stroke-width:2.66666675;stroke-linejoin:round;stroke-miterlimit:4;stroke-opacity:1;stroke-dasharray:none;stroke-dashoffset:1"
       inkscape:connector-curvature="0" />
    <path
       d="m 47.867955,71.976929 -6.723113,-25.091"
       inkscape:connector-curvature="0"
       id="path3662"
       style="fill:none;stroke:#ffffff;stroke-width:4;stroke-linecap:round;stroke-linejoin:miter;stroke-miterlimit:4;stroke-opacity:1;stroke-dasharray:none" />
    <path
       d="m 57.5625,19.15625 -0.84375,0.21875 -0.34375,0.84375 0.5,0.75 0.3125,0.15625 0.5625,0.09375 0.5625,0.15625 0.03125,0.03125 0.0625,0 0.5,0.21875 0.90625,-0.0625 0.46875,-0.75 -0.3125,-0.84375 -0.3125,-0.1875 -0.59375,-0.25 L 58.96875,19.5 58.25,19.25 l -0.125,0 -0.5625,-0.09375 z M 53.1875,19.5 52.84375,19.5625 52.53125,19.6875 52.4375,19.71875 51.75,20.0625 51.65625,20.09375 51,20.5 l -0.0625,0.0625 -0.125,0.0625 -0.40625,0.8125 0.40625,0.8125 0.875,0.15625 0.34375,-0.15625 0,-0.03125 0.09375,-0.0625 0.5,-0.28125 0.59375,-0.3125 0.09375,-0.03125 0.21875,-0.0625 0.625,-0.65625 L 54,19.90625 53.1875,19.5 z m 9.375,2.75 -0.84375,0.34375 -0.1875,0.875 0.125,0.3125 0.40625,0.65625 0.03125,0 0.25,0.5 0.1875,0.4375 0.6875,0.5625 0.875,-0.15625 0.34375,-0.84375 -0.03125,-0.34375 -0.21875,-0.4375 0,-0.0625 -0.375,-0.6875 L 63.75,23.3125 63.3125,22.6875 62.5625,22.25 z M 49,23.4375 48.15625,23.71875 47.9375,24 l -0.21875,0.4375 -0.03125,0.09375 -0.28125,0.75 -0.03125,0.09375 -0.15625,0.6875 0.1875,0.875 0.8125,0.375 L 49,26.875 l 0.15625,-0.3125 0.125,-0.59375 0.03125,0 L 49.53125,25.3125 49.5625,25.21875 49.75,24.875 49.71875,23.96875 49,23.4375 z M 63.71875,28.03125 63.0625,28.625 63,29 l 0,2 0.40625,0.78125 0.875,0.15625 L 64.9375,31.34375 65,31 l 0,-2 -0.40625,-0.8125 -0.875,-0.15625 z m -16,1.3125 -0.65625,0.625 L 47,30.3125 l 0,2 0.40625,0.78125 0.875,0.1875 0.65625,-0.625 L 49,32.3125 l 0,-2 -0.40625,-0.8125 -0.875,-0.15625 z m 0,6 -0.65625,0.625 L 47,36.3125 l 0,2 0.40625,0.78125 0.875,0.1875 0.65625,-0.625 L 49,38.3125 l 0,-2 -0.40625,-0.8125 -0.875,-0.15625 z m 0,6 -0.65625,0.625 L 47,42.3125 l 0,2 0.40625,0.78125 0.875,0.1875 0.65625,-0.625 L 49,44.3125 l 0,-2 -0.40625,-0.8125 -0.875,-0.15625 z m 0,6 -0.65625,0.625 L 47,48.3125 l 0,2 0.40625,0.78125 0.875,0.1875 0.65625,-0.625 L 49,50.3125 l 0,-2 -0.40625,-0.8125 -0.875,-0.15625 z"
       inkscape:connector-curvature="0"
       id="path3686"
       style="font-size:medium;font-style:normal;font-variant:normal;font-weight:normal;font-stretch:normal;text-indent:0;text-align:start;text-decoration:none;line-height:normal;letter-spacing:normal;word-spacing:normal;text-transform:none;direction:ltr;block-progression:tb;writing-mode:lr-tb;text-anchor:start;color:#000000;fill:#ffffff;fill-opacity:1;stroke:none;stroke-width:2;marker:none;visibility:visible;display:inline;overflow:visible;enable-background:accumulate;font-family:Abandoned Bitplane;-inkscape-font-specification:Abandoned Bitplane" />
    <path
       d="m 38.4375,19.15625 0.84375,0.21875 0.34375,0.84375 -0.5,0.75 -0.3125,0.15625 -0.5625,0.09375 -0.5625,0.15625 -0.03125,0.03125 -0.0625,0 -0.5,0.21875 -0.90625,-0.0625 -0.46875,-0.75 0.3125,-0.84375 0.3125,-0.1875 0.59375,-0.25 L 37.03125,19.5 37.75,19.25 l 0.125,0 0.5625,-0.09375 z m 4.375,0.34375 0.34375,0.0625 0.3125,0.125 0.09375,0.03125 0.6875,0.34375 0.09375,0.03125 L 45,20.5 l 0.0625,0.0625 0.125,0.0625 0.40625,0.8125 -0.40625,0.8125 -0.875,0.15625 -0.34375,-0.15625 0,-0.03125 L 43.875,22.15625 43.375,21.875 42.78125,21.5625 42.6875,21.53125 42.46875,21.46875 41.84375,20.8125 42,19.90625 42.8125,19.5 z m -9.375,2.75 0.84375,0.34375 0.1875,0.875 -0.125,0.3125 -0.40625,0.65625 -0.03125,0 -0.25,0.5 -0.1875,0.4375 -0.6875,0.5625 -0.875,-0.15625 -0.34375,-0.84375 0.03125,-0.34375 0.21875,-0.4375 0,-0.0625 0.375,-0.6875 0.0625,-0.09375 0.4375,-0.625 0.75,-0.4375 z M 47,23.4375 47.84375,23.71875 48.0625,24 l 0.21875,0.4375 0.03125,0.09375 0.28125,0.75 0.03125,0.09375 0.15625,0.6875 -0.1875,0.875 -0.8125,0.375 L 47,26.875 l -0.15625,-0.3125 -0.125,-0.59375 -0.03125,0 L 46.46875,25.3125 46.4375,25.21875 46.25,24.875 46.28125,23.96875 47,23.4375 z M 32.28125,28.03125 32.9375,28.625 33,29 l 0,2 -0.40625,0.78125 -0.875,0.15625 L 31.0625,31.34375 31,31 l 0,-2 0.40625,-0.8125 0.875,-0.15625 z m 16,1.3125 0.65625,0.625 0.0625,0.34375 0,2 -0.40625,0.78125 -0.875,0.1875 -0.65625,-0.625 L 47,32.3125 l 0,-2 0.40625,-0.8125 0.875,-0.15625 z m 0,6 0.65625,0.625 0.0625,0.34375 0,2 -0.40625,0.78125 -0.875,0.1875 -0.65625,-0.625 L 47,38.3125 l 0,-2 0.40625,-0.8125 0.875,-0.15625 z m 0,6 0.65625,0.625 0.0625,0.34375 0,2 -0.40625,0.78125 -0.875,0.1875 -0.65625,-0.625 L 47,44.3125 l 0,-2 0.40625,-0.8125 0.875,-0.15625 z m 0,6 0.65625,0.625 0.0625,0.34375 0,2 -0.40625,0.78125 -0.875,0.1875 -0.65625,-0.625 L 47,50.3125 l 0,-2 0.40625,-0.8125 0.875,-0.15625 z"
       inkscape:connector-curvature="0"
       id="path3689"
       style="font-size:medium;font-style:normal;font-variant:normal;font-weight:normal;font-stretch:normal;text-indent:0;text-align:start;text-decoration:none;line-height:normal;letter-spacing:normal;word-spacing:normal;text-transform:none;direction:ltr;block-progression:tb;writing-mode:lr-tb;text-anchor:start;color:#000000;fill:#ffffff;fill-opacity:1;stroke:none;stroke-width:2;marker:none;visibility:visible;display:inline;overflow:visible;enable-background:accumulate;font-family:Abandoned Bitplane;-inkscape-font-specification:Abandoned Bitplane" />
  </g>
</svg>
