<?xml version="1.0" encoding="UTF-8" standalone="no"?>
<!-- Created with Inkscape (http://www.inkscape.org/) -->

<svg
   xmlns:dc="http://purl.org/dc/elements/1.1/"
   xmlns:cc="http://creativecommons.org/ns#"
   xmlns:rdf="http://www.w3.org/1999/02/22-rdf-syntax-ns#"
   xmlns:svg="http://www.w3.org/2000/svg"
   xmlns="http://www.w3.org/2000/svg"
   xmlns:xlink="http://www.w3.org/1999/xlink"
   xmlns:sodipodi="http://sodipodi.sourceforge.net/DTD/sodipodi-0.dtd"
   xmlns:inkscape="http://www.inkscape.org/namespaces/inkscape"
   version="1.0"
   width="96"
   height="96"
   id="svg2408"
   style="display:inline"
   inkscape:version="0.48.4 r9939"
   sodipodi:docname="docky.svg">
  <sodipodi:namedview
     pagecolor="#ffffff"
     bordercolor="#666666"
     borderopacity="1"
     objecttolerance="10"
     gridtolerance="10"
     guidetolerance="10"
     inkscape:pageopacity="0"
     inkscape:pageshadow="2"
     inkscape:window-width="640"
     inkscape:window-height="480"
     id="namedview87"
     showgrid="false"
     inkscape:zoom="2.4583333"
     inkscape:cx="48"
     inkscape:cy="48"
     inkscape:window-x="82"
     inkscape:window-y="132"
     inkscape:window-maximized="0"
     inkscape:current-layer="svg2408" />
  <defs
     id="defs2410">
    <linearGradient
       x1="45.447727"
       y1="92.539597"
       x2="45.447727"
       y2="7.0165396"
       id="ButtonShadow"
       gradientUnits="userSpaceOnUse"
       gradientTransform="matrix(1.0058652,0,0,0.994169,100,0)">
      <stop
         id="stop3750"
         style="stop-color:#000000;stop-opacity:1"
         offset="0" />
      <stop
         id="stop3752"
         style="stop-color:#000000;stop-opacity:0.58823532"
         offset="1" />
    </linearGradient>
    <linearGradient
       id="linearGradient3737">
      <stop
         id="stop3739"
         style="stop-color:#ffffff;stop-opacity:1"
         offset="0" />
      <stop
         id="stop3741"
         style="stop-color:#ffffff;stop-opacity:0"
         offset="1" />
    </linearGradient>
    <linearGradient
       id="linearGradient3700">
      <stop
         id="stop3702"
         style="stop-color:#70a83e;stop-opacity:1"
         offset="0" />
      <stop
         id="stop3704"
         style="stop-color:#9fd058;stop-opacity:1"
         offset="1" />
    </linearGradient>
    <filter
       color-interpolation-filters="sRGB"
       id="filter3174">
      <feGaussianBlur
         id="feGaussianBlur3176"
         stdDeviation="1.71" />
    </filter>
    <linearGradient
       x1="36.357143"
       y1="6"
       x2="36.357143"
       y2="63.893143"
       id="linearGradient3188"
       xlink:href="#linearGradient3737"
       gradientUnits="userSpaceOnUse" />
    <filter
       x="-0.192"
       y="-0.192"
       width="1.3839999"
       height="1.3839999"
       color-interpolation-filters="sRGB"
       id="filter3794">
      <feGaussianBlur
         id="feGaussianBlur3796"
         stdDeviation="5.28" />
    </filter>
    <linearGradient
       x1="48"
       y1="20.220806"
       x2="48"
       y2="138.66119"
       id="linearGradient3613"
       xlink:href="#linearGradient3737"
       gradientUnits="userSpaceOnUse" />
    <radialGradient
       cx="48"
       cy="90.171875"
       r="42"
       fx="48"
       fy="90.171875"
       id="radialGradient3619"
       xlink:href="#linearGradient3737"
       gradientUnits="userSpaceOnUse"
       gradientTransform="matrix(1.1573129,0,0,0.99590774,-7.5510206,0.19713193)" />
    <clipPath
       id="clipPath3613">
      <rect
         width="84"
         height="84"
         rx="6"
         ry="6"
         x="6"
         y="6"
         id="rect3615"
         style="fill:#ffffff;fill-opacity:1;fill-rule:nonzero;stroke:none" />
    </clipPath>
    <linearGradient
       x1="48"
       y1="90"
       x2="48"
       y2="5.9877172"
       id="linearGradient3617"
       xlink:href="#linearGradient3700"
       gradientUnits="userSpaceOnUse" />
    <linearGradient
       x1="48"
       y1="90"
       x2="48"
       y2="5.9877172"
       id="linearGradient3878"
       xlink:href="#linearGradient3700"
       gradientUnits="userSpaceOnUse" />
    <linearGradient
       id="linearGradient3700-4">
      <stop
         id="stop3702-4"
         style="stop-color:#70a83e;stop-opacity:1"
         offset="0" />
      <stop
         id="stop3704-4"
         style="stop-color:#9fd058;stop-opacity:1"
         offset="1" />
    </linearGradient>
    <clipPath
       id="clipPath2973">
      <rect
         width="84"
         height="84"
         rx="6"
         ry="6"
         x="6"
         y="6"
         id="rect2975"
         style="fill:url(#linearGradient2977);fill-opacity:1;fill-rule:nonzero;stroke:none" />
    </clipPath>
    <linearGradient
       x1="48"
       y1="90"
       x2="48"
       y2="5.9877172"
       id="linearGradient2977"
       xlink:href="#linearGradient3700-4"
       gradientUnits="userSpaceOnUse" />
    <linearGradient
       x1="48"
       y1="90"
       x2="48"
       y2="5.9877172"
       id="linearGradient3708"
       xlink:href="#linearGradient2867-449-88-871-390-598-476-591-434-148"
       gradientUnits="userSpaceOnUse"
       gradientTransform="translate(0,-96)" />
    <linearGradient
       id="linearGradient2867-449-88-871-390-598-476-591-434-148">
      <stop
         id="stop4627"
         style="stop-color:#51cfee;stop-opacity:1"
         offset="0" />
      <stop
         id="stop4629"
         style="stop-color:#49a3d2;stop-opacity:1"
         offset="0.26238" />
      <stop
         id="stop4631"
         style="stop-color:#3470b4;stop-opacity:1"
         offset="0.704952" />
      <stop
         id="stop4633"
         style="stop-color:#1b5699;stop-opacity:1"
         offset="1" />
    </linearGradient>
    <linearGradient
       id="linearGradient3202">
      <stop
         id="stop3204"
         style="stop-color:#ffffff;stop-opacity:1"
         offset="0" />
      <stop
         id="stop3206"
         style="stop-color:#ced3d6;stop-opacity:1"
         offset="1" />
    </linearGradient>
    <linearGradient
       x1="116.29638"
       y1="32.374962"
       x2="116.29638"
       y2="226.17993"
       id="linearGradient2928"
       xlink:href="#linearGradient3202"
       gradientUnits="userSpaceOnUse"
       gradientTransform="matrix(0.32811093,0,0,0.34059034,6.3606404,3.973393)" />
    <linearGradient
       x1="32.251034"
       y1="6.1317081"
       x2="32.251034"
       y2="90.238609"
       id="linearGradient3721"
       xlink:href="#ButtonShadow"
       gradientUnits="userSpaceOnUse"
       gradientTransform="translate(0,-97)" />
    <linearGradient
       x1="32.251034"
       y1="6.1317081"
       x2="32.251034"
       y2="90.238609"
       id="linearGradient3725"
       xlink:href="#ButtonShadow"
       gradientUnits="userSpaceOnUse"
       gradientTransform="matrix(1.0238095,0,0,1.0119048,-1.1428571,-98.071429)" />
    <linearGradient
       x1="32.251034"
       y1="6.1317081"
       x2="32.251034"
       y2="90.238609"
       id="linearGradient3772"
       xlink:href="#ButtonShadow"
       gradientUnits="userSpaceOnUse"
       gradientTransform="matrix(1.0238095,0,0,1.0119048,-1.1428571,-98.071429)" />
    <linearGradient
       x1="32.251034"
       y1="6.1317081"
       x2="32.251034"
       y2="90.238609"
       id="linearGradient3780"
       xlink:href="#ButtonShadow"
       gradientUnits="userSpaceOnUse"
       gradientTransform="matrix(1.0238095,0,0,1.0119048,-1.1428571,-98.071429)" />
    <linearGradient
       x1="32.251034"
       y1="6.1317081"
       x2="32.251034"
       y2="90.238609"
       id="linearGradient3788"
       xlink:href="#ButtonShadow"
       gradientUnits="userSpaceOnUse"
       gradientTransform="matrix(1.0238095,0,0,1.0119048,-1.1428571,-98.071429)" />
  </defs>
  <metadata
     id="metadata2413">
    <rdf:RDF>
      <cc:Work
         rdf:about="">
        <dc:format>image/svg+xml</dc:format>
        <dc:type
           rdf:resource="http://purl.org/dc/dcmitype/StillImage" />
      </cc:Work>
    </rdf:RDF>
  </metadata>
  <g
     id="layer2"
     style="display:none">
    <rect
       width="86"
       height="85"
       rx="6"
       ry="6"
       x="105"
       y="7"
       id="rect3745"
       style="opacity:0.9;fill:url(#ButtonShadow);fill-opacity:1;fill-rule:nonzero;stroke:none;filter:url(#filter3174)" />
  </g>
  <rect
     style="fill:#2a7fff;fill-opacity:1;stroke:none"
     id="rect3064"
     width="96"
     height="96"
     x="0"
     y="-2.0265579e-06" />
  <path
     style="fill:#ffffff;fill-opacity:1;fill-rule:nonzero;stroke:none"
     id="path1919"
     inkscape:connector-curvature="0"
     d="m 48.406782,15.40678 c -4.05562,0 -7.33455,3.285396 -7.33334,7.333333 -9.1e-4,3.054258 1.92003,5.576141 4.58334,6.674479 l 0,2.492188 -11,0 c -0.48694,0 -0.91667,0.39897 -0.91667,0.916667 l 0,2.75 c 0,0.517697 0.39817,0.916666 0.91667,0.916666 l 11,0 0,33.916667 c 0,0.941791 -1.57159,0.961362 -2.46354,1.059896 -1.30678,-0.0081 -2.10127,-0.341564 -3.35157,-0.6875 -2.82357,-0.825657 -5.51911,-1.969943 -8.10677,-3.351563 -1.08948,-0.604023 -2.15302,-1.192856 -3.12239,-1.976562 -0.41782,-0.356455 -0.90378,-0.871834 -0.85938,-1.460938 0.0564,-0.445952 0.28227,-0.921019 0.77344,-1.002604 0.44268,-0.07011 0.84032,0.167338 1.23177,0.315104 0.33745,0.145517 0.5696,-0.263781 0.51562,-0.544271 -0.0543,-0.738926 -0.30469,-1.422887 -0.6875,-2.0625 -0.79645,-1.310064 -2.02213,-2.284521 -3.29427,-3.122395 -1.35822,-0.867385 -2.80617,-1.821056 -3.66666,-3.208334 -0.17118,-0.25639 -0.36129,-0.680589 -0.74479,-0.544271 -0.53314,0.172922 -0.82742,0.695418 -1.08855,1.145834 -0.73469,1.398133 -1.10104,2.906347 -1.43229,4.440104 -0.2723,1.220339 -0.32428,2.509164 -0.22916,3.752604 0.0985,1.244155 0.18362,2.50481 0.6875,3.666667 0.31732,0.763526 0.87598,1.379088 1.43229,1.976562 0.35498,-0.375322 0.72538,-0.778191 1.08854,-1.145833 0.47062,-0.472454 1.05862,-0.779199 1.74739,-0.6875 0.93746,0.120657 1.78413,0.688732 2.52084,1.231771 1.0377,0.806944 2.0078,1.651403 3.0651,2.434896 1.67304,1.278564 3.51837,2.214553 5.41406,3.122395 1.57938,0.733445 3.20218,1.466017 4.84115,2.0625 0.29351,0.128188 0.61784,0.12237 0.91667,0.229167 2.94977,1.226784 5.43476,2.654621 7.47656,5.213542 0.003,0.03511 -0.003,0.109761 0,0.143229 0.0235,-0.03034 0.0624,-0.05592 0.0859,-0.08589 0.0235,0.02998 0.0625,0.05564 0.0859,0.08589 0.0154,-0.07067 -0.0152,-0.158198 0,-0.229167 2.0354,-2.529239 4.54468,-3.908254 7.47656,-5.127604 0.29883,-0.106796 0.62316,-0.100981 0.91667,-0.229167 1.63898,-0.596481 3.26177,-1.329057 4.84114,-2.0625 1.8957,-0.907841 3.74103,-1.84383 5.41407,-3.122395 1.05729,-0.783495 2.0274,-1.627949 3.0651,-2.434896 0.73671,-0.543042 1.58338,-1.111106 2.52083,-1.231771 0.68878,-0.09169 1.27678,0.215038 1.7474,0.6875 0.36316,0.367641 0.73356,0.770511 1.08854,1.145833 0.55632,-0.597475 1.11497,-1.213039 1.43229,-1.976562 0.50388,-1.161853 0.58904,-2.422515 0.6875,-3.666667 0.0951,-1.243436 0.0431,-2.532264 -0.22916,-3.752604 -0.33125,-1.533758 -0.6976,-3.041973 -1.43229,-4.440104 -0.26113,-0.450414 -0.55541,-0.972905 -1.08855,-1.145834 -0.38349,-0.136324 -0.57362,0.287881 -0.74479,0.544271 -0.86049,1.387278 -2.30844,2.34095 -3.66666,3.208334 -1.27215,0.837873 -2.49782,1.812328 -3.29428,3.122395 -0.38281,0.639616 -0.63318,1.323572 -0.6875,2.0625 -0.054,0.280492 0.17819,0.689799 0.51563,0.544271 0.39145,-0.147767 0.78909,-0.385216 1.23177,-0.315104 0.49117,0.0816 0.717,0.556652 0.77344,1.002604 0.0444,0.589103 -0.44156,1.104479 -0.85938,1.460938 -0.96937,0.783709 -2.03291,1.37254 -3.12239,1.976562 -2.58766,1.381619 -5.2832,2.525906 -8.10677,3.351563 -1.2503,0.345937 -2.04479,0.67942 -3.35157,0.6875 -1.12276,0.200131 -2.46354,-0.409432 -2.46354,-1.059896 l 0,-33.916667 11,0 c 0.42381,0 0.91667,-0.367406 0.91667,-0.916666 l 0,-2.75 c 0,-0.533479 -0.42973,-0.916667 -0.91667,-0.916667 l -11,0 0,-2.492188 c 2.66331,-1.098339 4.58426,-3.620221 4.58334,-6.674479 10e-4,-4.047937 -3.27774,-7.333333 -7.33334,-7.333333 z m -0.14323,3.580729 c 1.96874,-1e-6 3.58132,1.55842 3.58073,3.523438 5.9e-4,1.96502 -1.61199,3.580729 -3.58073,3.580729 -1.96875,-1e-6 -3.60997,-1.615706 -3.60938,-3.580729 -5.9e-4,-1.965018 1.64063,-3.523438 3.60938,-3.523438 z" />
</svg>
