<?xml version="1.0" encoding="UTF-8" standalone="no"?>
<!-- Created with Inkscape (http://www.inkscape.org/) -->

<svg
   xmlns:dc="http://purl.org/dc/elements/1.1/"
   xmlns:cc="http://creativecommons.org/ns#"
   xmlns:rdf="http://www.w3.org/1999/02/22-rdf-syntax-ns#"
   xmlns:svg="http://www.w3.org/2000/svg"
   xmlns="http://www.w3.org/2000/svg"
   xmlns:xlink="http://www.w3.org/1999/xlink"
   xmlns:sodipodi="http://sodipodi.sourceforge.net/DTD/sodipodi-0.dtd"
   xmlns:inkscape="http://www.inkscape.org/namespaces/inkscape"
   version="1.0"
   width="96"
   height="96"
   id="svg2408"
   inkscape:version="0.48.4 r9939"
   sodipodi:docname="gbrainy.svg">
  <sodipodi:namedview
     pagecolor="#ffffff"
     bordercolor="#666666"
     borderopacity="1"
     objecttolerance="10"
     gridtolerance="10"
     guidetolerance="10"
     inkscape:pageopacity="0"
     inkscape:pageshadow="2"
     inkscape:window-width="1366"
     inkscape:window-height="739"
     id="namedview52"
     showgrid="false"
     inkscape:zoom="2.4583333"
     inkscape:cx="48"
     inkscape:cy="48"
     inkscape:window-x="0"
     inkscape:window-y="0"
     inkscape:window-maximized="1"
     inkscape:current-layer="svg2408" />
  <defs
     id="defs2410">
    <linearGradient
       id="linearGradient3692">
      <stop
         id="stop3694"
         style="stop-color:#2f7d9e;stop-opacity:1"
         offset="0" />
      <stop
         id="stop3696"
         style="stop-color:#54a8cc;stop-opacity:1"
         offset="1" />
    </linearGradient>
    <linearGradient
       x1="45.447727"
       y1="92.539597"
       x2="45.447727"
       y2="7.0165396"
       id="ButtonShadow"
       gradientUnits="userSpaceOnUse"
       gradientTransform="scale(1.0058652,0.994169)">
      <stop
         id="stop3750"
         style="stop-color:#000000;stop-opacity:1"
         offset="0" />
      <stop
         id="stop3752"
         style="stop-color:#000000;stop-opacity:0.58823532"
         offset="1" />
    </linearGradient>
    <linearGradient
       id="linearGradient3737">
      <stop
         id="stop3739"
         style="stop-color:#ffffff;stop-opacity:1"
         offset="0" />
      <stop
         id="stop3741"
         style="stop-color:#ffffff;stop-opacity:0"
         offset="1" />
    </linearGradient>
    <filter
       color-interpolation-filters="sRGB"
       id="filter3174">
      <feGaussianBlur
         id="feGaussianBlur3176"
         stdDeviation="1.71" />
    </filter>
    <linearGradient
       x1="36.357143"
       y1="6"
       x2="36.357143"
       y2="63.893143"
       id="linearGradient3188"
       xlink:href="#linearGradient3737"
       gradientUnits="userSpaceOnUse" />
    <filter
       x="-0.192"
       y="-0.192"
       width="1.3839999"
       height="1.3839999"
       color-interpolation-filters="sRGB"
       id="filter3794">
      <feGaussianBlur
         id="feGaussianBlur3796"
         stdDeviation="5.28" />
    </filter>
    <linearGradient
       x1="48"
       y1="20.220806"
       x2="48"
       y2="138.66119"
       id="linearGradient3613"
       xlink:href="#linearGradient3737"
       gradientUnits="userSpaceOnUse" />
    <radialGradient
       cx="48"
       cy="90.171875"
       r="42"
       fx="48"
       fy="90.171875"
       id="radialGradient3619"
       xlink:href="#linearGradient3737"
       gradientUnits="userSpaceOnUse"
       gradientTransform="matrix(1.1573129,0,0,0.99590774,-7.5510206,0.19713193)" />
    <clipPath
       id="clipPath3613">
      <rect
         width="84"
         height="84"
         rx="6"
         ry="6"
         x="6"
         y="6"
         id="rect3615"
         style="fill:#ffffff;fill-opacity:1;fill-rule:nonzero;stroke:none" />
    </clipPath>
    <linearGradient
       x1="48"
       y1="90"
       x2="48"
       y2="5.9877172"
       id="linearGradient3617"
       xlink:href="#linearGradient3692"
       gradientUnits="userSpaceOnUse" />
    <linearGradient
       x1="45.447727"
       y1="92.539597"
       x2="45.447727"
       y2="7.0165396"
       id="ButtonShadow-0"
       gradientUnits="userSpaceOnUse"
       gradientTransform="matrix(1.0058652,0,0,0.994169,100,0)">
      <stop
         id="stop3750-8"
         style="stop-color:#000000;stop-opacity:1"
         offset="0" />
      <stop
         id="stop3752-5"
         style="stop-color:#000000;stop-opacity:0.58823532"
         offset="1" />
    </linearGradient>
    <linearGradient
       x1="32.251034"
       y1="6.1317081"
       x2="32.251034"
       y2="90.238609"
       id="linearGradient3780"
       xlink:href="#ButtonShadow-0"
       gradientUnits="userSpaceOnUse"
       gradientTransform="matrix(1.0238095,0,0,1.0119048,-1.1428571,-98.071429)" />
    <linearGradient
       x1="32.251034"
       y1="6.1317081"
       x2="32.251034"
       y2="90.238609"
       id="linearGradient3772"
       xlink:href="#ButtonShadow-0"
       gradientUnits="userSpaceOnUse"
       gradientTransform="matrix(1.0238095,0,0,1.0119048,-1.1428571,-98.071429)" />
    <linearGradient
       x1="32.251034"
       y1="6.1317081"
       x2="32.251034"
       y2="90.238609"
       id="linearGradient3725"
       xlink:href="#ButtonShadow-0"
       gradientUnits="userSpaceOnUse"
       gradientTransform="matrix(1.0238095,0,0,1.0119048,-1.1428571,-98.071429)" />
    <linearGradient
       x1="32.251034"
       y1="6.1317081"
       x2="32.251034"
       y2="90.238609"
       id="linearGradient3721"
       xlink:href="#ButtonShadow-0"
       gradientUnits="userSpaceOnUse"
       gradientTransform="translate(0,-97)" />
    <linearGradient
       x1="32.251034"
       y1="6.1317081"
       x2="32.251034"
       y2="90.238609"
       id="linearGradient3026"
       xlink:href="#ButtonShadow-0"
       gradientUnits="userSpaceOnUse"
       gradientTransform="matrix(1.0238095,0,0,1.0119048,-1.1428571,-98.071429)" />
    <radialGradient
       inkscape:collect="always"
       xlink:href="#linearGradient3737"
       id="radialGradient3030"
       gradientUnits="userSpaceOnUse"
       gradientTransform="matrix(1.1573129,0,0,0.99590774,3.4320305,-7.9384616)"
       cx="48"
       cy="90.171875"
       fx="48"
       fy="90.171875"
       r="42" />
    <linearGradient
       inkscape:collect="always"
       xlink:href="#linearGradient3737"
       id="linearGradient3033"
       gradientUnits="userSpaceOnUse"
       x1="36.357143"
       y1="6"
       x2="36.357143"
       y2="63.893143"
       gradientTransform="translate(-2.8474569,-19.118644)" />
    <linearGradient
       inkscape:collect="always"
       xlink:href="#linearGradient3692"
       id="linearGradient3036"
       gradientUnits="userSpaceOnUse"
       x1="46.779659"
       y1="-29.59322"
       x2="46.372883"
       y2="-46.893639"
       gradientTransform="matrix(1.1428571,0,0,1.1428571,-6.8571429,-6.8571429)" />
  </defs>
  <metadata
     id="metadata2413">
    <rdf:RDF>
      <cc:Work
         rdf:about="">
        <dc:format>image/svg+xml</dc:format>
        <dc:type
           rdf:resource="http://purl.org/dc/dcmitype/StillImage" />
        <dc:title />
      </cc:Work>
    </rdf:RDF>
  </metadata>
  <g
     id="layer2"
     style="display:none">
    <rect
       width="86"
       height="85"
       rx="6"
       ry="6"
       x="5"
       y="7"
       id="rect3745"
       style="opacity:0.9;fill:url(#ButtonShadow);fill-opacity:1;fill-rule:nonzero;stroke:none;filter:url(#filter3174)" />
  </g>
  <rect
     style="fill:url(#linearGradient3036);fill-opacity:1;fill-rule:nonzero;stroke:none"
     id="rect2419"
     y="5.3290705e-15"
     x="0"
     ry="0"
     rx="0"
     height="96"
     width="96" />
  <path
     style="fill:#ffffff"
     id="path3736"
     inkscape:connector-curvature="0"
     d="m 42.624473,20.440678 c -0.322977,0.01909 -0.655838,0.06599 -0.96875,0.125 a 0.22239356,0.22239356 0 0 1 -0.03125,0 c -0.161269,0.0062 -0.261434,0.05916 -0.3125,0.09375 -0.05107,0.03459 -0.03101,0.05288 -0.03125,0.0625 -2.35e-4,0.0096 -0.02101,0.01894 0.03125,0.0625 0.05226,0.04356 0.158305,0.100654 0.3125,0.125 a 0.22239356,0.22239356 0 0 1 0.03125,0 0.22239356,0.22239356 0 0 1 0.03125,0 c 1.610368,0.700899 3.321652,1.295812 4.875,2.21875 0.01204,0.0072 0.01923,0.02406 0.03125,0.03125 0.996736,0.450446 1.819398,1.202999 2.4375,2.0625 0.716047,1.078219 0.761476,2.550143 0.3125,3.71875 a 0.22239356,0.22239356 0 0 1 -0.03125,0 c -0.768418,1.541751 -1.422719,3.240779 -2.625,4.59375 -0.0096,0.01082 -0.02157,0.02047 -0.03125,0.03125 -0.744073,1.066736 -1.943948,1.540931 -2.84375,2.25 -0.01092,0.0094 -0.02028,0.0219 -0.03125,0.03125 -0.688695,0.587193 -1.49225,1.099593 -2.03125,1.71875 -0.298683,0.517818 -0.626399,0.942551 -0.625,1.46875 a 0.22239356,0.22239356 0 0 1 0,0.03125 0.22239356,0.22239356 0 0 1 0,0.03125 c -0.263396,1.024196 -0.09446,2.10539 0.25,3.125 0.240955,1.032601 0.810499,1.973771 1.59375,2.6875 0.0094,0.0028 0.02179,-0.0026 0.03125,0 0.504696,0.140617 1.149985,-0.02402 1.75,-0.1875 0.257532,-0.421169 0.562635,-0.772133 0.875,-1.125 0.451426,-0.532549 1.097879,-0.90067 1.75,-1.125 0.009,-0.0044 0.02226,0.0043 0.03125,0 l 0,-0.03125 c 1.660851,-0.793395 3.468875,-0.574811 5.09375,-0.9375 0.458279,-0.155258 0.907079,-0.325871 1.21875,-0.625 0.008,-0.0098 0.02343,-0.02122 0.03125,-0.03125 0.220791,-0.283049 0.364899,-0.675013 0.53125,-1.0625 0.172245,-0.401215 0.378508,-0.814461 0.71875,-1.15625 a 0.22239356,0.22239356 0 0 1 0.125,-0.0625 0.22239356,0.22239356 0 0 1 0.03125,0 c 0.608692,-0.01534 1.09937,0.267893 1.53125,0.59375 0.400305,0.302034 0.761685,0.635024 1.125,0.875 0.007,-0.03094 0.02702,-0.02472 0.03125,-0.0625 0.01402,-0.125153 0.0225,-0.261712 0.03125,-0.40625 0.0087,-0.144538 -0.0041,-0.284637 0.03125,-0.40625 a 0.22239356,0.22239356 0 0 1 0.03125,-0.03125 c 0.274417,-0.534583 0.607011,-1.194116 1.1875,-1.59375 0.011,-0.0094 0.02012,-0.02206 0.03125,-0.03125 0.787797,-0.650159 1.905126,-0.76212 2.8125,-0.28125 l 0,-0.03125 c 0.484751,0.197881 0.866038,0.561239 1.25,0.84375 0.383962,0.282511 0.764028,0.49676 1.1875,0.53125 0.382033,0.07231 0.731789,-0.03352 1.0625,-0.21875 0.330711,-0.185233 0.634427,-0.443641 0.9375,-0.71875 0.277905,-0.229137 0.599523,-0.614755 0.96875,-0.90625 0.362291,-0.286019 0.849253,-0.496045 1.375,-0.3125 0.0093,0.0029 0.02205,-0.003 0.03125,0 1.107773,0.357718 1.792953,1.296041 2.53125,2 0.0102,0.0097 0.02103,0.02161 0.03125,0.03125 0.796879,0.515889 1.56203,1.115121 2.4375,0.96875 a 0.22239356,0.22239356 0 0 1 0.03125,0 0.22239356,0.22239356 0 0 1 0.03125,0 c 1.175958,0.126021 2.343474,-0.590508 2.90625,-1.625 0.220872,-0.405248 0.16291,-0.857844 -0.125,-1.25 a 0.22239356,0.22239356 0 0 1 -0.03125,-0.0625 0.22239356,0.22239356 0 0 1 0,-0.03125 c -0.07667,-0.529672 -0.539343,-0.965822 -0.78125,-1.59375 -0.0088,-0.0229 -0.02303,-0.03903 -0.03125,-0.0625 -1.429205,-2.351034 -3.606676,-4.166069 -5.71875,-5.96875 -0.01117,-0.0095 -0.02008,-0.02172 -0.03125,-0.03125 -0.909888,-0.573061 -1.716011,-1.266215 -2.59375,-1.8125 -0.008,-0.0044 -0.02325,0.0044 -0.03125,0 -1.488948,-0.818659 -2.881701,-1.728795 -4.4375,-2.3125 a 0.22239356,0.22239356 0 0 1 -0.0625,-0.03125 c -1.062836,-0.612628 -2.215498,-1.08078 -3.375,-1.53125 -0.0097,-0.0026 -0.02154,0.0026 -0.03125,0 -1.090482,-0.291353 -2.090732,-0.779589 -3.125,-1.0625 -1.539296,-0.368746 -3.073078,-0.698486 -4.625,-1.03125 -2.011704,-0.383474 -4.082111,-0.383398 -6.15625,-0.53125 -0.0104,4e-5 -0.02085,-2.1e-5 -0.03125,0 -0.987985,0.002 -1.978658,-0.08793 -2.9375,-0.03125 z m -3.15625,0.875 c -1.46932,0.08031 -2.95308,0.469049 -4.4375,0.8125 a 0.37899123,0.37899123 0 0 1 -0.0312,0 c -2.00767,0.365214 -3.93343,1.163942 -5.78125,2.09375 -2.52187,1.164012 -4.85013,2.726028 -6.84375,4.65625 -1.38478,1.17651 -2.5164,2.649015 -3.53125,4.1875 -1.09911,1.496467 -1.84059,3.241668 -2.5625,5 -0.009,0.02166 -0.0224,0.04084 -0.0312,0.0625 l -0.3125,1.125 c -0.41866,1.788705 -0.92969,3.512557 -0.96875,5.28125 0.002,0.01001 -0.002,0.02124 0,0.03125 -2e-4,0.01035 1.7e-4,0.02089 0,0.03125 0.2942,1.74844 0.85274,3.489049 1.875,4.90625 0.83234,1.29444 1.83252,2.48334 3.09375,3.3125 a 0.37899123,0.37899123 0 0 1 0.0312,0.03125 c 0.81816,0.687677 1.92146,0.963784 3,1.53125 0.0101,0.0022 0.0211,-0.0022 0.0312,0 0.0213,0.01129 0.0413,0.01972 0.0625,0.03125 1.87896,0.399576 3.82147,0.665033 5.625,0.1875 a 0.37899123,0.37899123 0 0 1 0.125,0 c -0.0248,-0.002 0.10525,-0.01591 0.25,-0.0625 0.14475,-0.04659 0.33295,-0.107765 0.5,-0.15625 0.0835,-0.02424 0.15706,-0.05204 0.25,-0.0625 0.0506,-0.0057 0.123,0.02345 0.1875,0.03125 0.93324,-1.264582 1.81923,-2.620636 2.875,-3.84375 a 0.37899123,0.37899123 0 0 1 0.0312,-0.03125 c 0.8273,-0.774867 1.70422,-1.549297 2.75,-2.09375 a 0.37899123,0.37899123 0 0 1 0.0937,-0.03125 c 0.59835,-0.147235 1.06334,-0.523025 1.40625,-1.0625 a 0.37899123,0.37899123 0 0 1 0.0312,-0.03125 c 0.19657,-0.209142 0.29752,-0.518704 0.40625,-0.875 0.10873,-0.356296 0.22666,-0.761536 0.5625,-1.125 a 0.37899123,0.37899123 0 0 1 0.0312,-0.03125 c 0.76999,-0.64165 1.87164,-0.793077 2.8125,-0.5 a 0.37899123,0.37899123 0 0 1 -0.03125,-0.03125 c -0.76256,-0.952153 -1.37467,-2.068715 -1.59375,-3.3125 -0.26722,-1.320709 -0.041,-2.701113 0.625,-3.875 a 0.37899123,0.37899123 0 0 1 0.0937,-0.09375 c 0.20383,-0.192445 0.38918,-0.484218 0.625,-0.78125 0.210234,-0.264807 0.480485,-0.517776 0.84375,-0.6875 0.926779,-0.764048 2.025652,-1.254729 2.71875,-2.03125 a 0.37899123,0.37899123 0 0 1 0.03125,-0.03125 c 1.23556,-1.064812 2.100367,-2.491313 2.90625,-3.96875 0.0037,-0.009 -0.0037,-0.02219 0,-0.03125 0.320764,-0.786592 0.54636,-1.667965 0.6875,-2.53125 -5.08e-4,-0.01058 5.39e-4,-0.02067 0,-0.03125 -0.04005,-0.786118 -0.187003,-1.554603 -0.6875,-2.0625 a 0.37899123,0.37899123 0 0 1 -0.03125,-0.0625 c -0.414793,-0.611816 -1.103821,-1.041479 -1.8125,-1.5 -0.02174,-0.0095 -0.04083,-0.02171 -0.0625,-0.03125 -1.313403,-0.578436 -2.503696,-1.30122 -3.78125,-1.75 a 0.37899123,0.37899123 0 0 1 -0.09375,-0.03125 c -0.51701,-0.33972 -1.16314,-0.384364 -1.90625,-0.5625 -0.021,-0.005 -0.0414,0.0053 -0.0625,0 z m 28.90625,16.4375 c -0.575686,0.301846 -1.051954,0.772372 -1.5625,1.28125 l -0.03125,0 c -0.457893,0.51893 -1.072995,0.878941 -1.78125,0.9375 a 0.38396326,0.38396326 0 0 1 -0.03125,0 c -0.566871,-0.0022 -1.081486,-0.230227 -1.5,-0.40625 a 0.38396326,0.38396326 0 0 1 -0.125,-0.0625 c -0.39623,-0.391659 -0.890746,-0.692735 -1.4375,-0.9375 a 0.38396326,0.38396326 0 0 1 -0.09375,-0.0625 c -0.299676,-0.248735 -0.686287,-0.318551 -1.125,-0.28125 -0.368912,0.04335 -0.695845,0.16147 -0.84375,0.34375 a 0.38396326,0.38396326 0 0 1 -0.125,0.09375 c -0.306848,0.166642 -0.492725,0.345583 -0.53125,0.625 a 0.38396326,0.38396326 0 0 1 -0.03125,0.09375 c -0.154481,0.324703 -0.163772,0.71643 -0.15625,1.125 0.716073,0.59304 1.458106,1.150797 2.25,1.65625 0.0083,0.0036 0.0229,-0.0035 0.03125,0 0.01238,0.0079 0.01885,0.02338 0.03125,0.03125 0.612914,0.255963 1.311159,0.437769 2,0.75 0.0094,0.0043 0.02182,-0.0043 0.03125,0 1.052959,0.336171 1.674219,1.177894 2.3125,1.78125 0.01,0.0094 0.0213,0.02197 0.03125,0.03125 0.440099,0.322195 0.850735,0.709546 1.125,1.21875 a 0.38396326,0.38396326 0 0 1 0,0.03125 c 0.419439,0.889626 0.798746,1.801752 1.15625,2.71875 a 0.38396326,0.38396326 0 0 1 0.03125,0 c 0.391215,1.213297 0.327129,2.456714 0.3125,3.625 a 0.38396326,0.38396326 0 0 1 0,0.0625 c -0.114034,0.878266 -0.3888,1.630446 -0.59375,2.40625 0.374375,-0.03468 0.75494,-0.07577 1.125,-0.0625 0.02055,-0.0012 0.04194,0.0012 0.0625,0 1.628471,-0.09717 3.305696,-0.204102 4.96875,-0.09375 1.683382,0.150169 3.436983,0.09135 5.1875,0.3125 0.02499,-5.6e-4 0.03788,-1.65e-4 0.0625,0 0.233857,0.0016 0.453702,0.01266 0.59375,0 0.07739,-0.007 0.111578,-0.02267 0.125,-0.03125 0.01342,-0.0086 0.01593,0.02132 0.03125,-0.03125 a 0.38396326,0.38396326 0 0 1 0,-0.03125 c 0.274123,-0.894986 0.362327,-1.873656 0.34375,-2.84375 -0.0028,-0.02101 0.0027,-0.0415 0,-0.0625 -0.138564,-1.082978 -0.130211,-2.165307 -0.125,-3.21875 5.1e-5,-0.01021 -4.9e-5,-0.02104 0,-0.03125 -0.08718,-1.348408 -0.24395,-2.713873 -0.5,-4.03125 -0.345398,-1.710419 -0.598316,-3.393578 -1.125,-5 -0.01385,-0.02298 -0.0183,-0.03944 -0.03125,-0.0625 -0.152974,-0.272424 -0.232862,-0.557026 -0.34375,-0.75 -0.0939,-0.163402 -0.197098,-0.206819 -0.3125,-0.25 -0.20964,0.144287 -0.382751,0.42455 -0.71875,0.71875 l -0.03125,0 c -0.495891,0.489239 -1.042989,1.168078 -1.90625,1.40625 -0.0238,0.0066 -0.03821,0.02537 -0.0625,0.03125 -0.529677,0.206417 -1.050376,0.163554 -1.5,0.15625 a 0.38396326,0.38396326 0 0 1 -0.0625,0 c -0.759326,-0.106012 -1.411105,-0.531414 -1.9375,-0.96875 -0.819371,-0.7596 -1.483137,-1.603176 -2.34375,-2.0625 a 0.38396326,0.38396326 0 0 1 -0.0625,-0.03125 c -0.161039,-0.126228 -0.42426,-0.131005 -0.78125,-0.125 z m -12.5,2.625 c -0.493785,0.65953 -1.03892,1.248878 -1.6875,1.75 -0.848855,0.521964 -1.762081,0.985704 -2.78125,1.03125 -0.979537,0.150921 -2.003463,0.329873 -2.9375,0.625 -0.741411,0.43595 -1.58459,0.663566 -2.21875,1.28125 -1.113976,0.892556 -2.52599,1.348606 -3.90625,1.59375 -0.984712,-0.256376 -2.05736,-0.364392 -3.0625,-0.15625 -0.56149,0.581344 -0.86643,1.335107 -1.1875,2.0625 -0.27576,0.484385 -0.7827,0.731313 -1.15625,1.125 -0.78154,0.262059 -1.3474,0.906711 -2.125,1.1875 -1.66984,1.260461 -2.69261,3.130716 -3.96875,4.75 -0.64068,0.539708 -0.23618,1.400535 -0.15625,2.09375 0.11382,1.433754 1.15004,2.710332 2.125,3.5625 1.66398,1.421826 3.83929,1.976773 5.90625,2.53125 1.25607,0.180923 2.505403,0.43566 3.78125,0.34375 1.501466,0.01634 2.986374,0.0277 4.46875,-0.25 1.322755,-0.110414 2.602726,-0.417238 3.875,-0.78125 2.20264,-0.477717 4.322145,-1.266183 6.4375,-2.03125 1.415358,-0.507373 2.907098,-0.881997 4.15625,-1.75 1.137463,-0.382951 2.013037,-1.253772 2.78125,-2.125 0.254991,-0.577307 0.791615,-1.014921 0.875,-1.65625 0.364902,-0.680169 0.41957,-1.489689 0.65625,-2.21875 0.204663,-1.255485 0.384874,-2.522821 0.09375,-3.78125 -0.09901,-1.309334 -0.770361,-2.465182 -1.53125,-3.5 -0.85266,-1.522933 -2.653397,-2.06929 -4.125,-2.8125 -0.562354,-0.321628 -1.264079,-0.334067 -1.71875,-0.875 -0.77174,-0.759352 -1.633985,-1.478226 -2.59375,-2 z m 17.4375,15.53125 c -0.219751,4.67e-4 -0.440254,0.01188 -0.65625,0.03125 a 0.44103601,0.44103601 0 0 1 -0.03125,0 c -1.83025,0.01485 -3.671578,0.257686 -5.53125,0.4375 -0.53998,0.873433 -1.189963,1.649188 -1.90625,2.34375 -0.0099,0.0121 -0.02123,0.01937 -0.03125,0.03125 -0.59456,0.705228 -1.390848,1.022379 -2,1.40625 -0.02271,0.02322 -0.03934,0.04097 -0.0625,0.0625 -0.436706,0.40598 -0.955126,0.51001 -1.34375,0.65625 l 0,0.03125 c -0.906136,0.471344 -1.856373,0.719697 -2.6875,1.09375 a 0.44103601,0.44103601 0 0 1 -0.0625,0.03125 c -1.06855,0.294259 -2.138656,0.541026 -3.125,0.9375 a 0.44103601,0.44103601 0 0 1 -0.03125,0 c -0.572152,0.179083 -1.062104,0.404424 -1.53125,0.6875 l 0,1.1875 0,0.03125 c 0.16596,0.558642 0.298865,1.088774 0.53125,1.5 0.506495,0.964198 1.218158,1.836599 2.09375,2.46875 l 0,-0.03125 c 1.126858,0.750536 2.280889,1.451311 3.53125,1.75 a 0.44103601,0.44103601 0 0 1 0.03125,0 c 0.912701,0.275919 1.887269,0.422597 2.875,0.53125 0.02078,0.0023 0.04169,-0.0023 0.0625,0 1.209212,0.01222 2.459595,-0.127398 3.75,-0.09375 1.407882,-0.293828 2.807257,-0.51707 3.96875,-1.1875 a 0.44103601,0.44103601 0 0 1 0.03125,-0.03125 c 0.989766,-0.430006 1.901911,-1.077741 2.6875,-1.84375 a 0.44103601,0.44103601 0 0 1 0.03125,-0.03125 c 0.464653,-0.37093 0.778682,-0.994703 1.375,-1.5625 0.01147,-0.02607 0.01945,-0.03709 0.03125,-0.0625 0.273846,-0.589682 0.617493,-1.049176 0.6875,-1.46875 a 0.44103601,0.44103601 0 0 1 0.03125,-0.125 c 0.261555,-0.538623 0.477383,-1.130549 0.46875,-1.65625 a 0.44103601,0.44103601 0 0 1 0,-0.0625 c 0.07458,-0.480245 0.129614,-0.930034 0.09375,-1.375 a 0.44103601,0.44103601 0 0 1 0,-0.0625 c 0.07646,-0.886018 -0.197253,-1.805435 -0.46875,-2.75 a 0.44103601,0.44103601 0 0 1 0.09375,-0.40625 c 0.216181,-0.2708 0.340178,-0.812447 0.90625,-1.21875 a 0.44103601,0.44103601 0 0 1 0,-0.03125 c 0.204191,-0.138815 0.294542,-0.41829 0.40625,-0.78125 -0.0052,-0.01252 0.01521,-0.02238 -0.03125,-0.0625 -0.06291,-0.05433 -0.199478,-0.09576 -0.3125,-0.15625 -0.612622,-0.05723 -1.220789,-0.132952 -1.78125,-0.09375 a 0.44103601,0.44103601 0 0 1 -0.0625,0 c -0.697934,-0.05399 -1.371997,-0.126401 -2.03125,-0.125 z m -20.75,8.78125 -5.78125,1.1875 3.1875,6.28125 3.53125,2.59375 2.25,5.90625 6.28125,-2.25 c -0.53227,-1.051388 -1.024377,-2.109897 -1.625,-3.125 -0.539164,-0.852299 -0.883053,-1.797406 -1.28125,-2.71875 -0.08702,-0.344535 -0.339382,-0.611742 -0.59375,-0.84375 -0.472442,-0.538051 -1.071418,-0.918725 -1.71875,-1.21875 -0.648147,-0.288393 -1.309601,-0.549899 -2,-0.71875 l -2.25,-5.09375 z" />
</svg>
