<?xml version="1.0" encoding="UTF-8" standalone="no"?>
<!-- Created with Inkscape (http://www.inkscape.org/) -->

<svg
   xmlns:dc="http://purl.org/dc/elements/1.1/"
   xmlns:cc="http://creativecommons.org/ns#"
   xmlns:rdf="http://www.w3.org/1999/02/22-rdf-syntax-ns#"
   xmlns:svg="http://www.w3.org/2000/svg"
   xmlns="http://www.w3.org/2000/svg"
   xmlns:xlink="http://www.w3.org/1999/xlink"
   xmlns:sodipodi="http://sodipodi.sourceforge.net/DTD/sodipodi-0.dtd"
   xmlns:inkscape="http://www.inkscape.org/namespaces/inkscape"
   version="1.0"
   width="96"
   height="96"
   id="svg2408"
   style="display:inline"
   inkscape:version="0.48.4 r9939"
   sodipodi:docname="glade.svg">
  <sodipodi:namedview
     pagecolor="#ffffff"
     bordercolor="#666666"
     borderopacity="1"
     objecttolerance="10"
     gridtolerance="10"
     guidetolerance="10"
     inkscape:pageopacity="0"
     inkscape:pageshadow="2"
     inkscape:window-width="1366"
     inkscape:window-height="691"
     id="namedview233"
     showgrid="false"
     inkscape:zoom="2.4583333"
     inkscape:cx="48"
     inkscape:cy="9.3932124"
     inkscape:window-x="0"
     inkscape:window-y="24"
     inkscape:window-maximized="1"
     inkscape:current-layer="svg2408" />
  <defs
     id="defs2410">
    <linearGradient
       id="linearGradient4325">
      <stop
         id="stop4327"
         style="stop-color:#d88215;stop-opacity:1"
         offset="0" />
      <stop
         id="stop4329"
         style="stop-color:#efc259;stop-opacity:1"
         offset="1" />
    </linearGradient>
    <linearGradient
       id="linearGradient4232">
      <stop
         id="stop4234"
         style="stop-color:#ffffff;stop-opacity:1"
         offset="0" />
      <stop
         id="stop4236"
         style="stop-color:#ffffff;stop-opacity:0"
         offset="1" />
    </linearGradient>
    <linearGradient
       id="linearGradient3704">
      <stop
         id="stop3706"
         style="stop-color:#ffffff;stop-opacity:0"
         offset="0" />
      <stop
         id="stop3714"
         style="stop-color:#ffffff;stop-opacity:1"
         offset="0.15000001" />
      <stop
         id="stop3716"
         style="stop-color:#ffffff;stop-opacity:1"
         offset="0.69999999" />
      <stop
         id="stop3708"
         style="stop-color:#ffffff;stop-opacity:0"
         offset="1" />
    </linearGradient>
    <linearGradient
       x1="45.447727"
       y1="92.539597"
       x2="45.447727"
       y2="7.0165396"
       id="ButtonShadow"
       gradientUnits="userSpaceOnUse"
       gradientTransform="scale(1.0058652,0.994169)">
      <stop
         id="stop3750"
         style="stop-color:#000000;stop-opacity:1"
         offset="0" />
      <stop
         id="stop3752"
         style="stop-color:#000000;stop-opacity:0.58823532"
         offset="1" />
    </linearGradient>
    <linearGradient
       id="linearGradient3700">
      <stop
         id="stop3702"
         style="stop-color:#4885bd;stop-opacity:1"
         offset="0" />
      <stop
         id="stop3704"
         style="stop-color:#91b5d7;stop-opacity:1"
         offset="1" />
    </linearGradient>
    <linearGradient
       x1="48"
       y1="90"
       x2="48"
       y2="5.9877172"
       id="linearGradient3706"
       xlink:href="#linearGradient3700"
       gradientUnits="userSpaceOnUse" />
    <filter
       color-interpolation-filters="sRGB"
       id="filter3174">
      <feGaussianBlur
         id="feGaussianBlur3176"
         stdDeviation="1.71" />
    </filter>
    <linearGradient
       x1="45.447727"
       y1="92.539597"
       x2="45.447727"
       y2="7.0165396"
       id="ButtonShadow-0"
       gradientUnits="userSpaceOnUse"
       gradientTransform="matrix(1.0058652,0,0,0.994169,100,0)">
      <stop
         id="stop3750-8"
         style="stop-color:#000000;stop-opacity:1"
         offset="0" />
      <stop
         id="stop3752-5"
         style="stop-color:#000000;stop-opacity:0.58823532"
         offset="1" />
    </linearGradient>
    <linearGradient
       x1="32.251034"
       y1="6.1317081"
       x2="32.251034"
       y2="90.238609"
       id="linearGradient3780"
       xlink:href="#ButtonShadow-0"
       gradientUnits="userSpaceOnUse"
       gradientTransform="matrix(1.0238095,0,0,1.0119048,-1.1428571,-98.071429)" />
    <linearGradient
       x1="32.251034"
       y1="6.1317081"
       x2="32.251034"
       y2="90.238609"
       id="linearGradient3772"
       xlink:href="#ButtonShadow-0"
       gradientUnits="userSpaceOnUse"
       gradientTransform="matrix(1.0238095,0,0,1.0119048,-1.1428571,-98.071429)" />
    <linearGradient
       x1="32.251034"
       y1="6.1317081"
       x2="32.251034"
       y2="90.238609"
       id="linearGradient3725"
       xlink:href="#ButtonShadow-0"
       gradientUnits="userSpaceOnUse"
       gradientTransform="matrix(1.0238095,0,0,1.0119048,-1.1428571,-98.071429)" />
    <linearGradient
       x1="32.251034"
       y1="6.1317081"
       x2="32.251034"
       y2="90.238609"
       id="linearGradient3721"
       xlink:href="#ButtonShadow-0"
       gradientUnits="userSpaceOnUse"
       gradientTransform="translate(0,-97)" />
    <linearGradient
       x1="32.251034"
       y1="6.1317081"
       x2="32.251034"
       y2="90.238609"
       id="linearGradient3760"
       xlink:href="#ButtonShadow-0"
       gradientUnits="userSpaceOnUse"
       gradientTransform="matrix(1.0238095,0,0,1.0119048,-1.1428571,-98.071429)" />
    <linearGradient
       id="linearGradient3737-1">
      <stop
         id="stop3739-9"
         style="stop-color:#ffffff;stop-opacity:1"
         offset="0" />
      <stop
         id="stop3741-3"
         style="stop-color:#ffffff;stop-opacity:0"
         offset="1" />
    </linearGradient>
    <radialGradient
       cx="48"
       cy="90.171875"
       r="42"
       fx="48"
       fy="90.171875"
       id="radialGradient2886"
       xlink:href="#linearGradient3737-0"
       gradientUnits="userSpaceOnUse"
       gradientTransform="matrix(1.1573129,0,0,0.99590774,-7.551021,0.1971319)" />
    <linearGradient
       id="linearGradient3737-0">
      <stop
         id="stop3739-6"
         style="stop-color:#ffffff;stop-opacity:1"
         offset="0" />
      <stop
         id="stop3741-0"
         style="stop-color:#ffffff;stop-opacity:0"
         offset="1" />
    </linearGradient>
    <linearGradient
       x1="36.357143"
       y1="6"
       x2="36.357143"
       y2="63.893143"
       id="linearGradient3923"
       xlink:href="#linearGradient3737-1"
       gradientUnits="userSpaceOnUse" />
    <linearGradient
       x1="10"
       y1="11.5"
       x2="69"
       y2="11.5"
       id="linearGradient3710"
       xlink:href="#linearGradient3704"
       gradientUnits="userSpaceOnUse"
       gradientTransform="matrix(1.3572023,0,0,1,-5.5720228,13)" />
    <linearGradient
       x1="10"
       y1="11.5"
       x2="69"
       y2="11.5"
       id="linearGradient3720"
       xlink:href="#linearGradient3704"
       gradientUnits="userSpaceOnUse"
       gradientTransform="matrix(1.0006748,0,0,0.83641517,5.9932514,-25.118774)" />
    <linearGradient
       x1="10"
       y1="11.5"
       x2="69"
       y2="11.5"
       id="linearGradient3726"
       xlink:href="#linearGradient3704"
       gradientUnits="userSpaceOnUse"
       gradientTransform="matrix(0.99976188,0,0,0.83078806,7.0023809,-90.054063)" />
    <linearGradient
       x1="10"
       y1="11.5"
       x2="69"
       y2="11.5"
       id="linearGradient3729"
       xlink:href="#linearGradient3704"
       gradientUnits="userSpaceOnUse"
       gradientTransform="matrix(1.1016949,0,0,1,-96.016948,-86)" />
    <linearGradient
       id="linearGradient3737-9">
      <stop
         id="stop3739-2"
         style="stop-color:#ffffff;stop-opacity:1"
         offset="0" />
      <stop
         id="stop3741-1"
         style="stop-color:#ffffff;stop-opacity:0"
         offset="1" />
    </linearGradient>
    <clipPath
       id="clipPath3613">
      <rect
         width="84"
         height="84"
         rx="6"
         ry="6"
         x="6"
         y="6"
         id="rect3615"
         style="fill:#ffffff;fill-opacity:1;fill-rule:nonzero;stroke:none" />
    </clipPath>
    <filter
       x="-0.192"
       y="-0.192"
       width="1.3839999"
       height="1.3839999"
       color-interpolation-filters="sRGB"
       id="filter3794">
      <feGaussianBlur
         id="feGaussianBlur3796"
         stdDeviation="5.28" />
    </filter>
    <linearGradient
       x1="48"
       y1="20.220806"
       x2="48"
       y2="138.66119"
       id="linearGradient2919"
       xlink:href="#linearGradient3737-9"
       gradientUnits="userSpaceOnUse" />
    <linearGradient
       x1="10"
       y1="11.5"
       x2="69"
       y2="11.5"
       id="linearGradient4204"
       xlink:href="#linearGradient3704"
       gradientUnits="userSpaceOnUse"
       gradientTransform="matrix(1.2301174,0,0,1,-2.3011741,21)" />
    <linearGradient
       x1="38"
       y1="41"
       x2="78"
       y2="41"
       id="linearGradient4238"
       xlink:href="#linearGradient4232"
       gradientUnits="userSpaceOnUse" />
    <linearGradient
       x1="36"
       y1="51.313709"
       x2="89"
       y2="51"
       id="linearGradient4290"
       xlink:href="#linearGradient4232"
       gradientUnits="userSpaceOnUse" />
    <linearGradient
       x1="38"
       y1="41"
       x2="89"
       y2="41"
       id="linearGradient4292"
       xlink:href="#linearGradient4232"
       gradientUnits="userSpaceOnUse" />
    <linearGradient
       x1="66"
       y1="84"
       x2="66"
       y2="55"
       id="linearGradient4331"
       xlink:href="#linearGradient4325"
       gradientUnits="userSpaceOnUse"
       gradientTransform="matrix(1.3125,0,0,1.3125,-24.311447,-30.25)" />
    <linearGradient
       id="linearGradient3485">
      <stop
         id="stop3487"
         style="stop-color:#e6605b;stop-opacity:1"
         offset="0" />
      <stop
         id="stop3489"
         style="stop-color:#f08682;stop-opacity:1"
         offset="1" />
    </linearGradient>
    <filter
       x="-0.42857143"
       y="-0.16666667"
       width="1.8571428"
       height="1.3333333"
       color-interpolation-filters="sRGB"
       id="filter3495">
      <feGaussianBlur
         stdDeviation="0.55242721"
         id="feGaussianBlur3497" />
    </filter>
    <filter
       x="-0.18344349"
       y="-0.17668343"
       width="1.366887"
       height="1.3533669"
       color-interpolation-filters="sRGB"
       id="filter3509">
      <feGaussianBlur
         stdDeviation="0.65925"
         id="feGaussianBlur3511" />
    </filter>
    <linearGradient
       id="linearGradient3339">
      <stop
         id="stop3341"
         style="stop-color:#000000;stop-opacity:1"
         offset="0" />
      <stop
         id="stop3347"
         style="stop-color:#000000;stop-opacity:0.49803922"
         offset="0.69999999" />
      <stop
         id="stop3343"
         style="stop-color:#000000;stop-opacity:0"
         offset="1" />
    </linearGradient>
    <linearGradient
       id="linearGradient3278">
      <stop
         id="stop3280"
         style="stop-color:#000000;stop-opacity:1"
         offset="0" />
      <stop
         id="stop3290"
         style="stop-color:#282828;stop-opacity:1"
         offset="0.25" />
      <stop
         id="stop3286"
         style="stop-color:#3c3c3c;stop-opacity:1"
         offset="0.30000001" />
      <stop
         id="stop3288"
         style="stop-color:#646464;stop-opacity:1"
         offset="0.69999999" />
      <stop
         id="stop3292"
         style="stop-color:#787878;stop-opacity:1"
         offset="0.75" />
      <stop
         id="stop3282"
         style="stop-color:#a0a0a0;stop-opacity:1"
         offset="1" />
    </linearGradient>
    <linearGradient
       id="linearGradient3254">
      <stop
         id="stop3256"
         style="stop-color:#000000;stop-opacity:1"
         offset="0" />
      <stop
         id="stop3266"
         style="stop-color:#000000;stop-opacity:1"
         offset="0.06588447" />
      <stop
         id="stop3264"
         style="stop-color:#ad5f1b;stop-opacity:1"
         offset="0.07" />
      <stop
         id="stop3268"
         style="stop-color:#ad601a;stop-opacity:1"
         offset="0.1913653" />
      <stop
         id="stop3262"
         style="stop-color:#000000;stop-opacity:1"
         offset="0.20983393" />
      <stop
         id="stop3258"
         style="stop-color:#000000;stop-opacity:1"
         offset="1" />
    </linearGradient>
    <linearGradient
       id="linearGradient3394">
      <stop
         id="stop3396"
         style="stop-color:#000000;stop-opacity:1"
         offset="0" />
      <stop
         id="stop3402"
         style="stop-color:#7d7d7d;stop-opacity:1"
         offset="0.5" />
      <stop
         id="stop3398"
         style="stop-color:#000000;stop-opacity:1"
         offset="1" />
    </linearGradient>
    <linearGradient
       id="linearGradient3308">
      <stop
         id="stop3310"
         style="stop-color:#da8539;stop-opacity:1"
         offset="0" />
      <stop
         id="stop3312"
         style="stop-color:#fadfc7;stop-opacity:1"
         offset="1" />
    </linearGradient>
    <linearGradient
       id="linearGradient5452">
      <stop
         id="stop5454"
         style="stop-color:#ffffff;stop-opacity:1"
         offset="0" />
      <stop
         id="stop5456"
         style="stop-color:#ffffff;stop-opacity:0"
         offset="1" />
    </linearGradient>
    <filter
       x="-0.43161276"
       y="-0.11371106"
       width="1.8632255"
       height="1.2274221"
       color-interpolation-filters="sRGB"
       id="filter3382">
      <feGaussianBlur
         stdDeviation="0.73914765"
         id="feGaussianBlur3384" />
    </filter>
    <filter
       x="-0.60979599"
       y="-0.1494"
       width="2.2195919"
       height="1.2988"
       color-interpolation-filters="sRGB"
       id="filter3390">
      <feGaussianBlur
         stdDeviation="0.77812506"
         id="feGaussianBlur3392" />
    </filter>
    <linearGradient
       id="linearGradient3401">
      <stop
         id="stop3403"
         style="stop-color:#404040;stop-opacity:1"
         offset="0" />
      <stop
         id="stop3447"
         style="stop-color:#808080;stop-opacity:1"
         offset="0.2" />
      <stop
         id="stop3410"
         style="stop-color:#efefef;stop-opacity:1"
         offset="0.69999999" />
      <stop
         id="stop3405"
         style="stop-color:#dcdcdc;stop-opacity:1"
         offset="1" />
    </linearGradient>
    <linearGradient
       id="linearGradient3461">
      <stop
         id="stop3463"
         style="stop-color:#444542;stop-opacity:1"
         offset="0" />
      <stop
         id="stop3465"
         style="stop-color:#71746e;stop-opacity:1"
         offset="1" />
    </linearGradient>
    <linearGradient
       id="linearGradient3355">
      <stop
         id="stop3357"
         style="stop-color:#ffffff;stop-opacity:1"
         offset="0" />
      <stop
         id="stop3359"
         style="stop-color:#ffffff;stop-opacity:0.49803922"
         offset="0.69999999" />
      <stop
         id="stop3361"
         style="stop-color:#ffffff;stop-opacity:0"
         offset="1" />
    </linearGradient>
    <linearGradient
       id="linearGradient3439">
      <stop
         id="stop3441"
         style="stop-color:#3d3d3d;stop-opacity:1"
         offset="0" />
      <stop
         id="stop3443"
         style="stop-color:#ffffff;stop-opacity:1"
         offset="1" />
    </linearGradient>
    <filter
       x="-1.0349605"
       y="-0.13573837"
       width="3.069921"
       height="1.2714767"
       color-interpolation-filters="sRGB"
       id="filter3451">
      <feGaussianBlur
         stdDeviation="0.9498173"
         id="feGaussianBlur3453" />
    </filter>
    <filter
       x="-0.93333328"
       y="-0.13770492"
       width="2.8666666"
       height="1.2754098"
       color-interpolation-filters="sRGB"
       id="filter3457">
      <feGaussianBlur
         stdDeviation="0.92807767"
         id="feGaussianBlur3459" />
    </filter>
    <linearGradient
       x1="136.41356"
       y1="115.49392"
       x2="149.52968"
       y2="115.49392"
       id="linearGradient4666"
       xlink:href="#linearGradient3485"
       gradientUnits="userSpaceOnUse" />
    <linearGradient
       x1="137.40625"
       y1="116.46875"
       x2="148.53125"
       y2="116.46875"
       id="linearGradient4668"
       xlink:href="#linearGradient3339"
       gradientUnits="userSpaceOnUse"
       gradientTransform="matrix(1.0893815,0,0,1,-13.275943,0)" />
    <linearGradient
       x1="136"
       y1="60"
       x2="150"
       y2="60"
       id="linearGradient4670"
       xlink:href="#linearGradient3278"
       gradientUnits="userSpaceOnUse"
       gradientTransform="translate(-23.73343,0)" />
    <linearGradient
       x1="143"
       y1="2.4000001e-06"
       x2="143"
       y2="120.01752"
       id="linearGradient4672"
       xlink:href="#linearGradient3254"
       gradientUnits="userSpaceOnUse"
       gradientTransform="translate(-23.73343,0)" />
    <linearGradient
       x1="141.25002"
       y1="4.9218717"
       x2="144.81252"
       y2="4.9218717"
       id="linearGradient4674"
       xlink:href="#linearGradient3394"
       gradientUnits="userSpaceOnUse"
       gradientTransform="translate(-23.73343,0)" />
    <linearGradient
       x1="136.98804"
       y1="17.043356"
       x2="148.99513"
       y2="17.043356"
       id="linearGradient4676"
       xlink:href="#linearGradient3308"
       gradientUnits="userSpaceOnUse"
       gradientTransform="translate(-23.73343,0)" />
    <linearGradient
       x1="146.10596"
       y1="118.94019"
       x2="146.07562"
       y2="66"
       id="linearGradient4678"
       xlink:href="#linearGradient5452"
       gradientUnits="userSpaceOnUse"
       gradientTransform="matrix(1,0,0,1.2653524,-23.73343,-54.364173)" />
    <linearGradient
       x1="146.10596"
       y1="118.94019"
       x2="146.07562"
       y2="66"
       id="linearGradient4680"
       xlink:href="#linearGradient5452"
       gradientUnits="userSpaceOnUse"
       gradientTransform="matrix(1,0,0,1.2653524,-29.85843,-54.364173)" />
    <linearGradient
       x1="136"
       y1="106"
       x2="150"
       y2="106"
       id="linearGradient4682"
       xlink:href="#linearGradient3401"
       gradientUnits="userSpaceOnUse" />
    <linearGradient
       x1="136"
       y1="106"
       x2="150"
       y2="106"
       id="linearGradient4684"
       xlink:href="#linearGradient3461"
       gradientUnits="userSpaceOnUse" />
    <linearGradient
       x1="142.95775"
       y1="98.950562"
       x2="148.95775"
       y2="98.950562"
       id="linearGradient4686"
       xlink:href="#linearGradient3339"
       gradientUnits="userSpaceOnUse"
       gradientTransform="translate(0.04225159,1.5494389)"
       spreadMethod="reflect" />
    <linearGradient
       x1="142.95775"
       y1="98.950562"
       x2="148.95775"
       y2="98.950562"
       id="linearGradient4688"
       xlink:href="#linearGradient3355"
       gradientUnits="userSpaceOnUse"
       gradientTransform="translate(0.04225159,2.5494389)"
       spreadMethod="reflect" />
    <linearGradient
       x1="142.95775"
       y1="98.950562"
       x2="148.95775"
       y2="98.950562"
       id="linearGradient4690"
       xlink:href="#linearGradient3339"
       gradientUnits="userSpaceOnUse"
       gradientTransform="translate(0.04225159,3.5494389)"
       spreadMethod="reflect" />
    <linearGradient
       x1="142.95775"
       y1="98.950562"
       x2="148.95775"
       y2="98.950562"
       id="linearGradient4692"
       xlink:href="#linearGradient3355"
       gradientUnits="userSpaceOnUse"
       gradientTransform="translate(0.04225159,4.5494389)"
       spreadMethod="reflect" />
    <linearGradient
       x1="142.95775"
       y1="98.950562"
       x2="148.95775"
       y2="98.950562"
       id="linearGradient4694"
       xlink:href="#linearGradient3339"
       gradientUnits="userSpaceOnUse"
       gradientTransform="translate(0.04225159,9.5494389)"
       spreadMethod="reflect" />
    <linearGradient
       x1="142.95775"
       y1="98.950562"
       x2="148.95775"
       y2="98.950562"
       id="linearGradient4696"
       xlink:href="#linearGradient3355"
       gradientUnits="userSpaceOnUse"
       gradientTransform="translate(0.04225159,10.549439)"
       spreadMethod="reflect" />
    <linearGradient
       x1="142.95775"
       y1="98.950562"
       x2="148.95775"
       y2="98.950562"
       id="linearGradient4698"
       xlink:href="#linearGradient3339"
       gradientUnits="userSpaceOnUse"
       gradientTransform="translate(0.04225159,11.549439)"
       spreadMethod="reflect" />
    <linearGradient
       x1="142.95775"
       y1="98.950562"
       x2="148.95775"
       y2="98.950562"
       id="linearGradient4700"
       xlink:href="#linearGradient3355"
       gradientUnits="userSpaceOnUse"
       gradientTransform="translate(0.04225159,12.549439)"
       spreadMethod="reflect" />
    <linearGradient
       x1="137"
       y1="106"
       x2="139.03125"
       y2="106"
       id="linearGradient4702"
       xlink:href="#linearGradient3439"
       gradientUnits="userSpaceOnUse"
       spreadMethod="repeat" />
  </defs>
  <metadata
     id="metadata2413">
    <rdf:RDF>
      <cc:Work
         rdf:about="">
        <dc:format>image/svg+xml</dc:format>
        <dc:type
           rdf:resource="http://purl.org/dc/dcmitype/StillImage" />
        <dc:title />
      </cc:Work>
    </rdf:RDF>
  </metadata>
  <g
     id="layer2"
     style="display:none">
    <rect
       width="86"
       height="85"
       rx="6"
       ry="6"
       x="5"
       y="7"
       id="rect3745"
       style="opacity:0.9;fill:url(#ButtonShadow);fill-opacity:1;fill-rule:nonzero;stroke:none;filter:url(#filter3174)" />
  </g>
  <rect
     style="fill:#87aade;fill-opacity:1;fill-rule:nonzero;stroke:none"
     id="rect2419"
     y="5.3290705e-15"
     x="0"
     ry="0"
     rx="0"
     height="96"
     width="96" />
  <rect
     style="color:#000000;fill:#ffffff;fill-opacity:1;fill-rule:nonzero;stroke:none;stroke-width:1;marker:none;visibility:visible;display:inline;overflow:visible;enable-background:accumulate"
     id="rect3702"
     y="25.126253"
     x="14.262889"
     height="0.8460176"
     width="68.58358" />
  <rect
     style="color:#000000;fill:#ffffff;fill-opacity:1;fill-rule:nonzero;stroke:none;stroke-width:1;marker:none;visibility:visible;display:inline;overflow:visible;enable-background:accumulate"
     id="rect3718"
     transform="matrix(0,1,-1,0,0,0)"
     y="-21.044775"
     x="18.358112"
     height="0.71638334"
     width="49.948727" />
  <rect
     style="color:#000000;fill:#ffffff;fill-opacity:1;fill-rule:nonzero;stroke:none;stroke-width:1;marker:none;visibility:visible;display:inline;overflow:visible;enable-background:accumulate"
     id="rect3722"
     transform="matrix(0,1,-1,0,0,0)"
     y="-76.714378"
     x="19.20413"
     height="0.71156377"
     width="49.903156" />
  <rect
     style="color:#000000;fill:#ffffff;fill-opacity:1;fill-rule:nonzero;stroke:none;stroke-width:1;marker:none;visibility:visible;display:inline;overflow:visible;enable-background:accumulate"
     id="rect3724"
     transform="scale(-1,-1)"
     y="-68.273155"
     x="-80.212814"
     height="0.8460176"
     width="55.672012" />
  <rect
     style="color:#000000;fill:#ffffff;fill-opacity:1;fill-rule:nonzero;stroke:none;stroke-width:1;marker:none;visibility:visible;display:inline;overflow:visible;enable-background:accumulate"
     id="rect4202"
     y="31.894394"
     x="15.975875"
     height="0.8460176"
     width="62.161598" />
  <path
     inkscape:connector-curvature="0"
     style="color:#000000;fill:#ffffff;fill-opacity:1;stroke:none;stroke-width:1;marker:none;visibility:visible;display:inline;overflow:visible;enable-background:accumulate"
     id="path4214"
     d="m 74.217366,29.356342 a 1.712985,1.6920352 0 0 1 -3.425969,0 1.712985,1.6920352 0 1 1 3.425969,0 z" />
  <path
     inkscape:connector-curvature="0"
     style="color:#000000;fill:#ffffff;fill-opacity:1;stroke:none;stroke-width:1;marker:none;visibility:visible;display:inline;overflow:visible;enable-background:accumulate"
     id="path4216"
     d="m 69.078411,29.356342 a 1.7129851,1.6920353 0 0 1 -3.42597,0 1.7129851,1.6920353 0 1 1 3.42597,0 z" />
  <path
     inkscape:connector-curvature="0"
     style="color:#000000;fill:#ffffff;fill-opacity:1;stroke:none;stroke-width:1;marker:none;visibility:visible;display:inline;overflow:visible;enable-background:accumulate"
     id="path4218"
     d="m 63.939456,29.356342 a 1.7129851,1.6920353 0 0 1 -3.42597,0 1.7129851,1.6920353 0 1 1 3.42597,0 z" />
  <path
     inkscape:connector-curvature="0"
     style="color:#000000;fill:#ffffff;fill-opacity:1;stroke:#ffffff;stroke-width:0.85123897;marker:none;visibility:visible;display:inline;overflow:visible;enable-background:accumulate"
     id="path4220"
     d="m 30.964494,39.508553 a 2.1412313,2.115044 0 0 1 -4.282462,0 2.1412313,2.115044 0 1 1 4.282462,0 z" />
  <path
     inkscape:connector-curvature="0"
     style="color:#000000;fill:#ffffff;fill-opacity:1;stroke:#ffffff;stroke-width:0.85123897;marker:none;visibility:visible;display:inline;overflow:visible;enable-background:accumulate"
     id="path4222"
     d="m 30.964494,47.968729 a 2.1412313,2.115044 0 0 1 -4.282462,0 2.1412313,2.115044 0 1 1 4.282462,0 z" />
  <g
     style="font-size:5.70656776px;font-style:normal;font-variant:normal;font-weight:bold;font-stretch:normal;text-align:start;line-height:125%;letter-spacing:0px;word-spacing:0px;writing-mode:lr-tb;text-anchor:start;fill:#ffffff;fill-opacity:1;stroke:none;font-family:Ubuntu;-inkscape-font-specification:Ubuntu Bold"
     id="text4224"
     transform="matrix(0.85649252,0,0,0.84601763,7.4109502,4.82183)">
    <path
       style="fill:#ffffff;fill-opacity:1"
       id="path4243"
       inkscape:connector-curvature="0"
       d="m 31.456525,43 0,-3.954651 2.647848,0 0,0.74756 -1.757623,0 0,0.827452 1.5636,0 0,0.747561 -1.5636,0 0,1.632078 -0.890225,0" />
    <path
       style="fill:#ffffff;fill-opacity:1"
       id="path4245"
       inkscape:connector-curvature="0"
       d="m 35.526557,43 -0.850279,0 0,-3.001655 0.850279,0 0,3.001655 m 0.07989,-3.869053 c -2e-6,0.155983 -0.05136,0.279625 -0.154078,0.370927 -0.09891,0.0875 -0.21685,0.131254 -0.353807,0.131251 -0.136958,3e-6 -0.256796,-0.04375 -0.359514,-0.131251 -0.09891,-0.0913 -0.148371,-0.214944 -0.14837,-0.370927 -10e-7,-0.155975 0.04946,-0.277715 0.14837,-0.36522 0.102718,-0.0913 0.222556,-0.136954 0.359514,-0.136958 0.136957,4e-6 0.254892,0.04566 0.353807,0.136958 0.102717,0.08751 0.154076,0.209245 0.154078,0.36522" />
    <path
       style="fill:#ffffff;fill-opacity:1"
       id="path4247"
       inkscape:connector-curvature="0"
       d="m 38.134815,40.751612 c -0.07609,-0.01902 -0.165493,-0.03804 -0.268209,-0.05707 -0.10272,-0.02282 -0.213047,-0.03424 -0.330981,-0.03424 -0.05326,3e-6 -0.117937,0.0057 -0.194023,0.01712 -0.07229,0.0076 -0.127448,0.01712 -0.165491,0.02853 l 0,2.29404 -0.850278,0 0,-2.841871 c 0.152174,-0.05326 0.33098,-0.102715 0.536417,-0.148371 0.20924,-0.04945 0.441307,-0.07418 0.696201,-0.07418 0.04565,3e-6 0.100815,0.0038 0.165491,0.01141 0.06467,0.0038 0.129347,0.01142 0.194023,0.02283 0.06467,0.0076 0.129347,0.01902 0.194023,0.03424 0.06467,0.01142 0.119836,0.02663 0.165491,0.04565 l -0.142664,0.701908" />
    <path
       style="fill:#ffffff;fill-opacity:1"
       id="path4249"
       inkscape:connector-curvature="0"
       d="m 39.594983,42.389397 c 0.155978,10e-7 0.266305,-0.01522 0.330981,-0.04565 0.06467,-0.03043 0.09701,-0.0894 0.09701,-0.176904 -10e-7,-0.06848 -0.04185,-0.127446 -0.125544,-0.176903 -0.0837,-0.05326 -0.211144,-0.112229 -0.38234,-0.176904 -0.133154,-0.04946 -0.254894,-0.100815 -0.36522,-0.154077 -0.106524,-0.05326 -0.197829,-0.116033 -0.273916,-0.188317 -0.07609,-0.07609 -0.135056,-0.165489 -0.176903,-0.268209 -0.04185,-0.102716 -0.06277,-0.226358 -0.06277,-0.370927 0,-0.281521 0.10462,-0.504077 0.313862,-0.667668 0.20924,-0.163585 0.49647,-0.24538 0.861691,-0.245383 0.182609,3e-6 0.35761,0.01712 0.525005,0.05136 0.16739,0.03044 0.300543,0.06468 0.399459,0.102718 l -0.14837,0.661962 c -0.09892,-0.03424 -0.207341,-0.06467 -0.325275,-0.0913 -0.114133,-0.02663 -0.243482,-0.03994 -0.388046,-0.03995 -0.266308,2e-6 -0.399461,0.07419 -0.39946,0.222556 -10e-7,0.03424 0.0057,0.06468 0.01712,0.0913 0.01141,0.02663 0.03424,0.05326 0.06848,0.07989 0.03424,0.02283 0.07989,0.04946 0.136958,0.07989 0.06087,0.02663 0.136956,0.05707 0.228263,0.0913 0.186412,0.06848 0.34049,0.136959 0.462232,0.205436 0.121738,0.06468 0.216847,0.136959 0.285328,0.21685 0.07228,0.07609 0.121738,0.161687 0.148371,0.256795 0.03043,0.09511 0.04565,0.205438 0.04565,0.330981 -2e-6,0.296742 -0.112231,0.5212 -0.336687,0.673375 -0.220656,0.152175 -0.534517,0.228263 -0.941584,0.228263 -0.266307,0 -0.488863,-0.02283 -0.667668,-0.06848 -0.175002,-0.04565 -0.296742,-0.0837 -0.365221,-0.114131 l 0.142665,-0.690495 c 0.144566,0.05707 0.292936,0.102719 0.445112,0.136958 0.152174,0.03044 0.302447,0.04565 0.450819,0.04565" />
    <path
       style="fill:#ffffff;fill-opacity:1"
       id="path4251"
       inkscape:connector-curvature="0"
       d="m 41.468877,39.250785 0.850278,-0.136958 0,0.884518 1.021476,0 0,0.707615 -1.021476,0 0,1.055715 c -1e-6,0.178807 0.03043,0.321471 0.09131,0.427992 0.06467,0.106524 0.192119,0.159785 0.38234,0.159784 0.0913,10e-7 0.18451,-0.0076 0.279621,-0.02283 0.09891,-0.01902 0.188315,-0.04375 0.268209,-0.07418 l 0.119838,0.661961 c -0.10272,0.04185 -0.216852,0.07799 -0.342394,0.108425 -0.125546,0.03043 -0.279624,0.04565 -0.462232,0.04565 -0.232068,0 -0.424189,-0.03044 -0.576363,-0.09131 -0.152176,-0.06468 -0.273916,-0.152175 -0.365221,-0.262502 -0.0913,-0.114131 -0.15598,-0.251089 -0.194023,-0.410873 -0.03424,-0.159783 -0.05136,-0.336687 -0.05136,-0.530711 l 0,-2.522303" />
    <path
       style="fill:#ffffff;fill-opacity:1"
       id="path4253"
       inkscape:connector-curvature="0"
       d="m 48.206015,41.493466 c -3e-6,0.235873 -0.03424,0.452722 -0.102718,0.650549 -0.06848,0.194024 -0.167395,0.361416 -0.296741,0.502178 -0.129352,0.136958 -0.285331,0.24348 -0.467939,0.319568 -0.178808,0.07609 -0.38044,0.114131 -0.604896,0.114131 -0.220656,0 -0.422287,-0.03804 -0.604896,-0.114131 -0.178807,-0.07609 -0.332884,-0.18261 -0.462232,-0.319568 -0.12935,-0.140762 -0.230166,-0.308154 -0.302448,-0.502178 -0.07228,-0.197827 -0.108425,-0.414676 -0.108425,-0.650549 0,-0.23587 0.03614,-0.450817 0.108425,-0.644842 0.07609,-0.194021 0.178805,-0.359511 0.308154,-0.496471 0.133153,-0.136955 0.289132,-0.243478 0.467939,-0.319568 0.182609,-0.07608 0.380436,-0.114129 0.593483,-0.114132 0.216847,3e-6 0.414675,0.03805 0.593483,0.114132 0.182608,0.07609 0.338587,0.182613 0.467938,0.319568 0.129346,0.13696 0.230162,0.30245 0.302449,0.496471 0.07228,0.194025 0.108421,0.408972 0.108424,0.644842 m -0.867398,0 c -2e-6,-0.2625 -0.05326,-0.467936 -0.159784,-0.616309 -0.10272,-0.152173 -0.251091,-0.228261 -0.445112,-0.228263 -0.194025,2e-6 -0.344298,0.07609 -0.450819,0.228263 -0.106524,0.148373 -0.159785,0.353809 -0.159784,0.616309 -10e-7,0.262503 0.05326,0.471744 0.159784,0.627723 0.106521,0.152175 0.256794,0.228263 0.450819,0.228262 0.194021,10e-7 0.342392,-0.07609 0.445112,-0.228262 0.10652,-0.155979 0.159782,-0.36522 0.159784,-0.627723" />
    <path
       style="fill:#ffffff;fill-opacity:1"
       id="path4255"
       inkscape:connector-curvature="0"
       d="m 50.787791,41.521999 c -3e-6,-0.2625 -0.05897,-0.471741 -0.176904,-0.627723 -0.117938,-0.159781 -0.292939,-0.239673 -0.525004,-0.239675 -0.07609,2e-6 -0.14647,0.0038 -0.211143,0.01141 -0.06468,0.0038 -0.117937,0.0095 -0.159784,0.01712 l 0,1.535067 c 0.05326,0.03424 0.121739,0.06277 0.205436,0.0856 0.0875,0.02283 0.175,0.03424 0.262502,0.03424 0.403262,1e-6 0.604894,-0.272012 0.604897,-0.816039 m 0.867398,-0.02283 c -3e-6,0.232068 -0.02854,0.443211 -0.0856,0.633429 -0.05707,0.190219 -0.140765,0.353807 -0.251089,0.490765 -0.110329,0.136957 -0.247287,0.24348 -0.410872,0.319567 -0.163591,0.07609 -0.351908,0.114132 -0.564951,0.114132 -0.117937,0 -0.228264,-0.01141 -0.330981,-0.03424 C 49.908978,43 49.810064,42.967663 49.714956,42.925815 l 0,1.1299 -0.850279,0 0,-3.954651 c 0.07609,-0.02282 0.163588,-0.04375 0.262502,-0.06277 0.09891,-0.02282 0.201632,-0.04185 0.308155,-0.05707 0.110326,-0.01521 0.220653,-0.02663 0.330981,-0.03424 0.11413,-0.01141 0.222555,-0.01712 0.325274,-0.01712 0.247283,3e-6 0.467937,0.03805 0.661962,0.114131 0.194021,0.07229 0.357609,0.176906 0.490765,0.313861 0.13315,0.133156 0.233966,0.296744 0.302448,0.490765 0.07228,0.194025 0.108422,0.410875 0.108425,0.650549" />
    <path
       style="fill:#ffffff;fill-opacity:1"
       id="path4257"
       inkscape:connector-curvature="0"
       d="m 52.280149,39.250785 0.850278,-0.136958 0,0.884518 1.021476,0 0,0.707615 -1.021476,0 0,1.055715 c -10e-7,0.178807 0.03043,0.321471 0.09131,0.427992 0.06467,0.106524 0.19212,0.159785 0.38234,0.159784 0.0913,10e-7 0.184511,-0.0076 0.279622,-0.02283 0.09891,-0.01902 0.188315,-0.04375 0.268209,-0.07418 l 0.119838,0.661961 c -0.102721,0.04185 -0.216852,0.07799 -0.342394,0.108425 -0.125547,0.03043 -0.279624,0.04565 -0.462232,0.04565 -0.232069,0 -0.42419,-0.03044 -0.576364,-0.09131 -0.152176,-0.06468 -0.273916,-0.152175 -0.36522,-0.262502 -0.09131,-0.114131 -0.15598,-0.251089 -0.194023,-0.410873 -0.03424,-0.159783 -0.05136,-0.336687 -0.05136,-0.530711 l 0,-2.522303" />
    <path
       style="fill:#ffffff;fill-opacity:1"
       id="path4259"
       inkscape:connector-curvature="0"
       d="m 55.68902,43 -0.850279,0 0,-3.001655 0.850279,0 0,3.001655 m 0.07989,-3.869053 c -2e-6,0.155983 -0.05136,0.279625 -0.154078,0.370927 -0.09891,0.0875 -0.21685,0.131254 -0.353807,0.131251 -0.136958,3e-6 -0.256796,-0.04375 -0.359514,-0.131251 -0.09891,-0.0913 -0.148371,-0.214944 -0.14837,-0.370927 -10e-7,-0.155975 0.04946,-0.277715 0.14837,-0.36522 0.102718,-0.0913 0.222556,-0.136954 0.359514,-0.136958 0.136957,4e-6 0.254893,0.04566 0.353807,0.136958 0.102717,0.08751 0.154076,0.209245 0.154078,0.36522" />
    <path
       style="fill:#ffffff;fill-opacity:1"
       id="path4261"
       inkscape:connector-curvature="0"
       d="m 59.295928,41.493466 c -3e-6,0.235873 -0.03424,0.452722 -0.102718,0.650549 -0.06848,0.194024 -0.167396,0.361416 -0.296742,0.502178 -0.129352,0.136958 -0.285331,0.24348 -0.467939,0.319568 -0.178807,0.07609 -0.380439,0.114131 -0.604896,0.114131 -0.220655,0 -0.422287,-0.03804 -0.604896,-0.114131 -0.178807,-0.07609 -0.332884,-0.18261 -0.462232,-0.319568 -0.129349,-0.140762 -0.230165,-0.308154 -0.302448,-0.502178 -0.07228,-0.197827 -0.108425,-0.414676 -0.108425,-0.650549 0,-0.23587 0.03614,-0.450817 0.108425,-0.644842 0.07609,-0.194021 0.178805,-0.359511 0.308155,-0.496471 0.133152,-0.136955 0.289131,-0.243478 0.467938,-0.319568 0.182609,-0.07608 0.380437,-0.114129 0.593483,-0.114132 0.216848,3e-6 0.414675,0.03805 0.593483,0.114132 0.182608,0.07609 0.338587,0.182613 0.467939,0.319568 0.129346,0.13696 0.230162,0.30245 0.302448,0.496471 0.07228,0.194025 0.108422,0.408972 0.108425,0.644842 m -0.867399,0 c -2e-6,-0.2625 -0.05326,-0.467936 -0.159783,-0.616309 -0.102721,-0.152173 -0.251091,-0.228261 -0.445113,-0.228263 -0.194025,2e-6 -0.344297,0.07609 -0.450819,0.228263 -0.106523,0.148373 -0.159785,0.353809 -0.159783,0.616309 -2e-6,0.262503 0.05326,0.471744 0.159783,0.627723 0.106522,0.152175 0.256794,0.228263 0.450819,0.228262 0.194022,10e-7 0.342392,-0.07609 0.445113,-0.228262 0.10652,-0.155979 0.159781,-0.36522 0.159783,-0.627723" />
    <path
       style="fill:#ffffff;fill-opacity:1"
       id="path4263"
       inkscape:connector-curvature="0"
       d="m 59.95459,40.101064 c 0.144566,-0.04185 0.33098,-0.07989 0.559243,-0.114132 0.228262,-0.03804 0.467938,-0.05706 0.719028,-0.05707 0.254891,3e-6 0.466034,0.03424 0.633429,0.102718 0.171194,0.06468 0.30625,0.157884 0.405166,0.279622 0.09891,0.121742 0.169292,0.266309 0.211143,0.433699 0.04185,0.167394 0.06277,0.353809 0.06277,0.559243 l 0,1.694851 -0.850279,0 0,-1.592132 c -2e-6,-0.273914 -0.03614,-0.467937 -0.108425,-0.58207 -0.07229,-0.114129 -0.20734,-0.171195 -0.405166,-0.171197 -0.06087,2e-6 -0.125546,0.0038 -0.194023,0.01141 -0.06848,0.0038 -0.129351,0.0095 -0.182611,0.01712 l 0,2.316867 -0.850278,0 0,-2.898936" />
  </g>
  <g
     style="font-size:5.70656776px;font-style:normal;font-variant:normal;font-weight:bold;font-stretch:normal;text-align:start;line-height:125%;letter-spacing:0px;word-spacing:0px;writing-mode:lr-tb;text-anchor:start;fill:#ffffff;fill-opacity:1;stroke:none;font-family:Ubuntu;-inkscape-font-specification:Ubuntu Bold"
     id="text4228"
     transform="matrix(0.85649252,0,0,0.84601763,7.4109502,4.82183)">
    <path
       style="fill:#ffffff;fill-opacity:1"
       id="path4266"
       inkscape:connector-curvature="0"
       d="m 32.535067,52.320918 c 0.125543,1e-6 0.228261,-0.0095 0.308154,-0.02853 0.08369,-0.02283 0.150271,-0.05136 0.19973,-0.0856 0.04945,-0.03804 0.08369,-0.08179 0.102718,-0.131251 0.01902,-0.04946 0.02853,-0.104619 0.02853,-0.16549 -2e-6,-0.129348 -0.06087,-0.235871 -0.18261,-0.319568 -0.121742,-0.0875 -0.330982,-0.180707 -0.627722,-0.279622 -0.12935,-0.04565 -0.258699,-0.09701 -0.388047,-0.154077 -0.12935,-0.06087 -0.245383,-0.135054 -0.348101,-0.222557 -0.102718,-0.0913 -0.186415,-0.199727 -0.251089,-0.325274 -0.06467,-0.129346 -0.09701,-0.285326 -0.09701,-0.467938 0,-0.182608 0.03424,-0.346196 0.102718,-0.490765 0.06848,-0.148368 0.16549,-0.273912 0.291035,-0.376634 0.125544,-0.102714 0.277719,-0.180704 0.456525,-0.233969 0.178805,-0.05706 0.380437,-0.08559 0.604897,-0.0856 0.266304,5e-6 0.496469,0.02854 0.690494,0.0856 0.194021,0.05707 0.353805,0.119842 0.479352,0.188317 l -0.256796,0.701908 c -0.110329,-0.05706 -0.233971,-0.10652 -0.370926,-0.148371 -0.133156,-0.04565 -0.294842,-0.06848 -0.485059,-0.06848 -0.213046,3e-6 -0.367124,0.03044 -0.462232,0.0913 -0.09131,0.05707 -0.136959,0.146472 -0.136957,0.268209 -2e-6,0.07229 0.01712,0.133156 0.05136,0.18261 0.03424,0.04946 0.08179,0.09511 0.142664,0.136958 0.06467,0.03805 0.136956,0.07419 0.21685,0.108424 0.08369,0.03044 0.174999,0.06278 0.273915,0.09701 0.205434,0.07609 0.38424,0.152177 0.536417,0.228263 0.152173,0.07229 0.277717,0.157883 0.376634,0.256795 0.102715,0.09892 0.178802,0.214949 0.228262,0.348101 0.04945,0.133155 0.07418,0.29484 0.07419,0.485058 -3e-6,0.369026 -0.129352,0.656256 -0.388047,0.861692 -0.2587,0.201632 -0.648648,0.302448 -1.169846,0.302448 -0.175003,0 -0.332885,-0.01141 -0.473645,-0.03424 -0.140763,-0.01902 -0.266308,-0.04375 -0.376634,-0.07419 -0.106523,-0.03043 -0.19973,-0.06277 -0.279622,-0.09701 -0.07609,-0.03424 -0.140762,-0.06658 -0.194023,-0.09701 l 0.251089,-0.707615 c 0.117935,0.06468 0.262501,0.123644 0.433699,0.176904 0.175,0.04946 0.388045,0.07419 0.639136,0.07418" />
    <path
       style="fill:#ffffff;fill-opacity:1"
       id="path4268"
       inkscape:connector-curvature="0"
       d="m 34.578196,51.521999 c 0,-0.266305 0.03995,-0.498372 0.119838,-0.696201 0.0837,-0.20163 0.192121,-0.369022 0.325275,-0.502178 0.133152,-0.133151 0.285327,-0.233967 0.456525,-0.302448 0.175,-0.06848 0.353806,-0.102716 0.536418,-0.102719 0.426088,3e-6 0.762775,0.131254 1.010062,0.393754 0.247282,0.2587 0.370924,0.641039 0.370927,1.14702 -3e-6,0.04946 -0.0019,0.104622 -0.0057,0.16549 -0.0038,0.05707 -0.0076,0.108426 -0.01141,0.154077 l -1.92882,0 c 0.01902,0.175003 0.100815,0.313863 0.245383,0.41658 0.144565,0.102719 0.338588,0.154078 0.58207,0.154077 0.155977,10e-7 0.308152,-0.01331 0.456525,-0.03995 0.152173,-0.03043 0.275815,-0.06658 0.370927,-0.108424 l 0.114131,0.690494 c -0.04566,0.02283 -0.106525,0.04565 -0.18261,0.06848 -0.07609,0.02283 -0.161689,0.04185 -0.256795,0.05707 -0.09131,0.01902 -0.190222,0.03424 -0.296742,0.04565 -0.106525,0.01141 -0.213047,0.01712 -0.319568,0.01712 -0.270112,0 -0.505983,-0.03995 -0.707614,-0.119838 -0.197829,-0.07989 -0.363319,-0.188316 -0.496472,-0.325274 -0.129349,-0.140762 -0.22636,-0.306252 -0.291034,-0.496472 -0.06087,-0.190218 -0.09131,-0.395654 -0.09131,-0.616309 m 1.997299,-0.325274 c -0.0038,-0.07228 -0.01712,-0.142663 -0.03995,-0.211143 -0.01902,-0.06848 -0.05136,-0.129347 -0.09701,-0.182611 -0.04185,-0.05326 -0.09701,-0.09701 -0.165491,-0.131251 -0.06468,-0.03424 -0.14647,-0.05136 -0.245382,-0.05136 -0.09511,3e-6 -0.176905,0.01712 -0.245383,0.05136 -0.06848,0.03044 -0.125546,0.07229 -0.171197,0.125545 -0.04565,0.05326 -0.08179,0.116035 -0.108425,0.188317 -0.02283,0.06848 -0.03995,0.138861 -0.05136,0.211143 l 1.124194,0" />
    <path
       style="fill:#ffffff;fill-opacity:1"
       id="path4270"
       inkscape:connector-curvature="0"
       d="m 37.910743,51.499173 c 0,-0.216848 0.03424,-0.420382 0.102718,-0.610603 0.07228,-0.194021 0.175001,-0.361414 0.308155,-0.502178 0.133152,-0.144564 0.294838,-0.258695 0.485058,-0.342394 0.190218,-0.08369 0.407067,-0.125542 0.650549,-0.125545 0.159782,3e-6 0.30625,0.01522 0.439405,0.04565 0.133151,0.02663 0.2625,0.06658 0.388047,0.119838 l -0.176904,0.679081 c -0.07989,-0.03043 -0.167394,-0.05706 -0.262502,-0.07989 -0.09511,-0.02282 -0.201634,-0.03424 -0.319567,-0.03424 -0.251091,2e-6 -0.439408,0.07799 -0.564951,0.233969 -0.121741,0.155982 -0.182611,0.361418 -0.18261,0.61631 -10e-7,0.270112 0.05707,0.479352 0.171197,0.627722 0.117935,0.148372 0.321469,0.222557 0.610603,0.222556 0.102716,10e-7 0.213043,-0.0095 0.330981,-0.02853 0.117933,-0.01902 0.226358,-0.04946 0.325274,-0.0913 l 0.119838,0.696202 c -0.09892,0.04185 -0.222558,0.07799 -0.370927,0.108424 -0.148373,0.03043 -0.311961,0.04565 -0.490765,0.04565 -0.273916,0 -0.509788,-0.03995 -0.707614,-0.119838 -0.197829,-0.0837 -0.361417,-0.195925 -0.490765,-0.336687 -0.125545,-0.140762 -0.218752,-0.306252 -0.279622,-0.496472 -0.05707,-0.194022 -0.0856,-0.403263 -0.0856,-0.627722" />
    <path
       style="fill:#ffffff;fill-opacity:1"
       id="path4272"
       inkscape:connector-curvature="0"
       d="m 43.569429,51.493466 c -3e-6,0.235873 -0.03424,0.452722 -0.102718,0.650549 -0.06848,0.194024 -0.167396,0.361416 -0.296742,0.502178 -0.129351,0.136958 -0.285331,0.24348 -0.467938,0.319568 -0.178808,0.07609 -0.38044,0.114131 -0.604896,0.114131 -0.220656,0 -0.422288,-0.03804 -0.604897,-0.114131 -0.178806,-0.07609 -0.332883,-0.18261 -0.462232,-0.319568 -0.129349,-0.140762 -0.230165,-0.308154 -0.302448,-0.502178 -0.07228,-0.197827 -0.108425,-0.414676 -0.108424,-0.650549 -1e-6,-0.23587 0.03614,-0.450817 0.108424,-0.644842 0.07609,-0.194021 0.178806,-0.359511 0.308155,-0.496471 0.133153,-0.136955 0.289132,-0.243478 0.467939,-0.319568 0.182608,-0.07608 0.380436,-0.114129 0.593483,-0.114132 0.216847,3e-6 0.414675,0.03805 0.593483,0.114132 0.182607,0.07609 0.338587,0.182613 0.467938,0.319568 0.129346,0.13696 0.230162,0.30245 0.302448,0.496471 0.07228,0.194025 0.108422,0.408972 0.108425,0.644842 m -0.867398,0 c -2e-6,-0.2625 -0.05326,-0.467936 -0.159784,-0.616309 -0.10272,-0.152173 -0.251091,-0.228261 -0.445112,-0.228263 -0.194025,2e-6 -0.344298,0.07609 -0.450819,0.228263 -0.106524,0.148373 -0.159785,0.353809 -0.159784,0.616309 -10e-7,0.262503 0.05326,0.471744 0.159784,0.627723 0.106521,0.152175 0.256794,0.228263 0.450819,0.228262 0.194021,10e-7 0.342392,-0.07609 0.445112,-0.228262 0.10652,-0.155979 0.159782,-0.36522 0.159784,-0.627723" />
    <path
       style="fill:#ffffff;fill-opacity:1"
       id="path4274"
       inkscape:connector-curvature="0"
       d="m 44.228092,50.101064 c 0.144566,-0.04185 0.33098,-0.07989 0.559244,-0.114132 0.228261,-0.03804 0.467937,-0.05706 0.719027,-0.05707 0.254892,3e-6 0.466035,0.03424 0.633429,0.102718 0.171195,0.06468 0.30625,0.157884 0.405167,0.279622 0.09891,0.121742 0.169292,0.266309 0.211143,0.433699 0.04185,0.167394 0.06277,0.353809 0.06277,0.559243 l 0,1.694851 -0.850279,0 0,-1.592132 c -2e-6,-0.273914 -0.03614,-0.467937 -0.108425,-0.58207 -0.07228,-0.114129 -0.20734,-0.171195 -0.405166,-0.171197 -0.06087,2e-6 -0.125546,0.0038 -0.194023,0.01141 -0.06848,0.0038 -0.12935,0.0095 -0.18261,0.01712 l 0,2.316867 -0.850279,0 0,-2.898936" />
    <path
       style="fill:#ffffff;fill-opacity:1"
       id="path4276"
       inkscape:connector-curvature="0"
       d="m 48.318808,51.476346 c -10e-7,0.262504 0.05897,0.473647 0.176904,0.633429 0.117934,0.159785 0.292935,0.239677 0.525004,0.239676 0.07609,10e-7 0.146467,-0.0019 0.211143,-0.0057 0.06467,-0.0076 0.117934,-0.01522 0.159784,-0.02283 l 0,-1.546479 c -0.05326,-0.03424 -0.123644,-0.06277 -0.211143,-0.0856 -0.0837,-0.02282 -0.169297,-0.03424 -0.256796,-0.03424 -0.403265,2e-6 -0.604897,0.273917 -0.604896,0.821745 m 1.923114,1.426642 c -0.07609,0.02283 -0.163592,0.04565 -0.262503,0.06848 -0.09892,0.01902 -0.203536,0.03614 -0.313861,0.05136 -0.106525,0.01522 -0.216852,0.02663 -0.330981,0.03424 -0.110329,0.01141 -0.216851,0.01712 -0.319567,0.01712 -0.247287,0 -0.46794,-0.03614 -0.661962,-0.108424 -0.194025,-0.07228 -0.357613,-0.175002 -0.490765,-0.308155 -0.133154,-0.136957 -0.235872,-0.300545 -0.308155,-0.490765 -0.06848,-0.194022 -0.102718,-0.410872 -0.102718,-0.650549 0,-0.243478 0.03043,-0.46223 0.0913,-0.656255 0.06087,-0.197825 0.14837,-0.365218 0.262502,-0.502178 0.114131,-0.136955 0.25299,-0.241575 0.41658,-0.313861 0.167391,-0.07228 0.35761,-0.108422 0.570656,-0.108425 0.117934,3e-6 0.222555,0.01142 0.313862,0.03424 0.09511,0.02283 0.190216,0.05517 0.285328,0.09701 l 0,-1.358163 0.850279,-0.136958 0,4.331285" />
    <path
       style="fill:#ffffff;fill-opacity:1"
       id="path4278"
       inkscape:connector-curvature="0"
       d="m 55.216622,51.493466 c -3e-6,0.235873 -0.03424,0.452722 -0.102718,0.650549 -0.06848,0.194024 -0.167396,0.361416 -0.296742,0.502178 -0.129351,0.136958 -0.285331,0.24348 -0.467938,0.319568 -0.178808,0.07609 -0.38044,0.114131 -0.604896,0.114131 -0.220656,0 -0.422288,-0.03804 -0.604897,-0.114131 -0.178806,-0.07609 -0.332883,-0.18261 -0.462232,-0.319568 -0.129349,-0.140762 -0.230165,-0.308154 -0.302448,-0.502178 -0.07228,-0.197827 -0.108425,-0.414676 -0.108424,-0.650549 -10e-7,-0.23587 0.03614,-0.450817 0.108424,-0.644842 0.07609,-0.194021 0.178806,-0.359511 0.308155,-0.496471 0.133152,-0.136955 0.289132,-0.243478 0.467939,-0.319568 0.182608,-0.07608 0.380436,-0.114129 0.593483,-0.114132 0.216847,3e-6 0.414675,0.03805 0.593483,0.114132 0.182607,0.07609 0.338587,0.182613 0.467938,0.319568 0.129346,0.13696 0.230162,0.30245 0.302448,0.496471 0.07228,0.194025 0.108422,0.408972 0.108425,0.644842 m -0.867398,0 c -3e-6,-0.2625 -0.05326,-0.467936 -0.159784,-0.616309 -0.10272,-0.152173 -0.251091,-0.228261 -0.445112,-0.228263 -0.194025,2e-6 -0.344298,0.07609 -0.450819,0.228263 -0.106524,0.148373 -0.159785,0.353809 -0.159784,0.616309 -10e-7,0.262503 0.05326,0.471744 0.159784,0.627723 0.106521,0.152175 0.256794,0.228263 0.450819,0.228262 0.194021,10e-7 0.342392,-0.07609 0.445112,-0.228262 0.10652,-0.155979 0.159781,-0.36522 0.159784,-0.627723" />
    <path
       style="fill:#ffffff;fill-opacity:1"
       id="path4280"
       inkscape:connector-curvature="0"
       d="m 57.798399,51.521999 c -2e-6,-0.2625 -0.05897,-0.471741 -0.176903,-0.627723 -0.117938,-0.159781 -0.292939,-0.239673 -0.525004,-0.239675 -0.07609,2e-6 -0.146471,0.0038 -0.211143,0.01141 -0.06468,0.0038 -0.117938,0.0095 -0.159784,0.01712 l 0,1.535067 c 0.05326,0.03424 0.121738,0.06277 0.205436,0.0856 0.0875,0.02283 0.175,0.03424 0.262502,0.03424 0.403262,1e-6 0.604894,-0.272012 0.604896,-0.816039 m 0.867399,-0.02283 c -4e-6,0.232068 -0.02854,0.443211 -0.0856,0.633429 -0.05707,0.190219 -0.140765,0.353807 -0.251089,0.490765 -0.11033,0.136957 -0.247287,0.24348 -0.410873,0.319567 -0.16359,0.07609 -0.351907,0.114132 -0.56495,0.114132 -0.117937,0 -0.228264,-0.01141 -0.330981,-0.03424 C 56.919586,53 56.820673,52.967663 56.725565,52.925815 l 0,1.1299 -0.850279,0 0,-3.954651 c 0.07609,-0.02282 0.163588,-0.04375 0.262502,-0.06277 0.09891,-0.02282 0.201631,-0.04185 0.308155,-0.05707 0.110326,-0.01521 0.220653,-0.02663 0.330981,-0.03424 0.11413,-0.01141 0.222554,-0.01712 0.325274,-0.01712 0.247283,3e-6 0.467937,0.03805 0.661962,0.114131 0.194021,0.07229 0.357609,0.176906 0.490765,0.313861 0.13315,0.133156 0.233966,0.296744 0.302448,0.490765 0.07228,0.194025 0.108421,0.410875 0.108425,0.650549" />
    <path
       style="fill:#ffffff;fill-opacity:1"
       id="path4282"
       inkscape:connector-curvature="0"
       d="m 59.290755,49.250785 0.850279,-0.136958 0,0.884518 1.021476,0 0,0.707615 -1.021476,0 0,1.055715 c -10e-7,0.178807 0.03043,0.321471 0.09131,0.427992 0.06467,0.106524 0.19212,0.159785 0.38234,0.159784 0.0913,10e-7 0.184511,-0.0076 0.279622,-0.02283 0.09891,-0.01902 0.188314,-0.04375 0.268209,-0.07418 l 0.119837,0.661961 c -0.10272,0.04185 -0.216851,0.07799 -0.342394,0.108425 -0.125546,0.03043 -0.279623,0.04565 -0.462232,0.04565 -0.232068,0 -0.424189,-0.03044 -0.576363,-0.09131 -0.152176,-0.06468 -0.273916,-0.152175 -0.36522,-0.262502 -0.09131,-0.114131 -0.15598,-0.251089 -0.194024,-0.410873 -0.03424,-0.159783 -0.05136,-0.336687 -0.05136,-0.530711 l 0,-2.522303" />
    <path
       style="fill:#ffffff;fill-opacity:1"
       id="path4284"
       inkscape:connector-curvature="0"
       d="m 62.699627,53 -0.850279,0 0,-3.001655 0.850279,0 0,3.001655 m 0.07989,-3.869053 c -2e-6,0.155983 -0.05136,0.279625 -0.154078,0.370927 -0.09892,0.0875 -0.21685,0.131254 -0.353807,0.131251 -0.136958,3e-6 -0.256796,-0.04375 -0.359514,-0.131251 -0.09891,-0.0913 -0.148371,-0.214944 -0.148371,-0.370927 0,-0.155975 0.04946,-0.277715 0.148371,-0.36522 0.102718,-0.0913 0.222556,-0.136954 0.359514,-0.136958 0.136957,4e-6 0.254892,0.04566 0.353807,0.136958 0.102717,0.08751 0.154076,0.209245 0.154078,0.36522" />
    <path
       style="fill:#ffffff;fill-opacity:1"
       id="path4286"
       inkscape:connector-curvature="0"
       d="m 66.306536,51.493466 c -3e-6,0.235873 -0.03424,0.452722 -0.102718,0.650549 -0.06848,0.194024 -0.167395,0.361416 -0.296741,0.502178 -0.129352,0.136958 -0.285331,0.24348 -0.467939,0.319568 -0.178808,0.07609 -0.38044,0.114131 -0.604896,0.114131 -0.220656,0 -0.422287,-0.03804 -0.604896,-0.114131 -0.178807,-0.07609 -0.332884,-0.18261 -0.462232,-0.319568 -0.12935,-0.140762 -0.230166,-0.308154 -0.302448,-0.502178 -0.07228,-0.197827 -0.108425,-0.414676 -0.108425,-0.650549 0,-0.23587 0.03614,-0.450817 0.108425,-0.644842 0.07609,-0.194021 0.178805,-0.359511 0.308154,-0.496471 0.133153,-0.136955 0.289132,-0.243478 0.467939,-0.319568 0.182609,-0.07608 0.380436,-0.114129 0.593483,-0.114132 0.216848,3e-6 0.414675,0.03805 0.593483,0.114132 0.182608,0.07609 0.338587,0.182613 0.467939,0.319568 0.129345,0.13696 0.230161,0.30245 0.302448,0.496471 0.07228,0.194025 0.108421,0.408972 0.108424,0.644842 m -0.867398,0 c -2e-6,-0.2625 -0.05326,-0.467936 -0.159784,-0.616309 -0.10272,-0.152173 -0.251091,-0.228261 -0.445112,-0.228263 -0.194025,2e-6 -0.344298,0.07609 -0.450819,0.228263 -0.106524,0.148373 -0.159785,0.353809 -0.159784,0.616309 -1e-6,0.262503 0.05326,0.471744 0.159784,0.627723 0.106521,0.152175 0.256794,0.228263 0.450819,0.228262 0.194021,10e-7 0.342392,-0.07609 0.445112,-0.228262 0.106521,-0.155979 0.159782,-0.36522 0.159784,-0.627723" />
    <path
       style="fill:#ffffff;fill-opacity:1"
       id="path4288"
       inkscape:connector-curvature="0"
       d="m 66.965198,50.101064 c 0.144566,-0.04185 0.330981,-0.07989 0.559244,-0.114132 0.228262,-0.03804 0.467937,-0.05706 0.719028,-0.05707 0.254891,3e-6 0.466034,0.03424 0.633429,0.102718 0.171194,0.06468 0.306249,0.157884 0.405166,0.279622 0.09891,0.121742 0.169292,0.266309 0.211143,0.433699 0.04185,0.167394 0.06277,0.353809 0.06277,0.559243 l 0,1.694851 -0.850278,0 0,-1.592132 c -3e-6,-0.273914 -0.03614,-0.467937 -0.108425,-0.58207 -0.07229,-0.114129 -0.207341,-0.171195 -0.405167,-0.171197 -0.06087,2e-6 -0.125546,0.0038 -0.194023,0.01141 -0.06848,0.0038 -0.12935,0.0095 -0.18261,0.01712 l 0,2.316867 -0.850279,0 0,-2.898936" />
  </g>
  <rect
     style="color:#000000;fill:#ffffff;fill-opacity:1;stroke:#ffffff;stroke-width:0.85123897;stroke-linecap:round;stroke-linejoin:miter;stroke-miterlimit:4;stroke-opacity:1;stroke-dasharray:none;stroke-dashoffset:8.6;marker:none;visibility:visible;display:inline;overflow:visible;enable-background:accumulate"
     id="rect4294"
     y="56.851913"
     x="55.80278"
     height="4.2300882"
     width="14.560373" />
  <rect
     style="color:#000000;fill:#ffffff;fill-opacity:1;stroke:#ffffff;stroke-width:0.85123897;stroke-linecap:round;stroke-linejoin:miter;stroke-miterlimit:4;stroke-opacity:1;stroke-dasharray:none;stroke-dashoffset:8.6;marker:none;visibility:visible;display:inline;overflow:visible;enable-background:accumulate"
     id="rect4296"
     y="56.851913"
     x="36.959946"
     height="4.2300882"
     width="14.560373" />
  <path
     style="fill:#ffffff;fill-opacity:1;stroke:#87aade;stroke-width:0.85123897;stroke-opacity:1"
     id="path4318"
     inkscape:connector-curvature="0"
     d="m 82.758697,33.437659 -71.945372,46.636724 71.945372,0 0,-46.636724 z m -8.817524,16.100775 0,21.826257 -33.689264,0 33.689264,-21.826257 z" />
  <g
     id="g4186"
     transform="matrix(0.85649252,0,0,0.84601763,106.00921,-7.2231666)">
    <g
       style="fill:#87aade;fill-opacity:1;stroke:#ffffff;stroke-opacity:1"
       transform="matrix(0.53065619,-0.19518968,-0.19518968,-0.53065619,-138.65848,115.08781)"
       id="g3537">
      <rect
         style="fill:#87aade;fill-opacity:1;stroke:#ffffff;stroke-width:1.32645738;stroke-linecap:butt;stroke-linejoin:round;stroke-miterlimit:4;stroke-opacity:1;stroke-dasharray:none"
         id="rect3483"
         y="107.49392"
         x="136.91356"
         ry="3"
         rx="3"
         height="16"
         width="12.116117" />
      <path
         inkscape:connector-curvature="0"
         style="opacity:0.3;fill:#87aade;fill-opacity:1;stroke:#ffffff;stroke-opacity:1;filter:url(#filter3495)"
         id="path3493"
         transform="matrix(1.8857143,0,0,1,-123.51329,-1.9445437)"
         d="m 141.24458,118.1889 a 1.5467962,3.9774759 0 1 1 -3.09359,0 1.5467962,3.9774759 0 1 1 3.09359,0 z" />
      <path
         style="opacity:0.8;fill:#87aade;fill-opacity:1;fill-rule:evenodd;stroke:#ffffff;stroke-opacity:1;filter:url(#filter3509)"
         id="path3499"
         inkscape:connector-curvature="0"
         d="m 146.31251,113.125 c -0.85193,9.50672 -3.9375,8.3125 -6.5,8.9375 4.07634,0.0625 8.625,-0.0625 8.625,-0.0625 -2.4375,-0.5625 -1.8125,-2.375 -2.125,-8.875 z" />
      <rect
         style="opacity:0.2;fill:#87aade;fill-opacity:1;stroke:#ffffff;stroke-opacity:1"
         id="rect3525"
         y="115.96875"
         x="136.41188"
         height="1"
         width="12.119369" />
    </g>
    <g
       style="fill:#87aade;fill-opacity:1;stroke:#ffffff;stroke-opacity:1"
       id="g3311"
       transform="matrix(0.53065619,-0.19518968,-0.19518968,-0.53065619,-124.84385,113.70953)">
      <path
         style="fill:#87aade;fill-opacity:1;stroke:#ffffff;stroke-width:1.32645738;stroke-linecap:butt;stroke-linejoin:round;stroke-miterlimit:4;stroke-opacity:1;stroke-dasharray:none"
         id="rect2480"
         inkscape:connector-curvature="0"
         d="m 112.76657,24.500002 6.5,-23.9999996 6.5,23.9999996 0,71.999997 -13,0 0,-71.999997 z" />
      <path
         style="fill:#87aade;fill-opacity:1;fill-rule:evenodd;stroke:#ffffff;stroke-opacity:1"
         id="path3272"
         inkscape:connector-curvature="0"
         d="m 117.69336,8.0716529 3.14265,0.022097 -1.58237,-5.7913293" />
      <path
         style="fill:#87aade;fill-opacity:1;fill-rule:evenodd;stroke:#ffffff;stroke-opacity:1"
         id="path3274"
         inkscape:connector-curvature="0"
         d="M 117.73213,8.0901517 113.96457,22 c 0,0 -0.46779,1.653465 -0.698,2.60832 -0.19122,0.64228 1.95886,1.611283 3.0182,-1.60832 1.21534,4.513809 5.57589,3.437953 5.98831,0.01105 0.3425,1.701476 1.75396,2.949961 2.98863,1.521937 -0.23478,-0.908743 -0.43641,-1.521937 -0.43641,-1.521937 l -4.02168,-14.9208973 -3.07149,0 z" />
      <path
         style="opacity:0.3;fill:#87aade;fill-opacity:1;stroke:#ffffff;stroke-width:1.76860964px;stroke-linecap:butt;stroke-linejoin:miter;stroke-opacity:1"
         id="path3294"
         inkscape:connector-curvature="0"
         d="m 122.37252,96.304856 0,-67.217294" />
      <path
         style="opacity:0.4;fill:#87aade;fill-opacity:1;stroke:#ffffff;stroke-width:1.76860964px;stroke-linecap:butt;stroke-linejoin:miter;stroke-opacity:1"
         id="path3304"
         inkscape:connector-curvature="0"
         d="m 116.24752,96.304856 0,-67.217294" />
      <path
         style="opacity:0.4;fill:#87aade;fill-opacity:1;fill-rule:evenodd;stroke:#ffffff;stroke-opacity:1;filter:url(#filter3382)"
         id="path3372"
         inkscape:connector-curvature="0"
         d="m 118.7044,5.9798798 -4.77297,17.8986412 1.98873,-0.839689 2.78424,-17.0589522 z" />
      <path
         style="opacity:0.15;fill:#87aade;fill-opacity:1;stroke:#ffffff;stroke-width:1.76860964px;stroke-linecap:butt;stroke-linejoin:miter;stroke-opacity:1"
         id="path3386"
         inkscape:connector-curvature="0"
         d="m 113.07908,24.624995 c 0,0 1.48667,1.76491 3.25,-1.53125 2,5.25 5.16858,2.087146 5.93749,-0.03125 1.375,3.4375 3.12501,1.4375 3.12501,1.4375" />
      <path
         style="opacity:0.8;fill:#87aade;fill-opacity:1;fill-rule:evenodd;stroke:#ffffff;stroke-opacity:1;filter:url(#filter3390)"
         id="path3388"
         transform="matrix(1.122449,0,0,1.345,-41.70282,-4.7709353)"
         inkscape:connector-curvature="0"
         d="m 144.06251,8.9374939 -0.375,12.5000011 3.0625,-0.3125 -2.6875,-12.1875011 z" />
    </g>
    <g
       style="fill:#87aade;fill-opacity:1;stroke:#ffffff;stroke-opacity:1"
       transform="matrix(0.53065619,-0.19518968,-0.19518968,-0.53065619,-137.43814,118.34205)"
       id="g3620">
      <rect
         style="fill:#87aade;fill-opacity:1;stroke:#ffffff;stroke-width:1.32645738;stroke-linecap:butt;stroke-linejoin:round;stroke-miterlimit:4;stroke-opacity:1;stroke-dasharray:none"
         id="rect3333"
         y="96.5"
         x="136.5"
         height="19"
         width="13" />
      <rect
         style="opacity:0.4;fill:#87aade;fill-opacity:1;stroke:#ffffff;stroke-opacity:1"
         id="rect3337"
         y="100"
         x="137"
         height="1"
         width="12" />
      <rect
         style="opacity:0.6;fill:#87aade;fill-opacity:1;stroke:#ffffff;stroke-opacity:1"
         id="rect3351"
         y="101"
         x="137"
         height="1"
         width="12" />
      <rect
         style="opacity:0.4;fill:#87aade;fill-opacity:1;stroke:#ffffff;stroke-opacity:1"
         id="rect3369"
         y="102"
         x="137"
         height="1"
         width="12" />
      <rect
         style="opacity:0.6;fill:#87aade;fill-opacity:1;stroke:#ffffff;stroke-opacity:1"
         id="rect3371"
         y="103"
         x="137"
         height="1"
         width="12" />
      <rect
         style="opacity:0.4;fill:#87aade;fill-opacity:1;stroke:#ffffff;stroke-opacity:1"
         id="rect3379"
         y="108"
         x="137"
         height="1"
         width="12" />
      <rect
         style="opacity:0.6;fill:#87aade;fill-opacity:1;stroke:#ffffff;stroke-opacity:1"
         id="rect3381"
         y="109"
         x="137"
         height="1"
         width="12" />
      <rect
         style="opacity:0.4;fill:#87aade;fill-opacity:1;stroke:#ffffff;stroke-opacity:1"
         id="rect3385"
         y="110"
         x="137"
         height="1"
         width="12" />
      <rect
         style="opacity:0.6;fill:#87aade;fill-opacity:1;stroke:#ffffff;stroke-opacity:1"
         id="rect3387"
         y="111"
         x="137"
         height="1"
         width="12" />
      <rect
         style="opacity:0.3;fill:#87aade;fill-opacity:1;stroke:#ffffff;stroke-opacity:1"
         id="rect3437"
         y="104"
         x="137"
         height="4"
         width="12" />
      <path
         inkscape:connector-curvature="0"
         style="opacity:0.6;fill:#87aade;fill-opacity:1;stroke:#ffffff;stroke-opacity:1;filter:url(#filter3451)"
         id="path3449"
         transform="matrix(1.2553848,0,0,1,-35.75387,0)"
         d="m 140.00001,106.07969 a 1.10128,8.3968973 0 1 1 -2.20256,0 1.10128,8.3968973 0 1 1 2.20256,0 z" />
      <path
         inkscape:connector-curvature="0"
         style="opacity:0.8;fill:#87aade;fill-opacity:1;stroke:#ffffff;stroke-opacity:1;filter:url(#filter3457)"
         id="path3455"
         d="m 147.34339,106.03549 a 1.193245,8.0875489 0 1 1 -2.38649,0 1.193245,8.0875489 0 1 1 2.38649,0 z" />
    </g>
  </g>
</svg>
