<?xml version="1.0" encoding="UTF-8" standalone="no"?>
<!-- Created with Inkscape (http://www.inkscape.org/) -->

<svg
   xmlns:dc="http://purl.org/dc/elements/1.1/"
   xmlns:cc="http://creativecommons.org/ns#"
   xmlns:rdf="http://www.w3.org/1999/02/22-rdf-syntax-ns#"
   xmlns:svg="http://www.w3.org/2000/svg"
   xmlns="http://www.w3.org/2000/svg"
   xmlns:xlink="http://www.w3.org/1999/xlink"
   xmlns:sodipodi="http://sodipodi.sourceforge.net/DTD/sodipodi-0.dtd"
   xmlns:inkscape="http://www.inkscape.org/namespaces/inkscape"
   version="1.0"
   width="96"
   height="96"
   id="svg2408"
   inkscape:version="0.48.4 r9939"
   sodipodi:docname="gnome-sudoku.svg">
  <sodipodi:namedview
     pagecolor="#ffffff"
     bordercolor="#666666"
     borderopacity="1"
     objecttolerance="10"
     gridtolerance="10"
     guidetolerance="10"
     inkscape:pageopacity="0"
     inkscape:pageshadow="2"
     inkscape:window-width="640"
     inkscape:window-height="480"
     id="namedview102"
     showgrid="false"
     inkscape:zoom="2.4583333"
     inkscape:cx="48"
     inkscape:cy="48"
     inkscape:window-x="652"
     inkscape:window-y="104"
     inkscape:window-maximized="0"
     inkscape:current-layer="svg2408" />
  <defs
     id="defs2410">
    <linearGradient
       x1="45.447727"
       y1="92.539597"
       x2="45.447727"
       y2="7.0165396"
       id="ButtonShadow"
       gradientUnits="userSpaceOnUse"
       gradientTransform="scale(1.0058652,0.994169)">
      <stop
         id="stop3750"
         style="stop-color:#000000;stop-opacity:1"
         offset="0" />
      <stop
         id="stop3752"
         style="stop-color:#000000;stop-opacity:0.58823532"
         offset="1" />
    </linearGradient>
    <linearGradient
       id="linearGradient3737">
      <stop
         id="stop3739"
         style="stop-color:#ffffff;stop-opacity:1"
         offset="0" />
      <stop
         id="stop3741"
         style="stop-color:#ffffff;stop-opacity:0"
         offset="1" />
    </linearGradient>
    <linearGradient
       id="linearGradient3700">
      <stop
         id="stop3702"
         style="stop-color:#48914f;stop-opacity:1"
         offset="0" />
      <stop
         id="stop3704"
         style="stop-color:#78cc80;stop-opacity:1"
         offset="1" />
    </linearGradient>
    <filter
       color-interpolation-filters="sRGB"
       id="filter3174">
      <feGaussianBlur
         id="feGaussianBlur3176"
         stdDeviation="1.71" />
    </filter>
    <linearGradient
       x1="36.357143"
       y1="6"
       x2="36.357143"
       y2="63.893143"
       id="linearGradient3188"
       xlink:href="#linearGradient3737"
       gradientUnits="userSpaceOnUse" />
    <filter
       x="-0.192"
       y="-0.192"
       width="1.3839999"
       height="1.3839999"
       color-interpolation-filters="sRGB"
       id="filter3794">
      <feGaussianBlur
         id="feGaussianBlur3796"
         stdDeviation="5.28" />
    </filter>
    <linearGradient
       x1="48"
       y1="20.220806"
       x2="48"
       y2="138.66119"
       id="linearGradient3613"
       xlink:href="#linearGradient3737"
       gradientUnits="userSpaceOnUse" />
    <radialGradient
       cx="48"
       cy="90.171875"
       r="42"
       fx="48"
       fy="90.171875"
       id="radialGradient3619"
       xlink:href="#linearGradient3737"
       gradientUnits="userSpaceOnUse"
       gradientTransform="matrix(1.1573129,0,0,0.99590774,-7.5510206,0.19713193)" />
    <clipPath
       id="clipPath3613">
      <rect
         width="84"
         height="84"
         rx="6"
         ry="6"
         x="6"
         y="6"
         id="rect3615"
         style="fill:#ffffff;fill-opacity:1;fill-rule:nonzero;stroke:none" />
    </clipPath>
    <linearGradient
       x1="48"
       y1="90"
       x2="48"
       y2="5.9877172"
       id="linearGradient3617"
       xlink:href="#linearGradient3700"
       gradientUnits="userSpaceOnUse" />
    <linearGradient
       x1="45.447727"
       y1="92.539597"
       x2="45.447727"
       y2="7.0165396"
       id="ButtonShadow-0"
       gradientUnits="userSpaceOnUse"
       gradientTransform="matrix(1.0058652,0,0,0.994169,100,0)">
      <stop
         id="stop3750-8"
         style="stop-color:#000000;stop-opacity:1"
         offset="0" />
      <stop
         id="stop3752-5"
         style="stop-color:#000000;stop-opacity:0.58823532"
         offset="1" />
    </linearGradient>
    <linearGradient
       x1="32.251034"
       y1="6.1317081"
       x2="32.251034"
       y2="90.238609"
       id="linearGradient3780"
       xlink:href="#ButtonShadow-0"
       gradientUnits="userSpaceOnUse"
       gradientTransform="matrix(1.0238095,0,0,1.0119048,-1.1428571,-98.071429)" />
    <linearGradient
       x1="32.251034"
       y1="6.1317081"
       x2="32.251034"
       y2="90.238609"
       id="linearGradient3772"
       xlink:href="#ButtonShadow-0"
       gradientUnits="userSpaceOnUse"
       gradientTransform="matrix(1.0238095,0,0,1.0119048,-1.1428571,-98.071429)" />
    <linearGradient
       x1="32.251034"
       y1="6.1317081"
       x2="32.251034"
       y2="90.238609"
       id="linearGradient3725"
       xlink:href="#ButtonShadow-0"
       gradientUnits="userSpaceOnUse"
       gradientTransform="matrix(1.0238095,0,0,1.0119048,-1.1428571,-98.071429)" />
    <linearGradient
       x1="32.251034"
       y1="6.1317081"
       x2="32.251034"
       y2="90.238609"
       id="linearGradient3721"
       xlink:href="#ButtonShadow-0"
       gradientUnits="userSpaceOnUse"
       gradientTransform="translate(0,-97)" />
    <linearGradient
       x1="32.251034"
       y1="6.1317081"
       x2="32.251034"
       y2="90.238609"
       id="linearGradient3026"
       xlink:href="#ButtonShadow-0"
       gradientUnits="userSpaceOnUse"
       gradientTransform="matrix(1.0238095,0,0,1.0119048,-1.1428571,-98.071429)" />
  </defs>
  <metadata
     id="metadata2413">
    <rdf:RDF>
      <cc:Work
         rdf:about="">
        <dc:format>image/svg+xml</dc:format>
        <dc:type
           rdf:resource="http://purl.org/dc/dcmitype/StillImage" />
        <dc:title />
      </cc:Work>
    </rdf:RDF>
  </metadata>
  <g
     id="layer2"
     style="display:none">
    <rect
       width="86"
       height="85"
       rx="6"
       ry="6"
       x="5"
       y="7"
       id="rect3745"
       style="opacity:0.9;fill:url(#ButtonShadow);fill-opacity:1;fill-rule:nonzero;stroke:none;filter:url(#filter3174)" />
  </g>
  <rect
     style="fill:#48914f;fill-opacity:1;fill-rule:nonzero;stroke:none"
     id="rect2419"
     y="5.3290705e-15"
     x="0"
     ry="0"
     rx="0"
     height="96"
     width="96" />
  <a
     id="a3719"
     transform="matrix(0.90911647,0,0,0.94374165,48.813561,3.51396)">
    <g
       id="g3721">
      <path
         inkscape:connector-curvature="0"
         style="opacity:0.1;color:#000000;fill:#376e3c;fill-opacity:1;fill-rule:nonzero;stroke:none;stroke-width:1.5;marker:none;visibility:visible;display:inline;overflow:visible;enable-background:accumulate"
         id="path3723"
         d="m 17,12.0625 c -2.709011,0 -4.9375,2.228489 -4.9375,4.9375 l 0,14 c 0,2.709011 2.228489,4.9375 4.9375,4.9375 l 14,0 c 2.709011,0 4.9375,-2.228489 4.9375,-4.9375 l 0,-14 c 0,-2.709011 -2.228489,-4.9375 -4.9375,-4.9375 l -14,0 z" />
      <path
         inkscape:connector-curvature="0"
         style="opacity:0.2;color:#000000;fill:#376e3c;fill-opacity:1;fill-rule:nonzero;stroke:none;stroke-width:1.5;marker:none;visibility:visible;display:inline;overflow:visible;enable-background:accumulate"
         id="path3725"
         d="m 17,13 c -2.19953,0 -4,1.80047 -4,4 l 0,14 c 0,2.19953 1.80047,4 4,4 l 14,0 c 2.19953,0 4,-1.80047 4,-4 l 0,-14 c 0,-2.19953 -1.80047,-4 -4,-4 l -14,0 z" />
      <rect
         style="color:#000000;fill:#ffffff;fill-opacity:1;fill-rule:nonzero;stroke:none;stroke-width:1.5;marker:none;visibility:visible;display:inline;overflow:visible;enable-background:accumulate"
         id="rect3727"
         y="14"
         x="14"
         ry="3"
         rx="3"
         height="20"
         width="20" />
    </g>
  </a>
  <a
     id="a3739"
     transform="matrix(0.90911647,0,0,0.94374165,26.994765,26.16376)">
    <g
       id="g3741">
      <path
         inkscape:connector-curvature="0"
         style="opacity:0.1;color:#000000;fill:#376e3c;fill-opacity:1;fill-rule:nonzero;stroke:none;stroke-width:1.5;marker:none;visibility:visible;display:inline;overflow:visible;enable-background:accumulate"
         id="path3743"
         d="m 17,12.0625 c -2.709011,0 -4.9375,2.228489 -4.9375,4.9375 l 0,14 c 0,2.709011 2.228489,4.9375 4.9375,4.9375 l 14,0 c 2.709011,0 4.9375,-2.228489 4.9375,-4.9375 l 0,-14 c 0,-2.709011 -2.228489,-4.9375 -4.9375,-4.9375 l -14,0 z" />
      <path
         inkscape:connector-curvature="0"
         style="opacity:0.2;color:#000000;fill:#376e3c;fill-opacity:1;fill-rule:nonzero;stroke:none;stroke-width:1.5;marker:none;visibility:visible;display:inline;overflow:visible;enable-background:accumulate"
         id="path3745"
         d="m 17,13 c -2.19953,0 -4,1.80047 -4,4 l 0,14 c 0,2.19953 1.80047,4 4,4 l 14,0 c 2.19953,0 4,-1.80047 4,-4 l 0,-14 c 0,-2.19953 -1.80047,-4 -4,-4 l -14,0 z" />
      <rect
         style="color:#000000;fill:#ffffff;fill-opacity:1;fill-rule:nonzero;stroke:none;stroke-width:1.5;marker:none;visibility:visible;display:inline;overflow:visible;enable-background:accumulate"
         id="rect3747"
         y="14"
         x="14"
         ry="3"
         rx="3"
         height="20"
         width="20" />
    </g>
  </a>
  <a
     id="a3749"
     transform="matrix(0.90911647,0,0,0.94374165,48.813561,26.16376)">
    <g
       id="g3751">
      <path
         inkscape:connector-curvature="0"
         style="opacity:0.1;color:#000000;fill:#376e3c;fill-opacity:1;fill-rule:nonzero;stroke:none;stroke-width:1.5;marker:none;visibility:visible;display:inline;overflow:visible;enable-background:accumulate"
         id="path3753"
         d="m 17,12.0625 c -2.709011,0 -4.9375,2.228489 -4.9375,4.9375 l 0,14 c 0,2.709011 2.228489,4.9375 4.9375,4.9375 l 14,0 c 2.709011,0 4.9375,-2.228489 4.9375,-4.9375 l 0,-14 c 0,-2.709011 -2.228489,-4.9375 -4.9375,-4.9375 l -14,0 z" />
      <path
         inkscape:connector-curvature="0"
         style="opacity:0.2;color:#000000;fill:#376e3c;fill-opacity:1;fill-rule:nonzero;stroke:none;stroke-width:1.5;marker:none;visibility:visible;display:inline;overflow:visible;enable-background:accumulate"
         id="path3755"
         d="m 17,13 c -2.19953,0 -4,1.80047 -4,4 l 0,14 c 0,2.19953 1.80047,4 4,4 l 14,0 c 2.19953,0 4,-1.80047 4,-4 l 0,-14 c 0,-2.19953 -1.80047,-4 -4,-4 l -14,0 z" />
      <rect
         style="color:#000000;fill:#ffffff;fill-opacity:1;fill-rule:nonzero;stroke:none;stroke-width:1.5;marker:none;visibility:visible;display:inline;overflow:visible;enable-background:accumulate"
         id="rect3757"
         y="14"
         x="14"
         ry="3"
         rx="3"
         height="20"
         width="20" />
    </g>
  </a>
  <a
     id="a3759"
     transform="matrix(0.90911647,0,0,0.94374165,5.1759702,48.813559)">
    <g
       id="g3761">
      <path
         inkscape:connector-curvature="0"
         style="opacity:0.1;color:#000000;fill:#376e3c;fill-opacity:1;fill-rule:nonzero;stroke:none;stroke-width:1.5;marker:none;visibility:visible;display:inline;overflow:visible;enable-background:accumulate"
         id="path3763"
         d="m 17,12.0625 c -2.709011,0 -4.9375,2.228489 -4.9375,4.9375 l 0,14 c 0,2.709011 2.228489,4.9375 4.9375,4.9375 l 14,0 c 2.709011,0 4.9375,-2.228489 4.9375,-4.9375 l 0,-14 c 0,-2.709011 -2.228489,-4.9375 -4.9375,-4.9375 l -14,0 z" />
      <path
         inkscape:connector-curvature="0"
         style="opacity:0.2;color:#000000;fill:#376e3c;fill-opacity:1;fill-rule:nonzero;stroke:none;stroke-width:1.5;marker:none;visibility:visible;display:inline;overflow:visible;enable-background:accumulate"
         id="path3765"
         d="m 17,13 c -2.19953,0 -4,1.80047 -4,4 l 0,14 c 0,2.19953 1.80047,4 4,4 l 14,0 c 2.19953,0 4,-1.80047 4,-4 l 0,-14 c 0,-2.19953 -1.80047,-4 -4,-4 l -14,0 z" />
      <rect
         style="color:#000000;fill:#ffffff;fill-opacity:1;fill-rule:nonzero;stroke:none;stroke-width:1.5;marker:none;visibility:visible;display:inline;overflow:visible;enable-background:accumulate"
         id="rect3767"
         y="14"
         x="14"
         ry="3"
         rx="3"
         height="20"
         width="20" />
    </g>
  </a>
  <rect
     style="color:#000000;fill:#48914f;fill-opacity:1;fill-rule:nonzero;stroke:#ffffff;stroke-width:1.28425109;stroke-opacity:1;marker:none;visibility:visible;display:inline;overflow:visible;enable-background:accumulate"
     id="rect3787"
     y="61.949497"
     x="62.266174"
     ry="2.6169581"
     rx="2.5209439"
     height="17.446386"
     width="16.806292" />
  <g
     style="font-size:16px;font-style:normal;font-variant:normal;font-weight:bold;font-stretch:normal;text-align:center;line-height:125%;writing-mode:lr-tb;text-anchor:middle;fill:#ffffff;fill-opacity:1;stroke:none;font-family:Liberation Sans;-inkscape-font-specification:Liberation Sans Bold"
     id="text3805"
     transform="matrix(0.90911647,0,0,0.94374165,5.2129398,3.1071803)">
    <path
       style="fill:#ffffff;fill-opacity:1"
       id="path3810"
       inkscape:connector-curvature="0"
       d="m 75.753906,68.238281 c -0.494799,0.781259 -0.963549,1.53907 -1.40625,2.273438 -0.437506,0.734381 -0.820318,1.473964 -1.148437,2.21875 -0.328131,0.739587 -0.588547,1.502607 -0.78125,2.289062 -0.187505,0.781252 -0.281255,1.609376 -0.28125,2.484375 l -2.289063,0 c -2e-6,-0.869791 0.10156,-1.695311 0.304688,-2.476562 0.20833,-0.786455 0.48958,-1.55208 0.84375,-2.296875 0.354163,-0.744786 0.765621,-1.479161 1.234375,-2.203125 0.468745,-0.729159 0.963536,-1.471346 1.484375,-2.226563 l -5.46875,0 0,-1.804687 7.507812,0 0,1.742187" />
  </g>
  <rect
     width="16.806292"
     height="17.446386"
     rx="2.5209439"
     ry="2.6169581"
     x="40.78022"
     y="62.333393"
     id="rect3928"
     style="color:#000000;fill:#48914f;fill-opacity:1;fill-rule:nonzero;stroke:#ffffff;stroke-width:1.28425109;stroke-opacity:1;marker:none;visibility:visible;display:inline;overflow:visible;enable-background:accumulate" />
  <g
     style="font-size:16px;font-style:normal;font-variant:normal;font-weight:bold;font-stretch:normal;text-align:center;line-height:125%;writing-mode:lr-tb;text-anchor:middle;fill:#ffffff;fill-opacity:1;stroke:none;font-family:Liberation Sans;-inkscape-font-specification:Liberation Sans Bold"
     id="text3801"
     transform="matrix(0.90911647,0,0,0.94374165,5.17597,3.10718)">
    <path
       style="fill:#ffffff;fill-opacity:1"
       id="path3813"
       inkscape:connector-curvature="0"
       d="m 51.875,71.828125 c -8e-6,1.953129 -0.356779,3.414065 -1.070313,4.382812 -0.713548,0.968751 -1.726568,1.453125 -3.039062,1.453125 -0.473962,0 -0.901045,-0.04948 -1.28125,-0.148437 C 46.109372,77.416667 45.781248,77.263021 45.5,77.054687 45.218748,76.846355 44.979165,76.578126 44.78125,76.25 44.588541,75.921877 44.434895,75.531252 44.320312,75.078125 l 2.0625,-0.289063 c 0.104164,0.390628 0.273435,0.67969 0.507813,0.867188 0.23958,0.187502 0.539059,0.281252 0.898437,0.28125 0.296871,2e-6 0.562496,-0.07031 0.796875,-0.210938 0.23437,-0.140623 0.434891,-0.354164 0.601563,-0.640625 0.166661,-0.286455 0.294265,-0.648434 0.382812,-1.085937 0.09374,-0.442704 0.143224,-0.963537 0.148438,-1.5625 -0.104173,0.20313 -0.242193,0.382817 -0.414063,0.539062 -0.17188,0.156255 -0.367192,0.286463 -0.585937,0.390625 -0.213547,0.104171 -0.442713,0.1849 -0.6875,0.242188 -0.244796,0.05209 -0.492191,0.07813 -0.742188,0.07813 -0.479169,4e-6 -0.914065,-0.08333 -1.304687,-0.25 -0.390627,-0.171871 -0.72396,-0.416662 -1,-0.734375 -0.276043,-0.317703 -0.489584,-0.700515 -0.640625,-1.148438 -0.145834,-0.453118 -0.218751,-0.963534 -0.21875,-1.53125 -10e-7,-0.583325 0.08594,-1.104158 0.257812,-1.5625 0.177083,-0.458323 0.429687,-0.84374 0.757813,-1.15625 0.328123,-0.317697 0.729164,-0.55728 1.203125,-0.71875 0.479163,-0.166655 1.02083,-0.249988 1.625,-0.25 0.635412,1.2e-5 1.195307,0.109387 1.679687,0.328125 0.489577,0.213553 0.898431,0.546886 1.226563,1 0.328117,0.447927 0.575513,1.018238 0.742187,1.710938 0.171867,0.687507 0.257805,1.505215 0.257813,2.453125 m -2.320313,-1.539063 c -5e-6,-0.312492 -0.03646,-0.604158 -0.109375,-0.875 -0.06771,-0.276033 -0.17188,-0.513012 -0.3125,-0.710937 -0.14063,-0.203116 -0.312505,-0.36197 -0.515625,-0.476563 -0.203129,-0.114573 -0.437504,-0.171865 -0.703125,-0.171875 -0.244795,1e-5 -0.463545,0.04689 -0.65625,0.140625 -0.192711,0.08855 -0.356774,0.21876 -0.492187,0.390625 -0.13542,0.171884 -0.239586,0.380217 -0.3125,0.625 -0.06771,0.2448 -0.101565,0.520842 -0.101563,0.828125 -2e-6,0.286466 0.03385,0.554695 0.101563,0.804688 0.0677,0.244798 0.166664,0.45834 0.296875,0.640625 0.130205,0.177089 0.294267,0.317714 0.492187,0.421875 0.197913,0.09896 0.424476,0.148443 0.679688,0.148437 0.20312,6e-6 0.401037,-0.03645 0.59375,-0.109375 0.197912,-0.07291 0.372391,-0.182285 0.523437,-0.328125 0.156245,-0.145827 0.281245,-0.328118 0.375,-0.546875 0.09374,-0.223951 0.14062,-0.484368 0.140625,-0.78125" />
  </g>
  <rect
     width="16.806292"
     height="17.446386"
     rx="2.5209439"
     ry="2.6169581"
     x="40.0406"
     y="17.440575"
     id="rect3930"
     style="color:#000000;fill:#48914f;fill-opacity:1;fill-rule:nonzero;stroke:#ffffff;stroke-width:1.28425109;stroke-opacity:1;marker:none;visibility:visible;display:inline;overflow:visible;enable-background:accumulate" />
  <rect
     width="16.806292"
     height="17.446386"
     rx="2.5209439"
     ry="2.6169581"
     x="18.221806"
     y="39.322582"
     id="rect3932"
     style="color:#000000;fill:#48914f;fill-opacity:1;fill-rule:nonzero;stroke:#ffffff;stroke-width:1.28425109;stroke-opacity:1;marker:none;visibility:visible;display:inline;overflow:visible;enable-background:accumulate" />
  <rect
     width="16.806292"
     height="17.446386"
     rx="2.5209439"
     ry="2.6169581"
     x="17.851995"
     y="17.440575"
     id="rect3934"
     style="color:#000000;fill:#48914f;fill-opacity:1;fill-rule:nonzero;stroke:#ffffff;stroke-width:1.28425109;stroke-opacity:1;marker:none;visibility:visible;display:inline;overflow:visible;enable-background:accumulate" />
  <g
     style="font-size:16px;font-style:normal;font-variant:normal;font-weight:bold;font-stretch:normal;text-align:center;line-height:125%;writing-mode:lr-tb;text-anchor:middle;fill:#ffffff;fill-opacity:1;stroke:none;font-family:Liberation Sans;-inkscape-font-specification:Liberation Sans Bold"
     id="text3789"
     transform="matrix(0.90911647,0,0,0.94374165,4.4363514,3.8978548)">
    <path
       style="fill:#ffffff;fill-opacity:1"
       id="path3819"
       inkscape:connector-curvature="0"
       d="m 27.98291,25.761719 c -8e-6,0.552086 -0.08855,1.062502 -0.265625,1.53125 -0.171883,0.463543 -0.429695,0.867189 -0.773437,1.210937 -0.343757,0.338542 -0.77084,0.604167 -1.28125,0.796875 -0.505214,0.1875 -1.091151,0.28125 -1.757813,0.28125 -0.614587,0 -1.151045,-0.07292 -1.609375,-0.21875 -0.458335,-0.151041 -0.846356,-0.35677 -1.164062,-0.617187 -0.312502,-0.265624 -0.559897,-0.57552 -0.742188,-0.929688 -0.177084,-0.354164 -0.29948,-0.734372 -0.367187,-1.140625 l 2.195312,-0.179687 c 0.04166,0.171878 0.09896,0.338544 0.171875,0.5 0.07812,0.16146 0.184893,0.304689 0.320313,0.429687 0.135413,0.125002 0.30208,0.226565 0.5,0.304688 0.197912,0.07292 0.437496,0.109376 0.71875,0.109375 0.54687,1e-6 0.981765,-0.174478 1.304687,-0.523438 0.328119,-0.348956 0.492181,-0.851559 0.492188,-1.507812 -7e-6,-0.291663 -0.04167,-0.554684 -0.125,-0.789063 -0.07813,-0.23437 -0.192715,-0.434891 -0.34375,-0.601562 -0.145839,-0.166662 -0.328131,-0.294266 -0.546875,-0.382813 -0.213547,-0.08854 -0.458338,-0.132807 -0.734375,-0.132812 -0.364588,5e-6 -0.664067,0.07032 -0.898438,0.210937 -0.234378,0.135422 -0.432295,0.302089 -0.59375,0.5 l -2.140625,0 0.382813,-6.195312 6.617187,0 0,1.632812 -4.625,0 -0.179687,2.78125 c 0.218746,-0.192701 0.494788,-0.356764 0.828125,-0.492187 0.333329,-0.140618 0.721349,-0.21093 1.164062,-0.210938 0.541661,8e-6 1.026036,0.08855 1.453125,0.265625 0.427077,0.17709 0.789055,0.424486 1.085938,0.742188 0.296867,0.317714 0.523429,0.700526 0.679687,1.148437 0.156242,0.442713 0.234367,0.9349 0.234375,1.476563" />
  </g>
  <g
     style="font-size:16px;font-style:normal;font-variant:normal;font-weight:bold;font-stretch:normal;text-align:center;line-height:125%;writing-mode:lr-tb;text-anchor:middle;fill:#ffffff;fill-opacity:1;stroke:none;font-family:Liberation Sans;-inkscape-font-specification:Liberation Sans Bold"
     id="text3797"
     transform="matrix(0.90911647,0,0,0.94374165,26.255147,-18.751945)">
    <path
       style="fill:#ffffff;fill-opacity:1"
       id="path3822"
       inkscape:connector-curvature="0"
       d="m 27.867187,49.90625 c -8e-6,0.552086 -0.07813,1.059898 -0.234375,1.523437 -0.156257,0.458335 -0.390632,0.854168 -0.703125,1.1875 -0.307298,0.328126 -0.692715,0.585938 -1.15625,0.773438 -0.463547,0.182292 -1.000005,0.273437 -1.609375,0.273437 -1.296878,0 -2.294273,-0.453124 -2.992187,-1.359375 -0.692709,-0.911456 -1.039063,-2.260413 -1.039063,-4.046875 0,-1.963534 0.351562,-3.440095 1.054688,-4.429687 0.708331,-0.994781 1.718747,-1.492176 3.03125,-1.492188 0.437495,1.2e-5 0.835932,0.04689 1.195312,0.140625 0.359369,0.08855 0.679681,0.234386 0.960938,0.4375 0.281243,0.203136 0.520826,0.466156 0.71875,0.789063 0.197909,0.317718 0.356763,0.705738 0.476562,1.164062 L 25.5,45.15625 c -0.104173,-0.385408 -0.273443,-0.661449 -0.507813,-0.828125 -0.23438,-0.171866 -0.507817,-0.257803 -0.820312,-0.257813 -0.588546,10e-6 -1.052087,0.29428 -1.390625,0.882813 -0.333336,0.58855 -0.500003,1.481778 -0.5,2.679687 0.234372,-0.390618 0.559893,-0.690097 0.976562,-0.898437 0.416663,-0.208326 0.888017,-0.312493 1.414063,-0.3125 0.484369,7e-6 0.921869,0.08074 1.3125,0.242187 0.395826,0.156257 0.731764,0.385424 1.007812,0.6875 0.281243,0.296881 0.497388,0.661464 0.648438,1.09375 0.151033,0.432297 0.226554,0.919275 0.226562,1.460938 m -2.203125,0.0625 c -6e-6,-0.296871 -0.03386,-0.562496 -0.101562,-0.796875 -0.06771,-0.239579 -0.171881,-0.442704 -0.3125,-0.609375 -0.135422,-0.166662 -0.304693,-0.294266 -0.507813,-0.382813 -0.203129,-0.09374 -0.437504,-0.140619 -0.703125,-0.140625 -0.192712,6e-6 -0.38542,0.03126 -0.578125,0.09375 -0.192712,0.06251 -0.364586,0.164068 -0.515625,0.304688 -0.151044,0.135422 -0.27344,0.309901 -0.367187,0.523437 -0.09375,0.213546 -0.140628,0.471359 -0.140625,0.773438 -3e-6,0.312503 0.03906,0.60417 0.117187,0.875 0.07812,0.270836 0.187497,0.507815 0.328125,0.710937 0.14583,0.197919 0.320309,0.354169 0.523438,0.46875 0.203121,0.109377 0.432287,0.164065 0.6875,0.164063 0.494787,2e-6 0.880203,-0.174477 1.15625,-0.523438 0.276036,-0.354164 0.414056,-0.841142 0.414062,-1.460937" />
  </g>
  <g
     style="font-size:16px;font-style:normal;font-variant:normal;font-weight:bold;font-stretch:normal;text-align:center;line-height:125%;writing-mode:lr-tb;text-anchor:middle;fill:#ffffff;fill-opacity:1;stroke:none;font-family:Liberation Sans;-inkscape-font-specification:Liberation Sans Bold"
     id="text3793"
     transform="matrix(0.90911647,0,0,0.94374165,-17.382448,25.779864)">
    <path
       style="fill:#ffffff;fill-opacity:1"
       id="path3816"
       inkscape:connector-curvature="0"
       d="m 51.976562,26.441406 c -8e-6,0.500003 -0.08334,0.950523 -0.25,1.351563 -0.161466,0.395834 -0.406257,0.734376 -0.734375,1.015625 -0.328132,0.28125 -0.736985,0.497396 -1.226562,0.648437 -0.484381,0.145833 -1.049484,0.21875 -1.695313,0.21875 -0.718753,0 -1.325523,-0.09115 -1.820312,-0.273437 -0.489585,-0.182292 -0.893231,-0.421875 -1.210938,-0.71875 -0.312501,-0.302082 -0.54948,-0.643228 -0.710937,-1.023438 -0.156251,-0.380206 -0.257813,-0.765622 -0.304688,-1.15625 l 2.234375,-0.195312 c 0.03125,0.234378 0.08854,0.450523 0.171875,0.648437 0.08854,0.192711 0.205727,0.359377 0.351563,0.5 0.14583,0.140627 0.322913,0.250002 0.53125,0.328125 0.213538,0.07292 0.463538,0.109377 0.75,0.109375 0.526037,2e-6 0.93489,-0.130206 1.226562,-0.390625 0.291661,-0.260414 0.437494,-0.658851 0.4375,-1.195312 -6e-6,-0.328122 -0.07032,-0.591142 -0.210937,-0.789063 -0.135422,-0.197912 -0.309901,-0.348954 -0.523438,-0.453125 -0.208338,-0.10937 -0.4349,-0.182287 -0.679687,-0.21875 -0.244796,-0.03645 -0.476567,-0.05468 -0.695313,-0.05469 l -0.765625,0 0,-1.773438 0.71875,0 c 0.218746,7e-6 0.4401,-0.02083 0.664063,-0.0625 0.229162,-0.04166 0.434891,-0.117181 0.617187,-0.226562 0.182287,-0.109368 0.330724,-0.26041 0.445313,-0.453125 0.114578,-0.197909 0.171869,-0.447909 0.171875,-0.75 -6e-6,-0.453117 -0.12761,-0.807283 -0.382813,-1.0625 -0.250005,-0.260408 -0.617192,-0.390616 -1.101562,-0.390625 -0.453129,9e-6 -0.820316,0.125009 -1.101563,0.375 -0.276044,0.250009 -0.434898,0.604175 -0.476562,1.0625 l -2.195313,-0.15625 c 0.0625,-0.515617 0.203125,-0.963533 0.421875,-1.34375 0.223958,-0.380199 0.502603,-0.695303 0.835938,-0.945313 0.33854,-0.249989 0.72656,-0.434885 1.164062,-0.554687 0.437497,-0.124989 0.901038,-0.187489 1.390625,-0.1875 0.645829,1.1e-5 1.200516,0.07814 1.664063,0.234375 0.463535,0.156261 0.843743,0.367198 1.140625,0.632812 0.296868,0.265635 0.515617,0.575531 0.65625,0.929688 0.140617,0.354175 0.210929,0.731779 0.210937,1.132812 -8e-6,0.322925 -0.04688,0.625008 -0.140625,0.90625 -0.09376,0.276049 -0.236986,0.526049 -0.429687,0.75 -0.187507,0.218757 -0.429695,0.408861 -0.726563,0.570313 -0.296881,0.156256 -0.648443,0.273443 -1.054687,0.351562 l 0,0.03125 c 0.453119,0.05209 0.846348,0.156256 1.179687,0.3125 0.333327,0.151047 0.606764,0.341151 0.820313,0.570313 0.213534,0.229171 0.372388,0.489587 0.476562,0.78125 0.104159,0.286462 0.156242,0.591149 0.15625,0.914062" />
  </g>
</svg>
