<?xml version="1.0" encoding="UTF-8" standalone="no"?>
<!-- Created with Inkscape (http://www.inkscape.org/) -->

<svg
   xmlns:dc="http://purl.org/dc/elements/1.1/"
   xmlns:cc="http://creativecommons.org/ns#"
   xmlns:rdf="http://www.w3.org/1999/02/22-rdf-syntax-ns#"
   xmlns:svg="http://www.w3.org/2000/svg"
   xmlns="http://www.w3.org/2000/svg"
   xmlns:xlink="http://www.w3.org/1999/xlink"
   xmlns:sodipodi="http://sodipodi.sourceforge.net/DTD/sodipodi-0.dtd"
   xmlns:inkscape="http://www.inkscape.org/namespaces/inkscape"
   version="1.0"
   width="96"
   height="96"
   id="svg2408"
   inkscape:version="0.48.4 r9939"
   sodipodi:docname="gnome-panel-launcher.svg">
  <sodipodi:namedview
     pagecolor="#ffffff"
     bordercolor="#666666"
     borderopacity="1"
     objecttolerance="10"
     gridtolerance="10"
     guidetolerance="10"
     inkscape:pageopacity="0"
     inkscape:pageshadow="2"
     inkscape:window-width="640"
     inkscape:window-height="480"
     id="namedview114"
     showgrid="false"
     inkscape:zoom="2.4583333"
     inkscape:cx="48"
     inkscape:cy="48"
     inkscape:window-x="526"
     inkscape:window-y="208"
     inkscape:window-maximized="0"
     inkscape:current-layer="layer4" />
  <defs
     id="defs2410">
    <linearGradient
       id="linearGradient3798">
      <stop
         id="stop3800"
         style="stop-color:#333333;stop-opacity:1"
         offset="0" />
      <stop
         id="stop3802"
         style="stop-color:#333333;stop-opacity:0"
         offset="1" />
    </linearGradient>
    <linearGradient
       id="linearGradient3865">
      <stop
         id="stop3867"
         style="stop-color:#ff6565;stop-opacity:1"
         offset="0" />
      <stop
         id="stop3869"
         style="stop-color:#e90000;stop-opacity:1"
         offset="0.5" />
      <stop
         id="stop3871"
         style="stop-color:#ae0000;stop-opacity:1"
         offset="0.81904298" />
      <stop
         id="stop3873"
         style="stop-color:#7f0000;stop-opacity:1"
         offset="1" />
    </linearGradient>
    <linearGradient
       id="linearGradient3809">
      <stop
         id="stop3811"
         style="stop-color:#ffd0d0;stop-opacity:1"
         offset="0" />
      <stop
         id="stop3817"
         style="stop-color:#f90000;stop-opacity:1"
         offset="0.5" />
      <stop
         id="stop3833"
         style="stop-color:#ae0000;stop-opacity:1"
         offset="0.81904298" />
      <stop
         id="stop3813"
         style="stop-color:#860000;stop-opacity:1"
         offset="1" />
    </linearGradient>
    <linearGradient
       id="linearGradient3777">
      <stop
         id="stop3779"
         style="stop-color:#ffffff;stop-opacity:1"
         offset="0" />
      <stop
         id="stop3781"
         style="stop-color:#ffffff;stop-opacity:0"
         offset="1" />
    </linearGradient>
    <linearGradient
       id="linearGradient3769">
      <stop
         id="stop3771"
         style="stop-color:#ffffff;stop-opacity:1"
         offset="0" />
      <stop
         id="stop3773"
         style="stop-color:#ffffff;stop-opacity:0"
         offset="1" />
    </linearGradient>
    <linearGradient
       id="linearGradient3722">
      <stop
         id="stop3730"
         style="stop-color:#ffffff;stop-opacity:1"
         offset="0" />
      <stop
         id="stop3726"
         style="stop-color:#d1b3b3;stop-opacity:1"
         offset="1" />
    </linearGradient>
    <linearGradient
       id="linearGradient3708">
      <stop
         id="stop3710"
         style="stop-color:#d40000;stop-opacity:1"
         offset="0" />
      <stop
         id="stop3720"
         style="stop-color:#e10000;stop-opacity:1"
         offset="0.5337981" />
      <stop
         id="stop3712"
         style="stop-color:#820000;stop-opacity:1"
         offset="1" />
    </linearGradient>
    <linearGradient
       x1="45.447727"
       y1="92.539597"
       x2="45.447727"
       y2="7.0165396"
       id="ButtonShadow"
       gradientUnits="userSpaceOnUse"
       gradientTransform="scale(1.0058652,0.994169)">
      <stop
         id="stop3750"
         style="stop-color:#000000;stop-opacity:1"
         offset="0" />
      <stop
         id="stop3752"
         style="stop-color:#000000;stop-opacity:0.58823532"
         offset="1" />
    </linearGradient>
    <linearGradient
       id="linearGradient3737">
      <stop
         id="stop3739"
         style="stop-color:#ffffff;stop-opacity:1"
         offset="0" />
      <stop
         id="stop3741"
         style="stop-color:#ffffff;stop-opacity:0"
         offset="1" />
    </linearGradient>
    <linearGradient
       id="linearGradient3700">
      <stop
         id="stop3702"
         style="stop-color:#c8c8c8;stop-opacity:1"
         offset="0" />
      <stop
         id="stop3704"
         style="stop-color:#e6e6e6;stop-opacity:1"
         offset="1" />
    </linearGradient>
    <filter
       color-interpolation-filters="sRGB"
       id="filter3174">
      <feGaussianBlur
         id="feGaussianBlur3176"
         stdDeviation="1.71" />
    </filter>
    <linearGradient
       x1="36.357143"
       y1="6"
       x2="36.357143"
       y2="63.893143"
       id="linearGradient3188"
       xlink:href="#linearGradient3737"
       gradientUnits="userSpaceOnUse" />
    <filter
       x="-0.192"
       y="-0.192"
       width="1.3839999"
       height="1.3839999"
       color-interpolation-filters="sRGB"
       id="filter3794">
      <feGaussianBlur
         id="feGaussianBlur3796"
         stdDeviation="5.28" />
    </filter>
    <linearGradient
       x1="48"
       y1="20.220806"
       x2="48"
       y2="138.66119"
       id="linearGradient3613"
       xlink:href="#linearGradient3737"
       gradientUnits="userSpaceOnUse" />
    <radialGradient
       cx="48"
       cy="90.171875"
       r="42"
       fx="48"
       fy="90.171875"
       id="radialGradient3619"
       xlink:href="#linearGradient3737"
       gradientUnits="userSpaceOnUse"
       gradientTransform="matrix(1.1573129,0,0,0.99590774,-7.5510206,0.19713193)" />
    <clipPath
       id="clipPath3613">
      <rect
         width="84"
         height="84"
         rx="6"
         ry="6"
         x="6"
         y="6"
         id="rect3615"
         style="fill:#ffffff;fill-opacity:1;fill-rule:nonzero;stroke:none" />
    </clipPath>
    <linearGradient
       x1="48"
       y1="90"
       x2="48"
       y2="5.9877172"
       id="linearGradient3617"
       xlink:href="#linearGradient3700"
       gradientUnits="userSpaceOnUse" />
    <linearGradient
       x1="45.447727"
       y1="92.539597"
       x2="45.447727"
       y2="7.0165396"
       id="ButtonShadow-0"
       gradientUnits="userSpaceOnUse"
       gradientTransform="matrix(1.0058652,0,0,0.994169,100,0)">
      <stop
         id="stop3750-8"
         style="stop-color:#000000;stop-opacity:1"
         offset="0" />
      <stop
         id="stop3752-5"
         style="stop-color:#000000;stop-opacity:0.58823532"
         offset="1" />
    </linearGradient>
    <linearGradient
       x1="32.251034"
       y1="6.1317081"
       x2="32.251034"
       y2="90.238609"
       id="linearGradient3780"
       xlink:href="#ButtonShadow-0"
       gradientUnits="userSpaceOnUse"
       gradientTransform="matrix(1.0238095,0,0,1.0119048,-1.1428571,-98.071429)" />
    <linearGradient
       x1="32.251034"
       y1="6.1317081"
       x2="32.251034"
       y2="90.238609"
       id="linearGradient3772"
       xlink:href="#ButtonShadow-0"
       gradientUnits="userSpaceOnUse"
       gradientTransform="matrix(1.0238095,0,0,1.0119048,-1.1428571,-98.071429)" />
    <linearGradient
       x1="32.251034"
       y1="6.1317081"
       x2="32.251034"
       y2="90.238609"
       id="linearGradient3725"
       xlink:href="#ButtonShadow-0"
       gradientUnits="userSpaceOnUse"
       gradientTransform="matrix(1.0238095,0,0,1.0119048,-1.1428571,-98.071429)" />
    <linearGradient
       x1="32.251034"
       y1="6.1317081"
       x2="32.251034"
       y2="90.238609"
       id="linearGradient3721"
       xlink:href="#ButtonShadow-0"
       gradientUnits="userSpaceOnUse"
       gradientTransform="translate(0,-97)" />
    <linearGradient
       x1="32.251034"
       y1="6.1317081"
       x2="32.251034"
       y2="90.238609"
       id="linearGradient3026"
       xlink:href="#ButtonShadow-0"
       gradientUnits="userSpaceOnUse"
       gradientTransform="matrix(1.0238095,0,0,1.0119048,-1.1428571,-98.071429)" />
    <linearGradient
       x1="39.574169"
       y1="44"
       x2="56.425831"
       y2="44"
       id="linearGradient3728"
       xlink:href="#linearGradient3722"
       gradientUnits="userSpaceOnUse" />
    <linearGradient
       x1="39.561707"
       y1="43"
       x2="56.438293"
       y2="43"
       id="linearGradient3762"
       xlink:href="#linearGradient3708"
       gradientUnits="userSpaceOnUse" />
    <linearGradient
       x1="46.681881"
       y1="16.204491"
       x2="46.681881"
       y2="80.960716"
       id="linearGradient3775"
       xlink:href="#linearGradient3769"
       gradientUnits="userSpaceOnUse" />
    <linearGradient
       x1="47.287281"
       y1="16.204491"
       x2="46.531647"
       y2="80.963791"
       id="linearGradient3783"
       xlink:href="#linearGradient3777"
       gradientUnits="userSpaceOnUse" />
    <linearGradient
       x1="47.287281"
       y1="16.204491"
       x2="46.531647"
       y2="80.963791"
       id="linearGradient3787"
       xlink:href="#linearGradient3777"
       gradientUnits="userSpaceOnUse"
       gradientTransform="matrix(1.6385313,0,0,1,-29.053173,0)" />
    <radialGradient
       cx="35"
       cy="74"
       r="4"
       fx="35"
       fy="74"
       id="radialGradient3815"
       xlink:href="#linearGradient3809"
       gradientUnits="userSpaceOnUse" />
    <radialGradient
       cx="35.702923"
       cy="74"
       r="4"
       fx="35.702923"
       fy="74"
       id="radialGradient3875"
       xlink:href="#linearGradient3865"
       gradientUnits="userSpaceOnUse" />
    <linearGradient
       x1="75.572937"
       y1="39.725887"
       x2="75.572937"
       y2="62.844799"
       id="linearGradient3804"
       xlink:href="#linearGradient3798"
       gradientUnits="userSpaceOnUse" />
    <linearGradient
       x1="34.266994"
       y1="51.415974"
       x2="34.266994"
       y2="81.919426"
       id="linearGradient3812"
       xlink:href="#linearGradient3798"
       gradientUnits="userSpaceOnUse" />
    <linearGradient
       x1="52.47665"
       y1="61.188122"
       x2="52.47665"
       y2="81.96537"
       id="linearGradient3820"
       xlink:href="#linearGradient3798"
       gradientUnits="userSpaceOnUse" />
    <linearGradient
       x1="21.102879"
       y1="35.763649"
       x2="21.102879"
       y2="57.41111"
       id="linearGradient3828"
       xlink:href="#linearGradient3798"
       gradientUnits="userSpaceOnUse" />
    <linearGradient
       inkscape:collect="always"
       xlink:href="#linearGradient3769"
       id="linearGradient3091"
       gradientUnits="userSpaceOnUse"
       x1="46.681881"
       y1="16.204491"
       x2="46.681881"
       y2="80.960716" />
    <linearGradient
       gradientUnits="userSpaceOnUse"
       xlink:href="#linearGradient3798-7"
       id="linearGradient3828-0"
       y2="57.41111"
       x2="21.102879"
       y1="35.763649"
       x1="21.102879" />
    <linearGradient
       gradientUnits="userSpaceOnUse"
       xlink:href="#linearGradient3798-7"
       id="linearGradient3820-7"
       y2="81.96537"
       x2="52.47665"
       y1="61.188122"
       x1="52.47665" />
    <linearGradient
       gradientUnits="userSpaceOnUse"
       xlink:href="#linearGradient3798-7"
       id="linearGradient3812-1"
       y2="81.919426"
       x2="34.266994"
       y1="51.415974"
       x1="34.266994" />
    <linearGradient
       gradientUnits="userSpaceOnUse"
       xlink:href="#linearGradient3798-7"
       id="linearGradient3804-4"
       y2="62.844799"
       x2="75.572937"
       y1="39.725887"
       x1="75.572937" />
    <radialGradient
       gradientUnits="userSpaceOnUse"
       xlink:href="#linearGradient3865-4"
       id="radialGradient3875-0"
       fy="74"
       fx="35.702923"
       r="4"
       cy="74"
       cx="35.702923" />
    <radialGradient
       gradientUnits="userSpaceOnUse"
       xlink:href="#linearGradient3809-9"
       id="radialGradient3815-4"
       fy="74"
       fx="35"
       r="4"
       cy="74"
       cx="35" />
    <linearGradient
       gradientTransform="matrix(1.6385313,0,0,1,-29.053173,0)"
       gradientUnits="userSpaceOnUse"
       xlink:href="#linearGradient3777-4"
       id="linearGradient3787-6"
       y2="80.963791"
       x2="46.531647"
       y1="16.204491"
       x1="47.287281" />
    <linearGradient
       gradientUnits="userSpaceOnUse"
       xlink:href="#linearGradient3777-4"
       id="linearGradient3783-5"
       y2="80.963791"
       x2="46.531647"
       y1="16.204491"
       x1="47.287281" />
    <linearGradient
       gradientUnits="userSpaceOnUse"
       xlink:href="#linearGradient3769-3"
       id="linearGradient3775-7"
       y2="80.960716"
       x2="46.681881"
       y1="16.204491"
       x1="46.681881" />
    <linearGradient
       gradientUnits="userSpaceOnUse"
       xlink:href="#linearGradient3708-8"
       id="linearGradient3762-7"
       y2="43"
       x2="56.438293"
       y1="43"
       x1="39.561707" />
    <linearGradient
       gradientUnits="userSpaceOnUse"
       xlink:href="#linearGradient3722-6"
       id="linearGradient3728-0"
       y2="44"
       x2="56.425831"
       y1="44"
       x1="39.574169" />
    <linearGradient
       gradientTransform="matrix(1.0238095,0,0,1.0119048,-1.1428571,-98.071429)"
       gradientUnits="userSpaceOnUse"
       xlink:href="#ButtonShadow-0-9"
       id="linearGradient3026-6"
       y2="90.238609"
       x2="32.251034"
       y1="6.1317081"
       x1="32.251034" />
    <linearGradient
       gradientTransform="translate(0,-97)"
       gradientUnits="userSpaceOnUse"
       xlink:href="#ButtonShadow-0-9"
       id="linearGradient3721-0"
       y2="90.238609"
       x2="32.251034"
       y1="6.1317081"
       x1="32.251034" />
    <linearGradient
       gradientTransform="matrix(1.0238095,0,0,1.0119048,-1.1428571,-98.071429)"
       gradientUnits="userSpaceOnUse"
       xlink:href="#ButtonShadow-0-9"
       id="linearGradient3725-9"
       y2="90.238609"
       x2="32.251034"
       y1="6.1317081"
       x1="32.251034" />
    <linearGradient
       gradientTransform="matrix(1.0238095,0,0,1.0119048,-1.1428571,-98.071429)"
       gradientUnits="userSpaceOnUse"
       xlink:href="#ButtonShadow-0-9"
       id="linearGradient3772-6"
       y2="90.238609"
       x2="32.251034"
       y1="6.1317081"
       x1="32.251034" />
    <linearGradient
       gradientTransform="matrix(1.0238095,0,0,1.0119048,-1.1428571,-98.071429)"
       gradientUnits="userSpaceOnUse"
       xlink:href="#ButtonShadow-0-9"
       id="linearGradient3780-0"
       y2="90.238609"
       x2="32.251034"
       y1="6.1317081"
       x1="32.251034" />
    <linearGradient
       gradientTransform="matrix(1.0058652,0,0,0.994169,100,0)"
       gradientUnits="userSpaceOnUse"
       id="ButtonShadow-0-9"
       y2="7.0165396"
       x2="45.447727"
       y1="92.539597"
       x1="45.447727">
      <stop
         offset="0"
         style="stop-color:#000000;stop-opacity:1"
         id="stop3750-8-8" />
      <stop
         offset="1"
         style="stop-color:#000000;stop-opacity:0.58823532"
         id="stop3752-5-3" />
    </linearGradient>
    <linearGradient
       gradientUnits="userSpaceOnUse"
       xlink:href="#linearGradient3700-4"
       id="linearGradient3617-3"
       y2="5.9877172"
       x2="48"
       y1="90"
       x1="48" />
    <clipPath
       id="clipPath3613-1">
      <rect
         style="fill:#ffffff;fill-opacity:1;fill-rule:nonzero;stroke:none"
         id="rect3615-5"
         y="6"
         x="6"
         ry="6"
         rx="6"
         height="84"
         width="84" />
    </clipPath>
    <radialGradient
       gradientTransform="matrix(1.1573129,0,0,0.99590774,-7.5510206,0.19713193)"
       gradientUnits="userSpaceOnUse"
       xlink:href="#linearGradient3737-8"
       id="radialGradient3619-6"
       fy="90.171875"
       fx="48"
       r="42"
       cy="90.171875"
       cx="48" />
    <linearGradient
       gradientUnits="userSpaceOnUse"
       xlink:href="#linearGradient3737-8"
       id="linearGradient3613-1"
       y2="138.66119"
       x2="48"
       y1="20.220806"
       x1="48" />
    <filter
       id="filter3794-9"
       color-interpolation-filters="sRGB"
       height="1.3839999"
       width="1.3839999"
       y="-0.192"
       x="-0.192">
      <feGaussianBlur
         stdDeviation="5.28"
         id="feGaussianBlur3796-5" />
    </filter>
    <linearGradient
       gradientUnits="userSpaceOnUse"
       xlink:href="#linearGradient3737-8"
       id="linearGradient3188-5"
       y2="63.893143"
       x2="36.357143"
       y1="6"
       x1="36.357143" />
    <filter
       id="filter3174-9"
       color-interpolation-filters="sRGB">
      <feGaussianBlur
         stdDeviation="1.71"
         id="feGaussianBlur3176-6" />
    </filter>
    <linearGradient
       id="linearGradient3700-4">
      <stop
         offset="0"
         style="stop-color:#c8c8c8;stop-opacity:1"
         id="stop3702-1" />
      <stop
         offset="1"
         style="stop-color:#e6e6e6;stop-opacity:1"
         id="stop3704-1" />
    </linearGradient>
    <linearGradient
       id="linearGradient3737-8">
      <stop
         offset="0"
         style="stop-color:#ffffff;stop-opacity:1"
         id="stop3739-4" />
      <stop
         offset="1"
         style="stop-color:#ffffff;stop-opacity:0"
         id="stop3741-7" />
    </linearGradient>
    <linearGradient
       gradientTransform="scale(1.0058652,0.994169)"
       gradientUnits="userSpaceOnUse"
       id="ButtonShadow-5"
       y2="7.0165396"
       x2="45.447727"
       y1="92.539597"
       x1="45.447727">
      <stop
         offset="0"
         style="stop-color:#000000;stop-opacity:1"
         id="stop3750-7" />
      <stop
         offset="1"
         style="stop-color:#000000;stop-opacity:0.58823532"
         id="stop3752-52" />
    </linearGradient>
    <linearGradient
       id="linearGradient3708-8">
      <stop
         offset="0"
         style="stop-color:#d40000;stop-opacity:1"
         id="stop3710-1" />
      <stop
         offset="0.5337981"
         style="stop-color:#e10000;stop-opacity:1"
         id="stop3720-4" />
      <stop
         offset="1"
         style="stop-color:#820000;stop-opacity:1"
         id="stop3712-0" />
    </linearGradient>
    <linearGradient
       id="linearGradient3722-6">
      <stop
         offset="0"
         style="stop-color:#ffffff;stop-opacity:1"
         id="stop3730-4" />
      <stop
         offset="1"
         style="stop-color:#d1b3b3;stop-opacity:1"
         id="stop3726-0" />
    </linearGradient>
    <linearGradient
       id="linearGradient3769-3">
      <stop
         offset="0"
         style="stop-color:#ffffff;stop-opacity:1"
         id="stop3771-7" />
      <stop
         offset="1"
         style="stop-color:#ffffff;stop-opacity:0"
         id="stop3773-1" />
    </linearGradient>
    <linearGradient
       id="linearGradient3777-4">
      <stop
         offset="0"
         style="stop-color:#ffffff;stop-opacity:1"
         id="stop3779-5" />
      <stop
         offset="1"
         style="stop-color:#ffffff;stop-opacity:0"
         id="stop3781-5" />
    </linearGradient>
    <linearGradient
       id="linearGradient3809-9">
      <stop
         offset="0"
         style="stop-color:#ffd0d0;stop-opacity:1"
         id="stop3811-6" />
      <stop
         offset="0.5"
         style="stop-color:#f90000;stop-opacity:1"
         id="stop3817-4" />
      <stop
         offset="0.81904298"
         style="stop-color:#ae0000;stop-opacity:1"
         id="stop3833-5" />
      <stop
         offset="1"
         style="stop-color:#860000;stop-opacity:1"
         id="stop3813-6" />
    </linearGradient>
    <linearGradient
       id="linearGradient3865-4">
      <stop
         offset="0"
         style="stop-color:#ff6565;stop-opacity:1"
         id="stop3867-3" />
      <stop
         offset="0.5"
         style="stop-color:#e90000;stop-opacity:1"
         id="stop3869-3" />
      <stop
         offset="0.81904298"
         style="stop-color:#ae0000;stop-opacity:1"
         id="stop3871-5" />
      <stop
         offset="1"
         style="stop-color:#7f0000;stop-opacity:1"
         id="stop3873-2" />
    </linearGradient>
    <linearGradient
       id="linearGradient3798-7">
      <stop
         offset="0"
         style="stop-color:#333333;stop-opacity:1"
         id="stop3800-3" />
      <stop
         offset="1"
         style="stop-color:#333333;stop-opacity:0"
         id="stop3802-6" />
    </linearGradient>
    <linearGradient
       inkscape:collect="always"
       xlink:href="#linearGradient3769-3"
       id="linearGradient4088"
       gradientUnits="userSpaceOnUse"
       x1="46.681881"
       y1="16.204491"
       x2="46.681881"
       y2="80.960716" />
    <linearGradient
       inkscape:collect="always"
       xlink:href="#linearGradient3737-8"
       id="linearGradient4135"
       gradientUnits="userSpaceOnUse"
       x1="48"
       y1="20.220806"
       x2="48"
       y2="138.66119" />
  </defs>
  <metadata
     id="metadata2413">
    <rdf:RDF>
      <cc:Work
         rdf:about="">
        <dc:format>image/svg+xml</dc:format>
        <dc:type
           rdf:resource="http://purl.org/dc/dcmitype/StillImage" />
        <dc:title />
      </cc:Work>
    </rdf:RDF>
  </metadata>
  <g
     id="layer2"
     style="display:none">
    <rect
       width="86"
       height="85"
       rx="6"
       ry="6"
       x="5"
       y="7"
       id="rect3745"
       style="opacity:0.9;fill:url(#ButtonShadow);fill-opacity:1;fill-rule:nonzero;stroke:none;filter:url(#filter3174)" />
  </g>
  <g
     id="layer4"
     transform="translate(-96,-12.20339)">
    <rect
       style="fill:#e10000;fill-opacity:1;stroke:none"
       id="rect3093"
       width="96"
       height="96"
       x="96"
       y="12.20339"
       rx="0"
       ry="0" />
    <g
       id="layer2-0"
       style="display:none"
       transform="translate(-37.371557,20.872881)">
      <rect
         width="86"
         height="85"
         rx="6"
         ry="6"
         x="5"
         y="7"
         id="rect3745-0"
         style="opacity:0.9;fill:url(#ButtonShadow-5);fill-opacity:1;fill-rule:nonzero;stroke:none;filter:url(#filter3174-9)" />
    </g>
    <path
       style="color:#000000;fill:#e10000;fill-opacity:1;fill-rule:nonzero;stroke:#ffffff;stroke-width:1.13001704;stroke-opacity:1;marker:none;visibility:visible;display:inline;overflow:visible;enable-background:accumulate"
       id="path2936"
       inkscape:connector-curvature="0"
       d="m 106.81357,56.056534 c -5.31007,0 -9.614741,3.805523 -9.614741,8.499875 0,3.227367 2.035559,6.031232 5.032721,7.470594 -0.37153,0.35587 -0.72454,0.71492 -1.01407,1.128888 -2.328597,0.271224 -4.497922,0.964886 -6.422335,1.99216 l 0,25.267209 c 2.511477,1.3439 5.451115,2.12497 8.600685,2.12497 5.31916,0 10.05154,-2.21765 13.10759,-5.644452 1.17733,0.539027 2.48862,0.830067 3.90599,0.830067 0.72628,0 1.42984,-0.08194 2.10321,-0.23242 -0.0232,0.238206 -0.0375,0.486953 -0.0375,0.73046 0,4.603255 4.21994,8.333855 9.42695,8.333855 4.94656,0 8.99592,-3.38645 9.38938,-7.669803 0.0127,1.03e-4 0.0248,0 0.0375,0 2.27432,0 4.13132,-1.641676 4.13132,-3.652291 0,-2.010613 -1.857,-3.619087 -4.13132,-3.619087 -0.99503,0 -1.87964,0.310721 -2.59148,0.830066 -0.0611,-0.05648 -0.12493,-0.111061 -0.18779,-0.166014 0.9172,-0.843702 1.50231,-1.991281 1.50231,-3.253858 0,-2.592633 -2.40049,-4.714775 -5.33317,-4.714775 -2.93269,0 -5.29562,2.122142 -5.29562,4.714775 0,0.396824 0.083,0.760843 0.18779,1.128889 -0.20729,0.04604 -0.4369,0.07486 -0.63849,0.132812 8.3e-4,-0.04331 0,-0.08934 0,-0.132812 0,-3.134969 -2.14776,-5.823593 -5.2205,-6.972553 -0.3374,-2.559483 -2.37497,-4.674156 -5.07027,-5.445233 2.77396,-0.405838 4.88249,-2.545857 4.88249,-5.113206 0,-2.857188 -2.62703,-5.146409 -5.85897,-5.146409 -0.70174,0 -1.36708,0.131809 -1.99057,0.332026 0.46657,-0.998971 0.71359,-2.105943 0.71359,-3.253858 0,-4.694352 -4.30465,-8.499875 -9.61472,-8.499875 z m 78.83333,17.929424 c -2.67817,0 -4.97043,1.395553 -6.00922,3.419872 -1.2051,-0.354406 -2.49112,-0.564445 -3.83087,-0.564445 -1.83979,0 -3.5829,0.381642 -5.14538,1.029281 -0.43191,-1.25837 -1.74056,-2.158171 -3.30508,-2.158171 -1.91521,0 -3.49284,1.361495 -3.49284,3.054644 0,1.201076 0.81519,2.219703 1.95299,2.722614 -1.00926,1.289211 -1.69964,2.768625 -1.99055,4.382749 -3.03872,0.03885 -5.73008,1.236138 -7.58664,3.121049 -0.37208,-0.04368 -0.74111,-0.06641 -1.12672,-0.06641 -4.72821,0 -8.56312,3.390242 -8.56312,7.570202 0,4.179957 3.83491,7.570187 8.56312,7.570187 1.53764,0 2.95919,-0.36865 4.20646,-0.99608 1.20431,0.54482 2.52256,0.87655 3.94353,0.96288 -0.89587,1.57095 -1.48829,3.31465 -1.69008,5.1464 l 26.96633,0 c 3.99492,0 7.21104,-2.8432 7.21104,-6.37489 l 0,-24.636353 c -0.81558,-0.354961 -1.73403,-0.564445 -2.70414,-0.564445 -0.41428,0 -0.84798,0.06406 -1.23939,0.13281 -0.94803,-2.20109 -3.33687,-3.751898 -6.15944,-3.751898 z m -60.01699,2.490198 c -1.49628,0 -2.70414,1.067818 -2.70414,2.39059 0,1.322771 1.20786,2.39059 2.70414,2.39059 1.49627,0 2.70414,-1.067819 2.70414,-2.39059 0,-1.322772 -1.20787,-2.39059 -2.70414,-2.39059 z" />
    <path
       style="color:#000000;fill:#e10000;fill-opacity:1;fill-rule:nonzero;stroke:#ffffff;stroke-width:1.09534669;stroke-opacity:1;marker:none;visibility:visible;display:inline;overflow:visible;enable-background:accumulate"
       id="path2973"
       inkscape:connector-curvature="0"
       d="m 109.06126,76.695448 c -1.42026,0 -2.57088,1.147353 -2.57088,2.563567 0,1.416214 1.15062,2.563568 2.57088,2.563568 1.42025,0 2.57087,-1.147354 2.57087,-2.563568 0,-1.416214 -1.15062,-2.563567 -2.57087,-2.563567 z m 9.4951,2.563567 c -0.76476,0 -1.37114,0.604658 -1.37114,1.367236 0,0.762577 0.60638,1.401416 1.37114,1.401416 0.76475,0 1.40541,-0.638839 1.40541,-1.401416 0,-0.762578 -0.64066,-1.367236 -1.40541,-1.367236 z m 59.43864,1.572322 c -2.13037,0 -3.83917,1.738119 -3.83917,3.862441 0,0.379344 0.0687,0.713433 0.17139,1.059607 -2.27358,0.544413 -4.07967,2.272969 -4.69613,4.51188 -0.90338,-0.352017 -1.88526,-0.546895 -2.91366,-0.546895 -4.24012,0 -7.67046,3.294714 -7.95258,7.451436 -0.44801,-1.570215 -1.88085,-2.734473 -3.59923,-2.734473 -0.51893,0 -1.02431,0.117984 -1.47395,0.307629 -0.70788,-0.663297 -1.6257,-1.09379 -2.67372,-1.09379 -1.78132,0 -3.27482,1.188507 -3.77062,2.802834 -0.46814,-1.290294 -1.69811,-2.187577 -3.1536,-2.187577 -1.37572,0 -2.56422,0.802666 -3.08506,1.982492 -0.99203,-1.322734 -2.56949,-2.187578 -4.35334,-2.187578 -0.76764,0 -1.49732,0.15831 -2.15954,0.444352 0.0597,-0.3731 0.10278,-0.738062 0.10278,-1.12797 0,-3.976294 -3.24511,-7.212168 -7.23273,-7.212168 -0.65249,0 -1.2841,0.07749 -1.88531,0.239266 1.1e-4,-0.01174 0,-0.02243 0,-0.03418 0,-2.178792 -1.75701,-3.964984 -3.94201,-3.964984 -1.69029,0 -3.13542,1.076284 -3.70207,2.563567 -1.0523,-1.654072 -2.8948,-2.768653 -5.00463,-2.768653 -3.2775,0 -5.93016,2.679287 -5.93016,5.947477 0,0.363685 0.0397,0.714046 0.10279,1.059607 -2.35991,2.129531 -3.87346,5.155734 -3.87346,8.579405 0,5.084718 3.28752,9.417278 7.84974,11.006238 l 7.67836,0 c 3.73534,-1.30056 6.59605,-4.44346 7.50695,-8.34013 0.39254,0.0659 0.78842,0.10254 1.19974,0.10254 1.42647,0 2.75363,-0.41608 3.87345,-1.12797 -8e-5,0.01174 0,0.02248 0,0.03418 0,2.99583 2.41161,5.43476 5.41599,5.43476 2.74116,0 5.0054,-2.01894 5.38169,-4.6486 0.56829,0.43806 1.28285,0.7178 2.05671,0.7178 1.45549,0 2.68546,-0.93146 3.1536,-2.221759 0.49102,1.622089 1.98374,2.802829 3.77062,2.802829 0.64656,0 1.24356,-0.17012 1.78248,-0.44435 0.64415,0.51653 1.47428,0.85453 2.36519,0.85453 1.80487,0 3.305,-1.282 3.66779,-2.973741 0.61582,3.801791 3.8976,6.699441 7.88402,6.699441 2.26397,0 4.33602,-0.92124 5.79304,-2.42684 0.3911,2.25707 1.63624,4.20909 3.39356,5.53731 l 10.76339,0 c 1.51978,-1.15638 2.66357,-2.79134 3.18789,-4.68278 0.0352,3.7e-4 0.0675,0 0.10277,0 1.47222,0 2.85622,-0.34962 4.11342,-0.92289 0.0446,-0.30973 0.0685,-0.63462 0.0685,-0.95706 l 0,-16.91954 c -0.98894,-0.462704 -2.05369,-0.77769 -3.18789,-0.888704 0.003,-0.04654 0,-0.0894 0,-0.136725 0,-1.143864 -0.90955,-2.085034 -2.0567,-2.085034 -1.14713,0 -2.09098,0.94117 -2.09098,2.085034 0,0.214476 0.0422,0.420696 0.10278,0.615258 -2.23533,0.730865 -4.13229,2.210294 -5.34742,4.170069 -0.27853,-0.542236 -0.64743,-1.030732 -1.06262,-1.469779 0.83065,-0.705519 1.37112,-1.73207 1.37112,-2.905376 0,-2.124322 -1.74306,-3.862441 -3.87345,-3.862441 z" />
    <path
       style="opacity:1;color:#000000;fill:#e10000;fill-opacity:1;fill-rule:nonzero;stroke:#ffffff;stroke-width:1;stroke-opacity:1;marker:none;visibility:visible;display:inline;overflow:visible;enable-background:accumulate"
       id="path3006"
       inkscape:connector-curvature="0"
       d="m 122.92717,51.585275 c -1.79277,0 -3.25,1.457229 -3.25,3.25 0,1.302788 0.76751,2.389418 1.875,2.90625 -1.68199,1.153635 -2.78125,3.08758 -2.78125,5.28125 0,0.605702 0.0928,1.194634 0.25,1.75 -0.53517,-0.222655 -1.11012,-0.377315 -1.71875,-0.40625 0.006,-0.08322 0.0312,-0.165281 0.0312,-0.25 0,-1.942169 -1.58908,-3.53125 -3.53125,-3.53125 -1.94217,0 -3.5,1.589081 -3.5,3.53125 0,1.441517 0.88372,2.675793 2.125,3.21875 -0.31432,0.665193 -0.5,1.402959 -0.5,2.1875 0,2.838555 2.28645,5.125 5.125,5.125 2.83856,0 5.15625,-2.286445 5.15625,-5.125 0,-0.299253 -0.0447,-0.58976 -0.0937,-0.875 0.90713,0.49278 1.95758,0.78125 3.0625,0.78125 3.53575,0 6.40625,-2.870506 6.40625,-6.40625 0,-3.388254 -2.63768,-6.149511 -5.96875,-6.375 0.35001,-0.518081 0.5625,-1.140211 0.5625,-1.8125 0,-1.792771 -1.45723,-3.25 -3.25,-3.25 z" />
    <path
       style="opacity:1;color:#000000;fill:#e10000;fill-opacity:1;fill-rule:nonzero;stroke:#ffffff;stroke-width:1;stroke-opacity:1;marker:none;visibility:visible;display:inline;overflow:visible;enable-background:accumulate"
       id="path3015"
       inkscape:connector-curvature="0"
       d="m 168.08342,55.710275 c -1.04578,0 -1.875,0.860467 -1.875,1.90625 0,1.045783 0.82922,1.90625 1.875,1.90625 1.04579,0 1.90625,-0.860467 1.90625,-1.90625 0,-1.045783 -0.86046,-1.90625 -1.90625,-1.90625 z m -3.59375,6.15625 c -2.44016,0 -4.40625,1.966089 -4.40625,4.40625 0,2.440161 1.96609,4.40625 4.40625,4.40625 0.0628,0 0.12533,0.0026 0.1875,0 -0.40806,0.974481 -0.625,2.033664 -0.625,3.15625 0,4.531728 3.65577,8.21875 8.1875,8.21875 3.87775,0 7.11163,-2.696841 7.96875,-6.3125 2.53048,-0.06771 4.5625,-2.140673 4.5625,-4.6875 0,-2.589559 -2.09794,-4.6875 -4.6875,-4.6875 -0.32369,0 -0.63227,0.03129 -0.9375,0.09375 0.14146,-0.364275 0.21875,-0.77323 0.21875,-1.1875 0,-1.792771 -1.45723,-3.25 -3.25,-3.25 -1.79277,0 -3.25,1.457229 -3.25,3.25 0,0.138487 0.0144,0.272328 0.0312,0.40625 -0.21599,-0.01705 -0.43587,-0.03125 -0.65625,-0.03125 -1.19742,0 -2.31808,0.288964 -3.34375,0.75 0.001,-0.04159 0,-0.08313 0,-0.125 0,-2.440161 -1.96609,-4.40625 -4.40625,-4.40625 z" />
    <path
       d="m 147.22034,21.288136 c 0,0 -12.08535,16.915254 -7.69068,42.288136 l 2.56356,14.800847 10.25424,0 2.56356,-14.800847 C 159.3057,38.20339 147.22034,21.288136 147.22034,21.288136 z"
       inkscape:connector-curvature="0"
       id="path3671"
       style="fill:#ffffff;stroke:none" />
    <path
       d="m 140.04237,63.576272 c 0,0 -9.11889,8.339675 -9.22881,21.144067 0,2.33551 1.83639,4.228814 4.10169,4.228814 2.26531,0 4.1017,-1.893304 4.1017,-4.228814 -1.5387,-14.844034 3.07627,-14.800847 3.07627,-14.800847 l -2.05085,-6.34322 z"
       inkscape:connector-curvature="0"
       id="path3673"
       style="color:#000000;fill:#ffffff;fill-opacity:1;fill-rule:nonzero;stroke:none;stroke-width:1;marker:none;visibility:visible;display:inline;overflow:visible;enable-background:accumulate" />
    <path
       d="m 154.39831,63.576272 -2.05085,6.34322 c 0,0 4.61497,-0.04319 3.07627,14.800847 0,2.33551 1.83639,4.228814 4.10169,4.228814 2.26531,0 4.1017,-1.893304 4.1017,-4.228814 -0.10991,-12.804392 -9.22881,-21.144067 -9.22881,-21.144067 z"
       inkscape:connector-curvature="0"
       id="path3675"
       style="fill:#ffffff;stroke:none" />
    <path
       d="m 143.11864,38.20339 0,6.343221 8.20339,0 0,-6.343221 -8.20339,0 z m 8.20339,6.343221 0,6.34322 7.17797,0 0,-6.34322 -7.17797,0 z m 0,6.34322 -8.20339,0 0,6.34322 8.20339,0 0,-6.34322 z m 0,6.34322 0,6.343221 7.17797,0 0,-6.343221 -7.17797,0 z m -8.20339,0 -7.17796,0 0,6.343221 7.17796,0 0,-6.343221 z m 0,-6.34322 0,-6.34322 -7.17796,0 0,6.34322 7.17796,0 z"
       inkscape:connector-curvature="0"
       id="rect3681"
       style="color:#000000;fill:#e10000;fill-opacity:1;fill-rule:nonzero;stroke:none;stroke-width:1;marker:none;visibility:visible;display:inline;overflow:visible;enable-background:accumulate" />
  </g>
</svg>
