<?xml version="1.0" encoding="UTF-8" standalone="no"?>
<!-- Created with Inkscape (http://www.inkscape.org/) -->

<svg
   xmlns:dc="http://purl.org/dc/elements/1.1/"
   xmlns:cc="http://creativecommons.org/ns#"
   xmlns:rdf="http://www.w3.org/1999/02/22-rdf-syntax-ns#"
   xmlns:svg="http://www.w3.org/2000/svg"
   xmlns="http://www.w3.org/2000/svg"
   xmlns:xlink="http://www.w3.org/1999/xlink"
   xmlns:sodipodi="http://sodipodi.sourceforge.net/DTD/sodipodi-0.dtd"
   xmlns:inkscape="http://www.inkscape.org/namespaces/inkscape"
   version="1.0"
   width="96"
   height="96"
   id="svg2408"
   inkscape:version="0.48.4 r9939"
   sodipodi:docname="gnome-mahjongg.svg">
  <sodipodi:namedview
     pagecolor="#ffffff"
     bordercolor="#666666"
     borderopacity="1"
     objecttolerance="10"
     gridtolerance="10"
     guidetolerance="10"
     inkscape:pageopacity="0"
     inkscape:pageshadow="2"
     inkscape:window-width="640"
     inkscape:window-height="480"
     id="namedview113"
     showgrid="false"
     inkscape:zoom="2.4583333"
     inkscape:cx="-33.966102"
     inkscape:cy="113.08475"
     inkscape:window-x="626"
     inkscape:window-y="126"
     inkscape:window-maximized="0"
     inkscape:current-layer="svg2408" />
  <defs
     id="defs2410">
    <linearGradient
       id="linearGradient3738">
      <stop
         id="stop3740"
         style="stop-color:#a27a47;stop-opacity:1"
         offset="0" />
      <stop
         id="stop3742"
         style="stop-color:#d5aa65;stop-opacity:1"
         offset="1" />
    </linearGradient>
    <linearGradient
       id="linearGradient3709">
      <stop
         id="stop3711"
         style="stop-color:#d9bf83;stop-opacity:1"
         offset="0" />
      <stop
         id="stop3713"
         style="stop-color:#ebe5bd;stop-opacity:1"
         offset="1" />
    </linearGradient>
    <linearGradient
       x1="45.447727"
       y1="92.539597"
       x2="45.447727"
       y2="7.0165396"
       id="ButtonShadow"
       gradientUnits="userSpaceOnUse"
       gradientTransform="scale(1.0058652,0.994169)">
      <stop
         id="stop3750"
         style="stop-color:#000000;stop-opacity:1"
         offset="0" />
      <stop
         id="stop3752"
         style="stop-color:#000000;stop-opacity:0.58823532"
         offset="1" />
    </linearGradient>
    <linearGradient
       id="linearGradient3737">
      <stop
         id="stop3739"
         style="stop-color:#ffffff;stop-opacity:1"
         offset="0" />
      <stop
         id="stop3741"
         style="stop-color:#ffffff;stop-opacity:0"
         offset="1" />
    </linearGradient>
    <linearGradient
       id="linearGradient3700">
      <stop
         id="stop3702"
         style="stop-color:#2276c5;stop-opacity:1"
         offset="0" />
      <stop
         id="stop3704"
         style="stop-color:#68baf4;stop-opacity:1"
         offset="1" />
    </linearGradient>
    <filter
       color-interpolation-filters="sRGB"
       id="filter3174">
      <feGaussianBlur
         id="feGaussianBlur3176"
         stdDeviation="1.71" />
    </filter>
    <linearGradient
       x1="36.357143"
       y1="6"
       x2="36.357143"
       y2="63.893143"
       id="linearGradient3188"
       xlink:href="#linearGradient3737"
       gradientUnits="userSpaceOnUse"
       gradientTransform="translate(100,0)" />
    <filter
       x="-0.192"
       y="-0.192"
       width="1.3839999"
       height="1.3839999"
       color-interpolation-filters="sRGB"
       id="filter3794">
      <feGaussianBlur
         id="feGaussianBlur3796"
         stdDeviation="5.28" />
    </filter>
    <linearGradient
       x1="48"
       y1="20.220806"
       x2="48"
       y2="138.66119"
       id="linearGradient3613"
       xlink:href="#linearGradient3737"
       gradientUnits="userSpaceOnUse" />
    <radialGradient
       cx="48"
       cy="90.171875"
       r="42"
       fx="48"
       fy="90.171875"
       id="radialGradient3619"
       xlink:href="#linearGradient3737"
       gradientUnits="userSpaceOnUse"
       gradientTransform="matrix(1.1573129,0,0,0.99590774,92.448979,0.19713193)" />
    <clipPath
       id="clipPath3613">
      <rect
         width="84"
         height="84"
         rx="6"
         ry="6"
         x="6"
         y="6"
         id="rect3615"
         style="fill:#ffffff;fill-opacity:1;fill-rule:nonzero;stroke:none" />
    </clipPath>
    <linearGradient
       x1="48"
       y1="90"
       x2="48"
       y2="5.9877172"
       id="linearGradient3617"
       xlink:href="#linearGradient3700"
       gradientUnits="userSpaceOnUse"
       gradientTransform="translate(100,0)" />
    <linearGradient
       x1="45.447727"
       y1="92.539597"
       x2="45.447727"
       y2="7.0165396"
       id="ButtonShadow-0"
       gradientUnits="userSpaceOnUse"
       gradientTransform="matrix(1.0058652,0,0,0.994169,100,0)">
      <stop
         id="stop3750-8"
         style="stop-color:#000000;stop-opacity:1"
         offset="0" />
      <stop
         id="stop3752-5"
         style="stop-color:#000000;stop-opacity:0.58823532"
         offset="1" />
    </linearGradient>
    <linearGradient
       x1="50"
       y1="91"
       x2="50"
       y2="7"
       id="linearGradient3789"
       xlink:href="#ButtonShadow-0"
       gradientUnits="userSpaceOnUse"
       gradientTransform="translate(-1,-1)" />
    <linearGradient
       x1="46.46909"
       y1="92.00457"
       x2="46.46909"
       y2="6.8641505"
       id="linearGradient3834"
       xlink:href="#ButtonShadow-0"
       gradientUnits="userSpaceOnUse"
       gradientTransform="translate(-1,-1)" />
    <linearGradient
       x1="46.46909"
       y1="92.00457"
       x2="46.46909"
       y2="6.8641505"
       id="linearGradient3842"
       xlink:href="#ButtonShadow-0"
       gradientUnits="userSpaceOnUse" />
    <linearGradient
       x1="46.46909"
       y1="92.00457"
       x2="46.46909"
       y2="6.8641505"
       id="linearGradient3850"
       xlink:href="#ButtonShadow-0"
       gradientUnits="userSpaceOnUse" />
    <linearGradient
       x1="46.46909"
       y1="92.00457"
       x2="46.46909"
       y2="6.8641505"
       id="linearGradient3858"
       xlink:href="#ButtonShadow-0"
       gradientUnits="userSpaceOnUse" />
    <linearGradient
       x1="45.530357"
       y1="6.1566963"
       x2="45.530357"
       y2="71.926834"
       id="linearGradient3884"
       xlink:href="#linearGradient3737"
       gradientUnits="userSpaceOnUse"
       gradientTransform="translate(-1,-1)" />
    <radialGradient
       cx="20"
       cy="69"
       r="14"
       fx="20"
       fy="69"
       id="radialGradient4290"
       xlink:href="#linearGradient3709"
       gradientUnits="userSpaceOnUse"
       gradientTransform="matrix(1,0,0,1.5,1,-33.5)" />
    <linearGradient
       x1="19"
       y1="90"
       x2="19"
       y2="47.988098"
       id="linearGradient4292"
       xlink:href="#linearGradient3738"
       gradientUnits="userSpaceOnUse" />
    <linearGradient
       inkscape:collect="always"
       xlink:href="#linearGradient3737"
       id="linearGradient3101"
       gradientUnits="userSpaceOnUse"
       gradientTransform="translate(-220.66102,11.61017)"
       x1="45.530357"
       y1="6.1566963"
       x2="45.530357"
       y2="71.926834" />
    <radialGradient
       inkscape:collect="always"
       xlink:href="#linearGradient3709"
       id="radialGradient3133"
       gradientUnits="userSpaceOnUse"
       gradientTransform="matrix(1,0,0,1.5,1,-33.5)"
       cx="20"
       cy="69"
       fx="20"
       fy="69"
       r="14" />
    <linearGradient
       inkscape:collect="always"
       xlink:href="#linearGradient3738"
       id="linearGradient3135"
       gradientUnits="userSpaceOnUse"
       x1="19"
       y1="90"
       x2="19"
       y2="47.988098" />
    <radialGradient
       inkscape:collect="always"
       xlink:href="#linearGradient3709"
       id="radialGradient3984"
       gradientUnits="userSpaceOnUse"
       gradientTransform="matrix(1,0,0,1.5,1,-33.5)"
       cx="20"
       cy="69"
       fx="20"
       fy="69"
       r="14" />
    <linearGradient
       inkscape:collect="always"
       xlink:href="#linearGradient3738"
       id="linearGradient3986"
       gradientUnits="userSpaceOnUse"
       x1="19"
       y1="90"
       x2="19"
       y2="47.988098" />
  </defs>
  <metadata
     id="metadata2413">
    <rdf:RDF>
      <cc:Work
         rdf:about="">
        <dc:format>image/svg+xml</dc:format>
        <dc:type
           rdf:resource="http://purl.org/dc/dcmitype/StillImage" />
        <dc:title />
      </cc:Work>
    </rdf:RDF>
  </metadata>
  <rect
     style="fill:#a05a2c;fill-opacity:1;stroke:none"
     id="rect3951"
     width="96"
     height="96"
     x="0"
     y="-7.1054274e-15"
     rx="0"
     ry="0" />
  <g
     id="layer2"
     style="display:none">
    <rect
       width="86"
       height="85"
       rx="6"
       ry="6"
       x="5"
       y="7"
       id="rect3745"
       style="opacity:0.9;fill:url(#ButtonShadow);fill-opacity:1;fill-rule:nonzero;stroke:none;filter:url(#filter3174)" />
  </g>
  <g
     id="g3958"
     transform="matrix(0.81991861,0,0,0.81991861,10.562398,7.7382051)">
    <g
       id="g3953">
      <rect
         style="color:#000000;fill:#ffffff;fill-opacity:1;fill-rule:nonzero;stroke:none;stroke-width:1.5;marker:none;visibility:visible;display:inline;overflow:visible;enable-background:accumulate"
         id="rect2890"
         y="50.440678"
         x="4.4406905"
         ry="5.7094431"
         rx="5.7094431"
         height="39.966103"
         width="26.644068" />
      <rect
         style="color:#000000;fill:#ffffff;fill-opacity:1;fill-rule:nonzero;stroke:none;stroke-width:1.5;marker:none;visibility:visible;display:inline;overflow:visible;enable-background:accumulate"
         id="rect2894"
         y="50.440678"
         x="33.833714"
         ry="5.7094431"
         rx="5.7094431"
         height="39.966103"
         width="26.644068" />
      <rect
         style="color:#000000;fill:#ffffff;fill-opacity:1;fill-rule:nonzero;stroke:none;stroke-width:1.5;marker:none;visibility:visible;display:inline;overflow:visible;enable-background:accumulate"
         id="rect2896"
         y="50.440678"
         x="63.633518"
         ry="5.7094431"
         rx="5.7094431"
         height="39.966103"
         width="26.644068" />
    </g>
  </g>
  <g
     id="layer5"
     style="display:none">
    <rect
       width="66"
       height="66"
       rx="12"
       ry="12"
       x="15"
       y="15"
       clip-path="url(#clipPath3613)"
       id="rect3171"
       style="opacity:0.1;fill:url(#linearGradient3613);fill-opacity:1;fill-rule:nonzero;stroke:#ffffff;stroke-width:0.5;stroke-linecap:round;stroke-linejoin:miter;stroke-miterlimit:4;stroke-opacity:1;stroke-dasharray:none;stroke-dashoffset:0;filter:url(#filter3794)" />
  </g>
  <g
     id="g3964"
     transform="matrix(0.81991861,0,0,0.81991861,10.562398,-27.282047)">
    <g
       id="g3966">
      <rect
         width="26.644068"
         height="39.966103"
         rx="5.7094431"
         ry="5.7094431"
         x="4.4406905"
         y="50.440678"
         id="rect3968"
         style="color:#000000;fill:#ffffff;fill-opacity:1;fill-rule:nonzero;stroke:none;stroke-width:1.5;marker:none;visibility:visible;display:inline;overflow:visible;enable-background:accumulate" />
      <rect
         width="26.644068"
         height="39.966103"
         rx="5.7094431"
         ry="5.7094431"
         x="33.833714"
         y="50.440678"
         id="rect3970"
         style="color:#000000;fill:#ffffff;fill-opacity:1;fill-rule:nonzero;stroke:none;stroke-width:1.5;marker:none;visibility:visible;display:inline;overflow:visible;enable-background:accumulate" />
      <rect
         width="26.644068"
         height="39.966103"
         rx="5.7094431"
         ry="5.7094431"
         x="63.633518"
         y="50.440678"
         id="rect3972"
         style="color:#000000;fill:#ffffff;fill-opacity:1;fill-rule:nonzero;stroke:none;stroke-width:1.5;marker:none;visibility:visible;display:inline;overflow:visible;enable-background:accumulate" />
    </g>
  </g>
  <g
     id="g3942"
     transform="matrix(0.84027437,0,0,0.84027437,112.55124,-3.2458034)"
     style="fill:#a05a2c">
    <path
       d="m -46.31568,71.73517 -0.09375,0.28125 -1.1875,3 -0.75,0.71875 -1.9375,-2.21875 -0.0625,0 c -0.300219,0 -1.864004,0.0362 -2.25,0.59375 -0.04289,0.04289 -0.03125,0.113362 -0.03125,0.15625 l 0,0.09375 c 0.04289,0.214442 0.309477,0.297196 0.78125,0.46875 0.214442,0.08578 0.496334,0.226723 0.625,0.3125 -0.471773,0.986434 -0.993312,1.892232 -1.59375,2.75 -0.300219,-0.171553 -1.75,-1.09375 -1.75,-1.09375 l -0.25,0.34375 c 0,0 1.191808,1.348058 1.40625,1.5625 -1.200876,1.501095 -2.667435,2.818735 -4.46875,4.0625 l 0.1875,0.375 c 5.48972,-1.415319 9.382973,-6.933834 9.46875,-7.0625 l 1,0.9375 c -1.37243,0.857768 -2.65625,1.625 -2.65625,1.625 l 0.21875,0.40625 c 0.857769,-0.343107 2.049124,-0.840727 3.25,-1.3125 l 4.75,4.65625 4.65625,-1.625 -0.0625,-0.4375 c -2.18731,-0.08578 -5.15644,-1.905155 -7.34375,-3.40625 1.243765,-0.428884 2.278227,-0.730388 2.75,-0.6875 0.300219,0 0.394612,-0.101723 0.4375,-0.1875 0.171554,-0.471773 -1.486814,-1.914413 -4.875,-4.1875 l -0.21875,-0.125 z m 1.15625,2.625 c 0.214442,0.128665 0.762281,0.473058 1.0625,0.6875 -0.171553,0.08578 -0.821758,0.485339 -1.59375,1 -0.08578,-0.08578 -0.152584,-0.195473 -0.28125,-0.28125 0.300219,-0.514661 0.683834,-1.234696 0.8125,-1.40625 z m -3.78125,4.71875 -0.46875,0.3125 -2.65625,1.5 0.125,0.375 c 0,0 0.481031,-0.03125 0.78125,-0.03125 -0.08578,0.300219 -0.254308,0.774562 -0.46875,1.375 -0.25733,0 -2.15625,-0.09375 -2.15625,-0.09375 l 0.34375,0.375 c 0.128665,0.128665 0.684477,0.75 1.15625,0.75 0,0 0.121335,-0.0625 0.25,-0.0625 -0.343107,0.857769 -0.739004,1.5987 -1.125,2.15625 l 0.3125,0.28125 c 0.643327,-0.514661 1.376285,-1.432097 2.0625,-2.71875 l 0.5,-0.1875 -0.03125,-0.4375 -0.15625,0 c 0.771992,-1.543984 1.3125,-3.03125 1.3125,-3.03125 l 0.21875,-0.5625 z m 0.65625,0.78125 0,0.21875 c 0,0 -0.243312,2.099986 -0.84375,3.34375 l -0.125,0.28125 0.3125,0.0625 c 0.771991,0.04289 1.49267,-1.583396 1.75,-2.3125 0.171554,0 0.617669,0.03125 0.875,0.03125 -0.128665,0.514661 -0.3125,1.196116 -0.3125,1.625 0,0.171554 0.008,0.289223 0.09375,0.375 l 0.21875,0.15625 c 0.343107,0.04289 2.207754,-0.113365 2.59375,-0.15625 l 0,-0.40625 c -0.643326,-0.08578 -1.414223,-0.316808 -1.5,-0.53125 -0.08578,-0.257331 0.270254,-1.267231 0.65625,-2.125 l 0.125,-0.3125 -3.84375,-0.25 z m -1.71875,4.09375 -0.21875,0.75 c 0,0.04289 -0.600628,2.173481 -2.1875,3.03125 -0.214442,-0.257331 -1.34375,-1.78125 -1.34375,-1.78125 l -0.375,0.1875 1.875,4.90625 0.4375,-0.09375 c 0,-0.943546 0.4737,-1.493312 1.03125,-2.09375 0.771992,-0.900657 1.643326,-1.926051 1,-4.15625 l -0.21875,-0.75 z m 7.0625,0.21875 -6.3125,0.1875 c 0,0 2.098058,2.711419 2.3125,2.96875 -1.115099,1.029322 -2.099343,1.797839 -3,2.3125 l -0.25,0.15625 0.25,0.21875 c 0.600438,0.471773 1.800409,-0.09697 3.6875,-1.8125 0.986434,1.37243 1.629308,2.368312 1.84375,2.96875 l 0.09375,0.3125 1.15625,-0.96875 0,-0.0625 0,-0.125 c 0,-0.214442 0.01576,-0.926051 -2,-3.15625 1.286653,-1.329541 2.40625,-2.550862 2.40625,-2.59375 l 0.28125,-0.40625 -0.46875,0 z m -2,1.21875 c -0.343108,0.385996 -0.734697,0.754308 -0.90625,0.96875 l -0.8125,-0.8125 c 0.471773,-0.08578 1.1612,-0.113361 1.71875,-0.15625 z"
       inkscape:connector-curvature="0"
       id="path4115"
       style="fill:#a05a2c" />
    <path
       d="m -75.34693,66.39142 -0.0625,0.1875 c -0.04675,0.09349 -0.172513,0.611545 -0.40625,1.40625 l -2.09375,0 c 0,-0.18699 -0.0625,-0.625 -0.0625,-0.625 -0.654462,-1.075188 -3.454018,-0.296748 -3.78125,-0.25 l -0.1875,0.03125 0.09375,0.1875 c 0.09349,0.186989 0.203253,0.422513 0.25,0.65625 l -1.78125,0 0.875,1.6875 1.125,-0.1875 0,0.3125 c 0,2.898334 -1.25,6.609503 -1.25,6.65625 l 0.28125,0.125 c 0.140242,-0.186989 3.689288,-4.430685 4.34375,-7.65625 0.0935,0 1.127554,-0.203508 2.0625,-0.34375 -0.560968,2.197124 -1.231438,5.675322 -0.15625,6.9375 1.589409,1.869892 7.766264,1.718494 8,1.625 l 0.125,-0.03125 -1.59375,-4.3125 c 0,0 -1.344005,1.500255 -1.4375,1.59375 -1.495914,0.327231 -3.938011,0.560457 -4.125,-0.1875 -0.233736,-0.8882 1.61129,-4.879086 2.3125,-6.375 l 0.09375,-0.125 -2.625,-1.3125 z m 0.46875,14.53125 -0.09375,0.0625 c 0,0 -2.036436,1.578508 -2.21875,1.71875 -0.149592,-0.154266 -1.5,-1.53125 -1.5,-1.53125 l 1.03125,4.15625 0.28125,0 c 0.350605,-2.225173 2.041876,-3.116161 2.5,-3.3125 0.06545,0.0935 0.125,0.203508 0.125,0.34375 0,0.04207 -0.02665,0.07825 -0.03125,0.125 -0.09817,0.78068 -1.11954,2.173594 -3.125,3.375 l -0.125,0.09375 0.375,0.46875 0.09375,-0.03125 c 0.02805,-0.0093 3.081376,-0.959146 4.84375,-0.875 l 0.53125,0.03125 -0.46875,-0.3125 c -0.0374,-0.02337 -0.886903,-0.571594 -1.8125,-0.46875 0.130892,-0.294508 1.053975,-1.189543 1.9375,-1.9375 l 0.125,-0.125 -2.46875,-1.78125 z m 2.6875,5.25 -0.09375,0.03125 c -2.388788,0.406702 -6.112253,0.96382 -6.59375,0.875 l -0.15625,-0.03125 -0.0625,0.15625 c -0.09349,0.261785 0.153815,2.296865 0.40625,3.4375 -2.141027,0.186989 -4.6875,0.40625 -4.6875,0.40625 l 0.125,0.28125 0.3125,0.59375 0.15625,-0.0625 c 0.804054,-0.238411 1.183906,-0.264024 2.15625,-0.25 0.08882,0.229062 1.21875,3.1875 1.21875,3.1875 l 0.375,-0.09375 c 0,0 -0.323578,-2.674497 -0.375,-3.0625 0.364629,0.0093 3.714645,0.106301 4.5,0.125 -0.509546,0.430075 -1.65625,1.40625 -1.65625,1.40625 l 0.1875,0.34375 c 0,0 2.409707,-0.832927 2.53125,-0.875 0.116869,0.04675 2,0.78125 2,0.78125 0,0 -0.994619,-1.215096 -1.3125,-1.59375 1.767048,0.09349 2.222207,0.194158 2.34375,0.34375 0.154267,0.182314 0.25,0.450817 0.25,0.75 0,0.542269 -0.273433,1.207731 -0.84375,1.75 -0.850801,-0.215038 -2.418801,-1.0844 -2.4375,-1.09375 l -0.25,0.28125 2.375,2.96875 0.125,-0.03125 c 1.785748,-0.364629 3.94243,-3.970734 4.03125,-4.125 l 0.0625,-0.125 -0.09375,-0.09375 c -0.07947,-0.07947 -1.961188,-2.002494 -2.625,-2.34375 -0.247761,-0.126217 -0.798908,-0.09644 -2.6875,0.0625 0,0 -0.09721,0.01725 -0.21875,0.03125 0.556293,-1.30425 1.290148,-2.755185 1.6875,-2.9375 l 0.25,-0.09375 -1,-1 z m -1.25,1.6875 c -0.02337,0.126218 -0.06423,0.432374 -0.125,0.84375 -0.570317,0.0748 -1.294312,0.190701 -1.5,0.21875 l 0,-0.9375 c 0.757307,-0.06077 1.44736,-0.106301 1.625,-0.125 z m -2.4375,0.1875 c 0.0093,0.392678 0.02658,0.823834 0.03125,0.96875 -0.659137,0.0748 -1.212151,0.106301 -1.65625,0.125 0.04675,-0.289833 0.104828,-0.599446 0.15625,-0.96875 0.112193,-0.0093 0.730142,-0.06423 1.46875,-0.125 z m 1.34375,1.53125 c 0.136736,6e-6 0.234758,0.0172 0.375,0.03125 l 0.46875,0.03125 c -0.03272,0.215037 -0.06571,0.423987 -0.09375,0.625 -0.509545,0.0374 -1.098935,0.07973 -1.28125,0.09375 l 0,-0.75 c 0.229062,-0.02338 0.394514,-0.03126 0.53125,-0.03125 z m -1.28125,0.125 c 0.0047,0.224387 -0.0047,0.522412 0,0.71875 -0.116869,0.0047 -0.895035,0.06743 -1.9375,0.15625 0.0374,-0.163616 0.08293,-0.338113 0.125,-0.5625 0.607715,-0.112193 1.214134,-0.233029 1.8125,-0.3125 z"
       inkscape:connector-curvature="0"
       id="path4100"
       style="fill:#a05a2c" />
    <g
       transform="matrix(0.43092847,0,0,0.43092847,-35.518656,66.172927)"
       id="g4092"
       style="fill:#a05a2c;display:inline">
      <path
         d="m -161.75277,9.2732142 c 0.4,0.5 0.9,2.2999998 0.9,8.5999998 0,0.9 0,1.8 0,2.8 -3.4,0.5 -6.3,1 -6.8,1.2 l -0.6,0.2 2.8,2.7 0.2,-0.1 c 1.1,-0.3 2.6,-0.5 4.2,-0.7 0,0.7 -0.4,7.3 -0.4,7.9 -4.9,0.4 -9.2,1.1 -12.7,1.9 -3,0.8 -4.8,2.6 -5.2,5.4 -0.1,0.4 -0.1,0.9 -0.1,1.4 0,7.1 6.9,16.9 7,16.9 l 0.8,0.5 -0.3,-0.9 c 0,-0.1 -2.8,-9.4 -2.8,-15.6 0,-1.8 0.2,-3.3 0.8,-4.3 0.4,-0.6 0.8,-0.9 1.4,-1 1.3,-0.2 2.7,-0.4 4,-0.6 0,0 3.1,4 3.7,4.7 -0.5,0.1 -1.4,0.3 -1.4,0.3 l 0,0.3 0.2,2.2 0.4,-0.1 c 0.6,-0.2 1.8,-0.5 3.2,-0.7 0,0.6 0.1,2.4 0.2,2.9 -1.7,0.5 -3.2,1.1 -3.8,1.4 l -0.4,0.2 1.5,1.6 0.2,-0.1 c 0.7,-0.3 1.7,-0.6 2.7,-0.9 0,0.7 0.3,5.6 0.3,5.6 l 0.7,0 c 0,0 1.1,-5.5 1.2,-6 1.8,-0.2 3.5,-0.1 4.8,0.2 l 0.4,0.1 v -3 l -0.2,-0.1 c -0.8,-0.4 -2.3,-0.4 -4.5,0.1 0.1,-0.7 0.4,-2.1 0.5,-2.5 1.6,-0.1 2.9,-0.2 3.8,-0.1 l 0.5,0.1 -0.7,-2.6 c 0,0 -0.9,0 -1.4,0.1 0.8,-0.9 3.5,-4.4 3.7,-4.6 0.3,0 3.9,0.1 3.9,0.1 1.6,0.1 3,0.7 4.1,2 1.3,1.5 2,3.9 2,6.3 0,0.5 0,1.1 -0.1,1.6 l -0.1,0.7 c -0.7,5.1 -1.3,8.8 -3.1,9.6 -1.2,0.5 -3.1,-0.3 -5.9,-2.4 l -0.5,0.5 5.5,9.6 0.3,-0.1 c 6.7,-2.4 7.7,-3.8 10.4,-15.4 1.2,-5.1 0.8,-9.1 -1.3,-11.8 -2.5,-3.3 -6.3,-3.7 -6.5,-3.7 -0.1,0 -6.7,-0.3 -14.6,0.2 0.2,-0.8 2,-7.5 2.1,-7.9 2.5,0 4.7,0.1 5.7,0.5 l 0.4,0.1 0.4,-4.7 -0.4,0 c -1.1,0 -2.8,0.1 -5.1,0.3 1.3,-4.4 1.9,-5.8 2.1,-6.2 l 0.2,-0.3 -8.1,-4.6999998 -0.2,0.3 z m 4.4,25.2999998 c -0.1,0.7 -0.7,4.3 -0.7,4.7 0,0 -0.1,0 -0.1,0 0,-0.1 0.1,-0.4 0.1,-0.4 l -4.4,0.4 c 0,0 0,0.5 0,0.6 -0.4,0.1 -1,0.2 -1.4,0.2 0,-0.7 0,-5 0,-5.1 2.2,-0.1 4.3,-0.3 6.5,-0.4 z"
         inkscape:connector-curvature="0"
         id="path4094"
         style="fill:#a05a2c;fill-opacity:1" />
    </g>
    <path
       d="m -52.59693,24.90367 c -2.550363,0 -4.625,2.074637 -4.625,4.625 0,2.550363 2.074637,4.625 4.625,4.625 2.550363,0 4.65625,-2.074637 4.65625,-4.625 0,-2.550363 -2.105887,-4.625 -4.65625,-4.625 z m 0,0.53125 c 2.267561,0 4.125,1.826189 4.125,4.09375 0,2.267561 -1.857439,4.125 -4.125,4.125 -2.267561,0 -4.09375,-1.857439 -4.09375,-4.125 0,-2.267561 1.826189,-4.09375 4.09375,-4.09375 z m 0,0.21875 c -2.149298,0 -3.875,1.725702 -3.875,3.875 0,2.149298 1.725702,3.90625 3.875,3.90625 2.149298,0 3.90625,-1.756952 3.90625,-3.90625 0,-2.149298 -1.756952,-3.875 -3.90625,-3.875 z m 0,0.75 c 0.699293,0 1.303811,0.498091 1.4375,1.15625 -0.401065,-0.282803 -0.907888,-0.46875 -1.4375,-0.46875 -0.529612,0 -1.005185,0.185947 -1.40625,0.46875 0.133689,-0.658159 0.706957,-1.15625 1.40625,-1.15625 z m -1.34375,0.03125 c -0.308512,0.30337 -0.505939,0.740158 -0.5625,1.1875 -0.452484,0.05656 -0.85288,0.222738 -1.15625,0.53125 0.339363,-0.760995 0.957755,-1.379387 1.71875,-1.71875 z m 2.71875,0 c 0.760995,0.339363 1.379388,0.957755 1.71875,1.71875 -0.303369,-0.308512 -0.708908,-0.479831 -1.15625,-0.53125 -0.05656,-0.452484 -0.253989,-0.88413 -0.5625,-1.1875 z m -1.375,1.1875 c 0.293086,0 0.59694,0.06924 0.84375,0.1875 -0.344505,0.174823 -0.653501,0.441887 -0.84375,0.78125 -0.190249,-0.339363 -0.467995,-0.606427 -0.8125,-0.78125 0.246809,-0.118263 0.519414,-0.1875 0.8125,-0.1875 z m -1.96875,0.5 c -0.282803,0.401065 -0.46875,0.876638 -0.46875,1.40625 0,0.529612 0.185947,1.036435 0.46875,1.4375 -0.658159,-0.133689 -1.15625,-0.738207 -1.15625,-1.4375 0,-0.699293 0.498091,-1.272561 1.15625,-1.40625 z m 3.96875,0 c 0.658158,0.133689 1.15625,0.706957 1.15625,1.40625 0,0.699293 -0.498092,1.303811 -1.15625,1.4375 0.287944,-0.401065 0.46875,-0.907888 0.46875,-1.4375 0,-0.529612 -0.185947,-1.005185 -0.46875,-1.40625 z m -3.3125,0.03125 c 0.52447,0.138831 0.923271,0.553854 1.03125,1.09375 -0.534754,-0.113121 -0.954919,-0.50678 -1.09375,-1.03125 l 0.0625,-0.0625 z m 2.65625,0 c 0.02057,0.02571 0.04193,0.04193 0.0625,0.0625 -0.13883,0.52447 -0.558996,0.923271 -1.09375,1.03125 0.107979,-0.539896 0.50678,-0.949778 1.03125,-1.09375 z m -3.0625,0.5625 c 0.174823,0.344505 0.441887,0.622251 0.78125,0.8125 -0.339363,0.190249 -0.606427,0.499245 -0.78125,0.84375 -0.118263,-0.24681 -0.1875,-0.550664 -0.1875,-0.84375 0,-0.293086 0.06924,-0.565691 0.1875,-0.8125 z m 3.46875,0 c 0.118263,0.246809 0.1875,0.519414 0.1875,0.8125 0,0.293086 -0.06924,0.59694 -0.1875,0.84375 -0.174823,-0.344505 -0.441887,-0.653501 -0.78125,-0.84375 0.339363,-0.190249 0.606427,-0.467995 0.78125,-0.8125 z m -2.03125,1.125 c -0.10798,0.534754 -0.50678,0.95492 -1.03125,1.09375 -0.02571,-0.02057 -0.04193,-0.04193 -0.0625,-0.0625 0.138831,-0.52447 0.553854,-0.923271 1.09375,-1.03125 z m 0.59375,0 c 0.534754,0.107979 0.95492,0.50678 1.09375,1.03125 l -0.0625,0.0625 c -0.52447,-0.13883 -0.923271,-0.558996 -1.03125,-1.09375 z m -0.3125,0.65625 c 0.190249,0.339363 0.499245,0.606427 0.84375,0.78125 -0.251951,0.118263 -0.550664,0.1875 -0.84375,0.1875 -0.293086,0 -0.565691,-0.06924 -0.8125,-0.1875 0.344505,-0.174823 0.622251,-0.441887 0.8125,-0.78125 z m -3.0625,0.40625 c 0.30337,0.308511 0.708908,0.511081 1.15625,0.5625 0.05656,0.452483 0.253988,0.852881 0.5625,1.15625 -0.760995,-0.339362 -1.379387,-0.957755 -1.71875,-1.71875 z m 6.15625,0 c -0.339362,0.760995 -0.957755,1.379388 -1.71875,1.71875 0.308511,-0.303369 0.511081,-0.708908 0.5625,-1.15625 0.452483,-0.05656 0.852881,-0.253989 1.15625,-0.5625 z m -4.5,0.625 c 0.401065,0.287944 0.876638,0.46875 1.40625,0.46875 0.529612,0 1.036435,-0.185947 1.4375,-0.46875 -0.133689,0.658158 -0.738207,1.15625 -1.4375,1.15625 -0.699293,0 -1.272561,-0.498092 -1.40625,-1.15625 z m 6.5625,3.15625 c -2.550363,0 -4.625,2.074637 -4.625,4.625 0,2.550363 2.074637,4.625 4.625,4.625 2.550363,0 4.625,-2.074637 4.625,-4.625 0,-2.550363 -2.074637,-4.625 -4.625,-4.625 z m 0,0.5 c 2.267561,0 4.125,1.857439 4.125,4.125 0,2.267561 -1.857439,4.125 -4.125,4.125 -2.267561,0 -4.125,-1.857439 -4.125,-4.125 0,-2.267561 1.857439,-4.125 4.125,-4.125 z m 0,0.21875 c -2.149298,0 -3.90625,1.756952 -3.90625,3.90625 0,2.149298 1.756952,3.90625 3.90625,3.90625 2.149298,0 3.90625,-1.756952 3.90625,-3.90625 0,-2.149298 -1.756952,-3.90625 -3.90625,-3.90625 z m 0,0.75 c 0.699293,0 1.272561,0.498091 1.40625,1.15625 -0.401065,-0.282803 -0.876638,-0.4375 -1.40625,-0.4375 -0.529612,0 -1.005185,0.154697 -1.40625,0.4375 0.133689,-0.658159 0.706957,-1.15625 1.40625,-1.15625 z m -1.375,0.0625 c -0.308512,0.30337 -0.505939,0.708908 -0.5625,1.15625 -0.452484,0.05656 -0.85288,0.253988 -1.15625,0.5625 0.339363,-0.760995 0.957755,-1.379387 1.71875,-1.71875 z m 2.75,0 c 0.760995,0.339363 1.379388,0.957755 1.71875,1.71875 -0.303369,-0.308512 -0.708908,-0.511081 -1.15625,-0.5625 -0.05656,-0.452484 -0.253989,-0.85288 -0.5625,-1.15625 z m -1.375,1.15625 c 0.293086,0 0.56569,0.06924 0.8125,0.1875 -0.344505,0.174823 -0.622251,0.473137 -0.8125,0.8125 -0.190249,-0.339363 -0.467995,-0.637677 -0.8125,-0.8125 0.246809,-0.118263 0.519414,-0.1875 0.8125,-0.1875 z m -2,0.53125 c -0.282803,0.401065 -0.4375,0.876638 -0.4375,1.40625 0,0.529612 0.154697,1.005185 0.4375,1.40625 -0.658159,-0.133689 -1.15625,-0.706957 -1.15625,-1.40625 0,-0.699293 0.498091,-1.272561 1.15625,-1.40625 z m 3.34375,0 c 0.02057,0.02571 0.01068,0.04193 0.03125,0.0625 -0.13883,0.52447 -0.558996,0.954521 -1.09375,1.0625 0.107979,-0.539896 0.53803,-0.981028 1.0625,-1.125 z m 0.65625,0 c 0.658158,0.133689 1.15625,0.706957 1.15625,1.40625 0,0.699293 -0.498092,1.272561 -1.15625,1.40625 0.287944,-0.401065 0.4375,-0.876638 0.4375,-1.40625 0,-0.529612 -0.154697,-1.005185 -0.4375,-1.40625 z m -3.34375,0.03125 c 0.52447,0.138831 0.954521,0.553854 1.0625,1.09375 -0.534754,-0.113121 -0.954919,-0.53803 -1.09375,-1.0625 l 0.03125,-0.03125 z m -0.40625,0.5625 c 0.174823,0.344505 0.473137,0.622251 0.8125,0.8125 -0.339363,0.190249 -0.637677,0.467995 -0.8125,0.8125 -0.118263,-0.24681 -0.1875,-0.519414 -0.1875,-0.8125 0,-0.293086 0.06924,-0.565691 0.1875,-0.8125 z m 3.5,0 c 0.118263,0.246809 0.1875,0.519414 0.1875,0.8125 0,0.293086 -0.06924,0.56569 -0.1875,0.8125 -0.174823,-0.344505 -0.473137,-0.622251 -0.8125,-0.8125 0.339363,-0.190249 0.637677,-0.467995 0.8125,-0.8125 z m -2.03125,1.09375 c -0.10798,0.534754 -0.50678,0.95492 -1.03125,1.09375 -0.02571,-0.02057 -0.04193,-0.01068 -0.0625,-0.03125 0.138831,-0.52447 0.553854,-0.954521 1.09375,-1.0625 z m 0.5625,0 c 0.534754,0.107979 0.95492,0.53803 1.09375,1.0625 l -0.03125,0.03125 c -0.52447,-0.13883 -0.954521,-0.558996 -1.0625,-1.09375 z m -0.28125,0.65625 c 0.190249,0.339363 0.467995,0.637677 0.8125,0.8125 -0.251951,0.118263 -0.519414,0.1875 -0.8125,0.1875 -0.293086,0 -0.565691,-0.06924 -0.8125,-0.1875 0.344505,-0.174823 0.622251,-0.473137 0.8125,-0.8125 z m -3.09375,0.4375 c 0.30337,0.308511 0.708908,0.511081 1.15625,0.5625 0.05656,0.452483 0.253988,0.852881 0.5625,1.15625 -0.760995,-0.339362 -1.379387,-0.957755 -1.71875,-1.71875 z m 6.1875,0 c -0.339362,0.760995 -0.957755,1.379388 -1.71875,1.71875 0.308511,-0.303369 0.511081,-0.708908 0.5625,-1.15625 0.452483,-0.05656 0.852881,-0.253989 1.15625,-0.5625 z m -4.5,0.625 c 0.401065,0.287944 0.876638,0.4375 1.40625,0.4375 0.529612,0 1.005185,-0.154697 1.40625,-0.4375 -0.133689,0.658158 -0.706957,1.15625 -1.40625,1.15625 -0.699293,0 -1.272561,-0.498092 -1.40625,-1.15625 z m 6.5625,3.15625 c -2.550363,0 -4.65625,2.074637 -4.65625,4.625 0,2.550363 2.105887,4.625 4.65625,4.625 2.550363,0 4.625,-2.074637 4.625,-4.625 0,-2.550363 -2.074637,-4.625 -4.625,-4.625 z m 0,0.5 c 2.267561,0 4.09375,1.857439 4.09375,4.125 0,2.267561 -1.826189,4.09375 -4.09375,4.09375 -2.267561,0 -4.125,-1.826189 -4.125,-4.09375 0,-2.267561 1.857439,-4.125 4.125,-4.125 z m 0,0.21875 c -2.149298,0 -3.90625,1.756952 -3.90625,3.90625 0,2.149298 1.756952,3.875 3.90625,3.875 2.149298,0 3.875,-1.725702 3.875,-3.875 0,-2.149298 -1.725702,-3.90625 -3.875,-3.90625 z m 0,0.75 c 0.699293,0 1.272561,0.498091 1.40625,1.15625 -0.401065,-0.282803 -0.876638,-0.46875 -1.40625,-0.46875 -0.529612,0 -1.036435,0.185947 -1.4375,0.46875 0.133689,-0.658159 0.738207,-1.15625 1.4375,-1.15625 z m -1.375,0.0625 c -0.308512,0.30337 -0.505939,0.708908 -0.5625,1.15625 -0.452484,0.05656 -0.85288,0.253988 -1.15625,0.5625 0.339363,-0.760995 0.957755,-1.379387 1.71875,-1.71875 z m 2.71875,0 c 0.760995,0.339363 1.379388,0.957755 1.71875,1.71875 -0.303369,-0.308512 -0.708908,-0.511081 -1.15625,-0.5625 -0.05656,-0.452484 -0.253989,-0.85288 -0.5625,-1.15625 z m -1.34375,1.15625 c 0.293086,0 0.56569,0.06924 0.8125,0.1875 -0.344505,0.174823 -0.622251,0.441887 -0.8125,0.78125 -0.190249,-0.339363 -0.499245,-0.606427 -0.84375,-0.78125 0.246809,-0.118263 0.550664,-0.1875 0.84375,-0.1875 z m -2,0.5 c -0.282803,0.401065 -0.46875,0.907888 -0.46875,1.4375 0,0.529612 0.185947,1.005185 0.46875,1.40625 -0.658159,-0.133689 -1.15625,-0.706957 -1.15625,-1.40625 0,-0.699293 0.498091,-1.303811 1.15625,-1.4375 z m 3.96875,0 c 0.658158,0.133689 1.15625,0.738207 1.15625,1.4375 0,0.699293 -0.498092,1.272561 -1.15625,1.40625 0.287944,-0.401065 0.46875,-0.876638 0.46875,-1.40625 0,-0.529612 -0.185947,-1.036435 -0.46875,-1.4375 z m -3.3125,0.03125 c 0.52447,0.138831 0.923271,0.585104 1.03125,1.125 -0.534754,-0.113121 -0.954919,-0.53803 -1.09375,-1.0625 l 0.0625,-0.0625 z m 2.65625,0 c 0.02057,0.02571 0.04193,0.04193 0.0625,0.0625 -0.13883,0.52447 -0.558996,0.923271 -1.09375,1.03125 0.107979,-0.539896 0.50678,-0.949778 1.03125,-1.09375 z m -3.0625,0.5625 c 0.174823,0.344505 0.441887,0.653501 0.78125,0.84375 -0.339363,0.190249 -0.606427,0.467995 -0.78125,0.8125 -0.118263,-0.24681 -0.1875,-0.519414 -0.1875,-0.8125 0,-0.293086 0.06924,-0.596941 0.1875,-0.84375 z m 3.46875,0 c 0.118263,0.246809 0.1875,0.550664 0.1875,0.84375 0,0.293086 -0.06924,0.56569 -0.1875,0.8125 -0.174823,-0.344505 -0.441887,-0.622251 -0.78125,-0.8125 0.339363,-0.190249 0.606427,-0.499245 0.78125,-0.84375 z m -2.03125,1.125 c -0.10798,0.534754 -0.50678,0.95492 -1.03125,1.09375 -0.02571,-0.02057 -0.04194,-0.04193 -0.0625,-0.0625 0.138831,-0.52447 0.553854,-0.923271 1.09375,-1.03125 z m 0.59375,0 c 0.534754,0.107979 0.95492,0.50678 1.09375,1.03125 l -0.0625,0.0625 c -0.52447,-0.13883 -0.923271,-0.558996 -1.03125,-1.09375 z m -0.28125,0.65625 c 0.190249,0.339363 0.467995,0.606427 0.8125,0.78125 -0.251951,0.118263 -0.519414,0.1875 -0.8125,0.1875 -0.293086,0 -0.596941,-0.06924 -0.84375,-0.1875 0.344505,-0.174823 0.653501,-0.441887 0.84375,-0.78125 z m -3.09375,0.4375 c 0.30337,0.308511 0.708908,0.479831 1.15625,0.53125 0.05656,0.452483 0.253988,0.884131 0.5625,1.1875 -0.760995,-0.339362 -1.379387,-0.957755 -1.71875,-1.71875 z m 6.15625,0 c -0.339362,0.760995 -0.957755,1.379388 -1.71875,1.71875 0.308511,-0.303369 0.511081,-0.740158 0.5625,-1.1875 0.452483,-0.05656 0.852881,-0.222739 1.15625,-0.53125 z m -4.5,0.59375 c 0.401065,0.287944 0.907888,0.46875 1.4375,0.46875 0.529612,0 1.005185,-0.185947 1.40625,-0.46875 -0.133689,0.658158 -0.706957,1.15625 -1.40625,1.15625 -0.699293,0 -1.303811,-0.498092 -1.4375,-1.15625 z"
       inkscape:connector-curvature="0"
       id="path4060"
       style="fill:#a05a2c" />
    <path
       d="m -77.555737,25.200661 c -0.179438,0.179439 -0.224298,0.448598 -0.224298,0.762616 0,0.583177 0.179439,1.300932 0.269158,1.570091 0,0 0.13458,3.140186 0.179439,3.499065 -0.403737,0.04486 -1.121494,0.08972 -1.390652,0.179438 l -0.358878,0 c -0.762616,0.04486 -1.480372,0.08972 -1.794389,0.403738 l -0.13458,0.13458 0.13458,0.179439 c 0.224298,0.269158 0.314017,1.031773 0.403737,1.83925 0.224298,1.65981 0.493457,3.723358 1.83925,4.530834 l 0.269158,0.134579 0,-0.314018 c 0,0 0.04486,-0.13458 0.04486,-0.314018 0,-0.13458 -0.04486,-0.358879 -0.08972,-0.672897 0.358878,0.04486 1.121493,0.13458 1.390652,0.13458 0.04486,0.358877 1.211213,14.983155 1.211213,14.983155 l 0.448598,0 c 0,0 0.493457,-14.444838 0.493457,-14.893436 0.314018,0 1.70467,0.04486 2.108408,0.08972 -0.08972,0.269158 -0.448598,1.390652 -0.448598,1.390652 l 0.628037,-0.583177 c 0.179439,-0.134579 4.082237,-3.678499 3.54392,-6.011206 -0.179439,-0.762616 -0.807475,-1.300933 -1.83925,-1.570091 l -0.04486,0 h -0.04486 c -0.583177,0 -2.377566,0.04486 -3.723359,0.134579 0.04486,-1.166353 0.04486,-1.794394 0.04486,-2.108413 0,-0.269158 0,-0.314018 0,-0.358878 0,0 0,-0.04485 0,-0.04485 0,-0.2243 0.224298,-0.538318 0.403738,-0.762617 0.179439,-0.269158 0.403737,-0.493457 0.403737,-0.762615 0,-0.08972 -0.04486,-0.17944 -0.08972,-0.269158 -0.269158,-0.403738 -2.242988,-1.435512 -3.095323,-1.525232 -0.269158,0.04486 -0.448597,0.08972 -0.538317,0.224299 z m 0.04486,7.357003 c 0,0 0.08972,0 0.224299,0 0,0.403737 0.134579,3.229902 0.179439,3.633639 -0.358878,-0.04486 -1.211213,-0.134578 -1.480372,-0.134578 -0.134579,-0.583177 -0.179439,-1.211214 -0.224299,-1.83925 -0.04485,-0.538317 -0.08972,-1.076634 -0.179439,-1.570092 0.403738,0 1.480372,-0.08972 1.480372,-0.08972 z m 2.736445,1.390652 c 0,0 0.04485,-1.076633 0.04485,-1.435512 0.583177,0.08972 1.345793,0.134579 2.063549,0.134579 0,0 0.538317,0 0.807476,0 0,0.17944 -0.04486,0.403738 -0.04486,0.403738 -0.08972,0.986915 -0.224299,2.153268 -0.628036,3.319622 -0.269159,0 -1.92897,-0.08972 -2.287847,-0.13458 0,-0.314018 0.04486,-2.287847 0.04486,-2.287847 z"
       inkscape:connector-curvature="0"
       id="path4054"
       style="fill:#a05a2c;display:inline" />
    <path
       d="m -109.31568,25.31667 c -1.3005,0 -2.34375,0.465947 -2.34375,1.03125 0,0.400061 0.53819,0.741007 1.3125,0.90625 l 0,3.03125 c -0.77431,0.165242 -1.3125,0.50619 -1.3125,0.90625 0,0.400061 0.53819,0.741007 1.3125,0.90625 l 0,3.03125 c -0.77431,0.169591 -1.3125,0.50619 -1.3125,0.90625 0,0.565303 1.04325,1.03125 2.34375,1.03125 1.3005,0 2.34375,-0.465947 2.34375,-1.03125 0,-0.40006 -0.53819,-0.741008 -1.3125,-0.90625 l 0,-3.03125 c 0.77431,-0.169591 1.3125,-0.506189 1.3125,-0.90625 0,-0.40006 -0.53819,-0.741008 -1.3125,-0.90625 l 0,-3.03125 c 0.77431,-0.165243 1.3125,-0.506189 1.3125,-0.90625 0,-0.565303 -1.04325,-1.03125 -2.34375,-1.03125 z m 11.75,0 c -1.300503,0 -2.34375,0.465947 -2.34375,1.03125 0,0.400061 0.538188,0.741007 1.3125,0.90625 l 0,3.03125 c -0.774312,0.165242 -1.3125,0.50619 -1.3125,0.90625 0,0.400061 0.538188,0.741007 1.3125,0.90625 l 0,3.03125 c -0.774312,0.169591 -1.3125,0.50619 -1.3125,0.90625 0,0.565303 1.043247,1.03125 2.34375,1.03125 1.300503,0 2.34375,-0.465947 2.34375,-1.03125 0,-0.40006 -0.538187,-0.741008 -1.3125,-0.90625 l 0,-3.03125 c 0.774313,-0.169591 1.3125,-0.506189 1.3125,-0.90625 0,-0.40006 -0.538187,-0.741008 -1.3125,-0.90625 l 0,-3.03125 c 0.774313,-0.165243 1.3125,-0.506189 1.3125,-0.90625 0,-0.565303 -1.043247,-1.03125 -2.34375,-1.03125 z m -11.75,0.625 c 0.57753,0 1.03125,0.193175 1.03125,0.40625 0,0.178288 -0.33206,0.300265 -0.78125,0.34375 l 0,2.59375 c 0,0.20003 -0.10883,0.375 -0.25,0.375 -0.14117,0 -0.25,-0.17497 -0.25,-0.375 l 0,-2.59375 c -0.44919,-0.04349 -0.78125,-0.165462 -0.78125,-0.34375 0,-0.213075 0.45373,-0.40625 1.03125,-0.40625 z m 11.75,0 c 0.577526,0 1.03125,0.193175 1.03125,0.40625 0,0.178288 -0.332063,0.300265 -0.78125,0.34375 l 0,2.59375 c 0,0.20003 -0.108827,0.375 -0.25,0.375 -0.141173,0 -0.25,-0.17497 -0.25,-0.375 l 0,-2.59375 c -0.449187,-0.04349 -0.78125,-0.165462 -0.78125,-0.34375 0,-0.213075 0.453724,-0.40625 1.03125,-0.40625 z m -11.75,4.84375 c 0.7957,0 1.4375,0.193174 1.4375,0.40625 0,0.213076 -0.6418,0.375 -1.4375,0.375 -0.7957,0 -1.4375,-0.161924 -1.4375,-0.375 0,-0.213076 0.6418,-0.40625 1.4375,-0.40625 z m 11.75,0 c 0.795702,0 1.4375,0.193174 1.4375,0.40625 0,0.213076 -0.641798,0.375 -1.4375,0.375 -0.795702,0 -1.4375,-0.161924 -1.4375,-0.375 0,-0.213076 0.641798,-0.40625 1.4375,-0.40625 z m -11.75,1.9375 c 0.14117,0 0.25,0.143719 0.25,0.34375 l 0,2.59375 c 0.44919,0.04349 0.78125,0.196712 0.78125,0.375 0,0.213076 -0.45372,0.375 -1.03125,0.375 -0.57752,0 -1.03125,-0.161924 -1.03125,-0.375 0,-0.178288 0.33206,-0.331515 0.78125,-0.375 l 0,-2.59375 c 0,-0.200031 0.10883,-0.34375 0.25,-0.34375 z m 11.75,0 c 0.141173,0 0.25,0.143719 0.25,0.34375 l 0,2.59375 c 0.449187,0.04349 0.78125,0.196712 0.78125,0.375 0,0.213076 -0.453724,0.375 -1.03125,0.375 -0.577526,0 -1.03125,-0.161924 -1.03125,-0.375 0,-0.178288 0.332063,-0.331515 0.78125,-0.375 l 0,-2.59375 c 0,-0.200031 0.108827,-0.34375 0.25,-0.34375 z m -5.875,0.8125 c -1.3005,0 -2.34375,0.465947 -2.34375,1.03125 0,0.400061 0.53819,0.741008 1.3125,0.90625 l 0,3.03125 c -0.77431,0.165242 -1.3125,0.506189 -1.3125,0.90625 0,0.400061 0.53819,0.741008 1.3125,0.90625 l 0,3.03125 c -0.77431,0.169591 -1.3125,0.506189 -1.3125,0.90625 0,0.565303 1.04325,1.03125 2.34375,1.03125 1.3005,0 2.34375,-0.465947 2.34375,-1.03125 0,-0.400061 -0.53819,-0.741008 -1.3125,-0.90625 l 0,-3.03125 c 0.77431,-0.169591 1.3125,-0.506189 1.3125,-0.90625 0,-0.400061 -0.53819,-0.741008 -1.3125,-0.90625 l 0,-3.03125 c 0.77431,-0.165242 1.3125,-0.506189 1.3125,-0.90625 0,-0.565303 -1.04325,-1.03125 -2.34375,-1.03125 z m 0,0.65625 c 0.57753,0 1.03125,0.161924 1.03125,0.375 0,0.178288 -0.33206,0.331515 -0.78125,0.375 l 0,2.5625 c 0,0.20003 -0.10883,0.375 -0.25,0.375 -0.14117,0 -0.25,-0.17497 -0.25,-0.375 l 0,-2.5625 c -0.44919,-0.04348 -0.78125,-0.196712 -0.78125,-0.375 0,-0.213076 0.45372,-0.375 1.03125,-0.375 z m 0,4.84375 c 0.7957,0 1.4375,0.161924 1.4375,0.375 0,0.213076 -0.6418,0.375 -1.4375,0.375 -0.7957,0 -1.4375,-0.161924 -1.4375,-0.375 0,-0.213076 0.6418,-0.375 1.4375,-0.375 z m 0,1.90625 c 0.14117,0 0.25,0.174969 0.25,0.375 l 0,2.5625 c 0.44919,0.04348 0.78125,0.196712 0.78125,0.375 0,0.213076 -0.45372,0.375 -1.03125,0.375 -0.57753,0 -1.03125,-0.161924 -1.03125,-0.375 0,-0.178288 0.33206,-0.331515 0.78125,-0.375 l 0,-2.5625 c 0,-0.200031 0.10883,-0.375 0.25,-0.375 z m -5.875,0.8125 c -1.3005,0 -2.34375,0.465947 -2.34375,1.03125 0,0.40006 0.53819,0.741008 1.3125,0.90625 l 0,3.03125 c -0.77431,0.165243 -1.3125,0.506189 -1.3125,0.90625 0,0.40006 0.53819,0.741008 1.3125,0.90625 l 0,3.03125 c -0.77431,0.169591 -1.3125,0.506189 -1.3125,0.90625 0,0.565303 1.04325,1.03125 2.34375,1.03125 1.3005,0 2.34375,-0.465947 2.34375,-1.03125 0,-0.400061 -0.53819,-0.741007 -1.3125,-0.90625 l 0,-3.03125 c 0.77431,-0.169591 1.3125,-0.50619 1.3125,-0.90625 0,-0.400061 -0.53819,-0.741007 -1.3125,-0.90625 l 0,-3.03125 c 0.77431,-0.165242 1.3125,-0.50619 1.3125,-0.90625 0,-0.565303 -1.04325,-1.03125 -2.34375,-1.03125 z m 11.75,0 c -1.300503,0 -2.34375,0.465947 -2.34375,1.03125 0,0.40006 0.538188,0.741008 1.3125,0.90625 l 0,3.03125 c -0.774312,0.165243 -1.3125,0.506189 -1.3125,0.90625 0,0.40006 0.538188,0.741008 1.3125,0.90625 l 0,3.03125 c -0.774312,0.169591 -1.3125,0.506189 -1.3125,0.90625 0,0.565303 1.043247,1.03125 2.34375,1.03125 1.300503,0 2.34375,-0.465947 2.34375,-1.03125 0,-0.400061 -0.538187,-0.741007 -1.3125,-0.90625 l 0,-3.03125 c 0.774313,-0.169591 1.3125,-0.50619 1.3125,-0.90625 0,-0.400061 -0.538187,-0.741007 -1.3125,-0.90625 l 0,-3.03125 c 0.774313,-0.165242 1.3125,-0.50619 1.3125,-0.90625 0,-0.565303 -1.043247,-1.03125 -2.34375,-1.03125 z m -11.75,0.65625 c 0.57753,0 1.03125,0.161924 1.03125,0.375 0,0.178288 -0.33206,0.331515 -0.78125,0.375 l 0,2.59375 c 0,0.200031 -0.10883,0.34375 -0.25,0.34375 -0.14117,0 -0.25,-0.143719 -0.25,-0.34375 l 0,-2.59375 c -0.44919,-0.04349 -0.78125,-0.196712 -0.78125,-0.375 0,-0.213076 0.45373,-0.375 1.03125,-0.375 z m 11.75,0 c 0.577526,0 1.03125,0.161924 1.03125,0.375 0,0.178288 -0.332063,0.331515 -0.78125,0.375 l 0,2.59375 c 0,0.200031 -0.108827,0.34375 -0.25,0.34375 -0.141173,0 -0.25,-0.143719 -0.25,-0.34375 l 0,-2.59375 c -0.449187,-0.04349 -0.78125,-0.196712 -0.78125,-0.375 0,-0.213076 0.453724,-0.375 1.03125,-0.375 z m -11.75,4.84375 c 0.7957,0 1.4375,0.161924 1.4375,0.375 0,0.213076 -0.6418,0.40625 -1.4375,0.40625 -0.7957,0 -1.4375,-0.193174 -1.4375,-0.40625 0,-0.213076 0.6418,-0.375 1.4375,-0.375 z m 11.75,0 c 0.795702,0 1.4375,0.161924 1.4375,0.375 0,0.213076 -0.641798,0.40625 -1.4375,0.40625 -0.795702,0 -1.4375,-0.193174 -1.4375,-0.40625 0,-0.213076 0.641798,-0.375 1.4375,-0.375 z m -11.75,1.90625 c 0.14117,0 0.25,0.17497 0.25,0.375 l 0,2.59375 c 0.44919,0.04348 0.78125,0.165462 0.78125,0.34375 0,0.213075 -0.45372,0.40625 -1.03125,0.40625 -0.57752,0 -1.03125,-0.193175 -1.03125,-0.40625 0,-0.178288 0.33206,-0.300265 0.78125,-0.34375 l 0,-2.59375 c 0,-0.20003 0.10883,-0.375 0.25,-0.375 z m 11.75,0 c 0.141173,0 0.25,0.17497 0.25,0.375 l 0,2.59375 c 0.449187,0.04348 0.78125,0.165462 0.78125,0.34375 0,0.213075 -0.453724,0.40625 -1.03125,0.40625 -0.577526,0 -1.03125,-0.193175 -1.03125,-0.40625 0,-0.178288 0.332063,-0.300265 0.78125,-0.34375 l 0,-2.59375 c 0,-0.20003 0.108827,-0.375 0.25,-0.375 z"
       inkscape:connector-curvature="0"
       id="path4038"
       style="fill:#a05a2c;fill-opacity:1" />
  </g>
</svg>
