<?xml version="1.0" encoding="UTF-8" standalone="no"?>
<!-- Created with Inkscape (http://www.inkscape.org/) -->

<svg
   xmlns:dc="http://purl.org/dc/elements/1.1/"
   xmlns:cc="http://creativecommons.org/ns#"
   xmlns:rdf="http://www.w3.org/1999/02/22-rdf-syntax-ns#"
   xmlns:svg="http://www.w3.org/2000/svg"
   xmlns="http://www.w3.org/2000/svg"
   xmlns:xlink="http://www.w3.org/1999/xlink"
   xmlns:sodipodi="http://sodipodi.sourceforge.net/DTD/sodipodi-0.dtd"
   xmlns:inkscape="http://www.inkscape.org/namespaces/inkscape"
   version="1.0"
   width="96"
   height="96"
   id="svg2408"
   style="display:inline;enable-background:new"
   inkscape:version="0.48.4 r9939"
   sodipodi:docname="gnome-session.svg">
  <sodipodi:namedview
     pagecolor="#ffffff"
     bordercolor="#666666"
     borderopacity="1"
     objecttolerance="10"
     gridtolerance="10"
     guidetolerance="10"
     inkscape:pageopacity="0"
     inkscape:pageshadow="2"
     inkscape:window-width="640"
     inkscape:window-height="480"
     id="namedview82"
     showgrid="false"
     inkscape:zoom="2.4583333"
     inkscape:cx="48"
     inkscape:cy="48"
     inkscape:window-x="655"
     inkscape:window-y="110"
     inkscape:window-maximized="0"
     inkscape:current-layer="svg2408" />
  <defs
     id="defs2410">
    <linearGradient
       id="linearGradient3687">
      <stop
         id="stop3689"
         style="stop-color:#ffffff;stop-opacity:1"
         offset="0" />
      <stop
         id="stop3691"
         style="stop-color:#ffffff;stop-opacity:0"
         offset="1" />
    </linearGradient>
    <linearGradient
       id="linearGradient3487">
      <stop
         id="stop3489"
         style="stop-color:#9cb7d2;stop-opacity:1"
         offset="0" />
      <stop
         id="stop3491"
         style="stop-color:#e7edf3;stop-opacity:0"
         offset="1" />
    </linearGradient>
    <radialGradient
       cx="56.065952"
       cy="-15.871236"
       r="35.9375"
       fx="56.065952"
       fy="-15.871236"
       id="radialGradient3465"
       xlink:href="#linearGradient3224"
       gradientUnits="userSpaceOnUse"
       gradientTransform="matrix(0.00225966,0.925477,-1.3844339,0,25.901984,-30.21143)" />
    <linearGradient
       id="linearGradient3465">
      <stop
         id="stop3467"
         style="stop-color:#919191;stop-opacity:1"
         offset="0" />
      <stop
         id="stop3469"
         style="stop-color:#fdfdfd;stop-opacity:1"
         offset="1" />
    </linearGradient>
    <linearGradient
       id="linearGradient3187">
      <stop
         id="stop3189"
         style="stop-color:#b4b4b4;stop-opacity:1"
         offset="0" />
      <stop
         id="stop3191"
         style="stop-color:#e6e6e6;stop-opacity:1"
         offset="1" />
    </linearGradient>
    <linearGradient
       x1="45.447727"
       y1="92.539597"
       x2="45.447727"
       y2="7.0165396"
       id="ButtonShadow"
       gradientUnits="userSpaceOnUse"
       gradientTransform="scale(1.0058652,0.994169)">
      <stop
         id="stop3750"
         style="stop-color:#000000;stop-opacity:1"
         offset="0" />
      <stop
         id="stop3752"
         style="stop-color:#000000;stop-opacity:0.58823532"
         offset="1" />
    </linearGradient>
    <linearGradient
       id="linearGradient3737">
      <stop
         id="stop3739"
         style="stop-color:#ffffff;stop-opacity:1"
         offset="0" />
      <stop
         id="stop3741"
         style="stop-color:#ffffff;stop-opacity:0"
         offset="1" />
    </linearGradient>
    <filter
       color-interpolation-filters="sRGB"
       id="filter3174">
      <feGaussianBlur
         id="feGaussianBlur3176"
         stdDeviation="1.71" />
    </filter>
    <linearGradient
       x1="36.357143"
       y1="6"
       x2="36.357143"
       y2="63.893143"
       id="linearGradient3188"
       xlink:href="#linearGradient3737"
       gradientUnits="userSpaceOnUse" />
    <linearGradient
       x1="43.17857"
       y1="13"
       x2="43.17857"
       y2="83.294571"
       id="linearGradient3436"
       xlink:href="#linearGradient3465"
       gradientUnits="userSpaceOnUse"
       gradientTransform="matrix(1.0294118,0,0,1.0294118,-1.4117647,-1.4117647)" />
    <linearGradient
       x1="48"
       y1="90"
       x2="48"
       y2="5.9877172"
       id="linearGradient3466"
       xlink:href="#linearGradient3187"
       gradientUnits="userSpaceOnUse" />
    <linearGradient
       x1="76.45089"
       y1="8.0625"
       x2="76.45089"
       y2="72.765785"
       id="linearGradient3693"
       xlink:href="#linearGradient3687"
       gradientUnits="userSpaceOnUse" />
    <linearGradient
       x1="65.15625"
       y1="16.125"
       x2="65.15625"
       y2="69.687508"
       id="linearGradient3701"
       xlink:href="#linearGradient3487"
       gradientUnits="userSpaceOnUse" />
    <linearGradient
       x1="65.15625"
       y1="16.125"
       x2="65.15625"
       y2="69.687508"
       id="linearGradient2675"
       xlink:href="#linearGradient3737"
       gradientUnits="userSpaceOnUse" />
    <linearGradient
       id="linearGradient3737-1">
      <stop
         id="stop3739-7"
         style="stop-color:#ffffff;stop-opacity:1"
         offset="0" />
      <stop
         id="stop3741-2"
         style="stop-color:#ffffff;stop-opacity:0"
         offset="1" />
    </linearGradient>
    <radialGradient
       cx="48"
       cy="90.171875"
       r="42"
       fx="48"
       fy="90.171875"
       id="radialGradient2893"
       xlink:href="#linearGradient3737-1"
       gradientUnits="userSpaceOnUse"
       gradientTransform="matrix(1.1573129,0,0,0.99590774,-7.551021,0.1971319)" />
    <linearGradient
       id="linearGradient3224">
      <stop
         id="stop3226"
         style="stop-color:#80a2c8;stop-opacity:1"
         offset="0" />
      <stop
         id="stop3228"
         style="stop-color:#2e4c6d;stop-opacity:1"
         offset="1" />
    </linearGradient>
    <linearGradient
       x1="45.447727"
       y1="92.539597"
       x2="45.447727"
       y2="7.0165396"
       id="ButtonShadow-0"
       gradientUnits="userSpaceOnUse"
       gradientTransform="matrix(1.0058652,0,0,0.994169,100,0)">
      <stop
         id="stop3750-8"
         style="stop-color:#000000;stop-opacity:1"
         offset="0" />
      <stop
         id="stop3752-5"
         style="stop-color:#000000;stop-opacity:0.58823532"
         offset="1" />
    </linearGradient>
    <linearGradient
       x1="32.251034"
       y1="6.1317081"
       x2="32.251034"
       y2="90.238609"
       id="linearGradient3780"
       xlink:href="#ButtonShadow-0"
       gradientUnits="userSpaceOnUse"
       gradientTransform="matrix(1.0238095,0,0,1.0119048,-1.1428571,-98.071429)" />
    <linearGradient
       x1="32.251034"
       y1="6.1317081"
       x2="32.251034"
       y2="90.238609"
       id="linearGradient3772"
       xlink:href="#ButtonShadow-0"
       gradientUnits="userSpaceOnUse"
       gradientTransform="matrix(1.0238095,0,0,1.0119048,-1.1428571,-98.071429)" />
    <linearGradient
       x1="32.251034"
       y1="6.1317081"
       x2="32.251034"
       y2="90.238609"
       id="linearGradient3725"
       xlink:href="#ButtonShadow-0"
       gradientUnits="userSpaceOnUse"
       gradientTransform="matrix(1.0238095,0,0,1.0119048,-1.1428571,-98.071429)" />
    <linearGradient
       x1="32.251034"
       y1="6.1317081"
       x2="32.251034"
       y2="90.238609"
       id="linearGradient3721"
       xlink:href="#ButtonShadow-0"
       gradientUnits="userSpaceOnUse"
       gradientTransform="translate(0,-97)" />
    <linearGradient
       x1="32.251034"
       y1="6.1317081"
       x2="32.251034"
       y2="90.238609"
       id="linearGradient3122"
       xlink:href="#ButtonShadow-0"
       gradientUnits="userSpaceOnUse"
       gradientTransform="matrix(1.0238095,0,0,1.0119048,-1.1428571,-98.071429)" />
    <linearGradient
       id="linearGradient3175-9">
      <stop
         id="stop3177-5"
         style="stop-color:#4490e6;stop-opacity:1"
         offset="0" />
      <stop
         id="stop3179-7"
         style="stop-color:#103d8f;stop-opacity:1"
         offset="1" />
    </linearGradient>
    <radialGradient
       cx="56.065952"
       cy="-15.871236"
       r="35.9375"
       fx="56.065952"
       fy="-15.871236"
       id="radialGradient4528"
       xlink:href="#linearGradient3175-9"
       gradientUnits="userSpaceOnUse"
       gradientTransform="matrix(0.00225966,0.925477,-1.3844339,0,25.901984,-30.21143)" />
    <clipPath
       id="clipPath4038">
      <path
         d="m -76,14 0,64 68,0 0,-64 -68,0 z m 34,12 c 6.50735,0 11.78125,4.945511 11.78125,11.03125 -0.02598,0.764829 -0.09415,1.605113 -0.15625,2.5 0.889092,0.668695 0.997352,2.659222 0.125,4.71875 -0.31486,0.743355 -0.72972,1.352617 -1.15625,1.875 -0.13796,0.646091 -0.22861,1.153828 -0.40625,1.90625 -0.48333,1.452907 -2.36811,4.329946 -3.8125,6.5625 -0.09309,1.484798 -0.05787,2.961258 0.125,4.46875 4.51667,3.935446 16.2626,6.069292 16.28125,9.4375 L -19,70 l -46,0 0.21875,-1.5 c -0.0175,-3.935437 11.67727,-5.636066 16.25,-9.4375 0.31875,-1.862156 0.31468,-3.487911 0.15625,-5.125 -1.58867,-2.122151 -3.37592,-4.59385 -3.8125,-5.90625 -0.14093,-0.646342 -0.22721,-1.083246 -0.34375,-1.65625 -0.0164,-0.01791 -0.0462,-0.04411 -0.0625,-0.0625 -0.48819,-0.550325 -0.98953,-1.226226 -1.34375,-2.0625 -0.9186,-2.168737 -0.77983,-4.324897 0.25,-4.875 -0.0723,-0.867496 -0.078,-1.646314 -0.0937,-2.34375 C -53.78125,30.945499 -48.50735,26 -42,26 z"
         inkscape:connector-curvature="0"
         id="path4040"
         style="fill:#ff00ff;fill-opacity:1;fill-rule:nonzero;stroke:none" />
    </clipPath>
    <filter
       x="-0.23478261"
       y="-0.24545456"
       width="1.4695652"
       height="1.4909091"
       color-interpolation-filters="sRGB"
       id="filter4034">
      <feGaussianBlur
         id="feGaussianBlur4036"
         stdDeviation="4.4999998" />
    </filter>
  </defs>
  <metadata
     id="metadata2413">
    <rdf:RDF>
      <cc:Work
         rdf:about="">
        <dc:format>image/svg+xml</dc:format>
        <dc:type
           rdf:resource="http://purl.org/dc/dcmitype/StillImage" />
      </cc:Work>
    </rdf:RDF>
  </metadata>
  <g
     id="layer2"
     style="display:none">
    <rect
       width="86"
       height="85"
       rx="6"
       ry="6"
       x="5"
       y="7"
       id="rect3745"
       style="opacity:0.9;fill:url(#ButtonShadow);fill-opacity:1;fill-rule:nonzero;stroke:none;filter:url(#filter3174)" />
  </g>
  <path
     inkscape:connector-curvature="0"
     style="fill:#2c5aa0;fill-opacity:1;fill-rule:nonzero;stroke:none"
     id="path3215"
     d="M 96,96 96,0 0,0 0,96 96,96 z" />
  <rect
     style="fill:#2c5aa0;fill-opacity:1;stroke:#ffffff;stroke-width:4.22494459;stroke-linecap:butt;stroke-linejoin:miter;stroke-miterlimit:4;stroke-opacity:1;stroke-dasharray:none"
     id="rect3074"
     width="66.386925"
     height="65.16658"
     x="15.620092"
     y="16.433659"
     rx="2.7929385"
     ry="1.777899" />
  <path
     style="fill:#ffffff;fill-opacity:1;stroke:none;display:inline;enable-background:new"
     id="path3798-9"
     inkscape:connector-curvature="0"
     d="m 48.406783,26.372886 c -6.507352,0 -11.778227,4.945505 -11.778227,11.031255 0.01581,0.69743 0.02037,1.47625 0.09275,2.34375 -1.029838,0.5501 -1.165913,2.70626 -0.247312,4.875 0.354219,0.83627 0.841109,1.51217 1.329302,2.0625 0.01627,0.0184 0.04544,0.0446 0.06182,0.0625 0.116532,0.573 0.199124,1.00991 0.340054,1.65625 0.436585,1.3124 2.244664,3.7841 3.833332,5.90625 0.15843,1.63709 0.164185,3.26284 -0.15457,5.125 -4.572726,3.80143 -16.278279,5.50206 -16.260751,9.4375 l -0.216399,1.49999 46,0 -0.216398,-1.5 c -0.01865,-3.36821 -11.775004,-5.50206 -16.291667,-9.4375 -0.182873,-1.50749 -0.216748,-2.98395 -0.123654,-4.46875 1.444394,-2.23255 3.350003,-5.1096 3.833332,-6.5625 0.177636,-0.75243 0.263921,-1.26016 0.401881,-1.90625 0.42653,-0.52239 0.828959,-1.13165 1.143818,-1.875 0.87235,-2.05953 0.76544,-4.05006 -0.123656,-4.71875 0.06213,-0.89489 0.128597,-1.73517 0.154571,-2.5 7e-6,-6.08574 -5.270877,-11.031245 -11.778228,-11.031245 z" />
</svg>
