<?xml version="1.0" encoding="UTF-8" standalone="no"?>
<!-- Created with Inkscape (http://www.inkscape.org/) -->

<svg
   xmlns:dc="http://purl.org/dc/elements/1.1/"
   xmlns:cc="http://creativecommons.org/ns#"
   xmlns:rdf="http://www.w3.org/1999/02/22-rdf-syntax-ns#"
   xmlns:svg="http://www.w3.org/2000/svg"
   xmlns="http://www.w3.org/2000/svg"
   xmlns:xlink="http://www.w3.org/1999/xlink"
   xmlns:sodipodi="http://sodipodi.sourceforge.net/DTD/sodipodi-0.dtd"
   xmlns:inkscape="http://www.inkscape.org/namespaces/inkscape"
   version="1.0"
   width="96"
   height="96"
   id="svg2408"
   style="display:inline;enable-background:new"
   inkscape:version="0.48.4 r9939"
   sodipodi:docname="gnome-contacts.svg">
  <sodipodi:namedview
     pagecolor="#ffffff"
     bordercolor="#666666"
     borderopacity="1"
     objecttolerance="10"
     gridtolerance="10"
     guidetolerance="10"
     inkscape:pageopacity="0"
     inkscape:pageshadow="2"
     inkscape:window-width="640"
     inkscape:window-height="480"
     id="namedview135"
     showgrid="false"
     inkscape:zoom="4.9166667"
     inkscape:cx="25.278865"
     inkscape:cy="55.667398"
     inkscape:window-x="610"
     inkscape:window-y="145"
     inkscape:window-maximized="0"
     inkscape:current-layer="svg2408" />
  <defs
     id="defs2410">
    <linearGradient
       id="linearGradient4028">
      <stop
         id="stop4030"
         style="stop-color:#000000;stop-opacity:0.80916029"
         offset="0" />
      <stop
         id="stop4032"
         style="stop-color:#000000;stop-opacity:0.4351145"
         offset="1" />
    </linearGradient>
    <linearGradient
       id="linearGradient4022">
      <stop
         id="stop4024"
         style="stop-color:#752c1b;stop-opacity:1"
         offset="0" />
      <stop
         id="stop4026"
         style="stop-color:#bd634f;stop-opacity:1"
         offset="1" />
    </linearGradient>
    <linearGradient
       id="linearGradient3814">
      <stop
         id="stop3816"
         style="stop-color:#2499b6;stop-opacity:1"
         offset="0" />
      <stop
         id="stop3818"
         style="stop-color:#57c3de;stop-opacity:1"
         offset="1" />
    </linearGradient>
    <linearGradient
       id="linearGradient3806">
      <stop
         id="stop3808"
         style="stop-color:#4baa0c;stop-opacity:1"
         offset="0" />
      <stop
         id="stop3810"
         style="stop-color:#66d819;stop-opacity:1"
         offset="1" />
    </linearGradient>
    <linearGradient
       id="linearGradient3785">
      <stop
         id="stop3787"
         style="stop-color:#ff8e00;stop-opacity:1"
         offset="0" />
      <stop
         id="stop3789"
         style="stop-color:#ffcc0a;stop-opacity:1"
         offset="1" />
    </linearGradient>
    <linearGradient
       id="linearGradient3766">
      <stop
         id="stop3768"
         style="stop-color:#d9d9d9;stop-opacity:1"
         offset="0" />
      <stop
         id="stop3770"
         style="stop-color:#ffffff;stop-opacity:1"
         offset="1" />
    </linearGradient>
    <linearGradient
       id="linearGradient3746">
      <stop
         id="stop3748"
         style="stop-color:#e71e1e;stop-opacity:1"
         offset="0" />
      <stop
         id="stop3751"
         style="stop-color:#e94b4b;stop-opacity:1"
         offset="1" />
    </linearGradient>
    <linearGradient
       id="linearGradient3778">
      <stop
         id="stop3780"
         style="stop-color:#000000;stop-opacity:1"
         offset="0" />
      <stop
         id="stop3786"
         style="stop-color:#000000;stop-opacity:0"
         offset="0.5" />
      <stop
         id="stop3782"
         style="stop-color:#ffffff;stop-opacity:1"
         offset="1" />
    </linearGradient>
    <linearGradient
       id="linearGradient3761">
      <stop
         id="stop3763"
         style="stop-color:#000000;stop-opacity:1"
         offset="0" />
      <stop
         id="stop3769"
         style="stop-color:#000000;stop-opacity:0.19379845"
         offset="0.5" />
      <stop
         id="stop3765"
         style="stop-color:#000000;stop-opacity:0"
         offset="1" />
    </linearGradient>
    <linearGradient
       id="linearGradient3745">
      <stop
         id="stop3747"
         style="stop-color:#8a8a8a;stop-opacity:1"
         offset="0" />
      <stop
         id="stop3753"
         style="stop-color:#d5d5d5;stop-opacity:1"
         offset="0.40964222" />
      <stop
         id="stop3755"
         style="stop-color:#6f6f6f;stop-opacity:1"
         offset="0.72741055" />
      <stop
         id="stop3749"
         style="stop-color:#373737;stop-opacity:1"
         offset="1" />
    </linearGradient>
    <linearGradient
       id="linearGradient3640">
      <stop
         id="stop3642"
         style="stop-color:#3f1a17;stop-opacity:1"
         offset="0" />
      <stop
         id="stop3644"
         style="stop-color:#642a24;stop-opacity:1"
         offset="1" />
    </linearGradient>
    <linearGradient
       id="linearGradient3627">
      <stop
         id="stop3629"
         style="stop-color:#ae3317;stop-opacity:1"
         offset="0" />
      <stop
         id="stop3631"
         style="stop-color:#f46443;stop-opacity:1"
         offset="1" />
    </linearGradient>
    <linearGradient
       x1="45.447727"
       y1="92.539597"
       x2="45.447727"
       y2="7.0165396"
       id="ButtonShadow"
       gradientUnits="userSpaceOnUse"
       gradientTransform="scale(1.0058652,0.994169)">
      <stop
         id="stop3750"
         style="stop-color:#000000;stop-opacity:1"
         offset="0" />
      <stop
         id="stop3752"
         style="stop-color:#000000;stop-opacity:0.58823532"
         offset="1" />
    </linearGradient>
    <linearGradient
       id="linearGradient3737">
      <stop
         id="stop3739"
         style="stop-color:#ffffff;stop-opacity:1"
         offset="0" />
      <stop
         id="stop3741"
         style="stop-color:#ffffff;stop-opacity:0"
         offset="1" />
    </linearGradient>
    <filter
       color-interpolation-filters="sRGB"
       id="filter3174">
      <feGaussianBlur
         id="feGaussianBlur3176"
         stdDeviation="1.71" />
    </filter>
    <filter
       x="-0.192"
       y="-0.192"
       width="1.3839999"
       height="1.3839999"
       color-interpolation-filters="sRGB"
       id="filter3794">
      <feGaussianBlur
         id="feGaussianBlur3796"
         stdDeviation="5.28" />
    </filter>
    <linearGradient
       x1="48"
       y1="20.220806"
       x2="48"
       y2="138.66119"
       id="linearGradient3613"
       xlink:href="#linearGradient3737"
       gradientUnits="userSpaceOnUse" />
    <clipPath
       id="clipPath3613">
      <rect
         width="84"
         height="84"
         rx="6"
         ry="6"
         x="6"
         y="6"
         id="rect3615"
         style="fill:#ffffff;fill-opacity:1;fill-rule:nonzero;stroke:none" />
    </clipPath>
    <linearGradient
       x1="16"
       y1="88"
       x2="16"
       y2="8"
       id="linearGradient3646"
       xlink:href="#linearGradient3640"
       gradientUnits="userSpaceOnUse" />
    <linearGradient
       x1="9"
       y1="22"
       x2="9"
       y2="26"
       id="linearGradient3751"
       xlink:href="#linearGradient3745"
       gradientUnits="userSpaceOnUse" />
    <linearGradient
       x1="4"
       y1="24"
       x2="12"
       y2="24"
       id="linearGradient3767"
       xlink:href="#linearGradient3761"
       gradientUnits="userSpaceOnUse"
       spreadMethod="reflect" />
    <linearGradient
       x1="10"
       y1="24"
       x2="18"
       y2="24"
       id="linearGradient3784"
       xlink:href="#linearGradient3778"
       gradientUnits="userSpaceOnUse"
       gradientTransform="matrix(0,1,1,0,-10,10)" />
    <linearGradient
       x1="45.447727"
       y1="92.539597"
       x2="45.447727"
       y2="7.0165396"
       id="ButtonShadow-0"
       gradientUnits="userSpaceOnUse"
       gradientTransform="matrix(1.0058652,0,0,0.994169,100,0)">
      <stop
         id="stop3750-8"
         style="stop-color:#000000;stop-opacity:1"
         offset="0" />
      <stop
         id="stop3752-5"
         style="stop-color:#000000;stop-opacity:0.58823532"
         offset="1" />
    </linearGradient>
    <linearGradient
       x1="32.251034"
       y1="6.1317081"
       x2="32.251034"
       y2="90.238609"
       id="linearGradient3780"
       xlink:href="#ButtonShadow-0"
       gradientUnits="userSpaceOnUse"
       gradientTransform="matrix(1.0238095,0,0,1.0119048,-1.1428571,-98.071429)" />
    <linearGradient
       x1="32.251034"
       y1="6.1317081"
       x2="32.251034"
       y2="90.238609"
       id="linearGradient3772"
       xlink:href="#ButtonShadow-0"
       gradientUnits="userSpaceOnUse"
       gradientTransform="matrix(1.0238095,0,0,1.0119048,-1.1428571,-98.071429)" />
    <linearGradient
       x1="32.251034"
       y1="6.1317081"
       x2="32.251034"
       y2="90.238609"
       id="linearGradient3725"
       xlink:href="#ButtonShadow-0"
       gradientUnits="userSpaceOnUse"
       gradientTransform="matrix(1.0238095,0,0,1.0119048,-1.1428571,-98.071429)" />
    <linearGradient
       x1="32.251034"
       y1="6.1317081"
       x2="32.251034"
       y2="90.238609"
       id="linearGradient3721"
       xlink:href="#ButtonShadow-0"
       gradientUnits="userSpaceOnUse"
       gradientTransform="translate(0,-97)" />
    <linearGradient
       x1="32.251034"
       y1="6.1317081"
       x2="32.251034"
       y2="90.238609"
       id="linearGradient3059"
       xlink:href="#ButtonShadow-0"
       gradientUnits="userSpaceOnUse"
       gradientTransform="matrix(1.0238095,0,0,1.0119048,-1.1428571,-98.071429)" />
    <linearGradient
       x1="36.357143"
       y1="6"
       x2="36.357143"
       y2="63.893143"
       id="linearGradient3741"
       xlink:href="#linearGradient3737"
       gradientUnits="userSpaceOnUse" />
    <radialGradient
       cx="48"
       cy="90.171875"
       r="42"
       fx="48"
       fy="90.171875"
       id="radialGradient3744"
       xlink:href="#linearGradient3737"
       gradientUnits="userSpaceOnUse"
       gradientTransform="matrix(1.1573129,0,0,0.99590774,-7.5510206,0.19713193)" />
    <linearGradient
       x1="54.75"
       y1="90"
       x2="54.75"
       y2="5.9794726"
       id="linearGradient3755"
       xlink:href="#linearGradient4022"
       gradientUnits="userSpaceOnUse"
       gradientTransform="matrix(-1,0,0,1,360.50849,-15.050847)" />
    <linearGradient
       x1="88"
       y1="88"
       x2="88"
       y2="8"
       id="linearGradient3773"
       xlink:href="#linearGradient3766"
       gradientUnits="userSpaceOnUse" />
    <linearGradient
       x1="83"
       y1="26"
       x2="83"
       y2="9.9687805"
       id="linearGradient3791"
       xlink:href="#linearGradient3746"
       gradientUnits="userSpaceOnUse" />
    <linearGradient
       x1="84"
       y1="44"
       x2="84"
       y2="28"
       id="linearGradient3812"
       xlink:href="#linearGradient3806"
       gradientUnits="userSpaceOnUse"
       gradientTransform="translate(0,10)" />
    <linearGradient
       x1="84"
       y1="62"
       x2="84"
       y2="45.968781"
       id="linearGradient3820"
       xlink:href="#linearGradient3814"
       gradientUnits="userSpaceOnUse"
       gradientTransform="translate(0,6)" />
    <linearGradient
       x1="45.62162"
       y1="40.778378"
       x2="45.62162"
       y2="56"
       id="linearGradient4034"
       xlink:href="#linearGradient4028"
       gradientUnits="userSpaceOnUse"
       gradientTransform="matrix(2.1022727,0,0,2.1022727,-47.909089,-53.727272)" />
    <clipPath
       id="clipPath4124">
      <path
         d="M 12,6 C 8.676,6 6,8.676 6,12 l 0,72 c 0,3.324 2.676,6 6,6 l 64,0 c 3.324,0 6,-2.676 6,-6 L 82,12 C 82,8.676 79.324,6 76,6 L 12,6 z m 41,26 c 4.743704,0 8.53125,3.572546 8.53125,8 -0.01825,0.53641 -0.02106,1.191497 -0.0625,1.8125 0.702765,0.441929 0.716648,1.927473 0.0625,3.46875 -0.232692,0.54826 -0.496623,0.961126 -0.8125,1.34375 -0.09925,0.462922 -0.122812,0.837373 -0.25,1.375 -0.353893,1.061686 -1.7896,3.18573 -2.84375,4.8125 -0.06772,1.079485 -0.03947,2.185261 0.09375,3.28125 3.292538,2.863076 11.89258,4.362091 11.90625,6.8125 L 69.8125,64 36.1875,64 36.375,62.90625 c -0.01278,-2.863077 8.572836,-4.04691 11.90625,-6.8125 0.231115,-1.347492 0.113438,-2.534285 0,-3.71875 -1.15686,-1.542305 -2.432269,-3.421804 -2.75,-4.375 -0.113856,-0.521158 -0.06413,-0.73154 -0.15625,-1.1875 -0.37917,-0.408095 -0.726944,-0.887885 -1,-1.53125 -0.688569,-1.622398 -0.65495,-3.218212 0.15625,-3.5625 C 44.48626,41.14442 44.47947,40.471466 44.46875,40 c 0,-4.427454 3.78755,-8 8.53125,-8 z"
         inkscape:connector-curvature="0"
         id="path4126"
         style="fill:#ff00ff;fill-opacity:1;fill-rule:nonzero;stroke:none" />
    </clipPath>
    <filter
       x="-0.23416217"
       y="-0.24613637"
       width="1.4683243"
       height="1.4922727"
       color-interpolation-filters="sRGB"
       id="filter4128">
      <feGaussianBlur
         id="feGaussianBlur4130"
         stdDeviation="3.2818182" />
    </filter>
    <linearGradient
       x1="83"
       y1="26"
       x2="83"
       y2="9.9687805"
       id="linearGradient4146"
       xlink:href="#linearGradient3785"
       gradientUnits="userSpaceOnUse"
       gradientTransform="translate(0,14)" />
    <linearGradient
       x1="54.75"
       y1="90"
       x2="54.75"
       y2="5.9794726"
       id="linearGradient3957"
       xlink:href="#linearGradient3627"
       gradientUnits="userSpaceOnUse"
       gradientTransform="translate(130,0)" />
    <clipPath
       id="clipPath3959">
      <rect
         width="76"
         height="84"
         rx="6"
         ry="6"
         x="-34"
         y="6"
         id="rect3961"
         style="fill:#ff00ff;fill-opacity:1;fill-rule:nonzero;stroke:none" />
    </clipPath>
    <radialGradient
       inkscape:collect="always"
       xlink:href="#linearGradient3737"
       id="radialGradient3886"
       gradientUnits="userSpaceOnUse"
       gradientTransform="matrix(1.1573129,0,0,0.99590774,-321.9917,20.129335)"
       cx="48"
       cy="90.171875"
       fx="48"
       fy="90.171875"
       r="42" />
    <linearGradient
       inkscape:collect="always"
       xlink:href="#linearGradient3737"
       id="linearGradient3889"
       gradientUnits="userSpaceOnUse"
       x1="36.357143"
       y1="6"
       x2="36.357143"
       y2="63.893143"
       gradientTransform="translate(-314.44068,19.932203)" />
    <linearGradient
       inkscape:collect="always"
       xlink:href="#linearGradient3640"
       id="linearGradient3893"
       gradientUnits="userSpaceOnUse"
       x1="16"
       y1="88"
       x2="16"
       y2="8"
       gradientTransform="translate(-314.44068,19.932203)" />
    <linearGradient
       inkscape:collect="always"
       xlink:href="#linearGradient3766"
       id="linearGradient3918"
       gradientUnits="userSpaceOnUse"
       x1="88"
       y1="88"
       x2="88"
       y2="8"
       gradientTransform="translate(-314.44068,19.932203)" />
  </defs>
  <metadata
     id="metadata2413">
    <rdf:RDF>
      <cc:Work
         rdf:about="">
        <dc:format>image/svg+xml</dc:format>
        <dc:type
           rdf:resource="http://purl.org/dc/dcmitype/StillImage" />
        <dc:title />
      </cc:Work>
    </rdf:RDF>
  </metadata>
  <g
     id="layer2"
     style="display:none">
    <rect
       width="86"
       height="85"
       rx="6"
       ry="6"
       x="5"
       y="7"
       id="rect3745"
       style="opacity:0.9;fill:url(#ButtonShadow);fill-opacity:1;fill-rule:nonzero;stroke:none;filter:url(#filter3174)" />
  </g>
  <rect
     style="fill:#ae3317;fill-opacity:1;fill-rule:nonzero;stroke:none"
     id="rect3955"
     y="-2.9284666e-07"
     x="-6.1718752e-06"
     ry="0"
     rx="0"
     height="96"
     width="96" />
  <rect
     style="color:#000000;fill:#ffffff;fill-opacity:1;fill-rule:nonzero;stroke:none;stroke-width:1;marker:none;visibility:visible;display:inline;overflow:visible;enable-background:accumulate"
     id="rect4142"
     y="33.371487"
     x="71.058411"
     ry="1.5530055"
     rx="1.1859946"
     height="9.3180323"
     width="4.7439785" />
  <rect
     style="color:#000000;fill:#ffffff;fill-opacity:1;fill-rule:nonzero;stroke:none;stroke-width:1;marker:none;visibility:visible;display:inline;overflow:visible;enable-background:accumulate"
     id="rect3779"
     y="55.113567"
     x="71.058411"
     ry="1.5530055"
     rx="1.1859946"
     height="9.3180323"
     width="4.7439785" />
  <path
     style="opacity:0.2;color:#000000;fill:#ffffff;fill-opacity:1;fill-rule:nonzero;stroke:none;stroke-width:1;marker:none;visibility:visible;display:inline;overflow:visible;enable-background:accumulate"
     id="path3804"
     inkscape:connector-curvature="0"
     d="m 71.058412,62.10209 0,0.776503 c 0,0.860365 0.528954,1.553006 1.185995,1.553006 l 2.371989,0 c 0.657041,0 1.185995,-0.692641 1.185995,-1.553006 l 0,-0.776503 c 0,0.860365 -0.528954,1.553006 -1.185995,1.553006 l -2.371989,0 c -0.657041,0 -1.185995,-0.692641 -1.185995,-1.553006 z" />
  <rect
     style="color:#000000;fill:#ffffff;fill-opacity:1;fill-rule:nonzero;stroke:none;stroke-width:1;marker:none;visibility:visible;display:inline;overflow:visible;enable-background:accumulate"
     id="rect3775"
     y="22.500454"
     x="71.058411"
     ry="1.5530055"
     rx="1.1859946"
     height="9.3180323"
     width="4.7439785" />
  <path
     style="opacity:0.2;color:#000000;fill:#ffffff;fill-opacity:1;fill-rule:nonzero;stroke:none;stroke-width:1;marker:none;visibility:visible;display:inline;overflow:visible;enable-background:accumulate"
     id="rect3793"
     inkscape:connector-curvature="0"
     d="m 71.058412,29.488978 0,0.776503 c 0,0.860365 0.528954,1.553006 1.185995,1.553006 l 2.371989,0 c 0.657041,0 1.185995,-0.692641 1.185995,-1.553006 l 0,-0.776503 c 0,0.860365 -0.528954,1.553006 -1.185995,1.553006 l -2.371989,0 c -0.657041,0 -1.185995,-0.692641 -1.185995,-1.553006 z" />
  <rect
     style="color:#000000;fill:#ffffff;fill-opacity:1;fill-rule:nonzero;stroke:none;stroke-width:1;marker:none;visibility:visible;display:inline;overflow:visible;enable-background:accumulate"
     id="rect3777"
     y="44.242527"
     x="71.058411"
     ry="1.5530055"
     rx="1.1859946"
     height="9.3180323"
     width="4.7439785" />
  <path
     style="opacity:0.2;color:#000000;fill:#ffffff;fill-opacity:1;fill-rule:nonzero;stroke:none;stroke-width:1;marker:none;visibility:visible;display:inline;overflow:visible;enable-background:accumulate"
     id="path3802"
     inkscape:connector-curvature="0"
     d="m 71.058412,51.231053 0,0.776503 c 0,0.860365 0.528954,1.553005 1.185995,1.553005 l 2.371989,0 c 0.657041,0 1.185995,-0.69264 1.185995,-1.553005 l 0,-0.776503 c 0,0.860365 -0.528954,1.553005 -1.185995,1.553005 l -2.371989,0 c -0.657041,0 -1.185995,-0.69264 -1.185995,-1.553005 z" />
  <path
     style="opacity:0.2;color:#000000;fill:#ffffff;fill-opacity:1;fill-rule:nonzero;stroke:none;stroke-width:1;marker:none;visibility:visible;display:inline;overflow:visible;enable-background:accumulate"
     id="path4144"
     inkscape:connector-curvature="0"
     d="m 71.058412,40.360015 0,0.776503 c 0,0.860365 0.528954,1.553006 1.185995,1.553006 l 2.371989,0 c 0.657041,0 1.185995,-0.692641 1.185995,-1.553006 l 0,-0.776503 c 0,0.860365 -0.528954,1.553006 -1.185995,1.553006 l -2.371989,0 c -0.657041,0 -1.185995,-0.692641 -1.185995,-1.553006 z" />
  <rect
     rx="4.4574623"
     ry="7.7256579"
     y="17.551714"
     x="28.47628"
     height="62.320312"
     width="44.128876"
     id="rect3880"
     style="fill:#ae3317;fill-opacity:1;stroke:#ffffff;stroke-width:1.01393247;stroke-opacity:1" />
  <path
     style="fill:#ffffff;fill-opacity:1;fill-rule:nonzero;stroke:#ae3317;stroke-width:1.02409589;stroke-miterlimit:4;stroke-opacity:1;stroke-dasharray:none"
     id="rect3717"
     inkscape:connector-curvature="0"
     d="m 35.23669,16.44157 0,64.540587 -8.126236,0 c -2.250971,0 -4.063118,-2.056078 -4.063118,-4.610043 l 0,-55.320502 c 0,-2.553962 1.812147,-4.610041 4.063118,-4.610041 l 8.126236,0 z" />
  <path
     style="fill:#ffffff;fill-opacity:1;stroke:none"
     id="path3159"
     inkscape:connector-curvature="0"
     d="m 53.09931,28.712045 c -4.20837,0 -7.581092,3.370506 -7.581092,7.547577 0.0095,0.444803 0.04073,1.087741 0.08064,1.62959 -0.719655,0.324818 -0.77217,1.814303 -0.161306,3.344949 0.242242,0.606981 0.550769,1.073041 0.887149,1.458057 0.08173,0.430175 0.0603,0.623298 0.161308,1.114983 0.281875,0.89929 1.393189,2.661778 2.419497,4.116861 0.100635,1.11748 0.205033,2.245199 0,3.516486 -2.957236,2.609188 -10.576474,3.731432 -10.565139,6.432595 l -0.161292,1.029215 29.840469,0 -0.161308,-1.029215 c -0.0121,-2.311832 -7.644159,-3.731434 -10.565133,-6.432595 -0.118187,-1.034008 -0.140717,-2.069209 -0.08064,-3.087645 0.935188,-1.534773 2.186191,-3.544057 2.500142,-4.545702 0.112838,-0.507223 0.153902,-0.849777 0.241949,-1.286519 0.280235,-0.360987 0.519424,-0.769265 0.725856,-1.286521 0.580321,-1.454113 0.542816,-2.842244 -0.08067,-3.25918 0.03679,-0.585884 0.06447,-1.209285 0.08067,-1.715359 0,-4.177071 -3.372722,-7.547577 -7.581093,-7.547577 z" />
  <rect
     width="9.9926491"
     height="4.0519805"
     rx="1.6654415"
     ry="2.0259902"
     x="16.976372"
     y="22.160601"
     id="rect3733"
     style="fill:#ffffff;fill-opacity:1;stroke:#ae3317;stroke-width:0.91844553;stroke-opacity:1" />
  <rect
     width="9.9926491"
     height="4.0519805"
     rx="1.6654415"
     ry="2.0259902"
     x="16.976372"
     y="22.160601"
     id="rect3759"
     style="fill:#ffffff;fill-opacity:1;stroke:#ae3317;stroke-width:0.91844553;stroke-opacity:1" />
  <rect
     style="fill:#ffffff;fill-opacity:1;stroke:#ae3317;stroke-width:0.91844553;stroke-opacity:1"
     id="rect3974"
     y="34.31654"
     x="16.976372"
     ry="2.0259902"
     rx="1.6654415"
     height="4.0519805"
     width="9.9926491" />
  <rect
     style="fill:#ffffff;fill-opacity:1;stroke:#ae3317;stroke-width:0.91844553;stroke-opacity:1"
     id="rect3976"
     y="34.31654"
     x="16.976372"
     ry="2.0259902"
     rx="1.6654415"
     height="4.0519805"
     width="9.9926491" />
  <rect
     style="fill:#ffffff;fill-opacity:1;stroke:#ae3317;stroke-width:0.91844553;stroke-opacity:1"
     id="rect3962"
     y="46.472485"
     x="16.976372"
     ry="2.0259902"
     rx="1.6654415"
     height="4.0519805"
     width="9.9926491" />
  <rect
     style="fill:#ffffff;fill-opacity:1;stroke:#ae3317;stroke-width:0.91844553;stroke-opacity:1"
     id="rect3964"
     y="46.472485"
     x="16.976372"
     ry="2.0259902"
     rx="1.6654415"
     height="4.0519805"
     width="9.9926491" />
  <rect
     style="fill:#ffffff;fill-opacity:1;stroke:#ae3317;stroke-width:0.91844553;stroke-opacity:1"
     id="rect3950"
     y="58.628422"
     x="16.976372"
     ry="2.0259902"
     rx="1.6654415"
     height="4.0519805"
     width="9.9926491" />
  <rect
     style="fill:#ffffff;fill-opacity:1;stroke:#ae3317;stroke-width:0.91844553;stroke-opacity:1"
     id="rect3952"
     y="58.628422"
     x="16.976372"
     ry="2.0259902"
     rx="1.6654415"
     height="4.0519805"
     width="9.9926491" />
  <rect
     style="fill:#ffffff;fill-opacity:1;stroke:#ae3317;stroke-width:0.91844553;stroke-opacity:1"
     id="rect3938"
     y="70.78437"
     x="16.976372"
     ry="2.0259902"
     rx="1.6654415"
     height="4.0519805"
     width="9.9926491" />
  <rect
     style="fill:#ffffff;fill-opacity:1;stroke:#ae3317;stroke-width:0.91844553;stroke-opacity:1"
     id="rect3940"
     y="70.78437"
     x="16.976372"
     ry="2.0259902"
     rx="1.6654415"
     height="4.0519805"
     width="9.9926491" />
</svg>
