<?xml version="1.0" encoding="UTF-8" standalone="no"?>
<!-- Created with Inkscape (http://www.inkscape.org/) -->

<svg
   xmlns:dc="http://purl.org/dc/elements/1.1/"
   xmlns:cc="http://creativecommons.org/ns#"
   xmlns:rdf="http://www.w3.org/1999/02/22-rdf-syntax-ns#"
   xmlns:svg="http://www.w3.org/2000/svg"
   xmlns="http://www.w3.org/2000/svg"
   xmlns:xlink="http://www.w3.org/1999/xlink"
   xmlns:sodipodi="http://sodipodi.sourceforge.net/DTD/sodipodi-0.dtd"
   xmlns:inkscape="http://www.inkscape.org/namespaces/inkscape"
   version="1.0"
   width="96"
   height="96"
   id="svg2408"
   inkscape:version="0.48.4 r9939"
   sodipodi:docname="gnome-logout.svg">
  <sodipodi:namedview
     pagecolor="#ffffff"
     bordercolor="#666666"
     borderopacity="1"
     objecttolerance="10"
     gridtolerance="10"
     guidetolerance="10"
     inkscape:pageopacity="0"
     inkscape:pageshadow="2"
     inkscape:window-width="1366"
     inkscape:window-height="691"
     id="namedview134"
     showgrid="false"
     inkscape:zoom="1.7383042"
     inkscape:cx="48"
     inkscape:cy="48"
     inkscape:window-x="0"
     inkscape:window-y="24"
     inkscape:window-maximized="1"
     inkscape:current-layer="svg2408" />
  <defs
     id="defs2410">
    <linearGradient
       x1="45.447727"
       y1="92.539597"
       x2="45.447727"
       y2="7.0165396"
       id="ButtonShadow"
       gradientUnits="userSpaceOnUse"
       gradientTransform="scale(1.0058652,0.994169)">
      <stop
         id="stop3750"
         style="stop-color:#000000;stop-opacity:1"
         offset="0" />
      <stop
         id="stop3752"
         style="stop-color:#000000;stop-opacity:0.58823532"
         offset="1" />
    </linearGradient>
    <linearGradient
       id="linearGradient3737">
      <stop
         id="stop3739"
         style="stop-color:#ffffff;stop-opacity:1"
         offset="0" />
      <stop
         id="stop3741"
         style="stop-color:#ffffff;stop-opacity:0"
         offset="1" />
    </linearGradient>
    <filter
       color-interpolation-filters="sRGB"
       id="filter3174">
      <feGaussianBlur
         id="feGaussianBlur3176"
         stdDeviation="1.71" />
    </filter>
    <linearGradient
       x1="36.357143"
       y1="6"
       x2="36.357143"
       y2="63.893143"
       id="linearGradient3188"
       xlink:href="#linearGradient3737"
       gradientUnits="userSpaceOnUse" />
    <filter
       x="-0.192"
       y="-0.192"
       width="1.3839999"
       height="1.3839999"
       color-interpolation-filters="sRGB"
       id="filter3794">
      <feGaussianBlur
         id="feGaussianBlur3796"
         stdDeviation="5.28" />
    </filter>
    <linearGradient
       x1="48"
       y1="20.220806"
       x2="48"
       y2="138.66119"
       id="linearGradient3613"
       xlink:href="#linearGradient3737"
       gradientUnits="userSpaceOnUse" />
    <radialGradient
       cx="48"
       cy="90.171875"
       r="42"
       fx="48"
       fy="90.171875"
       id="radialGradient3619"
       xlink:href="#linearGradient3737"
       gradientUnits="userSpaceOnUse"
       gradientTransform="matrix(1.1573129,0,0,0.99590774,-7.5510206,0.19713193)" />
    <clipPath
       id="clipPath3613">
      <rect
         width="84"
         height="84"
         rx="6"
         ry="6"
         x="6"
         y="6"
         id="rect3615"
         style="fill:#ffffff;fill-opacity:1;fill-rule:nonzero;stroke:none" />
    </clipPath>
    <linearGradient
       x1="48"
       y1="90"
       x2="48"
       y2="5.9877172"
       id="linearGradient3617"
       xlink:href="#linearGradient4081"
       gradientUnits="userSpaceOnUse" />
    <linearGradient
       x1="45.447727"
       y1="92.539597"
       x2="45.447727"
       y2="7.0165396"
       id="ButtonShadow-0"
       gradientUnits="userSpaceOnUse"
       gradientTransform="matrix(1.0058652,0,0,0.994169,100,0)">
      <stop
         id="stop3750-8"
         style="stop-color:#000000;stop-opacity:1"
         offset="0" />
      <stop
         id="stop3752-5"
         style="stop-color:#000000;stop-opacity:0.58823532"
         offset="1" />
    </linearGradient>
    <linearGradient
       x1="32.251034"
       y1="6.1317081"
       x2="32.251034"
       y2="90.238609"
       id="linearGradient3780"
       xlink:href="#ButtonShadow-0"
       gradientUnits="userSpaceOnUse"
       gradientTransform="matrix(1.0238095,0,0,1.0119048,-1.1428571,-98.071429)" />
    <linearGradient
       x1="32.251034"
       y1="6.1317081"
       x2="32.251034"
       y2="90.238609"
       id="linearGradient3772"
       xlink:href="#ButtonShadow-0"
       gradientUnits="userSpaceOnUse"
       gradientTransform="matrix(1.0238095,0,0,1.0119048,-1.1428571,-98.071429)" />
    <linearGradient
       x1="32.251034"
       y1="6.1317081"
       x2="32.251034"
       y2="90.238609"
       id="linearGradient3725"
       xlink:href="#ButtonShadow-0"
       gradientUnits="userSpaceOnUse"
       gradientTransform="matrix(1.0238095,0,0,1.0119048,-1.1428571,-98.071429)" />
    <linearGradient
       x1="32.251034"
       y1="6.1317081"
       x2="32.251034"
       y2="90.238609"
       id="linearGradient3721"
       xlink:href="#ButtonShadow-0"
       gradientUnits="userSpaceOnUse"
       gradientTransform="translate(0,-97)" />
    <linearGradient
       x1="32.251034"
       y1="6.1317081"
       x2="32.251034"
       y2="90.238609"
       id="linearGradient3026"
       xlink:href="#ButtonShadow-0"
       gradientUnits="userSpaceOnUse"
       gradientTransform="matrix(1.0238095,0,0,1.0119048,-1.1428571,-98.071429)" />
    <linearGradient
       id="linearGradient4081">
      <stop
         id="stop4083"
         style="stop-color:#8c8c8c;stop-opacity:1"
         offset="0" />
      <stop
         id="stop4085"
         style="stop-color:#dcdcdc;stop-opacity:1"
         offset="1" />
    </linearGradient>
    <linearGradient
       id="linearGradient4281-6">
      <stop
         id="stop4283-9"
         style="stop-color:#1e1e1e;stop-opacity:1"
         offset="0" />
      <stop
         id="stop4285-8"
         style="stop-color:#505050;stop-opacity:1"
         offset="1" />
    </linearGradient>
    <linearGradient
       x1="15.99578"
       y1="47.995781"
       x2="79.995781"
       y2="47.995781"
       id="linearGradient4416"
       xlink:href="#linearGradient4281-6"
       gradientUnits="userSpaceOnUse"
       gradientTransform="matrix(0,1,-1,0,95.99578,0.00422008)" />
    <clipPath
       id="clipPath4194-1">
      <rect
         width="84"
         height="84"
         rx="6"
         ry="6"
         x="6"
         y="6"
         id="rect4196-1"
         style="fill:#ff00ff;fill-opacity:1;fill-rule:nonzero;stroke:none" />
    </clipPath>
    <linearGradient
       x1="48.233639"
       y1="48.047016"
       x2="126.13924"
       y2="66.232674"
       id="linearGradient4077-0"
       xlink:href="#linearGradient4071-3"
       gradientUnits="userSpaceOnUse" />
    <linearGradient
       id="linearGradient4071-3">
      <stop
         id="stop4073-8"
         style="stop-color:#000000;stop-opacity:1"
         offset="0" />
      <stop
         id="stop4075-4"
         style="stop-color:#000000;stop-opacity:0"
         offset="1" />
    </linearGradient>
    <linearGradient
       x1="48.055065"
       y1="48.031517"
       x2="126.67282"
       y2="62.838562"
       id="linearGradient4069-9"
       xlink:href="#linearGradient4047-2"
       gradientUnits="userSpaceOnUse" />
    <linearGradient
       id="linearGradient4047-2">
      <stop
         id="stop4049-0"
         style="stop-color:#000000;stop-opacity:1"
         offset="0" />
      <stop
         id="stop4051-5"
         style="stop-color:#000000;stop-opacity:0"
         offset="1" />
    </linearGradient>
    <linearGradient
       x1="47.997307"
       y1="48.028725"
       x2="127.05216"
       y2="60.289631"
       id="linearGradient4061-6"
       xlink:href="#linearGradient4047-2"
       gradientUnits="userSpaceOnUse" />
    <linearGradient
       x1="47.99826"
       y1="48.028797"
       x2="127.41583"
       y2="57.664623"
       id="linearGradient4053-2"
       xlink:href="#linearGradient4047-2"
       gradientUnits="userSpaceOnUse" />
    <linearGradient
       x1="48.233643"
       y1="48.04702"
       x2="126.13924"
       y2="66.232674"
       id="linearGradient4145-0"
       xlink:href="#linearGradient4115-2"
       gradientUnits="userSpaceOnUse" />
    <linearGradient
       id="linearGradient4115-2">
      <stop
         id="stop4117-3"
         style="stop-color:#ffffff;stop-opacity:1"
         offset="0" />
      <stop
         id="stop4119-6"
         style="stop-color:#ffffff;stop-opacity:0"
         offset="1" />
    </linearGradient>
    <linearGradient
       x1="48.055069"
       y1="48.031521"
       x2="126.67282"
       y2="62.838566"
       id="linearGradient4137-7"
       xlink:href="#linearGradient4115-2"
       gradientUnits="userSpaceOnUse" />
    <linearGradient
       x1="47.997311"
       y1="48.028728"
       x2="127.05216"
       y2="60.289635"
       id="linearGradient4129-8"
       xlink:href="#linearGradient4115-2"
       gradientUnits="userSpaceOnUse" />
    <linearGradient
       x1="47.998264"
       y1="48.028801"
       x2="127.41583"
       y2="57.664627"
       id="linearGradient4121-6"
       xlink:href="#linearGradient4115-2"
       gradientUnits="userSpaceOnUse" />
    <linearGradient
       x1="48.233639"
       y1="48.047016"
       x2="126.13924"
       y2="66.232674"
       id="linearGradient4089-7"
       xlink:href="#linearGradient4071-3"
       gradientUnits="userSpaceOnUse" />
    <linearGradient
       x1="48.055065"
       y1="48.031517"
       x2="126.67282"
       y2="62.838562"
       id="linearGradient4091-0"
       xlink:href="#linearGradient4047-2"
       gradientUnits="userSpaceOnUse" />
    <linearGradient
       x1="47.997307"
       y1="48.028725"
       x2="127.05216"
       y2="60.289631"
       id="linearGradient4093-5"
       xlink:href="#linearGradient4047-2"
       gradientUnits="userSpaceOnUse" />
    <linearGradient
       x1="47.99826"
       y1="48.028797"
       x2="127.41583"
       y2="57.664623"
       id="linearGradient4095-8"
       xlink:href="#linearGradient4047-2"
       gradientUnits="userSpaceOnUse" />
    <linearGradient
       x1="48.233639"
       y1="48.047016"
       x2="126.13924"
       y2="66.232674"
       id="linearGradient4107-8"
       xlink:href="#linearGradient4071-3"
       gradientUnits="userSpaceOnUse" />
    <linearGradient
       x1="48.055065"
       y1="48.031517"
       x2="126.67282"
       y2="62.838562"
       id="linearGradient4109-3"
       xlink:href="#linearGradient4047-2"
       gradientUnits="userSpaceOnUse" />
    <linearGradient
       x1="47.997307"
       y1="48.028725"
       x2="127.05216"
       y2="60.289631"
       id="linearGradient4111-3"
       xlink:href="#linearGradient4047-2"
       gradientUnits="userSpaceOnUse" />
    <linearGradient
       x1="47.99826"
       y1="48.028797"
       x2="127.41583"
       y2="57.664623"
       id="linearGradient4113-5"
       xlink:href="#linearGradient4047-2"
       gradientUnits="userSpaceOnUse" />
    <linearGradient
       x1="48.233643"
       y1="48.04702"
       x2="126.13924"
       y2="66.232674"
       id="linearGradient4157-8"
       xlink:href="#linearGradient4115-2"
       gradientUnits="userSpaceOnUse" />
    <linearGradient
       x1="48.055069"
       y1="48.031521"
       x2="126.67282"
       y2="62.838566"
       id="linearGradient4159-8"
       xlink:href="#linearGradient4115-2"
       gradientUnits="userSpaceOnUse" />
    <linearGradient
       x1="47.997311"
       y1="48.028728"
       x2="127.05216"
       y2="60.289635"
       id="linearGradient4161-2"
       xlink:href="#linearGradient4115-2"
       gradientUnits="userSpaceOnUse" />
    <linearGradient
       x1="47.998264"
       y1="48.028801"
       x2="127.41583"
       y2="57.664627"
       id="linearGradient4163-3"
       xlink:href="#linearGradient4115-2"
       gradientUnits="userSpaceOnUse" />
    <radialGradient
       cx="48"
       cy="90.171875"
       r="42"
       fx="48"
       fy="90.171875"
       id="radialGradient3619-8"
       xlink:href="#linearGradient3737-6"
       gradientUnits="userSpaceOnUse"
       gradientTransform="matrix(1.1573129,0,0,0.99590774,-7.551021,0.1971319)" />
    <linearGradient
       id="linearGradient3737-6">
      <stop
         id="stop3739-9"
         style="stop-color:#ffffff;stop-opacity:1"
         offset="0" />
      <stop
         id="stop3741-6"
         style="stop-color:#ffffff;stop-opacity:0"
         offset="1" />
    </linearGradient>
    <linearGradient
       x1="36.357143"
       y1="6"
       x2="36.357143"
       y2="63.893143"
       id="linearGradient3047"
       xlink:href="#linearGradient3737-6"
       gradientUnits="userSpaceOnUse" />
    <radialGradient
       cx="48.410488"
       cy="47.59774"
       r="30.640047"
       fx="48.410488"
       fy="47.59774"
       id="radialGradient3814-9"
       xlink:href="#linearGradient3796-9"
       gradientUnits="userSpaceOnUse"
       gradientTransform="matrix(1,0,0,0.98495914,-30,0.71591078)" />
    <linearGradient
       id="linearGradient3796-9">
      <stop
         id="stop3798-4"
         style="stop-color:#ffffff;stop-opacity:0"
         offset="0" />
      <stop
         id="stop3800-9"
         style="stop-color:#ffffff;stop-opacity:1"
         offset="1" />
    </linearGradient>
    <linearGradient
       id="linearGradient3780-6-5">
      <stop
         id="stop3782-4"
         style="stop-color:#000000;stop-opacity:0"
         offset="0" />
      <stop
         id="stop3784-9"
         style="stop-color:#000000;stop-opacity:1"
         offset="1" />
    </linearGradient>
    <radialGradient
       cx="48.265148"
       cy="47.886696"
       r="28.878813"
       fx="48.265148"
       fy="47.886696"
       id="radialGradient5008"
       xlink:href="#linearGradient3780-6-5"
       gradientUnits="userSpaceOnUse"
       gradientTransform="matrix(1,0,0,1.013812,-30,-0.66140908)" />
  </defs>
  <metadata
     id="metadata2413">
    <rdf:RDF>
      <cc:Work
         rdf:about="">
        <dc:format>image/svg+xml</dc:format>
        <dc:type
           rdf:resource="http://purl.org/dc/dcmitype/StillImage" />
        <dc:title />
      </cc:Work>
    </rdf:RDF>
  </metadata>
  <g
     id="layer2"
     style="display:none">
    <rect
       width="86"
       height="85"
       rx="6"
       ry="6"
       x="5"
       y="7"
       id="rect3745"
       style="opacity:0.9;fill:url(#ButtonShadow);fill-opacity:1;fill-rule:nonzero;stroke:none;filter:url(#filter3174)" />
  </g>
  <rect
     style="fill:#00ccff;fill-opacity:1;stroke:none"
     id="rect3111"
     width="96"
     height="96"
     x="0"
     y="1.5543122e-14" />
  <g
     id="layer4"
     style="fill:#ffffff;display:inline"
     transform="translate(-0.38282752,0.20937712)">
    <path
       d="m 79.99578,48.00422 c 0,-2.216 -1.784,-4 -4,-4 l -24,0 c -2.216,0 -4,1.784 -4,4 0,2.216 1.784,4 4,4 l 24,0 c 2.216,0 4,-1.784 4,-4 z m -7.1875,11.6875 a 4.0004,4.0004 0 0 0 -7.5,-1.6875 c -5.546537,9.606884 -17.705616,12.859037 -27.3125,7.3125 -9.606884,-5.546537 -12.859037,-17.705616 -7.3125,-27.3125 5.546537,-9.606884 17.705616,-12.859037 27.3125,-7.3125 3.040561,1.755469 5.557032,4.271939 7.3125,7.3125 a 4.0040264,4.0040264 0 0 0 6.9375,-4 c -2.457412,-4.256362 -5.993638,-7.792589 -10.25,-10.25 -13.351162,-7.708297 -30.541703,-3.101162 -38.25,10.25 -7.708297,13.351162 -3.101162,30.541703 10.25,38.25 13.351162,7.708297 30.541703,3.101162 38.25,-10.25 a 4.0004,4.0004 0 0 0 0.5625,-2.3125 z"
       inkscape:connector-curvature="0"
       id="rect4223"
       style="color:#000000;fill:#ffffff;fill-opacity:1;stroke:none;stroke-width:6;marker:none;visibility:visible;display:inline;overflow:visible;enable-background:accumulate" />
    <path
       d="m 79.99578,48.00422 c 0.09191,-2.609899 -2.55436,-4.394451 -4.98453,-4 -7.808354,0.01371 -15.618083,-0.02742 -23.425577,0.02058 -3.241671,0.160202 -4.822644,4.63873 -2.420893,6.810424 1.866509,1.809782 4.606545,0.977858 6.933208,1.168996 6.769128,-0.0137 13.539631,0.02741 20.307899,-0.02058 1.992255,-0.162036 3.632321,-1.980544 3.589893,-3.979424 z m -2,0 c 0.03411,2.101939 -2.285828,2.097998 -3.804972,2 -7.536507,-0.0258 -15.077808,0.05162 -22.611317,-0.03874 -2.717735,-0.510358 -1.508868,-4.720653 1.072642,-3.96126 7.91938,0.0258 15.843554,-0.05162 23.759936,0.03874 0.927128,0.148803 1.614511,1.03176 1.583711,1.96126 z m -5.1875,11.6875 c -0.02315,-3.325639 -4.614343,-5.060792 -6.83126,-2.581741 -2.050077,3.22823 -4.513497,6.342688 -7.940679,8.212112 -7.669473,4.640469 -18.288158,3.104467 -24.418526,-3.404795 -6.446662,-6.392456 -7.480776,-17.282038 -2.395454,-24.795029 4.847815,-7.847425 15.488636,-11.286704 24.01174,-7.760528 4.511754,1.691986 8.139247,5.173572 10.540811,9.291641 2.069054,2.607584 6.758654,1.144311 6.977678,-2.177211 0.151911,-2.78199 -2.181289,-4.864426 -3.707608,-6.937634 C 62.032529,21.329856 50.053718,17.967577 39.784986,21.26039 29.319813,24.313879 21.249194,34.015491 20.178414,44.867808 18.83512,55.90845 24.760411,67.417001 34.624377,72.60654 c 9.899375,5.555927 23.073095,4.104535 31.602801,-3.354244 2.631468,-2.341003 5.105078,-5.079362 6.473874,-8.353628 0.09674,-0.393763 0.133034,-0.802309 0.107228,-1.206948 z m -1.96875,0.125 c -0.139659,1.748669 -1.643663,3.049276 -2.549895,4.462255 -7.137048,9.1873 -20.747985,12.397857 -31.227249,7.330312 C 26.991994,67.114746 20.678763,55.711776 22.183777,44.785772 23.373136,33.854464 32.26108,24.381991 43.088212,22.473873 53.689081,20.24107 65.248348,25.570554 70.52703,35.00422 c 1.10489,1.690027 -1.153258,3.881219 -2.8125,2.71875 -1.405801,-1.392015 -2.160339,-3.395248 -3.676012,-4.749842 -6.449288,-7.085886 -17.698903,-9.05173 -26.149578,-4.501247 -8.996729,4.459947 -13.904022,15.561321 -11.135273,25.216084 2.413734,9.754203 12.219644,16.907334 22.238862,16.283092 7.578333,-0.25118 14.693285,-4.822043 18.347001,-11.404337 1.121832,-1.328284 3.440224,-0.47947 3.5,1.25 z"
       inkscape:connector-curvature="0"
       id="path4321"
       style="opacity:0.1;color:#000000;fill:#ffffff;fill-opacity:1;stroke:none;stroke-width:6;marker:none;visibility:visible;display:inline;overflow:visible;enable-background:accumulate" />
    <path
       d="m 79.99578,48.00422 c 0.09191,-2.609899 -2.55436,-4.394451 -4.98453,-4 -7.808354,0.01371 -15.618083,-0.02742 -23.425577,0.02058 -3.241671,0.160202 -4.822644,4.63873 -2.420893,6.810424 1.866509,1.809782 4.606545,0.977858 6.933208,1.168996 6.769128,-0.0137 13.539631,0.02741 20.307899,-0.02058 1.992255,-0.162036 3.632321,-1.980544 3.589893,-3.979424 z m -0.96875,0 c 0.07434,2.657794 -2.740768,3.272162 -4.836222,3.03125 -7.603327,-0.03994 -15.214484,0.08018 -22.812878,-0.06059 -3.905362,-0.662775 -2.52605,-6.865423 1.274203,-6.001908 7.781216,0 15.562431,0 23.343647,0 1.637393,-0.04784 3.078938,1.393064 3.03125,3.031248 z m -6.21875,11.6875 c -0.02315,-3.325639 -4.614343,-5.060792 -6.83126,-2.581741 -2.050077,3.22823 -4.513497,6.342688 -7.940679,8.212112 -7.669473,4.640469 -18.288158,3.104467 -24.418526,-3.404795 -6.446662,-6.392456 -7.480776,-17.282038 -2.395454,-24.795029 4.847815,-7.847425 15.488636,-11.286704 24.01174,-7.760528 4.511754,1.691986 8.139247,5.173572 10.540811,9.291641 2.069054,2.607584 6.758654,1.144311 6.977678,-2.177211 0.151911,-2.78199 -2.181289,-4.864426 -3.707608,-6.937634 C 62.032529,21.329856 50.053718,17.967577 39.784986,21.26039 29.319813,24.313879 21.249194,34.015491 20.178414,44.867808 18.83512,55.90845 24.760411,67.417001 34.624377,72.60654 c 9.899375,5.555927 23.073095,4.104535 31.602801,-3.354244 2.631468,-2.341003 5.105078,-5.079362 6.473874,-8.353628 0.09674,-0.393763 0.133034,-0.802309 0.107228,-1.206948 z m -0.96875,0.0625 c -0.02689,2.156467 -1.837947,3.762398 -2.97582,5.444945 C 61.667977,74.164529 48.463757,77.50954 37.863211,73.069263 27.792926,69.155436 20.804477,58.710379 20.974018,47.908748 20.851287,36.932557 28.176016,26.363964 38.540003,22.695704 c 10.225575,-3.992726 22.652321,-0.866213 29.778421,7.472358 1.359286,1.914974 3.617831,3.793685 3.458606,6.336158 -0.30251,2.726728 -4.377924,3.466308 -5.625,1.03125 C 61.572217,29.315494 51.078331,25.045807 42.075236,27.881046 32.495767,30.507958 25.812,40.643607 27.165403,50.482885 28.126,60.014967 36.400138,68.076728 45.93141,68.878727 c 8.209962,0.932534 16.568577,-3.58987 20.50187,-10.812007 1.606625,-2.219982 5.32318,-1.052103 5.40625,1.6875 z"
       inkscape:connector-curvature="0"
       id="path4307"
       style="opacity:0.2;color:#000000;fill:#ffffff;fill-opacity:1;stroke:none;stroke-width:6;marker:none;visibility:visible;display:inline;overflow:visible;enable-background:accumulate" />
    <path
       d="M 47.40625,20.03125 C 37.945358,20.252111 28.80857,25.2383 23.75,34 21.161894,38.48273 19.977849,43.405857 20.03125,48.25 20.143726,43.734427 21.341157,39.172238 23.75,35 31.458297,21.648838 48.648838,17.041703 62,24.75 66.256362,27.207411 69.792588,30.743638 72.25,35 a 4.0040264,4.0040264 0 0 1 0.5,1.46875 A 4.0040264,4.0040264 0 0 0 72.25,34 C 69.792588,29.743638 66.256362,26.207411 62,23.75 57.410538,21.100273 52.361956,19.915561 47.40625,20.03125 z M 52,44 c -2.216,0 -4,1.784 -4,4 0,0.170274 0.0108,0.335441 0.03125,0.5 C 48.276974,46.52293 49.954274,45 52,45 l 24,0 c 2.045352,0 3.691297,1.523459 3.9375,3.5 C 79.958041,48.335093 80,48.170648 80,48 80,45.784 78.216,44 76,44 L 52,44 z M 28,48.28125 C 27.734445,55.431777 31.337402,62.465847 38,66.3125 47.606884,71.859037 59.765963,68.606884 65.3125,59 A 4.0004,4.0004 0 0 1 72.78125,60.5 4.0004,4.0004 0 0 0 72.8125,59.6875 4.0004,4.0004 0 0 0 65.3125,58 C 59.765963,67.606884 47.606884,70.859037 38,65.3125 31.646995,61.644591 28.088201,55.082281 28,48.28125 z"
       inkscape:connector-curvature="0"
       id="path5058"
       style="opacity:0.6;color:#000000;fill:#ffffff;fill-opacity:1;stroke:none;stroke-width:6;marker:none;visibility:visible;display:inline;overflow:visible;enable-background:accumulate" />
  </g>
</svg>
