<?xml version="1.0" encoding="UTF-8" standalone="no"?>
<!-- Created with Inkscape (http://www.inkscape.org/) -->

<svg
   xmlns:dc="http://purl.org/dc/elements/1.1/"
   xmlns:cc="http://creativecommons.org/ns#"
   xmlns:rdf="http://www.w3.org/1999/02/22-rdf-syntax-ns#"
   xmlns:svg="http://www.w3.org/2000/svg"
   xmlns="http://www.w3.org/2000/svg"
   xmlns:xlink="http://www.w3.org/1999/xlink"
   xmlns:sodipodi="http://sodipodi.sourceforge.net/DTD/sodipodi-0.dtd"
   xmlns:inkscape="http://www.inkscape.org/namespaces/inkscape"
   version="1.0"
   width="96"
   height="96"
   id="svg2408"
   inkscape:version="0.48.4 r9939"
   sodipodi:docname="gnome-sticky-notes-applet.svg">
  <sodipodi:namedview
     pagecolor="#ffffff"
     bordercolor="#666666"
     borderopacity="1"
     objecttolerance="10"
     gridtolerance="10"
     guidetolerance="10"
     inkscape:pageopacity="0"
     inkscape:pageshadow="2"
     inkscape:window-width="640"
     inkscape:window-height="480"
     id="namedview71"
     showgrid="false"
     inkscape:zoom="2.4583333"
     inkscape:cx="48"
     inkscape:cy="60.69498"
     inkscape:window-x="170"
     inkscape:window-y="196"
     inkscape:window-maximized="0"
     inkscape:current-layer="layer1" />
  <defs
     id="defs2410">
    <linearGradient
       x1="45.447727"
       y1="92.539597"
       x2="45.447727"
       y2="7.0165396"
       id="ButtonShadow"
       gradientUnits="userSpaceOnUse"
       gradientTransform="scale(1.0058652,0.994169)">
      <stop
         id="stop3750"
         style="stop-color:#000000;stop-opacity:1"
         offset="0" />
      <stop
         id="stop3752"
         style="stop-color:#000000;stop-opacity:0.58823532"
         offset="1" />
    </linearGradient>
    <linearGradient
       id="linearGradient3737">
      <stop
         id="stop3739"
         style="stop-color:#ffffff;stop-opacity:1"
         offset="0" />
      <stop
         id="stop3741"
         style="stop-color:#ffffff;stop-opacity:0"
         offset="1" />
    </linearGradient>
    <filter
       color-interpolation-filters="sRGB"
       id="filter3174">
      <feGaussianBlur
         id="feGaussianBlur3176"
         stdDeviation="1.71" />
    </filter>
    <linearGradient
       x1="36.357143"
       y1="6"
       x2="36.357143"
       y2="63.893143"
       id="linearGradient3188"
       xlink:href="#linearGradient3737"
       gradientUnits="userSpaceOnUse"
       gradientTransform="matrix(0.82082313,0,0,0.84439956,11.244553,117.27257)" />
    <filter
       x="-0.192"
       y="-0.192"
       width="1.3839999"
       height="1.3839999"
       color-interpolation-filters="sRGB"
       id="filter3794">
      <feGaussianBlur
         id="feGaussianBlur3796"
         stdDeviation="5.28" />
    </filter>
    <linearGradient
       x1="48"
       y1="20.220806"
       x2="48"
       y2="138.66119"
       id="linearGradient3613"
       xlink:href="#linearGradient3737"
       gradientUnits="userSpaceOnUse" />
    <radialGradient
       cx="48"
       cy="90.171875"
       r="42"
       fx="48"
       fy="90.171875"
       id="radialGradient3619"
       xlink:href="#linearGradient3737"
       gradientUnits="userSpaceOnUse"
       gradientTransform="matrix(1.1573129,0,0,0.99590774,-7.5510206,0.19713193)" />
    <clipPath
       id="clipPath3613">
      <rect
         width="84"
         height="84"
         rx="6"
         ry="6"
         x="6"
         y="6"
         id="rect3615"
         style="fill:#ffffff;fill-opacity:1;fill-rule:nonzero;stroke:none" />
    </clipPath>
    <linearGradient
       x1="48"
       y1="90"
       x2="48"
       y2="5.9877172"
       id="linearGradient3617"
       xlink:href="#ButtonColor"
       gradientUnits="userSpaceOnUse"
       gradientTransform="translate(-152.54237,-51.661017)" />
    <filter
       color-interpolation-filters="sRGB"
       id="filter3263">
      <feGaussianBlur
         id="feGaussianBlur3265"
         stdDeviation="1.5967586" />
    </filter>
    <linearGradient
       x1="59.387539"
       y1="44.471016"
       x2="110.98586"
       y2="112.4099"
       id="linearGradient3185"
       xlink:href="#linearGradient3766"
       gradientUnits="userSpaceOnUse"
       gradientTransform="matrix(0.71186441,0,0,0.71186441,-156.20339,-29.694915)" />
    <linearGradient
       x1="58.650177"
       y1="122"
       x2="58.650177"
       y2="5.4252338"
       id="ButtonColor"
       gradientUnits="userSpaceOnUse"
       gradientTransform="matrix(1.0172414,0,0,1.0172414,-1.1034483,-1.1034483)">
      <stop
         id="stop3189"
         style="stop-color:#e4b31e;stop-opacity:1"
         offset="0" />
      <stop
         id="stop3191"
         style="stop-color:#ffef64;stop-opacity:1"
         offset="1" />
    </linearGradient>
    <linearGradient
       id="linearGradient3766">
      <stop
         id="stop3768"
         style="stop-color:#e7ba26;stop-opacity:0"
         offset="0" />
      <stop
         id="stop3770"
         style="stop-color:#e9ab2c;stop-opacity:0.83137256"
         offset="0.4841198" />
      <stop
         id="stop3772"
         style="stop-color:#eaa82e;stop-opacity:1"
         offset="0.69662797" />
      <stop
         id="stop3774"
         style="stop-color:#ebba3f;stop-opacity:1"
         offset="0.842659" />
      <stop
         id="stop3776"
         style="stop-color:#f3e38c;stop-opacity:1"
         offset="1" />
    </linearGradient>
    <linearGradient
       x1="48"
       y1="150.61017"
       x2="47.18644"
       y2="102.39449"
       id="linearGradient3783"
       xlink:href="#ButtonColor"
       gradientUnits="userSpaceOnUse"
       gradientTransform="matrix(1.1428532,0,0,1.1428571,-6.8569578,-6.8571431)" />
    <clipPath
       id="clipPath3800">
      <path
         d="m 62,6 c -3.324,0 -6,2.676 -6,6 l 0,0.53125 C 56,8.9207 58.9207,6 62.53125,6 L 62,6 z m 71.46875,0 C 137.0793,6 140,8.9207 140,12.53125 L 140,12 c 0,-3.324 -2.676,-6 -6,-6 l -0.53125,0 z M 140,12.53125 c 0,36.73465 -3.54263,60.10471 -7.84375,69.9375 C 121.33994,87.4996 96.479512,90 62.53125,90 L 134,90 c 3.324,0 6,-2.676 6,-6 l 0,-71.46875 z M 62.53125,90 C 58.9207,89.9945 56,87.0793 56,83.46875 L 56,84 c 0,3.324 2.676,6 6,6 l 0.53125,0 z"
         inkscape:connector-curvature="0"
         id="path3802"
         style="fill:url(#linearGradient3804);fill-opacity:1;fill-rule:nonzero;stroke:none" />
    </clipPath>
    <linearGradient
       x1="48"
       y1="90"
       x2="48"
       y2="5.9877172"
       id="linearGradient3804"
       xlink:href="#ButtonColor"
       gradientUnits="userSpaceOnUse"
       gradientTransform="translate(50,0)" />
    <filter
       color-interpolation-filters="sRGB"
       id="filter3810">
      <feGaussianBlur
         id="feGaussianBlur3812"
         stdDeviation="1.2600071" />
    </filter>
    <linearGradient
       x1="82.08036"
       y1="82.290176"
       x2="59.611588"
       y2="59.821404"
       id="linearGradient3825"
       xlink:href="#linearGradient3737"
       gradientUnits="userSpaceOnUse" />
    <linearGradient
       x1="45.447727"
       y1="92.539597"
       x2="45.447727"
       y2="7.0165396"
       id="ButtonShadow-0"
       gradientUnits="userSpaceOnUse"
       gradientTransform="matrix(1.0058652,0,0,0.994169,100,0)">
      <stop
         id="stop3750-8"
         style="stop-color:#000000;stop-opacity:1"
         offset="0" />
      <stop
         id="stop3752-5"
         style="stop-color:#000000;stop-opacity:0.58823532"
         offset="1" />
    </linearGradient>
    <linearGradient
       x1="32.251034"
       y1="6.1317081"
       x2="32.251034"
       y2="90.238609"
       id="linearGradient3780"
       xlink:href="#ButtonShadow-0"
       gradientUnits="userSpaceOnUse"
       gradientTransform="matrix(1.0238095,0,0,1.0119048,-1.1428571,-98.071429)" />
    <linearGradient
       x1="32.251034"
       y1="6.1317081"
       x2="32.251034"
       y2="90.238609"
       id="linearGradient3772"
       xlink:href="#ButtonShadow-0"
       gradientUnits="userSpaceOnUse"
       gradientTransform="matrix(1.0238095,0,0,1.0119048,-1.1428571,-98.071429)" />
    <linearGradient
       x1="32.251034"
       y1="6.1317081"
       x2="32.251034"
       y2="90.238609"
       id="linearGradient3725"
       xlink:href="#ButtonShadow-0"
       gradientUnits="userSpaceOnUse"
       gradientTransform="matrix(1.0238095,0,0,1.0119048,-1.1428571,-98.071429)" />
    <linearGradient
       x1="32.251034"
       y1="6.1317081"
       x2="32.251034"
       y2="90.238609"
       id="linearGradient3721"
       xlink:href="#ButtonShadow-0"
       gradientUnits="userSpaceOnUse"
       gradientTransform="translate(0,-97)" />
    <linearGradient
       x1="32.251034"
       y1="6.1317081"
       x2="32.251034"
       y2="90.238609"
       id="linearGradient3020"
       xlink:href="#ButtonShadow-0"
       gradientUnits="userSpaceOnUse"
       gradientTransform="matrix(1.0238095,0,0,1.0119048,-1.1428571,-98.071429)" />
  </defs>
  <metadata
     id="metadata2413">
    <rdf:RDF>
      <cc:Work
         rdf:about="">
        <dc:format>image/svg+xml</dc:format>
        <dc:type
           rdf:resource="http://purl.org/dc/dcmitype/StillImage" />
      </cc:Work>
    </rdf:RDF>
  </metadata>
  <g
     id="layer2"
     style="display:none">
    <rect
       width="86"
       height="85"
       rx="6"
       ry="6"
       x="5"
       y="7"
       id="rect3745"
       style="opacity:0.9;fill:url(#ButtonShadow);fill-opacity:1;fill-rule:nonzero;stroke:none;filter:url(#filter3174)" />
  </g>
  <g
     id="layer1">
    <path
       d="M 12,90 C 8.676,90 6,87.324 6,84 L 6,82 6,14 6,12 c 0,-0.334721 0.04135,-0.6507 0.09375,-0.96875 0.0487,-0.295596 0.09704,-0.596915 0.1875,-0.875 C 6.29113,10.12587 6.302142,10.09265 6.3125,10.0625 6.411365,9.774729 6.5473802,9.515048 6.6875,9.25 6.8320918,8.976493 7.0031161,8.714385 7.1875,8.46875 7.3718839,8.223115 7.5612765,7.995278 7.78125,7.78125 8.221197,7.353194 8.72416,6.966724 9.28125,6.6875 9.559795,6.547888 9.8547231,6.440553 10.15625,6.34375 9.9000482,6.443972 9.6695391,6.580022 9.4375,6.71875 c -0.00741,0.0044 -0.023866,-0.0045 -0.03125,0 -0.031933,0.0193 -0.062293,0.04251 -0.09375,0.0625 -0.120395,0.0767 -0.2310226,0.163513 -0.34375,0.25 -0.1061728,0.0808 -0.2132809,0.161112 -0.3125,0.25 C 8.4783201,7.442683 8.3087904,7.626638 8.15625,7.8125 8.0486711,7.942755 7.9378561,8.077785 7.84375,8.21875 7.818661,8.25713 7.805304,8.30462 7.78125,8.34375 7.716487,8.446782 7.6510225,8.548267 7.59375,8.65625 7.4927417,8.850956 7.3880752,9.071951 7.3125,9.28125 7.30454,9.30306 7.288911,9.3218 7.28125,9.34375 7.2494249,9.4357 7.2454455,9.530581 7.21875,9.625 7.1884177,9.731618 7.1483606,9.828031 7.125,9.9375 7.0521214,10.279012 7,10.635705 7,11 l 0,2 0,68 0,2 c 0,2.781848 2.2181517,5 5,5 l 2,0 68,0 2,0 c 2.781848,0 5,-2.218152 5,-5 l 0,-2 0,-68 0,-2 C 89,10.635705 88.94788,10.279012 88.875,9.9375 88.83085,9.730607 88.78662,9.539842 88.71875,9.34375 88.71105,9.3218 88.69545,9.30306 88.6875,9.28125 88.62476,9.107511 88.549117,8.913801 88.46875,8.75 88.42717,8.6672 88.38971,8.580046 88.34375,8.5 88.28915,8.40279 88.216976,8.31165 88.15625,8.21875 88.06214,8.077785 87.951329,7.942755 87.84375,7.8125 87.700576,7.63805 87.540609,7.465502 87.375,7.3125 87.36383,7.3023 87.35502,7.29135 87.34375,7.28125 87.205364,7.155694 87.058659,7.046814 86.90625,6.9375 86.803679,6.86435 86.701932,6.784136 86.59375,6.71875 c -0.0074,-0.0045 -0.02384,0.0044 -0.03125,0 -0.232039,-0.138728 -0.462548,-0.274778 -0.71875,-0.375 0.301527,0.0968 0.596455,0.204138 0.875,0.34375 0.55709,0.279224 1.060053,0.665694 1.5,1.09375 0.219973,0.214028 0.409366,0.441865 0.59375,0.6875 0.184384,0.245635 0.355408,0.507743 0.5,0.78125 0.14012,0.265048 0.276135,0.524729 0.375,0.8125 0.01041,0.03078 0.02133,0.06274 0.03125,0.09375 0.09046,0.278085 0.1388,0.579404 0.1875,0.875 C 89.95865,11.3493 90,11.665279 90,12 l 0,2 0,68 0,2 c 0,3.324 -2.676,6 -6,6 l -72,0 z"
       inkscape:connector-curvature="0"
       id="path3615"
       style="opacity:0.2;fill:url(#radialGradient3619);fill-opacity:1;fill-rule:nonzero;stroke:none" />
    <path
       d="M 12,6 C 8.676,6 6,8.676 6,12 l 0,6 84,0 0,-6 C 90,8.676 87.324,6 84,6 L 12,6 z"
       inkscape:connector-curvature="0"
       id="rect3839"
       style="opacity:0.35;fill:#ffffff;fill-opacity:1;fill-rule:nonzero;stroke:none" />
    <rect
       width="95.999672"
       height="96"
       rx="0"
       ry="0"
       x="0.00016192951"
       y="0"
       id="rect3781"
       style="fill:#ffcc00;fill-opacity:1;fill-rule:nonzero;stroke:none" />
    <path
       d="M 87.5625,7.4375 C 88.457536,8.5531297 89,9.9832263 89,11.53125 89,48.265897 85.457363,71.635962 81.15625,81.46875 70.339935,86.499595 45.479512,89 11.53125,89 9.9832267,88.997641 8.5531295,88.457151 7.4375,87.5625 8.6300118,89.04796 10.468723,89.996856 12.53125,90 46.479512,90 71.339935,87.499595 82.15625,82.46875 86.457363,72.635962 90,49.265897 90,12.53125 90,10.468723 89.048922,8.6300119 87.5625,7.4375 z"
       inkscape:connector-curvature="0"
       id="path3814"
       style="opacity:0.3;fill:url(#linearGradient3825);fill-opacity:1;stroke:none;display:inline" />
    <path
       d="m 19.348766,13.626768 c -2.774227,0 -5.007643,2.231657 -5.007643,5.003732 l 0,1.667908 0,56.708844 0,1.667919 c 0,0.27913 0.03447,0.542638 0.0783,0.807883 0.04067,0.246523 0.08094,0.497804 0.156494,0.729723 0.0081,0.02539 0.0175,0.05296 0.02602,0.078 0.08246,0.239958 0.196029,0.456539 0.312979,0.677571 0.120673,0.22811 0.263409,0.44667 0.417303,0.651539 0.153881,0.204848 0.31195,0.394861 0.495543,0.573334 0.367184,0.356993 0.786956,0.679275 1.251915,0.912131 0.232469,0.116428 0.478625,0.205957 0.730282,0.286667 -0.213831,-0.08338 -0.406218,-0.197024 -0.599877,-0.312721 -0.0062,-0.0034 -0.01993,0.0034 -0.02603,0 -0.02664,-0.01613 -0.05196,-0.03546 -0.07821,-0.05216 -0.100468,-0.06393 -0.192812,-0.136364 -0.286898,-0.208485 -0.08856,-0.06737 -0.177999,-0.134372 -0.260817,-0.208484 -0.148494,-0.134635 -0.289989,-0.288039 -0.417302,-0.443032 -0.08977,-0.10865 -0.18227,-0.221225 -0.260807,-0.338808 -0.02095,-0.03191 -0.03214,-0.0716 -0.05217,-0.104301 -0.05409,-0.08578 -0.108697,-0.170582 -0.156493,-0.260602 -0.08428,-0.162393 -0.171655,-0.3467 -0.234726,-0.521228 -0.0071,-0.01819 -0.01973,-0.03385 -0.02603,-0.05216 -0.02655,-0.07663 -0.0299,-0.155794 -0.05217,-0.234538 -0.02532,-0.08886 -0.05878,-0.169301 -0.0783,-0.260613 -0.06081,-0.284803 -0.104332,-0.582256 -0.104332,-0.886077 l 0,-1.667908 0,-56.708846 0,-1.667906 c 0,-2.319939 1.851285,-4.169773 4.17304,-4.169773 l 1.669205,0 56.753276,0 1.669207,0 c 2.321757,0 4.17304,1.849834 4.17304,4.169773 l 0,1.667906 0,56.708846 0,1.667908 c 0,0.303821 -0.04351,0.601274 -0.104319,0.886077 -0.0368,0.172549 -0.07371,0.331614 -0.130412,0.495151 -0.0062,0.0183 -0.01943,0.03397 -0.02602,0.05216 -0.05237,0.144872 -0.115498,0.306419 -0.182564,0.443011 -0.03467,0.06897 -0.06598,0.141749 -0.104331,0.208507 -0.04556,0.08109 -0.105795,0.157075 -0.156485,0.234537 -0.07861,0.117572 -0.171023,0.230191 -0.260818,0.338797 -0.119492,0.145477 -0.252997,0.289377 -0.391219,0.416991 -0.0091,0.0092 -0.01669,0.01761 -0.02603,0.02584 -0.115496,0.104645 -0.237939,0.195516 -0.365139,0.286679 -0.08561,0.06084 -0.170527,0.127911 -0.260818,0.18242 -0.0062,0.0034 -0.01993,-0.0034 -0.02613,0 -0.193662,0.115707 -0.386047,0.22915 -0.599869,0.312743 0.251656,-0.08063 0.497802,-0.170239 0.730281,-0.286679 0.464949,-0.232879 0.884722,-0.555161 1.251906,-0.912141 0.183592,-0.178475 0.341663,-0.368488 0.495553,-0.573335 0.153883,-0.204847 0.29662,-0.423441 0.417302,-0.65154 0.11694,-0.22103 0.230468,-0.437589 0.31298,-0.677582 0.0081,-0.02573 0.0178,-0.05227 0.02602,-0.078 0.07554,-0.231931 0.115834,-0.483212 0.156485,-0.729724 0.04374,-0.265245 0.0782,-0.528763 0.0782,-0.807906 l 0,-1.667894 0,-56.708846 0,-1.667908 c 0,-2.772086 -2.233405,-5.003731 -5.007644,-5.003731 l -60.091689,0 z"
       inkscape:connector-curvature="0"
       id="rect3728"
       style="fill:none;stroke:#ffffff;stroke-width:1.00210488;stroke-opacity:1" />
    <path
       d="m 16.283332,50.553999 c 0.02772,-0.404742 0.107508,-0.701553 0.239304,-0.890446 0.131793,-0.18887 0.409244,-0.4216 0.83239,-0.698191 0.423116,-0.276557 0.884398,-0.387873 1.383835,-0.333901 0.499421,0.05398 0.568785,0.327165 0.208094,0.819605 -0.360706,0.492441 -0.534119,0.978134 -0.520247,1.457078 0.01391,0.478957 0.27746,0.822991 0.790764,1.032093 0.513297,0.209136 1.071691,0.172024 1.675171,-0.111282 0.603472,-0.283328 1.307528,-0.704928 2.112174,-1.264835 0.804623,-0.559896 1.616199,-1.268197 2.434716,-2.124916 0.818498,-0.856696 1.515618,-1.710029 2.091361,-2.56 0.575718,-0.849959 1.036995,-1.642586 1.383837,-2.37789 0.34681,-0.73527 0.561842,-1.46044 0.645096,-2.175501 0.08322,-0.715037 -0.149151,-1.389612 -0.697122,-2.023721 -0.547998,-0.634088 -0.832394,-1.167004 -0.85319,-1.598737 -0.02084,-0.431721 0.232359,-0.849959 0.759548,-1.254713 0.943353,1.1e-5 1.598853,0.269844 1.966504,0.809484 0.367619,0.539676 0.700571,1.092824 0.998859,1.659455 0.298253,0.566667 0.554904,1.143421 0.769954,1.730284 0.215015,0.586899 0.440452,1.119815 0.676311,1.598748 0.235823,0.478956 0.409235,0.971397 0.520238,1.477311 0.11096,0.505947 0.287848,1.04561 0.530646,1.61899 0.242757,0.573392 0.450852,1.177136 0.624286,1.811235 0.173391,0.634098 0.45432,0.664464 0.842787,0.09115 0.388423,-0.573379 1.002304,-1.295177 1.841646,-2.165391 0.839294,-0.870191 1.56763,-1.605473 2.185003,-2.205866 0.617326,-0.600348 1.307508,-1.197346 2.070553,-1.790992 0.762987,-0.593612 1.539878,-1.126528 2.330671,-1.598736 0.790733,-0.472186 1.671669,-0.897171 2.642814,-1.274956 0.97108,-0.37774 1.838143,-0.559873 2.601196,-0.5464 0.76298,0.01349 1.477442,0.131559 2.143384,0.354156 0.665867,0.222621 1.213851,0.478956 1.643956,0.769009 0.430024,0.290086 0.77685,0.65098 1.040477,1.082701 0.263548,0.431733 0.409215,1.187257 0.437001,2.266574 -0.208135,0.458713 -0.461318,0.667838 -0.759548,0.62735 -0.29831,-0.04048 -0.468256,-0.357518 -0.509835,-0.951153 -0.04166,-0.593612 -0.267094,-1.082678 -0.676311,-1.4672 -0.409293,-0.384498 -0.818547,-0.664441 -1.227764,-0.839849 -0.409291,-0.175375 -0.946872,-0.317033 -1.612741,-0.424986 -0.66594,-0.107963 -1.321441,-0.0573 -1.966504,0.151781 -0.645129,0.209135 -1.342248,0.539686 -2.091361,0.991629 -0.749175,0.451976 -1.623174,1.008509 -2.622005,1.669576 -0.998887,0.661089 -1.96653,1.453716 -2.902933,2.377878 -0.936456,0.924174 -1.706409,1.784254 -2.309862,2.580255 -0.6035,0.795999 -1.137612,1.561634 -1.602336,2.296927 -0.464768,0.735292 -0.804658,1.517797 -1.019668,2.347513 -0.215053,0.829727 -0.485577,1.622354 -0.811574,2.377878 -0.326036,0.755524 -0.738758,1.335664 -1.238168,1.740406 -0.749162,-0.107963 -1.141076,-0.327177 -1.17574,-0.657716 -0.0347,-0.330538 0.06589,-0.704927 0.301738,-1.123165 0.235822,-0.418238 0.436982,-0.947768 0.603478,-1.588626 0.166455,-0.640846 0.263568,-1.305298 0.291332,-1.993369 0.02773,-0.688057 -0.07632,-1.392996 -0.312142,-2.114782 -0.23586,-0.721797 -0.461298,-1.328915 -0.676312,-1.821356 -0.215049,-0.492429 -0.45089,-0.900557 -0.707524,-1.22436 -0.25667,-0.32378 -0.530662,-0.313669 -0.821978,0.03042 -0.29135,0.344034 -0.71101,0.860093 -1.258979,1.548139 -0.547999,0.688081 -1.227778,1.419999 -2.039337,2.195745 -0.811586,0.775768 -1.872871,1.652707 -3.18386,2.63084 -1.311015,0.978145 -2.497157,1.632476 -3.558439,1.963014 -1.061292,0.33054 -1.924888,0.398006 -2.59079,0.202377 -0.665904,-0.195617 -1.120249,-0.522794 -1.363027,-0.981495 -0.242778,-0.458713 -0.412727,-1.167014 -0.509828,-2.124916 m 24.680137,1.841588 c 0.221967,0.323791 0.495959,0.492441 0.821977,0.505936 0.326013,0.01349 0.634689,-0.07422 0.926026,-0.263083 0.29133,-0.188882 0.634686,-0.367652 1.030073,-0.536291 0.395377,-0.168649 0.780352,-0.377762 1.154932,-0.627362 0.374564,-0.249588 0.56185,-0.563269 0.561856,-0.941032 -6e-6,-0.377762 -0.145671,-0.671188 -0.437,-0.880313 -0.291339,-0.209125 -0.412728,-0.475571 -0.364166,-0.799373 0.04855,-0.323792 0.201152,-0.5464 0.457809,-0.667827 0.256645,-0.121414 0.68324,-0.188881 1.279788,-0.202376 0.62428,0.121425 1.005786,0.424985 1.144525,0.910678 0.138722,0.485692 0.128318,0.937658 -0.03121,1.355895 -0.159548,0.418238 0.03813,0.796001 0.593073,1.133287 0.554912,0.337288 1.050872,0.448592 1.487883,0.333914 0.43699,-0.114678 0.683236,0.01681 0.738739,0.394632 -0.06937,0.404741 -0.183829,0.647581 -0.343357,0.728533 -0.15955,0.08098 -0.482099,0.155153 -0.967645,0.222608 -0.485565,0.06748 -1.068233,-0.07754 -1.748003,-0.435096 -0.679786,-0.357529 -1.165343,-0.428359 -1.456669,-0.212487 -0.291341,0.215861 -0.72834,0.495804 -1.311002,0.839838 -0.582675,0.344035 -1.154935,0.617241 -1.716789,0.819606 -0.561861,0.202377 -1.20349,0.303559 -1.924885,0.303559 -0.665907,-0.21586 -1.137589,-0.549774 -1.41505,-1.00175 -0.277461,-0.451954 -0.41619,-0.947768 -0.41619,-1.487432 0.06936,-0.37775 0.357229,-0.792614 0.863595,-1.244591 0.506366,-0.451954 0.991921,-0.829717 1.456669,-1.133288 0.464745,-0.303558 0.936428,-0.526167 1.415051,-0.667826 0.478616,-0.141657 0.818504,-0.121413 1.019668,0.06073 0.201154,0.182133 0.332949,0.404742 0.395382,0.667826 0.06243,0.263095 0.03468,0.475582 -0.08323,0.637472 -0.117925,0.161902 -0.291338,0.269832 -0.520237,0.323803 -0.228911,0.05387 -0.544522,0.1248 -0.946835,0.212487 -0.402322,0.08772 -0.835854,0.30356 -1.300598,0.647594 -0.46475,0.344035 -0.586137,0.677948 -0.364167,1.001739 m 8.94811,-0.30356 c 0.138731,-0.364266 0.329486,-0.748776 0.572265,-1.153518 0.242776,-0.404742 0.801167,-0.991628 1.67517,-1.760649 0.873997,-0.768998 1.519092,-1.457078 1.935288,-2.064198 -0.638163,0.08098 -1.064757,0.124812 -1.279787,0.131549 -0.215036,0.0069 -0.343361,-0.118052 -0.384977,-0.3744 -0.04162,-0.256325 0.02082,-0.445206 0.187285,-0.566632 0.166474,-0.121415 0.49249,-0.212487 0.978049,-0.273206 0.485552,-0.06073 0.991918,-0.138284 1.519099,-0.23273 0.929487,-0.849949 1.689036,-1.531281 2.278647,-2.043966 0.589595,-0.512661 1.220818,-1.065809 1.89367,-1.659455 0.672832,-0.5936 1.310991,-1.089425 1.91448,-1.487431 0.603465,-0.397983 1.127171,-0.603734 1.571122,-0.61724 0.263573,0.337298 0.01733,0.833112 -0.73874,1.487443 -0.756092,0.654342 -1.3561,1.197379 -1.800026,1.629101 -0.443949,0.431734 -0.870543,0.846597 -1.279788,1.244591 -0.409264,0.398006 -0.877478,0.873576 -1.404648,1.426724 0.679772,-0.08097 1.695971,-0.195617 3.048602,-0.344034 1.352609,-0.148394 2.736445,-0.28669 4.151509,-0.414864 1.415032,-0.128162 2.840487,-0.239466 4.276365,-0.333924 1.435839,-0.09447 2.843951,-0.155142 4.224342,-0.182133 1.38034,-0.02699 2.816198,-0.02357 4.307573,0.0103 1.491327,0.03374 2.705215,0.09447 3.641677,0.182134 0.936396,0.08772 1.68207,0.367663 2.237025,0.839849 -0.568828,0.175397 -1.08907,0.232742 -1.560716,0.172023 -0.471714,-0.06073 -0.978082,-0.107963 -1.519095,-0.141657 -0.54108,-0.03363 -1.189643,-0.04048 -1.945697,-0.02025 -0.756106,0.02025 -1.671724,0.04724 -2.746859,0.08097 -1.075185,0.03374 -2.223179,0.0573 -3.443983,0.07092 -1.220849,0.01349 -2.459016,0.0708 -3.714506,0.172011 -1.255528,0.101222 -2.448607,0.209125 -3.579244,0.323803 -1.130667,0.114679 -2.306407,0.219236 -3.527221,0.313671 -1.220839,0.09447 -2.087903,0.158527 -2.601196,0.192254 -0.513311,0.03374 -0.936438,0.0709 -1.269383,0.111282 -0.33296,0.04049 -0.606954,0.111283 -0.821977,0.212488 -0.21504,0.101222 -0.443945,0.252973 -0.686716,0.45534 -0.242783,0.202376 -0.544524,0.48233 -0.905216,0.839848 -0.360705,0.357531 -0.7873,0.822979 -1.279788,1.396371 -0.492497,0.573392 -0.929497,1.065832 -1.311002,1.47731 -0.381512,0.411501 -0.655505,0.796012 -0.821979,1.15353 -0.166478,0.357531 -0.187288,0.674574 -0.06244,0.951154 0.124854,0.276568 0.360695,0.445218 0.707523,0.505925 0.346824,0.06073 1.012729,-0.07422 1.997719,-0.404742 0.984979,-0.330539 1.685568,-0.623977 2.101767,-0.880325 0.416183,-0.256324 0.731794,-0.418226 0.946833,-0.485692 0.215024,-0.06748 0.381501,-0.02357 0.49943,0.131547 0.117913,0.155153 -0.05203,0.421612 -0.509835,0.799375 -0.457818,0.377761 -0.867071,0.667826 -1.227764,0.870202 -0.360704,0.202365 -0.773428,0.391247 -1.238168,0.566632 -0.464752,0.175397 -0.988459,0.303559 -1.571122,0.384509 -0.374577,0.05399 -0.728339,0.08098 -1.061288,0.08098 -0.208098,0 -0.409258,-0.0069 -0.603478,-0.02025 -0.527177,-0.05387 -0.939898,-0.172012 -1.238168,-0.354145 -0.298271,-0.182134 -0.495962,-0.421612 -0.593073,-0.718424 -0.110983,-0.269831 -0.166476,-0.512683 -0.166476,-0.728544 0,-0.01349 0.0069,-0.03374 0.02081,-0.06073 0,-0.229345 0.06936,-0.526157 0.208095,-0.890435 m 9.260255,-1.011861 c 0.846253,-0.269831 1.411578,-0.526168 1.695979,-0.769019 0.284393,-0.242842 0.405781,-0.46545 0.364167,-0.667838 -0.04163,-0.202355 -0.277464,-0.195607 -0.707526,0.02025 -0.430066,0.215871 -0.724868,0.435107 -0.884405,0.657704 -0.159543,0.222619 -0.315613,0.475582 -0.468215,0.758909 m -1.831242,1.335653 c 0,-0.701553 0.09017,-1.241218 0.270524,-1.61898 0.180348,-0.377762 0.475151,-0.769008 0.884406,-1.173762 0.409253,-0.404742 0.818509,-0.755513 1.227765,-1.052336 0.409252,-0.2968 0.828911,-0.499188 1.258979,-0.607119 l 0.478619,-0.02025 c 0.43006,0.01349 0.804631,0.128174 1.123717,0.344035 0.319074,0.215872 0.454337,0.596997 0.405786,1.143409 -0.04856,0.546411 -0.326022,1.018609 -0.832382,1.416602 -0.506372,0.398006 -1.078634,0.684697 -1.71679,0.860082 -0.638162,0.175396 -0.981519,0.333912 -1.030073,0.475582 -0.04856,0.141658 0.05549,0.296811 0.312144,0.465449 0.256648,0.168638 0.832379,0.27658 1.727194,0.323792 0.894806,0.04723 1.626608,0 2.195407,-0.141658 0.56879,-0.141659 1.030067,-0.293438 1.383837,-0.455339 0.353754,-0.16189 0.631214,-0.26982 0.832382,-0.323792 0.20115,-0.05399 0.364159,0.04724 0.489025,0.30356 -0.360707,0.499188 -0.756089,0.866828 -1.186145,1.102922 -0.430072,0.236116 -0.967652,0.448603 -1.612741,0.637483 -0.645101,0.188881 -1.432397,0.303548 -2.361887,0.344023 l -0.561856,0 c -1.01273,-0.09447 -1.695977,-0.225976 -2.049738,-0.394625 -0.353762,-0.168638 -0.627755,-0.367642 -0.821976,-0.596998 -0.194224,-0.229356 -0.332955,-0.573391 -0.416192,-1.032104 m 9.437139,0.182145 c 0.145664,0.391246 0.416189,0.55651 0.811571,0.495803 0.395379,-0.06073 0.756079,-0.192244 1.082098,-0.39462 0.332949,-0.209113 0.669371,-0.516047 1.009263,-0.9208 0.339887,-0.41149 0.48902,-0.691432 0.447407,-0.839838 -0.818514,0.580128 -1.46361,0.964637 -1.93529,1.153519 -0.464749,0.188881 -0.936432,0.357531 -1.415049,0.505936 m -2.091361,-0.910689 c 0.01387,-0.431722 0.05896,-0.762261 0.135261,-0.991618 0.0763,-0.229356 0.204628,-0.38451 0.384976,-0.465449 0.180351,-0.08098 0.409255,-0.107964 0.686716,-0.08098 0.277461,0.02699 0.485555,0.48233 0.624287,1.366017 0.582666,-0.107964 1.085564,-0.266446 1.508693,-0.475571 0.423125,-0.209125 0.825443,-0.408116 1.206955,-0.597008 0.381504,-0.195618 0.82891,-0.401369 1.342216,-0.617229 0.513298,-0.215861 0.991917,-0.451966 1.435861,-0.708314 0.44393,-0.263072 0.776883,-0.519408 0.998859,-0.769008 0.221962,-0.256325 0.388437,-0.512673 0.499429,-0.769009 0.110971,-0.263083 0.298262,-0.424985 0.561859,-0.485693 0.312133,0.0069 0.541038,0.07091 0.686714,0.192244 0.145658,0.11469 0.235832,0.387884 0.270525,0.819617 -0.01389,0.188881 -0.06244,0.374389 -0.145668,0.556522 -0.08324,0.182133 -0.267065,0.40138 -0.551452,0.657705 -0.277469,0.249599 -0.57574,0.45535 -0.894812,0.61724 -0.312151,0.155153 -0.662445,0.347409 -1.050882,0.576765 -0.381516,0.229357 -0.766492,0.53629 -1.154931,0.920789 -0.381514,0.384509 -0.658975,0.758898 -0.832382,1.123176 -0.166482,0.357519 -0.339895,0.684695 -0.52024,0.981507 -0.180354,0.290064 -0.454346,0.529531 -0.821976,0.718412 -0.367641,0.182133 -0.936434,0.296811 -1.706386,0.344034 -0.513303,-0.01349 -0.91562,-0.07754 -1.206955,-0.192254 -0.291333,-0.114678 -0.59654,-0.455339 -0.915619,-1.021983 -0.31908,-0.566632 -0.499429,-1.133276 -0.541048,-1.69993"
       inkscape:connector-curvature="0"
       id="text2443"
       style="font-size:27.92438889px;font-style:normal;font-variant:normal;font-weight:normal;font-stretch:normal;text-align:start;line-height:100%;writing-mode:lr-tb;text-anchor:start;opacity:0.9;fill:#ffffff;fill-opacity:1;stroke:none;display:inline;font-family:JaneAusten;-inkscape-font-specification:JaneAusten" />
    <path
       d="m 84.264407,15.395332 c -0.399665,31.952492 -3.729028,52.492067 -7.704074,61.454572 -9.999558,4.587073 -32.175802,7.007621 -62.495448,7.294312 30.710762,-0.03569 56.188284,-0.422515 65.854424,-4.194225 2.982062,-9.60461 4.2,-32.379158 4.345098,-64.554659 z"
       inkscape:connector-curvature="0"
       id="path3833"
       style="fill:#ffffff;fill-opacity:1;stroke:none;display:inline" />
  </g>
</svg>
