<?xml version="1.0" encoding="UTF-8" standalone="no"?>
<!-- Created with Inkscape (http://www.inkscape.org/) -->

<svg
   xmlns:dc="http://purl.org/dc/elements/1.1/"
   xmlns:cc="http://creativecommons.org/ns#"
   xmlns:rdf="http://www.w3.org/1999/02/22-rdf-syntax-ns#"
   xmlns:svg="http://www.w3.org/2000/svg"
   xmlns="http://www.w3.org/2000/svg"
   xmlns:xlink="http://www.w3.org/1999/xlink"
   xmlns:sodipodi="http://sodipodi.sourceforge.net/DTD/sodipodi-0.dtd"
   xmlns:inkscape="http://www.inkscape.org/namespaces/inkscape"
   version="1.0"
   width="96"
   height="96"
   id="svg2408"
   style="display:inline"
   inkscape:version="0.48.4 r9939"
   sodipodi:docname="gnome-settings-default-applications.svg">
  <sodipodi:namedview
     pagecolor="#ffffff"
     bordercolor="#666666"
     borderopacity="1"
     objecttolerance="10"
     gridtolerance="10"
     guidetolerance="10"
     inkscape:pageopacity="0"
     inkscape:pageshadow="2"
     inkscape:window-width="640"
     inkscape:window-height="480"
     id="namedview223"
     showgrid="false"
     inkscape:zoom="2.4583333"
     inkscape:cx="-67.507306"
     inkscape:cy="-0.81355932"
     inkscape:window-x="101"
     inkscape:window-y="115"
     inkscape:window-maximized="0"
     inkscape:current-layer="svg2408" />
  <defs
     id="defs2410">
    <linearGradient
       inkscape:collect="always"
       id="linearGradient4365">
      <stop
         style="stop-color:#ffff00;stop-opacity:1;"
         offset="0"
         id="stop4367" />
      <stop
         style="stop-color:#ffff00;stop-opacity:0;"
         offset="1"
         id="stop4369" />
    </linearGradient>
    <linearGradient
       id="linearGradient3778">
      <stop
         id="stop3780"
         style="stop-color:#499119;stop-opacity:1"
         offset="0" />
      <stop
         id="stop3782"
         style="stop-color:#8fd625;stop-opacity:1"
         offset="1" />
    </linearGradient>
    <linearGradient
       id="linearGradient4426">
      <stop
         id="stop4428"
         style="stop-color:#71461e;stop-opacity:1"
         offset="0" />
      <stop
         id="stop4430"
         style="stop-color:#71461e;stop-opacity:0"
         offset="1" />
    </linearGradient>
    <linearGradient
       id="linearGradient4414">
      <stop
         id="stop4416"
         style="stop-color:#dac3a2;stop-opacity:1"
         offset="0" />
      <stop
         id="stop4418"
         style="stop-color:#dac3a2;stop-opacity:0"
         offset="1" />
    </linearGradient>
    <linearGradient
       id="linearGradient4370">
      <stop
         id="stop4372"
         style="stop-color:#8a5b30;stop-opacity:1"
         offset="0" />
      <stop
         id="stop4374"
         style="stop-color:#8a5b30;stop-opacity:0"
         offset="1" />
    </linearGradient>
    <linearGradient
       id="linearGradient4295">
      <stop
         id="stop4297"
         style="stop-color:#b88f56;stop-opacity:1"
         offset="0" />
      <stop
         id="stop4299"
         style="stop-color:#d9bd98;stop-opacity:1"
         offset="1" />
    </linearGradient>
    <linearGradient
       id="linearGradient4289">
      <stop
         id="stop4291"
         style="stop-color:#996c3b;stop-opacity:1"
         offset="0" />
      <stop
         id="stop4293"
         style="stop-color:#c19e6d;stop-opacity:1"
         offset="1" />
    </linearGradient>
    <linearGradient
       id="linearGradient5092">
      <stop
         id="stop5094"
         style="stop-color:#be9f6a;stop-opacity:1"
         offset="0" />
      <stop
         id="stop5096"
         style="stop-color:#e5d2b2;stop-opacity:1"
         offset="1" />
    </linearGradient>
    <linearGradient
       id="linearGradient5010">
      <stop
         id="stop5012"
         style="stop-color:#000000;stop-opacity:1"
         offset="0" />
      <stop
         id="stop5014"
         style="stop-color:#000000;stop-opacity:0"
         offset="1" />
    </linearGradient>
    <linearGradient
       x1="45.447727"
       y1="92.539597"
       x2="45.447727"
       y2="7.0165396"
       id="ButtonShadow"
       gradientUnits="userSpaceOnUse"
       gradientTransform="scale(1.0058652,0.994169)">
      <stop
         id="stop3750"
         style="stop-color:#000000;stop-opacity:1"
         offset="0" />
      <stop
         id="stop3752"
         style="stop-color:#000000;stop-opacity:0.58823532"
         offset="1" />
    </linearGradient>
    <linearGradient
       id="linearGradient3737">
      <stop
         id="stop3739"
         style="stop-color:#ffffff;stop-opacity:1"
         offset="0" />
      <stop
         id="stop3741"
         style="stop-color:#ffffff;stop-opacity:0"
         offset="1" />
    </linearGradient>
    <linearGradient
       x1="54.187183"
       y1="90"
       x2="54.187183"
       y2="39.852562"
       id="linearGradient3706"
       xlink:href="#linearGradient4289"
       gradientUnits="userSpaceOnUse" />
    <filter
       color-interpolation-filters="sRGB"
       id="filter3174">
      <feGaussianBlur
         id="feGaussianBlur3176"
         stdDeviation="1.71" />
    </filter>
    <filter
       x="-0.31155673"
       y="-0.42628157"
       width="1.6231135"
       height="1.8525631"
       color-interpolation-filters="sRGB"
       id="filter4362">
      <feGaussianBlur
         id="feGaussianBlur4364"
         stdDeviation="6.2124381" />
    </filter>
    <linearGradient
       x1="47.079498"
       y1="32.782871"
       x2="6.5962563"
       y2="9.4098616"
       id="linearGradient5100"
       xlink:href="#linearGradient5092"
       gradientUnits="userSpaceOnUse" />
    <linearGradient
       x1="48"
       y1="42"
       x2="6.7812738"
       y2="18.202358"
       id="linearGradient2489"
       xlink:href="#linearGradient4295"
       gradientUnits="userSpaceOnUse" />
    <linearGradient
       x1="47.226776"
       y1="29.039698"
       x2="6.3304405"
       y2="18.081558"
       id="linearGradient3264"
       xlink:href="#linearGradient4295"
       gradientUnits="userSpaceOnUse"
       gradientTransform="matrix(-1,0,0,1,96,0)" />
    <linearGradient
       x1="23.142857"
       y1="42"
       x2="66.964287"
       y2="6"
       id="linearGradient3285"
       xlink:href="#linearGradient3737"
       gradientUnits="userSpaceOnUse" />
    <linearGradient
       x1="8"
       y1="38.127232"
       x2="8"
       y2="71.877235"
       id="linearGradient4376"
       xlink:href="#linearGradient4370"
       gradientUnits="userSpaceOnUse" />
    <linearGradient
       x1="10"
       y1="40.263424"
       x2="10"
       y2="89.666374"
       id="linearGradient4394"
       xlink:href="#linearGradient3737"
       gradientUnits="userSpaceOnUse" />
    <linearGradient
       x1="8"
       y1="38.127232"
       x2="8"
       y2="87.029526"
       id="linearGradient4400"
       xlink:href="#linearGradient4370"
       gradientUnits="userSpaceOnUse"
       gradientTransform="matrix(-1,0,0,1,96,0)" />
    <linearGradient
       x1="10"
       y1="40.263424"
       x2="10"
       y2="89.666374"
       id="linearGradient4402"
       xlink:href="#linearGradient3737"
       gradientUnits="userSpaceOnUse"
       gradientTransform="matrix(-1,0,0,1,96,0)" />
    <linearGradient
       x1="8.9651041"
       y1="44.040279"
       x2="8.9651041"
       y2="52.263294"
       id="linearGradient4420"
       xlink:href="#linearGradient4414"
       gradientUnits="userSpaceOnUse" />
    <linearGradient
       x1="8.9651041"
       y1="44.040279"
       x2="8.9651041"
       y2="52.263294"
       id="linearGradient4424"
       xlink:href="#linearGradient4414"
       gradientUnits="userSpaceOnUse"
       gradientTransform="matrix(-1,0,0,1,96.086934,0)" />
    <radialGradient
       cx="48"
       cy="73.14563"
       r="42"
       fx="48"
       fy="73.14563"
       id="radialGradient4432"
       xlink:href="#linearGradient4426"
       gradientUnits="userSpaceOnUse"
       gradientTransform="matrix(0.867765,0,0,0.09523809,6.3472804,36.190476)" />
    <linearGradient
       x1="65.262688"
       y1="64.205269"
       x2="65.262688"
       y2="50.068527"
       id="linearGradient3832"
       xlink:href="#linearGradient3737"
       gradientUnits="userSpaceOnUse"
       gradientTransform="matrix(0.625,0,0,0.625,28.5,31.25)" />
    <linearGradient
       id="linearGradient3737-4">
      <stop
         id="stop3739-1"
         style="stop-color:#ffffff;stop-opacity:1"
         offset="0" />
      <stop
         id="stop3741-8"
         style="stop-color:#ffffff;stop-opacity:0"
         offset="1" />
    </linearGradient>
    <radialGradient
       cx="48"
       cy="90.171875"
       r="42"
       fx="48"
       fy="90.171875"
       id="radialGradient2858"
       xlink:href="#linearGradient3737-4"
       gradientUnits="userSpaceOnUse"
       gradientTransform="matrix(1.1573129,0,0,0.99590774,-7.551021,0.1971319)" />
    <linearGradient
       x1="56"
       y1="72"
       x2="88"
       y2="72"
       id="linearGradient3773"
       xlink:href="#linearGradient3778"
       gradientUnits="userSpaceOnUse"
       gradientTransform="matrix(0.9375,0,0,0.9375,-140.5,3.5)" />
    <linearGradient
       x1="70"
       y1="54"
       x2="70"
       y2="75.095024"
       id="linearGradient3788"
       xlink:href="#linearGradient3737"
       gradientUnits="userSpaceOnUse"
       gradientTransform="translate(0,4)" />
    <filter
       color-interpolation-filters="sRGB"
       id="filter3806">
      <feGaussianBlur
         id="feGaussianBlur3808"
         stdDeviation="1.2" />
    </filter>
    <linearGradient
       x1="65.262688"
       y1="64.205269"
       x2="65.262688"
       y2="50.068527"
       id="linearGradient3812"
       xlink:href="#linearGradient5010"
       gradientUnits="userSpaceOnUse"
       gradientTransform="matrix(0.625,0,0,0.625,78.5,32.25)" />
    <clipPath
       id="clipPath3823">
      <path
         d="M 108.8125,58 C 107.25437,58 106,59.254375 106,60.8125 l 0,24.375 C 106,86.745625 107.25437,88 108.8125,88 l 24.375,0 C 134.74562,88 136,86.745625 136,85.1875 l 0,-24.375 C 136,59.254375 134.74562,58 133.1875,58 l -24.375,0 z m 7.1875,4.5 10,0 0,8.75 5,0 -10,13.75 -10,-13.75 5,0 0,-8.75 z"
         inkscape:connector-curvature="0"
         id="path3825"
         style="fill:#ffffff;fill-opacity:1;stroke:none" />
    </clipPath>
    <filter
       color-interpolation-filters="sRGB"
       id="filter3831">
      <feGaussianBlur
         id="feGaussianBlur3833"
         stdDeviation="0.6375" />
    </filter>
    <linearGradient
       x1="50.499405"
       y1="19.881863"
       x2="50.499405"
       y2="47.295406"
       id="linearGradient3277-5"
       xlink:href="#linearGradient4309-1"
       gradientUnits="userSpaceOnUse"
       gradientTransform="matrix(1.0200612,0,0,1.0200612,-5.2981966,5.7562054)" />
    <linearGradient
       x1="52.25"
       y1="47.247101"
       x2="52.25"
       y2="0.2393"
       id="linearGradient4309-1"
       gradientUnits="userSpaceOnUse">
      <stop
         id="stop4311-3"
         style="stop-color:#d8cab2;stop-opacity:1"
         offset="0" />
      <stop
         id="stop4321-4"
         style="stop-color:#d2b98c;stop-opacity:1"
         offset="0.45710954" />
      <stop
         id="stop4323-7"
         style="stop-color:#f9f7ef;stop-opacity:1"
         offset="0.48590001" />
      <stop
         id="stop4325-1"
         style="stop-color:#ffffff;stop-opacity:1"
         offset="0.49110001" />
      <stop
         id="stop4327-9"
         style="stop-color:#fbf9f4;stop-opacity:1"
         offset="0.49180001" />
      <stop
         id="stop4329-7"
         style="stop-color:#efe7d0;stop-opacity:1"
         offset="0.4946" />
      <stop
         id="stop4331-9"
         style="stop-color:#e4d6b0;stop-opacity:1"
         offset="0.49770001" />
      <stop
         id="stop4333-5"
         style="stop-color:#dac894;stop-opacity:1"
         offset="0.5011" />
      <stop
         id="stop4335-2"
         style="stop-color:#c7a572;stop-opacity:1"
         offset="0.50489998" />
      <stop
         id="stop4347-5"
         style="stop-color:#d7c198;stop-opacity:1"
         offset="1" />
    </linearGradient>
    <linearGradient
       x1="46.795631"
       y1="60.307007"
       x2="46.795631"
       y2="6.0179305"
       id="linearGradient3942"
       xlink:href="#linearGradient3928"
       gradientUnits="userSpaceOnUse" />
    <linearGradient
       id="linearGradient3928">
      <stop
         id="stop3930"
         style="stop-color:#3a240f;stop-opacity:1"
         offset="0" />
      <stop
         id="stop3932"
         style="stop-color:#3a240f;stop-opacity:0"
         offset="1" />
    </linearGradient>
    <linearGradient
       x1="48.40115"
       y1="61.990967"
       x2="48.40115"
       y2="4.6666145"
       id="linearGradient3934"
       xlink:href="#linearGradient3928"
       gradientUnits="userSpaceOnUse" />
    <linearGradient
       x1="45.447727"
       y1="92.539597"
       x2="45.447727"
       y2="7.0165396"
       id="ButtonShadow-0"
       gradientUnits="userSpaceOnUse"
       gradientTransform="matrix(1.0058652,0,0,0.994169,100,0)">
      <stop
         id="stop3750-8"
         style="stop-color:#000000;stop-opacity:1"
         offset="0" />
      <stop
         id="stop3752-5"
         style="stop-color:#000000;stop-opacity:0.58823532"
         offset="1" />
    </linearGradient>
    <linearGradient
       x1="32.251034"
       y1="6.1317081"
       x2="32.251034"
       y2="90.238609"
       id="linearGradient3780"
       xlink:href="#ButtonShadow-0"
       gradientUnits="userSpaceOnUse"
       gradientTransform="matrix(1.0238095,0,0,1.0119048,-1.1428571,-98.071429)" />
    <linearGradient
       x1="32.251034"
       y1="6.1317081"
       x2="32.251034"
       y2="90.238609"
       id="linearGradient3772"
       xlink:href="#ButtonShadow-0"
       gradientUnits="userSpaceOnUse"
       gradientTransform="matrix(1.0238095,0,0,1.0119048,-1.1428571,-98.071429)" />
    <linearGradient
       x1="32.251034"
       y1="6.1317081"
       x2="32.251034"
       y2="90.238609"
       id="linearGradient3725"
       xlink:href="#ButtonShadow-0"
       gradientUnits="userSpaceOnUse"
       gradientTransform="matrix(1.0238095,0,0,1.0119048,-1.1428571,-98.071429)" />
    <linearGradient
       x1="32.251034"
       y1="6.1317081"
       x2="32.251034"
       y2="90.238609"
       id="linearGradient3721"
       xlink:href="#ButtonShadow-0"
       gradientUnits="userSpaceOnUse"
       gradientTransform="translate(0,-97)" />
    <linearGradient
       x1="32.251034"
       y1="6.1317081"
       x2="32.251034"
       y2="90.238609"
       id="linearGradient2969"
       xlink:href="#ButtonShadow-0"
       gradientUnits="userSpaceOnUse"
       gradientTransform="matrix(1.0238095,0,0,1.0119048,-1.1428571,-98.071429)" />
    <linearGradient
       id="linearGradient3701">
      <stop
         id="stop3703"
         style="stop-color:#ffffff;stop-opacity:1"
         offset="0" />
      <stop
         id="stop3705"
         style="stop-color:#ffffff;stop-opacity:0"
         offset="1" />
    </linearGradient>
    <linearGradient
       id="linearGradient3686">
      <stop
         id="stop3688"
         style="stop-color:#dcdcdc;stop-opacity:1"
         offset="0" />
      <stop
         id="stop3690"
         style="stop-color:#f0f0f0;stop-opacity:1"
         offset="1" />
    </linearGradient>
    <linearGradient
       x1="11.087322"
       y1="15.37313"
       x2="10.540542"
       y2="4.9937253"
       id="linearGradient3790"
       xlink:href="#linearGradient3658"
       gradientUnits="userSpaceOnUse" />
    <linearGradient
       id="linearGradient3658">
      <stop
         id="stop3660"
         style="stop-color:#ff9604;stop-opacity:1"
         offset="0" />
      <stop
         id="stop3662"
         style="stop-color:#fff580;stop-opacity:1"
         offset="1" />
    </linearGradient>
    <linearGradient
       x1="11.087322"
       y1="15.37313"
       x2="10.540542"
       y2="4.9937253"
       id="linearGradient4241"
       xlink:href="#linearGradient3658"
       gradientUnits="userSpaceOnUse" />
    <linearGradient
       x1="48.714287"
       y1="76.203125"
       x2="48.714287"
       y2="18.702017"
       id="linearGradient4243"
       xlink:href="#linearGradient3686"
       gradientUnits="userSpaceOnUse"
       gradientTransform="matrix(0.6,0,0,0.6,129.2,45.4)" />
    <linearGradient
       x1="52.82143"
       y1="32.810268"
       x2="52.82143"
       y2="74.18531"
       id="linearGradient4245"
       xlink:href="#linearGradient3701"
       gradientUnits="userSpaceOnUse"
       gradientTransform="matrix(0.6,0,0,0.6,129.2,45.4)" />
    <linearGradient
       x1="52.82143"
       y1="32.810268"
       x2="52.82143"
       y2="74.18531"
       id="linearGradient4272"
       xlink:href="#linearGradient3701"
       gradientUnits="userSpaceOnUse"
       gradientTransform="matrix(0.69999998,0,0,0.69999998,37.4,38.800002)" />
    <linearGradient
       x1="48.714287"
       y1="76.203125"
       x2="48.714287"
       y2="18.702017"
       id="linearGradient4274"
       xlink:href="#linearGradient3686"
       gradientUnits="userSpaceOnUse"
       gradientTransform="matrix(0.69999998,0,0,0.69999998,37.4,38.800002)" />
    <linearGradient
       gradientTransform="matrix(1.9955406,0,0,1.9955406,100.19107,18.107146)"
       gradientUnits="userSpaceOnUse"
       xlink:href="#linearGradient6699"
       id="linearGradient4420-0"
       y2="33.016045"
       x2="-14.360273"
       y1="18.516047"
       x1="-22.976406" />
    <linearGradient
       gradientTransform="matrix(1.9955406,0,0,1.9955406,100.19107,18.107146)"
       gradientUnits="userSpaceOnUse"
       xlink:href="#linearGradient6711"
       id="linearGradient4418"
       y2="28.195539"
       x2="-9.7352734"
       y1="24.453547"
       x1="-16.387411" />
    <linearGradient
       gradientTransform="matrix(1.9955406,0,0,1.9955406,100.19107,18.107146)"
       gradientUnits="userSpaceOnUse"
       xlink:href="#linearGradient6719"
       id="linearGradient4416"
       y2="25.015009"
       x2="-20.821646"
       y1="30.827509"
       x1="-17.863041" />
    <linearGradient
       gradientUnits="userSpaceOnUse"
       xlink:href="#linearGradient6687"
       id="linearGradient4413"
       y2="18.75"
       x2="-19.5"
       y1="29"
       x1="-20.75" />
    <linearGradient
       id="linearGradient6687">
      <stop
         offset="0"
         style="stop-color:#ffffff;stop-opacity:1"
         id="stop6689" />
      <stop
         offset="1"
         style="stop-color:#ffffff;stop-opacity:0"
         id="stop6691" />
    </linearGradient>
    <linearGradient
       id="linearGradient6719">
      <stop
         offset="0"
         style="stop-color:#73d216;stop-opacity:1"
         id="stop6721" />
      <stop
         offset="1"
         style="stop-color:#d5f7b3;stop-opacity:1"
         id="stop6723" />
    </linearGradient>
    <linearGradient
       id="linearGradient6711">
      <stop
         offset="0"
         style="stop-color:#5b8ccb;stop-opacity:1"
         id="stop6713" />
      <stop
         offset="1"
         style="stop-color:#3465a4;stop-opacity:1"
         id="stop6715" />
    </linearGradient>
    <linearGradient
       id="linearGradient6699">
      <stop
         offset="0"
         style="stop-color:#ff7171;stop-opacity:1"
         id="stop6701" />
      <stop
         offset="1"
         style="stop-color:#cc0000;stop-opacity:1"
         id="stop6703" />
    </linearGradient>
    <linearGradient
       gradientUnits="userSpaceOnUse"
       xlink:href="#linearGradient3737-9"
       id="linearGradient3989"
       y2="138.66119"
       x2="48"
       y1="20.220806"
       x1="48" />
    <linearGradient
       gradientUnits="userSpaceOnUse"
       xlink:href="#linearGradient3737-9"
       id="linearGradient3874"
       y2="138.66119"
       x2="48"
       y1="20.220806"
       x1="48" />
    <filter
       id="filter3794"
       color-interpolation-filters="sRGB"
       height="1.3839999"
       width="1.3839999"
       y="-0.192"
       x="-0.192">
      <feGaussianBlur
         stdDeviation="5.28"
         id="feGaussianBlur3796" />
    </filter>
    <clipPath
       id="clipPath3876">
      <path
         style="fill:#ff0000;fill-opacity:1;fill-rule:nonzero;stroke:none"
         id="path3878"
         inkscape:connector-curvature="0"
         d="M 12,6 C 8.676,6 6,8.676 6,12 l 0,72 c 0,3.324 2.676,6 6,6 L 24,90 24,6 12,6 z" />
    </clipPath>
    <linearGradient
       id="linearGradient3737-9">
      <stop
         offset="0"
         style="stop-color:#ffffff;stop-opacity:1"
         id="stop3739-2" />
      <stop
         offset="1"
         style="stop-color:#ffffff;stop-opacity:0"
         id="stop3741-1" />
    </linearGradient>
    <linearGradient
       gradientTransform="translate(-16,0)"
       gradientUnits="userSpaceOnUse"
       xlink:href="#linearGradient6083"
       id="linearGradient6089"
       y2="16"
       x2="56"
       y1="80"
       x1="56" />
    <linearGradient
       gradientUnits="userSpaceOnUse"
       xlink:href="#linearGradient3737-98"
       id="linearGradient3757"
       y2="63.893143"
       x2="36.357143"
       y1="6"
       x1="36.357143" />
    <radialGradient
       gradientTransform="matrix(1.1573129,0,0,0.99590774,-7.551021,0.1971319)"
       gradientUnits="userSpaceOnUse"
       xlink:href="#linearGradient3737-0"
       id="radialGradient2903"
       fy="90.171875"
       fx="48"
       r="42"
       cy="90.171875"
       cx="48" />
    <linearGradient
       id="linearGradient3737-0">
      <stop
         offset="0"
         style="stop-color:#ffffff;stop-opacity:1"
         id="stop3739-6" />
      <stop
         offset="1"
         style="stop-color:#ffffff;stop-opacity:0"
         id="stop3741-0" />
    </linearGradient>
    <linearGradient
       gradientTransform="matrix(1.0238095,0,0,1.0119048,-1.1428571,-98.071429)"
       gradientUnits="userSpaceOnUse"
       xlink:href="#ButtonShadow-0-0"
       id="linearGradient3811"
       y2="90.238609"
       x2="32.251034"
       y1="6.1317081"
       x1="32.251034" />
    <linearGradient
       gradientTransform="translate(0,-97)"
       gradientUnits="userSpaceOnUse"
       xlink:href="#ButtonShadow-0-0"
       id="linearGradient3721-7"
       y2="90.238609"
       x2="32.251034"
       y1="6.1317081"
       x1="32.251034" />
    <linearGradient
       gradientTransform="matrix(1.0238095,0,0,1.0119048,-1.1428571,-98.071429)"
       gradientUnits="userSpaceOnUse"
       xlink:href="#ButtonShadow-0-0"
       id="linearGradient3725-7"
       y2="90.238609"
       x2="32.251034"
       y1="6.1317081"
       x1="32.251034" />
    <linearGradient
       gradientTransform="matrix(1.0238095,0,0,1.0119048,-1.1428571,-98.071429)"
       gradientUnits="userSpaceOnUse"
       xlink:href="#ButtonShadow-0-0"
       id="linearGradient3772-7"
       y2="90.238609"
       x2="32.251034"
       y1="6.1317081"
       x1="32.251034" />
    <linearGradient
       gradientTransform="matrix(1.0238095,0,0,1.0119048,-1.1428571,-98.071429)"
       gradientUnits="userSpaceOnUse"
       xlink:href="#ButtonShadow-0-0"
       id="linearGradient3780-8"
       y2="90.238609"
       x2="32.251034"
       y1="6.1317081"
       x1="32.251034" />
    <linearGradient
       gradientTransform="matrix(1.0058652,0,0,0.994169,100,0)"
       gradientUnits="userSpaceOnUse"
       id="ButtonShadow-0-0"
       y2="7.0165396"
       x2="45.447727"
       y1="92.539597"
       x1="45.447727">
      <stop
         offset="0"
         style="stop-color:#000000;stop-opacity:1"
         id="stop3750-8-4" />
      <stop
         offset="1"
         style="stop-color:#000000;stop-opacity:0.58823532"
         id="stop3752-5-0" />
    </linearGradient>
    <linearGradient
       gradientUnits="userSpaceOnUse"
       xlink:href="#linearGradient3737-98"
       id="linearGradient3188"
       y2="63.893143"
       x2="36.357143"
       y1="6"
       x1="36.357143" />
    <filter
       id="filter3174-9"
       color-interpolation-filters="sRGB">
      <feGaussianBlur
         stdDeviation="1.71"
         id="feGaussianBlur3176-1" />
    </filter>
    <linearGradient
       gradientUnits="userSpaceOnUse"
       xlink:href="#linearGradient3700"
       id="linearGradient3706-1"
       y2="5.9877172"
       x2="48"
       y1="90"
       x1="48" />
    <linearGradient
       id="linearGradient3700">
      <stop
         offset="0"
         style="stop-color:#e6e6e6;stop-opacity:1"
         id="stop3702" />
      <stop
         offset="1"
         style="stop-color:#f5f5f5;stop-opacity:1"
         id="stop3704" />
    </linearGradient>
    <linearGradient
       id="linearGradient3737-98">
      <stop
         offset="0"
         style="stop-color:#ffffff;stop-opacity:1"
         id="stop3739-5" />
      <stop
         offset="1"
         style="stop-color:#ffffff;stop-opacity:0"
         id="stop3741-4" />
    </linearGradient>
    <linearGradient
       gradientTransform="scale(1.0058652,0.994169)"
       gradientUnits="userSpaceOnUse"
       id="ButtonShadow-7"
       y2="7.0165396"
       x2="45.447727"
       y1="92.539597"
       x1="45.447727">
      <stop
         offset="0"
         style="stop-color:#000000;stop-opacity:1"
         id="stop3750-9" />
      <stop
         offset="1"
         style="stop-color:#000000;stop-opacity:0.58823532"
         id="stop3752-9" />
    </linearGradient>
    <linearGradient
       id="linearGradient6083">
      <stop
         offset="0"
         style="stop-color:#d5d5d5;stop-opacity:1"
         id="stop6085" />
      <stop
         offset="1"
         style="stop-color:#e3e3e3;stop-opacity:1"
         id="stop6087" />
    </linearGradient>
    <linearGradient
       inkscape:collect="always"
       xlink:href="#linearGradient6083"
       id="linearGradient4323"
       gradientUnits="userSpaceOnUse"
       gradientTransform="translate(-16,0)"
       x1="56"
       y1="80"
       x2="56"
       y2="16" />
    <linearGradient
       inkscape:collect="always"
       xlink:href="#linearGradient4365"
       id="linearGradient4371"
       x1="69.367493"
       y1="20.700109"
       x2="73.118577"
       y2="20.700109"
       gradientUnits="userSpaceOnUse" />
  </defs>
  <metadata
     id="metadata2413">
    <rdf:RDF>
      <cc:Work
         rdf:about="">
        <dc:format>image/svg+xml</dc:format>
        <dc:type
           rdf:resource="http://purl.org/dc/dcmitype/StillImage" />
        <dc:title></dc:title>
      </cc:Work>
    </rdf:RDF>
  </metadata>
  <g
     id="layer2"
     style="display:none">
    <path
       d="M 11,7 48,5 85,7 c 3.324,0 6,2.676 6,6 l 0,73 c 0,3.324 -2.676,6 -6,6 L 11,92 C 7.676,92 5,89.324 5,86 L 5,13 C 5,9.676 7.676,7 11,7 z"
       inkscape:connector-curvature="0"
       id="rect3745"
       style="opacity:0.9;fill:url(#ButtonShadow);fill-opacity:1;fill-rule:nonzero;stroke:none;filter:url(#filter3174)" />
  </g>
  <g
     id="layer4"
     style="display:none">
    <rect
       width="30"
       height="30"
       rx="2.8125"
       ry="2.8125"
       x="-86"
       y="56"
       transform="matrix(0,-1,1,0,0,4)"
       id="rect3790"
       style="opacity:0.6;fill:#000000;fill-opacity:1;stroke:none;filter:url(#filter3806)" />
    <rect
       width="30"
       height="30"
       rx="2.8125"
       ry="2.8125"
       x="-88"
       y="56"
       transform="matrix(0,-1,1,0,0,0)"
       id="rect2993"
       style="fill:url(#linearGradient3773);fill-opacity:1;stroke:none" />
    <path
       d="M 58.8125,58 C 57.254375,58 56,59.254375 56,60.8125 l 0,24.375 c 0,0.873066 0.410816,1.641163 1.03125,2.15625 C 57.02841,87.289908 57,87.242129 57,87.1875 l 0,-24.375 C 57,61.254375 58.17075,60 59.625,60 l 22.75,0 C 83.82925,60 85,61.254375 85,62.8125 l 0,24.375 c 0,0.05463 -0.02841,0.102408 -0.03125,0.15625 C 85.589184,86.828663 86,86.060566 86,85.1875 l 0,-24.375 C 86,59.254375 84.745625,58 83.1875,58 l -24.375,0 z"
       inkscape:connector-curvature="0"
       id="rect3775"
       style="opacity:0.5;fill:url(#linearGradient3788);fill-opacity:1;stroke:none" />
    <path
       d="m 116,63.5 0,8.75 -5,0 10,13.75 10,-13.75 -5,0 0,-8.75 -10,0 z"
       inkscape:connector-curvature="0"
       transform="translate(-50,0)"
       clip-path="url(#clipPath3823)"
       id="path3810"
       style="opacity:0.6;fill:url(#linearGradient3812);fill-opacity:1;fill-rule:nonzero;stroke:none;display:inline;filter:url(#filter3831)" />
    <path
       d="m 66,62.5 0,8.75 -5,0 10,13.75 10,-13.75 -5,0 0,-8.75 -10,0 z"
       inkscape:connector-curvature="0"
       id="path4278"
       style="fill:url(#linearGradient3832);fill-opacity:1;fill-rule:nonzero;stroke:none;display:inline" />
  </g>
  <rect
     style="fill:#71c837;fill-opacity:1;stroke:none"
     id="rect3230"
     width="96"
     height="96"
     x="0"
     y="7.1054274e-15"
     rx="0"
     ry="0" />
  <g
     id="layer2-3"
     style="display:none"
     transform="translate(-165.27119,36.869104)">
    <rect
       width="86"
       height="85"
       rx="6"
       ry="6"
       x="5"
       y="7"
       id="rect3745-9"
       style="opacity:0.9;fill:url(#ButtonShadow-7);fill-opacity:1;fill-rule:nonzero;stroke:none;filter:url(#filter3174-9)" />
  </g>
  <path
     style="color:#000000;fill:none;fill-opacity:1;fill-rule:nonzero;stroke:#ffffff;stroke-width:1;marker:none;visibility:visible;display:inline;overflow:visible;enable-background:accumulate;stroke-opacity:1"
     id="rect6070"
     inkscape:connector-curvature="0"
     d="m 17.69491,17.072494 0,7 0,57 8,0 0,-56 55,0 0,-8 -56,0 -7,0 z" />
  <rect
     style="opacity:0.50000000000000000;color:#000000;fill:none;fill-opacity:1;fill-rule:nonzero;stroke:#ffffff;stroke-width:1;marker:none;visibility:visible;display:inline;overflow:visible;enable-background:accumulate;stroke-opacity:1"
     id="rect6095"
     y="40.072491"
     x="42.694908"
     height="9"
     width="19" />
  <rect
     style="opacity:0.20000000000000001;color:#000000;fill:none;fill-opacity:1;fill-rule:nonzero;stroke:#ffffff;stroke-width:1;marker:none;visibility:visible;display:inline;overflow:visible;enable-background:accumulate;stroke-opacity:1"
     id="rect6097"
     y="25.072493"
     x="42.694908"
     height="15"
     width="19" />
  <rect
     style="opacity:0.20000000000000001;color:#000000;fill:none;fill-opacity:1;fill-rule:nonzero;stroke:#ffffff;stroke-width:1;marker:none;visibility:visible;display:inline;overflow:visible;enable-background:accumulate;stroke-opacity:1"
     id="rect6099"
     y="40.072491"
     x="25.694906"
     height="9"
     width="17" />
  <path
     style="opacity:1;color:#000000;fill:none;stroke:#ffffff;stroke-width:1;stroke-opacity:1;marker:none;visibility:visible;display:inline;overflow:visible;enable-background:accumulate"
     id="rect6029"
     inkscape:connector-curvature="0"
     d="m 25.10169,15.258935 0,8 -8,0 0,1 8,0 0,7 -8,0 0,1 8,0 0,7 -8,0 0,1 8,0 0,7 -8,0 0,1 8,0 0,7 -8,0 0,1 8,0 0,7 -8,0 0,1 8,0 0,7 -8,0 0,1 8,0 0,9 1,0 0,-9 17,0 0,9 1,0 0,-9 17,0 0,9 1,0 0,-9 19,0 0,-1 -19,0 0,-7 19,0 0,-1 -19,0 0,-7 19,0 0,-1 -19,0 0,-7 19,0 0,-1 -19,0 0,-7 19,0 0,-1 -19,0 0,-7 19,0 0,-1 -19,0 0,-7 19,0 0,-1 -19,0 0,-8 -1,0 0,8 -17,0 0,-8 -1,0 0,8 -17,0 0,-8 -1,0 z m 1,9 17,0 0,7 -17,0 0,-7 z m 18,0 17,0 0,7 -17,0 0,-7 z m -18,8 17,0 0,7 -17,0 0,-7 z m 18,0 17,0 0,7 -17,0 0,-7 z m -18,8 17,0 0,7 -17,0 0,-7 z m 18,0 17,0 0,7 -17,0 0,-7 z m -18,8 17,0 0,7 -17,0 0,-7 z m 18,0 17,0 0,7 -17,0 0,-7 z m -18,8 17,0 0,7 -17,0 0,-7 z m 18,0 17,0 0,7 -17,0 0,-7 z m -18,8 17,0 0,7 -17,0 0,-7 z m 18,0 17,0 0,7 -17,0 0,-7 z" />
  <path
     style="font-size:medium;font-style:normal;font-variant:normal;font-weight:normal;font-stretch:normal;text-indent:0;text-align:start;text-decoration:none;line-height:normal;letter-spacing:normal;word-spacing:normal;text-transform:none;direction:ltr;block-progression:tb;writing-mode:lr-tb;text-anchor:start;color:#000000;fill:none;fill-opacity:1;stroke:#ffffff;stroke-width:0.99999994000000003;marker:none;visibility:visible;display:inline;overflow:visible;enable-background:accumulate;font-family:Abandoned Bitplane;-inkscape-font-specification:Abandoned Bitplane;stroke-opacity:1"
     id="rect6027"
     inkscape:connector-curvature="0"
     d="m 16.69491,16.072494 0,0.5 0,65 0,0.5 0.5,0 64,0 0.5,0 0,-0.5 0,-65 0,-0.5 -0.5,0 -64,0 -0.5,0 z m 1,1 63,0 0,64 -63,0 0,-64 z" />
  <rect
     style="opacity:0.20000000000000001;color:#000000;fill:none;fill-opacity:1;fill-rule:nonzero;stroke:#ffffff;stroke-width:1;marker:none;visibility:visible;display:inline;overflow:visible;enable-background:accumulate;stroke-opacity:1"
     id="rect6101"
     y="40.072491"
     x="17.694906"
     height="9"
     width="8" />
  <rect
     style="opacity:0.20000000000000001;color:#000000;fill:none;fill-opacity:1;fill-rule:nonzero;stroke:#ffffff;stroke-width:1;marker:none;visibility:visible;display:inline;overflow:visible;enable-background:accumulate;stroke-opacity:1"
     id="rect6103"
     y="16.072493"
     x="42.694908"
     height="9"
     width="19" />
  <g
     style="font-size:4px;font-style:normal;font-variant:normal;font-weight:bold;font-stretch:normal;text-align:start;line-height:125%;writing-mode:lr-tb;text-anchor:start;fill:none;fill-opacity:1;stroke:#ffffff;font-family:Liberation Sans;-inkscape-font-specification:Abandoned Bitplane Bold;stroke-opacity:1"
     id="text6105"
     transform="translate(-16.305091,1.0724939)">
    <path
       id="path6166"
       inkscape:connector-curvature="0"
       d="m 51.212891,21 -0.244141,-0.703125 -1.048828,0 L 49.675781,21 l -0.576172,0 1.003907,-2.751953 0.679687,0 1,2.751953 -0.570312,0 m -0.644532,-1.927734 c -0.01563,-0.04557 -0.03125,-0.09114 -0.04687,-0.136719 -0.01432,-0.04687 -0.02735,-0.08919 -0.03906,-0.126953 -0.01042,-0.03906 -0.01953,-0.07096 -0.02734,-0.0957 -0.0065,-0.02474 -0.01042,-0.03841 -0.01172,-0.04102 -0.0013,0.0039 -0.0052,0.01823 -0.01172,0.04297 -0.0065,0.02474 -0.01563,0.05599 -0.02734,0.09375 -0.01042,0.03776 -0.02344,0.08008 -0.03906,0.126953 -0.01432,0.04557 -0.0293,0.09115 -0.04492,0.136719 l -0.271484,0.791015 0.791016,0 -0.271485,-0.791015"
       style="fill:none;fill-opacity:1;stroke:#ffffff;stroke-opacity:1" />
  </g>
  <g
     style="font-size:4px;font-style:normal;font-variant:normal;font-weight:bold;font-stretch:normal;text-align:start;line-height:125%;writing-mode:lr-tb;text-anchor:start;fill:none;fill-opacity:1;stroke:#ffffff;font-family:Liberation Sans;-inkscape-font-specification:Abandoned Bitplane Bold;stroke-opacity:1"
     id="text6109"
     transform="translate(-17.30509,1.0724939)">
    <path
       id="path6163"
       inkscape:connector-curvature="0"
       d="m 71.707031,20.214844 c -2e-6,0.139323 -0.028,0.259115 -0.08398,0.359375 -0.05599,0.09896 -0.132815,0.180339 -0.230469,0.24414 -0.09636,0.0625 -0.208986,0.108724 -0.337891,0.138672 C 70.925779,20.985677 70.789061,21 70.644531,21 l -1.376953,0 0,-2.751953 1.259766,0 c 0.162758,3e-6 0.30729,0.01433 0.433593,0.04297 0.127603,0.02735 0.235024,0.06966 0.322266,0.126953 0.08724,0.05729 0.152992,0.129559 0.197266,0.216797 0.04557,0.08594 0.06836,0.187502 0.06836,0.304687 -2e-6,0.156252 -0.04362,0.288413 -0.130859,0.396484 -0.08594,0.106773 -0.21745,0.179038 -0.394532,0.216797 0.222655,0.02604 0.391925,0.09636 0.507813,0.210938 0.117185,0.113282 0.175779,0.263673 0.175781,0.451172 M 70.96875,19.017578 c -2e-6,-0.123696 -0.03972,-0.211586 -0.119141,-0.263672 -0.07813,-0.05208 -0.194663,-0.07812 -0.349609,-0.07813 l -0.65625,0 0,0.681641 0.660156,0 c 0.162759,2e-6 0.280597,-0.02799 0.353516,-0.08398 0.07422,-0.05729 0.111326,-0.142576 0.111328,-0.255859 m 0.160156,1.152344 c -2e-6,-0.07292 -0.01432,-0.134114 -0.04297,-0.183594 -0.02865,-0.04948 -0.06836,-0.08919 -0.11914,-0.119141 -0.04948,-0.02995 -0.108075,-0.05143 -0.175781,-0.06445 -0.06641,-0.01302 -0.138674,-0.01953 -0.216797,-0.01953 l -0.730469,0 0,0.789063 0.751953,0 c 0.07552,0 0.145832,-0.0059 0.210938,-0.01758 0.0651,-0.01302 0.121091,-0.0345 0.167968,-0.06445 0.04818,-0.03125 0.08594,-0.07292 0.113282,-0.125 0.02734,-0.05208 0.04101,-0.117186 0.04102,-0.195312"
       style="fill:none;fill-opacity:1;stroke:#ffffff;stroke-opacity:1" />
  </g>
  <g
     style="font-size:4px;font-style:normal;font-variant:normal;font-weight:bold;font-stretch:normal;text-align:center;line-height:125%;writing-mode:lr-tb;text-anchor:middle;fill:none;fill-opacity:1;stroke:#ffffff;font-family:Liberation Sans;-inkscape-font-specification:Abandoned Bitplane Bold;stroke-opacity:1"
     id="text6113"
     transform="translate(-15.305091,1.0724939)">
    <path
       id="path6142"
       inkscape:connector-curvature="0"
       d="m 35.583984,29 0,-0.408203 0.681641,0 0,-1.876953 -0.660156,0.412109 0,-0.431641 0.689453,-0.447265 0.519531,0 0,2.34375 0.630859,0 0,0.408203 -1.861328,0"
       style="fill:none;fill-opacity:1;stroke:#ffffff;stroke-opacity:1" />
  </g>
  <g
     style="font-size:4px;font-style:normal;font-variant:normal;font-weight:bold;font-stretch:normal;text-align:center;line-height:125%;writing-mode:lr-tb;text-anchor:middle;fill:none;fill-opacity:1;stroke:#ffffff;font-family:Liberation Sans;-inkscape-font-specification:Abandoned Bitplane Bold;stroke-opacity:1"
     id="text6117"
     transform="translate(-15.305091,1.0724939)">
    <path
       id="path6145"
       inkscape:connector-curvature="0"
       d="m 35.470703,37 0,-0.380859 c 0.0625,-0.136719 0.138672,-0.259765 0.228516,-0.369141 0.08984,-0.110676 0.183593,-0.211588 0.28125,-0.302734 0.09896,-0.09245 0.196613,-0.177734 0.292968,-0.25586 0.09766,-0.07943 0.184895,-0.155597 0.261719,-0.228515 0.07812,-0.07422 0.141275,-0.148436 0.189453,-0.222657 0.04818,-0.07422 0.07227,-0.152993 0.07227,-0.236328 -10e-7,-0.122393 -0.0306,-0.212888 -0.0918,-0.271484 -0.0612,-0.05859 -0.151043,-0.08789 -0.269531,-0.08789 -0.117189,3e-6 -0.207032,0.0319 -0.269531,0.0957 -0.0612,0.0625 -0.100913,0.156904 -0.119141,0.283203 l -0.552734,-0.03125 c 0.01302,-0.10807 0.03971,-0.209633 0.08008,-0.304687 0.04036,-0.09505 0.09766,-0.178383 0.171875,-0.25 0.07552,-0.07161 0.16927,-0.127601 0.28125,-0.167969 0.11328,-0.04166 0.248046,-0.0625 0.404297,-0.0625 0.148436,3e-6 0.279946,0.01758 0.394531,0.05273 0.114582,0.03386 0.210936,0.08399 0.289062,0.15039 0.07812,0.06641 0.137368,0.147789 0.177735,0.244141 0.04036,0.09505 0.06054,0.203778 0.06055,0.326172 -2e-6,0.128908 -0.02539,0.245444 -0.07617,0.349609 -0.05078,0.104168 -0.115887,0.200522 -0.195313,0.289063 -0.07943,0.08724 -0.16797,0.169272 -0.265625,0.246093 -0.09636,0.07682 -0.190105,0.151694 -0.28125,0.22461 -0.09115,0.07292 -0.17448,0.146485 -0.25,0.220703 -0.07422,0.07422 -0.129558,0.153646 -0.166015,0.238281 l 1.277343,0 0,0.451172 -1.925781,0"
       style="fill:none;fill-opacity:1;stroke:#ffffff;stroke-opacity:1" />
  </g>
  <g
     style="font-size:4px;font-style:normal;font-variant:normal;font-weight:bold;font-stretch:normal;text-align:center;line-height:125%;writing-mode:lr-tb;text-anchor:middle;fill:none;fill-opacity:1;stroke:#ffffff;font-family:Liberation Sans;-inkscape-font-specification:Abandoned Bitplane Bold;stroke-opacity:1"
     id="text6121"
     transform="translate(-15.305091,1.0724939)">
    <path
       id="path6148"
       inkscape:connector-curvature="0"
       d="m 37.412109,44.236328 c -2e-6,0.125001 -0.02083,0.237631 -0.0625,0.337891 -0.04037,0.09896 -0.101564,0.183594 -0.183593,0.253906 -0.08203,0.07031 -0.184247,0.124349 -0.306641,0.162109 -0.121095,0.03646 -0.262371,0.05469 -0.423828,0.05469 -0.179689,0 -0.331381,-0.02279 -0.455078,-0.06836 -0.122397,-0.04557 -0.223308,-0.105468 -0.302735,-0.179687 -0.07813,-0.07552 -0.13737,-0.160807 -0.177734,-0.255859 -0.03906,-0.09505 -0.06445,-0.191406 -0.07617,-0.289063 l 0.558594,-0.04883 c 0.0078,0.05859 0.02213,0.112631 0.04297,0.162109 0.02213,0.04818 0.05143,0.08984 0.08789,0.125 0.03646,0.03516 0.08073,0.0625 0.132813,0.08203 0.05338,0.01823 0.115884,0.02734 0.1875,0.02734 0.131509,10e-7 0.233722,-0.03255 0.30664,-0.09766 0.07292,-0.0651 0.109374,-0.164713 0.109375,-0.298828 -10e-7,-0.08203 -0.01758,-0.147786 -0.05273,-0.197266 -0.03386,-0.04948 -0.07747,-0.08724 -0.130859,-0.113281 -0.05208,-0.02734 -0.108726,-0.04557 -0.169922,-0.05469 -0.0612,-0.0091 -0.119142,-0.01367 -0.173828,-0.01367 l -0.191407,0 0,-0.44336 0.179688,0 c 0.05469,2e-6 0.110025,-0.0052 0.166015,-0.01563 0.05729,-0.01042 0.108723,-0.02929 0.154297,-0.05664 0.04557,-0.02734 0.08268,-0.0651 0.111328,-0.113282 0.02864,-0.04948 0.04297,-0.111977 0.04297,-0.1875 -1e-6,-0.113279 -0.0319,-0.20182 -0.0957,-0.265625 -0.0625,-0.0651 -0.154298,-0.09765 -0.275391,-0.09766 -0.113282,3e-6 -0.205079,0.03125 -0.27539,0.09375 -0.06901,0.0625 -0.108725,0.151044 -0.119141,0.265625 l -0.548828,-0.03906 c 0.01563,-0.128904 0.05078,-0.240883 0.105469,-0.335938 0.05599,-0.09505 0.125651,-0.173825 0.208984,-0.236328 0.08463,-0.0625 0.18164,-0.108721 0.291016,-0.138672 0.109374,-0.03125 0.225259,-0.04687 0.347656,-0.04687 0.161457,3e-6 0.300129,0.01953 0.416016,0.05859 0.115884,0.03907 0.210936,0.0918 0.285156,0.158203 0.07422,0.06641 0.128904,0.143883 0.164062,0.232422 0.03515,0.08854 0.05273,0.182945 0.05273,0.283203 -2e-6,0.08073 -0.01172,0.156252 -0.03516,0.226563 -0.02344,0.06901 -0.05925,0.131512 -0.107422,0.1875 -0.04688,0.05469 -0.107424,0.102215 -0.181641,0.142578 -0.07422,0.03906 -0.162111,0.06836 -0.263672,0.08789 l 0,0.0078 c 0.11328,0.01302 0.211587,0.03906 0.294922,0.07813 0.08333,0.03776 0.151691,0.08529 0.205078,0.142578 0.05338,0.05729 0.0931,0.122397 0.119141,0.195312 0.02604,0.07162 0.03906,0.147788 0.03906,0.228516"
       style="fill:none;fill-opacity:1;stroke:#ffffff;stroke-opacity:1" />
  </g>
  <g
     style="font-size:4px;font-style:normal;font-variant:normal;font-weight:bold;font-stretch:normal;text-align:center;line-height:125%;writing-mode:lr-tb;text-anchor:middle;fill:none;fill-opacity:1;stroke:#ffffff;font-family:Liberation Sans;-inkscape-font-specification:Abandoned Bitplane Bold;stroke-opacity:1"
     id="text6125"
     transform="translate(-15.305091,1.0724939)">
    <path
       id="path6151"
       inkscape:connector-curvature="0"
       d="m 37.167969,52.439453 0,0.560547 -0.523438,0 0,-0.560547 -1.251953,0 0,-0.412109 1.162109,-1.779297 0.613282,0 0,1.783203 0.367187,0 0,0.408203 -0.367187,0 m -0.523438,-1.308594 c -10e-7,-0.02213 -10e-7,-0.05078 0,-0.08594 0.0013,-0.03646 0.0026,-0.07357 0.0039,-0.111328 0.0026,-0.03776 0.0046,-0.07357 0.0059,-0.107422 0.0026,-0.03515 0.0052,-0.0625 0.0078,-0.08203 -0.0065,0.01432 -0.01693,0.03516 -0.03125,0.0625 -0.01432,0.02604 -0.0306,0.05469 -0.04883,0.08594 -0.01693,0.02995 -0.03516,0.0599 -0.05469,0.08984 -0.01823,0.02995 -0.03451,0.05599 -0.04883,0.07813 l -0.638672,0.970703 0.804687,0 0,-0.900391"
       style="fill:none;fill-opacity:1;stroke:#ffffff;stroke-opacity:1" />
  </g>
  <g
     style="font-size:4px;font-style:normal;font-variant:normal;font-weight:bold;font-stretch:normal;text-align:center;line-height:125%;writing-mode:lr-tb;text-anchor:middle;fill:none;fill-opacity:1;stroke:#ffffff;font-family:Liberation Sans;-inkscape-font-specification:Abandoned Bitplane Bold;stroke-opacity:1"
     id="text6129"
     transform="translate(-15.305091,1.0724939)">
    <path
       id="path6154"
       inkscape:connector-curvature="0"
       d="m 37.445312,60.083984 c -2e-6,0.138022 -0.02214,0.265626 -0.06641,0.382813 -0.04297,0.115886 -0.107424,0.216797 -0.193359,0.302734 -0.08594,0.08464 -0.19271,0.151042 -0.320313,0.199219 -0.126303,0.04687 -0.272787,0.07031 -0.439453,0.07031 -0.153647,0 -0.287761,-0.01823 -0.402344,-0.05469 -0.114583,-0.03776 -0.211589,-0.08919 -0.291015,-0.154297 -0.07813,-0.06641 -0.139974,-0.14388 -0.185547,-0.232422 -0.04427,-0.08854 -0.07487,-0.183593 -0.0918,-0.285156 l 0.548828,-0.04492 c 0.01042,0.04297 0.02474,0.08464 0.04297,0.125 0.01953,0.04037 0.04622,0.07617 0.08008,0.107422 0.03385,0.03125 0.07552,0.05664 0.125,0.07617 0.04948,0.01823 0.109374,0.02734 0.179688,0.02734 0.136717,0 0.245441,-0.04362 0.326171,-0.13086 0.08203,-0.08724 0.123046,-0.21289 0.123047,-0.376953 -10e-7,-0.07292 -0.01042,-0.138671 -0.03125,-0.197266 -0.01953,-0.05859 -0.04818,-0.108722 -0.08594,-0.15039 -0.03646,-0.04167 -0.08203,-0.07357 -0.136719,-0.0957 -0.05339,-0.02213 -0.114584,-0.0332 -0.183594,-0.0332 -0.09115,10e-7 -0.166016,0.01758 -0.224609,0.05273 -0.05859,0.03386 -0.108074,0.07552 -0.148438,0.125 l -0.535156,0 0.0957,-1.548828 1.654297,0 0,0.408203 -1.15625,0 -0.04492,0.695312 c 0.05469,-0.04818 0.123697,-0.08919 0.207032,-0.123046 0.08333,-0.03515 0.180337,-0.05273 0.291015,-0.05273 0.135416,2e-6 0.256509,0.02214 0.363281,0.06641 0.10677,0.04427 0.197264,0.106122 0.271485,0.185547 0.07422,0.07943 0.130857,0.175132 0.169922,0.28711 0.03906,0.110678 0.05859,0.233725 0.05859,0.36914"
       style="fill:none;fill-opacity:1;stroke:#ffffff;stroke-opacity:1" />
  </g>
  <g
     style="font-size:4px;font-style:normal;font-variant:normal;font-weight:bold;font-stretch:normal;text-align:center;line-height:125%;writing-mode:lr-tb;text-anchor:middle;fill:none;fill-opacity:1;stroke:#ffffff;font-family:Liberation Sans;-inkscape-font-specification:Abandoned Bitplane Bold;stroke-opacity:1"
     id="text6133"
     transform="translate(-15.305091,1.0724939)">
    <path
       id="path6157"
       inkscape:connector-curvature="0"
       d="m 37.412109,68.099609 c -2e-6,0.138022 -0.01953,0.264975 -0.05859,0.38086 -0.03907,0.114583 -0.09766,0.213542 -0.175782,0.296875 -0.07682,0.08203 -0.173178,0.146484 -0.289062,0.193359 -0.115887,0.04557 -0.250001,0.06836 -0.402344,0.06836 -0.324219,0 -0.573568,-0.113281 -0.748047,-0.339843 -0.173177,-0.227864 -0.259766,-0.565104 -0.259765,-1.011719 -10e-7,-0.490884 0.08789,-0.860024 0.263671,-1.107422 0.177083,-0.248695 0.429687,-0.373044 0.757813,-0.373047 0.109374,3e-6 0.208983,0.01172 0.298828,0.03516 0.08984,0.02214 0.16992,0.0586 0.240234,0.109375 0.07031,0.05078 0.130207,0.116539 0.179688,0.197266 0.04948,0.07943 0.08919,0.176435 0.119141,0.291016 l -0.517579,0.07227 c -0.02604,-0.09635 -0.06836,-0.165362 -0.126953,-0.207031 -0.0586,-0.04297 -0.126954,-0.06445 -0.205078,-0.06445 -0.147136,2e-6 -0.263021,0.07357 -0.347656,0.220703 -0.08333,0.147138 -0.125001,0.370445 -0.125,0.669922 0.05859,-0.09766 0.139973,-0.172524 0.244141,-0.224609 0.104165,-0.05208 0.222004,-0.07812 0.353515,-0.07813 0.121093,1e-6 0.230467,0.02018 0.328125,0.06055 0.09896,0.03906 0.182941,0.09636 0.251953,0.171875 0.07031,0.07422 0.124347,0.165366 0.16211,0.273438 0.03776,0.108074 0.05664,0.229819 0.05664,0.365234 m -0.550781,0.01563 c -10e-7,-0.07422 -0.0085,-0.140624 -0.02539,-0.199218 -0.01693,-0.05989 -0.04297,-0.110676 -0.07813,-0.152344 -0.03386,-0.04167 -0.07617,-0.07357 -0.126953,-0.0957 -0.05078,-0.02344 -0.109376,-0.03516 -0.175781,-0.03516 -0.04818,2e-6 -0.09636,0.0078 -0.144531,0.02344 -0.04818,0.01563 -0.09115,0.04102 -0.128906,0.07617 -0.03776,0.03386 -0.06836,0.07748 -0.0918,0.130859 -0.02344,0.05339 -0.03516,0.11784 -0.03516,0.19336 0,0.07813 0.0098,0.151042 0.0293,0.21875 0.01953,0.06771 0.04687,0.126953 0.08203,0.177734 0.03646,0.04948 0.08008,0.08854 0.130859,0.117187 0.05078,0.02734 0.108072,0.04102 0.171875,0.04102 0.123697,10e-7 0.220051,-0.04362 0.289062,-0.130859 0.06901,-0.08854 0.103515,-0.210286 0.103516,-0.365235"
       style="fill:none;fill-opacity:1;stroke:#ffffff;stroke-opacity:1" />
  </g>
  <g
     style="font-size:4px;font-style:normal;font-variant:normal;font-weight:bold;font-stretch:normal;text-align:center;line-height:125%;writing-mode:lr-tb;text-anchor:middle;fill:none;fill-opacity:1;stroke:#ffffff;font-family:Liberation Sans;-inkscape-font-specification:Abandoned Bitplane Bold;stroke-opacity:1"
     id="text6137"
     transform="translate(-15.305091,1.0724939)">
    <path
       id="path6160"
       inkscape:connector-curvature="0"
       d="m 37.380859,74.683594 c -0.123699,0.195314 -0.240887,0.384767 -0.351562,0.568359 -0.109377,0.183595 -0.20508,0.368491 -0.28711,0.554688 -0.08203,0.184896 -0.147136,0.375651 -0.195312,0.572265 C 36.499995,76.574219 36.476565,76.78125 36.476565,77 L 35.9043,77 c -10e-7,-0.217448 0.02539,-0.423828 0.07617,-0.619141 0.05208,-0.196613 0.122395,-0.388019 0.210937,-0.574218 0.08854,-0.186197 0.191405,-0.36979 0.308594,-0.550782 0.117186,-0.182289 0.240884,-0.367836 0.371094,-0.55664 l -1.367188,0 0,-0.451172 1.876953,0 0,0.435547"
       style="fill:none;fill-opacity:1;stroke:#ffffff;stroke-opacity:1" />
  </g>
  <path
     style="opacity:0.50000000000000000;color:#000000;fill:none;fill-opacity:1;fill-rule:nonzero;stroke:#ffffff;stroke-width:1;marker:none;visibility:visible;display:inline;overflow:visible;enable-background:accumulate;stroke-opacity:1"
     id="rect6168"
     inkscape:connector-curvature="0"
     d="m 42.69491,40.072494 0,9 19,0 0,-9 -19,0 z m 1,1 17,0 0,7 -17,0 0,-7 z" />
  <text
     style="font-size:4.20778130999999966px;font-style:normal;font-variant:normal;font-weight:bold;font-stretch:normal;text-align:start;line-height:125%;writing-mode:lr-tb;text-anchor:start;fill:none;fill-opacity:1;stroke:#ffffff;font-family:Liberation Sans;-inkscape-font-specification:Abandoned Bitplane Bold;stroke-opacity:1"
     xml:space="preserve"
     id="text3021"
     y="22.148588"
     x="69.694908"
     sodipodi:linespacing="125%"><tspan
       id="tspan3023"
       y="22.148588"
       x="69.694908"
       style="fill:none;fill-opacity:1;stroke:#ffffff;stroke-opacity:1">C</tspan></text>
</svg>
