<?xml version="1.0" encoding="UTF-8" standalone="no"?>
<!-- Created with Inkscape (http://www.inkscape.org/) -->

<svg
   xmlns:dc="http://purl.org/dc/elements/1.1/"
   xmlns:cc="http://creativecommons.org/ns#"
   xmlns:rdf="http://www.w3.org/1999/02/22-rdf-syntax-ns#"
   xmlns:svg="http://www.w3.org/2000/svg"
   xmlns="http://www.w3.org/2000/svg"
   xmlns:xlink="http://www.w3.org/1999/xlink"
   xmlns:sodipodi="http://sodipodi.sourceforge.net/DTD/sodipodi-0.dtd"
   xmlns:inkscape="http://www.inkscape.org/namespaces/inkscape"
   version="1.0"
   width="96"
   height="96"
   id="svg2408"
   inkscape:version="0.48.4 r9939"
   sodipodi:docname="googleplus.svg">
  <sodipodi:namedview
     pagecolor="#ffffff"
     bordercolor="#666666"
     borderopacity="1"
     objecttolerance="10"
     gridtolerance="10"
     guidetolerance="10"
     inkscape:pageopacity="0"
     inkscape:pageshadow="2"
     inkscape:window-width="810"
     inkscape:window-height="591"
     id="namedview69"
     showgrid="false"
     inkscape:zoom="2.4583333"
     inkscape:cx="48"
     inkscape:cy="48"
     inkscape:window-x="36"
     inkscape:window-y="132"
     inkscape:window-maximized="0"
     inkscape:current-layer="svg2408" />
  <defs
     id="defs2410">
    <linearGradient
       id="linearGradient3994">
      <stop
         id="stop3996"
         style="stop-color:#ffffff;stop-opacity:1"
         offset="0" />
      <stop
         id="stop3998"
         style="stop-color:#ffffff;stop-opacity:0"
         offset="1" />
    </linearGradient>
    <linearGradient
       id="linearGradient3881">
      <stop
         id="stop3883"
         style="stop-color:#000000;stop-opacity:1"
         offset="0" />
      <stop
         id="stop3885"
         style="stop-color:#000000;stop-opacity:0"
         offset="1" />
    </linearGradient>
    <linearGradient
       x1="45.447727"
       y1="92.539597"
       x2="45.447727"
       y2="7.0165396"
       id="ButtonShadow"
       gradientUnits="userSpaceOnUse"
       gradientTransform="scale(1.0058652,0.994169)">
      <stop
         id="stop3750"
         style="stop-color:#000000;stop-opacity:1"
         offset="0" />
      <stop
         id="stop3752"
         style="stop-color:#000000;stop-opacity:0.58823532"
         offset="1" />
    </linearGradient>
    <linearGradient
       id="linearGradient3737">
      <stop
         id="stop3739"
         style="stop-color:#ffffff;stop-opacity:1"
         offset="0" />
      <stop
         id="stop3741"
         style="stop-color:#ffffff;stop-opacity:0"
         offset="1" />
    </linearGradient>
    <linearGradient
       id="linearGradient3700">
      <stop
         id="stop3702"
         style="stop-color:#1a1818;stop-opacity:1"
         offset="0" />
      <stop
         id="stop3704"
         style="stop-color:#403d3d;stop-opacity:1"
         offset="1" />
    </linearGradient>
    <filter
       color-interpolation-filters="sRGB"
       id="filter3174">
      <feGaussianBlur
         id="feGaussianBlur3176"
         stdDeviation="1.71" />
    </filter>
    <linearGradient
       x1="36.357143"
       y1="6"
       x2="36.357143"
       y2="63.893143"
       id="linearGradient3188"
       xlink:href="#linearGradient3737"
       gradientUnits="userSpaceOnUse" />
    <filter
       x="-0.192"
       y="-0.192"
       width="1.3839999"
       height="1.3839999"
       color-interpolation-filters="sRGB"
       id="filter3794">
      <feGaussianBlur
         id="feGaussianBlur3796"
         stdDeviation="5.28" />
    </filter>
    <linearGradient
       x1="48"
       y1="20.220806"
       x2="48"
       y2="138.66119"
       id="linearGradient3613"
       xlink:href="#linearGradient3737"
       gradientUnits="userSpaceOnUse" />
    <radialGradient
       cx="48"
       cy="90.171875"
       r="42"
       fx="48"
       fy="90.171875"
       id="radialGradient3619"
       xlink:href="#linearGradient3737"
       gradientUnits="userSpaceOnUse"
       gradientTransform="matrix(1.1573129,0,0,0.99590774,-7.5510206,0.19713193)" />
    <clipPath
       id="clipPath3613">
      <rect
         width="84"
         height="84"
         rx="6"
         ry="6"
         x="6"
         y="6"
         id="rect3615"
         style="fill:#ffffff;fill-opacity:1;fill-rule:nonzero;stroke:none" />
    </clipPath>
    <linearGradient
       x1="48"
       y1="90"
       x2="48"
       y2="5.9877172"
       id="linearGradient3617"
       xlink:href="#linearGradient3700"
       gradientUnits="userSpaceOnUse"
       gradientTransform="translate(0,20)" />
    <linearGradient
       x1="45.447727"
       y1="92.539597"
       x2="45.447727"
       y2="7.0165396"
       id="ButtonShadow-0"
       gradientUnits="userSpaceOnUse"
       gradientTransform="matrix(1.0058652,0,0,0.994169,100,0)">
      <stop
         id="stop3750-8"
         style="stop-color:#000000;stop-opacity:1"
         offset="0" />
      <stop
         id="stop3752-5"
         style="stop-color:#000000;stop-opacity:0.58823532"
         offset="1" />
    </linearGradient>
    <linearGradient
       x1="32.251034"
       y1="6.1317081"
       x2="32.251034"
       y2="90.238609"
       id="linearGradient3780"
       xlink:href="#ButtonShadow-0"
       gradientUnits="userSpaceOnUse"
       gradientTransform="matrix(1.0238095,0,0,1.0119048,-1.1428571,-98.071429)" />
    <linearGradient
       x1="32.251034"
       y1="6.1317081"
       x2="32.251034"
       y2="90.238609"
       id="linearGradient3772"
       xlink:href="#ButtonShadow-0"
       gradientUnits="userSpaceOnUse"
       gradientTransform="matrix(1.0238095,0,0,1.0119048,-1.1428571,-98.071429)" />
    <linearGradient
       x1="32.251034"
       y1="6.1317081"
       x2="32.251034"
       y2="90.238609"
       id="linearGradient3725"
       xlink:href="#ButtonShadow-0"
       gradientUnits="userSpaceOnUse"
       gradientTransform="matrix(1.0238095,0,0,1.0119048,-1.1428571,-98.071429)" />
    <linearGradient
       x1="32.251034"
       y1="6.1317081"
       x2="32.251034"
       y2="90.238609"
       id="linearGradient3721"
       xlink:href="#ButtonShadow-0"
       gradientUnits="userSpaceOnUse"
       gradientTransform="translate(0,-97)" />
    <linearGradient
       x1="32.251034"
       y1="6.1317081"
       x2="32.251034"
       y2="90.238609"
       id="linearGradient3026"
       xlink:href="#ButtonShadow-0"
       gradientUnits="userSpaceOnUse"
       gradientTransform="matrix(1.0238095,0,0,1.0119048,-1.1428571,-98.071429)" />
    <linearGradient
       x1="31"
       y1="16"
       x2="31"
       y2="18"
       id="linearGradient3887"
       xlink:href="#linearGradient3881"
       gradientUnits="userSpaceOnUse"
       gradientTransform="matrix(1,0,0,1.5,0,-8)" />
    <linearGradient
       x1="36.357143"
       y1="6"
       x2="36.357143"
       y2="63.893143"
       id="linearGradient3902"
       xlink:href="#linearGradient3737"
       gradientUnits="userSpaceOnUse" />
    <clipPath
       id="clipPath3981">
      <rect
         width="96"
         height="82"
         x="0"
         y="34"
         id="rect3983"
         style="opacity:0.5;color:#000000;fill:#ff00ff;fill-opacity:1;fill-rule:nonzero;stroke:none;stroke-width:2;marker:none;visibility:visible;display:inline;overflow:visible;enable-background:accumulate" />
    </clipPath>
    <linearGradient
       x1="40"
       y1="6"
       x2="40"
       y2="14"
       id="linearGradient4000"
       xlink:href="#linearGradient3994"
       gradientUnits="userSpaceOnUse" />
  </defs>
  <metadata
     id="metadata2413">
    <rdf:RDF>
      <cc:Work
         rdf:about="">
        <dc:format>image/svg+xml</dc:format>
        <dc:type
           rdf:resource="http://purl.org/dc/dcmitype/StillImage" />
        <dc:title></dc:title>
      </cc:Work>
    </rdf:RDF>
  </metadata>
  <g
     id="layer2"
     style="display:none">
    <rect
       width="86"
       height="85"
       rx="6"
       ry="6"
       x="5"
       y="7"
       id="rect3745"
       style="opacity:0.9;fill:url(#ButtonShadow);fill-opacity:1;fill-rule:nonzero;stroke:none;filter:url(#filter3174)" />
  </g>
  <rect
     style="fill:#2c5aa0;fill-opacity:1;stroke:none"
     id="rect3046"
     width="96"
     height="96"
     x="0"
     y="0" />
  <path
     style="font-style:normal;font-variant:normal;font-weight:normal;font-stretch:normal;letter-spacing:normal;word-spacing:normal;text-anchor:start;fill:#ffffff;fill-opacity:1;fill-rule:nonzero;stroke:#0099ff;stroke-width:0;stroke-linecap:butt;stroke-linejoin:miter;stroke-miterlimit:10.43299961;stroke-opacity:1;stroke-dasharray:none;stroke-dashoffset:0"
     id="path208"
     inkscape:connector-curvature="0"
     d="m 49.945975,25.118644 c -3.400216,0 -7.660082,0.508004 -11.25,3.46875 -2.707528,2.329853 -4.031255,5.540854 -4.03125,8.4375 0,4.912071 3.791914,9.87501 10.46875,9.875 0.629457,0 1.307313,-0.06439 2,-0.125 -0.316164,0.755635 -0.624995,1.398734 -0.625,2.46875 0,1.951325 0.992606,3.147278 1.875,4.281246 -2.833995,0.18976 -8.12804,0.51375 -12.03125,2.90625 -3.719256,2.20512 -4.84375,5.41974 -4.84375,7.6875 0,4.66173 4.396932,8.99999 13.53125,9 10.835861,0 16.59375,-5.98476 16.59375,-11.90625 0,-4.34612 -2.541741,-6.4829 -5.3125,-8.812496 l -2.25,-1.78125 c -0.692688,-0.568128 -1.656245,-1.301951 -1.65625,-2.6875 0,-1.386528 0.964967,-2.275167 1.78125,-3.09375 2.647168,-2.078064 5.28125,-4.275779 5.28125,-8.9375 l 0,-0.46875 -0.03125,-0.40625 -0.03125,-0.4375 -0.0625,-0.40625 -0.09375,-0.375 -0.0625,-0.375 -0.09375,-0.375 -0.125,-0.34375 -0.125,-0.34375 -0.125,-0.34375 -0.125,-0.3125 -0.15625,-0.3125 -0.15625,-0.28125 -0.15625,-0.28125 -0.1875,-0.28125 -0.15625,-0.28125 -0.1875,-0.25 -0.1875,-0.25 -0.15625,-0.21875 -0.1875,-0.21875 -0.1875,-0.21875 -0.1875,-0.1875 -0.1875,-0.21875 -0.1875,-0.1875 -0.1875,-0.15625 -0.1875,-0.15625 -0.15625,-0.15625 -0.1875,-0.15625 -0.15625,-0.15625 -0.15625,-0.125 -0.125,-0.125 -0.15625,-0.125 3.90625,0 4.03125,-2.25 -13,0 z m 22.5625,0 0,8 -8,0 0,2 8,0 0,8 2,0 0,-8 8,0 0,-2 -8,0 0,-8 -2,0 z m -26.5,2.0625 c 5.231102,0 7.93751,7.059075 7.9375,11.59375 l 0,0.125 0,0.09375 0,0.125 -0.03125,0.125 0,0.125 0,0.125 0,0.15625 -0.03125,0.125 0,0.15625 -0.03125,0.125 0,0.15625 -0.03125,0.15625 -0.03125,0.125 -0.03125,0.15625 -0.03125,0.15625 -0.03125,0.15625 -0.03125,0.15625 -0.0625,0.15625 -0.0625,0.15625 -0.03125,0.15625 -0.0625,0.15625 -0.09375,0.15625 -0.0625,0.15625 -0.0625,0.15625 -0.09375,0.15625 -0.09375,0.15625 -0.09375,0.15625 -0.09375,0.125 -0.125,0.15625 -0.09375,0.15625 -0.15625,0.125 -0.125,0.15625 c -1.008855,1.007126 -2.706172,1.75 -4.28125,1.75 -5.417928,0 -7.875,-6.999387 -7.875,-11.21875 0,-1.638029 0.337034,-3.333817 1.40625,-4.65625 1.008857,-1.260927 2.770804,-2.09375 4.40625,-2.09375 z m 3.0625,28.124996 0.0625,0 0.0625,0 0.0625,0 0.0625,0 0.03125,0 0.0625,0 0.03125,0 0.0625,0 0.0625,0 0.03125,0 0.09375,0 0.09375,0 0.0625,0 0.09375,0 0.0625,0 0.09375,0 0.09375,0 0.0625,0.0312 0.09375,0 0.09375,0 0.03125,0 0.0625,0.0312 c 4.788471,3.4031 6.874995,5.09825 6.875,8.3125 0,3.90608 -3.23386,6.78125 -9.28125,6.78125 -6.740081,0 -11.0625,-3.21577 -11.0625,-7.6875 0,-4.47432 4.018,-5.96575 5.40625,-6.46875 2.644298,-0.88268 6.027529,-1 6.59375,-1 z" />
  <rect
     style="fill:#2c5aa0;fill-opacity:1;stroke:none"
     id="rect3046-4"
     width="25.220341"
     height="38.644066"
     x="63.864403"
     y="17.898306" />
</svg>
