<?xml version="1.0" encoding="UTF-8" standalone="no"?>
<!-- Created with Inkscape (http://www.inkscape.org/) -->

<svg
   xmlns:dc="http://purl.org/dc/elements/1.1/"
   xmlns:cc="http://creativecommons.org/ns#"
   xmlns:rdf="http://www.w3.org/1999/02/22-rdf-syntax-ns#"
   xmlns:svg="http://www.w3.org/2000/svg"
   xmlns="http://www.w3.org/2000/svg"
   xmlns:xlink="http://www.w3.org/1999/xlink"
   xmlns:sodipodi="http://sodipodi.sourceforge.net/DTD/sodipodi-0.dtd"
   xmlns:inkscape="http://www.inkscape.org/namespaces/inkscape"
   version="1.0"
   width="96"
   height="96"
   id="svg2408"
   inkscape:version="0.48.4 r9939"
   sodipodi:docname="iceweasel.svg">
  <sodipodi:namedview
     pagecolor="#ffffff"
     bordercolor="#666666"
     borderopacity="1"
     objecttolerance="10"
     gridtolerance="10"
     guidetolerance="10"
     inkscape:pageopacity="0"
     inkscape:pageshadow="2"
     inkscape:window-width="640"
     inkscape:window-height="480"
     id="namedview203"
     showgrid="false"
     inkscape:zoom="2.4583333"
     inkscape:cx="48"
     inkscape:cy="31.728814"
     inkscape:window-x="253"
     inkscape:window-y="140"
     inkscape:window-maximized="0"
     inkscape:current-layer="svg2408" />
  <defs
     id="defs2410">
    <linearGradient
       id="linearGradient5183">
      <stop
         id="stop5185"
         style="stop-color:#ffffff;stop-opacity:1"
         offset="0" />
      <stop
         id="stop5187"
         style="stop-color:#ffffff;stop-opacity:0"
         offset="1" />
    </linearGradient>
    <linearGradient
       id="linearGradient5173">
      <stop
         id="stop5175"
         style="stop-color:#7469ea;stop-opacity:1"
         offset="0" />
      <stop
         id="stop5177"
         style="stop-color:#20157e;stop-opacity:1"
         offset="1" />
    </linearGradient>
    <linearGradient
       id="linearGradient5157">
      <stop
         id="stop5159"
         style="stop-color:#000000;stop-opacity:1"
         offset="0" />
      <stop
         id="stop5161"
         style="stop-color:#000000;stop-opacity:0"
         offset="1" />
    </linearGradient>
    <linearGradient
       x1="45.447727"
       y1="92.539597"
       x2="45.447727"
       y2="7.0165396"
       id="ButtonShadow"
       gradientUnits="userSpaceOnUse"
       gradientTransform="scale(1.0058652,0.994169)">
      <stop
         id="stop3750"
         style="stop-color:#000000;stop-opacity:1"
         offset="0" />
      <stop
         id="stop3752"
         style="stop-color:#000000;stop-opacity:0.58823532"
         offset="1" />
    </linearGradient>
    <linearGradient
       id="linearGradient3737">
      <stop
         id="stop3739"
         style="stop-color:#ffffff;stop-opacity:1"
         offset="0" />
      <stop
         id="stop3741"
         style="stop-color:#ffffff;stop-opacity:0"
         offset="1" />
    </linearGradient>
    <linearGradient
       id="linearGradient3700">
      <stop
         id="stop3702"
         style="stop-color:#5449c0;stop-opacity:1"
         offset="0" />
      <stop
         id="stop3704"
         style="stop-color:#827aca;stop-opacity:1"
         offset="1" />
    </linearGradient>
    <filter
       color-interpolation-filters="sRGB"
       id="filter3174">
      <feGaussianBlur
         id="feGaussianBlur3176"
         stdDeviation="1.71" />
    </filter>
    <linearGradient
       x1="36.357143"
       y1="6"
       x2="36.357143"
       y2="63.893143"
       id="linearGradient3188"
       xlink:href="#linearGradient3737"
       gradientUnits="userSpaceOnUse" />
    <filter
       x="-0.192"
       y="-0.192"
       width="1.3839999"
       height="1.3839999"
       color-interpolation-filters="sRGB"
       id="filter3794">
      <feGaussianBlur
         id="feGaussianBlur3796"
         stdDeviation="5.28" />
    </filter>
    <linearGradient
       x1="46.372883"
       y1="49.508942"
       x2="48"
       y2="138.66119"
       id="linearGradient3613"
       xlink:href="#linearGradient3737"
       gradientUnits="userSpaceOnUse" />
    <radialGradient
       cx="48"
       cy="90.171875"
       r="42"
       fx="48"
       fy="90.171875"
       id="radialGradient3619"
       xlink:href="#linearGradient3737"
       gradientUnits="userSpaceOnUse"
       gradientTransform="matrix(1.1573129,0,0,0.99590774,-7.5510206,0.19713193)" />
    <clipPath
       id="clipPath3613">
      <rect
         width="84"
         height="84"
         rx="6"
         ry="6"
         x="6"
         y="6"
         id="rect3615"
         style="fill:#ffffff;fill-opacity:1;fill-rule:nonzero;stroke:none" />
    </clipPath>
    <linearGradient
       x1="48"
       y1="90"
       x2="48"
       y2="5.9877172"
       id="linearGradient3617"
       xlink:href="#linearGradient3700"
       gradientUnits="userSpaceOnUse" />
    <linearGradient
       x1="45.447727"
       y1="92.539597"
       x2="45.447727"
       y2="7.0165396"
       id="ButtonShadow-0"
       gradientUnits="userSpaceOnUse"
       gradientTransform="matrix(1.0058652,0,0,0.994169,100,0)">
      <stop
         id="stop3750-8"
         style="stop-color:#000000;stop-opacity:1"
         offset="0" />
      <stop
         id="stop3752-5"
         style="stop-color:#000000;stop-opacity:0.58823532"
         offset="1" />
    </linearGradient>
    <linearGradient
       x1="32.251034"
       y1="6.1317081"
       x2="32.251034"
       y2="90.238609"
       id="linearGradient3780"
       xlink:href="#ButtonShadow-0"
       gradientUnits="userSpaceOnUse"
       gradientTransform="matrix(1.0238095,0,0,1.0119048,-1.1428571,-98.071429)" />
    <linearGradient
       x1="32.251034"
       y1="6.1317081"
       x2="32.251034"
       y2="90.238609"
       id="linearGradient3772"
       xlink:href="#ButtonShadow-0"
       gradientUnits="userSpaceOnUse"
       gradientTransform="matrix(1.0238095,0,0,1.0119048,-1.1428571,-98.071429)" />
    <linearGradient
       x1="32.251034"
       y1="6.1317081"
       x2="32.251034"
       y2="90.238609"
       id="linearGradient3725"
       xlink:href="#ButtonShadow-0"
       gradientUnits="userSpaceOnUse"
       gradientTransform="matrix(1.0238095,0,0,1.0119048,-1.1428571,-98.071429)" />
    <linearGradient
       x1="32.251034"
       y1="6.1317081"
       x2="32.251034"
       y2="90.238609"
       id="linearGradient3721"
       xlink:href="#ButtonShadow-0"
       gradientUnits="userSpaceOnUse"
       gradientTransform="translate(0,-97)" />
    <linearGradient
       x1="32.251034"
       y1="6.1317081"
       x2="32.251034"
       y2="90.238609"
       id="linearGradient3026"
       xlink:href="#ButtonShadow-0"
       gradientUnits="userSpaceOnUse"
       gradientTransform="matrix(1.0238095,0,0,1.0119048,-1.1428571,-98.071429)" />
    <linearGradient
       id="linearGradient3657">
      <stop
         id="stop3659"
         style="stop-color:#ffffff;stop-opacity:1"
         offset="0" />
      <stop
         id="stop3661"
         style="stop-color:#ffffff;stop-opacity:0"
         offset="1" />
    </linearGradient>
    <linearGradient
       id="linearGradient6348">
      <stop
         id="stop6350"
         style="stop-color:#ffffff;stop-opacity:0.44186047"
         offset="0" />
      <stop
         id="stop6356"
         style="stop-color:#13059a;stop-opacity:0"
         offset="0.80000001" />
      <stop
         id="stop6352"
         style="stop-color:#16104b;stop-opacity:1"
         offset="1" />
    </linearGradient>
    <linearGradient
       id="linearGradient12684">
      <stop
         id="stop12686"
         style="stop-color:#ffffff;stop-opacity:1"
         offset="0" />
      <stop
         id="stop12692"
         style="stop-color:#ffffff;stop-opacity:0.84536082"
         offset="0.34999999" />
      <stop
         id="stop12688"
         style="stop-color:#ffffff;stop-opacity:0"
         offset="1" />
    </linearGradient>
    <linearGradient
       id="linearGradient2762">
      <stop
         id="stop2764"
         style="stop-color:#000000;stop-opacity:0.70588237"
         offset="0" />
      <stop
         id="stop4540"
         style="stop-color:#000000;stop-opacity:0.35294119"
         offset="0.40000001" />
      <stop
         id="stop2766"
         style="stop-color:#000000;stop-opacity:0"
         offset="1" />
    </linearGradient>
    <linearGradient
       id="linearGradient3785">
      <stop
         id="stop3787"
         style="stop-color:#ffffff;stop-opacity:1"
         offset="0" />
      <stop
         id="stop3789"
         style="stop-color:#ffffff;stop-opacity:0"
         offset="1" />
    </linearGradient>
    <linearGradient
       id="linearGradient7357">
      <stop
         id="stop7359"
         style="stop-color:#ffffff;stop-opacity:1"
         offset="0" />
      <stop
         id="stop7361"
         style="stop-color:#ffffff;stop-opacity:0"
         offset="1" />
    </linearGradient>
    <linearGradient
       id="linearGradient5537">
      <stop
         id="stop5539"
         style="stop-color:#73a0d0;stop-opacity:1"
         offset="0" />
      <stop
         id="stop5541"
         style="stop-color:#ffffff;stop-opacity:1"
         offset="1" />
    </linearGradient>
    <linearGradient
       id="linearGradient9111">
      <stop
         id="stop9113"
         style="stop-color:#ffffff;stop-opacity:1"
         offset="0" />
      <stop
         id="stop9115"
         style="stop-color:#ffffff;stop-opacity:0"
         offset="1" />
    </linearGradient>
    <linearGradient
       id="linearGradient10381">
      <stop
         id="stop10383"
         style="stop-color:#3465a4;stop-opacity:1"
         offset="0" />
      <stop
         id="stop10385"
         style="stop-color:#3465a4;stop-opacity:0"
         offset="1" />
    </linearGradient>
    <linearGradient
       x1="185.18442"
       y1="178.86754"
       x2="185.18442"
       y2="162.24416"
       id="linearGradient5016"
       xlink:href="#linearGradient9111"
       gradientUnits="userSpaceOnUse" />
    <radialGradient
       cx="185.18442"
       cy="162.24416"
       r="8.3116884"
       fx="185.18442"
       fy="162.24416"
       id="radialGradient5018"
       xlink:href="#linearGradient9111"
       gradientUnits="userSpaceOnUse"
       gradientTransform="matrix(1.765929,0,0,3.004776,-141.8381,-325.2632)" />
    <linearGradient
       x1="185.18442"
       y1="178.86754"
       x2="185.18442"
       y2="162.24416"
       id="linearGradient5020"
       xlink:href="#linearGradient9111"
       gradientUnits="userSpaceOnUse" />
    <radialGradient
       cx="185.18442"
       cy="162.24416"
       r="8.3116884"
       fx="185.18442"
       fy="162.24416"
       id="radialGradient5022"
       xlink:href="#linearGradient9111"
       gradientUnits="userSpaceOnUse"
       gradientTransform="matrix(1.765929,0,0,3.004776,-141.8381,-325.2632)" />
    <radialGradient
       cx="156.5"
       cy="148.5"
       r="19.5"
       fx="156.5"
       fy="148.5"
       id="radialGradient5024"
       xlink:href="#linearGradient12684"
       gradientUnits="userSpaceOnUse" />
    <radialGradient
       cx="156.5"
       cy="148.5"
       r="19.5"
       fx="156.5"
       fy="148.5"
       id="radialGradient5026"
       xlink:href="#linearGradient12684"
       gradientUnits="userSpaceOnUse" />
    <radialGradient
       cx="156.5"
       cy="148.5"
       r="19.5"
       fx="156.5"
       fy="148.5"
       id="radialGradient5028"
       xlink:href="#linearGradient12684"
       gradientUnits="userSpaceOnUse" />
    <radialGradient
       cx="156.5"
       cy="148.5"
       r="19.5"
       fx="156.5"
       fy="148.5"
       id="radialGradient5030"
       xlink:href="#linearGradient12684"
       gradientUnits="userSpaceOnUse" />
    <radialGradient
       cx="156.5"
       cy="148.5"
       r="19.5"
       fx="156.5"
       fy="148.5"
       id="radialGradient5032"
       xlink:href="#linearGradient12684"
       gradientUnits="userSpaceOnUse" />
    <radialGradient
       cx="156.5"
       cy="148.5"
       r="19.5"
       fx="156.5"
       fy="148.5"
       id="radialGradient5034"
       xlink:href="#linearGradient12684"
       gradientUnits="userSpaceOnUse" />
    <radialGradient
       cx="156.5"
       cy="148.5"
       r="19.5"
       fx="156.5"
       fy="148.5"
       id="radialGradient5036"
       xlink:href="#linearGradient12684"
       gradientUnits="userSpaceOnUse" />
    <radialGradient
       cx="156.5"
       cy="148.5"
       r="19.5"
       fx="156.5"
       fy="148.5"
       id="radialGradient5038"
       xlink:href="#linearGradient12684"
       gradientUnits="userSpaceOnUse" />
    <radialGradient
       cx="156.5"
       cy="148.5"
       r="19.5"
       fx="156.5"
       fy="148.5"
       id="radialGradient5042"
       xlink:href="#linearGradient12684"
       gradientUnits="userSpaceOnUse" />
    <radialGradient
       cx="156.5"
       cy="148.5"
       r="19.5"
       fx="156.5"
       fy="148.5"
       id="radialGradient5048"
       xlink:href="#linearGradient12684"
       gradientUnits="userSpaceOnUse" />
    <linearGradient
       x1="98"
       y1="240.92043"
       x2="420"
       y2="240.92043"
       id="linearGradient5050"
       xlink:href="#linearGradient3657"
       gradientUnits="userSpaceOnUse"
       gradientTransform="matrix(0.543478,-0.941332,0.941332,0.543478,-156.6701,314.8289)" />
    <linearGradient
       x1="98"
       y1="240.92043"
       x2="420"
       y2="240.92043"
       id="linearGradient5052"
       xlink:href="#linearGradient3657"
       gradientUnits="userSpaceOnUse"
       gradientTransform="matrix(-0.941332,0.543478,0.543478,0.941332,334.2253,-173.0667)" />
    <linearGradient
       x1="98"
       y1="240.92043"
       x2="420"
       y2="240.92043"
       id="linearGradient5054"
       xlink:href="#linearGradient3657"
       gradientUnits="userSpaceOnUse"
       gradientTransform="matrix(0.941332,-0.543478,-0.543478,-0.941332,150.7744,625.2735)" />
    <linearGradient
       x1="98"
       y1="240.92043"
       x2="420"
       y2="240.92043"
       id="linearGradient5056"
       xlink:href="#linearGradient3657"
       gradientUnits="userSpaceOnUse"
       gradientTransform="matrix(-0.543478,0.941332,-0.941332,-0.543478,641.6699,131.3779)" />
    <radialGradient
       cx="246.35255"
       cy="226.88303"
       r="154.3577"
       fx="246.35255"
       fy="226.88303"
       id="radialGradient5058"
       xlink:href="#linearGradient3657"
       gradientUnits="userSpaceOnUse"
       gradientTransform="matrix(1,-0.57734,0.12401,0.214795,-28.13556,320.3787)" />
    <radialGradient
       cx="246.35255"
       cy="226.88303"
       r="154.3577"
       fx="246.35255"
       fy="226.88303"
       id="radialGradient5060"
       xlink:href="#linearGradient3657"
       gradientUnits="userSpaceOnUse"
       gradientTransform="matrix(-0.57734,-1,0.214795,-0.12401,339.8483,501.3712)" />
    <radialGradient
       cx="48"
       cy="80"
       r="24"
       fx="48"
       fy="80"
       id="radialGradient5165"
       xlink:href="#linearGradient5157"
       gradientUnits="userSpaceOnUse"
       gradientTransform="matrix(1,0,0,0.33333333,0,53.333333)" />
    <radialGradient
       cx="69.944862"
       cy="222.16092"
       r="183.90805"
       fx="69.944862"
       fy="222.16092"
       id="radialGradient5167"
       xlink:href="#linearGradient3657"
       gradientUnits="userSpaceOnUse"
       gradientTransform="matrix(1.353938,0,0,1.353938,-33.88875,-78.63119)" />
    <radialGradient
       cx="49.709621"
       cy="222.16092"
       r="183.90805"
       fx="49.709621"
       fy="222.16092"
       id="radialGradient5169"
       xlink:href="#linearGradient3657"
       gradientUnits="userSpaceOnUse"
       gradientTransform="matrix(1.353938,0,0,1.353938,-33.88875,-78.63119)" />
    <radialGradient
       cx="244.72031"
       cy="222.16092"
       r="183.90805"
       fx="244.72031"
       fy="222.16092"
       id="radialGradient5171"
       xlink:href="#linearGradient6348"
       gradientUnits="userSpaceOnUse" />
    <radialGradient
       cx="110.9251"
       cy="222.16092"
       r="183.90805"
       fx="110.9251"
       fy="222.16092"
       id="radialGradient5179"
       xlink:href="#linearGradient5173"
       gradientUnits="userSpaceOnUse"
       gradientTransform="matrix(1.2171703,0,0,1,-24.08964,0)" />
    <linearGradient
       x1="60.812256"
       y1="222.16092"
       x2="485.95856"
       y2="222.16092"
       id="linearGradient5189"
       xlink:href="#linearGradient5183"
       gradientUnits="userSpaceOnUse" />
    <linearGradient
       x1="53"
       y1="79"
       x2="53"
       y2="47"
       id="linearGradient3314"
       xlink:href="#linearGradient5183"
       gradientUnits="userSpaceOnUse" />
    <radialGradient
       cx="235.33363"
       cy="388.71188"
       r="126.06937"
       fx="235.33363"
       fy="388.71188"
       id="radialGradient3361"
       xlink:href="#linearGradient3785"
       gradientUnits="userSpaceOnUse"
       gradientTransform="matrix(0.21619589,0,0,0.19022614,-8.133892,-4.4826806)" />
    <radialGradient
       cx="129.82773"
       cy="205.84695"
       r="169.40698"
       fx="129.82773"
       fy="205.84695"
       id="radialGradient3364"
       xlink:href="#linearGradient10381"
       gradientUnits="userSpaceOnUse"
       gradientTransform="matrix(0.0763704,0.0628141,-0.10476229,0.12736917,40.083666,18.247815)" />
    <linearGradient
       x1="508.02838"
       y1="546.03558"
       x2="452.004"
       y2="336.94971"
       id="linearGradient3367"
       xlink:href="#linearGradient5537"
       gradientUnits="userSpaceOnUse"
       gradientTransform="matrix(0.15624964,0,0,0.15624964,8.1340473,7.6851807)" />
    <radialGradient
       cx="142.69583"
       cy="188.13281"
       r="76.514389"
       fx="142.69583"
       fy="188.13281"
       id="radialGradient3370"
       xlink:href="#linearGradient2762"
       gradientUnits="userSpaceOnUse"
       gradientTransform="matrix(0.26789794,0,0,0.17169424,14.873412,33.90519)" />
    <radialGradient
       cx="211.6808"
       cy="126.36234"
       r="14.333125"
       fx="211.6808"
       fy="126.36234"
       id="radialGradient3539"
       xlink:href="#linearGradient5537"
       gradientUnits="userSpaceOnUse"
       gradientTransform="matrix(0.28609572,-0.00736038,0.00909854,0.35365778,7.281407,-35.266528)" />
    <radialGradient
       cx="231.53711"
       cy="137.96158"
       r="22.607796"
       fx="231.53711"
       fy="137.96158"
       id="radialGradient3543"
       xlink:href="#linearGradient5537"
       gradientUnits="userSpaceOnUse"
       gradientTransform="matrix(0.11938285,0.15709988,-0.28667956,0.21785216,84.485905,-55.854253)" />
    <radialGradient
       cx="221.51555"
       cy="231.31619"
       r="13.714489"
       fx="221.51555"
       fy="231.31619"
       id="radialGradient3546"
       xlink:href="#linearGradient7357"
       gradientUnits="userSpaceOnUse"
       gradientTransform="matrix(0.19059019,0.05106852,-0.03352851,0.12513009,31.182375,-11.854086)" />
    <radialGradient
       cx="221.79688"
       cy="186.60339"
       r="66.984375"
       fx="221.79688"
       fy="186.60339"
       id="radialGradient3550"
       xlink:href="#linearGradient5537"
       gradientUnits="userSpaceOnUse"
       gradientTransform="matrix(-0.0381835,0.14250348,-0.17467708,-0.0468047,108.50622,-0.95996649)" />
    <radialGradient
       cx="167.68634"
       cy="141.66774"
       r="21.772516"
       fx="167.68634"
       fy="141.66774"
       id="radialGradient3566"
       xlink:href="#linearGradient5537"
       gradientUnits="userSpaceOnUse"
       gradientTransform="matrix(-0.19079569,-0.11015603,-0.15521295,0.18893256,135.66237,5.8078656)" />
    <radialGradient
       cx="167.68634"
       cy="141.66774"
       r="21.772516"
       fx="167.68634"
       fy="141.66774"
       id="radialGradient3569"
       xlink:href="#linearGradient5537"
       gradientUnits="userSpaceOnUse"
       gradientTransform="matrix(0.22031206,-7.0695628e-8,0.03995203,0.24122696,17.397716,-25.88104)" />
    <linearGradient
       x1="339.83295"
       y1="306.9231"
       x2="183.82016"
       y2="36.701027"
       id="linearGradient3572"
       xlink:href="#linearGradient10381"
       gradientUnits="userSpaceOnUse"
       gradientTransform="matrix(0.15624964,0,0,0.15624964,8.1340221,7.6851807)" />
    <radialGradient
       cx="262.09546"
       cy="89.625023"
       r="142.27028"
       fx="262.09546"
       fy="89.625023"
       id="radialGradient3577"
       xlink:href="#linearGradient5537"
       gradientUnits="userSpaceOnUse"
       gradientTransform="matrix(0.15624964,0,0,0.07033362,8.1340221,16.400692)" />
    <radialGradient
       cx="104.979"
       cy="98.510025"
       r="94.905266"
       fx="104.979"
       fy="98.510025"
       id="radialGradient3580"
       xlink:href="#linearGradient2762"
       gradientUnits="userSpaceOnUse"
       gradientTransform="matrix(0.40453305,0,0,0.26073021,-2.8932552,7.7157066)" />
    <linearGradient
       id="linearGradient12684-9">
      <stop
         id="stop12686-8"
         style="stop-color:#ffffff;stop-opacity:1"
         offset="0" />
      <stop
         id="stop12692-9"
         style="stop-color:#ffffff;stop-opacity:0.84536082"
         offset="0.34999999" />
      <stop
         id="stop12688-3"
         style="stop-color:#ffffff;stop-opacity:0"
         offset="1" />
    </linearGradient>
    <radialGradient
       cx="156.5"
       cy="148.5"
       r="19.5"
       fx="156.5"
       fy="148.5"
       id="radialGradient5040-1"
       xlink:href="#linearGradient12684-9"
       gradientUnits="userSpaceOnUse" />
    <radialGradient
       cx="156.5"
       cy="148.5"
       r="19.5"
       fx="156.5"
       fy="148.5"
       id="radialGradient5046-8"
       xlink:href="#linearGradient12684-9"
       gradientUnits="userSpaceOnUse" />
    <radialGradient
       cx="156.5"
       cy="148.5"
       r="19.5"
       fx="156.5"
       fy="148.5"
       id="radialGradient3635"
       xlink:href="#linearGradient12684-9"
       gradientUnits="userSpaceOnUse" />
    <radialGradient
       inkscape:collect="always"
       xlink:href="#linearGradient5537"
       id="radialGradient3263"
       gradientUnits="userSpaceOnUse"
       gradientTransform="matrix(0.28609572,-0.00736038,0.00909854,0.35365778,-167.22706,-26.317375)"
       cx="211.6808"
       cy="126.36234"
       fx="211.6808"
       fy="126.36234"
       r="14.333125" />
    <radialGradient
       inkscape:collect="always"
       xlink:href="#linearGradient5537"
       id="radialGradient3267"
       gradientUnits="userSpaceOnUse"
       gradientTransform="matrix(0.11938285,0.15709988,-0.28667956,0.21785216,-90.022565,-46.9051)"
       cx="231.53711"
       cy="137.96158"
       fx="231.53711"
       fy="137.96158"
       r="22.607796" />
    <radialGradient
       inkscape:collect="always"
       xlink:href="#linearGradient7357"
       id="radialGradient3270"
       gradientUnits="userSpaceOnUse"
       gradientTransform="matrix(0.19059019,0.05106852,-0.03352851,0.12513009,-143.32609,-2.904933)"
       cx="221.51555"
       cy="231.31619"
       fx="221.51555"
       fy="231.31619"
       r="13.714489" />
    <radialGradient
       inkscape:collect="always"
       xlink:href="#linearGradient5537"
       id="radialGradient3274"
       gradientUnits="userSpaceOnUse"
       gradientTransform="matrix(-0.0381835,0.14250348,-0.17467708,-0.0468047,-66.00225,7.9891865)"
       cx="221.79688"
       cy="186.60339"
       fx="221.79688"
       fy="186.60339"
       r="66.984375" />
    <radialGradient
       inkscape:collect="always"
       xlink:href="#linearGradient5537"
       id="radialGradient3290"
       gradientUnits="userSpaceOnUse"
       gradientTransform="matrix(-0.19079569,-0.11015603,-0.15521295,0.18893256,-38.8461,14.757019)"
       cx="167.68634"
       cy="141.66774"
       fx="167.68634"
       fy="141.66774"
       r="21.772516" />
    <radialGradient
       inkscape:collect="always"
       xlink:href="#linearGradient5537"
       id="radialGradient3293"
       gradientUnits="userSpaceOnUse"
       gradientTransform="matrix(0.22031206,-7.0695628e-8,0.03995203,0.24122696,-157.11075,-16.931887)"
       cx="167.68634"
       cy="141.66774"
       fx="167.68634"
       fy="141.66774"
       r="21.772516" />
    <linearGradient
       inkscape:collect="always"
       xlink:href="#linearGradient10381"
       id="linearGradient3296"
       gradientUnits="userSpaceOnUse"
       gradientTransform="matrix(0.15624964,0,0,0.15624964,-166.37445,16.634334)"
       x1="339.83295"
       y1="306.9231"
       x2="183.82016"
       y2="36.701027" />
    <radialGradient
       inkscape:collect="always"
       xlink:href="#linearGradient5537"
       id="radialGradient3301"
       gradientUnits="userSpaceOnUse"
       gradientTransform="matrix(0.15624964,0,0,0.07033362,-166.37445,25.349845)"
       cx="262.09546"
       cy="89.625023"
       fx="262.09546"
       fy="89.625023"
       r="142.27028" />
    <radialGradient
       inkscape:collect="always"
       xlink:href="#linearGradient2762"
       id="radialGradient3304"
       gradientUnits="userSpaceOnUse"
       gradientTransform="matrix(0.40453305,0,0,0.26073021,-177.40173,16.66486)"
       cx="104.979"
       cy="98.510025"
       fx="104.979"
       fy="98.510025"
       r="94.905266" />
    <radialGradient
       inkscape:collect="always"
       xlink:href="#linearGradient3785"
       id="radialGradient3314"
       gradientUnits="userSpaceOnUse"
       gradientTransform="matrix(0.21619589,0,0,0.19022614,-182.64236,4.4664724)"
       cx="235.33363"
       cy="388.71188"
       fx="235.33363"
       fy="388.71188"
       r="126.06937" />
    <radialGradient
       inkscape:collect="always"
       xlink:href="#linearGradient10381"
       id="radialGradient3317"
       gradientUnits="userSpaceOnUse"
       gradientTransform="matrix(0.0763704,0.0628141,-0.10476229,0.12736917,-134.4248,27.196968)"
       cx="129.82773"
       cy="205.84695"
       fx="129.82773"
       fy="205.84695"
       r="169.40698" />
    <linearGradient
       inkscape:collect="always"
       xlink:href="#linearGradient5537"
       id="linearGradient3320"
       gradientUnits="userSpaceOnUse"
       gradientTransform="matrix(0.15624964,0,0,0.15624964,-166.37442,16.634334)"
       x1="508.02838"
       y1="546.03558"
       x2="452.004"
       y2="336.94971" />
    <radialGradient
       inkscape:collect="always"
       xlink:href="#linearGradient2762"
       id="radialGradient3323"
       gradientUnits="userSpaceOnUse"
       gradientTransform="matrix(0.26789794,0,0,0.17169424,-159.63506,42.854343)"
       cx="142.69583"
       cy="188.13281"
       fx="142.69583"
       fy="188.13281"
       r="76.514389" />
    <linearGradient
       y2="48.272732"
       x2="81"
       y1="48.272732"
       x1="15"
       gradientUnits="userSpaceOnUse"
       id="linearGradient3058"
       xlink:href="#linearGradient3739"
       inkscape:collect="always" />
    <radialGradient
       gradientTransform="matrix(1,0,0,0.9174986,0,3.9829576)"
       gradientUnits="userSpaceOnUse"
       xlink:href="#linearGradient3993"
       id="radialGradient3301-3"
       fy="48.277454"
       fx="48"
       r="33"
       cy="48.277454"
       cx="48" />
    <clipPath
       id="clipPath3176">
      <path
         style="fill:#ff0000;fill-opacity:1;stroke:none;display:inline"
         id="path3178"
         inkscape:connector-curvature="0"
         d="m 48,18 c -18.225397,0 -33,12.088312 -33,27 0,9.498438 5.99976,17.843462 15.0625,22.65625 -0.344625,2.508754 -1.914014,8.649817 -9.34375,10.75 9.622915,1.045823 16.013601,-3.646306 19.40625,-7.1875 C 42.648507,71.724251 45.286067,72 48,72 66.225397,72 81,59.911688 81,45 81,30.088312 66.225397,18 48,18 z" />
    </clipPath>
    <linearGradient
       id="linearGradient3993">
      <stop
         offset="0"
         style="stop-color:#7da3c7;stop-opacity:1"
         id="stop3995" />
      <stop
         offset="1"
         style="stop-color:#b3c9e0;stop-opacity:0.62015504"
         id="stop3997" />
    </linearGradient>
    <linearGradient
       id="linearGradient3731">
      <stop
         offset="0"
         style="stop-color:#dcdcdc;stop-opacity:1"
         id="stop3733" />
      <stop
         offset="0.30654153"
         style="stop-color:#ebebeb;stop-opacity:1"
         id="stop3757" />
      <stop
         offset="0.70706075"
         style="stop-color:#ffffff;stop-opacity:1"
         id="stop3737" />
      <stop
         offset="0.84501493"
         style="stop-color:#fafafa;stop-opacity:1"
         id="stop3759" />
      <stop
         offset="1"
         style="stop-color:#f0f0f0;stop-opacity:1"
         id="stop3735" />
    </linearGradient>
    <linearGradient
       gradientTransform="translate(0,1)"
       gradientUnits="userSpaceOnUse"
       xlink:href="#linearGradient3731"
       id="linearGradient3664"
       y2="16.972879"
       x2="46.654823"
       y1="75.561722"
       x1="48.082497" />
    <linearGradient
       id="linearGradient3739">
      <stop
         offset="0"
         style="stop-color:#ffffff;stop-opacity:1"
         id="stop3742" />
      <stop
         offset="1"
         style="stop-color:#ffffff;stop-opacity:0"
         id="stop3744" />
    </linearGradient>
    <linearGradient
       gradientUnits="userSpaceOnUse"
       xlink:href="#linearGradient3739"
       id="linearGradient3746"
       y2="48.272732"
       x2="81"
       y1="48.272732"
       x1="15" />
    <linearGradient
       gradientTransform="matrix(1.0238095,0,0,1.0119048,-1.1428571,-98.071429)"
       gradientUnits="userSpaceOnUse"
       xlink:href="#ButtonShadow-0-2"
       id="linearGradient3071"
       y2="90.238609"
       x2="32.251034"
       y1="6.1317081"
       x1="32.251034" />
    <linearGradient
       gradientTransform="translate(0,-97)"
       gradientUnits="userSpaceOnUse"
       xlink:href="#ButtonShadow-0-2"
       id="linearGradient3721-9"
       y2="90.238609"
       x2="32.251034"
       y1="6.1317081"
       x1="32.251034" />
    <linearGradient
       gradientTransform="matrix(1.0238095,0,0,1.0119048,-1.1428571,-98.071429)"
       gradientUnits="userSpaceOnUse"
       xlink:href="#ButtonShadow-0-2"
       id="linearGradient3725-2"
       y2="90.238609"
       x2="32.251034"
       y1="6.1317081"
       x1="32.251034" />
    <linearGradient
       gradientTransform="matrix(1.0238095,0,0,1.0119048,-1.1428571,-98.071429)"
       gradientUnits="userSpaceOnUse"
       xlink:href="#ButtonShadow-0-2"
       id="linearGradient3772-4"
       y2="90.238609"
       x2="32.251034"
       y1="6.1317081"
       x1="32.251034" />
    <linearGradient
       gradientTransform="matrix(1.0238095,0,0,1.0119048,-1.1428571,-98.071429)"
       gradientUnits="userSpaceOnUse"
       xlink:href="#ButtonShadow-0-2"
       id="linearGradient3780-2"
       y2="90.238609"
       x2="32.251034"
       y1="6.1317081"
       x1="32.251034" />
    <linearGradient
       gradientTransform="matrix(1.0058652,0,0,0.994169,100,0)"
       gradientUnits="userSpaceOnUse"
       id="ButtonShadow-0-2"
       y2="7.0165396"
       x2="45.447727"
       y1="92.539597"
       x1="45.447727">
      <stop
         offset="0"
         style="stop-color:#000000;stop-opacity:1"
         id="stop3750-8-1" />
      <stop
         offset="1"
         style="stop-color:#000000;stop-opacity:0.58823532"
         id="stop3752-5-1" />
    </linearGradient>
    <radialGradient
       gradientTransform="matrix(1.1573129,0,0,0.99590774,-7.551021,0.1971319)"
       gradientUnits="userSpaceOnUse"
       xlink:href="#linearGradient3737-9"
       id="radialGradient2899"
       fy="90.171875"
       fx="48"
       r="42"
       cy="90.171875"
       cx="48" />
    <linearGradient
       id="linearGradient3737-9">
      <stop
         offset="0"
         style="stop-color:#ffffff;stop-opacity:1"
         id="stop3739-7" />
      <stop
         offset="1"
         style="stop-color:#ffffff;stop-opacity:0"
         id="stop3741-7" />
    </linearGradient>
    <linearGradient
       gradientUnits="userSpaceOnUse"
       xlink:href="#linearGradient3718"
       id="linearGradient3724"
       y2="8.3280878"
       x2="53.194679"
       y1="89.16983"
       x1="53.194679" />
    <clipPath
       id="clipPath3613-7">
      <rect
         style="fill:#ffffff;fill-opacity:1;fill-rule:nonzero;stroke:none"
         id="rect3615-6"
         y="6"
         x="6"
         ry="6"
         rx="6"
         height="84"
         width="84" />
    </clipPath>
    <radialGradient
       gradientTransform="matrix(1.1573129,0,0,0.99590774,-7.5510206,0.19713193)"
       gradientUnits="userSpaceOnUse"
       xlink:href="#linearGradient3704"
       id="radialGradient3619-8"
       fy="90.171875"
       fx="48"
       r="42"
       cy="90.171875"
       cx="48" />
    <linearGradient
       gradientUnits="userSpaceOnUse"
       xlink:href="#linearGradient3737-6"
       id="linearGradient3613-6"
       y2="138.66119"
       x2="48"
       y1="20.220806"
       x1="48" />
    <filter
       id="filter3794-5"
       color-interpolation-filters="sRGB"
       height="1.3839999"
       width="1.3839999"
       y="-0.192"
       x="-0.192">
      <feGaussianBlur
         stdDeviation="5.28"
         id="feGaussianBlur3796-8" />
    </filter>
    <linearGradient
       gradientUnits="userSpaceOnUse"
       xlink:href="#linearGradient3737-6"
       id="linearGradient3188-0"
       y2="63.893143"
       x2="36.357143"
       y1="6"
       x1="36.357143" />
    <filter
       id="filter3174-6"
       color-interpolation-filters="sRGB">
      <feGaussianBlur
         stdDeviation="1.71"
         id="feGaussianBlur3176-5" />
    </filter>
    <linearGradient
       id="linearGradient3737-6">
      <stop
         offset="0"
         style="stop-color:#ffffff;stop-opacity:1"
         id="stop3739-6" />
      <stop
         offset="1"
         style="stop-color:#ffffff;stop-opacity:0"
         id="stop3741-2" />
    </linearGradient>
    <linearGradient
       gradientTransform="scale(1.0058652,0.994169)"
       gradientUnits="userSpaceOnUse"
       id="ButtonShadow-7"
       y2="7.0165396"
       x2="45.447727"
       y1="92.539597"
       x1="45.447727">
      <stop
         offset="0"
         style="stop-color:#000000;stop-opacity:1"
         id="stop3750-88" />
      <stop
         offset="1"
         style="stop-color:#000000;stop-opacity:0.58823532"
         id="stop3752-9" />
    </linearGradient>
    <linearGradient
       id="linearGradient3704">
      <stop
         offset="0"
         style="stop-color:#34b5d8;stop-opacity:1"
         id="stop3706" />
      <stop
         offset="1"
         style="stop-color:#ffffff;stop-opacity:0"
         id="stop3708" />
    </linearGradient>
    <linearGradient
       id="linearGradient3718">
      <stop
         offset="0"
         style="stop-color:#2e65a4;stop-opacity:1"
         id="stop3720" />
      <stop
         offset="1"
         style="stop-color:#67a0e1;stop-opacity:1"
         id="stop3722" />
    </linearGradient>
  </defs>
  <metadata
     id="metadata2413">
    <rdf:RDF>
      <cc:Work
         rdf:about="">
        <dc:format>image/svg+xml</dc:format>
        <dc:type
           rdf:resource="http://purl.org/dc/dcmitype/StillImage" />
        <dc:title />
      </cc:Work>
    </rdf:RDF>
  </metadata>
  <g
     id="layer2"
     style="display:none">
    <rect
       width="86"
       height="85"
       rx="6"
       ry="6"
       x="5"
       y="7"
       id="rect3745"
       style="opacity:0.9;fill:url(#ButtonShadow);fill-opacity:1;fill-rule:nonzero;stroke:none;filter:url(#filter3174)" />
  </g>
  <rect
     style="fill:#5f5fd3;fill-opacity:1;fill-rule:nonzero;stroke:none;stroke-opacity:1"
     id="rect2419"
     y="5.3290705e-15"
     x="0"
     ry="0"
     rx="0"
     height="96"
     width="96" />
  <g
     id="layer5"
     style="display:inline" />
  <path
     sodipodi:type="arc"
     style="fill:#5f5fd3;fill-opacity:1;stroke:#ffffff;stroke-opacity:1"
     id="path3259"
     sodipodi:cx="58.372883"
     sodipodi:cy="55.525425"
     sodipodi:rx="28.271187"
     sodipodi:ry="28.677965"
     d="m 86.64407,55.525425 a 28.271187,28.677965 0 1 1 -56.542374,0 28.271187,28.677965 0 1 1 56.542374,0 z"
     transform="matrix(1.0685665,0,0,1.0626888,-13.501188,-9.4563475)" />
  <g
     id="layer2-4"
     style="display:none"
     transform="translate(-100.0678,34.576272)">
    <rect
       width="86"
       height="85"
       rx="6"
       ry="6"
       x="5"
       y="7"
       id="rect3745-8"
       style="opacity:0.9;fill:url(#ButtonShadow-7);fill-opacity:1;fill-rule:nonzero;stroke:none;filter:url(#filter3174-6)" />
  </g>
  <g
     id="layer5-3"
     style="display:none"
     transform="translate(-100.0678,34.576272)">
    <rect
       width="66"
       height="66"
       rx="12"
       ry="12"
       x="15"
       y="15"
       clip-path="url(#clipPath3613-7)"
       id="rect3171"
       style="opacity:0.1;fill:url(#linearGradient3613-6);fill-opacity:1;fill-rule:nonzero;stroke:#ffffff;stroke-width:0.5;stroke-linecap:round;stroke-linejoin:miter;stroke-miterlimit:4;stroke-opacity:1;stroke-dasharray:none;stroke-dashoffset:0;filter:url(#filter3794-5)" />
  </g>
  <path
     style="fill:#ffffff;fill-opacity:1;stroke:none;display:inline"
     id="path4834_2_"
     clip-path="url(#clipPath3176)"
     inkscape:connector-curvature="0"
     d="m 82.90034,51.715786 -0.0089,-0.06929 0.0089,0.06929 z M 47.226882,70.583024 c -0.07997,-0.506219 -1.337515,-0.336962 1.3e-5,8.2e-5 m 32.239225,-13.963191 -0.03358,0.0035 0.03358,-0.0035 z m -2.061025,0.130623 -0.05979,0.206409 0.05979,-0.206409 0,0 z m 2.60088,13.142726 -0.139994,-0.05288 0.139994,0.05288 z m -0.843539,-1.553417 0.07358,-0.07965 -0.07358,0.07965 z m 0.09315,0.04337 0.03332,-0.01376 -0.03332,0.01376 z m -0.100035,-0.0835 0.02011,-0.03694 -0.02011,0.03694 z m 0.0069,0.03994 c 0.123695,0.266513 0.06129,0.147622 -2.8e-5,1.36e-4 m -56.802316,9.949178 c 1.232768,0.08225 3.554261,0.164037 1.693453,-0.343543 2.794037,-1.179216 9.231636,0.28256 9.929038,-0.69193 -1.87085,-0.582756 3.811609,-0.02257 5.165171,-0.131287 4.369105,1.442022 -0.280216,-3.320539 3.340959,-3.394724 -3.09286,1.359582 1.462864,2.182846 0.886968,3.952884 -1.243482,0.78915 -3.221848,-0.06615 -2.376531,0.881899 -2.513536,0.171166 4.728545,1.393483 6.349585,1.123247 2.79191,0.01874 5.731476,-0.342168 3.91513,-1.373823 3.802587,-1.183245 6.375791,-2.548312 11.233665,-2.221836 4.876037,0.496173 9.098709,-2.23449 13.87604,-0.73399 -2.557945,2.975799 5.260646,-1.888341 7.591498,-0.50975 4.165891,0.117629 8.472508,-0.500584 12.43847,0.219828 1.912116,0.888062 6.758177,1.406069 2.125406,2.261107 -1.499002,0.853854 -7.976856,2.474366 -2.753029,2.721146 1.605589,1.390234 -5.160581,0.982001 -6.492001,0.993624 -21.118152,-0.125276 -42.270514,0.306331 -63.367112,-0.228448 -4.651105,-1.195502 8.383406,-0.129994 2.51686,-0.620932 -0.944736,-0.137123 -4.711553,-0.879459 -1.575183,-1.008625 -1.487722,-0.352052 -3.080546,-0.266862 -4.497669,-0.894869 m 13.502993,-35.642826 -0.02311,-0.170305 0.02311,0.170305 z m -2.517373,1.273433 -0.04289,-0.113166 0.04296,0.113141 m -0.173409,-0.0068 -0.136684,-0.130349 0.136684,0.130349 z m -0.426865,-0.180229 0.01731,-1.65e-4 -0.01731,1.65e-4 z m -0.546742,-3.924462 -0.113255,-0.05979 0.113255,0.05979 z m -0.129796,0.340337 0.0333,-0.03694 -0.0333,0.03694 z m -0.243332,0.206681 0.214458,-0.113457 -0.2145,0.113495 m 4.117408,3.917538 0.0835,-0.07689 -0.0835,0.07689 z m -0.126211,-2.563949 -0.04022,-0.05315 0.04022,0.05315 z m -0.02039,0.220183 -0.0098,-0.06697 0.0098,0.06697 z m -0.26979,2.784134 c 0.117767,-0.603504 0.684362,0.0095 1.4e-5,-6e-6 m -3.758029,-5.054864 -0.06669,-0.0733 0.06669,0.0733 z m -0.0733,-0.570164 0.01138,0.03352 -0.01138,-0.03379 m -0.0028,0.750666 c 0.261233,0.01936 0.11299,-0.519209 0,-2.7e-5 m -0.120435,-0.573446 -0.0333,-0.0098 0.0333,0.0098 z m -0.166445,-0.01348 0.06463,0.26353 -0.06463,-0.26353 m -0.02675,-0.179951 -0.03934,-0.218822 0.03934,0.218822 z m -0.06669,0.286324 -0.03338,-0.0132 0.03338,0.0132 z m -0.153218,-0.10969 0.08654,0.0835 -0.08654,-0.0835 z m -0.08681,-0.693346 c 0.245917,-0.024 0.04924,0.522686 -1.4e-5,-1.4e-5 m -0.183519,-0.186823 -0.02093,-0.402534 0.02099,0.402596 m -0.149968,0.356533 0.07661,-0.02647 -0.07661,0.02647 z m -0.143572,0.507055 -0.02004,-0.205437 0.02017,0.20543 m -0.07313,-0.170024 0.03304,-0.02311 -0.03304,0.02311 z m -0.02339,-0.423554 c 0.444233,0.345574 -0.381541,0.395256 -2e-5,-3.4e-5 m -0.07659,-0.516673 c -0.08353,-0.320155 0.929747,0.06827 2.1e-5,-2.1e-5 m -0.376734,3.297557 c 1.072506,-0.356842 0.554206,0.570998 0,-5.6e-5 m 5.458041,0.470186 -0.0069,-0.03666 0.0069,0.03666 z m -0.02039,-0.05014 -0.06669,-0.06307 0.06669,0.06307 z m -2.860469,-1.780489 -0.0333,-0.0333 0.0333,0.0333 z m -0.06005,-0.03304 -0.03338,-0.02039 0.03338,0.02039 z m -0.07331,-0.03358 -0.01683,-0.03666 0.01683,0.03666 z m -0.139713,0.03358 0.03044,-0.0379 -0.03044,0.03804 m 2.993891,1.433676 0.06642,-0.04351 -0.06642,0.04351 z m -0.363756,-0.213844 -0.0333,-0.0132 0.0333,0.0132 z m -0.225971,0.153499 -0.03338,-0.01319 0.03338,0.01319 z m -0.03358,0.25325 0.109678,-0.03304 -0.109678,0.03304 z m -2.627611,-0.930062 0.01176,-0.0062 -0.01176,0.0062 m -0.09013,0.523313 -0.134482,-0.103063 0.134482,0.103063 z m -0.296796,0.256836 -0.03667,-0.0098 0.03667,0.0098 z m -2.65379,-0.510086 0.08572,6.85e-4 -0.0856,-6.85e-4 m 6.578134,-5.18164 0.03722,-0.02011 -0.03722,0.02011 z m 0.01984,8.115687 0.03004,-0.09315 -0.03004,0.09315 z m -1.129855,-2.437191 0.06669,-0.02675 -0.06669,0.02675 z m -0.153771,0.05014 c -1.197821,0.272041 0.334191,-0.58327 -1.4e-5,-3.23e-4 m -4.837711,-2.724011 -0.0333,0.01656 0.0333,-0.01656 z m -0.163415,0.0069 0.02011,0.0333 -0.02011,-0.0333 z m 0.573475,-1.240364 0.03004,0.240297 -0.03004,-0.240297 z m -0.03666,-0.193179 0.0062,-0.06123 -0.0062,0.06123 m -0.0062,-1.050494 -0.03666,0.07 0.03666,-0.07 z m -0.09674,2.250349 -0.123455,0.136685 0.123455,-0.136685 z m -0.483361,-0.489974 0.07,-0.06341 -0.07,0.06341 z m -0.05664,0.02025 -0.0098,-0.07027 0.0098,0.07027 z m -0.02703,-0.0068 0.0333,0.02647 -0.0333,-0.02647 z m -0.0062,-0.113533 -0.0068,0.03332 0.0068,-0.03332 z m 6.735053,5.244746 0,-0.130076 0,0.130076 z m -0.726966,1.293825 0.04351,0.06971 -0.04351,-0.06971 z m -0.442867,-0.150261 c -0.326148,-0.06122 0.390693,-0.216566 0,0 z m -4.314683,-4.427931 -0.06669,-0.05321 0.06669,0.05321 z m -0.04323,-0.07661 -0.03666,-0.07993 0.03666,0.07993 z m -0.04685,-0.06669 -0.08322,-0.06005 0.08322,0.06005 z m -0.129796,-0.06005 c -0.246382,-0.05335 0.191674,-0.02463 -3.4e-5,0 m -0.07328,0.763617 -0.03667,-0.03365 0.03667,0.03365 z m -0.520284,-0.980223 0,-2.74e-4 m -0.246637,-0.05979 0.03666,-0.02311 -0.03666,0.02311 z m -0.766926,0.670197 c -0.313029,-0.256266 0.456731,-0.129192 0,-2e-5 m 7.23853,4.934467 0.03331,-0.02675 -0.03331,0.02675 z m -0.0069,0.01984 -0.08654,0.06697 0.08654,-0.06697 z m -0.0068,-0.01574 0.01028,-0.03358 -0.01028,0.03358 z m -0.02675,0.196208 0.03693,-0.01294 -0.03693,0.01294 z m -0.07299,0.04657 0.01772,-0.04521 -0.01772,0.04521 m -0.0098,-0.07661 0.09314,-0.04986 -0.09314,0.04986 z m -0.03358,0.08681 -0.100035,-0.02675 0.100035,0.02675 z m 0.130076,-1.863989 0.01028,-0.103345 -0.01028,0.103345 z m -2.403843,-1.993792 -0.06669,-0.02311 0.06669,0.02311 z m 2.9842,2.023547 -0.03667,-0.09975 0.03667,0.09975 z m -9.282741,-2.886923 0.109955,-0.133654 -0.109955,0.133654 z m -0.196482,0.193178 0.01682,-0.04022 -0.01682,0.04022 z m 9.052357,2.153898 -0.09574,-0.163909 0.09577,0.163873 m -0.08987,-0.589972 0.01682,-0.04323 -0.01682,0.04323 z m -0.08654,-0.16369 c 0.0054,-0.279325 0.268449,0.20203 1.4e-5,-2.1e-5 m -1.4e-5,0.0069 -0.08295,0.0813 0.08295,-0.0813 z m -0.487219,-0.720077 0.04323,0.01028 -0.04323,-0.01028 z m -3.7853,-0.664137 c -1.115566,1.811148 3.675308,-0.02538 0,0 z m -3.094426,-1.304298 c -1.96119,0.270325 5.628332,2.227725 1.092761,0.185188 l -0.616808,-0.185304 -0.475953,1.16e-4 z m 1.70608,1.070612 -0.256519,0.0014 0.256519,-0.0014 z M 13.572884,25.521522 c -1.595074,0.343486 -0.885778,0.931684 0.09705,0.134674 l -0.09705,-0.134674 z m 20.717732,-5.478705 c -0.829921,-0.12922 -2.377297,0.995718 -0.687873,0.342696 l 0.687873,-0.342696 z m 0.06999,0.322422 -0.143709,0.03754 0.143709,-0.03754 z m -6.184451,-0.439542 c -2.368636,1.103155 1.311775,1.005754 0.945281,1.942079 2.369198,0.60886 -3.28105,-0.61353 -4.615233,-0.485592 -3.684994,0.341389 -7.839496,-1.432131 -10.92442,1.402326 -0.865248,0.760027 0.86995,0.484035 -1.405151,1.176948 -2.6369765,1.256214 1.568082,1.942002 -1.927413,2.450997 -3.4315717,1.629295 3.572353,-1.406137 4.856944,-1.288501 5.08204,-1.141774 3.404703,5.56008 1.45679,8.097838 0.07471,1.779567 3.226176,9.144454 1.759578,3.827076 0.654047,-1.04498 1.921448,6.240738 5.223067,5.594207 2.273475,0.245966 6.738125,5.643538 3.989951,1.399906 0.905019,-1.956477 -3.039524,-1.363857 -0.901744,-3.720126 -3.693694,3.389866 -4.83227,-3.213723 -0.660368,-3.431792 1.918221,-1.201749 2.447246,0.461735 3.497466,1.630967 0.637316,-3.585385 4.003337,-6.929394 7.595508,-7.572221 3.467491,-0.594467 -3.507364,-2.093225 1.088472,-2.262126 3.006019,-1.802506 -0.340131,2.671203 2.762729,0.914439 -0.697319,-1.488354 -0.57381,-4.927665 -2.798908,-4.77718 -2.636526,-3.479376 -4.290502,6.646965 -6.073235,1.639931 -3.650949,-2.935995 3.852343,-2.296497 3.880765,-3.984912 1.774224,-1.27182 2.303392,-0.900266 2.862038,-0.222369 -2.902698,0.898413 -0.717649,1.380032 0.962614,2.178788 -1.302588,-1.894073 3.637544,-1.074674 0.870737,-3.183655 -2.334934,-2.115441 -4.806456,-0.933758 -5.667199,1.016098 -0.12008,-1.866798 1.398511,-3.106223 -1.235839,-1.184132 -1.870378,1.210789 -4.370527,1.260936 -1.52585,-0.197843 -0.0249,-0.834061 -3.163889,-0.650079 -4.01658,-0.961151 z m 9.012677,0.411709 c -0.721595,0.636435 0.20398,0.384149 0,0 z m 1.299339,0.07468 0.262328,0.08715 -0.262328,-0.08715 z m -1.729508,0.261796 -0.06711,0.117451 0.06711,-0.117451 z m 2.767326,0.06062 -0.106276,0.03156 0.106276,-0.03156 z m 0.677914,0.373954 c -0.235055,0.302035 -0.173656,-0.176783 0,0 z m 0.486117,0.196487 c 0.09734,0.362328 -0.698982,0.04757 0,0 z m -4.660531,0.01873 -0.08505,-0.0015 0.08505,0.0015 z m 4.454669,0.0372 -0.155555,0.02505 0.155555,-0.02505 z m -15.767019,0.05622 -0.08506,-0.0015 0.08506,0.0015 z m 12.167735,0.01846 c -0.09749,0.21543 -0.248961,-0.208716 0,0 z m 0.691971,-0.01378 -0.161637,-0.0012 0.161637,0.0012 z m -13.219884,0.06062 -0.137656,0.03405 0.137656,-0.03405 z m 10.190491,0 -0.08925,-1.79e-4 0.08925,1.79e-4 z m -0.794487,0.102793 c -0.935487,1.234522 -1.06347,0.06574 0,0 z m -10.424172,0.0609 c -0.575621,0.227933 0.148615,-0.247545 0,0 z m 17.529602,-0.03279 -0.324808,-0.01851 0.324808,0.01851 z m -6.151666,0.159007 c -0.310232,0.657526 -0.02901,-0.372142 0,0 z m 3.650818,-0.0093 c -0.145487,0.202094 -0.07397,-0.191975 0,0 z m -1.425823,0.04684 -0.06424,-0.0019 0.06424,0.0019 z m 1.715458,-0.01873 -0.08507,-0.0015 0.08507,0.0015 z m -3.2347,0.294315 -0.08278,0.02771 0.08278,-0.02771 z m -2.921652,0.02343 -0.138489,0.02704 0.138489,-0.02704 z m 6.254457,0.01406 -0.161637,-0.0012 0.161637,0.0012 z m -9.246098,0.229279 -0.159744,-0.02359 0.159744,0.02359 z m 3.258127,0.04658 -0.08507,-0.0015 0.08507,0.0015 z m -6.506878,0.06532 c -0.49178,1.098862 -1.680723,0.210257 -0.732799,0.11371 l 0.732799,-0.11371 z m 13.018437,-0.0044 c 0.750605,0.267636 -0.736173,0.267605 0,0 z m 2.403015,0.04656 -0.09179,-0.02698 0.09179,0.02698 z m -26.444174,0.07965 -0.08507,-0.0015 0.08507,0.0015 z m 20.007019,0.168101 c -0.221024,0.351747 -0.270857,-0.557333 0,0 z m -1.131237,0.159007 c -0.06109,0.223835 -0.326292,-0.27197 0,0 z m -19.867024,0.299274 -0.08375,0.03617 0.08375,-0.03617 z m 23.443161,0.05126 c -0.09841,0.184776 -0.176735,-0.225531 0,0 z m 0.584221,0.36927 -0.111978,-0.0022 0.111978,0.0022 z m -12.116481,0.556386 c 1.626129,0.136102 -3.249257,0.569711 0,0 z m 13.575096,0.173062 -0.08505,-0.0015 0.08505,0.0015 z m -24.106747,0.186877 -0.138661,-0.02728 0.138661,0.02728 z m -0.388006,0.04684 -0.08507,-0.0015 0.08507,0.0015 z m -0.196488,0.06532 c -0.490351,0.555117 -0.0981,-0.202287 0,0 z m -1.505185,0.453322 -0.137718,-0.0017 0.137718,0.0017 z m 0.266479,-0.01378 -0.155249,0.02535 0.155249,-0.02535 z m 4.758627,0.378639 -0.04241,-0.07645 0.04241,0.07645 z m 0.07965,0.116845 c -0.07286,0.192086 -0.146308,-0.201362 0,0 z m -0.233686,0.09343 c 0.210141,0.386768 -0.263252,0.01827 0,0 z m -6.006986,0.04684 -0.0643,0.0015 0.0643,-0.0015 z m 6.40409,0.210264 -0.211006,0.01478 0.211006,-0.01478 z m -0.06533,0.172786 c -0.260664,0.355836 -0.203985,-0.200387 0,0 z m -0.308369,0.149636 -0.09122,0.06975 0.09122,-0.06975 z m 0.186838,0.1918 c -0.0472,0.249738 -0.106492,-0.256008 0,0 z m 0.313055,-0.04217 -0.08506,-0.0015 0.08506,0.0015 z m -0.55612,0.360189 c -0.163327,0.403833 0.0014,-0.419436 0,0 z m 9.807165,0.551426 c 0.266725,1.68774 -0.972555,-0.09111 0,0 z m 11.705048,-0.03279 -0.210335,0.05346 0.210335,-0.05346 z m -21.409423,0.168376 -0.06424,0.0019 0.06424,-0.0019 z m 9.58285,0.817906 -0.234084,0.194465 0.234084,-0.194465 z m -9.087362,0.565757 c 0.747576,0.63225 -0.115429,0.409968 0,0 z m 11.578836,0.420802 c 0.276051,1.53618 -3.688386,0.242336 0,0 z m -11.443252,0.163415 c -0.309247,0.249879 -0.189861,-0.221103 0,0 z m 17.950405,0.135585 c -0.187657,0.18035 -0.101008,-0.241009 0,0 z m 0.490796,0.635751 -0.160037,-0.02338 0.160037,0.02338 z m -6.146975,0.08873 -0.396398,-0.01377 0.396398,0.01377 z m -0.864756,0.05154 c -1.257696,2.911234 -2.602467,0.785845 0,0 z m 0.794485,0.140266 c 0.970374,1.196054 -2.11282,0.215298 -6e-5,7e-6 0,0 6e-5,-7e-6 6e-5,-7e-6 z m 0.112155,-0.06559 -0.10835,-0.0044 0.10835,0.0044 z m 1.523934,0.724762 c -1.27158,0.786697 -1.399856,-0.225513 0,0 z m -1.075022,0.458005 c -1.792953,0.836923 -1.511411,0.160731 0,0 z m -1.192136,0.257112 -0.209206,-0.0014 0.209206,0.0014 z m 1.308984,1.687621 -0.08273,-0.02749 0.08273,0.02749 z m 0,0.790074 -0.07333,-0.03226 0.07333,0.03226 z m -5.515912,2.33715 -0.08946,-1.73e-4 0.08946,1.73e-4 z m 0.528001,7.591535 c -0.346101,0.362094 -0.222682,-0.69881 0,0 z m 3.982898,-25.266132 c -4.678938,0.81806 5.606311,0.936888 0.486212,0.103874 0.490754,-0.150986 -0.450403,-0.06454 -0.486212,-0.103874 z m -0.09838,0.430172 c 0.39248,0.336704 -1.344101,-0.291285 0,0 z m 0.168376,-0.09838 c -0.295394,0.227721 -0.173561,-0.21069 0,0 z m -0.04657,0.420802 -0.155297,-0.0055 0.155297,0.0055 z m 1.953838,-1.103126 c -1.611786,0.601866 1.324764,0.08568 0,0 z m 1.949417,-0.21054 c -1.09601,0.990264 2.062244,-0.04474 0,0 z m 15.846669,-1.065648 c -4.273893,0.802634 -9.989651,-0.825225 -13.288329,1.168667 2.713835,1.229055 -7.289559,0.636938 -1.636815,1.181727 0.528268,0.06828 5.003274,0.1599 1.48225,-0.336452 1.842771,0.573238 10.051599,-2.682627 5.112802,-0.672743 -1.657166,0.311167 4.056048,1.546767 2.082819,2.748383 -1.956813,1.589303 0.934371,5.419614 2.57074,1.794945 3.802622,-0.594476 6.837796,-3.725678 8.237338,-5.452378 -1.549456,-0.05973 -2.955175,-0.702503 -4.560805,-0.432149 z m -1.836984,0.345846 c -0.241908,0.229305 -0.01163,-0.255757 0,0 z m 4.501515,0.02343 c -0.23507,0.302017 -0.173643,-0.176777 0,0 z m -14.131211,0.07468 -0.08506,-0.0015 0.08506,0.0015 z m 0.233686,0.336752 c -0.261692,0.465037 -0.601822,-0.278599 0,0 z m 0.738546,-0.03748 c -0.0028,0.359913 -0.345636,-0.138331 0,0 z m -0.771339,0.313329 c -0.175004,0.158064 -0.09325,-0.271985 0,0 z m -0.09343,0.07937 -0.09157,0.03055 0.09157,-0.03055 z m -0.888179,0.191798 -0.105941,0.06218 0.105941,-0.06218 z m 4.54837,0.289631 -0.114101,-0.0022 0.114101,0.0022 z m -0.701067,0.04684 -0.114051,-0.0022 0.114051,0.0022 z m -7.703694,0.298999 -0.08273,-0.02749 0.08273,0.02749 z m -0.738547,0.07027 -0.08505,-0.0015 0.08505,0.0015 z m 18.501833,0.813222 -0.06424,0.0019 0.06424,-0.0019 z m -0.102793,0.140268 c 0.136466,0.673669 -0.55088,-0.26411 0,0 z m 0.420806,-0.01406 -0.137717,-0.0017 0.137717,0.0017 z m 0.01846,0.08901 -0.08506,-0.0015 0.08506,0.0015 z m -8.797459,2.954163 -0.07614,-0.04247 0.07614,0.04247 z m -18.332358,25.73182 0.07661,-0.110512 -0.07661,0.110512 z m -0.320218,0.156248 0.02675,-0.03304 -0.02675,0.03304 z m 0.03667,-0.229276 -0.0132,-0.110512 0.0132,0.110512 z m -0.05321,-0.41722 -0.01984,-0.03358 0.01984,0.03358 z m -0.04323,0.256561 -0.06314,-0.08322 0.06314,0.08322 z m -0.353565,-0.15267 c 0.034,0.58665 0.578045,0.300915 1.4e-5,0 m 0.03667,0.199239 0.0062,-0.08845 -0.0062,0.08845 z m 14.30782,20.598093 c -0.727464,0.768698 1.97652,-0.202098 0,0 z M 31.686695,43.892481 c -3.382986,0.882728 -1.541016,3.448926 -3.319329,5.708609 0.359262,4.753279 6.235159,7.714379 4.5186,13.311984 1.01311,3.141356 0.04878,4.282635 2.274384,7.105709 1.192286,1.723996 4.554189,1.142976 1.747653,-0.363638 -0.924814,-2.831749 -0.509255,-4.424547 1.431448,-6.116042 -0.607205,-0.668685 2.533502,-2.150484 2.245544,-4.117851 3.965618,-1.982732 5.814006,-10.194746 -0.469672,-10.145146 -1.779319,-3.088994 -5.234471,-4.574876 -8.428642,-5.384227 l 1.4e-5,6.02e-4 0,0 z m 0.196482,1.10313 c -0.447011,0.752392 -0.08077,-1.018597 0,0 z m 0.874128,10.251663 c 0.335157,0.494457 -0.554486,-0.226333 0,0 z m 9.035826,3.024162 -0.06423,0.0021 0.06423,-0.0021 z m -1.743565,3.047863 -0.0093,-0.08398 0.0093,0.08398 z m -3.374961,4.852047 -0.161049,0.0021 0.161049,-0.0021 z m -2.528954,0.771612 c -0.16087,0.204943 0.01087,-0.236697 0,0 z m -0.08873,0.168095 c 0.05924,0.387705 -0.202344,-0.360172 0,0 z m 0.210259,0.154325 -0.138435,0.02715 0.138435,-0.02715 z m 2.103463,2.972907 c 0.911922,0.366608 -0.348893,0.247367 0,0 z m -0.303684,-0.004 -0.107217,0.03311 0.107217,-0.03311 z m 21.969392,-36.977238 0.03358,-0.02013 -0.03358,0.02013 z m -8.761902,0.683426 -0.04385,-0.03334 0.04385,0.03334 z m -0.103067,-0.310298 c -0.395255,-0.151092 0.397152,-0.07107 0,0 z m -0.504024,-0.366517 -0.03994,-0.07 0.03994,0.07 z m -0.226525,0.03335 -0.136958,-0.0733 0.136958,0.0733 z m -0.02675,-0.18684 -0.0035,-0.03334 0.0035,0.03334 z m -0.127045,0.253529 c -0.330478,-0.07404 0.251157,-0.01488 0,6e-6 m -0.119866,-0.05347 -0.03502,-0.0474 0.03502,0.0474 z m -0.793385,-0.336201 0.01594,-0.05404 -0.01594,0.05404 z m 17.96529,1.490033 c 0.372567,0.814019 1.662898,-0.193694 0,0 z m -4.772958,-2.921646 c -0.918003,1.454679 0.535565,2.433669 0,0 z m -5.155741,-4.833623 c -3.157083,2.48948 2.844458,0.668532 0,0 z m 1.533025,-1.472673 c -1.740848,0.464459 -0.274544,3.112726 -0.320409,3.424567 2.676029,-0.188985 0.404108,-2.170104 0.320409,-3.424567 z m -0.892864,0.640711 -0.06424,-0.0019 0.06424,0.0019 z m -0.107463,-1.790419 c -0.142347,0.704383 0.532556,-0.05061 0,0 z m -4.024774,-1.453932 c -1.045021,2.403632 4.846034,-0.68231 0.56595,0.197712 l -0.304415,-0.038 -0.261535,-0.15972 z m 12.75719,-1.612666 c -2.01893,0.254601 -5.386273,2.414565 -4.900293,4.222105 1.884593,0.288072 1.781947,1.235082 0.427557,1.002111 -0.212353,2.377659 -4.676285,2.565015 -3.9163,4.618343 -4.385016,1.181057 0.306317,5.626797 1.642088,1.563945 1.436118,-3.040794 5.672574,0.844331 4.408409,1.266175 3.167479,-0.491198 -2.713711,-4.269964 0.650654,-2.225506 1.077642,1.840343 2.819265,3.706071 2.506114,0.995217 1.89594,0.126492 1.381258,-3.56934 3.836951,-1.558988 2.027392,0.08282 4.977227,2.95583 3.842569,-0.992563 0.06519,-2.559668 5.57514,-0.972113 1.732346,-3.404369 0.111422,-2.26245 0.134058,-6.767553 -1.892868,-4.694371 -1.539032,-0.201293 -7.829187,2.140403 -4.049633,0.784736 -0.978314,-1.310119 -2.890487,-1.116262 -4.287594,-1.576835 z m 0.209991,0.08873 -0.06416,-0.0021 0.06416,0.0021 z m 0.514497,-0.02811 -0.159989,0.02358 0.159989,-0.02358 z m -2.150312,0.448912 -0.138983,-0.02691 0.138983,0.02691 z m -0.467648,0.09343 -0.0902,0.02392 0.0902,-0.02392 z m -0.495207,0.308645 -0.0563,-0.0022 0.0563,0.0022 z m 0.369269,-0.04217 -0.114114,-0.0022 0.114114,0.0022 z m 2.084721,1.023761 c -3.155373,2.382347 3.577505,1.921625 -0.424511,2.561608 1.613118,1.440006 -5.488379,2.557661 -1.30971,0.240991 -0.12247,-1.192674 0.257013,-2.792577 1.734221,-2.802599 z m -3.641448,0.448913 c -0.266493,0.833089 -0.447661,-0.108276 0,0 z m -0.855659,0.532685 -0.08506,-0.0015 0.08506,0.0015 z m 0.995654,2.916962 c -0.173334,0.219032 -0.201326,-0.282448 0,0 z m 2.814449,0.0093 c -0.192857,0.06101 0.191045,-0.212051 0,0 z m -3.048136,0.07937 c 0.121534,0.377156 -0.471294,-0.192456 0,0 z m -1.612669,0.841606 -0.07636,0.03306 0.07636,-0.03306 z m 10.40103,2.243732 c -0.606123,1.363897 -1.782527,-0.186913 0,0 z m -5.282222,3.431184 c -0.03906,0.491478 -0.372985,-0.348416 0,0 z m 0.888178,-0.107476 -0.09916,0.01693 0.09916,-0.01693 z m -0.294587,0.1681 -0.08507,-0.0015 0.08507,0.0015 z m 0.09343,0.168376 -0.0095,-0.08398 0.0095,0.08398 z M 74.052496,19.13123 c -2.714054,-1.017517 -3.252108,3.859788 -1.07793,0.961951 0.34171,-0.134224 0.528137,-1.05852 1.07793,-0.961951 z m -2.402741,1.023761 -0.08505,-0.0015 0.08505,0.0015 z m -9.148266,-1.954056 c -4.011895,0.814148 2.902176,1.051435 1.653318,0.04171 l -0.880503,-0.07515 -0.772815,0.03344 0,0 z m 0.411432,0.233688 c -0.202289,0.210744 -0.203008,-0.285971 0,0 z m -0.925383,0.313329 -0.171686,-0.04119 0.171686,0.04119 z m -0.327379,0.116845 -0.08979,1.77e-4 0.08979,-1.77e-4 z m 7.815854,-0.869439 c -2.414747,0.07315 1.718051,0.495513 0,0 z m 1.607983,-0.210541 c -2.835313,0.756985 3.175976,0.336799 0,0 z m 0.556387,0.23865 -0.30748,0.07673 0.30748,-0.07673 z m -1.191863,0.06532 -0.09179,0.0305 0.09179,-0.0305 z m -62.1052375,34.596514 0.04507,-0.05657 -0.04507,0.05657 -6e-6,0 z m -0.233686,-0.36293 0.03332,-0.02346 -0.03332,0.02346 z m -0.149914,0.199787 -0.02311,-0.03332 0.02311,0.03332 z m -0.05014,-0.197037 c 0.187111,-0.02428 -0.174887,-0.138297 2.1e-5,1.4e-5 m 107.0225665,-5.697802 3.4e-4,-6.8e-5 m -1.72819,-0.6073 -0.0331,-0.06972 0.0331,0.06972 z m -4.7873,-3.330595 0.006,-0.06669 -0.006,0.06669 z m -0.0265,0.0733 -0.0108,-0.07 0.0108,0.07 z m -0.18353,-1.256896 0.01,-0.0333 -0.01,0.0333 z m -0.0402,1.927372 0.057,-0.146882 -0.057,0.146882 z m -0.0331,-2.197435 -0.01,-0.03667 0.01,0.03667 z m 14.09098,14.941122 -0.0375,0.05261 0.0375,-0.05261 z m -0.65394,1.156314 -0.01,-0.03667 0.01,0.03667 z m -0.0565,-0.07634 c 0.18793,-0.102955 -0.23113,-0.07468 3e-5,0 m 0.38659,-3.17077 -0.004,-0.03694 0.004,0.03694 z m 1.60358,0.283567 -0.2031,-0.07027 0.2031,0.07027 z m -0.36295,-0.21991 c -0.20018,0.139992 0.42782,0.01251 4e-5,-2.8e-5 m 0.58281,0.346148 0.0466,-0.04658 -0.0466,0.04658 z m -2.56037,-0.02011 -0.0365,-0.0096 0.0365,0.0096 z m -4.94822,11.990543 0.037,-0.03339 -0.037,0.03339 z m -0.0397,-0.1207 c 0.29389,0.07612 0.0229,-0.295996 4e-5,-2.95e-4 m -0.37041,-3.166892 -0.0297,0.112156 0.0297,-0.112156 z m -0.23673,0.27696 -0.06,0.02311 0.06,-0.02311 z m -1.30043,1.800325 c 3.08669,-0.40609 0.924,-4.326084 0.30684,-0.648204 l -0.12739,0.492689 -0.17996,0.155147 m -0.10917,-0.229734 -0.0937,0.08323 0.0937,-0.08323 z m -3.96111,2.104017 c 2.0002,0.777824 5.77745,-3.784302 1.75951,-1.016811 -0.55454,0.395065 -1.20807,0.635442 -1.75934,1.016825 m 0.19631,0.350239 c -0.59991,-0.0048 -0.0327,0.279505 0,1.4e-5 m -1.71407,1.433526 -0.18323,0.106947 0.18323,-0.106914 m -0.15654,0.127011 -0.0328,0.0062 0.0328,-0.0062 z m -3.59542,-3.672859 c -1.00028,2.421964 2.53742,-0.653637 0,0 z m 2.83262,-12.088692 c 0.18135,2.882208 -2.78781,2.748425 -2.41765,0.341593 -3.17688,0.10169 -5.13702,2.985957 -8.389533,4.565593 -0.584077,2.526505 -1.137633,6.59092 2.662092,4.118406 4.036771,-2.850211 5.126501,5.623242 8.663141,0.774335 4.31803,-3.295922 0.41855,-6.144854 -0.51805,-9.799927 z m -11.041184,6.277869 c -0.04671,0.250508 -0.107541,-0.256123 0,0 z m 8.881514,4.768273 c -0.21229,0.239399 0.0687,-0.234472 0,0 z m 14.98576,-8.648921 0.0297,-0.03666 -0.0297,0.03666 z m -0.51697,0.53021 0.0297,-0.03304 -0.0297,0.03304 z m -0.14661,-0.209992 -0.0201,-0.06972 0.0201,0.06972 z m 0.41034,-0.779601 c -1.09004,0.101192 -0.0381,0.487183 -4e-5,-2.2e-5 m -0.57316,0.633294 0.0363,-0.02647 -0.0363,0.02647 z m -0.3836,-0.363484 0.067,-0.05732 -0.067,0.05732 z m 0.01,0.926487 0.0906,-0.04754 -0.0905,0.04727 m -0.0938,-0.22625 0.004,-0.03332 -0.004,0.03332 z m -0.0267,-0.569336 0.0336,-0.03086 -0.0336,0.03086 z m 0.0198,0.392971 c 0.96694,0.389866 -0.035,-0.866063 5.7e-4,-3.01e-4 M 104.29268,49.10912 c 0.80314,1.679696 2.97352,4.270719 4.78336,3.247314 4.08421,2.139095 -2.36976,-4.554096 -3.84835,-2.521676 -0.0324,-0.42129 -0.35334,-1.083376 -0.93501,-0.725638 z m 12.10657,7.740077 0.0298,-0.03276 -0.0298,0.03276 z m -0.0764,-0.235896 0,-0.136683 0,0.136683 z m 0.006,-0.263996 c 0.13645,-0.348311 -0.25586,-0.01416 7e-5,-2.1e-5 m -0.0863,-1.44317 0.0196,-0.173336 -0.0196,0.173336 z m -0.0212,0.240027 0.021,-0.206681 -0.021,0.206681 z m -0.0361,0.206955 0.006,-0.03304 -0.006,0.03304 z m 0.0598,0.133379 -0.097,-0.08626 0.097,0.08626 z m -0.073,-0.19373 c 0.25188,-0.06878 -0.25081,-0.130522 2e-5,0 m -0.0367,-0.349981 0.042,-0.08198 -0.042,0.08195 m -0.0237,-0.617246 0.0198,-0.09644 -0.0198,0.09644 z m -0.0234,1.454211 0.0334,-0.02039 -0.0334,0.02039 z m 0.0171,-1.304017 -0.0119,-0.05704 0.0119,0.05704 z m 0.0228,1.404051 c 0.27608,-0.216935 -0.24943,-0.04774 -4e-5,1.4e-5 m -0.24302,-0.829496 1.3e-4,0 m 0.0396,0.336202 c 0.37231,-0.143284 -0.33999,-0.431297 2e-5,-1.9e-5 m -0.0835,-1.367106 0.01,-0.03311 -0.01,0.03311 z m 0.0637,0.776571 c -0.14595,-0.374057 -0.30333,0.626604 -4.4e-4,-7e-6 m 0.0303,-1.503811 -0.003,-0.03611 0.003,0.03611 z m -0.19648,-0.200339 0.0669,-0.07299 -0.0669,0.07292 m -1.47381,-0.429834 -0.048,-0.152896 0.0481,0.152862 m 0.053,0.383354 c 0.59955,0.117666 -0.56896,-0.440388 -3e-5,-3.4e-5 m -0.26976,-0.642603 c 0.5337,0.670607 -0.3581,-1.080681 -5e-5,3.4e-5 m -0.21986,0.01984 0.0603,-0.03004 -0.0603,0.03004 z m 0.01,-0.02675 -0.0369,-0.05321 0.0369,0.05321 z m -0.20695,0.976912 0.16209,0.10381 -0.16209,-0.103843 m 0.024,-1.210851 -0.0108,-0.06697 0.0108,0.06697 z m 0.0628,0.510365 c 0.92603,0.26765 -0.50275,-0.568782 0,3.01e-4 m -0.2899,-0.283588 0.0267,-0.03967 -0.0267,0.03967 z m 0.0397,-0.399858 c 0.82108,0.596881 -0.74574,-0.793256 1e-5,5.4e-5 m -0.18684,-0.183869 -0.0703,-0.02311 0.0703,0.02311 z m -0.0363,-0.03994 -0.0336,-0.01656 0.0336,0.01656 z m -0.12676,0.513669 -0.003,-0.03722 0.003,0.03722 z m -0.0664,-0.02621 0.0328,-0.100316 -0.0328,0.100316 z m -0.0507,-0.520285 0,-0.03358 0,0.03358 z m -0.0463,-0.0075 -0.0333,-0.01656 0.0333,0.01656 z m -0.0369,0.537097 -0.0331,-0.0132 0.0331,0.0132 z m 0.07,-0.08985 c 0.0745,-0.371082 -0.40945,-0.144619 1.1e-4,2.7e-5 m -0.14974,0.06334 0.006,-0.126485 -0.006,0.126485 z m -0.0598,-0.233133 -0.0151,-0.117945 0.0151,0.117945 z m -0.0739,-0.413643 c 0.67801,0.498717 -0.46617,-0.654677 0,0 z m -0.1232,0.436237 -0.0135,-0.102793 0.0135,0.102793 z m 0.0468,-0.102793 -0.0143,-0.144372 0.0143,0.144344 m -3.15097,-2.36713 0.006,-0.02011 -0.006,0.02011 z m -0.29018,0.07634 c 0.22408,-0.338083 0.42862,0.06765 0,-2.7e-5 m 3.25454,1.903978 0,-0.06669 0,0.06669 z m -0.11684,0.05704 -8e-5,2.74e-4 m -0.24381,-0.364585 c 0.7213,0.790213 -0.26647,-0.85897 9e-5,-2.8e-5 m -0.10923,-0.306412 0,-0.169751 0,0.169751 z m -0.11656,-0.34667 -0.004,-0.03694 0.004,0.03694 z m -0.53434,-0.543439 -0.0201,-0.06999 0.0201,0.06999 z m -0.10632,2.404672 -0.0799,-0.0835 0.0799,0.0835 z m -0.097,-2.498089 -0.0163,-0.03276 0.0163,0.03276 z m -0.0331,-0.06005 -0.003,-0.03694 0.003,0.03694 z m 0.23314,0.403719 c -1.61898,-2.127207 -3.24125,-3.505586 -2.9e-4,6.1e-5 m -0.6531,-0.349767 0.067,-0.01738 -0.067,0.01738 z m -0.0303,2.34349 0.01,-0.16629 -0.01,0.166257 m -0.23646,-2.533881 c 0.0903,0.253908 0.28093,-0.240301 -3e-5,-1.63e-4 m -0.0865,-0.363319 -0.0645,-0.0824 0.0645,0.0824 z m -0.11684,1.250007 -0.033,-0.0096 0.033,0.0096 z m -0.27007,0.493559 c 2.1125,-0.386987 0.92433,-0.786738 -5e-5,2.53e-4 m -0.25678,-0.193433 -0.006,-0.03666 0.006,0.03666 z m -0.0637,-1.25056 0.0174,-0.03358 -0.0174,0.03358 z m 0.01,1.404051 -0.0367,-0.140541 0.0367,0.140541 z m -0.29349,-0.160386 -0.0163,-0.100857 0.0163,0.100857 z m -0.39958,-0.276951 0.0198,-0.09315 -0.0198,0.09315 z m 4.13115,5.842195 0.0262,-0.07056 -0.0262,0.07056 z m 2.57386,0.926477 c 0.24899,-0.04563 -0.17407,-0.225991 3e-4,7e-6 m -0.17032,-0.189875 c 0.13436,-0.420141 -0.2424,-0.0717 2e-5,0 m -0.10697,0.596896 0.0232,-0.03276 -0.0232,0.03276 z m -0.14992,-0.783186 0.0603,-0.103615 -0.0603,0.103615 z m -0.74378,-0.01028 c 1.08759,2.177099 0.52177,-0.532146 1.4e-4,7e-6 m -14.696833,-16.441082 0.0196,-0.05378 -0.0196,0.05378 z m 5.061223,5.204509 0.0262,-0.136691 -0.0262,0.136691 z m 8.6558,-17.718373 0.07,0.04353 -0.07,-0.04353 z m -0.0606,0.09672 -0.0475,-0.125516 0.0477,0.125516 m 1.47692,-0.363235 -0.0222,-0.05705 0.0221,0.05705 m -0.40315,0.110221 -0.029,-0.04644 0.029,0.04647 m -0.19956,0.08623 c 0.47398,-0.07407 -0.58056,-0.02503 0,0 z m -0.36651,-0.04299 -0.068,0.01352 0.068,-0.01352 m -0.50792,0.209711 c 0.31513,-0.08008 -0.1969,-0.186718 1.6e-4,-5e-6 m -0.23632,-0.02646 0.0926,-0.07339 -0.0926,0.07338 m -0.15019,-2.070663 -0.0667,-0.02343 0.0667,0.02343 z m 0.0899,2.093818 -0.13573,-0.133084 0.13533,0.133111 m -0.84616,-0.106665 -0.067,-0.05677 0.067,0.05677 z m -0.13724,0.09672 0.21608,0.08458 -0.21605,-0.08458 m -0.21305,-0.106924 -0.0333,-0.01324 0.0333,0.01324 z m 0.006,0.05042 -0.0669,-0.02039 0.0669,0.02039 z m -0.34723,-0.02039 0.01,-0.08178 -0.01,0.08179 m -1.30712,-0.203383 -0.10275,-0.01985 0.10275,0.01985 z m -0.36927,-0.153218 c 0.3502,-0.0845 -0.49327,-0.08977 10e-6,0 m -8.18955,9.589183 -0.0972,0.146513 0.0973,-0.146513 m -0.13371,0.130347 0.0334,0.02645 -0.0334,-0.02645 z m -0.0595,0.116566 0.0466,0.07 -0.0466,-0.07 z m -0.0736,0.193452 -7e-5,0 m -0.16335,0.536543 0.0978,-0.304689 -0.0978,0.304716 m -0.35054,-0.12348 0.0242,0.03358 -0.0242,-0.03358 z m -0.35605,0.607095 0.0598,0.04658 -0.0598,-0.04658 z m -0.38085,0.173334 0.0577,-0.0028 -0.0577,0.0028 m -0.0998,0.01354 0.0183,0.05486 -0.0183,-0.05479 m 8.57894,-15.664579 0.11049,-0.01324 -0.11049,0.01324 z m -9.779073,16.018074 c 0.74549,1.78114 0.37774,-2.002405 -3.3e-4,0 m -3.694024,1.683486 c 0.610454,1.35307 0.980654,-1.228882 -6.1e-5,-2.67e-4 m -5.486086,2.037591 -0.0956,-0.346067 0.128161,0.416119 m -0.248072,-0.887959 0.0021,0.0865 m 12.867155,9.95848 c -1.68596,0.199088 -1.54282,1.357455 0,0 z m 0.72918,-2.224996 c -1.21072,0.668876 2.76529,0.0867 0,0 z m -1.44457,-1.673841 c -3.001337,-0.401269 -1.855407,4.14489 -0.61293,2.067162 -0.3282,-1.147744 -0.96393,-1.611814 0.61293,-2.067162 z m 1.14088,-0.252429 c -0.34331,2.648092 0.83912,-0.3014 0,0 z m -19.680179,-0.780423 0.191427,0.550901 -0.191427,-0.550901 z m 0.233686,0.612327 -0.08961,-1.71e-4 0.08961,1.71e-4 z m 7.829913,-1.308983 c 1.001427,4.652083 7.927893,6.973397 9.98119,5.59049 -3.558177,0.183883 -6.489163,-0.660408 -6.979465,-3.614751 -1.100743,-0.516158 -1.743901,-1.748934 -3.001725,-1.975739 z m 8.063873,5.731135 -0.13899,-0.02716 0.13899,0.02716 z m -0.36018,-6.441567 c -1.874174,1.458458 -4.500274,4.310332 -0.26201,4.55785 0.61028,-1.461606 1.626367,-3.666306 0.26201,-4.55785 z M 85.612389,44.958167 c -0.831562,2.3202 2.180602,1.50301 0,0 z m 13.977168,-0.523595 c -1.68375,1.884565 -1.224,2.543708 0,0 z m 0.869433,-0.331791 c 0.0158,1.708051 1.89088,0.568638 0,0 z m 0.73386,0.434855 -0.01,-0.08362 0.01,0.08362 z m -0.0325,0.341163 -0.0782,-0.121686 0.0782,0.121686 z m 0.0791,-0.01402 -0.009,-0.08398 0.009,0.08398 z m -0.18684,0.09343 -0.01,-0.08403 0.01,0.08403 z m 0.24771,-1.07973 c 0.58861,1.144639 -1.19268,3.085375 0.86604,2.101835 0.0582,-0.442016 -0.41118,-2.255811 -0.86604,-2.101835 z m -1.622033,-2.472733 c -0.26531,3.071524 3.037533,3.479333 0,0 z M 68.877815,34.501202 c -1.842443,0.0022 0.464418,0.683442 0,0 z m 34.619675,-2.337155 c 1.16743,2.389068 -3.28938,2.263593 -1.51198,3.905156 1.07982,-1.430711 4.60948,-1.256266 1.51198,-3.905156 z m 0.23368,0.135582 -0.13868,0.02689 0.13868,-0.02689 z M 102.87579,34.922 c -0.13758,0.363115 -0.38558,-0.335712 0,0 z m -0.34144,0.140268 c -0.41175,0.339116 -0.0465,-0.267474 0,0 z m -0.40647,0.07937 -0.01,-0.08362 0.01,0.08362 z m 0.13531,0.02343 c -0.49951,0.659791 -0.41763,-0.357555 0,0 z m 0.53323,-4.585842 c -0.15019,2.956391 3.94082,0.15101 0,0 z M 92.418698,19.981945 c 1.023295,0.944833 1.611677,-0.193024 0,0 z m -10.26544,-1.02817 c -2.193546,0.597548 -4.091702,1.758506 -5.293791,1.853939 2.014634,4.455143 -1.25926,-2.972783 -1.392531,0.941981 -2.827993,1.945555 1.34601,6.105503 0.07532,6.553455 -4.948988,-1.298016 2.383179,8.805046 -2.117309,4.218912 -2.739123,-2.598063 -3.291453,0.497814 -6.793448,-0.221717 -2.151195,2.899523 4.892494,0.440383 2.243861,4.145504 1.809,1.910154 3.086381,9.98474 7.221689,5.76223 3.204118,-0.756911 1.491553,-4.922851 -0.881318,-3.317496 -3.554309,-4.273338 3.091956,1.040959 5.237733,-0.112686 3.361535,0.397337 2.039992,6.996847 5.200776,5.832188 -0.239857,-3.37146 3.866633,-6.556984 5.388624,-2.317901 1.375575,1.085584 2.027569,6.978151 3.224836,5.572452 -1.446686,-1.749981 -2.548428,-5.737216 0.59927,-2.789858 2.850976,-1.664881 -2.447232,-5.057422 2.041332,-5.160821 4.760768,-1.451113 -0.124504,-6.060397 0.378758,-7.133359 1.322146,-0.607159 4.2815,4.223134 2.72215,0.262383 -0.345694,-1.661138 1.83065,-2.201158 1.58434,-4.29071 2.85951,3.5234 -0.0758,-2.373137 -1.910444,-1.467452 -3.539069,-1.30867 2.428834,-2.649153 3.835984,-2.724899 -0.12076,-0.01416 1.43325,5.509139 2.63394,2.636294 -0.77581,-1.716729 -2.23179,-2.387627 0.70909,-2.613587 0.42786,-1.570689 0.30261,-2.154755 2.38724,-1.22887 -3.5044,-2.870649 -8.53726,-1.190189 -12.667445,-2.491442 -3.949318,0.08345 -7.654936,-0.793394 -11.504994,-0.718672 0.537706,-1.555998 -1.715206,-0.668908 -2.923669,-1.189874 z m 3.627944,1.126274 -0.228016,0.0045 0.228016,-0.0045 z m -7.358133,1.781042 c 0.113533,0.398106 -0.952874,-0.673172 0,0 z m 29.164661,0.649806 -0.0728,-0.03199 0.0728,0.03199 z m -0.8879,0.794757 c -0.28211,0.244615 -0.12228,-0.249836 0,0 z m -16.258104,3.398391 c 0.566073,1.161081 -1.499508,1.744226 0,0 z m -8.989256,3.374968 c -0.203555,0.857839 -0.636795,0.03149 0,0 z m 0.27557,-0.0093 -0.114064,-0.0023 0.114064,0.0023 z m 0.640715,0.0609 -0.155261,-0.04083 0.155261,0.04083 z m 0.280257,-0.0047 -0.184424,-0.0047 0.184424,0.0047 z m -5.623379,0.07937 -0.08507,-0.0015 0.08507,0.0015 z m -0.360179,0.205855 c 0.898741,0.403167 -0.643486,1.315199 0,0 z m -0.163415,0.233688 c 0.04856,0.483793 -0.293855,-0.357013 0,0 z m -0.14027,0.364586 -0.110613,-0.306653 0.110613,0.306653 z M 75.0809,32.05632 c 0.988234,0.8819 -0.954927,-0.05818 0,0 z m -5.801131,5.343124 c -0.106405,0.25701 -0.04728,-0.250176 0,0 z m 17.996974,3.529285 -0.06389,0.0021 0.06389,-0.0021 z m -15.173708,1.299612 -0.08047,0.0028 0.08047,-0.0028 z m 21.928604,2.248417 -0.05054,0.05876 0.05054,-0.05876 z m 0.981598,0.425491 c 0.115239,0.34504 -0.299649,-0.383847 0,0 z M 79.119725,17.939106 c -0.353516,1.282835 3.051618,0.194549 0.660751,0.07744 l -0.660751,-0.07744 z m -2.161059,32.715987 -0.05041,-0.06308 0.05041,0.06308 z m -3.260879,1.830924 -0.03694,-0.0035 0.03694,0.0035 z m -0.05014,0.04241 0.06642,-0.02921 -0.06642,0.02921 z m 0.77023,1.387799 0.01348,-0.03722 -0.01348,0.03722 z m -0.09644,0.195927 -0.02311,-0.07936 0.02311,0.07936 z m 1.919929,-10.308978 c 0.864176,-0.03735 -0.464891,-0.313693 -1.4e-5,-4.2e-5 m -0.493264,0.06669 -0.06642,-0.02011 0.06642,0.02011 z m -26.397331,-1.780489 0.0069,-0.103344 -0.0069,0.103344 z m 0.03338,0.243332 -0.03338,-0.103344 0.03338,0.103344 z m -0.270065,0.433754 -0.06033,-0.166719 0.06033,0.166719 z m -0.253261,-0.633825 c 0.337053,0.02928 -0.167855,-0.190791 -2.7e-5,2.1e-5 m -0.05315,0.670177 0.02093,-0.08406 -0.02093,0.08406 z m -0.273921,-0.84384 0.09534,-0.08873 -0.09534,0.08873 z m 4.221811,-4.777642 0.08383,-0.105768 -0.08387,0.105757 m -0.2072,0.316638 c -0.08409,-0.570309 0.44452,-0.104254 -2.8e-5,-4e-6 m -0.43621,0.126493 c -0.275228,-0.29148 0.291612,-0.107293 0,0 z m -0.367067,-0.09975 c -0.344596,-0.393318 0.806731,-0.215121 0,0 z m -0.190421,-0.0098 0.01656,-0.0733 -0.01656,0.0733 z m -0.173061,-0.210264 -0.04084,-0.09236 0.04111,0.09238 m -0.09343,0.356868 0.03994,-0.07 -0.03994,0.07 z m 0.499892,-2.004258 c -0.289237,-0.0325 0.183875,-0.149743 -6e-6,0 m 21.205782,18.038311 -0.09949,-0.07991 0.09949,0.07991 z m -0.233411,0.004 -0.07661,-0.05096 0.07661,0.05096 z m -0.132827,-0.180223 -0.04473,-0.222679 0.04481,0.222679 m 4.096934,3.630703 c -0.446983,-0.131075 0.138729,0.392677 0,0 z m -3.520749,-3.207694 0,-0.113533 0,0.113533 z m 1.404892,-0.102565 c -2.502905,0.821444 -2.78964,7.958271 -0.277061,3.577047 0.284427,-1.002865 1.263686,-2.946154 0.277061,-3.577047 z M 60.435467,33.865412 c -4.817668,-0.356095 -8.914957,3.389048 -9.093005,8.242708 -0.81498,4.896455 5.177838,5.037291 8.368508,4.813256 2.47882,3.556881 1.848311,8.062696 2.476036,12.192997 0.295374,4.313957 4.663923,4.84292 6.494183,0.957649 1.325783,-3.318248 3.42093,-5.879769 2.873236,-9.971934 1.786009,-1.469869 6.178275,-6.6319 1.216708,-5.727264 -2.854091,-2.572239 -3.634041,-11.006652 -8.873676,-7.745453 -2.125796,-0.666522 -2.646272,-1.626749 -3.46199,-2.761959 z m 8.918984,15.094068 c -0.135185,2.300978 -1.85472,-0.424 0,0 z m -1.617353,1.7951 c 1.027755,2.032049 -0.07739,1.601477 0,0 z m 1.682665,2.141215 c 0.552016,1.508263 -0.139565,2.521852 0,0 z"
     transform="matrix(0.89912347,0,0,0.99893195,5.525056,1.2021876)" />
  <path
     style="fill:#ffffff;fill-opacity:1;fill-rule:evenodd;stroke:#5f5fd3;stroke-width:0.94082201;stroke-opacity:1"
     id="path5246"
     inkscape:connector-curvature="0"
     d="m 64.449743,12.45338 c -0.605791,0.02031 -1.384951,0.35607 -1.761869,1.766216 -0.221065,-1.082968 -2.584075,-0.824234 -2.584075,-0.824234 0,0 0.782862,0.554546 0.763476,0.971419 -0.405887,0.04605 -0.808467,0.121347 -1.203944,0.206059 -0.171394,-0.382426 0.04933,-1.148253 -0.05873,-1.677906 -0.335093,0.508784 -0.489602,1.241105 -0.557925,1.82509 -0.384849,0.1041 -0.747202,0.238972 -1.115851,0.38268 -1.381756,-2.356957 -3.646919,-3.400061 -6.372094,-1.707342 -1.479914,0.919237 -2.174946,2.374106 -2.378524,4.003423 -4.321203,0.900688 -9.202803,1.677905 -13.478301,1.677905 -10.463607,0 -16.405213,6.927644 -16.502844,18.280332 -0.09763,11.352692 1.5689,14.091499 2.642804,14.482969 1.073895,0.391472 0.411103,-0.38268 0.411103,-0.38268 l 0.763477,0.500428 0,-0.500428 0.675383,0.08831 0.411103,-0.76536 0.880934,0 c 0,0 0.773015,-0.386508 0.675384,-1.854527 -0.09762,-1.468022 0.78102,-1.779601 0,-3.149751 -0.781011,-1.370153 -1.650125,-13.298996 -0.08805,-14.57128 1.562031,-1.272283 6.332826,-4.201453 10.042656,-4.88653 3.70983,-0.685077 6.35534,-1.683635 14.946526,-0.117748 0.0047,0.575483 0.05384,1.242338 0.146823,2.090022 0.491876,4.482674 2.004208,5.192415 4.022935,8.742768 2.454852,4.396623 5.978761,5.154712 10.248207,2.767071 3.519078,-2.062839 5.206489,-1.928392 7.869684,-5.563579 0.545963,-0.745225 0.933584,-1.33039 1.233308,-1.854527 0.639893,-0.47427 1.273592,-0.959277 1.879328,-1.354098 2.964554,-1.994225 6.475467,-6.18664 4.492767,-9.890808 -1.603104,-2.994998 -4.291172,-3.054888 -6.783198,-1.44241 -0.227238,-0.320908 -0.470066,-0.616323 -0.734112,-0.912545 0.187557,-0.393341 0.465792,-1.067607 0.440468,-1.619031 -0.381288,0.447626 -0.497806,1.507489 -1.115851,0.883108 -0.618036,-0.624383 0.616654,-0.735923 0.616654,-0.735923 0,0 -1.282838,-0.979512 -1.791234,-0.38268 0.480103,-1.796192 -0.969028,-1.9134 -0.969028,-1.9134 0,0 0.600285,0.627264 0.381738,1.118603 -0.0731,0.164165 -0.239698,0.240953 -0.440467,0.264932 -0.221263,-0.133114 -0.445758,-0.26117 -0.675383,-0.38268 -0.05159,-0.146516 -0.06418,-0.318165 0,-0.559302 -0.382425,-0.136597 -0.695229,-0.03444 -0.910299,0.147185 -0.167101,-0.07451 -0.329042,-0.166966 -0.499197,-0.235495 l 0.322963,-1.560158 -0.880935,1.354099 c -0.129552,-0.04634 -0.250843,-0.07487 -0.381738,-0.117748 -0.04031,-0.550274 -0.282576,-1.192241 -1.145216,-1.354099 -0.14623,0.547113 -0.423252,0.786877 -0.734112,0.853672 -0.222578,-0.04268 -0.451518,-0.08512 -0.675383,-0.117748 -0.302863,-0.166711 -0.527264,-0.44573 -0.499197,-0.735924 0.07236,-0.748251 1.292038,-1.05973 1.292038,-1.05973 0,0 -0.102357,-0.07236 -0.293645,-0.117747 -0.143458,-0.03403 -0.326627,-0.06565 -0.528561,-0.05887 z" />
  <path
     style="fill:#ffffff;fill-opacity:1;fill-rule:evenodd;stroke:#5f5fd3;stroke-width:0.94082201;stroke-opacity:1"
     id="path5222"
     inkscape:connector-curvature="0"
     d="m 32.743559,52.450682 0,1.089166 -0.763477,-0.500428 0,0.588739 -0.880935,-0.470991 0.205552,0.470991 -0.792842,-0.38268 0.08805,0.971418 -0.763477,-0.76536 0.293645,1.354099 -0.792841,-0.38268 0.675383,1.766216 -0.969028,-1.265788 0.675383,1.736779 -0.58729,-0.382681 0.792842,1.560158 -0.675384,-0.588739 0.763477,1.089166 -0.675383,-0.38268 c 0,0 3.509644,6.633255 9.367272,10.45011 5.857629,3.816851 14.34439,9.906095 27.426435,8.24234 13.082033,-1.663758 12.50927,-16.366932 12.50927,-16.366932 -4.49085,10.17827 -8.439843,11.826578 -16.708395,7.741912 C 51.506369,62.872621 36.472849,53.922528 36.472849,53.922528 l -0.117458,0.706486 -1.43886,-1.295224 0,0.412117 -0.704748,-0.706487 -0.08805,0.588739 -0.675384,-0.971419 0,0.794797 -0.704747,-1.000855 z" />
  <path
     style="fill:#5f5fd3;fill-opacity:1;fill-rule:evenodd;stroke:none"
     id="path6450"
     inkscape:connector-curvature="0"
     d="m 55.414974,19.875938 c 0,0 5.422019,0.598163 3.992837,5.945096 -5.058162,-1.358676 1.159649,-4.561084 -3.992837,-5.945096 z" />
  <g
     id="g9129"
     transform="matrix(0.17125884,0.04600188,-0.04588868,0.17168131,32.888462,-14.887972)"
     style="fill:#5f5fd3;fill-opacity:1">
    <path
       inkscape:connector-curvature="0"
       style="fill:#5f5fd3;fill-opacity:1;stroke:none"
       id="path7337"
       transform="matrix(1.396026,0,0,1.396026,-71.55557,-66.82562)"
       d="m 193.49611,170.55585 a 8.31169,8.31169 0 1 1 -16.62338,0 8.31169,8.31169 0 1 1 16.62338,0 z" />
    <path
       inkscape:connector-curvature="0"
       style="fill:#5f5fd3;fill-opacity:1;stroke:none"
       id="path8224"
       transform="matrix(0.550417,0,0,0.256292,85.03803,134.2209)"
       d="m 193.49611,170.55585 a 8.31169,8.31169 0 1 1 -16.62338,0 8.31169,8.31169 0 1 1 16.62338,0 z" />
    <path
       inkscape:connector-curvature="0"
       style="fill:#5f5fd3;fill-opacity:1;stroke:none"
       id="path9119"
       transform="matrix(0.869052,0,0,0.489141,26.03174,83.32977)"
       d="m 193.49611,170.55585 a 8.31169,8.31169 0 1 1 -16.62338,0 8.31169,8.31169 0 1 1 16.62338,0 z" />
  </g>
  <path
     style="fill:#5f5fd3;fill-opacity:1;fill-rule:evenodd;stroke:none"
     id="path9138"
     inkscape:connector-curvature="0"
     d="m 72.412242,24.441581 c 0,0 -4.993948,-2.199675 -6.423129,3.147259 5.058164,1.358674 1.270641,-4.531271 6.423129,-3.147259 z" />
  <g
     id="g9140"
     transform="matrix(-0.17125884,-0.04600188,-0.04588868,0.17168131,109.25998,5.626206)"
     style="fill:#5f5fd3;fill-opacity:1">
    <path
       inkscape:connector-curvature="0"
       style="fill:#5f5fd3;fill-opacity:1;stroke:none"
       id="path9142"
       transform="matrix(1.396026,0,0,1.396026,-71.55557,-66.82562)"
       d="m 193.49611,170.55585 a 8.31169,8.31169 0 1 1 -16.62338,0 8.31169,8.31169 0 1 1 16.62338,0 z" />
    <path
       inkscape:connector-curvature="0"
       style="fill:#5f5fd3;fill-opacity:1;stroke:none"
       id="path9144"
       transform="matrix(0.550417,0,0,0.256292,85.03803,134.2209)"
       d="m 193.49611,170.55585 a 8.31169,8.31169 0 1 1 -16.62338,0 8.31169,8.31169 0 1 1 16.62338,0 z" />
    <path
       inkscape:connector-curvature="0"
       style="fill:#5f5fd3;fill-opacity:1;stroke:none"
       id="path9146"
       transform="matrix(0.869052,0,0,0.489141,26.03174,83.32977)"
       d="m 193.49611,170.55585 a 8.31169,8.31169 0 1 1 -16.62338,0 8.31169,8.31169 0 1 1 16.62338,0 z" />
  </g>
  <path
     style="fill:#5f5fd3;fill-opacity:1;fill-rule:evenodd;stroke:none"
     id="path10070"
     inkscape:connector-curvature="0"
     d="m 59.141482,33.495498 c -1.161743,0.06666 -1.432667,0.223897 -1.232002,1.183913 0.200665,0.960013 0.753798,2.312098 2.034663,2.65615 1.280856,0.344053 2.435693,-0.549252 3.088778,-1.279942 0.653085,-0.73069 0.826387,-0.758784 -0.476447,-1.642821 -1.302825,-0.884035 -2.253238,-0.983953 -3.414992,-0.9173 z" />
  <path
     style="fill:#5f5fd3;fill-opacity:1;fill-rule:evenodd;stroke:none"
     id="path10960"
     inkscape:connector-curvature="0"
     d="m 59.312191,33.749582 c -1.014226,0.05819 -1.250749,0.195467 -1.075567,1.033575 0.175181,0.838111 2.644768,-0.930321 1.776293,2.318869 0.86575,-3.239002 2.126412,-0.479509 2.696563,-1.117414 0.57015,-0.637905 0.721445,-0.66243 -0.415943,-1.434209 -1.137397,-0.77178 -1.967129,-0.859008 -2.981346,-0.800821 z" />
  <rect
     width="14.524971"
     height="8.0467606"
     rx="0"
     ry="0"
     x="19.059702"
     y="76.564018"
     id="rect4245"
     style="fill:#5f5fd3;fill-opacity:1;fill-rule:nonzero;stroke:none" />
</svg>
