<?xml version="1.0" encoding="UTF-8" standalone="no"?>
<!-- Created with Inkscape (http://www.inkscape.org/) -->

<svg
   xmlns:dc="http://purl.org/dc/elements/1.1/"
   xmlns:cc="http://creativecommons.org/ns#"
   xmlns:rdf="http://www.w3.org/1999/02/22-rdf-syntax-ns#"
   xmlns:svg="http://www.w3.org/2000/svg"
   xmlns="http://www.w3.org/2000/svg"
   xmlns:xlink="http://www.w3.org/1999/xlink"
   xmlns:sodipodi="http://sodipodi.sourceforge.net/DTD/sodipodi-0.dtd"
   xmlns:inkscape="http://www.inkscape.org/namespaces/inkscape"
   version="1.0"
   width="96"
   height="96"
   id="svg2408"
   inkscape:version="0.48.4 r9939"
   sodipodi:docname="im-chooser.svg">
  <sodipodi:namedview
     pagecolor="#ffffff"
     bordercolor="#666666"
     borderopacity="1"
     objecttolerance="10"
     gridtolerance="10"
     guidetolerance="10"
     inkscape:pageopacity="0"
     inkscape:pageshadow="2"
     inkscape:window-width="1366"
     inkscape:window-height="739"
     id="namedview228"
     showgrid="false"
     inkscape:zoom="2.4583333"
     inkscape:cx="48"
     inkscape:cy="48"
     inkscape:window-x="0"
     inkscape:window-y="0"
     inkscape:window-maximized="1"
     inkscape:current-layer="svg2408" />
  <defs
     id="defs2410">
    <linearGradient
       id="linearGradient3941">
      <stop
         id="stop3943"
         style="stop-color:#51c200;stop-opacity:1"
         offset="0" />
      <stop
         id="stop3945"
         style="stop-color:#94df22;stop-opacity:1"
         offset="1" />
    </linearGradient>
    <linearGradient
       id="linearGradient3825">
      <stop
         id="stop3827"
         style="stop-color:#b3b3b3;stop-opacity:1"
         offset="0" />
      <stop
         id="stop3829"
         style="stop-color:#d2d2d2;stop-opacity:1"
         offset="1" />
    </linearGradient>
    <linearGradient
       id="linearGradient3641">
      <stop
         id="stop3643"
         style="stop-color:#b4b4b4;stop-opacity:1"
         offset="0" />
      <stop
         id="stop3645"
         style="stop-color:#dcdcdc;stop-opacity:1"
         offset="1" />
    </linearGradient>
    <linearGradient
       x1="45.447727"
       y1="92.539597"
       x2="45.447727"
       y2="7.0165396"
       id="ButtonShadow"
       gradientUnits="userSpaceOnUse"
       gradientTransform="scale(1.0058652,0.994169)">
      <stop
         id="stop3750"
         style="stop-color:#000000;stop-opacity:1"
         offset="0" />
      <stop
         id="stop3752"
         style="stop-color:#000000;stop-opacity:0.58823532"
         offset="1" />
    </linearGradient>
    <linearGradient
       id="linearGradient3737">
      <stop
         id="stop3739"
         style="stop-color:#ffffff;stop-opacity:1"
         offset="0" />
      <stop
         id="stop3741"
         style="stop-color:#ffffff;stop-opacity:0"
         offset="1" />
    </linearGradient>
    <filter
       color-interpolation-filters="sRGB"
       id="filter3174">
      <feGaussianBlur
         id="feGaussianBlur3176"
         stdDeviation="1.71" />
    </filter>
    <linearGradient
       x1="36.357143"
       y1="6"
       x2="36.357143"
       y2="63.893143"
       id="linearGradient3188"
       xlink:href="#linearGradient3737"
       gradientUnits="userSpaceOnUse" />
    <filter
       x="-0.192"
       y="-0.192"
       width="1.3839999"
       height="1.3839999"
       color-interpolation-filters="sRGB"
       id="filter3794">
      <feGaussianBlur
         id="feGaussianBlur3796"
         stdDeviation="5.28" />
    </filter>
    <linearGradient
       x1="48"
       y1="20.220806"
       x2="48"
       y2="138.66119"
       id="linearGradient3613"
       xlink:href="#linearGradient3737"
       gradientUnits="userSpaceOnUse" />
    <radialGradient
       cx="48"
       cy="90.171875"
       r="42"
       fx="48"
       fy="90.171875"
       id="radialGradient3619"
       xlink:href="#linearGradient3737"
       gradientUnits="userSpaceOnUse"
       gradientTransform="matrix(1.1573129,0,0,0.99590774,-7.5510206,0.19713193)" />
    <clipPath
       id="clipPath3613">
      <rect
         width="84"
         height="84"
         rx="6"
         ry="6"
         x="6"
         y="6"
         id="rect3615"
         style="fill:#ffffff;fill-opacity:1;fill-rule:nonzero;stroke:none" />
    </clipPath>
    <linearGradient
       x1="48"
       y1="90"
       x2="48"
       y2="5.9877172"
       id="linearGradient3617"
       xlink:href="#linearGradient3641"
       gradientUnits="userSpaceOnUse" />
    <linearGradient
       id="linearGradient3650-2">
      <stop
         id="stop3652"
         style="stop-color:#000000;stop-opacity:0"
         offset="0" />
      <stop
         id="stop3660"
         style="stop-color:#000000;stop-opacity:0"
         offset="0.30000001" />
      <stop
         id="stop3658"
         style="stop-color:#000000;stop-opacity:0.11764706"
         offset="0.5" />
      <stop
         id="stop3662"
         style="stop-color:#000000;stop-opacity:0"
         offset="0.69999999" />
      <stop
         id="stop3654-5"
         style="stop-color:#000000;stop-opacity:0"
         offset="1" />
    </linearGradient>
    <linearGradient
       id="linearGradient3672">
      <stop
         id="stop3674"
         style="stop-color:#ffffff;stop-opacity:0"
         offset="0" />
      <stop
         id="stop3676"
         style="stop-color:#ffffff;stop-opacity:0"
         offset="0.30000001" />
      <stop
         id="stop3678"
         style="stop-color:#ffffff;stop-opacity:0.61240309"
         offset="0.5" />
      <stop
         id="stop3680"
         style="stop-color:#ffffff;stop-opacity:0"
         offset="0.75264549" />
      <stop
         id="stop3682"
         style="stop-color:#ffffff;stop-opacity:0"
         offset="1" />
    </linearGradient>
    <linearGradient
       id="linearGradient3622">
      <stop
         id="stop3624"
         style="stop-color:#d6d6d6;stop-opacity:1"
         offset="0" />
      <stop
         id="stop3626"
         style="stop-color:#eaeaea;stop-opacity:1"
         offset="1" />
    </linearGradient>
    <linearGradient
       id="linearGradient3737-4">
      <stop
         id="stop3739-4"
         style="stop-color:#ffffff;stop-opacity:1"
         offset="0" />
      <stop
         id="stop3741-9"
         style="stop-color:#ffffff;stop-opacity:0"
         offset="1" />
    </linearGradient>
    <linearGradient
       x1="6"
       y1="48"
       x2="48"
       y2="81.071426"
       id="linearGradient3862"
       xlink:href="#linearGradient3650-2"
       gradientUnits="userSpaceOnUse"
       gradientTransform="matrix(-0.21428571,0,0,0.21428571,35.285714,18.714286)" />
    <linearGradient
       x1="6"
       y1="48"
       x2="48"
       y2="81.071426"
       id="linearGradient3865"
       xlink:href="#linearGradient3650-2"
       gradientUnits="userSpaceOnUse"
       gradientTransform="matrix(0.21428571,0,0,0.21428571,14.714286,18.714286)" />
    <linearGradient
       x1="13.321428"
       y1="48"
       x2="48"
       y2="84.285713"
       id="linearGradient3868"
       xlink:href="#linearGradient3672"
       gradientUnits="userSpaceOnUse"
       gradientTransform="matrix(0.21428571,0,0,-0.21428571,14.714286,39.285714)" />
    <linearGradient
       x1="13.321428"
       y1="48"
       x2="48"
       y2="84.285713"
       id="linearGradient3872"
       xlink:href="#linearGradient3672"
       gradientUnits="userSpaceOnUse"
       gradientTransform="matrix(-0.21428571,0,0,-0.21428571,35.285714,39.285714)" />
    <linearGradient
       x1="63.535717"
       y1="90"
       x2="32.07143"
       y2="6"
       id="linearGradient3875"
       xlink:href="#linearGradient3825"
       gradientUnits="userSpaceOnUse"
       gradientTransform="matrix(0.21428571,0,0,0.21428571,14.714286,18.714286)" />
    <linearGradient
       x1="16"
       y1="46"
       x2="80"
       y2="46"
       id="linearGradient3882"
       xlink:href="#linearGradient3622"
       gradientUnits="userSpaceOnUse"
       gradientTransform="matrix(0.21874999,0,0,0.21874999,18.5,-35.0625)" />
    <linearGradient
       x1="25"
       y1="36"
       x2="25"
       y2="21.964331"
       id="linearGradient3900"
       xlink:href="#linearGradient3737-4"
       gradientUnits="userSpaceOnUse" />
    <linearGradient
       x1="63.535717"
       y1="90"
       x2="32.07143"
       y2="6"
       id="linearGradient3987"
       xlink:href="#linearGradient3825"
       gradientUnits="userSpaceOnUse"
       gradientTransform="matrix(0.21428571,0,0,0.21428571,14.714286,18.714286)" />
    <linearGradient
       x1="13.321428"
       y1="48"
       x2="48"
       y2="84.285713"
       id="linearGradient3989"
       xlink:href="#linearGradient3672"
       gradientUnits="userSpaceOnUse"
       gradientTransform="matrix(-0.21428571,0,0,-0.21428571,35.285714,39.285714)" />
    <linearGradient
       x1="13.321428"
       y1="48"
       x2="48"
       y2="84.285713"
       id="linearGradient3991"
       xlink:href="#linearGradient3672"
       gradientUnits="userSpaceOnUse"
       gradientTransform="matrix(0.21428571,0,0,-0.21428571,14.714286,39.285714)" />
    <linearGradient
       x1="6"
       y1="48"
       x2="48"
       y2="81.071426"
       id="linearGradient3993"
       xlink:href="#linearGradient3650-2"
       gradientUnits="userSpaceOnUse"
       gradientTransform="matrix(0.21428571,0,0,0.21428571,14.714286,18.714286)" />
    <linearGradient
       x1="6"
       y1="48"
       x2="48"
       y2="81.071426"
       id="linearGradient3995"
       xlink:href="#linearGradient3650-2"
       gradientUnits="userSpaceOnUse"
       gradientTransform="matrix(-0.21428571,0,0,0.21428571,35.285714,18.714286)" />
    <linearGradient
       x1="16"
       y1="46"
       x2="80"
       y2="46"
       id="linearGradient3997"
       xlink:href="#linearGradient3622"
       gradientUnits="userSpaceOnUse"
       gradientTransform="matrix(0.21874999,0,0,0.21874999,18.5,-35.0625)" />
    <linearGradient
       x1="25"
       y1="36"
       x2="25"
       y2="21.964331"
       id="linearGradient3999"
       xlink:href="#linearGradient3737-4"
       gradientUnits="userSpaceOnUse" />
    <linearGradient
       x1="63.535717"
       y1="90"
       x2="32.07143"
       y2="6"
       id="linearGradient4019"
       xlink:href="#linearGradient3825"
       gradientUnits="userSpaceOnUse"
       gradientTransform="matrix(0.21428571,0,0,0.21428571,14.714286,18.714286)" />
    <linearGradient
       x1="13.321428"
       y1="48"
       x2="48"
       y2="84.285713"
       id="linearGradient4021"
       xlink:href="#linearGradient3672"
       gradientUnits="userSpaceOnUse"
       gradientTransform="matrix(-0.21428571,0,0,-0.21428571,35.285714,39.285714)" />
    <linearGradient
       x1="13.321428"
       y1="48"
       x2="48"
       y2="84.285713"
       id="linearGradient4023"
       xlink:href="#linearGradient3672"
       gradientUnits="userSpaceOnUse"
       gradientTransform="matrix(0.21428571,0,0,-0.21428571,14.714286,39.285714)" />
    <linearGradient
       x1="6"
       y1="48"
       x2="48"
       y2="81.071426"
       id="linearGradient4025"
       xlink:href="#linearGradient3650-2"
       gradientUnits="userSpaceOnUse"
       gradientTransform="matrix(0.21428571,0,0,0.21428571,14.714286,18.714286)" />
    <linearGradient
       x1="6"
       y1="48"
       x2="48"
       y2="81.071426"
       id="linearGradient4027"
       xlink:href="#linearGradient3650-2"
       gradientUnits="userSpaceOnUse"
       gradientTransform="matrix(-0.21428571,0,0,0.21428571,35.285714,18.714286)" />
    <linearGradient
       x1="16"
       y1="46"
       x2="80"
       y2="46"
       id="linearGradient4029"
       xlink:href="#linearGradient3622"
       gradientUnits="userSpaceOnUse"
       gradientTransform="matrix(0.21874999,0,0,0.21874999,18.5,-35.0625)" />
    <linearGradient
       x1="25"
       y1="36"
       x2="25"
       y2="21.964331"
       id="linearGradient4031"
       xlink:href="#linearGradient3737-4"
       gradientUnits="userSpaceOnUse" />
    <linearGradient
       x1="63.535717"
       y1="90"
       x2="32.07143"
       y2="6"
       id="linearGradient4087"
       xlink:href="#linearGradient3825"
       gradientUnits="userSpaceOnUse"
       gradientTransform="matrix(0.21428571,0,0,0.21428571,14.714286,18.714286)" />
    <linearGradient
       x1="13.321428"
       y1="48"
       x2="48"
       y2="84.285713"
       id="linearGradient4089"
       xlink:href="#linearGradient3672"
       gradientUnits="userSpaceOnUse"
       gradientTransform="matrix(-0.21428571,0,0,-0.21428571,35.285714,39.285714)" />
    <linearGradient
       x1="13.321428"
       y1="48"
       x2="48"
       y2="84.285713"
       id="linearGradient4091"
       xlink:href="#linearGradient3672"
       gradientUnits="userSpaceOnUse"
       gradientTransform="matrix(0.21428571,0,0,-0.21428571,14.714286,39.285714)" />
    <linearGradient
       x1="6"
       y1="48"
       x2="48"
       y2="81.071426"
       id="linearGradient4093"
       xlink:href="#linearGradient3650-2"
       gradientUnits="userSpaceOnUse"
       gradientTransform="matrix(0.21428571,0,0,0.21428571,14.714286,18.714286)" />
    <linearGradient
       x1="6"
       y1="48"
       x2="48"
       y2="81.071426"
       id="linearGradient4095"
       xlink:href="#linearGradient3650-2"
       gradientUnits="userSpaceOnUse"
       gradientTransform="matrix(-0.21428571,0,0,0.21428571,35.285714,18.714286)" />
    <linearGradient
       x1="16"
       y1="46"
       x2="80"
       y2="46"
       id="linearGradient4097"
       xlink:href="#linearGradient3622"
       gradientUnits="userSpaceOnUse"
       gradientTransform="matrix(0.21874999,0,0,0.21874999,18.5,-35.0625)" />
    <linearGradient
       x1="25"
       y1="36"
       x2="25"
       y2="21.964331"
       id="linearGradient4099"
       xlink:href="#linearGradient3737-4"
       gradientUnits="userSpaceOnUse" />
    <linearGradient
       x1="63.535717"
       y1="90"
       x2="32.07143"
       y2="6"
       id="linearGradient4101"
       xlink:href="#linearGradient3825"
       gradientUnits="userSpaceOnUse"
       gradientTransform="matrix(0.21428571,0,0,0.21428571,14.714286,18.714286)" />
    <linearGradient
       x1="13.321428"
       y1="48"
       x2="48"
       y2="84.285713"
       id="linearGradient4103"
       xlink:href="#linearGradient3672"
       gradientUnits="userSpaceOnUse"
       gradientTransform="matrix(-0.21428571,0,0,-0.21428571,35.285714,39.285714)" />
    <linearGradient
       x1="13.321428"
       y1="48"
       x2="48"
       y2="84.285713"
       id="linearGradient4105"
       xlink:href="#linearGradient3672"
       gradientUnits="userSpaceOnUse"
       gradientTransform="matrix(0.21428571,0,0,-0.21428571,14.714286,39.285714)" />
    <linearGradient
       x1="6"
       y1="48"
       x2="48"
       y2="81.071426"
       id="linearGradient4107"
       xlink:href="#linearGradient3650-2"
       gradientUnits="userSpaceOnUse"
       gradientTransform="matrix(0.21428571,0,0,0.21428571,14.714286,18.714286)" />
    <linearGradient
       x1="6"
       y1="48"
       x2="48"
       y2="81.071426"
       id="linearGradient4109"
       xlink:href="#linearGradient3650-2"
       gradientUnits="userSpaceOnUse"
       gradientTransform="matrix(-0.21428571,0,0,0.21428571,35.285714,18.714286)" />
    <linearGradient
       x1="16"
       y1="46"
       x2="80"
       y2="46"
       id="linearGradient4111"
       xlink:href="#linearGradient3622"
       gradientUnits="userSpaceOnUse"
       gradientTransform="matrix(0.21874999,0,0,0.21874999,18.5,-35.0625)" />
    <linearGradient
       x1="25"
       y1="36"
       x2="25"
       y2="21.964331"
       id="linearGradient4113"
       xlink:href="#linearGradient3737-4"
       gradientUnits="userSpaceOnUse" />
    <linearGradient
       x1="63.535717"
       y1="90"
       x2="32.07143"
       y2="6"
       id="linearGradient4115"
       xlink:href="#linearGradient3825"
       gradientUnits="userSpaceOnUse"
       gradientTransform="matrix(0.21428571,0,0,0.21428571,14.714286,18.714286)" />
    <linearGradient
       x1="13.321428"
       y1="48"
       x2="48"
       y2="84.285713"
       id="linearGradient4117"
       xlink:href="#linearGradient3672"
       gradientUnits="userSpaceOnUse"
       gradientTransform="matrix(-0.21428571,0,0,-0.21428571,35.285714,39.285714)" />
    <linearGradient
       x1="13.321428"
       y1="48"
       x2="48"
       y2="84.285713"
       id="linearGradient4119"
       xlink:href="#linearGradient3672"
       gradientUnits="userSpaceOnUse"
       gradientTransform="matrix(0.21428571,0,0,-0.21428571,14.714286,39.285714)" />
    <linearGradient
       x1="6"
       y1="48"
       x2="48"
       y2="81.071426"
       id="linearGradient4121"
       xlink:href="#linearGradient3650-2"
       gradientUnits="userSpaceOnUse"
       gradientTransform="matrix(0.21428571,0,0,0.21428571,14.714286,18.714286)" />
    <linearGradient
       x1="6"
       y1="48"
       x2="48"
       y2="81.071426"
       id="linearGradient4123"
       xlink:href="#linearGradient3650-2"
       gradientUnits="userSpaceOnUse"
       gradientTransform="matrix(-0.21428571,0,0,0.21428571,35.285714,18.714286)" />
    <linearGradient
       x1="16"
       y1="46"
       x2="80"
       y2="46"
       id="linearGradient4125"
       xlink:href="#linearGradient3622"
       gradientUnits="userSpaceOnUse"
       gradientTransform="matrix(0.21874999,0,0,0.21874999,18.5,-35.0625)" />
    <linearGradient
       x1="25"
       y1="36"
       x2="25"
       y2="21.964331"
       id="linearGradient4127"
       xlink:href="#linearGradient3737-4"
       gradientUnits="userSpaceOnUse" />
    <linearGradient
       x1="63.535717"
       y1="90"
       x2="32.07143"
       y2="6"
       id="linearGradient4147"
       xlink:href="#linearGradient3825"
       gradientUnits="userSpaceOnUse"
       gradientTransform="matrix(0.21428571,0,0,0.21428571,14.714286,18.714286)" />
    <linearGradient
       x1="13.321428"
       y1="48"
       x2="48"
       y2="84.285713"
       id="linearGradient4149"
       xlink:href="#linearGradient3672"
       gradientUnits="userSpaceOnUse"
       gradientTransform="matrix(-0.21428571,0,0,-0.21428571,35.285714,39.285714)" />
    <linearGradient
       x1="13.321428"
       y1="48"
       x2="48"
       y2="84.285713"
       id="linearGradient4151"
       xlink:href="#linearGradient3672"
       gradientUnits="userSpaceOnUse"
       gradientTransform="matrix(0.21428571,0,0,-0.21428571,14.714286,39.285714)" />
    <linearGradient
       x1="6"
       y1="48"
       x2="48"
       y2="81.071426"
       id="linearGradient4153"
       xlink:href="#linearGradient3650-2"
       gradientUnits="userSpaceOnUse"
       gradientTransform="matrix(0.21428571,0,0,0.21428571,14.714286,18.714286)" />
    <linearGradient
       x1="6"
       y1="48"
       x2="48"
       y2="81.071426"
       id="linearGradient4155"
       xlink:href="#linearGradient3650-2"
       gradientUnits="userSpaceOnUse"
       gradientTransform="matrix(-0.21428571,0,0,0.21428571,35.285714,18.714286)" />
    <linearGradient
       x1="16"
       y1="46"
       x2="80"
       y2="46"
       id="linearGradient4157"
       xlink:href="#linearGradient3622"
       gradientUnits="userSpaceOnUse"
       gradientTransform="matrix(0.21874999,0,0,0.21874999,18.5,-35.0625)" />
    <linearGradient
       x1="25"
       y1="36"
       x2="25"
       y2="21.964331"
       id="linearGradient4159"
       xlink:href="#linearGradient3737-4"
       gradientUnits="userSpaceOnUse" />
    <linearGradient
       x1="25"
       y1="36"
       x2="25"
       y2="21.964331"
       id="linearGradient4195"
       xlink:href="#linearGradient3737-4"
       gradientUnits="userSpaceOnUse"
       gradientTransform="translate(2,40)" />
    <linearGradient
       x1="16"
       y1="46"
       x2="80"
       y2="46"
       id="linearGradient4198"
       xlink:href="#linearGradient3622"
       gradientUnits="userSpaceOnUse"
       gradientTransform="matrix(0.21874999,0,0,0.21874999,58.5,-37.0625)" />
    <linearGradient
       x1="6"
       y1="48"
       x2="48"
       y2="81.071426"
       id="linearGradient4201"
       xlink:href="#linearGradient3650-2"
       gradientUnits="userSpaceOnUse"
       gradientTransform="matrix(-0.21428571,0,0,0.21428571,57.285714,58.714286)" />
    <linearGradient
       x1="6"
       y1="48"
       x2="48"
       y2="81.071426"
       id="linearGradient4204"
       xlink:href="#linearGradient3650-2"
       gradientUnits="userSpaceOnUse"
       gradientTransform="matrix(0.21428571,0,0,0.21428571,16.714286,58.714286)" />
    <linearGradient
       x1="13.321428"
       y1="48"
       x2="48"
       y2="84.285713"
       id="linearGradient4207"
       xlink:href="#linearGradient3672"
       gradientUnits="userSpaceOnUse"
       gradientTransform="matrix(0.21428571,0,0,-0.21428571,16.714286,79.285714)" />
    <linearGradient
       x1="13.321428"
       y1="48"
       x2="48"
       y2="84.285713"
       id="linearGradient4210"
       xlink:href="#linearGradient3672"
       gradientUnits="userSpaceOnUse"
       gradientTransform="matrix(-0.21428571,0,0,-0.21428571,57.285714,79.285714)" />
    <linearGradient
       x1="63.535717"
       y1="90"
       x2="32.07143"
       y2="6"
       id="linearGradient4213"
       xlink:href="#linearGradient3825"
       gradientUnits="userSpaceOnUse"
       gradientTransform="matrix(0.21428571,0,0,0.21428571,16.714286,58.714286)" />
    <linearGradient
       x1="45.447727"
       y1="92.539597"
       x2="45.447727"
       y2="7.0165396"
       id="ButtonShadow-0"
       gradientUnits="userSpaceOnUse"
       gradientTransform="matrix(1.0058652,0,0,0.994169,100,0)">
      <stop
         id="stop3750-8"
         style="stop-color:#000000;stop-opacity:1"
         offset="0" />
      <stop
         id="stop3752-5"
         style="stop-color:#000000;stop-opacity:0.58823532"
         offset="1" />
    </linearGradient>
    <linearGradient
       x1="32.251034"
       y1="6.1317081"
       x2="32.251034"
       y2="90.238609"
       id="linearGradient3780"
       xlink:href="#ButtonShadow-0"
       gradientUnits="userSpaceOnUse"
       gradientTransform="matrix(1.0238095,0,0,1.0119048,-1.1428571,-98.071429)" />
    <linearGradient
       x1="32.251034"
       y1="6.1317081"
       x2="32.251034"
       y2="90.238609"
       id="linearGradient3772"
       xlink:href="#ButtonShadow-0"
       gradientUnits="userSpaceOnUse"
       gradientTransform="matrix(1.0238095,0,0,1.0119048,-1.1428571,-98.071429)" />
    <linearGradient
       x1="32.251034"
       y1="6.1317081"
       x2="32.251034"
       y2="90.238609"
       id="linearGradient3725"
       xlink:href="#ButtonShadow-0"
       gradientUnits="userSpaceOnUse"
       gradientTransform="matrix(1.0238095,0,0,1.0119048,-1.1428571,-98.071429)" />
    <linearGradient
       x1="32.251034"
       y1="6.1317081"
       x2="32.251034"
       y2="90.238609"
       id="linearGradient3721"
       xlink:href="#ButtonShadow-0"
       gradientUnits="userSpaceOnUse"
       gradientTransform="translate(0,-97)" />
    <linearGradient
       x1="32.251034"
       y1="6.1317081"
       x2="32.251034"
       y2="90.238609"
       id="linearGradient2918"
       xlink:href="#ButtonShadow-0"
       gradientUnits="userSpaceOnUse"
       gradientTransform="matrix(1.0238095,0,0,1.0119048,-1.1428571,-98.071429)" />
    <linearGradient
       x1="72"
       y1="50"
       x2="72"
       y2="14"
       id="linearGradient3947"
       xlink:href="#linearGradient3941"
       gradientUnits="userSpaceOnUse"
       gradientTransform="translate(-20,-4)" />
    <linearGradient
       inkscape:collect="always"
       xlink:href="#linearGradient3737-4"
       id="linearGradient4005"
       gradientUnits="userSpaceOnUse"
       gradientTransform="translate(-102.1356,91.254238)"
       x1="25"
       y1="36"
       x2="25"
       y2="21.964331" />
  </defs>
  <metadata
     id="metadata2413">
    <rdf:RDF>
      <cc:Work
         rdf:about="">
        <dc:format>image/svg+xml</dc:format>
        <dc:type
           rdf:resource="http://purl.org/dc/dcmitype/StillImage" />
        <dc:title />
      </cc:Work>
    </rdf:RDF>
  </metadata>
  <rect
     style="fill:#51c200;fill-opacity:1;fill-rule:nonzero;stroke:#ffffff;stroke-width:0.72029674;stroke-opacity:1"
     id="rect4123"
     transform="matrix(0,1,-1,0,0,0)"
     y="-65.824081"
     x="75.800461"
     ry="0.91674131"
     rx="0.91674131"
     height="10.084154"
     width="10.084154" />
  <g
     id="layer2"
     style="display:none">
    <rect
       width="86"
       height="85"
       rx="6"
       ry="6"
       x="5"
       y="7"
       id="rect3745"
       style="opacity:0.9;fill:url(#ButtonShadow);fill-opacity:1;fill-rule:nonzero;stroke:none;filter:url(#filter3174)" />
  </g>
  <g
     id="layer5"
     style="display:none">
    <rect
       width="66"
       height="66"
       rx="12"
       ry="12"
       x="15"
       y="15"
       clip-path="url(#clipPath3613)"
       id="rect3171"
       style="opacity:0.5;fill:url(#linearGradient3613);fill-opacity:1;fill-rule:nonzero;stroke:#ffffff;stroke-width:0.5;stroke-linecap:round;stroke-linejoin:miter;stroke-miterlimit:4;stroke-opacity:1;stroke-dasharray:none;stroke-dashoffset:0;filter:url(#filter3794)" />
  </g>
  <rect
     style="fill:#51c200;fill-opacity:1;stroke:none"
     id="rect3214"
     width="96"
     height="96"
     x="0"
     y="-9.5367432e-07"
     rx="0"
     ry="0" />
  <path
     style="color:#000000;fill:#ffffff;fill-opacity:1;fill-rule:nonzero;stroke:none;stroke-width:1;marker:none;visibility:visible;display:inline;overflow:visible;enable-background:accumulate"
     id="rect3914"
     inkscape:connector-curvature="0"
     d="m 37.470589,41.04287 c -1.284198,0 -2.318046,1.033849 -2.318046,2.318044 l 0,12.362911 c 0,1.284197 1.033848,2.318046 2.318046,2.318046 l 2.318046,0 0,0.772682 0,0.772682 0,11.590229 0,0.772682 -0.772682,0 c -1.284198,0 -2.318046,1.033848 -2.318046,2.318046 l 0,12.362911 c 0,1.284198 1.033848,2.318046 2.318046,2.318046 l 43.270189,0 c 1.284198,0 2.318046,-1.033848 2.318046,-2.318046 l 0,-12.362911 0,-0.772682 0.772682,0 c 1.284197,0 2.318046,-1.033849 2.318046,-2.318046 l 0,-12.362911 c 0,-1.284198 -1.033849,-2.318046 -2.318046,-2.318046 l -2.318046,0 0,-0.772682 0,-0.772682 0,-11.590229 c 0,-1.284195 -1.033848,-2.318044 -2.318046,-2.318044 l -43.270189,0 z" />
  <path
     style="fill:#51c200;fill-opacity:1;fill-rule:nonzero;stroke:none"
     id="rect4173"
     inkscape:connector-curvature="0"
     d="m 67.002753,75.167079 0,11.036608 c 0,0.679364 -0.475335,1.226293 -1.065774,1.226293 l -26.339816,0 c -0.590438,0 -1.065776,-0.546919 -1.065776,-1.226293 l 0,-11.036608 c 0,-0.679364 0.475338,-1.226293 1.065776,-1.226293 l 26.339816,0 c 0.590439,0 1.065774,0.546929 1.065774,1.226293 z" />
  <rect
     width="13.908276"
     height="13.908276"
     rx="0.9934482"
     ry="0.9934482"
     x="69.150543"
     y="73.652672"
     id="rect4131"
     style="fill:#51c200;fill-opacity:1;fill-rule:nonzero;stroke:none" />
  <rect
     style="fill:#51c200;fill-opacity:1;fill-rule:nonzero;stroke:none"
     id="rect4099"
     y="58.094257"
     x="72.136505"
     ry="0.9934482"
     rx="0.9934482"
     height="13.908276"
     width="13.908276" />
  <rect
     width="13.908276"
     height="13.908276"
     rx="0.9934482"
     ry="0.9934482"
     x="56.735252"
     y="58.094257"
     id="rect4101"
     style="fill:#51c200;fill-opacity:1;fill-rule:nonzero;stroke:none" />
  <rect
     style="fill:#51c200;fill-opacity:1;fill-rule:nonzero;stroke:none"
     id="rect4103"
     y="58.094257"
     x="41.333996"
     ry="0.9934482"
     rx="0.9934482"
     height="13.908276"
     width="13.908276" />
  <rect
     width="13.908276"
     height="13.908276"
     rx="0.9934482"
     ry="0.9934482"
     x="67.893303"
     y="42.535851"
     id="rect4105"
     style="fill:#51c200;fill-opacity:1;fill-rule:nonzero;stroke:none" />
  <rect
     style="fill:#51c200;fill-opacity:1;fill-rule:nonzero;stroke:none"
     id="rect4107"
     y="42.535851"
     x="52.49205"
     ry="0.9934482"
     rx="0.9934482"
     height="13.908276"
     width="13.908276" />
  <rect
     width="13.908276"
     height="13.908276"
     rx="0.9934482"
     ry="0.9934482"
     x="37.090794"
     y="42.535851"
     id="rect4109"
     style="fill:#51c200;fill-opacity:1;fill-rule:nonzero;stroke:none" />
  <rect
     width="10.084154"
     height="10.084154"
     rx="0.91674131"
     ry="0.91674131"
     x="44.369331"
     y="-79.968094"
     transform="matrix(0,1,-1,0,0,0)"
     id="rect4141"
     style="fill:#ffffff;fill-opacity:1;fill-rule:nonzero;stroke:#ffffff;stroke-width:0.72029673999999999;stroke-opacity:1" />
  <rect
     style="fill:#ffffff;fill-opacity:1;fill-rule:nonzero;stroke:#ffffff;stroke-width:0.72029673999999999;stroke-opacity:1"
     id="rect4111"
     transform="matrix(0,1,-1,0,0,0)"
     y="-64.566833"
     x="44.369331"
     ry="0.91674131"
     rx="0.91674131"
     height="10.084154"
     width="10.084154" />
  <rect
     width="10.084154"
     height="10.084154"
     rx="0.91674131"
     ry="0.91674131"
     x="44.369331"
     y="-49.165581"
     transform="matrix(0,1,-1,0,0,0)"
     id="rect4113"
     style="fill:#ffffff;fill-opacity:1;fill-rule:nonzero;stroke:#ffffff;stroke-width:0.72029673999999999;stroke-opacity:1" />
  <rect
     style="fill:#ffffff;fill-opacity:1;fill-rule:nonzero;stroke:#ffffff;stroke-width:0.72029673999999999;stroke-opacity:1"
     id="rect4115"
     transform="matrix(0,1,-1,0,0,0)"
     y="-84.211288"
     x="60.24205"
     ry="0.91674131"
     rx="0.91674131"
     height="10.084154"
     width="10.084154" />
  <rect
     width="10.084154"
     height="10.084154"
     rx="0.91674131"
     ry="0.91674131"
     x="60.24205"
     y="-68.810036"
     transform="matrix(0,1,-1,0,0,0)"
     id="rect4117"
     style="fill:#ffffff;fill-opacity:1;fill-rule:nonzero;stroke:#ffffff;stroke-width:0.72029673999999999;stroke-opacity:1" />
  <rect
     style="fill:#ffffff;fill-opacity:1;fill-rule:nonzero;stroke:#ffffff;stroke-width:0.72029673999999999;stroke-opacity:1"
     id="rect4119"
     transform="matrix(0,1,-1,0,0,0)"
     y="-53.408783"
     x="60.24205"
     ry="0.91674131"
     rx="0.91674131"
     height="10.084154"
     width="10.084154" />
  <rect
     width="10.084154"
     height="10.084154"
     rx="0.91674131"
     ry="0.91674131"
     x="75.800461"
     y="-81.225334"
     transform="matrix(0,1,-1,0,0,0)"
     id="rect4121"
     style="fill:#ffffff;fill-opacity:1;fill-rule:nonzero;stroke:#ffffff;stroke-width:0.72029673999999999;stroke-opacity:1" />
  <rect
     width="9.7135162"
     height="24.014681"
     rx="0.88304698"
     ry="1.3973761"
     x="75.985779"
     y="-64.538666"
     transform="matrix(0,1,-1,0,0,0)"
     id="rect4125"
     style="fill:#ffffff;fill-opacity:1;fill-rule:nonzero;stroke:#ffffff;stroke-width:0.70468593000000002;stroke-miterlimit:4;stroke-opacity:1;stroke-dasharray:none" />
  <g
     style="font-size:10px;font-style:normal;font-variant:normal;font-weight:normal;font-stretch:normal;text-align:center;line-height:125%;writing-mode:lr-tb;text-anchor:middle;fill:#51c200;fill-opacity:1;stroke:none;font-family:Liberation Sans;-inkscape-font-specification:Liberation Sans"
     id="text4232"
     transform="matrix(0.77268195,0,0,0.77268195,23.928213,27.042126)">
    <path
       id="path4316"
       inkscape:connector-curvature="0"
       d="m 27.363281,32.439941 -0.786133,-2.011718 -3.134765,0 -0.791016,2.011718 -0.966797,0 2.807617,-6.879882 1.059571,0 2.763672,6.879882 -0.952149,0 m -1.948242,-5.009765 c -0.05209,-0.130203 -0.102543,-0.262039 -0.151367,-0.395508 -0.04558,-0.133458 -0.08627,-0.253901 -0.12207,-0.361328 -0.03581,-0.110671 -0.06674,-0.201817 -0.09277,-0.273438 -0.02279,-0.07486 -0.03581,-0.120436 -0.03906,-0.136718 -0.0065,0.01628 -0.02116,0.06186 -0.04395,0.136718 -0.02279,0.07488 -0.05371,0.167649 -0.09277,0.278321 -0.03581,0.110682 -0.07813,0.232753 -0.126953,0.366211 -0.04558,0.133468 -0.09278,0.265304 -0.141602,0.395507 l -0.878906,2.260743 2.573242,0 -0.883789,-2.270508"
       style="fill:#51c200;fill-opacity:1" />
  </g>
  <g
     style="font-size:10px;font-style:normal;font-variant:normal;font-weight:normal;font-stretch:normal;text-align:center;line-height:125%;writing-mode:lr-tb;text-anchor:middle;fill:#51c200;fill-opacity:1;stroke:none;font-family:Liberation Sans;-inkscape-font-specification:Liberation Sans"
     id="text4254"
     transform="matrix(0.77268195,0,0,0.77268195,23.928213,27.042126)">
    <path
       id="path4313"
       inkscape:connector-curvature="0"
       d="m 47.744141,32.439941 -5.478516,0 0,-0.698242 4.189453,-5.419922 -3.833008,0 0,-0.761718 4.892578,0 0,0.678711 -4.189453,5.439453 4.418946,0 0,0.761718"
       style="fill:#51c200;fill-opacity:1" />
  </g>
  <g
     style="font-size:10px;font-style:normal;font-variant:normal;font-weight:normal;font-stretch:normal;text-align:center;line-height:125%;writing-mode:lr-tb;text-anchor:middle;fill:#51c200;fill-opacity:1;stroke:none;font-family:Liberation Sans;-inkscape-font-specification:Liberation Sans"
     id="text4258"
     transform="matrix(0.77268195,0,0,0.77268195,23.928213,27.042126)">
    <path
       id="path4310"
       inkscape:connector-curvature="0"
       d="m 62.485352,32.439941 0,-6.879882 5.219726,0 0,0.761718 -4.287109,0 0,2.207032 3.99414,0 0,0.751953 -3.99414,0 0,2.397461 4.487304,0 0,0.761718 -5.419921,0"
       style="fill:#51c200;fill-opacity:1" />
  </g>
  <g
     style="font-size:10px;font-style:normal;font-variant:normal;font-weight:normal;font-stretch:normal;text-align:center;line-height:125%;writing-mode:lr-tb;text-anchor:middle;fill:#51c200;fill-opacity:1;stroke:none;font-family:Liberation Sans;-inkscape-font-specification:Liberation Sans"
     id="text4262"
     transform="matrix(0.77268195,0,0,0.77268195,24.020682,27.227064)">
    <path
       id="path4307"
       inkscape:connector-curvature="0"
       d="m 34.417969,48.968262 c -8e-6,0.485029 -0.06348,0.929364 -0.19043,1.333008 -0.123705,0.400392 -0.304369,0.751954 -0.541992,1.054687 -0.234381,0.302735 -0.524095,0.550131 -0.869141,0.742188 -0.341802,0.188802 -0.730799,0.3125 -1.166992,0.371093 0.06836,0.208333 0.144852,0.385742 0.229492,0.532227 0.08789,0.146484 0.18717,0.265298 0.297852,0.356445 0.110672,0.0944 0.232742,0.162759 0.366211,0.205078 0.136713,0.04557 0.28808,0.06836 0.454101,0.06836 0.09114,-2e-6 0.188796,-0.0065 0.292969,-0.01953 0.10416,-0.01302 0.193679,-0.02767 0.268555,-0.04395 l 0,0.654297 c -0.123704,0.02929 -0.260423,0.05371 -0.410157,0.07324 -0.14649,0.02279 -0.299484,0.03418 -0.458984,0.03418 -0.279953,-2e-6 -0.524093,-0.04232 -0.732422,-0.126953 C 31.748693,54.121255 31.564774,54.00244 31.405273,53.846191 31.249019,53.693195 31.113928,53.504393 31,53.279785 c -0.113936,-0.22461 -0.214847,-0.478516 -0.302734,-0.761719 -0.514326,-0.02604 -0.9668,-0.131835 -1.357422,-0.317382 -0.387372,-0.188802 -0.711265,-0.439453 -0.97168,-0.751954 -0.257162,-0.315753 -0.450847,-0.683592 -0.581055,-1.103515 -0.130208,-0.423175 -0.195313,-0.882159 -0.195312,-1.376953 -1e-6,-0.537106 0.07487,-1.022131 0.224609,-1.455078 0.149739,-0.432938 0.369465,-0.800776 0.65918,-1.103516 0.289712,-0.305983 0.646157,-0.540358 1.069336,-0.703125 0.426429,-0.166009 0.91471,-0.249016 1.464844,-0.249023 0.54687,7e-6 1.031896,0.08301 1.455078,0.249023 0.426426,0.166022 0.782871,0.402025 1.069336,0.708008 0.289707,0.305995 0.509433,0.675461 0.659179,1.108398 0.149733,0.432947 0.224602,0.914718 0.22461,1.445313 m -0.952149,0 c -6e-6,-0.413408 -0.05372,-0.789384 -0.161133,-1.12793 -0.104172,-0.338537 -0.260422,-0.62825 -0.46875,-0.869141 -0.205083,-0.240879 -0.460617,-0.426426 -0.766601,-0.55664 -0.305994,-0.130202 -0.659184,-0.195306 -1.05957,-0.195313 -0.41016,7e-6 -0.76986,0.06511 -1.079102,0.195313 -0.309247,0.130214 -0.568036,0.315761 -0.776367,0.55664 -0.20508,0.240891 -0.359702,0.530604 -0.463867,0.869141 -0.100913,0.338546 -0.151369,0.714522 -0.151368,1.12793 -1e-6,0.413414 0.05208,0.792646 0.15625,1.137695 0.107421,0.341799 0.263671,0.638023 0.46875,0.888672 0.208332,0.247397 0.465493,0.441082 0.771485,0.581055 0.309242,0.136719 0.664059,0.205078 1.064453,0.205078 0.429683,0 0.799149,-0.06999 1.108398,-0.209961 0.312495,-0.139973 0.568029,-0.333658 0.766602,-0.581055 0.201817,-0.250649 0.349929,-0.548501 0.444336,-0.893555 0.09765,-0.345049 0.146478,-0.721025 0.146484,-1.127929"
       style="fill:#51c200;fill-opacity:1" />
  </g>
  <g
     style="font-size:10px;font-style:normal;font-variant:normal;font-weight:normal;font-stretch:normal;text-align:center;line-height:125%;writing-mode:lr-tb;text-anchor:middle;fill:#51c200;fill-opacity:1;stroke:none;font-family:Liberation Sans;-inkscape-font-specification:Liberation Sans"
     id="text4266"
     transform="matrix(0.77268195,0,0,0.77268195,24.020682,27.227064)">
    <path
       id="path4304"
       inkscape:connector-curvature="0"
       d="m 53.875977,50.540527 c -7e-6,0.289715 -0.05697,0.556642 -0.170899,0.800782 -0.110683,0.244141 -0.283209,0.455729 -0.517578,0.634765 -0.23438,0.175782 -0.530604,0.314128 -0.888672,0.415039 -0.354822,0.09766 -0.776371,0.146485 -1.264648,0.146485 -0.856123,0 -1.52344,-0.14974 -2.001953,-0.449219 C 48.55371,51.7889 48.249348,51.355958 48.119141,50.789551 l 0.90332,-0.180664 c 0.04557,0.179038 0.115558,0.341798 0.209961,0.488281 0.0944,0.146486 0.221352,0.273439 0.380859,0.380859 0.162759,0.104168 0.362954,0.185548 0.600586,0.244141 0.237628,0.05859 0.522458,0.08789 0.854492,0.08789 0.276689,0 0.530595,-0.02279 0.761719,-0.06836 0.231116,-0.04883 0.429683,-0.122069 0.595703,-0.219726 0.166011,-0.09766 0.294592,-0.222981 0.385742,-0.375977 0.0944,-0.156248 0.141597,-0.341795 0.141602,-0.556641 -5e-6,-0.224607 -0.05209,-0.406898 -0.15625,-0.546875 -0.100916,-0.139971 -0.244146,-0.255531 -0.429688,-0.346679 -0.185551,-0.09114 -0.406905,-0.167641 -0.664062,-0.229492 -0.257165,-0.06185 -0.541996,-0.128578 -0.854492,-0.200196 -0.19206,-0.04231 -0.385745,-0.08789 -0.581055,-0.136718 -0.19206,-0.05208 -0.377606,-0.112302 -0.556641,-0.180665 -0.175783,-0.07161 -0.341798,-0.154618 -0.498046,-0.249023 -0.156252,-0.0944 -0.291343,-0.206702 -0.405274,-0.336914 -0.113933,-0.133459 -0.203451,-0.286454 -0.268555,-0.458984 -0.0651,-0.175777 -0.09766,-0.3776 -0.09766,-0.605469 -10e-7,-0.325516 0.0651,-0.603836 0.195313,-0.834961 0.133462,-0.234369 0.317381,-0.426426 0.551758,-0.576172 0.234373,-0.149733 0.511065,-0.258782 0.830078,-0.327148 0.319007,-0.06835 0.664059,-0.102532 1.035156,-0.102539 0.426428,7e-6 0.791011,0.03419 1.09375,0.102539 0.30273,0.06511 0.558263,0.164394 0.766601,0.297851 0.208328,0.13347 0.374344,0.299486 0.498047,0.498047 0.126948,0.195318 0.227859,0.423183 0.302735,0.683594 l -0.917969,0.161133 c -0.04558,-0.166011 -0.11231,-0.314122 -0.200195,-0.444336 -0.08464,-0.130203 -0.196945,-0.239252 -0.336914,-0.327149 -0.139979,-0.08788 -0.310877,-0.154616 -0.512696,-0.200195 -0.198571,-0.04557 -0.432946,-0.06835 -0.703125,-0.06836 -0.319013,6e-6 -0.587568,0.0293 -0.805664,0.08789 -0.214846,0.05535 -0.388999,0.131842 -0.522461,0.229492 -0.13021,0.09766 -0.224611,0.213222 -0.283203,0.34668 -0.05534,0.130214 -0.08301,0.271815 -0.08301,0.424805 -1e-6,0.205083 0.05045,0.374353 0.151368,0.507812 0.104164,0.130213 0.244138,0.239262 0.419921,0.327149 0.175779,0.08789 0.37923,0.161137 0.610352,0.219726 0.231117,0.0586 0.476885,0.117192 0.737305,0.175781 0.211584,0.04883 0.421545,0.09929 0.629882,0.151368 0.211585,0.04883 0.413407,0.109053 0.605469,0.180664 0.192053,0.06836 0.371089,0.149743 0.53711,0.24414 0.169265,0.09441 0.315749,0.209964 0.439453,0.34668 0.123692,0.136722 0.21972,0.297854 0.288086,0.483398 0.07161,0.18555 0.107415,0.403648 0.107422,0.654297"
       style="fill:#51c200;fill-opacity:1" />
  </g>
  <g
     style="font-size:10px;font-style:normal;font-variant:normal;font-weight:normal;font-stretch:normal;text-align:center;line-height:125%;writing-mode:lr-tb;text-anchor:middle;fill:#51c200;fill-opacity:1;stroke:none;font-family:Liberation Sans;-inkscape-font-specification:Liberation Sans"
     id="text4270"
     transform="matrix(0.77268195,0,0,0.77268195,24.020682,27.227064)">
    <path
       id="path4301"
       inkscape:connector-curvature="0"
       d="m 74.134766,48.929199 c -7e-6,0.57292 -0.08627,1.079104 -0.258789,1.518555 -0.172533,0.436199 -0.408535,0.80241 -0.708008,1.098633 -0.299485,0.292969 -0.654302,0.515951 -1.064453,0.668945 -0.406906,0.14974 -0.846358,0.224609 -1.31836,0.224609 l -2.573242,0 0,-6.879882 2.275391,0 c 0.530595,6e-6 1.018876,0.06674 1.464843,0.200195 0.449214,0.130215 0.834956,0.333665 1.157227,0.610351 0.32226,0.273444 0.57291,0.621751 0.751953,1.044922 0.182285,0.423182 0.273431,0.927739 0.273438,1.513672 m -0.9375,0 c -6e-6,-0.465491 -0.06674,-0.862626 -0.200196,-1.191406 -0.133469,-0.332026 -0.320643,-0.603836 -0.561523,-0.81543 -0.24089,-0.211583 -0.528976,-0.366205 -0.864258,-0.463867 -0.33529,-0.100905 -0.703128,-0.151361 -1.103516,-0.151367 l -1.323242,0 0,5.385742 1.533203,0 c 0.361325,1e-6 0.694983,-0.05859 1.000977,-0.175781 0.30924,-0.117187 0.576167,-0.29134 0.800781,-0.522461 0.224604,-0.231118 0.400385,-0.519204 0.527344,-0.864258 0.126947,-0.345049 0.190424,-0.74544 0.19043,-1.201172"
       style="fill:#51c200;fill-opacity:1" />
  </g>
  <path
     style="color:#000000;fill:#51c200;fill-opacity:1;fill-rule:nonzero;stroke:none;stroke-width:1;marker:none;visibility:visible;display:inline;overflow:visible;enable-background:accumulate"
     id="rect4274"
     inkscape:connector-curvature="0"
     d="m 75.697905,77.122392 -3.090728,3.09073 1.545364,0 0,3.09073 0,0.77268 3.090728,0 0,-0.77268 0,-3.09073 1.545364,0 -3.090728,-3.09073 z m 0,0.77268 1.545364,1.54537 -0.772682,0 0,0.77268 0,3.09073 -1.545364,0 0,-3.09073 0,-0.77268 -0.772682,0 1.545364,-1.54537 z" />
  <g
     style="font-size:10px;font-style:normal;font-variant:normal;font-weight:normal;font-stretch:normal;text-align:start;line-height:125%;writing-mode:lr-tb;text-anchor:start;fill:#51c200;fill-opacity:1;stroke:none;font-family:Liberation Sans;-inkscape-font-specification:Liberation Sans"
     id="text4236"
     transform="matrix(0.77268195,0,0,0.77268195,27.699949,27.356439)">
    <path
       id="path4292"
       inkscape:connector-curvature="0"
       d="m 27.166992,66.353516 c -0.390628,6e-6 -0.737308,0.06511 -1.040039,0.195312 -0.299482,0.130214 -0.55176,0.315761 -0.756836,0.556641 -0.201825,0.24089 -0.354819,0.530604 -0.458984,0.86914 -0.104168,0.338546 -0.156252,0.714522 -0.15625,1.12793 -2e-6,0.413415 0.05534,0.792646 0.166015,1.137695 0.113931,0.341799 0.275064,0.636395 0.483399,0.883789 0.211586,0.247397 0.468747,0.439455 0.771484,0.576172 0.305987,0.13672 0.649411,0.205079 1.030274,0.205078 0.266923,1e-6 0.509435,-0.03418 0.727539,-0.102539 0.221349,-0.07161 0.419917,-0.170897 0.595703,-0.297851 0.179031,-0.126952 0.338536,-0.276692 0.478515,-0.449219 0.139969,-0.175779 0.263666,-0.369464 0.371094,-0.581055 l 0.761719,0.38086 c -0.123705,0.257163 -0.276699,0.49642 -0.458984,0.717773 -0.182298,0.221355 -0.397142,0.413412 -0.644532,0.576172 -0.244146,0.162761 -0.522466,0.291341 -0.834961,0.385742 -0.309249,0.09115 -0.655928,0.136719 -1.040039,0.136719 -0.556644,0 -1.044924,-0.08789 -1.464843,-0.263672 -0.416669,-0.179036 -0.766604,-0.426432 -1.049805,-0.742187 -0.279949,-0.31901 -0.48991,-0.696613 -0.629883,-1.132813 -0.139974,-0.436195 -0.209961,-0.913083 -0.209961,-1.430664 0,-0.537105 0.07324,-1.022131 0.219727,-1.455078 0.149738,-0.432937 0.36621,-0.800776 0.649414,-1.103516 0.286456,-0.305983 0.638019,-0.540358 1.054687,-0.703125 0.416664,-0.166008 0.891924,-0.249016 1.425782,-0.249023 0.732417,7e-6 1.344395,0.143236 1.835937,0.429687 0.49153,0.286465 0.852858,0.711269 1.083984,1.274414 l -0.883789,0.292969 c -0.06511,-0.162755 -0.153,-0.317377 -0.263672,-0.463867 -0.110682,-0.149734 -0.249028,-0.28157 -0.415039,-0.395508 -0.16602,-0.113926 -0.361333,-0.205072 -0.585937,-0.273437 -0.221359,-0.06835 -0.475265,-0.102533 -0.761719,-0.102539"
       style="fill:#51c200;fill-opacity:1" />
    <path
       id="path4294"
       inkscape:connector-curvature="0"
       d="m 33.231445,72.535156 c -0.133466,0.03581 -0.270184,0.06348 -0.410156,0.08301 -0.136721,0.02279 -0.296226,0.03418 -0.478516,0.03418 -0.703126,0 -1.054688,-0.398763 -1.054687,-1.196289 l 0,-3.525391 -0.610352,0 0,-0.639648 0.644532,0 0.258789,-1.181641 0.585937,0 0,1.181641 0.976563,0 0,0.639648 -0.976563,0 0,3.334961 c -10e-7,0.253907 0.04069,0.432944 0.12207,0.537109 0.08463,0.100913 0.229491,0.151368 0.434571,0.151368 0.08463,0 0.166013,-0.0065 0.24414,-0.01953 0.08138,-0.01302 0.169269,-0.0293 0.263672,-0.04883 l 0,0.649414"
       style="fill:#51c200;fill-opacity:1" />
    <path
       id="path4296"
       inkscape:connector-curvature="0"
       d="m 33.993164,72.574219 0,-4.052735 c -10e-7,-0.110673 -0.0016,-0.222977 -0.0049,-0.336914 0,-0.117183 -0.0016,-0.229487 -0.0049,-0.336914 -0.0033,-0.107417 -0.0065,-0.208328 -0.0098,-0.302734 -0.0033,-0.0944 -0.0065,-0.179031 -0.0098,-0.253906 l 0.830078,0 c 0.0033,0.07488 0.0065,0.161138 0.0098,0.258789 0.0065,0.09441 0.01139,0.192062 0.01465,0.292968 0.0065,0.100917 0.0098,0.198573 0.0098,0.292969 0.0033,0.09115 0.0049,0.169275 0.0049,0.234375 l 0.01953,0 c 0.06185,-0.201818 0.126952,-0.375972 0.195313,-0.522461 0.07161,-0.149734 0.15462,-0.271805 0.249023,-0.366211 0.0944,-0.09765 0.206704,-0.169265 0.336914,-0.214843 0.130206,-0.04882 0.288083,-0.07324 0.473633,-0.07324 0.07161,6e-6 0.139971,0.0065 0.205078,0.01953 0.0651,0.0098 0.115557,0.01954 0.151367,0.0293 l 0,0.805665 c -0.0586,-0.01627 -0.126956,-0.02766 -0.205078,-0.03418 -0.07813,-0.0098 -0.166018,-0.01464 -0.263672,-0.01465 -0.201825,5e-6 -0.374351,0.04558 -0.517578,0.136719 -0.139976,0.09115 -0.255536,0.218103 -0.34668,0.38086 -0.08789,0.159509 -0.152996,0.351566 -0.195312,0.576171 -0.04232,0.221358 -0.06348,0.463871 -0.06348,0.727539 l 0,2.753907 -0.878906,0"
       style="fill:#51c200;fill-opacity:1" />
    <path
       id="path4298"
       inkscape:connector-curvature="0"
       d="m 37.313477,72.574219 0,-7.246094 0.878906,0 0,7.246094 -0.878906,0"
       style="fill:#51c200;fill-opacity:1" />
  </g>
  <path
     style="color:#000000;fill:#ffffff;fill-opacity:1;fill-rule:nonzero;stroke:none;stroke-width:1;marker:none;visibility:visible;display:inline;overflow:visible;enable-background:accumulate"
     id="rect3164"
     inkscape:connector-curvature="0"
     d="m 15.476212,7.1525421 c -1.151519,0 -2.078553,1.1842938 -2.078553,2.6553669 l 0,26.553672 -7.1264669,0 15.4406779,18.587571 15.440678,-18.587571 -7.126467,0 0,-26.553672 c 0,-1.4710731 -0.927034,-2.6553669 -2.078553,-2.6553669 l -12.471316,0 z" />
</svg>
