<?xml version="1.0" encoding="UTF-8" standalone="no"?>
<!-- Created with Inkscape (http://www.inkscape.org/) -->

<svg
   xmlns:dc="http://purl.org/dc/elements/1.1/"
   xmlns:cc="http://creativecommons.org/ns#"
   xmlns:rdf="http://www.w3.org/1999/02/22-rdf-syntax-ns#"
   xmlns:svg="http://www.w3.org/2000/svg"
   xmlns="http://www.w3.org/2000/svg"
   xmlns:xlink="http://www.w3.org/1999/xlink"
   xmlns:sodipodi="http://sodipodi.sourceforge.net/DTD/sodipodi-0.dtd"
   xmlns:inkscape="http://www.inkscape.org/namespaces/inkscape"
   version="1.0"
   width="96"
   height="96"
   id="svg2408"
   style="display:inline"
   inkscape:version="0.48.4 r9939"
   sodipodi:docname="jdownloader.svg">
  <sodipodi:namedview
     pagecolor="#ffffff"
     bordercolor="#666666"
     borderopacity="1"
     objecttolerance="10"
     gridtolerance="10"
     guidetolerance="10"
     inkscape:pageopacity="0"
     inkscape:pageshadow="2"
     inkscape:window-width="589"
     inkscape:window-height="392"
     id="namedview81"
     showgrid="false"
     inkscape:zoom="3.4766083"
     inkscape:cx="77.654614"
     inkscape:cy="55.642086"
     inkscape:window-x="335"
     inkscape:window-y="168"
     inkscape:window-maximized="0"
     inkscape:current-layer="svg2408" />
  <defs
     id="defs2410">
    <linearGradient
       id="linearGradient3095">
      <stop
         offset="0"
         style="stop-color:#f06805;stop-opacity:1"
         id="stop3097" />
      <stop
         offset="1"
         style="stop-color:#ffffff;stop-opacity:1"
         id="stop3099" />
    </linearGradient>
    <linearGradient
       id="linearGradient4161">
      <stop
         id="stop4163"
         style="stop-color:#737373;stop-opacity:1"
         offset="0" />
      <stop
         id="stop4165"
         style="stop-color:#989898;stop-opacity:1"
         offset="1" />
    </linearGradient>
    <linearGradient
       x1="45.447727"
       y1="92.539597"
       x2="45.447727"
       y2="7.0165396"
       id="ButtonShadow"
       gradientUnits="userSpaceOnUse"
       gradientTransform="scale(1.0058652,0.994169)">
      <stop
         id="stop3750"
         style="stop-color:#000000;stop-opacity:1"
         offset="0" />
      <stop
         id="stop3752"
         style="stop-color:#000000;stop-opacity:0.58823532"
         offset="1" />
    </linearGradient>
    <linearGradient
       id="linearGradient3700">
      <stop
         id="stop3702"
         style="stop-color:#b5b5b5;stop-opacity:1"
         offset="0" />
      <stop
         id="stop3704"
         style="stop-color:#dedede;stop-opacity:1"
         offset="1" />
    </linearGradient>
    <filter
       color-interpolation-filters="sRGB"
       id="filter3174">
      <feGaussianBlur
         id="feGaussianBlur3176"
         stdDeviation="1.71" />
    </filter>
    <linearGradient
       x1="45.447727"
       y1="92.539597"
       x2="45.447727"
       y2="7.0165396"
       id="ButtonShadow-0"
       gradientUnits="userSpaceOnUse"
       gradientTransform="matrix(1.0058652,0,0,0.994169,100,0)">
      <stop
         id="stop3750-8"
         style="stop-color:#000000;stop-opacity:1"
         offset="0" />
      <stop
         id="stop3752-5"
         style="stop-color:#000000;stop-opacity:0.58823532"
         offset="1" />
    </linearGradient>
    <linearGradient
       x1="32.251034"
       y1="6.1317081"
       x2="32.251034"
       y2="90.238609"
       id="linearGradient3780"
       xlink:href="#ButtonShadow-0"
       gradientUnits="userSpaceOnUse"
       gradientTransform="matrix(1.0238095,0,0,1.0119048,-1.1428571,-98.071429)" />
    <linearGradient
       x1="32.251034"
       y1="6.1317081"
       x2="32.251034"
       y2="90.238609"
       id="linearGradient3772"
       xlink:href="#ButtonShadow-0"
       gradientUnits="userSpaceOnUse"
       gradientTransform="matrix(1.0238095,0,0,1.0119048,-1.1428571,-98.071429)" />
    <linearGradient
       x1="32.251034"
       y1="6.1317081"
       x2="32.251034"
       y2="90.238609"
       id="linearGradient3725"
       xlink:href="#ButtonShadow-0"
       gradientUnits="userSpaceOnUse"
       gradientTransform="matrix(1.0238095,0,0,1.0119048,-1.1428571,-98.071429)" />
    <linearGradient
       x1="32.251034"
       y1="6.1317081"
       x2="32.251034"
       y2="90.238609"
       id="linearGradient3721"
       xlink:href="#ButtonShadow-0"
       gradientUnits="userSpaceOnUse"
       gradientTransform="translate(0,-97)" />
    <linearGradient
       x1="32.251034"
       y1="6.1317081"
       x2="32.251034"
       y2="90.238609"
       id="linearGradient3760"
       xlink:href="#ButtonShadow-0"
       gradientUnits="userSpaceOnUse"
       gradientTransform="matrix(1.0238095,0,0,1.0119048,-1.1428571,-98.071429)" />
    <linearGradient
       id="linearGradient3325">
      <stop
         id="stop3327"
         style="stop-color:#f06805;stop-opacity:1"
         offset="0" />
      <stop
         id="stop3329"
         style="stop-color:#ffb03c;stop-opacity:1"
         offset="1" />
    </linearGradient>
    <linearGradient
       x1="84.25"
       y1="128.9995"
       x2="84.25"
       y2="216.5005"
       id="color_3_"
       gradientUnits="userSpaceOnUse">
      <stop
         id="stop48"
         style="stop-color:#d8d8d8;stop-opacity:1"
         offset="0" />
      <stop
         id="stop50"
         style="stop-color:#f9f9f9;stop-opacity:1"
         offset="1" />
    </linearGradient>
    <linearGradient
       x1="36.357143"
       y1="6"
       x2="36.357143"
       y2="63.893143"
       id="linearGradient3923-0"
       xlink:href="#linearGradient3737-1-9"
       gradientUnits="userSpaceOnUse" />
    <linearGradient
       id="linearGradient3737-1-9">
      <stop
         id="stop3739-9-7"
         style="stop-color:#ffffff;stop-opacity:1"
         offset="0" />
      <stop
         id="stop3741-3-7"
         style="stop-color:#ffffff;stop-opacity:0"
         offset="1" />
    </linearGradient>
    <radialGradient
       cx="48"
       cy="90.171875"
       r="42"
       fx="48"
       fy="90.171875"
       id="radialGradient2886-8"
       xlink:href="#linearGradient3737-0-2"
       gradientUnits="userSpaceOnUse"
       gradientTransform="matrix(1.1573129,0,0,0.99590774,-7.551021,0.1971319)" />
    <linearGradient
       id="linearGradient3737-0-2">
      <stop
         id="stop3739-6-6"
         style="stop-color:#ffffff;stop-opacity:1"
         offset="0" />
      <stop
         id="stop3741-0-7"
         style="stop-color:#ffffff;stop-opacity:0"
         offset="1" />
    </linearGradient>
    <linearGradient
       id="linearGradient3737-9-3">
      <stop
         id="stop3739-2-0"
         style="stop-color:#ffffff;stop-opacity:1"
         offset="0" />
      <stop
         id="stop3741-1-9"
         style="stop-color:#ffffff;stop-opacity:0"
         offset="1" />
    </linearGradient>
    <clipPath
       id="clipPath3613-0">
      <rect
         width="84"
         height="84"
         rx="6"
         ry="6"
         x="6"
         y="6"
         id="rect3615-6"
         style="fill:#ffffff;fill-opacity:1;fill-rule:nonzero;stroke:none" />
    </clipPath>
    <filter
       x="-0.192"
       y="-0.192"
       width="1.3839999"
       height="1.3839999"
       color-interpolation-filters="sRGB"
       id="filter3794">
      <feGaussianBlur
         id="feGaussianBlur3796"
         stdDeviation="5.28" />
    </filter>
    <linearGradient
       x1="48"
       y1="20.220806"
       x2="48"
       y2="138.66119"
       id="linearGradient3121"
       xlink:href="#linearGradient3737-9-3"
       gradientUnits="userSpaceOnUse" />
    <linearGradient
       x1="64"
       y1="64"
       x2="64"
       y2="8"
       id="linearGradient4143"
       xlink:href="#color_3_"
       gradientUnits="userSpaceOnUse" />
    <linearGradient
       x1="24"
       y1="88"
       x2="24"
       y2="48"
       id="linearGradient4159"
       xlink:href="#linearGradient3700"
       gradientUnits="userSpaceOnUse" />
    <linearGradient
       x1="72"
       y1="88"
       x2="72"
       y2="48"
       id="linearGradient3999"
       xlink:href="#linearGradient4161"
       gradientUnits="userSpaceOnUse" />
    <linearGradient
       x1="24"
       y1="64"
       x2="24"
       y2="8"
       id="linearGradient4007"
       xlink:href="#linearGradient3325"
       gradientUnits="userSpaceOnUse" />
  </defs>
  <metadata
     id="metadata2413">
    <rdf:RDF>
      <cc:Work
         rdf:about="">
        <dc:format>image/svg+xml</dc:format>
        <dc:type
           rdf:resource="http://purl.org/dc/dcmitype/StillImage" />
        <dc:title />
      </cc:Work>
    </rdf:RDF>
  </metadata>
  <g
     id="layer2"
     style="display:none">
    <rect
       width="86"
       height="85"
       rx="6"
       ry="6"
       x="5"
       y="7"
       id="rect3745"
       style="opacity:0.9;fill:url(#ButtonShadow);fill-opacity:1;fill-rule:nonzero;stroke:none;filter:url(#filter3174)" />
  </g>
  <g
     id="layer3"
     style="display:none">
    <rect
       width="66"
       height="66"
       rx="12"
       ry="12"
       x="15"
       y="15"
       clip-path="url(#clipPath3613-0)"
       id="rect3171"
       style="opacity:0.5;fill:url(#linearGradient3121);fill-opacity:1;fill-rule:nonzero;stroke:#ffffff;stroke-width:0.5;stroke-linecap:round;stroke-linejoin:miter;stroke-miterlimit:4;stroke-opacity:1;stroke-dasharray:none;stroke-dashoffset:0;display:inline;filter:url(#filter3794)" />
  </g>
  <g
     id="layer4" />
  <rect
     style="fill:#21ae78;fill-opacity:1;stroke:none"
     id="rect3101"
     width="96"
     height="96"
     x="0"
     y="-3.5527137e-15" />
  <path
     style="fill:#ffffff;fill-opacity:1"
     d="m 72.534293,79.836986 c -0.554991,-0.380035 -2.437399,-1.724748 -4.183132,-2.988244 -1.745733,-1.263496 -3.286337,-2.297268 -3.423558,-2.297268 -0.20146,0 -0.21467,-0.04197 -0.0686,-0.218108 0.240668,-0.290185 0.198926,-0.340969 -1.09602,-1.333478 l -1.116612,-0.855825 -1.697472,0.811124 c -3.52517,1.684495 -5.72738,2.332053 -9.298939,2.734359 -2.672734,0.301062 -6.289553,0.20712 -8.938201,-0.232163 -2.163742,-0.358858 -3.941546,-0.853788 -3.813211,-1.061577 0.04887,-0.07914 0.171133,-0.143889 0.271681,-0.143889 0.676871,0 5.308114,-2.2526 8.349383,-4.061079 4.896379,-2.911598 8.382478,-5.558672 11.812868,-8.969775 2.05202,-2.040478 4.608195,-5.106285 5.216115,-6.256057 0.146567,-0.277201 0.106842,-0.718384 -0.215785,-2.396483 -0.450365,-2.342559 -0.828131,-3.988223 -1.262804,-5.501191 -0.308912,-1.075211 -0.394747,-1.780025 -0.138816,-1.139836 0.324928,0.812805 2.398706,8.986381 2.748043,10.831136 0.487252,2.573054 0.968962,5.592915 0.998531,6.259787 0.01277,0.28833 0.114102,1.127532 0.225157,1.864899 0.147942,0.982317 0.157107,1.368376 0.03429,1.444333 -0.09219,0.05701 -0.74783,0.150135 -1.456979,0.206932 -0.709142,0.05682 -2.632878,0.295698 -4.274964,0.53089 -1.642093,0.23519 -3.032104,0.398875 -3.088909,0.363741 -0.168248,-0.104053 -0.498847,0.381915 -0.347898,0.511392 0.07471,0.06408 0.641021,0.479728 1.258455,0.923635 0.617428,0.443901 2.16662,1.590268 3.442647,2.547468 1.27602,0.957207 2.970127,2.187403 3.764683,2.733768 1.333214,0.91678 7.826811,5.676254 8.108818,5.943357 0.06798,0.06439 -0.08414,0.189536 -0.338046,0.278108 -0.424031,0.147908 -0.543888,0.104716 -1.470727,-0.529956 z M 45.031803,79.199525 C 38.62787,78.676594 31.792296,76.033628 26.314501,71.962516 c -1.84142,-1.368554 -4.926135,-4.365013 -6.354978,-6.173168 -2.883961,-3.649552 -4.977528,-7.936774 -6.070754,-12.431732 -0.564623,-2.321526 -0.420162,-2.179608 0.304925,0.299556 1.627159,5.563488 4.015093,9.673646 8.164289,14.052549 5.780724,6.10076 14.581982,10.359496 22.823505,11.043789 2.16583,0.179834 5.170115,0.177772 6.537681,-0.0046 0.602805,-0.08034 1.399118,-0.179691 1.769572,-0.220793 0.938583,-0.10413 2.689845,-0.495391 4.168965,-0.931425 0.687604,-0.202703 1.284038,-0.334678 1.32541,-0.293278 0.09074,0.0908 -2.474534,0.894111 -3.889772,1.218082 -2.786368,0.637854 -7.041292,0.924529 -10.061541,0.677904 z M 29.275924,69.79948 c -0.94723,-0.638951 -3.01008,-2.426318 -4.444516,-3.850981 -2.377939,-2.361722 -3.986541,-4.616812 -5.628174,-7.890083 -2.13685,-4.260695 -3.052981,-8.150176 -3.029952,-12.863813 0.01588,-3.248183 0.233084,-4.644477 0.891248,-5.729079 0.287438,-0.473683 0.540686,-0.861234 0.562782,-0.861234 0.0221,0 0.03597,1.33117 0.03085,2.958154 -0.0058,1.938021 0.06164,3.319715 0.196437,4.00661 0.188452,0.960254 0.268097,1.105169 0.946705,1.722469 0.407515,0.370707 1.457063,1.482822 2.332321,2.471375 0.875258,0.988546 2.116829,2.351029 2.759042,3.027735 1.771951,1.867117 1.899094,2.372873 1.147329,4.563818 -0.874377,2.548285 -0.655203,3.049067 2.377252,5.431598 0.602513,0.473379 1.129582,0.949618 1.171258,1.058295 0.11683,0.304661 1.115251,0.915236 3.180934,1.945276 1.955729,0.975205 2.249545,1.205928 2.927006,2.298442 0.285202,0.459935 0.477432,0.627906 0.654632,0.572023 1.155508,-0.364422 3.632997,-1.365765 4.195746,-1.695825 0.382368,-0.224269 1.436135,-0.784585 2.341701,-1.245154 0.905566,-0.460575 2.084298,-1.133795 2.619403,-1.49605 1.418602,-0.960379 3.292968,-2.39889 3.292968,-2.527245 0,-0.06096 -0.972722,-0.563481 -2.161604,-1.116617 -2.463002,-1.145939 -2.83229,-1.199714 -4.156163,-0.605198 -1.073212,0.481947 -1.216144,0.374359 -1.075701,-0.809691 0.05114,-0.431001 0.05056,-0.952537 -0.0013,-1.158976 -0.124252,-0.495386 -0.94314,-0.902874 -2.595636,-1.291612 -1.450841,-0.341301 -1.608946,-0.446852 -2.052006,-1.369903 -0.235489,-0.490612 -0.401488,-0.64914 -0.717905,-0.685572 -0.258278,-0.02977 -0.557597,-0.238952 -0.803585,-0.56167 -0.416513,-0.546443 -0.707036,-0.621011 -1.323835,-0.339789 -0.328136,0.14961 -0.431653,0.128491 -0.725813,-0.148034 -0.188698,-0.177396 -0.689522,-0.388277 -1.112944,-0.468632 -0.423421,-0.08035 -1.026123,-0.262081 -1.339332,-0.403843 -0.384234,-0.173906 -0.863273,-0.244427 -1.472632,-0.21679 -1.082351,0.0491 -3.207962,-0.425352 -4.231836,-0.944533 -1.24638,-0.632011 -2.120588,-1.875628 -2.123673,-3.021061 -4.6e-4,-0.170676 0.104988,-0.621108 0.234334,-1.000953 0.313812,-0.9216 0.105942,-1.385626 -0.560928,-1.252165 -0.246312,0.04929 -0.653698,0.236313 -0.905306,0.415595 -0.448875,0.319839 -0.461572,0.320565 -0.675808,0.03865 -0.3672,-0.483192 -0.01627,-4.393078 0.445881,-4.967922 0.357957,-0.44523 3.464087,-0.0879 5.013682,0.57677 0.714625,0.30653 0.846979,0.545515 1.001979,1.809225 0.05814,0.473865 0.207216,0.936186 0.336549,1.043592 0.35215,0.292454 0.883619,-0.420208 1.101614,-1.477187 0.182657,-0.885615 0.618251,-1.895149 0.890328,-2.063412 0.288339,-0.178323 0.153931,0.763713 -0.15655,1.097191 -0.209127,0.224625 -0.276225,0.432557 -0.208486,0.646123 0.06935,0.218646 0.04686,0.282104 -0.07364,0.207594 -0.119274,-0.07377 -0.159388,0.02575 -0.128296,0.318243 0.02774,0.26116 -0.02165,0.412892 -0.127953,0.392766 -0.187596,-0.03554 -0.18803,0.219807 -6.48e-4,0.519584 0.0643,0.10297 0.08991,0.187221 0.05697,0.187221 -0.03299,0 -0.01342,0.306608 0.04336,0.681356 0.08187,0.53982 0.06138,0.665244 -0.09857,0.603816 -0.26041,-0.09999 -0.253643,0.03489 0.02897,0.577231 0.125969,0.241723 0.195847,0.526018 0.155298,0.63177 -0.04057,0.105753 -0.0082,0.232792 0.07185,0.282312 0.08007,0.04956 0.110589,0.146697 0.06782,0.215954 -0.125029,0.202431 0.08905,0.609964 0.263683,0.501962 0.09999,-0.06181 0.123792,-0.0058 0.06384,0.150641 -0.06358,0.165799 -0.0186,0.249239 0.13433,0.249239 0.161793,0 0.201759,0.08875 0.134895,0.299564 -0.05821,0.18348 -0.0269,0.299557 0.08077,0.299557 0.09668,0 0.138329,0.09767 0.09255,0.217043 -0.05354,0.139649 -0.01128,0.189415 0.118528,0.13957 0.110965,-0.04261 0.246222,-0.0051 0.30057,0.08252 0.05432,0.08799 0.02748,0.159995 -0.0597,0.159995 -0.08718,0 -0.158513,0.07138 -0.158513,0.158618 0,0.08724 0.06736,0.116967 0.149678,0.06606 0.08233,-0.05091 0.149686,0.01251 0.149686,0.140938 0,0.128434 0.117867,0.234543 0.26194,0.2358 0.223853,0.002 0.229292,0.02342 0.0374,0.14749 -0.123487,0.07985 -0.157165,0.154001 -0.07484,0.164761 0.08233,0.01076 0.23193,0.02867 0.33246,0.03976 0.100529,0.01109 0.38706,0.243681 0.636743,0.51686 0.345299,0.377791 0.529965,0.472549 0.771468,0.395847 0.202277,-0.06421 0.282752,-0.04456 0.221748,0.05423 -0.05269,0.08528 0.0409,0.198448 0.207948,0.251503 0.167037,0.05306 0.265077,0.159001 0.217859,0.23545 -0.04719,0.07645 -0.01452,0.138999 0.07267,0.138999 0.08718,0 0.158513,-0.07006 0.158513,-0.155686 0,-0.08984 0.08833,-0.07399 0.20881,0.03743 0.114841,0.106219 0.18188,0.237766 0.148966,0.292318 -0.03293,0.05454 0.05833,0.08013 0.202809,0.05682 0.144461,-0.02329 0.330009,-0.0026 0.412338,0.04624 0.08232,0.04871 0.284391,0.108185 0.449036,0.132124 0.164652,0.02393 0.400399,0.08339 0.523886,0.132098 0.428963,0.169243 1.57156,0.170352 1.681611,0.002 0.07958,-0.122012 0.110601,-0.119242 0.112261,0.01005 0.0013,0.108723 0.13409,0.14743 0.33907,0.09891 0.18523,-0.04385 0.437817,-0.09466 0.561304,-0.112933 0.123487,-0.01829 0.384195,-0.120047 0.579362,-0.226182 0.27791,-0.151134 0.329685,-0.152243 0.238813,-0.0051 -0.08272,0.133928 -0.05568,0.150175 0.0942,0.05662 0.115624,-0.0722 0.304517,-0.145537 0.419766,-0.162971 0.115242,-0.01745 0.259262,-0.112213 0.320046,-0.210623 0.0608,-0.09841 0.168554,-0.143668 0.239501,-0.10057 0.148817,0.0904 0.524994,-0.267802 0.406142,-0.386734 -0.04349,-0.04352 0.0934,-0.06019 0.304186,-0.03703 0.210787,0.02315 0.347477,-0.01583 0.303746,-0.08663 -0.04375,-0.0708 0.01828,-0.128725 0.137837,-0.128725 0.212816,0 0.473543,-0.403085 0.419053,-0.64785 -0.01517,-0.06799 0.117316,-0.07762 0.294341,-0.0214 0.218195,0.0693 0.28867,0.04845 0.218792,-0.06466 -0.05671,-0.09179 0.0019,-0.20732 0.13094,-0.256744 0.128698,-0.04942 0.234005,-0.175494 0.234005,-0.280156 0,-0.10467 0.100295,-0.273601 0.222875,-0.375397 0.122579,-0.101803 0.179526,-0.255272 0.126552,-0.341048 -0.05295,-0.08576 -0.03059,-0.115286 0.04978,-0.0656 0.191666,0.118536 0.69579,-0.477024 0.731588,-0.864277 0.01543,-0.166732 0.109071,-0.284627 0.208136,-0.26199 0.111684,0.02556 0.134842,-0.03139 0.06093,-0.149779 -0.211494,-0.338842 -0.190617,-0.592901 0.04142,-0.503804 0.13632,0.05234 0.181821,0.02173 0.118962,-0.08005 -0.056,-0.09065 -0.0089,-0.223646 0.104483,-0.295555 0.158429,-0.100409 0.136833,-0.133713 -0.09308,-0.143559 -0.299365,-0.01284 -0.299365,-0.01284 0,-0.141548 0.164644,-0.0708 0.215162,-0.133461 0.11226,-0.139252 -0.102908,-0.0058 -0.187103,-0.0819 -0.187103,-0.169146 0,-0.08724 0.07777,-0.110525 0.172811,-0.05175 0.106862,0.06609 0.132186,0.04112 0.06635,-0.06548 -0.165066,-0.267258 -0.238366,-0.789793 -0.09868,-0.703401 0.06866,0.04248 0.159868,-0.05682 0.202685,-0.220669 0.04278,-0.163834 0.02275,-0.297877 -0.04466,-0.297877 -0.06737,0 -0.104003,-0.168504 -0.08141,-0.37445 0.02262,-0.205946 -0.03383,-0.375481 -0.125438,-0.376739 -0.107037,-0.0013 -0.113052,-0.04157 -0.01685,-0.112335 0.179066,-0.131651 0.226044,-0.802675 0.04848,-0.692874 -0.06784,0.04197 -0.1305,-0.01193 -0.139257,-0.119782 -0.0088,-0.107841 -0.0256,-0.330871 -0.0374,-0.495625 -0.0118,-0.164761 -0.108586,-0.281754 -0.21502,-0.25998 -0.145576,0.02977 -0.155622,-0.03126 -0.04057,-0.246387 0.168443,-0.314935 -0.127388,-0.708434 -0.378413,-0.50335 -0.07475,0.0611 -0.08525,0.0491 -0.02333,-0.02659 0.0619,-0.0757 0.0162,-0.2442 -0.101598,-0.37445 -0.209906,-0.232117 -0.235495,-0.299492 -0.235495,-0.620115 0,-0.08724 -0.06736,-0.116966 -0.149679,-0.06605 -0.08232,0.05091 -0.15071,-0.02938 -0.151973,-0.178381 -0.0013,-0.149027 -0.07497,-0.372056 -0.163796,-0.495626 -0.131602,-0.183063 -0.144967,-0.169197 -0.07219,0.07489 0.08696,0.291604 0.08348,0.292013 -0.130766,0.01537 -0.12105,-0.156297 -0.184595,-0.34165 -0.141214,-0.411893 0.04336,-0.07024 -0.05769,-0.127714 -0.224612,-0.127714 -0.207521,0 -0.276407,-0.07065 -0.217826,-0.223405 0.05159,-0.134615 -0.02463,-0.264637 -0.191803,-0.327142 -0.152602,-0.05707 -0.36116,-0.219949 -0.463445,-0.361984 -0.120804,-0.167745 -0.300136,-0.228381 -0.511707,-0.173011 -0.267041,0.06988 -0.307078,0.03658 -0.222214,-0.184698 0.08357,-0.217939 0.06345,-0.236644 -0.10458,-0.09712 -0.160017,0.132896 -0.251168,0.120871 -0.394585,-0.05208 -0.102571,-0.123673 -0.246695,-0.187636 -0.320274,-0.142131 -0.07358,0.04553 -0.169882,-0.01142 -0.214002,-0.126462 -0.04414,-0.11506 -0.161521,-0.218957 -0.260883,-0.230878 -0.09936,-0.01193 -0.502873,-0.05046 -0.896687,-0.08571 -0.393813,-0.03522 -0.808796,-0.141069 -0.922178,-0.23523 -0.143956,-0.119555 -0.235871,-0.123083 -0.30466,-0.01174 -0.101708,0.164677 -0.377182,0.07348 -0.377182,-0.124866 0,-0.06162 1.010341,-0.6391 2.245203,-1.283304 1.234862,-0.64421 2.245209,-1.233927 2.245209,-1.31048 0,-0.182506 -1.118129,-0.669382 -1.844765,-0.803283 -0.35716,-0.06581 -0.519582,-0.158431 -0.431834,-0.246237 0.182184,-0.182305 2.093365,-0.71167 3.623722,-1.00371 0.434836,-0.08298 -1.221912,-0.135178 -4.674547,-0.147281 l -5.348105,-0.01875 0.390171,0.711456 c 0.214592,0.3913 0.560617,0.939889 0.768948,1.219087 0.462985,0.620498 0.360745,0.855449 -0.574915,1.321117 -0.81953,0.407877 -2.039815,0.739702 -2.185197,0.594223 -0.05937,-0.05935 0.04265,-0.417931 0.226557,-0.79679 0.183941,-0.378861 0.299455,-0.723838 0.256703,-0.766619 -0.04278,-0.04281 -0.34913,0.167569 -0.680837,0.46745 -0.331708,0.299882 -0.737629,0.545236 -0.90204,0.545236 -0.37623,0 -0.375517,-0.0085 0.07527,-0.898678 0.440637,-0.870133 0.456646,-1.030003 0.12724,-1.271032 -0.226427,-0.165675 -0.22738,-0.219995 -0.01147,-0.653077 l 0.235495,-0.472373 -4.660896,0 -4.660891,0 -0.716122,0.705826 c -0.456906,0.450328 -0.716123,0.619863 -0.716123,0.468352 0,-0.130606 0.428341,-1.105389 0.951864,-2.166175 3.200469,-6.484905 8.526407,-11.57962 15.158382,-14.500291 3.054277,-1.345076 5.528785,-2.021774 8.794466,-2.404999 l 1.66354,-0.195219 0.579167,0.546242 c 1.938728,1.8285 7.728092,8.582232 7.728092,9.015398 0,0.08361 0.528222,0.941992 1.173832,1.907519 3.095532,4.629475 5.909823,10.425405 7.683751,15.824398 0.576277,1.753926 0.706206,2.896337 0.320993,2.822346 -0.09705,-0.01862 -0.589699,0.756475 -1.094782,1.722469 -1.233417,2.358955 -3.104711,5.126892 -5.008322,7.408062 -1.724169,2.06615 -5.829374,6.077922 -7.940085,7.759375 -0.740914,0.590235 -1.481835,1.217951 -1.64648,1.394932 -0.970978,1.04367 -5.866372,4.058747 -6.31535,3.889622 -0.09815,-0.03697 -0.704359,0.162535 -1.347123,0.443348 -1.446122,0.631784 -4.629351,1.733088 -5.220548,1.806151 -0.241192,0.02984 -0.715325,0.131715 -1.053637,0.226461 -0.338312,0.09475 -1.130658,0.198915 -1.76077,0.231488 -1.030272,0.05325 -1.201994,0.02121 -1.704938,-0.318029 z m 46.06614,-4.677354 c 0,-0.08611 0.05049,-0.156985 0.11226,-0.15749 0.06177,-4.48e-4 1.223637,-0.134892 2.581986,-0.298634 1.358349,-0.163749 2.604437,-0.290256 2.769088,-0.281131 0.303642,0.0168 -0.101404,0.08726 -2.918767,0.50754 -0.864402,0.128943 -1.790547,0.26861 -2.058106,0.310367 -0.286959,0.04475 -0.486461,0.01174 -0.486461,-0.08066 z m 7.034979,-0.972543 c 1.444054,-0.234134 2.544567,-0.286099 2.544567,-0.120151 0,0.06182 -0.319944,0.115319 -0.710983,0.118951 -0.39104,0.0039 -1.249835,0.05182 -1.908427,0.10705 l -1.197444,0.10044 1.272287,-0.20629 z m -8.139834,-6.935137 c -0.637255,-4.282758 -1.496932,-8.381488 -2.662441,-12.693849 -0.742883,-2.748679 -0.762879,-2.87394 -0.585699,-3.669609 1.127299,-5.062532 1.727661,-10.031713 1.388856,-11.495615 -0.08103,-0.350108 -0.125593,-0.636564 -0.09902,-0.636564 0.138453,0 1.504074,2.389653 2.225466,3.894281 2.201459,4.591637 2.994732,8.123967 2.993682,13.330413 -6.49e-4,4.421246 -0.565867,7.522077 -2.005819,11.008829 -0.340205,0.823793 -0.655734,1.615752 -0.701177,1.75992 -0.173194,0.549445 -0.300414,0.205395 -0.553843,-1.497806 z M 13.398055,51.036025 c 0,-0.205946 0.03396,-0.290198 0.07549,-0.187228 0.04155,0.102977 0.04155,0.27148 0,0.37445 -0.04155,0.102977 -0.07549,0.01875 -0.07549,-0.187222 z M 13.24837,50.137347 c 0,-0.205952 0.03396,-0.290197 0.0755,-0.187228 0.04155,0.102977 0.04155,0.27148 0,0.374451 -0.04155,0.102975 -0.0755,0.01874 -0.0755,-0.187223 z m -0.144131,-1.123355 c 0.0032,-0.247131 0.03662,-0.330105 0.07455,-0.184374 0.03798,0.145731 0.03545,0.347936 -0.0058,0.449342 -0.04103,0.101407 -0.07206,-0.01784 -0.069,-0.264968 z M 12.98306,45.793725 c 0,-1.029738 0.02392,-1.45099 0.05315,-0.936121 0.02923,0.514869 0.02923,1.357379 0,1.872248 -0.02923,0.514869 -0.05315,0.09361 -0.05315,-0.936127 z m 16.120266,-4.236224 c 0.03429,-0.02329 0.197079,-0.141263 0.36173,-0.262114 0.276906,-0.203255 0.283951,-0.20007 0.09393,0.04235 -0.112987,0.144162 -0.275765,0.262114 -0.36173,0.262114 -0.08596,0 -0.128231,-0.01907 -0.09393,-0.04241 z M 65.898017,29.671209 c -0.131291,-0.153112 -0.462467,-0.682795 -0.735943,-1.177072 -1.505274,-2.720588 -4.414247,-6.84611 -6.996816,-9.922923 -0.847037,-1.009139 -1.513317,-1.834805 -1.480624,-1.834805 0.217515,0 2.956666,1.197015 4.204724,1.837471 1.757789,0.902024 4.337888,2.593134 5.181484,3.396158 0.467347,0.444873 0.58977,0.670212 0.58977,1.085582 0,0.747479 -0.305683,5.136807 -0.424218,6.091361 -0.09376,0.7551 -0.113797,0.786135 -0.338377,0.524228 z"
     id="path3882"
     inkscape:connector-curvature="0" />
  <path
     sodipodi:type="arc"
     style="fill:#ffffff;fill-opacity:1;stroke:#ffffff;stroke-width:3.9000001;stroke-linecap:butt;stroke-linejoin:miter;stroke-miterlimit:4;stroke-opacity:1;stroke-dasharray:none"
     id="path3036"
     sodipodi:cx="35.694916"
     sodipodi:cy="46.474575"
     sodipodi:rx="6.4067798"
     sodipodi:ry="6.6101694"
     d="m 42.101696,46.474575 a 6.4067798,6.6101694 0 1 1 -12.81356,0 6.4067798,6.6101694 0 1 1 12.81356,0 z" />
  <path
     style="fill:none;stroke:#ffffff;stroke-width:0.6;stroke-linecap:butt;stroke-linejoin:miter;stroke-opacity:1;stroke-miterlimit:4;stroke-dasharray:none"
     d="M 85.016949,64.474576 74.440678,80.542373"
     id="path3038"
     inkscape:connector-curvature="0" />
  <path
     inkscape:connector-curvature="0"
     id="path3808"
     d="M 85.131449,64.332453 75.61631,65.255778"
     style="fill:none;stroke:#ffffff;stroke-width:0.933;stroke-linecap:butt;stroke-linejoin:miter;stroke-miterlimit:4;stroke-opacity:1;stroke-dasharray:none" />
  <path
     inkscape:connector-curvature="0"
     id="path3810"
     d="m 72.53329,46.478308 c 1.803395,5.773475 2.445088,12.205287 3.10131,19.125935"
     style="fill:none;stroke:#ffffff;stroke-width:0.60000002;stroke-linecap:butt;stroke-linejoin:miter;stroke-miterlimit:4;stroke-opacity:1;stroke-dasharray:none"
     sodipodi:nodetypes="cc" />
  <path
     sodipodi:type="arc"
     style="fill:none;stroke:#ffffff;stroke-width:0.33352822;stroke-linecap:butt;stroke-linejoin:miter;stroke-miterlimit:4;stroke-opacity:1;stroke-dasharray:none"
     id="path3823"
     sodipodi:cx="26.644068"
     sodipodi:cy="22.881355"
     sodipodi:rx="10.372881"
     sodipodi:ry="9.6610174"
     d="m 37.016949,22.881355 a 10.372881,9.6610174 0 1 1 -20.745762,0 10.372881,9.6610174 0 1 1 20.745762,0 z"
     transform="matrix(3.5465954,0,0,3.7973969,-46.902505,-40.82179)" />
  <path
     style="fill:#21ae78;fill-opacity:1;stroke:none"
     d="M 57.743059,67.739699 84.34945,64.647605 74.138348,79.964256 z"
     id="path3825"
     inkscape:connector-curvature="0"
     sodipodi:nodetypes="cccc" />
  <path
     style="fill:#21ae78;fill-opacity:1;stroke:none"
     d="m 41.707315,32.719935 c 4.274092,-0.419262 1.438231,-2.444877 1.438184,-2.444911 2.756852,-0.684348 3.140033,-0.640532 3.826224,-1.066047 1.903893,-1.180625 -1.566248,-2.120952 -4.689134,-2.67323 0.764867,-2.643661 -0.330136,-3.055478 -1.438184,-3.45164 l -4.314549,0.719092 1.869638,-3.45164 -2.301094,-1.72582 -1.869638,0 -1.006728,0.287637 -2.444912,1.438183 -0.86291,0.575274 -1.582001,0.719091 -3.164004,2.013457 c -1.350094,1.455187 -3.677843,2.788166 -2.157274,4.602186 l -4.31455,3.307822 c 2.496342,2.057595 3.579746,6.893 10.931199,-1.169542 0.504231,-0.553004 0.426967,1.960297 1.587121,2.000794 1.161916,0.04056 3.560639,-2.390458 3.257525,-1.32572 -1.399476,4.915897 4.135595,2.11998 7.235087,1.645014 z"
     id="path3827"
     inkscape:connector-curvature="0"
     sodipodi:nodetypes="ccscccccccccccccsssc" />
</svg>
