<?xml version="1.0" encoding="UTF-8" standalone="no"?>
<!-- Created with Inkscape (http://www.inkscape.org/) -->

<svg
   xmlns:dc="http://purl.org/dc/elements/1.1/"
   xmlns:cc="http://creativecommons.org/ns#"
   xmlns:rdf="http://www.w3.org/1999/02/22-rdf-syntax-ns#"
   xmlns:svg="http://www.w3.org/2000/svg"
   xmlns="http://www.w3.org/2000/svg"
   xmlns:xlink="http://www.w3.org/1999/xlink"
   xmlns:sodipodi="http://sodipodi.sourceforge.net/DTD/sodipodi-0.dtd"
   xmlns:inkscape="http://www.inkscape.org/namespaces/inkscape"
   version="1.0"
   width="96"
   height="96"
   id="svg2408"
   inkscape:version="0.48.4 r9939"
   sodipodi:docname="liferea.svg">
  <sodipodi:namedview
     pagecolor="#ffffff"
     bordercolor="#666666"
     borderopacity="1"
     objecttolerance="10"
     gridtolerance="10"
     guidetolerance="10"
     inkscape:pageopacity="0"
     inkscape:pageshadow="2"
     inkscape:window-width="1366"
     inkscape:window-height="691"
     id="namedview58"
     showgrid="false"
     inkscape:zoom="2.4583333"
     inkscape:cx="48"
     inkscape:cy="48"
     inkscape:window-x="0"
     inkscape:window-y="24"
     inkscape:window-maximized="1"
     inkscape:current-layer="svg2408" />
  <defs
     id="defs2410">
    <linearGradient
       id="linearGradient2841">
      <stop
         id="stop2843"
         style="stop-color:#d4530d;stop-opacity:1"
         offset="0" />
      <stop
         id="stop2845"
         style="stop-color:#f7ad25;stop-opacity:1"
         offset="1" />
    </linearGradient>
    <linearGradient
       x1="45.447727"
       y1="92.539597"
       x2="45.447727"
       y2="7.0165396"
       id="ButtonShadow"
       gradientUnits="userSpaceOnUse"
       gradientTransform="scale(1.0058652,0.994169)">
      <stop
         id="stop3750"
         style="stop-color:#000000;stop-opacity:1"
         offset="0" />
      <stop
         id="stop3752"
         style="stop-color:#000000;stop-opacity:0.58823532"
         offset="1" />
    </linearGradient>
    <linearGradient
       id="linearGradient3737">
      <stop
         id="stop3739"
         style="stop-color:#ffffff;stop-opacity:1"
         offset="0" />
      <stop
         id="stop3741"
         style="stop-color:#ffffff;stop-opacity:0"
         offset="1" />
    </linearGradient>
    <filter
       color-interpolation-filters="sRGB"
       id="filter3174">
      <feGaussianBlur
         id="feGaussianBlur3176"
         stdDeviation="1.71" />
    </filter>
    <linearGradient
       x1="36.357143"
       y1="6"
       x2="36.357143"
       y2="63.893143"
       id="linearGradient3188"
       xlink:href="#linearGradient3737"
       gradientUnits="userSpaceOnUse" />
    <filter
       x="-0.192"
       y="-0.192"
       width="1.3839999"
       height="1.3839999"
       color-interpolation-filters="sRGB"
       id="filter3794">
      <feGaussianBlur
         id="feGaussianBlur3796"
         stdDeviation="5.28" />
    </filter>
    <linearGradient
       x1="48"
       y1="20.220806"
       x2="48"
       y2="138.66119"
       id="linearGradient3613"
       xlink:href="#linearGradient3737"
       gradientUnits="userSpaceOnUse" />
    <radialGradient
       cx="48"
       cy="90.171875"
       r="42"
       fx="48"
       fy="90.171875"
       id="radialGradient3619"
       xlink:href="#linearGradient3737"
       gradientUnits="userSpaceOnUse"
       gradientTransform="matrix(1.1573129,0,0,0.99590774,-7.5510206,0.19713193)" />
    <clipPath
       id="clipPath3613">
      <rect
         width="84"
         height="84"
         rx="6"
         ry="6"
         x="6"
         y="6"
         id="rect3615"
         style="fill:#ffffff;fill-opacity:1;fill-rule:nonzero;stroke:none" />
    </clipPath>
    <linearGradient
       x1="48"
       y1="90"
       x2="48"
       y2="5.9877172"
       id="linearGradient3617"
       xlink:href="#linearGradient2841"
       gradientUnits="userSpaceOnUse" />
    <clipPath
       id="clipPath3754">
      <path
         d="m -78,6 c -3.324,0 -6,2.676 -6,6 l 0,72 c 0,3.324 2.676,6 6,6 l 72,0 c 3.324,0 6,-2.676 6,-6 L 0,12 C 0,8.676 -2.676,6 -6,6 l -72,0 z m 4,10 a 64,64 0 0 1 64,64 l -12.8125,0 A 51.2,51.2 0 0 0 -74,28.8125 L -74,16 z m 0,21.5625 A 42.422857,42.422857 0 0 1 -31.5625,80 L -44,80 A 29.988571,29.988571 0 0 0 -74,50 l 0,-12.4375 z m 8.78125,24.875 c 4.847482,0 8.78125,3.933769 8.78125,8.78125 C -56.4375,76.066233 -60.371268,80 -65.21875,80 -70.066232,80 -74,76.066233 -74,71.21875 c 0,-4.847481 3.933768,-8.78125 8.78125,-8.78125 z"
         inkscape:connector-curvature="0"
         id="path3756"
         style="fill:#ff0000;fill-opacity:1;fill-rule:nonzero;stroke:none" />
    </clipPath>
    <filter
       x="-0.12"
       y="-0.12"
       width="1.24"
       height="1.24"
       color-interpolation-filters="sRGB"
       id="filter3762">
      <feGaussianBlur
         id="feGaussianBlur3764"
         stdDeviation="3.2" />
    </filter>
    <clipPath
       id="clipPath3775">
      <path
         d="m -84,16 0,12.8 A 51.2,51.2 0 0 1 -32.8,80 L -20,80 A 64,64 0 0 0 -84,16 z m 0,21.577143 0,12.434286 A 29.988571,29.988571 0 0 1 -54.011429,80 l 12.434286,0 A 42.422857,42.422857 0 0 0 -84,37.577143 z m 8.777142,24.868571 C -80.07034,62.445714 -84,66.375376 -84,71.222857 -84,76.07034 -80.07034,80 -75.222858,80 c 4.847482,0 8.777144,-3.92966 8.777144,-8.777143 0,-4.847481 -3.929662,-8.777143 -8.777144,-8.777143 z"
         inkscape:connector-curvature="0"
         id="path3777"
         style="fill:#ffffff" />
    </clipPath>
    <filter
       color-interpolation-filters="sRGB"
       id="filter3787">
      <feGaussianBlur
         id="feGaussianBlur3789"
         stdDeviation="0.42" />
    </filter>
    <linearGradient
       x1="45.447727"
       y1="92.539597"
       x2="45.447727"
       y2="7.0165396"
       id="ButtonShadow-0"
       gradientUnits="userSpaceOnUse"
       gradientTransform="matrix(1.0058652,0,0,0.994169,100,0)">
      <stop
         id="stop3750-8"
         style="stop-color:#000000;stop-opacity:1"
         offset="0" />
      <stop
         id="stop3752-5"
         style="stop-color:#000000;stop-opacity:0.58823532"
         offset="1" />
    </linearGradient>
    <linearGradient
       x1="32.251034"
       y1="6.1317081"
       x2="32.251034"
       y2="90.238609"
       id="linearGradient3780"
       xlink:href="#ButtonShadow-0"
       gradientUnits="userSpaceOnUse"
       gradientTransform="matrix(1.0238095,0,0,1.0119048,-1.1428571,-98.071429)" />
    <linearGradient
       x1="32.251034"
       y1="6.1317081"
       x2="32.251034"
       y2="90.238609"
       id="linearGradient3772"
       xlink:href="#ButtonShadow-0"
       gradientUnits="userSpaceOnUse"
       gradientTransform="matrix(1.0238095,0,0,1.0119048,-1.1428571,-98.071429)" />
    <linearGradient
       x1="32.251034"
       y1="6.1317081"
       x2="32.251034"
       y2="90.238609"
       id="linearGradient3725"
       xlink:href="#ButtonShadow-0"
       gradientUnits="userSpaceOnUse"
       gradientTransform="matrix(1.0238095,0,0,1.0119048,-1.1428571,-98.071429)" />
    <linearGradient
       x1="32.251034"
       y1="6.1317081"
       x2="32.251034"
       y2="90.238609"
       id="linearGradient3721"
       xlink:href="#ButtonShadow-0"
       gradientUnits="userSpaceOnUse"
       gradientTransform="translate(0,-97)" />
    <linearGradient
       x1="32.251034"
       y1="6.1317081"
       x2="32.251034"
       y2="90.238609"
       id="linearGradient3071"
       xlink:href="#ButtonShadow-0"
       gradientUnits="userSpaceOnUse"
       gradientTransform="matrix(1.0238095,0,0,1.0119048,-1.1428571,-98.071429)" />
  </defs>
  <metadata
     id="metadata2413">
    <rdf:RDF>
      <cc:Work
         rdf:about="">
        <dc:format>image/svg+xml</dc:format>
        <dc:type
           rdf:resource="http://purl.org/dc/dcmitype/StillImage" />
      </cc:Work>
    </rdf:RDF>
  </metadata>
  <g
     id="layer2"
     style="display:none">
    <rect
       width="86"
       height="85"
       rx="6"
       ry="6"
       x="5"
       y="7"
       id="rect3745"
       style="opacity:0.9;fill:url(#ButtonShadow);fill-opacity:1;fill-rule:nonzero;stroke:none;filter:url(#filter3174)" />
  </g>
  <rect
     style="fill:#ff7f2a;fill-opacity:1;stroke:none"
     id="rect3035"
     width="96"
     height="96"
     x="0"
     y="4.8849813e-15" />
  <path
     style="fill:#ffffff"
     id="circle3643"
     inkscape:connector-curvature="0"
     d="m 16.406781,16.81356 0,12.8 a 51.2,51.2 0 0 1 51.2,51.2 l 12.8,0 a 64,64 0 0 0 -64,-64 z m 0,21.577143 0,12.434286 A 29.988571,29.988571 0 0 1 46.395352,80.81356 l 12.434286,0 A 42.422857,42.422857 0 0 0 16.406781,38.390703 z m 8.777142,24.868571 c -4.847482,0 -8.777142,3.929662 -8.777142,8.777143 0,4.847483 3.92966,8.777143 8.777142,8.777143 4.847482,0 8.777144,-3.92966 8.777144,-8.777143 0,-4.847481 -3.929662,-8.777143 -8.777144,-8.777143 z" />
</svg>
