<?xml version="1.0" encoding="UTF-8" standalone="no"?>
<!-- Created with Inkscape (http://www.inkscape.org/) -->

<svg
   xmlns:dc="http://purl.org/dc/elements/1.1/"
   xmlns:cc="http://creativecommons.org/ns#"
   xmlns:rdf="http://www.w3.org/1999/02/22-rdf-syntax-ns#"
   xmlns:svg="http://www.w3.org/2000/svg"
   xmlns="http://www.w3.org/2000/svg"
   xmlns:xlink="http://www.w3.org/1999/xlink"
   xmlns:sodipodi="http://sodipodi.sourceforge.net/DTD/sodipodi-0.dtd"
   xmlns:inkscape="http://www.inkscape.org/namespaces/inkscape"
   version="1.0"
   width="96"
   height="96"
   id="svg2408"
   inkscape:version="0.48.4 r9939"
   sodipodi:docname="mitter.svg">
  <sodipodi:namedview
     pagecolor="#ffffff"
     bordercolor="#666666"
     borderopacity="1"
     objecttolerance="10"
     gridtolerance="10"
     guidetolerance="10"
     inkscape:pageopacity="0"
     inkscape:pageshadow="2"
     inkscape:window-width="640"
     inkscape:window-height="480"
     id="namedview90"
     showgrid="false"
     inkscape:zoom="2.4583333"
     inkscape:cx="48"
     inkscape:cy="48"
     inkscape:window-x="693"
     inkscape:window-y="121"
     inkscape:window-maximized="0"
     inkscape:current-layer="svg2408" />
  <defs
     id="defs2410">
    <linearGradient
       id="linearGradient3800">
      <stop
         id="stop3802"
         style="stop-color:#005b59;stop-opacity:1"
         offset="0" />
      <stop
         id="stop3804"
         style="stop-color:#00555b;stop-opacity:0"
         offset="1" />
    </linearGradient>
    <linearGradient
       id="linearGradient3726">
      <stop
         id="stop3728"
         style="stop-color:#0088aa;stop-opacity:1"
         offset="0" />
      <stop
         id="stop3730"
         style="stop-color:#0088aa;stop-opacity:0"
         offset="1" />
    </linearGradient>
    <linearGradient
       id="linearGradient3718">
      <stop
         id="stop3720"
         style="stop-color:#269ebf;stop-opacity:1"
         offset="0" />
      <stop
         id="stop3722"
         style="stop-color:#67c7e1;stop-opacity:1"
         offset="1" />
    </linearGradient>
    <linearGradient
       id="linearGradient3704">
      <stop
         id="stop3706"
         style="stop-color:#34b5d8;stop-opacity:1"
         offset="0" />
      <stop
         id="stop3708"
         style="stop-color:#ffffff;stop-opacity:0"
         offset="1" />
    </linearGradient>
    <linearGradient
       id="linearGradient3614">
      <stop
         id="stop3616"
         style="stop-color:#064096;stop-opacity:1"
         offset="0" />
      <stop
         id="stop3618"
         style="stop-color:#4484e5;stop-opacity:1"
         offset="1" />
    </linearGradient>
    <linearGradient
       x1="45.447727"
       y1="92.539597"
       x2="45.447727"
       y2="7.0165396"
       id="ButtonShadow"
       gradientUnits="userSpaceOnUse"
       gradientTransform="scale(1.0058652,0.994169)">
      <stop
         id="stop3750"
         style="stop-color:#000000;stop-opacity:1"
         offset="0" />
      <stop
         id="stop3752"
         style="stop-color:#000000;stop-opacity:0.58823532"
         offset="1" />
    </linearGradient>
    <linearGradient
       id="linearGradient3737">
      <stop
         id="stop3739"
         style="stop-color:#ffffff;stop-opacity:1"
         offset="0" />
      <stop
         id="stop3741"
         style="stop-color:#ffffff;stop-opacity:0"
         offset="1" />
    </linearGradient>
    <filter
       color-interpolation-filters="sRGB"
       id="filter3174">
      <feGaussianBlur
         id="feGaussianBlur3176"
         stdDeviation="1.71" />
    </filter>
    <linearGradient
       x1="36.357143"
       y1="6"
       x2="36.357143"
       y2="63.893143"
       id="linearGradient3188"
       xlink:href="#linearGradient3737"
       gradientUnits="userSpaceOnUse" />
    <filter
       x="-0.192"
       y="-0.192"
       width="1.3839999"
       height="1.3839999"
       color-interpolation-filters="sRGB"
       id="filter3794">
      <feGaussianBlur
         id="feGaussianBlur3796"
         stdDeviation="5.28" />
    </filter>
    <linearGradient
       x1="48"
       y1="20.220806"
       x2="48"
       y2="138.66119"
       id="linearGradient3613"
       xlink:href="#linearGradient3737"
       gradientUnits="userSpaceOnUse" />
    <radialGradient
       cx="48"
       cy="90.171875"
       r="42"
       fx="48"
       fy="90.171875"
       id="radialGradient3619"
       xlink:href="#linearGradient3704"
       gradientUnits="userSpaceOnUse"
       gradientTransform="matrix(1.1573129,0,0,0.99590774,-7.5510206,0.19713193)" />
    <clipPath
       id="clipPath3613">
      <rect
         width="84"
         height="84"
         rx="6"
         ry="6"
         x="6"
         y="6"
         id="rect3615"
         style="fill:#ffffff;fill-opacity:1;fill-rule:nonzero;stroke:none" />
    </clipPath>
    <clipPath
       id="clipPath3644">
      <path
         d="m 12,96 c -3.324,0 -6,2.676 -6,6 l 0,72 c 0,3.324 2.676,6 6,6 l 72,0 c 3.324,0 6,-2.676 6,-6 l 0,-72 c 0,-3.324 -2.676,-6 -6,-6 l -72,0 z m 36,11 c 18.225397,0 33,12.08831 33,27 0,14.91169 -14.774603,27 -33,27 -2.713933,0 -5.351493,-0.27575 -7.875,-0.78125 -3.392649,3.54119 -9.783335,8.23332 -19.40625,7.1875 7.429736,-2.10018 8.999125,-8.24125 9.34375,-10.75 C 20.99976,151.84346 15,143.49844 15,134 15,119.08831 29.774603,107 48,107 z"
         inkscape:connector-curvature="0"
         id="path3646"
         style="fill:url(#linearGradient3648);fill-opacity:1;fill-rule:nonzero;stroke:none" />
    </clipPath>
    <linearGradient
       x1="48"
       y1="90"
       x2="48"
       y2="5.9877172"
       id="linearGradient3648"
       xlink:href="#linearGradient3614"
       gradientUnits="userSpaceOnUse"
       gradientTransform="translate(0,90)" />
    <filter
       x="-0.17257486"
       y="-0.18809278"
       width="1.3451498"
       height="1.3761857"
       color-interpolation-filters="sRGB"
       id="filter3678">
      <feGaussianBlur
         id="feGaussianBlur3680"
         stdDeviation="4.745809" />
    </filter>
    <linearGradient
       x1="31.635359"
       y1="-11.304745"
       x2="31.635357"
       y2="-40.48547"
       id="linearGradient3724"
       xlink:href="#linearGradient3718"
       gradientUnits="userSpaceOnUse"
       gradientTransform="matrix(1.1428571,0,0,1.1428571,-8.8910309,-10.924938)" />
    <linearGradient
       x1="15"
       y1="47.277454"
       x2="130.70613"
       y2="47.277454"
       id="linearGradient3732"
       xlink:href="#linearGradient3726"
       gradientUnits="userSpaceOnUse" />
    <linearGradient
       id="linearGradient3737-9">
      <stop
         id="stop3739-7"
         style="stop-color:#ffffff;stop-opacity:1"
         offset="0" />
      <stop
         id="stop3741-7"
         style="stop-color:#ffffff;stop-opacity:0"
         offset="1" />
    </linearGradient>
    <radialGradient
       cx="48"
       cy="90.171875"
       r="42"
       fx="48"
       fy="90.171875"
       id="radialGradient2899"
       xlink:href="#linearGradient3737-9"
       gradientUnits="userSpaceOnUse"
       gradientTransform="matrix(1.1573129,0,0,0.99590774,-7.551021,0.1971319)" />
    <linearGradient
       x1="45.447727"
       y1="92.539597"
       x2="45.447727"
       y2="7.0165396"
       id="ButtonShadow-0"
       gradientUnits="userSpaceOnUse"
       gradientTransform="matrix(1.0058652,0,0,0.994169,100,0)">
      <stop
         id="stop3750-8"
         style="stop-color:#000000;stop-opacity:1"
         offset="0" />
      <stop
         id="stop3752-5"
         style="stop-color:#000000;stop-opacity:0.58823532"
         offset="1" />
    </linearGradient>
    <linearGradient
       x1="32.251034"
       y1="6.1317081"
       x2="32.251034"
       y2="90.238609"
       id="linearGradient3780"
       xlink:href="#ButtonShadow-0"
       gradientUnits="userSpaceOnUse"
       gradientTransform="matrix(1.0238095,0,0,1.0119048,-1.1428571,-98.071429)" />
    <linearGradient
       x1="32.251034"
       y1="6.1317081"
       x2="32.251034"
       y2="90.238609"
       id="linearGradient3772"
       xlink:href="#ButtonShadow-0"
       gradientUnits="userSpaceOnUse"
       gradientTransform="matrix(1.0238095,0,0,1.0119048,-1.1428571,-98.071429)" />
    <linearGradient
       x1="32.251034"
       y1="6.1317081"
       x2="32.251034"
       y2="90.238609"
       id="linearGradient3725"
       xlink:href="#ButtonShadow-0"
       gradientUnits="userSpaceOnUse"
       gradientTransform="matrix(1.0238095,0,0,1.0119048,-1.1428571,-98.071429)" />
    <linearGradient
       x1="32.251034"
       y1="6.1317081"
       x2="32.251034"
       y2="90.238609"
       id="linearGradient3721"
       xlink:href="#ButtonShadow-0"
       gradientUnits="userSpaceOnUse"
       gradientTransform="translate(0,-97)" />
    <linearGradient
       x1="32.251034"
       y1="6.1317081"
       x2="32.251034"
       y2="90.238609"
       id="linearGradient3071"
       xlink:href="#ButtonShadow-0"
       gradientUnits="userSpaceOnUse"
       gradientTransform="matrix(1.0238095,0,0,1.0119048,-1.1428571,-98.071429)" />
    <linearGradient
       x1="49"
       y1="56"
       x2="49"
       y2="24.983875"
       id="linearGradient3830"
       xlink:href="#linearGradient3800"
       gradientUnits="userSpaceOnUse" />
    <linearGradient
       x1="49"
       y1="56"
       x2="49"
       y2="24.983875"
       id="linearGradient3832"
       xlink:href="#linearGradient3800"
       gradientUnits="userSpaceOnUse" />
  </defs>
  <metadata
     id="metadata2413">
    <rdf:RDF>
      <cc:Work
         rdf:about="">
        <dc:format>image/svg+xml</dc:format>
        <dc:type
           rdf:resource="http://purl.org/dc/dcmitype/StillImage" />
        <dc:title />
      </cc:Work>
    </rdf:RDF>
  </metadata>
  <g
     id="layer2"
     style="display:none">
    <rect
       width="86"
       height="85"
       rx="6"
       ry="6"
       x="5"
       y="7"
       id="rect3745"
       style="opacity:0.9;fill:url(#ButtonShadow);fill-opacity:1;fill-rule:nonzero;stroke:none;filter:url(#filter3174)" />
  </g>
  <g
     id="layer1"
     style="display:inline"
     transform="translate(2.0338968,4.0677965)">
    <rect
       width="96"
       height="96"
       rx="0"
       ry="0"
       x="-2.0338967"
       y="-4.0677967"
       id="rect2419"
       style="fill:#269ebf;fill-opacity:1;fill-rule:nonzero;stroke:none" />
  </g>
  <path
     style="fill:#ffffff;fill-opacity:1;stroke:none;display:inline"
     id="path3625"
     inkscape:connector-curvature="0"
     d="m 49.288134,18.832539 c -17.551422,0 -31.779661,11.641286 -31.779661,26.00154 0,9.147187 5.777889,17.183612 14.505489,21.818423 -0.331881,2.41598 -1.843234,8.329947 -8.998218,10.352465 9.26706,1.007149 15.421418,-3.511465 18.688607,-6.921706 2.430188,0.486807 4.970211,0.752359 7.583783,0.752359 17.551422,0 31.779661,-11.641286 31.779661,-26.001541 0,-14.360254 -14.228239,-26.00154 -31.779661,-26.00154 z" />
  <g
     id="layer5"
     style="display:none">
    <rect
       width="66"
       height="66"
       rx="12"
       ry="12"
       x="15"
       y="15"
       clip-path="url(#clipPath3613)"
       id="rect3171"
       style="opacity:0.1;fill:url(#linearGradient3613);fill-opacity:1;fill-rule:nonzero;stroke:#ffffff;stroke-width:0.5;stroke-linecap:round;stroke-linejoin:miter;stroke-miterlimit:4;stroke-opacity:1;stroke-dasharray:none;stroke-dashoffset:0;filter:url(#filter3794)" />
  </g>
  <g
     style="font-size:48px;font-style:normal;font-variant:normal;font-weight:normal;font-stretch:normal;text-align:start;line-height:125%;writing-mode:tb-rl;text-anchor:start;fill:#ff00ff;fill-opacity:1;stroke:none;font-family:American Participants;-inkscape-font-specification:American Participants"
     id="g3709"
     transform="matrix(0.94113621,0,0,0.94221106,5.8104181,1.7818198)" />
  <path
     style="fill:#99e0f3"
     id="path2908"
     inkscape:connector-curvature="0"
     d="m -45.753963,411.6799 c -9.29872,-1.70023 -20.36986,-5.63646 -27.3346,-9.71855 -3.11597,-1.8263 -9.73225,-7.37065 -14.70283,-12.32079 -10.16735,-10.12551 -15.583427,-19.48434 -19.676417,-34.00025 -2.17755,-7.72277 -2.24891,-9.2995 -2.05928,-45.5 0.10805,-20.625 0.48707,-45.2625 0.84228,-54.75 l 0.64583,-17.25 105.2696669,0 105.2696831,0 -0.51157,4.75 c -1.32564,12.30902 -8.731203,22.79036 -19.742763,27.94262 l -6,2.80738 -56,0.5 -56,0.5 -0.26426,30.61572 c -0.23784,27.55569 -0.0977,30.75408 1.40249,32 1.35845,1.12823 11.85801,1.47676 56.76426,1.88428 l 55.09751,0.5 5.94553,2.91921 c 7.87405,3.8661 14.00387,10.18044 17.842993,18.38008 2.74481,5.86239 3.13731,7.76414 3.13731,15.20071 0,7.41207 -0.39326,9.33195 -3.07257,15 -4.888463,10.34149 -12.841373,17.28566 -23.381353,20.4157 -4.60613,1.36788 -12.92588,1.57197 -60.90341,1.49405 -40.48922,-0.0658 -57.46805,-0.43757 -62.5685,-1.37016 z" />
  <path
     style="color:#000000;fill:#269ebf;fill-opacity:1;fill-rule:nonzero;stroke:none;stroke-width:0.5;marker:none;visibility:visible;display:inline;overflow:visible;enable-background:accumulate"
     id="path2932"
     inkscape:connector-curvature="0"
     d="m 43.330468,36.050084 c -4.037564,0 -7.403128,2.76357 -8.366236,6.500385 -0.173059,0.371324 -0.300944,0.765667 -0.300944,1.203775 l 0,6.74114 c 0,1.600539 1.288521,2.88906 2.88906,2.88906 1.600539,0 2.88906,-1.288521 2.88906,-2.88906 l 0,-5.77812 c 0,-1.595584 1.293477,-2.88906 2.88906,-2.88906 1.595584,0 2.88906,1.293476 2.88906,2.88906 l 0,5.77812 c 0,1.600539 1.288521,2.88906 2.889061,2.88906 1.600539,0 2.88906,-1.288521 2.88906,-2.88906 l 0,-5.77812 c 0,-1.595584 1.293476,-2.88906 2.889061,-2.88906 1.595583,0 2.88906,1.293476 2.88906,2.88906 l 0,5.77812 c 0,1.600539 1.288521,2.88906 2.88906,2.88906 1.600539,0 2.88906,-1.288521 2.88906,-2.88906 l 0,-5.77812 0,-0.96302 c 0,-0.438108 -0.127885,-0.832451 -0.300944,-1.203775 -0.963108,-3.736815 -4.328672,-6.500385 -8.366236,-6.500385 -2.224433,0 -4.243597,0.849478 -5.778121,2.226983 -1.534525,-1.377505 -3.553689,-2.226983 -5.778121,-2.226983 z" />
</svg>
