<?xml version="1.0" encoding="UTF-8" standalone="no"?>
<!-- Created with Inkscape (http://www.inkscape.org/) -->

<svg
   xmlns:dc="http://purl.org/dc/elements/1.1/"
   xmlns:cc="http://creativecommons.org/ns#"
   xmlns:rdf="http://www.w3.org/1999/02/22-rdf-syntax-ns#"
   xmlns:svg="http://www.w3.org/2000/svg"
   xmlns="http://www.w3.org/2000/svg"
   xmlns:xlink="http://www.w3.org/1999/xlink"
   xmlns:sodipodi="http://sodipodi.sourceforge.net/DTD/sodipodi-0.dtd"
   xmlns:inkscape="http://www.inkscape.org/namespaces/inkscape"
   version="1.0"
   width="96"
   height="96"
   id="svg2408"
   inkscape:version="0.48.4 r9939"
   sodipodi:docname="mypaint.svg">
  <sodipodi:namedview
     pagecolor="#ffffff"
     bordercolor="#666666"
     borderopacity="1"
     objecttolerance="10"
     gridtolerance="10"
     guidetolerance="10"
     inkscape:pageopacity="0"
     inkscape:pageshadow="2"
     inkscape:window-width="640"
     inkscape:window-height="480"
     id="namedview141"
     showgrid="false"
     inkscape:zoom="6.9532167"
     inkscape:cx="48"
     inkscape:cy="38.27783"
     inkscape:window-x="66"
     inkscape:window-y="109"
     inkscape:window-maximized="0"
     inkscape:current-layer="svg2408" />
  <defs
     id="defs2410">
    <linearGradient
       id="linearGradient4699">
      <stop
         id="stop4701"
         style="stop-color:#c3b194;stop-opacity:1"
         offset="0" />
      <stop
         id="stop4703"
         style="stop-color:#615137;stop-opacity:1"
         offset="1" />
    </linearGradient>
    <linearGradient
       id="linearGradient3670">
      <stop
         id="stop3672"
         style="stop-color:#673c1c;stop-opacity:1"
         offset="0" />
      <stop
         id="stop3674"
         style="stop-color:#b87443;stop-opacity:1"
         offset="1" />
    </linearGradient>
    <linearGradient
       id="linearGradient3224">
      <stop
         id="stop3226"
         style="stop-color:#e0d8b8;stop-opacity:1"
         offset="0" />
      <stop
         id="stop3228"
         style="stop-color:#b6a357;stop-opacity:1"
         offset="1" />
    </linearGradient>
    <linearGradient
       x1="45.447727"
       y1="92.539597"
       x2="45.447727"
       y2="7.0165396"
       id="ButtonShadow"
       gradientUnits="userSpaceOnUse"
       gradientTransform="scale(1.0058652,0.994169)">
      <stop
         id="stop3750"
         style="stop-color:#000000;stop-opacity:1"
         offset="0" />
      <stop
         id="stop3752"
         style="stop-color:#000000;stop-opacity:0.58823532"
         offset="1" />
    </linearGradient>
    <linearGradient
       id="linearGradient3737">
      <stop
         id="stop3739"
         style="stop-color:#ffffff;stop-opacity:1"
         offset="0" />
      <stop
         id="stop3741"
         style="stop-color:#ffffff;stop-opacity:0"
         offset="1" />
    </linearGradient>
    <filter
       color-interpolation-filters="sRGB"
       id="filter3174">
      <feGaussianBlur
         id="feGaussianBlur3176"
         stdDeviation="1.71" />
    </filter>
    <linearGradient
       x1="36.357143"
       y1="6"
       x2="36.357143"
       y2="63.893143"
       id="linearGradient3188"
       xlink:href="#linearGradient3737"
       gradientUnits="userSpaceOnUse" />
    <radialGradient
       cx="47.098362"
       cy="78.286942"
       r="38.957481"
       fx="47.098362"
       fy="78.286942"
       id="radialGradient3205"
       xlink:href="#linearGradient3224"
       gradientUnits="userSpaceOnUse"
       gradientTransform="matrix(2.206273,0,-1.566824e-8,1.3123934,-56.813483,-24.218731)" />
    <linearGradient
       id="linearGradient3737-7">
      <stop
         id="stop3739-2"
         style="stop-color:#ffffff;stop-opacity:1"
         offset="0" />
      <stop
         id="stop3741-7"
         style="stop-color:#ffffff;stop-opacity:0"
         offset="1" />
    </linearGradient>
    <radialGradient
       cx="48"
       cy="90.171875"
       r="42"
       fx="48"
       fy="90.171875"
       id="radialGradient2874"
       xlink:href="#linearGradient3737-7"
       gradientUnits="userSpaceOnUse"
       gradientTransform="matrix(1.1573129,0,0,0.99590774,-7.551021,0.1971319)" />
    <linearGradient
       x1="48"
       y1="90"
       x2="48"
       y2="5.9877172"
       id="linearGradient3668"
       xlink:href="#linearGradient3670"
       gradientUnits="userSpaceOnUse" />
    <linearGradient
       id="linearGradient3737-40">
      <stop
         id="stop3739-7"
         style="stop-color:#ffffff;stop-opacity:1"
         offset="0" />
      <stop
         id="stop3741-9"
         style="stop-color:#ffffff;stop-opacity:0"
         offset="1" />
    </linearGradient>
    <clipPath
       id="clipPath3613-2">
      <rect
         width="84"
         height="84"
         rx="6"
         ry="6"
         x="6"
         y="6"
         id="rect3615-7"
         style="fill:#ffffff;fill-opacity:1;fill-rule:nonzero;stroke:none" />
    </clipPath>
    <filter
       x="-0.192"
       y="-0.192"
       width="1.3839999"
       height="1.3839999"
       color-interpolation-filters="sRGB"
       id="filter3794-6">
      <feGaussianBlur
         id="feGaussianBlur3796-2"
         stdDeviation="5.28" />
    </filter>
    <linearGradient
       x1="48"
       y1="20.220806"
       x2="48"
       y2="138.66119"
       id="linearGradient2881"
       xlink:href="#linearGradient3737-40"
       gradientUnits="userSpaceOnUse" />
    <linearGradient
       x1="45.447727"
       y1="92.539597"
       x2="45.447727"
       y2="7.0165396"
       id="ButtonShadow-0"
       gradientUnits="userSpaceOnUse"
       gradientTransform="matrix(1.0058652,0,0,0.994169,100,0)">
      <stop
         id="stop3750-8"
         style="stop-color:#000000;stop-opacity:1"
         offset="0" />
      <stop
         id="stop3752-5"
         style="stop-color:#000000;stop-opacity:0.58823532"
         offset="1" />
    </linearGradient>
    <linearGradient
       x1="32.251034"
       y1="6.1317081"
       x2="32.251034"
       y2="90.238609"
       id="linearGradient3780"
       xlink:href="#ButtonShadow-0"
       gradientUnits="userSpaceOnUse"
       gradientTransform="matrix(1.0238095,0,0,1.0119048,-1.1428571,-98.071429)" />
    <linearGradient
       x1="32.251034"
       y1="6.1317081"
       x2="32.251034"
       y2="90.238609"
       id="linearGradient3772"
       xlink:href="#ButtonShadow-0"
       gradientUnits="userSpaceOnUse"
       gradientTransform="matrix(1.0238095,0,0,1.0119048,-1.1428571,-98.071429)" />
    <linearGradient
       x1="32.251034"
       y1="6.1317081"
       x2="32.251034"
       y2="90.238609"
       id="linearGradient3725"
       xlink:href="#ButtonShadow-0"
       gradientUnits="userSpaceOnUse"
       gradientTransform="matrix(1.0238095,0,0,1.0119048,-1.1428571,-98.071429)" />
    <linearGradient
       x1="32.251034"
       y1="6.1317081"
       x2="32.251034"
       y2="90.238609"
       id="linearGradient3721"
       xlink:href="#ButtonShadow-0"
       gradientUnits="userSpaceOnUse"
       gradientTransform="translate(0,-97)" />
    <linearGradient
       x1="32.251034"
       y1="6.1317081"
       x2="32.251034"
       y2="90.238609"
       id="linearGradient3071"
       xlink:href="#ButtonShadow-0"
       gradientUnits="userSpaceOnUse"
       gradientTransform="matrix(1.0238095,0,0,1.0119048,-1.1428571,-98.071429)" />
    <linearGradient
       id="linearGradient3674">
      <stop
         id="stop3676"
         style="stop-color:#000000;stop-opacity:1"
         offset="0" />
      <stop
         id="stop3678-4"
         style="stop-color:#000000;stop-opacity:0"
         offset="1" />
    </linearGradient>
    <linearGradient
       id="linearGradient3581">
      <stop
         id="stop3583"
         style="stop-color:#ffffff;stop-opacity:1"
         offset="0" />
      <stop
         id="stop3585"
         style="stop-color:#ffffff;stop-opacity:0"
         offset="1" />
    </linearGradient>
    <linearGradient
       id="BlackTransparent"
       gradientUnits="userSpaceOnUse">
      <stop
         id="stop12"
         style="stop-color:#000000;stop-opacity:1"
         offset="0" />
      <stop
         id="stop14"
         style="stop-color:#000000;stop-opacity:0"
         offset="1" />
    </linearGradient>
    <linearGradient
       x1="131.29102"
       y1="77.089378"
       x2="153.84979"
       y2="77.089378"
       id="linearGradient3975"
       xlink:href="#linearGradient3501"
       gradientUnits="userSpaceOnUse" />
    <linearGradient
       id="linearGradient3501">
      <stop
         id="stop3503"
         style="stop-color:#9a3030;stop-opacity:1"
         offset="0" />
      <stop
         id="stop3505"
         style="stop-color:#5b1c1c;stop-opacity:1"
         offset="1" />
    </linearGradient>
    <linearGradient
       x1="131.29102"
       y1="77.089378"
       x2="153.84979"
       y2="77.089378"
       id="linearGradient3977"
       xlink:href="#linearGradient3509"
       gradientUnits="userSpaceOnUse" />
    <linearGradient
       id="linearGradient3509">
      <stop
         id="stop3511"
         style="stop-color:#921616;stop-opacity:1"
         offset="0" />
      <stop
         id="stop3513"
         style="stop-color:#3b0808;stop-opacity:1"
         offset="1" />
    </linearGradient>
    <filter
       x="-0.66366285"
       y="-0.038064804"
       width="2.3273256"
       height="1.0761296"
       color-interpolation-filters="sRGB"
       id="filter3526">
      <feGaussianBlur
         id="feGaussianBlur3528"
         stdDeviation="0.98809091" />
    </filter>
    <linearGradient
       id="linearGradient3411">
      <stop
         id="stop3413"
         style="stop-color:#797979;stop-opacity:1"
         offset="0" />
      <stop
         id="stop3423"
         style="stop-color:#a1a1a1;stop-opacity:1"
         offset="0.21906407" />
      <stop
         id="stop3419"
         style="stop-color:#cdcdcd;stop-opacity:1"
         offset="0.34999999" />
      <stop
         id="stop3421"
         style="stop-color:#9b9b9b;stop-opacity:1"
         offset="0.47209707" />
      <stop
         id="stop3415"
         style="stop-color:#000000;stop-opacity:1"
         offset="1" />
    </linearGradient>
    <linearGradient
       id="linearGradient3737-48">
      <stop
         id="stop3739-5"
         style="stop-color:#ffffff;stop-opacity:1"
         offset="0" />
      <stop
         id="stop3741-79"
         style="stop-color:#101010;stop-opacity:1"
         offset="1" />
    </linearGradient>
    <linearGradient
       x1="35.289513"
       y1="132.69209"
       x2="122.40135"
       y2="71.475204"
       id="linearGradient3743-2"
       xlink:href="#linearGradient3674"
       gradientUnits="userSpaceOnUse"
       gradientTransform="matrix(0.7096226,0,0,0.7096226,-0.821028,0.1362159)" />
    <linearGradient
       x1="57.900513"
       y1="106.70871"
       x2="114.43932"
       y2="49.359089"
       id="linearGradient3248"
       xlink:href="#linearGradient3674"
       gradientUnits="userSpaceOnUse"
       gradientTransform="matrix(0.67830124,-0.20849859,0.20849859,0.67830124,3.4017507,9.5203684)" />
    <linearGradient
       x1="57.900513"
       y1="106.70871"
       x2="114.43932"
       y2="49.359089"
       id="linearGradient4658"
       xlink:href="#linearGradient3674"
       gradientUnits="userSpaceOnUse"
       gradientTransform="matrix(0.61884134,-0.34727457,0.34727457,0.61884134,-7.8887866,22.077825)" />
    <linearGradient
       x1="144.87347"
       y1="97.697334"
       x2="145.06097"
       y2="103.91386"
       id="linearGradient4690"
       xlink:href="#BlackTransparent"
       gradientUnits="userSpaceOnUse"
       gradientTransform="matrix(0.65390171,0.17521249,-0.17521249,0.65390171,-15.108774,-26.729696)" />
    <linearGradient
       x1="57"
       y1="69"
       x2="62"
       y2="71"
       id="linearGradient4705"
       xlink:href="#linearGradient4699"
       gradientUnits="userSpaceOnUse"
       gradientTransform="matrix(0.95398436,0,0,0.95398436,2.3928132,3.6732826)" />
    <linearGradient
       x1="140"
       y1="88"
       x2="150"
       y2="88"
       id="linearGradient4725"
       xlink:href="#linearGradient3411"
       gradientUnits="userSpaceOnUse"
       gradientTransform="matrix(0.64884996,0.17506571,-0.16052834,0.60325852,-15.398754,-22.502446)" />
    <linearGradient
       x1="197.9899"
       y1="62.225395"
       x2="212.13203"
       y2="62.225395"
       id="linearGradient4727"
       xlink:href="#linearGradient3737-48"
       gradientUnits="userSpaceOnUse"
       gradientTransform="matrix(0.45880622,0.12379015,-0.22702137,0.85313641,-15.398754,-22.502446)" />
    <linearGradient
       x1="141"
       y1="81.75"
       x2="149"
       y2="81.75"
       id="linearGradient4749"
       xlink:href="#BlackTransparent"
       gradientUnits="userSpaceOnUse"
       gradientTransform="matrix(1.247211,0,0,1,-35.862183,0)" />
    <linearGradient
       x1="141"
       y1="81.75"
       x2="149"
       y2="81.75"
       id="linearGradient4751"
       xlink:href="#linearGradient3581"
       gradientUnits="userSpaceOnUse"
       gradientTransform="matrix(1.247211,0,0,-1,-35.862183,164.98438)" />
  </defs>
  <metadata
     id="metadata2413">
    <rdf:RDF>
      <cc:Work
         rdf:about="">
        <dc:format>image/svg+xml</dc:format>
        <dc:type
           rdf:resource="http://purl.org/dc/dcmitype/StillImage" />
        <dc:title />
      </cc:Work>
    </rdf:RDF>
  </metadata>
  <g
     id="layer2"
     style="display:none">
    <rect
       width="86"
       height="85"
       rx="6"
       ry="6"
       x="5"
       y="7"
       id="rect3745"
       style="opacity:0.9;fill:url(#ButtonShadow);fill-opacity:1;fill-rule:nonzero;stroke:none;filter:url(#filter3174)" />
  </g>
  <path
     style="fill:#000000"
     d=""
     id="path3155"
     inkscape:connector-curvature="0" />
  <path
     style="fill:#000000"
     d=""
     id="path3153"
     inkscape:connector-curvature="0" />
  <path
     style="fill:#000000"
     d=""
     id="path3149"
     inkscape:connector-curvature="0" />
  <rect
     style="fill:#ffffff;fill-opacity:1;stroke:none"
     id="rect3955"
     width="73.220337"
     height="64.271187"
     x="14.237288"
     y="15.457627" />
  <path
     inkscape:connector-curvature="0"
     id="path3165"
     d="M 0,47.999998 0,0 47.999992,0 96,0 96,47.999998 96,96 47.999992,96 0,96 0,47.999998 z m 39.841267,18.051433 c 1.160866,-0.576659 1.783728,-0.992735 1.783728,-1.191549 0,-0.390763 -1.994988,-2.28814 -2.300791,-2.188216 -0.266498,0.08708 -2.019023,3.914454 -1.888899,4.12521 0.170437,0.276052 0.646588,0.128524 2.405962,-0.745445 z M 53.381018,65.33859 c 3.737145,-0.483729 9.360489,-2.02771 9.558336,-2.624408 0.03504,-0.105635 -0.383454,-0.516027 -0.92995,-0.911983 -4.16475,-3.017488 -3.475927,-8.020628 1.424502,-10.346637 3.2268,-1.531611 7.355743,-1.21259 10.27236,0.793681 1.15245,0.792744 1.256532,0.733381 1.8618,-1.061742 0.580632,-1.722074 0.709612,-4.73288 0.284609,-6.643206 -0.40864,-1.836799 -1.529064,-4.06904 -2.903644,-5.78506 -1.328868,-1.658936 -1.958585,-2.250297 -2.307357,-2.166827 -0.421219,0.100805 -27.610429,28.119304 -27.610429,28.45257 0,0.431216 0.815433,0.527058 4.724772,0.555338 2.116482,0.01531 4.252541,-0.08408 5.625001,-0.261726 z M 43.351465,63.805694 c 0.391067,-0.381864 0.71103,-0.780376 0.71103,-0.885578 0,-0.384551 -2.329781,-2.545115 -2.744452,-2.545115 -0.381036,0 -1.568047,1.223074 -1.568047,1.615684 0,0.276532 2.323869,2.509314 2.611677,2.509314 0.153319,0 0.598725,-0.312437 0.989792,-0.694305 z m -4.856,-0.783116 c 0.558345,-1.203822 1.509553,-2.224769 14.250005,-15.294822 7.508447,-7.702695 13.623457,-14.10426 13.58891,-14.225704 -0.101287,-0.356037 -3.379408,-1.909229 -5.550232,-2.629723 -17.025779,-5.65085 -37.710695,1.36229 -40.459496,13.717643 -0.495969,2.229287 -0.300995,4.932989 0.509584,7.066277 0.843098,2.218883 2.089991,4.039279 4.07624,5.951104 1.927221,1.855001 4.18158,3.394079 6.685002,4.563936 1.89784,0.886865 5.371348,2.132376 5.962487,2.137988 0.2377,0.0023 0.518266,-0.382812 0.9375,-1.286699 z m -7.948641,-4.884405 c -0.536789,-0.536789 -0.580366,-0.665669 -0.466287,-1.37907 0.38856,-2.429925 3.555833,-4.915352 6.263817,-4.915352 1.069324,0 1.233353,0.05259 1.640626,0.526078 0.566375,0.658454 0.569006,1.278397 0.01052,2.477725 -0.901689,1.936321 -3.479573,3.660129 -5.69165,3.805951 -1.103162,0.07273 -1.196281,0.04541 -1.757023,-0.515332 z m -4.578077,-5.761295 c -2.219827,-1.166575 -2.954567,-3.637959 -1.711945,-5.758333 1.463673,-2.497565 5.225925,-2.531199 6.75352,-0.06037 1.29365,2.092428 0.585423,4.653266 -1.594478,5.765368 -0.880601,0.44925 -2.641871,0.4765 -3.447097,0.05334 z m 5.625,-9.044853 c -3.428367,-1.587283 -2.971564,-6.649225 0.679074,-7.525 1.879708,-0.450934 3.695455,0.381606 4.543396,2.083204 0.539,1.081632 0.614968,1.888865 0.282261,2.999341 -0.669489,2.234562 -3.367822,3.431813 -5.504731,2.442455 z m 9.644155,-4.285151 c -1.324658,-0.671715 -2.032339,-1.671792 -2.177368,-3.076991 -0.131513,-1.274232 0.151715,-2.208978 0.942077,-3.109149 1.584553,-1.804704 4.472716,-1.804704 6.057268,0 1.195986,1.362155 1.335379,3.428372 0.329233,4.880215 -0.675363,0.974533 -2.236765,1.821551 -3.357867,1.821551 -0.475592,0 -1.170555,-0.199816 -1.793343,-0.515626 z m 11.449591,-0.533307 c -1.503691,-0.651319 -2.437497,-2.081176 -2.437497,-3.732315 0,-3.166603 3.310988,-5.015719 6.077745,-3.394291 1.881447,1.102597 2.484633,3.588516 1.325608,5.463204 -1.02715,1.661374 -3.250866,2.406251 -4.965856,1.663402 z m 5.755272,9.808173 c 7.30179,-7.505851 13.430842,-13.937406 13.620142,-14.29235 0.952422,-1.785944 -1.337926,-3.524684 -3.023118,-2.295017 -0.639038,0.466305 -26.84637,27.384023 -27.112603,27.847532 -0.126946,0.221011 0.151949,0.600401 1.17263,1.595154 1.223036,1.191973 1.370752,1.282907 1.703083,1.048436 0.200141,-0.141212 6.33808,-6.397899 13.639866,-13.903755 z"
     style="fill:#ff2a2a" />
</svg>
