<?xml version="1.0" encoding="UTF-8" standalone="no"?>
<!-- Created with Inkscape (http://www.inkscape.org/) -->

<svg
   xmlns:dc="http://purl.org/dc/elements/1.1/"
   xmlns:cc="http://creativecommons.org/ns#"
   xmlns:rdf="http://www.w3.org/1999/02/22-rdf-syntax-ns#"
   xmlns:svg="http://www.w3.org/2000/svg"
   xmlns="http://www.w3.org/2000/svg"
   xmlns:xlink="http://www.w3.org/1999/xlink"
   xmlns:sodipodi="http://sodipodi.sourceforge.net/DTD/sodipodi-0.dtd"
   xmlns:inkscape="http://www.inkscape.org/namespaces/inkscape"
   version="1.0"
   width="96"
   height="96"
   id="svg2408"
   inkscape:version="0.48.4 r9939"
   sodipodi:docname="netbeans.svg">
  <sodipodi:namedview
     pagecolor="#ffffff"
     bordercolor="#666666"
     borderopacity="1"
     objecttolerance="10"
     gridtolerance="10"
     guidetolerance="10"
     inkscape:pageopacity="0"
     inkscape:pageshadow="2"
     inkscape:window-width="1366"
     inkscape:window-height="691"
     id="namedview65"
     showgrid="false"
     inkscape:zoom="2.4583333"
     inkscape:cx="48"
     inkscape:cy="48"
     inkscape:window-x="0"
     inkscape:window-y="24"
     inkscape:window-maximized="1"
     inkscape:current-layer="svg2408" />
  <defs
     id="defs2410">
    <linearGradient
       id="linearGradient3859">
      <stop
         id="stop3861"
         style="stop-color:#fffc6d;stop-opacity:1"
         offset="0" />
      <stop
         id="stop3863"
         style="stop-color:#ffffff;stop-opacity:0"
         offset="1" />
    </linearGradient>
    <linearGradient
       x1="45.447727"
       y1="92.539597"
       x2="45.447727"
       y2="7.0165396"
       id="ButtonShadow"
       gradientUnits="userSpaceOnUse"
       gradientTransform="scale(1.0058652,0.994169)">
      <stop
         id="stop3750"
         style="stop-color:#000000;stop-opacity:1"
         offset="0" />
      <stop
         id="stop3752"
         style="stop-color:#000000;stop-opacity:0.58823532"
         offset="1" />
    </linearGradient>
    <linearGradient
       id="linearGradient3737">
      <stop
         id="stop3739"
         style="stop-color:#ffffff;stop-opacity:1"
         offset="0" />
      <stop
         id="stop3741"
         style="stop-color:#ffffff;stop-opacity:0"
         offset="1" />
    </linearGradient>
    <linearGradient
       id="linearGradient3700">
      <stop
         id="stop3702"
         style="stop-color:#a12225;stop-opacity:1"
         offset="0" />
      <stop
         id="stop3704"
         style="stop-color:#ce1b1f;stop-opacity:1"
         offset="1" />
    </linearGradient>
    <filter
       color-interpolation-filters="sRGB"
       id="filter3174">
      <feGaussianBlur
         id="feGaussianBlur3176"
         stdDeviation="1.71" />
    </filter>
    <linearGradient
       x1="36.357143"
       y1="6"
       x2="36.357143"
       y2="63.893143"
       id="linearGradient3188"
       xlink:href="#linearGradient3737"
       gradientUnits="userSpaceOnUse" />
    <filter
       x="-0.192"
       y="-0.192"
       width="1.3839999"
       height="1.3839999"
       color-interpolation-filters="sRGB"
       id="filter3794">
      <feGaussianBlur
         id="feGaussianBlur3796"
         stdDeviation="5.28" />
    </filter>
    <linearGradient
       x1="48"
       y1="20.220806"
       x2="48"
       y2="138.66119"
       id="linearGradient3613"
       xlink:href="#linearGradient3859"
       gradientUnits="userSpaceOnUse" />
    <radialGradient
       cx="48"
       cy="90.171875"
       r="42"
       fx="48"
       fy="90.171875"
       id="radialGradient3619"
       xlink:href="#linearGradient3737"
       gradientUnits="userSpaceOnUse"
       gradientTransform="matrix(1.1573129,0,0,0.99590774,-7.5510206,0.19713193)" />
    <clipPath
       id="clipPath3613">
      <rect
         width="84"
         height="84"
         rx="6"
         ry="6"
         x="6"
         y="6"
         id="rect3615"
         style="fill:#ffffff;fill-opacity:1;fill-rule:nonzero;stroke:none" />
    </clipPath>
    <linearGradient
       x1="48"
       y1="90"
       x2="48"
       y2="5.9877172"
       id="linearGradient3617"
       xlink:href="#linearGradient3700"
       gradientUnits="userSpaceOnUse" />
    <linearGradient
       x1="45.447727"
       y1="92.539597"
       x2="45.447727"
       y2="7.0165396"
       id="ButtonShadow-0"
       gradientUnits="userSpaceOnUse"
       gradientTransform="matrix(1.0058652,0,0,0.994169,100,0)">
      <stop
         id="stop3750-8"
         style="stop-color:#000000;stop-opacity:1"
         offset="0" />
      <stop
         id="stop3752-5"
         style="stop-color:#000000;stop-opacity:0.58823532"
         offset="1" />
    </linearGradient>
    <linearGradient
       x1="32.251034"
       y1="6.1317081"
       x2="32.251034"
       y2="90.238609"
       id="linearGradient3780"
       xlink:href="#ButtonShadow-0"
       gradientUnits="userSpaceOnUse"
       gradientTransform="matrix(1.0238095,0,0,1.0119048,-1.1428571,-98.071429)" />
    <linearGradient
       x1="32.251034"
       y1="6.1317081"
       x2="32.251034"
       y2="90.238609"
       id="linearGradient3772"
       xlink:href="#ButtonShadow-0"
       gradientUnits="userSpaceOnUse"
       gradientTransform="matrix(1.0238095,0,0,1.0119048,-1.1428571,-98.071429)" />
    <linearGradient
       x1="32.251034"
       y1="6.1317081"
       x2="32.251034"
       y2="90.238609"
       id="linearGradient3725"
       xlink:href="#ButtonShadow-0"
       gradientUnits="userSpaceOnUse"
       gradientTransform="matrix(1.0238095,0,0,1.0119048,-1.1428571,-98.071429)" />
    <linearGradient
       x1="32.251034"
       y1="6.1317081"
       x2="32.251034"
       y2="90.238609"
       id="linearGradient3721"
       xlink:href="#ButtonShadow-0"
       gradientUnits="userSpaceOnUse"
       gradientTransform="translate(0,-97)" />
    <linearGradient
       x1="32.251034"
       y1="6.1317081"
       x2="32.251034"
       y2="90.238609"
       id="linearGradient3026"
       xlink:href="#ButtonShadow-0"
       gradientUnits="userSpaceOnUse"
       gradientTransform="matrix(1.0238095,0,0,1.0119048,-1.1428571,-98.071429)" />
    <linearGradient
       id="linearGradient3697">
      <stop
         id="stop3699"
         style="stop-color:#ffffff;stop-opacity:1"
         offset="0" />
      <stop
         id="stop3701"
         style="stop-color:#ffffff;stop-opacity:0"
         offset="1" />
    </linearGradient>
    <linearGradient
       x1="96"
       y1="16"
       x2="16"
       y2="64"
       id="linearGradient2882"
       xlink:href="#linearGradient3697"
       gradientUnits="userSpaceOnUse" />
    <linearGradient
       id="linearGradient12684-9">
      <stop
         id="stop12686-8"
         style="stop-color:#ffffff;stop-opacity:1"
         offset="0" />
      <stop
         id="stop12692-9"
         style="stop-color:#ffffff;stop-opacity:0.84536082"
         offset="0.34999999" />
      <stop
         id="stop12688-3"
         style="stop-color:#ffffff;stop-opacity:0"
         offset="1" />
    </linearGradient>
    <linearGradient
       x1="48"
       y1="8"
       x2="48"
       y2="56"
       id="linearGradient3105"
       xlink:href="#linearGradient12684-9"
       gradientUnits="userSpaceOnUse"
       gradientTransform="translate(-100,0)" />
  </defs>
  <metadata
     id="metadata2413">
    <rdf:RDF>
      <cc:Work
         rdf:about="">
        <dc:format>image/svg+xml</dc:format>
        <dc:type
           rdf:resource="http://purl.org/dc/dcmitype/StillImage" />
        <dc:title />
      </cc:Work>
    </rdf:RDF>
  </metadata>
  <g
     id="layer2"
     style="display:none">
    <rect
       width="86"
       height="85"
       rx="6"
       ry="6"
       x="5"
       y="7"
       id="rect3745"
       style="opacity:0.9;fill:url(#ButtonShadow);fill-opacity:1;fill-rule:nonzero;stroke:none;filter:url(#filter3174)" />
  </g>
  <rect
     style="fill:#aa0000;fill-opacity:1;stroke:none"
     id="rect3042"
     width="96"
     height="96"
     x="0"
     y="-2.9976022e-15" />
  <path
     style="fill:#ffffff;fill-rule:evenodd"
     id="path2875"
     inkscape:connector-curvature="0"
     d="m 40.905716,15.813559 c -0.05991,-0.0097 -0.113846,0.01142 -0.15625,0.03125 -0.339234,0.180581 -1.709718,0.174137 -1.03125,1.375 0.701686,1.199574 1.385145,0.678469 1.90625,0 0.454838,-0.594788 -0.299358,-1.338568 -0.71875,-1.40625 z m 3.3125,0.1875 c -2.240493,0 -1.23276,1.881919 -0.375,2.062501 0.860339,0.18187 3.084265,0.878226 6.34375,1.21875 3.259486,0.339234 7.220515,1.19313 8.78125,1.375 1.540097,0.158655 4.276095,1.185097 5.65625,1.34375 1.381444,0.181871 7.048023,0.878227 8.40625,1.21875 1.381444,0.362451 1.89159,-1.700049 1.03125,-2.0625 -0.860339,-0.339234 -2.742917,-0.692016 -5.84375,-1.03125 -3.077614,-0.340524 -4.627114,-1.028847 -5.125,-1.1875 -0.521106,-0.180581 -2.923315,-0.185097 -3.625,-0.34375 -0.679758,-0.181871 -4.11504,-0.689613 -5.8125,-1.187501 -1.720678,-0.521105 -7.220225,-1.40625 -9.4375,-1.40625 z m -6.25,1.4375 c -0.265853,-0.0057 -0.526296,0.04019 -0.65625,0.125 -0.521105,0.339235 -3.233411,1.882743 -4.09375,2.562501 -0.860338,0.679758 -3.081677,2.065726 -4.28125,2.40625 -1.199574,0.340524 -6.194604,3.455387 -8.59375,4.65625 -2.422364,1.199573 0.519176,1.364854 1.71875,0.84375 1.199573,-0.521105 7.033838,-3.589709 9.09375,-4.8125 2.059913,-1.200862 4.972627,-2.899807 7.03125,-4.28125 1.543966,-1.036083 0.578809,-1.482951 -0.21875,-1.500001 z m 2.78125,1.750001 c -0.495308,0.127213 -0.934041,0.598266 -0.84375,0.9375 0.18187,0.679759 0.6875,3.255814 0.6875,5.65625 0,2.400437 0.34375,6.051249 0.34375,7.75 0,0.619562 0.07107,1.567172 0.1875,2.59375 -1.516561,-0.43015 -3.09395,-0.896099 -4.96875,-1.46875 -4.594493,-1.403371 -12.231773,-3.719572 -14.15625,-4.21875 -1.924477,-0.497887 -2.286289,0.191959 -1.71875,0.9375 0.566251,0.770048 1.557473,0.788701 5.5625,2.125 4.028244,1.358226 11.853023,3.64312 14.34375,4.59375 0.411889,0.161128 0.808602,0.335111 1.21875,0.5 0.113426,1.023546 0.21875,1.983496 0.21875,2.65625 0,1.879331 0.14658,2.75 1.1875,2.75 1.018993,0 0.6875,-1.387258 0.6875,-2.40625 0,-0.380904 -0.01208,-1.341187 -0.03125,-2.21875 1.340164,0.499721 2.61232,0.918082 3.78125,1.03125 2.105057,0.181871 2.318235,-1.917451 -0.375,-2.6875 -0.991618,-0.277231 -2.214289,-0.598969 -3.4375,-0.9375 0.009,-0.402925 0.02679,-0.73167 0.0625,-0.84375 0.180582,-0.521104 -0.16188,-3.452162 -0.34375,-4.3125 -0.180582,-0.86034 -0.5,-3.591822 -0.5,-5.3125 0,-1.720678 -0.348266,-3.938798 -0.6875,-6 -0.170262,-1.029957 -0.723442,-1.252213 -1.21875,-1.125 z m 35.9375,2.5625 c -0.517394,-0.0032 -0.90625,0.203452 -0.90625,1.40625 0,1.901259 1.36187,1.90871 2.3125,1.34375 0.95063,-0.566251 0.57563,-2.65625 -0.375,-2.65625 -0.356486,0 -0.720813,-0.09184 -1.03125,-0.09375 z m -2.125,2.8125 c -0.348928,-0.0288 -0.84834,0.143514 -1.28125,0.5 -1.13121,0.973846 -4.594991,3.091823 -7.0625,4.8125 -2.489437,1.720678 -7.079274,4.7612 -8.4375,5.53125 -1.33501,0.770048 -3.064322,1.73558 -4.21875,2.6875 -1.13121,0.973847 -0.719388,2.683217 1,2.09375 1.720679,-0.564961 3.438032,-1.500533 4.59375,-2.65625 1.13121,-1.155718 2.283072,-1.939379 3.4375,-2.6875 1.154428,-0.770049 9.935573,-7.281783 11.65625,-8.4375 1.074618,-1.188287 0.894047,-1.795745 0.3125,-1.84375 z m 2.5625,1.28125 c -0.768758,0 -0.96875,0.961192 -0.96875,2.5 l 0,12.0625 c 0,1.516879 -0.0056,2.292983 -0.1875,4.21875 -0.203798,1.901259 -0.1875,9.949291 -0.1875,11.46875 0,1.538807 0.0112,2.483702 0.78125,2.6875 0.768759,0.180581 0.952452,-0.756162 1.15625,-2.09375 0.180581,-1.358227 0.5625,-4.604313 0.5625,-7.09375 0,-2.492017 -0.384379,-4.01812 0,-4.96875 0.38567,-0.951919 0.369371,-2.117975 0.1875,-4.8125 -0.202509,-2.672598 -0.578798,-10.148749 -0.375,-11.28125 0.180581,-1.154428 -0.221918,-2.6875 -0.96875,-2.6875 z m -59.1875,2.875 c -1.018993,0.181871 -1.215057,0.512257 -1.375,1.53125 -0.180581,1.042209 1.014661,1.576686 1.875,0.875 0.860339,-0.679758 0.54092,-2.564903 -0.5,-2.40625 z m 0.46875,4.53125 c -0.492405,0.08497 -0.96875,0.525213 -0.96875,1.125 0,1.199573 0.66317,8.234701 0.84375,9.09375 0.158654,0.860339 0.84375,4.462306 0.84375,5.84375 0,1.381444 0.692016,3.263371 1.03125,4.125 0.339234,0.85905 0.01015,4.136443 0.53125,6.71875 0.497888,2.56038 1.349379,0.330379 1.53125,-0.53125 0.180581,-0.861629 -0.1875,-2.581677 -0.1875,-3.78125 0,-1.200864 -0.13063,-3.263548 -0.3125,-4.28125 -0.158653,-1.04221 -1.03688,-4.485524 -1.21875,-5.84375 -0.157363,-1.381444 -0.319419,-3.251298 -0.5,-5.3125 -0.158653,-2.059912 -0.341346,-4.647403 -0.5,-6.1875 -0.09029,-0.781013 -0.601345,-1.05372 -1.09375,-0.96875 z m 32.3125,5.625 c -1.742605,0.203798 -1.745717,1.538702 -1.15625,2.875 0.384379,0.95063 2.303121,0.54567 2.6875,-0.40625 0.38438,-0.950629 0.188138,-2.650621 -1.53125,-2.46875 z m 0.0625,4.25 c -0.384178,0.07373 -0.681799,0.417246 -0.75,1.0625 -0.0992,1.062139 -0.005,2.684794 0.125,4 -1.341194,-0.509038 -2.599211,-0.932631 -3.0625,-1.09375 -1.019003,-0.340524 -1.521104,0.1722 -1,1.03125 0.521105,0.86034 1.699757,0.851493 2.71875,1.53125 0.323566,0.218117 0.978751,0.624226 1.71875,1.0625 0.24483,1.387574 0.663751,4.187098 0.53125,6.34375 -0.180581,2.582307 0.0032,5.841823 0.34375,7.5625 0.339233,1.720678 0.53125,6.175427 0.53125,7.375 0,1.202153 0.319419,2.721976 0.5,3.0625 0.158653,0.362452 1.216347,1.930573 1.375,-0.3125 0.180581,-2.219855 -0.02433,-6.682345 0.15625,-8.0625 0.158654,-1.380154 -0.160766,-4.660135 -0.5,-8.78125 -0.190459,-2.304992 -0.319472,-4.239209 -0.40625,-5.8125 1.027214,0.518268 2.055542,1.004067 2.8125,1.1875 2.058621,0.522394 6.355369,2.581677 9.09375,3.78125 2.738381,1.202153 7.023693,3.580855 8.5625,4.28125 1.538808,0.681049 1.397218,-1.907072 0.71875,-2.40625 -0.701686,-0.518525 -6.181056,-2.575871 -7.5625,-3.4375 -1.381444,-0.861629 -8.423498,-3.764194 -11.34375,-5.125 -0.732277,-0.348859 -1.570052,-0.714805 -2.40625,-1.0625 0,-1.018991 0.334718,-3.58408 -0.34375,-4.625 -0.324884,-1.07623 -1.172204,-1.685377 -1.8125,-1.5625 z m -7.28125,2.71875 c -0.536664,0.02654 -1.052064,0.312092 -1.1875,1.09375 -0.159943,1.018992 1.040282,1.182984 1.71875,0.84375 0.678469,-0.340524 0.678469,-1.725669 0,-1.90625 -0.169617,-0.03966 -0.352362,-0.0401 -0.53125,-0.03125 z m -2.09375,2.59375 c -0.301324,0.03116 -0.597415,0.159915 -0.8125,0.375 -0.860339,0.860339 -5.482774,3.967645 -8.0625,6.1875 -2.579728,2.241784 -7.054942,4.617442 -8.59375,6.15625 -1.538807,1.541387 0.543507,2.423952 1.5625,1.40625 1.042209,-1.0435 6.151919,-4.466645 8.03125,-6.03125 1.901259,-1.538808 6.370669,-4.802363 8.25,-6.34375 1.425945,-1.154105 0.528973,-1.843475 -0.375,-1.75 z m 35.15625,11.875 c -1.154428,0.203798 -1.729418,0.984291 -1.34375,1.9375 0.38438,0.94934 1.71629,1.149389 2.28125,0.5625 0.588177,-0.567539 0.216928,-2.681871 -0.9375,-2.5 z m -54.125,2.3125 c -0.542083,-0.0019 -1.137137,0.343503 -1.25,0.78125 -0.158653,0.681049 -0.004,2.222442 1.21875,2.0625 1.199573,-0.178002 1.363565,-1.544621 0.84375,-2.40625 -0.187192,-0.322144 -0.48725,-0.436344 -0.8125,-0.4375 z m 51.0625,1.03125 c -0.266679,-0.01272 -0.551948,0.06584 -0.8125,0.28125 -1.017703,0.838412 -2.405612,1.685395 -4.125,3.25 -1.720678,1.538808 -6.519176,5.323468 -7.71875,6.34375 -1.198283,1.04092 -1.718936,0.357773 -3.9375,2.9375 -2.241784,2.582307 0.142065,2.926065 0.84375,2.40625 0.679758,-0.522394 1.35841,-1.034476 2.21875,-1.375 0.859049,-0.362452 1.742442,-1.552363 3.28125,-3.09375 1.540096,-1.540097 2.766773,-1.081385 4.125,-2.9375 1.380154,-1.858693 4.804943,-5.23816 6.34375,-6.1875 1.153138,-0.714907 0.581287,-1.586848 -0.21875,-1.625 z m -48.53125,1.3125 c -0.991099,0.132292 -0.811322,1.073495 0.34375,1.71875 1.562026,0.859049 6.369846,3.413991 7.75,4.09375 1.358227,0.679758 2.731007,0.885321 3.75,1.5625 1.04092,0.681048 4.295911,2.385145 5.15625,2.90625 0.860339,0.522394 6.182347,3.257742 7.5625,3.9375 1.358227,0.702976 2.052355,-1.188322 1.53125,-1.6875 -0.519815,-0.521105 -1.387259,-0.697646 -2.40625,-1.21875 -1.04092,-0.496599 -4.804942,-2.232121 -6.34375,-3.09375 -1.540097,-0.861629 -4.811862,-2.570242 -6.53125,-3.25 -1.719388,-0.678468 -7.038354,-4.135321 -9.4375,-4.8125 -0.599787,-0.175744 -1.044634,-0.200347 -1.375,-0.15625 z m 28.3125,13.21875 c -0.497888,0.156074 -1.545436,1.204097 -0.84375,2.40625 0.678469,1.199573 1.704564,1.853887 2.40625,0.3125 0.678469,-1.538807 -1.041395,-2.90062 -1.5625,-2.71875 z" />
</svg>
