<?xml version="1.0" encoding="UTF-8" standalone="no"?>
<!-- Created with Inkscape (http://www.inkscape.org/) -->

<svg
   xmlns:dc="http://purl.org/dc/elements/1.1/"
   xmlns:cc="http://creativecommons.org/ns#"
   xmlns:rdf="http://www.w3.org/1999/02/22-rdf-syntax-ns#"
   xmlns:svg="http://www.w3.org/2000/svg"
   xmlns="http://www.w3.org/2000/svg"
   xmlns:xlink="http://www.w3.org/1999/xlink"
   xmlns:sodipodi="http://sodipodi.sourceforge.net/DTD/sodipodi-0.dtd"
   xmlns:inkscape="http://www.inkscape.org/namespaces/inkscape"
   version="1.0"
   width="96"
   height="96"
   id="svg2408"
   style="display:inline"
   inkscape:version="0.48.4 r9939"
   sodipodi:docname="onboard.svg">
  <sodipodi:namedview
     pagecolor="#ffffff"
     bordercolor="#666666"
     borderopacity="1"
     objecttolerance="10"
     gridtolerance="10"
     guidetolerance="10"
     inkscape:pageopacity="0"
     inkscape:pageshadow="2"
     inkscape:window-width="640"
     inkscape:window-height="480"
     id="namedview79"
     showgrid="false"
     inkscape:zoom="2.4583333"
     inkscape:cx="-53.542529"
     inkscape:cy="48"
     inkscape:window-x="604"
     inkscape:window-y="85"
     inkscape:window-maximized="0"
     inkscape:current-layer="svg2408" />
  <defs
     id="defs2410">
    <linearGradient
       id="linearGradient3862">
      <stop
         offset="0"
         style="stop-color:#f8de72;stop-opacity:1"
         id="stop3864" />
      <stop
         offset="1"
         style="stop-color:#f8de72;stop-opacity:1"
         id="stop3866" />
    </linearGradient>
    <linearGradient
       id="linearGradient4022">
      <stop
         id="stop4024"
         style="stop-color:#000000;stop-opacity:1"
         offset="0" />
      <stop
         id="stop4026"
         style="stop-color:#000000;stop-opacity:0"
         offset="1" />
    </linearGradient>
    <linearGradient
       id="linearGradient3979">
      <stop
         id="stop3982"
         style="stop-color:#fac217;stop-opacity:1"
         offset="0" />
      <stop
         id="stop3984"
         style="stop-color:#f8de72;stop-opacity:1"
         offset="1" />
    </linearGradient>
    <linearGradient
       id="linearGradient3997">
      <stop
         id="stop3999"
         style="stop-color:#ffffff;stop-opacity:1"
         offset="0" />
      <stop
         id="stop4001"
         style="stop-color:#ffffff;stop-opacity:0"
         offset="1" />
    </linearGradient>
    <linearGradient
       id="linearGradient3977">
      <stop
         id="stop3979"
         style="stop-color:#e1e1e1;stop-opacity:1"
         offset="0" />
      <stop
         id="stop3981"
         style="stop-color:#f5f5f5;stop-opacity:1"
         offset="1" />
    </linearGradient>
    <linearGradient
       id="linearGradient4941">
      <stop
         id="stop4943"
         style="stop-color:#2d88c8;stop-opacity:1"
         offset="0" />
      <stop
         id="stop4945"
         style="stop-color:#539fd5;stop-opacity:1"
         offset="1" />
    </linearGradient>
    <linearGradient
       x1="45.447727"
       y1="92.539597"
       x2="45.447727"
       y2="7.0165396"
       id="ButtonShadow"
       gradientUnits="userSpaceOnUse"
       gradientTransform="scale(1.0058652,0.994169)">
      <stop
         id="stop3750"
         style="stop-color:#000000;stop-opacity:1"
         offset="0" />
      <stop
         id="stop3752"
         style="stop-color:#000000;stop-opacity:0.58823532"
         offset="1" />
    </linearGradient>
    <linearGradient
       id="linearGradient3737">
      <stop
         id="stop3739"
         style="stop-color:#ffffff;stop-opacity:1"
         offset="0" />
      <stop
         id="stop3741"
         style="stop-color:#ffffff;stop-opacity:0"
         offset="1" />
    </linearGradient>
    <linearGradient
       id="linearGradient3700">
      <stop
         id="stop3702"
         style="stop-color:#2276c5;stop-opacity:1"
         offset="0" />
      <stop
         id="stop3704"
         style="stop-color:#69a9e6;stop-opacity:1"
         offset="1" />
    </linearGradient>
    <linearGradient
       x1="48"
       y1="90"
       x2="48"
       y2="5.9877172"
       id="linearGradient3706"
       xlink:href="#linearGradient3700"
       gradientUnits="userSpaceOnUse" />
    <linearGradient
       x1="36.357143"
       y1="6"
       x2="36.357143"
       y2="63.893143"
       id="linearGradient3188"
       xlink:href="#linearGradient3737"
       gradientUnits="userSpaceOnUse" />
    <filter
       color-interpolation-filters="sRGB"
       id="filter7725">
      <feGaussianBlur
         id="feGaussianBlur7727"
         stdDeviation="1.71" />
    </filter>
    <linearGradient
       x1="-34.399559"
       y1="92.08268"
       x2="-34.399559"
       y2="7"
       id="linearGradient7959"
       xlink:href="#ButtonShadow"
       gradientUnits="userSpaceOnUse"
       gradientTransform="translate(100,0)" />
    <linearGradient
       x1="48"
       y1="90"
       x2="48"
       y2="5.9877172"
       id="linearGradient8096"
       xlink:href="#linearGradient3977"
       gradientUnits="userSpaceOnUse"
       gradientTransform="matrix(0.5,0,0,0.5,3.0000004,45.000002)" />
    <linearGradient
       x1="32"
       y1="91"
       x2="32"
       y2="7.9458008"
       id="linearGradient3197"
       xlink:href="#ButtonShadow"
       gradientUnits="userSpaceOnUse" />
    <linearGradient
       x1="48"
       y1="90"
       x2="48"
       y2="5.9877172"
       id="linearGradient3975"
       xlink:href="#linearGradient4941"
       gradientUnits="userSpaceOnUse"
       gradientTransform="matrix(0.5,0,0,0.5,45.000004,45.000004)" />
    <linearGradient
       x1="48"
       y1="90"
       x2="48"
       y2="5.9877172"
       id="linearGradient3987"
       xlink:href="#linearGradient3977"
       gradientUnits="userSpaceOnUse"
       gradientTransform="matrix(0.5,0,0,0.5,45.000004,3.0000058)" />
    <linearGradient
       x1="24"
       y1="48"
       x2="24"
       y2="88"
       id="linearGradient4003"
       xlink:href="#linearGradient3997"
       gradientUnits="userSpaceOnUse" />
    <linearGradient
       x1="24"
       y1="48"
       x2="24"
       y2="88"
       id="linearGradient4007"
       xlink:href="#linearGradient3997"
       gradientUnits="userSpaceOnUse"
       gradientTransform="translate(42,-42)" />
    <linearGradient
       x1="24"
       y1="48"
       x2="24"
       y2="88"
       id="linearGradient4011"
       xlink:href="#linearGradient3997"
       gradientUnits="userSpaceOnUse"
       gradientTransform="translate(0,-42)" />
    <linearGradient
       x1="24"
       y1="48"
       x2="24"
       y2="88"
       id="linearGradient4015"
       xlink:href="#linearGradient3997"
       gradientUnits="userSpaceOnUse"
       gradientTransform="translate(42,0)" />
    <linearGradient
       x1="6"
       y1="27.000004"
       x2="48"
       y2="27.000004"
       id="linearGradient3986"
       xlink:href="#linearGradient3979"
       gradientUnits="userSpaceOnUse"
       gradientTransform="translate(-54.000004,-3.8146973e-6)" />
    <radialGradient
       cx="48"
       cy="69"
       r="42"
       fx="48"
       fy="69"
       id="radialGradient4028"
       xlink:href="#linearGradient4022"
       gradientUnits="userSpaceOnUse"
       gradientTransform="matrix(1.1428571,0,0,0.95238094,-6.8571427,-17.714285)" />
    <radialGradient
       cx="48"
       cy="69"
       r="42"
       fx="48"
       fy="69"
       id="radialGradient4032"
       xlink:href="#linearGradient4022"
       gradientUnits="userSpaceOnUse"
       gradientTransform="matrix(1.1428571,0,0,0.95238094,-6.8571427,24.285715)" />
    <linearGradient
       x1="32"
       y1="91"
       x2="32"
       y2="7"
       id="linearGradient3973"
       xlink:href="#ButtonShadow"
       gradientUnits="userSpaceOnUse" />
    <linearGradient
       x1="29"
       y1="93"
       x2="29"
       y2="6"
       id="linearGradient3982"
       xlink:href="#ButtonShadow"
       gradientUnits="userSpaceOnUse" />
    <linearGradient
       x1="22"
       y1="94"
       x2="22"
       y2="5"
       id="linearGradient3990"
       xlink:href="#ButtonShadow"
       gradientUnits="userSpaceOnUse" />
    <linearGradient
       x1="21"
       y1="95"
       x2="21"
       y2="4"
       id="linearGradient3998"
       xlink:href="#ButtonShadow"
       gradientUnits="userSpaceOnUse" />
    <radialGradient
       inkscape:collect="always"
       xlink:href="#linearGradient4022"
       id="radialGradient3060"
       gradientUnits="userSpaceOnUse"
       gradientTransform="matrix(1.1428571,0,0,0.95238094,-106.11138,53.16707)"
       cx="48"
       cy="69"
       fx="48"
       fy="69"
       r="42" />
    <radialGradient
       inkscape:collect="always"
       xlink:href="#linearGradient4022"
       id="radialGradient3063"
       gradientUnits="userSpaceOnUse"
       gradientTransform="matrix(1.1428571,0,0,0.95238094,-106.11138,-81.578692)"
       cx="48"
       cy="69"
       fx="48"
       fy="69"
       r="42" />
    <linearGradient
       inkscape:collect="always"
       xlink:href="#linearGradient3997"
       id="linearGradient3066"
       gradientUnits="userSpaceOnUse"
       gradientTransform="translate(-44.64407,6.5084745)"
       x1="24"
       y1="48"
       x2="24"
       y2="88" />
    <linearGradient
       inkscape:collect="always"
       xlink:href="#linearGradient3997"
       id="linearGradient3069"
       gradientUnits="userSpaceOnUse"
       gradientTransform="translate(-122.84746,-62.338983)"
       x1="24"
       y1="48"
       x2="24"
       y2="88" />
    <linearGradient
       inkscape:collect="always"
       xlink:href="#linearGradient3997"
       id="linearGradient3072"
       gradientUnits="userSpaceOnUse"
       gradientTransform="translate(-47.084748,-42.40678)"
       x1="24"
       y1="48"
       x2="24"
       y2="88" />
    <linearGradient
       inkscape:collect="always"
       xlink:href="#linearGradient3997"
       id="linearGradient3075"
       gradientUnits="userSpaceOnUse"
       x1="24"
       y1="48"
       x2="24"
       y2="88"
       gradientTransform="translate(-131.79661,16.677966)" />
  </defs>
  <metadata
     id="metadata2413">
    <rdf:RDF>
      <cc:Work
         rdf:about="">
        <dc:format>image/svg+xml</dc:format>
        <dc:type
           rdf:resource="http://purl.org/dc/dcmitype/StillImage" />
        <dc:title />
      </cc:Work>
    </rdf:RDF>
  </metadata>
  <rect
     style="fill:#f8de72;fill-opacity:1;stroke:none"
     id="rect3868"
     width="96"
     height="96"
     x="0"
     y="5.1070259e-15"
     rx="0"
     ry="0" />
  <g
     id="layer5"
     style="display:none">
    <path
       d="M 11.28125,7 C 7.7989644,7 5,9.7531077 5,13.15625 l 0,30.6875 C 5,46.372474 6.5571633,48.555702 8.78125,49.5 6.5571633,50.444298 5,52.627526 5,55.15625 l 0,30.6875 C 5,89.246893 7.7989644,92 11.28125,92 l 31.4375,0 C 44.936751,92 46.881799,90.87394 48,89.1875 49.118201,90.873939 51.06325,92 53.28125,92 l 31.4375,0 C 88.201036,92 91,89.246896 91,85.84375 l 0,-30.6875 C 91,51.753107 88.201035,49 84.71875,49 l -31.4375,0 C 51.063249,49 49.118201,50.126061 48,51.8125 47.332888,50.80638 46.356133,49.982908 45.21875,49.5 47.442837,48.555702 49,46.372474 49,43.84375 l 0,-30.6875 C 49,9.7531072 46.201035,7 42.71875,7 l -31.4375,0 z"
       inkscape:connector-curvature="0"
       id="rect7705"
       style="opacity:0.9;fill:url(#linearGradient7959);fill-opacity:1;fill-rule:nonzero;stroke:none;filter:url(#filter7725)" />
  </g>
  <g
     id="layer1"
     style="display:none">
    <rect
       width="84"
       height="84"
       rx="6"
       ry="6"
       x="6"
       y="6"
       id="rect2419"
       style="fill:url(#linearGradient3706);fill-opacity:1;fill-rule:nonzero;stroke:none" />
    <path
       d="M 12,6 C 8.676,6 6,8.676 6,12 l 0,2 0,68 0,2 c 0,0.334721 0.04135,0.6507 0.09375,0.96875 0.0487,0.295596 0.09704,0.596915 0.1875,0.875 0.00988,0.03038 0.020892,0.0636 0.03125,0.09375 0.098865,0.287771 0.2348802,0.547452 0.375,0.8125 0.1445918,0.273507 0.3156161,0.535615 0.5,0.78125 0.1843839,0.245635 0.3737765,0.473472 0.59375,0.6875 0.439947,0.428056 0.94291,0.814526 1.5,1.09375 0.278545,0.139612 0.5734731,0.246947 0.875,0.34375 -0.2562018,-0.100222 -0.4867109,-0.236272 -0.71875,-0.375 -0.00741,-0.0044 -0.023866,0.0045 -0.03125,0 -0.031933,-0.0193 -0.062293,-0.04251 -0.09375,-0.0625 -0.120395,-0.0767 -0.2310226,-0.163513 -0.34375,-0.25 -0.1061728,-0.0808 -0.2132809,-0.161112 -0.3125,-0.25 C 8.4783201,88.557317 8.3087904,88.373362 8.15625,88.1875 8.0486711,88.057245 7.9378561,87.922215 7.84375,87.78125 7.818661,87.74287 7.805304,87.69538 7.78125,87.65625 7.716487,87.553218 7.6510225,87.451733 7.59375,87.34375 7.4927417,87.149044 7.3880752,86.928049 7.3125,86.71875 7.30454,86.69694 7.288911,86.6782 7.28125,86.65625 7.2494249,86.5643 7.2454455,86.469419 7.21875,86.375 7.1884177,86.268382 7.1483606,86.171969 7.125,86.0625 7.0521214,85.720988 7,85.364295 7,85 L 7,83 7,15 7,13 C 7,10.218152 9.2181517,8 12,8 l 2,0 68,0 2,0 c 2.781848,0 5,2.218152 5,5 l 0,2 0,68 0,2 c 0,0.364295 -0.05212,0.720988 -0.125,1.0625 -0.04415,0.206893 -0.08838,0.397658 -0.15625,0.59375 -0.0077,0.02195 -0.0233,0.04069 -0.03125,0.0625 -0.06274,0.173739 -0.138383,0.367449 -0.21875,0.53125 -0.04158,0.0828 -0.07904,0.169954 -0.125,0.25 -0.0546,0.09721 -0.126774,0.18835 -0.1875,0.28125 -0.09411,0.140965 -0.204921,0.275995 -0.3125,0.40625 -0.143174,0.17445 -0.303141,0.346998 -0.46875,0.5 -0.01117,0.0102 -0.01998,0.02115 -0.03125,0.03125 -0.138386,0.125556 -0.285091,0.234436 -0.4375,0.34375 -0.102571,0.07315 -0.204318,0.153364 -0.3125,0.21875 -0.0074,0.0045 -0.02384,-0.0044 -0.03125,0 -0.232039,0.138728 -0.462548,0.274778 -0.71875,0.375 0.301527,-0.0968 0.596455,-0.204138 0.875,-0.34375 0.55709,-0.279224 1.060053,-0.665694 1.5,-1.09375 0.219973,-0.214028 0.409366,-0.441865 0.59375,-0.6875 0.184384,-0.245635 0.355408,-0.507743 0.5,-0.78125 0.14012,-0.265048 0.276135,-0.524729 0.375,-0.8125 0.01041,-0.03078 0.02133,-0.06274 0.03125,-0.09375 0.09046,-0.278085 0.1388,-0.579404 0.1875,-0.875 C 89.95865,84.6507 90,84.334721 90,84 l 0,-2 0,-68 0,-2 C 90,8.676 87.324,6 84,6 L 12,6 z"
       inkscape:connector-curvature="0"
       id="rect3728"
       style="opacity:0.5;fill:url(#linearGradient3188);fill-opacity:1;fill-rule:nonzero;stroke:none" />
  </g>
  <rect
     style="fill:#ffffff;fill-opacity:1;fill-rule:nonzero;stroke:none"
     id="rect8039"
     y="48.406784"
     x="13.251435"
     ry="5.1384134"
     rx="5.1674695"
     height="35.968895"
     width="36.172287" />
  <rect
     style="fill:#f8de72;fill-opacity:1;fill-rule:nonzero;stroke:#ffffff;stroke-width:0.85882014;stroke-opacity:1"
     id="rect3971"
     y="48.406784"
     x="49.423729"
     ry="5.1384134"
     rx="5.1674695"
     height="35.968895"
     width="36.172287" />
  <rect
     style="fill:#ffffff;fill-opacity:1;fill-rule:nonzero;stroke:none"
     id="rect3983"
     y="12.437889"
     x="49.423729"
     ry="5.1384134"
     rx="5.1674695"
     height="35.968895"
     width="36.172287" />
  <rect
     style="fill:#f8de72;fill-opacity:1;fill-rule:nonzero;stroke:#ffffff;stroke-width:0.85882014;stroke-opacity:1"
     id="rect3989"
     transform="matrix(0,-1,1,0,0,0)"
     y="13.251435"
     x="-48.406784"
     ry="5.1674695"
     rx="5.1384134"
     height="36.172287"
     width="35.968895" />
  <path
     inkscape:connector-curvature="0"
     style="font-size:11px;font-style:normal;font-variant:normal;font-weight:bold;font-stretch:normal;text-align:start;line-height:125%;letter-spacing:0px;word-spacing:0px;writing-mode:lr-tb;text-anchor:start;opacity:0.05;fill:#ffffff;fill-opacity:1;stroke:none;font-family:BabelSans;-inkscape-font-specification:BabelSans Bold"
     id="path4054"
     d="m 27.704206,17.549535 c -1.731094,2.8e-5 -3.337229,0.405295 -4.656105,1.311366 a 0.84178638,0.83705317 0 0 0 0,0.02676 0.84178638,0.83705317 0 0 0 -0.05383,0.02676 0.84178638,0.83705317 0 0 0 -0.13457,0.133812 0.84178638,0.83705317 0 0 0 -0.02687,0.05353 c -1.065593,0.797076 -1.961899,1.774653 -2.610649,2.943882 -0.660282,1.190046 -1.167969,2.481948 -1.453351,3.880573 a 0.84178638,0.83705317 0 0 0 0,0.02676 0.84178638,0.83705317 0 0 0 0,0.133812 c -0.235283,1.278958 -0.376794,2.539916 -0.376794,3.74676 0,1.172302 0.163826,2.365482 0.430622,3.586185 -9e-6,6.19e-4 -9e-6,0.02615 0,0.02676 a 0.84178638,0.83705317 0 0 0 0.02687,0.187338 c 0.30116,1.235296 0.792965,2.364062 1.399523,3.425609 0.0043,0.0071 -0.0043,0.01965 0,0.02676 a 0.84178638,0.83705317 0 0 0 0.107655,0.267626 0.84178638,0.83705317 0 0 0 0,0.02676 c 0.737002,1.185519 1.704395,2.19494 2.852874,2.970646 a 0.84178638,0.83705317 0 0 0 0.05383,0 0.84178638,0.83705317 0 0 0 0.02687,0.02676 0.84178638,0.83705317 0 0 0 0.242225,0.107051 c 0.0069,0.0041 0.0199,-0.0041 0.02687,0 1.215182,0.708741 2.606497,1.097265 4.117827,1.097265 1.674131,0 3.244042,-0.393134 4.548449,-1.257841 a 0.84178638,0.83705317 0 0 0 0.02687,0 c 1.175419,-0.800856 2.1342,-1.838255 2.852874,-3.050933 0.683914,-1.174688 1.200704,-2.465903 1.507178,-3.827048 0.293814,-1.305061 0.430606,-2.577495 0.430623,-3.827047 -1.7e-5,-0.82705 -0.08302,-1.67374 -0.215311,-2.515682 0.02885,0.215367 0.03178,0.207044 0,-0.02676 -0.119662,-0.87969 -0.315741,-1.760582 -0.592106,-2.59597 -0.0043,-0.0178 0.006,-0.0072 0,-0.02676 -0.271008,-0.884678 -0.652471,-1.720633 -1.10347,-2.515682 -0.474572,-0.8365 -1.05537,-1.602413 -1.749404,-2.248056 -0.741816,-0.690019 -1.588075,-1.183956 -2.502993,-1.552229 -0.972302,-0.400849 -2.044957,-0.588749 -3.17584,-0.588777 z m 0.02687,5.994816 c 0.648207,1.5e-5 0.933314,0.105512 1.238039,0.347914 0.416826,0.331601 0.76668,0.731939 1.022729,1.231078 a 0.84178638,0.83705317 0 0 0 0,0.02676 0.84178638,0.83705317 0 0 0 0.05383,0.10705 c 0.29843,0.607669 0.508944,1.273731 0.645934,2.060718 0.143707,0.809873 0.215294,1.610157 0.215311,2.328343 -8e-6,0.73865 -0.07088,1.514336 -0.215311,2.328344 -0.136361,0.768265 -0.344886,1.420982 -0.645934,2.033955 -0.24877,0.494732 -0.601777,0.890643 -1.076556,1.257841 -0.30997,0.237771 -0.624333,0.374679 -1.291867,0.374676 -0.607195,2e-6 -0.927044,-0.126918 -1.23804,-0.347913 -0.422044,-0.323738 -0.748998,-0.696922 -1.022728,-1.177553 -0.0069,-0.01167 -0.02032,-0.01495 -0.02687,-0.02676 -0.0017,-0.0035 4.3e-5,-0.02667 0,-0.02676 -0.295846,-0.578846 -0.525523,-1.218757 -0.672847,-1.926906 0.05038,0.27307 0.05323,0.264359 0,-0.02676 -0.14009,-0.766406 -0.215312,-1.488239 -0.215312,-2.194531 -8e-6,-0.456938 0.01998,-0.987238 0.05383,-1.525466 0.03238,-0.530674 0.09839,-1.036274 0.188398,-1.498704 0.09064,-0.480686 0.198362,-0.927839 0.34988,-1.311366 0.139565,-0.365883 0.307137,-0.63859 0.484451,-0.856403 0.350139,-0.428514 0.685766,-0.73728 1.022728,-0.93669 0.0052,-0.0029 0.02205,0.0028 0.02687,0 0.290842,-0.159388 0.617237,-0.240849 1.10347,-0.240863 z M 56.179071,53.51843 c -0.002,1.53e-4 -0.159539,0.02643 -0.161484,0.02676 -0.002,3.36e-4 -0.159579,0.02625 -0.161483,0.02676 -0.0019,5.15e-4 -0.159637,0.05283 -0.161483,0.05353 -0.0018,6.92e-4 -0.15971,0.05266 -0.161484,0.05353 -0.0018,8.56e-4 -0.132886,0.07926 -0.134569,0.08029 -0.0017,10e-4 -0.13299,0.105873 -0.13457,0.10705 -0.0016,0.0012 -0.133109,0.07897 -0.134569,0.08029 -0.0015,0.0013 -0.106326,0.132363 -0.107656,0.133812 -0.0013,0.0015 -0.106469,0.105483 -0.107656,0.107051 -0.0012,0.0015 -0.106623,0.158903 -0.107655,0.160575 -0.001,0.0017 -0.07987,0.132051 -0.08074,0.133813 -8.61e-4,0.0018 -0.05313,0.15874 -0.05383,0.160575 -6.99e-4,0.0018 -0.0533,0.131921 -0.05383,0.133813 -5.23e-4,0.0019 -0.02657,0.158643 -0.02691,0.160576 -3.41e-4,0.002 -0.02676,0.158619 -0.02691,0.160575 -1.57e-4,0.002 -3e-5,0.158614 0,0.160576 l 0,20.553654 c -1.2e-5,10e-4 -4e-5,0.07925 0,0.08029 3.9e-5,0.001 -9.2e-5,0.07925 0,0.08029 9.1e-5,0.001 -1.43e-4,0.07926 0,0.08029 1.43e-4,10e-4 0.02672,0.07927 0.02691,0.08029 1.94e-4,0.001 0.02667,0.106042 0.02691,0.10705 2.45e-4,0.001 -2.96e-4,0.07929 0,0.08029 2.95e-4,0.001 0.02657,0.07931 0.02691,0.08029 3.46e-4,9.42e-4 0.05343,0.07933 0.05383,0.08029 3.94e-4,9.42e-4 0.02648,0.07935 0.02691,0.08029 4.41e-4,9.42e-4 0.02642,0.07937 0.02691,0.08029 4.87e-4,9.42e-4 0.05329,0.0794 0.05383,0.08029 5.33e-4,8.57e-4 0.05325,0.05266 0.05383,0.05352 5.77e-4,8.57e-4 0.02629,0.07946 0.02691,0.08029 6.19e-4,8.35e-4 0.05316,0.05272 0.05383,0.05352 6.61e-4,8.03e-4 0.05313,0.07952 0.05383,0.08029 7e-4,7.69e-4 0.08,0.05279 0.08074,0.05352 7.38e-4,7.34e-4 0.05305,0.07959 0.05383,0.08029 7.73e-4,6.96e-4 0.07993,0.05286 0.08074,0.05353 8.07e-4,6.57e-4 0.05299,0.05291 0.05383,0.05352 8.4e-4,6.16e-4 0.07987,0.02619 0.08074,0.02676 8.61e-4,5.73e-4 0.05293,0.05299 0.05383,0.05352 8.61e-4,5.3e-4 0.07982,0.05304 0.08074,0.05353 9.48e-4,4.85e-4 0.07979,0.02633 0.08074,0.02676 9.47e-4,4.39e-4 0.07978,0.02637 0.08074,0.02676 9.47e-4,3.91e-4 0.07976,0.05318 0.08074,0.05353 9.47e-4,3.44e-4 0.07974,0.02647 0.08074,0.02676 10e-4,2.94e-4 0.07973,-2.44e-4 0.08074,0 0.001,2.44e-4 0.106631,0.02656 0.107656,0.02676 10e-4,1.94e-4 0.07971,0.02662 0.08074,0.02676 10e-4,1.42e-4 0.0797,-9.1e-5 0.08074,0 10e-4,9.1e-5 0.0797,-3.9e-5 0.08074,0 10e-4,3.9e-5 0.0797,1.2e-5 0.08074,0 l 6.297854,0 c 2.277405,0 4.316699,-0.616177 5.813403,-1.98043 1.572678,-1.410026 2.260753,-3.504326 2.260767,-5.861003 -1.6e-5,-1.268638 -0.305008,-2.479954 -0.861244,-3.586185 -0.31402,-0.651635 -0.824822,-1.089744 -1.318782,-1.552229 0.235091,-0.269768 0.487797,-0.461414 0.672848,-0.909927 0.395018,-0.924253 0.619002,-1.911438 0.61902,-2.943883 -1.5e-5,-1.994336 -0.668108,-3.753511 -1.937801,-5.058126 -0.05274,-0.09107 -0.09737,-0.169801 -0.107656,-0.187338 -0.0055,-0.0053 -0.02139,0.0053 -0.02691,0 -1.337937,-1.285265 -3.169767,-1.953643 -5.194383,-1.953668 l -6.190198,0 c -3.73e-4,-1.6e-5 -0.01692,1.1e-5 -0.02691,0 -0.03996,-4e-5 -0.106161,-6.6e-5 -0.107655,0 a 0.84178638,0.83705317 0 0 0 -0.02691,0 z m 4.548449,6.101867 1.130384,0 c 0.562343,1.6e-5 1.004146,0.0326 1.291868,0.08029 0.191635,0.03176 0.210909,0.05618 0.242225,0.08029 0.0032,0.0024 0.02409,-0.0022 0.02691,0 a 0.84178638,0.83705317 0 0 0 0.05383,0.05353 c 0.05,0.0373 0.01691,-0.04072 0.08074,0.133813 a 0.84178638,0.83705317 0 0 0 0.02691,0.02676 0.84178638,0.83705317 0 0 0 0,0.05353 c 0.0098,0.04609 0.08074,0.369097 0.08074,0.856402 -9e-6,0.874583 -0.293347,1.063015 -0.08074,0.909927 -0.02629,0.01893 -0.556816,0.240873 -1.480265,0.240863 l -1.372609,0 0,-2.435393 z m 0,8.564022 1.614835,0 c 1.011776,1e-5 1.549607,0.212293 1.803231,0.401439 0.120678,0.09 0.296045,0.251894 0.296053,1.231078 -8e-6,0.948425 -0.267226,1.286284 -0.296053,1.311366 -0.148679,0.129361 -0.563181,0.347917 -1.507178,0.347913 l -1.910888,0 0,-3.291796 z" />
  <path
     inkscape:connector-curvature="0"
     style="font-size:11px;font-style:normal;font-variant:normal;font-weight:bold;font-stretch:normal;text-align:start;line-height:125%;letter-spacing:0px;word-spacing:0px;writing-mode:lr-tb;text-anchor:start;opacity:0.05;fill:#ffffff;fill-opacity:1;stroke:none;font-family:BabelSans;-inkscape-font-specification:BabelSans Bold"
     id="path4050"
     d="m 27.704206,18.379175 c -1.596128,2.5e-5 -3.013367,0.381806 -4.171655,1.177553 a 0.90452081,0.89943485 0 0 0 0,0.02676 c -1.078081,0.754405 -1.945483,1.713283 -2.583735,2.863595 -0.621061,1.119362 -1.077357,2.324625 -1.345695,3.639709 a 0.90452081,0.89943485 0 0 0 0,0.02676 c -0.243224,1.283762 -0.376794,2.532893 -0.376794,3.719997 0,1.163198 0.147832,2.348936 0.430622,3.586185 a 0.90452081,0.89943485 0 0 0 0,0.02676 c 0.30737,1.260769 0.784809,2.415776 1.426437,3.479135 a 0.90452081,0.89943485 0 0 0 0,0.02676 c 0.674708,1.085308 1.556114,1.990766 2.610648,2.70302 a 0.90452081,0.89943485 0 0 0 0.02687,0 c 1.129902,0.72823 2.46875,1.097265 3.956344,1.097265 1.53994,0 2.94774,-0.366209 4.090913,-1.124028 1.074386,-0.732022 1.952701,-1.673087 2.610649,-2.783307 0.639887,-1.099074 1.111143,-2.305408 1.399523,-3.586185 0.28241,-1.254428 0.430605,-2.459836 0.430622,-3.639709 -1.7e-5,-0.774866 -0.08509,-1.585951 -0.215311,-2.408632 -8.61e-4,-0.0087 8.61e-4,-0.01807 0,-0.02676 -0.114287,-0.840234 -0.302392,-1.672991 -0.565192,-2.462157 -0.0026,-0.0079 0.0026,-0.01888 0,-0.02676 -0.251725,-0.821734 -0.599263,-1.608586 -1.022728,-2.355106 -0.43728,-0.770774 -0.961511,-1.451222 -1.587921,-2.033956 -0.651652,-0.60615 -1.419469,-1.053013 -2.260768,-1.391653 -0.861081,-0.354996 -1.82049,-0.535227 -2.852873,-0.535252 z m 0.02687,4.335537 c 0.772536,1.7e-5 1.317446,0.170232 1.776317,0.535251 0.527521,0.419665 0.973569,0.942637 1.291868,1.605754 a 0.90452081,0.89943485 0 0 0 0,0.02676 c 0.336712,0.685612 0.577929,1.447089 0.726675,2.301581 0.153095,0.862781 0.215285,1.698782 0.215311,2.462156 -1.7e-5,0.782493 -0.06184,1.597428 -0.215311,2.462157 -0.14841,0.836148 -0.388766,1.58678 -0.726675,2.274818 -0.31333,0.623117 -0.767714,1.126027 -1.318782,1.552229 -0.454694,0.348787 -1.00403,0.535254 -1.803231,0.535252 -0.752504,2e-6 -1.292668,-0.177445 -1.749404,-0.508489 -0.52107,-0.399702 -0.953579,-0.877584 -1.291867,-1.498704 -0.0034,-0.0072 0.0034,-0.01959 0,-0.02676 -0.328143,-0.642022 -0.590556,-1.35733 -0.753589,-2.141006 -0.0017,-0.0092 0.0017,-0.01756 0,-0.02676 -0.149228,-0.816375 -0.215312,-1.60024 -0.215312,-2.355106 -8e-6,-0.478936 0.01895,-1.025398 0.05383,-1.578992 0.03367,-0.552463 0.08838,-1.091924 0.188398,-1.605754 0.09819,-0.520717 0.228402,-1.001451 0.403708,-1.445179 0.168597,-0.442009 0.381394,-0.805365 0.61902,-1.097265 0.403924,-0.494328 0.819784,-0.864172 1.264953,-1.124028 0.0069,-0.004 0.01972,0.0039 0.02687,0 0.426179,-0.233556 0.912463,-0.347897 1.507179,-0.347913 z M 56.31364,54.34807 a 0.90452081,0.89943485 0 0 0 -0.915072,0.909928 l 0,20.553654 a 0.90452081,0.89943485 0 0 0 0.915072,0.909927 l 6.297854,0 c 2.125579,0 3.937802,-0.571885 5.248211,-1.766329 1.357555,-1.217152 1.991615,-3.048948 1.991628,-5.245464 -1.4e-5,-1.132987 -0.277026,-2.210206 -0.780503,-3.211509 -0.366978,-0.761532 -0.938779,-1.359063 -1.614834,-1.87338 0.334483,-0.417608 0.733305,-0.778815 0.941987,-1.284603 0.357731,-0.837008 0.565176,-1.717415 0.565192,-2.622732 -1.4e-5,-1.883786 -0.618505,-3.485762 -1.803232,-4.629925 -0.0054,-0.0053 0.0055,-0.0215 0,-0.02676 -1.166332,-1.128469 -2.773952,-1.712782 -4.629191,-1.712805 l -6.217112,0 z m 3.579549,4.442587 1.964715,0 c 0.580046,1.7e-5 1.051952,0.01822 1.426437,0.08029 0.313668,0.05199 0.519368,0.145549 0.672848,0.267625 a 0.90452081,0.89943485 0 0 0 0.02691,0.02676 c 0.151512,0.113012 0.252173,0.241332 0.34988,0.508489 a 0.90452081,0.89943485 0 0 0 0.02691,0.02676 c 0.08679,0.226585 0.13457,0.639844 0.13457,1.204316 -1e-5,1.004973 -0.236188,1.438988 -0.430623,1.578992 -0.300603,0.216457 -0.939444,0.401448 -1.964715,0.401438 l -2.20694,0 0,-4.094673 z m 0,8.564022 2.449166,0 c 1.122085,1.1e-5 1.855129,0.219357 2.314595,0.562014 0.378655,0.282403 0.619011,0.799766 0.61902,1.900143 -9e-6,1.075072 -0.245407,1.675426 -0.565192,1.953668 -0.373343,0.324835 -1.01597,0.535254 -2.07237,0.535251 l -2.745219,0 0,-4.951076 z" />
  <path
     style="font-size:11px;font-style:normal;font-variant:normal;font-weight:bold;font-stretch:normal;text-align:start;line-height:125%;letter-spacing:0px;word-spacing:0px;writing-mode:lr-tb;text-anchor:start;fill:#ffffff;fill-opacity:1;stroke:none;font-family:BabelSans;-inkscape-font-specification:BabelSans Bold"
     id="path4041"
     inkscape:connector-curvature="0"
     d="m 27.704206,19.289103 c -1.455254,2.2e-5 -2.672167,0.338131 -3.660291,1.016977 -0.970166,0.678891 -1.739689,1.533058 -2.314596,2.569207 -0.574915,1.036185 -0.986512,2.166177 -1.238039,3.398846 -0.233552,1.232696 -0.349881,2.433941 -0.349881,3.559422 0,1.089773 0.134208,2.219765 0.403709,3.398847 0.287457,1.179093 0.7259,2.255703 1.318781,3.238271 0.610838,0.982576 1.389309,1.792257 2.34151,2.435394 0.970157,0.625275 2.124432,0.93669 3.471893,0.93669 1.40134,0 2.609374,-0.320314 3.579549,-0.963453 0.970149,-0.661003 1.74862,-1.488477 2.34151,-2.488919 0.592863,-1.018298 1.022366,-2.121599 1.291867,-3.318559 0.269475,-1.196946 0.403691,-2.344733 0.403708,-3.452371 -1.7e-5,-0.732453 -0.06261,-1.515508 -0.188397,-2.301581 C 34.99771,26.513965 34.81876,25.739873 34.567251,24.98953 34.333673,24.22135 34.020498,23.491748 33.625264,22.794999 33.229996,22.098282 32.75576,21.493248 32.198828,20.975144 31.641869,20.457081 30.961761,20.047792 30.207199,19.744066 29.470585,19.440383 28.638424,19.289125 27.704206,19.289103 z m 0.02687,2.515681 c 0.934218,2.1e-5 1.712689,0.249149 2.341509,0.749352 0.628795,0.500235 1.15679,1.140863 1.534093,1.926905 0.377268,0.768208 0.645709,1.613479 0.807417,2.542444 0.161673,0.911126 0.242199,1.800953 0.242225,2.622732 -1.7e-5,0.839663 -0.08053,1.711628 -0.242225,2.622732 -0.161725,0.911122 -0.430149,1.747495 -0.807417,2.515682 -0.377294,0.750333 -0.914238,1.373162 -1.561007,1.87338 -0.62882,0.482356 -1.416239,0.722593 -2.368423,0.722589 -0.91627,4e-6 -1.685792,-0.231329 -2.314596,-0.695827 -0.628812,-0.482349 -1.13885,-1.087384 -1.534092,-1.819854 -0.377294,-0.732458 -0.654675,-1.533241 -0.834331,-2.408632 -0.161699,-0.875374 -0.242225,-1.720646 -0.242225,-2.542444 -9e-6,-0.50021 0.01783,-1.060829 0.05383,-1.632517 0.03591,-0.589532 0.107509,-1.158974 0.215311,-1.712804 0.107793,-0.571664 0.259906,-1.105521 0.457536,-1.605754 0.197613,-0.518069 0.448166,-0.962947 0.753589,-1.338129 0.467114,-0.571663 0.977143,-1.016544 1.534093,-1.338129 0.574907,-0.321553 1.228101,-0.481705 1.964715,-0.481726 z m 28.582564,33.453214 0,20.553654 6.297854,0 c 1.968552,0 3.514902,-0.509786 4.629191,-1.525467 1.132839,-1.015677 1.695563,-2.545035 1.695576,-4.576399 -1.3e-5,-0.997205 -0.227137,-1.923652 -0.672848,-2.81007 -0.427151,-0.886401 -1.116902,-1.580568 -2.045456,-2.060718 0.59427,-0.517062 1.048541,-1.126395 1.345695,-1.846618 0.315699,-0.738662 0.484437,-1.499193 0.48445,-2.274818 -1.3e-5,-1.717404 -0.504336,-3.054087 -1.507179,-4.014386 -0.984287,-0.960258 -2.320191,-1.445157 -4.010171,-1.445178 l -6.217112,0 z m 2.664477,2.622731 2.879787,0 c 0.612848,1.8e-5 1.142202,0.03319 1.587921,0.107051 0.445703,0.07387 0.797979,0.233386 1.076556,0.454963 0.297133,0.221629 0.524268,0.530438 0.672847,0.93669 0.148558,0.387825 0.215311,0.897608 0.215311,1.525467 -1e-5,1.144962 -0.268858,1.913788 -0.807417,2.301581 -0.538577,0.387818 -1.370147,0.588788 -2.502993,0.588777 l -3.122012,0 0,-5.914529 z m 0,8.564023 3.364238,0 c 1.24427,1.1e-5 2.184298,0.250747 2.852873,0.749352 0.668558,0.498614 0.995805,1.36699 0.995815,2.622732 -10e-6,1.21882 -0.293886,2.105662 -0.888159,2.622732 -0.59429,0.517076 -1.47592,0.776118 -2.664476,0.776114 l -3.660291,0 0,-6.77093 z" />
</svg>
