<?xml version="1.0" encoding="UTF-8" standalone="no"?>
<!-- Created with Inkscape (http://www.inkscape.org/) -->

<svg
   xmlns:dc="http://purl.org/dc/elements/1.1/"
   xmlns:cc="http://creativecommons.org/ns#"
   xmlns:rdf="http://www.w3.org/1999/02/22-rdf-syntax-ns#"
   xmlns:svg="http://www.w3.org/2000/svg"
   xmlns="http://www.w3.org/2000/svg"
   xmlns:xlink="http://www.w3.org/1999/xlink"
   xmlns:sodipodi="http://sodipodi.sourceforge.net/DTD/sodipodi-0.dtd"
   xmlns:inkscape="http://www.inkscape.org/namespaces/inkscape"
   version="1.0"
   width="96"
   height="96"
   id="svg2408"
   inkscape:version="0.48.4 r9939"
   sodipodi:docname="openjdk-6.svg">
  <sodipodi:namedview
     pagecolor="#ffffff"
     bordercolor="#666666"
     borderopacity="1"
     objecttolerance="10"
     gridtolerance="10"
     guidetolerance="10"
     inkscape:pageopacity="0"
     inkscape:pageshadow="2"
     inkscape:window-width="640"
     inkscape:window-height="480"
     id="namedview56"
     showgrid="false"
     inkscape:zoom="2.4583333"
     inkscape:cx="48"
     inkscape:cy="48"
     inkscape:window-x="109"
     inkscape:window-y="206"
     inkscape:window-maximized="0"
     inkscape:current-layer="svg2408" />
  <defs
     id="defs2410">
    <linearGradient
       x1="45.447727"
       y1="92.539597"
       x2="45.447727"
       y2="7.0165396"
       id="ButtonShadow"
       gradientUnits="userSpaceOnUse"
       gradientTransform="scale(1.0058652,0.994169)">
      <stop
         id="stop3750"
         style="stop-color:#000000;stop-opacity:1"
         offset="0" />
      <stop
         id="stop3752"
         style="stop-color:#000000;stop-opacity:0.58823532"
         offset="1" />
    </linearGradient>
    <linearGradient
       id="linearGradient3737">
      <stop
         id="stop3739"
         style="stop-color:#ffffff;stop-opacity:1"
         offset="0" />
      <stop
         id="stop3741"
         style="stop-color:#ffffff;stop-opacity:0"
         offset="1" />
    </linearGradient>
    <linearGradient
       id="linearGradient3700">
      <stop
         id="stop3702"
         style="stop-color:#e1e1e1;stop-opacity:1"
         offset="0" />
      <stop
         id="stop3704"
         style="stop-color:#f0f0f0;stop-opacity:1"
         offset="1" />
    </linearGradient>
    <filter
       color-interpolation-filters="sRGB"
       id="filter3174">
      <feGaussianBlur
         id="feGaussianBlur3176"
         stdDeviation="1.71" />
    </filter>
    <linearGradient
       x1="36.357143"
       y1="6"
       x2="36.357143"
       y2="63.893143"
       id="linearGradient3188"
       xlink:href="#linearGradient3737"
       gradientUnits="userSpaceOnUse" />
    <filter
       x="-0.192"
       y="-0.192"
       width="1.3839999"
       height="1.3839999"
       color-interpolation-filters="sRGB"
       id="filter3794">
      <feGaussianBlur
         id="feGaussianBlur3796"
         stdDeviation="5.28" />
    </filter>
    <linearGradient
       x1="48"
       y1="20.220806"
       x2="48"
       y2="138.66119"
       id="linearGradient3613"
       xlink:href="#linearGradient3737"
       gradientUnits="userSpaceOnUse" />
    <radialGradient
       cx="48"
       cy="90.171875"
       r="42"
       fx="48"
       fy="90.171875"
       id="radialGradient3619"
       xlink:href="#linearGradient3737"
       gradientUnits="userSpaceOnUse"
       gradientTransform="matrix(1.1573129,0,0,0.99590774,-7.5510206,0.19713193)" />
    <clipPath
       id="clipPath3613">
      <rect
         width="84"
         height="84"
         rx="6"
         ry="6"
         x="6"
         y="6"
         id="rect3615"
         style="fill:#ffffff;fill-opacity:1;fill-rule:nonzero;stroke:none" />
    </clipPath>
    <linearGradient
       x1="48"
       y1="90"
       x2="48"
       y2="5.9877172"
       id="linearGradient3617"
       xlink:href="#linearGradient3700"
       gradientUnits="userSpaceOnUse" />
    <linearGradient
       x1="45.447727"
       y1="92.539597"
       x2="45.447727"
       y2="7.0165396"
       id="ButtonShadow-0-1"
       gradientUnits="userSpaceOnUse"
       gradientTransform="matrix(1.0058652,0,0,0.994169,100,0)">
      <stop
         id="stop3750-8-1"
         style="stop-color:#000000;stop-opacity:1"
         offset="0" />
      <stop
         id="stop3752-5-2"
         style="stop-color:#000000;stop-opacity:0.58823532"
         offset="1" />
    </linearGradient>
    <linearGradient
       x1="32.251034"
       y1="6.1317081"
       x2="32.251034"
       y2="90.238609"
       id="linearGradient3780-1"
       xlink:href="#ButtonShadow-0-1"
       gradientUnits="userSpaceOnUse"
       gradientTransform="matrix(1.0238095,0,0,1.0119048,-1.1428571,-98.071429)" />
    <linearGradient
       x1="32.251034"
       y1="6.1317081"
       x2="32.251034"
       y2="90.238609"
       id="linearGradient3772-1"
       xlink:href="#ButtonShadow-0-1"
       gradientUnits="userSpaceOnUse"
       gradientTransform="matrix(1.0238095,0,0,1.0119048,-1.1428571,-98.071429)" />
    <linearGradient
       x1="32.251034"
       y1="6.1317081"
       x2="32.251034"
       y2="90.238609"
       id="linearGradient3725-4"
       xlink:href="#ButtonShadow-0-1"
       gradientUnits="userSpaceOnUse"
       gradientTransform="matrix(1.0238095,0,0,1.0119048,-1.1428571,-98.071429)" />
    <linearGradient
       x1="32.251034"
       y1="6.1317081"
       x2="32.251034"
       y2="90.238609"
       id="linearGradient3721-3"
       xlink:href="#ButtonShadow-0-1"
       gradientUnits="userSpaceOnUse"
       gradientTransform="translate(0,-97)" />
    <linearGradient
       x1="32.251034"
       y1="6.1317081"
       x2="32.251034"
       y2="90.238609"
       id="linearGradient3071-0"
       xlink:href="#ButtonShadow-0-1"
       gradientUnits="userSpaceOnUse"
       gradientTransform="matrix(1.0238095,0,0,1.0119048,-1.1428571,-98.071429)" />
  </defs>
  <metadata
     id="metadata2413">
    <rdf:RDF>
      <cc:Work
         rdf:about="">
        <dc:format>image/svg+xml</dc:format>
        <dc:type
           rdf:resource="http://purl.org/dc/dcmitype/StillImage" />
      </cc:Work>
    </rdf:RDF>
  </metadata>
  <g
     id="layer2"
     style="display:none">
    <rect
       width="86"
       height="85"
       rx="6"
       ry="6"
       x="5"
       y="7"
       id="rect3745"
       style="opacity:0.9;fill:url(#ButtonShadow);fill-opacity:1;fill-rule:nonzero;stroke:none;filter:url(#filter3174)" />
  </g>
  <rect
     style="fill:#ff7f2a;fill-opacity:1;stroke:none"
     id="rect3050"
     width="96"
     height="96"
     x="0"
     y="-1.5987212e-14"
     rx="0"
     ry="0" />
  <path
     d="m 39.337617,62.006499 c 0,0 -2.520688,1.467153 1.795945,1.962239 5.230301,0.59714 7.902975,0.511146 13.665007,-0.578014 0,0 1.517961,0.949583 3.63423,1.772001 -12.921138,5.535878 -29.243197,-0.320762 -19.095182,-3.156226 l 0,0 z"
     inkscape:connector-curvature="0"
     id="path3616"
     style="fill:#ffffff;fill-rule:evenodd" />
  <path
     d="m 37.757898,54.781256 c 0,0 -2.827579,2.093493 1.492265,2.53996 5.587563,0.576846 9.998512,0.62415 17.635621,-0.845631 0,0 1.053827,1.070471 2.713408,1.655492 -15.619945,4.568921 -33.01744,0.359453 -21.841294,-3.349821 l 0,0 z"
     inkscape:connector-curvature="0"
     id="path3618"
     style="fill:#ffffff;fill-rule:evenodd" />
  <path
     d="m 51.067688,42.52325 c 3.185425,3.666787 -0.835266,6.963758 -0.835266,6.963758 0,0 8.083577,-4.17224 4.371967,-9.399474 -3.467789,-4.872455 -6.126448,-7.292841 8.266953,-15.640094 1.46e-4,0 -22.594069,5.641582 -11.803654,18.07581 l 0,0 z"
     inkscape:connector-curvature="0"
     id="path3620"
     style="fill:#ffffff;fill-rule:evenodd" />
  <path
     d="m 68.156685,67.351555 c 0,0 1.866024,1.538255 -2.055241,2.727863 -7.456361,2.258472 -31.040164,2.939707 -37.590595,0.09037 -2.353081,-1.024919 2.061665,-2.445499 3.450708,-2.745529 1.448318,-0.313315 2.275262,-0.256082 2.275262,-0.256082 -2.618801,-1.844126 -16.926503,3.621819 -7.266707,5.18942 26.342616,4.269913 48.018638,-1.923257 41.186573,-5.006045 l 0,0 z"
     inkscape:connector-curvature="0"
     id="path3622"
     style="fill:#ffffff;fill-rule:evenodd" />
  <path
     d="m 40.550731,47.294089 c 0,0 -11.994623,2.849772 -4.247429,3.885495 3.272149,0.437854 9.791191,0.337114 15.867999,-0.172717 4.964873,-0.416684 9.947412,-1.307868 9.947412,-1.307868 0,0 -1.749372,0.750439 -3.01592,1.614759 -12.182816,3.20426 -35.71333,1.711995 -28.938204,-1.563951 5.727139,-2.77064 10.386142,-2.455718 10.386142,-2.455718 l 0,0 z"
     inkscape:connector-curvature="0"
     id="path3624"
     style="fill:#ffffff;fill-rule:evenodd" />
  <path
     d="m 62.069073,59.320977 c 12.38342,-6.433194 6.657157,-12.616144 2.660556,-11.78336 -0.977324,0.203961 -1.415761,0.380621 -1.415761,0.380621 0,0 0.364123,-0.570421 1.057477,-0.815848 7.906625,-2.778377 13.985914,8.197311 -2.549742,12.544167 -1.47e-4,0 0.190092,-0.17228 0.24747,-0.32558 l 0,0 z"
     inkscape:connector-curvature="0"
     id="path3626"
     style="fill:#ffffff;fill-rule:evenodd" />
  <path
     d="m 54.604535,10.966101 c 0,0 6.856594,6.860535 -6.505317,17.407131 -10.715372,8.463467 -2.443163,13.287304 -0.0038,18.801575 C 41.840053,41.531472 37.251859,36.56295 40.329391,31.939425 44.848673,25.153495 57.370354,21.862365 54.604532,10.966101 l 0,0 z"
     inkscape:connector-curvature="0"
     id="path3628"
     style="fill:#ffffff;fill-rule:evenodd" />
  <path
     d="m 41.768224,76.75906 c 11.883954,0.759783 30.138176,-0.422816 30.570189,-6.046586 0,0 -0.830447,2.131889 -9.822288,3.823444 -10.144221,1.909826 -22.658748,1.687467 -30.078317,0.462383 0,0 1.520004,1.258081 9.330416,1.760759 l 0,0 z"
     inkscape:connector-curvature="0"
     id="path3630"
     style="fill:#ffffff;fill-rule:evenodd" />
</svg>
