<?xml version="1.0" encoding="UTF-8" standalone="no"?>
<!-- Created with Inkscape (http://www.inkscape.org/) -->

<svg
   xmlns:dc="http://purl.org/dc/elements/1.1/"
   xmlns:cc="http://creativecommons.org/ns#"
   xmlns:rdf="http://www.w3.org/1999/02/22-rdf-syntax-ns#"
   xmlns:svg="http://www.w3.org/2000/svg"
   xmlns="http://www.w3.org/2000/svg"
   xmlns:xlink="http://www.w3.org/1999/xlink"
   xmlns:sodipodi="http://sodipodi.sourceforge.net/DTD/sodipodi-0.dtd"
   xmlns:inkscape="http://www.inkscape.org/namespaces/inkscape"
   version="1.0"
   width="96"
   height="96"
   id="svg2408"
   inkscape:version="0.48.4 r9939"
   sodipodi:docname="openttd.svg">
  <sodipodi:namedview
     pagecolor="#ffffff"
     bordercolor="#666666"
     borderopacity="1"
     objecttolerance="10"
     gridtolerance="10"
     guidetolerance="10"
     inkscape:pageopacity="0"
     inkscape:pageshadow="2"
     inkscape:window-width="1366"
     inkscape:window-height="691"
     id="namedview74"
     showgrid="false"
     inkscape:zoom="1.2291667"
     inkscape:cx="48"
     inkscape:cy="48"
     inkscape:window-x="0"
     inkscape:window-y="24"
     inkscape:window-maximized="1"
     inkscape:current-layer="svg2408" />
  <defs
     id="defs2410">
    <linearGradient
       id="linearGradient3865">
      <stop
         id="stop3867"
         style="stop-color:#bddb4e;stop-opacity:1"
         offset="0" />
      <stop
         id="stop3869"
         style="stop-color:#52b124;stop-opacity:1"
         offset="1" />
    </linearGradient>
    <linearGradient
       x1="45.447727"
       y1="92.539597"
       x2="45.447727"
       y2="7.0165396"
       id="ButtonShadow"
       gradientUnits="userSpaceOnUse"
       gradientTransform="scale(1.0058652,0.994169)">
      <stop
         id="stop3750"
         style="stop-color:#000000;stop-opacity:1"
         offset="0" />
      <stop
         id="stop3752"
         style="stop-color:#000000;stop-opacity:0.58823532"
         offset="1" />
    </linearGradient>
    <linearGradient
       id="linearGradient3737">
      <stop
         id="stop3739"
         style="stop-color:#ffffff;stop-opacity:1"
         offset="0" />
      <stop
         id="stop3741"
         style="stop-color:#ffffff;stop-opacity:0"
         offset="1" />
    </linearGradient>
    <linearGradient
       id="linearGradient3700">
      <stop
         id="stop3702"
         style="stop-color:#33632b;stop-opacity:1"
         offset="0" />
      <stop
         id="stop3704"
         style="stop-color:#45843a;stop-opacity:1"
         offset="1" />
    </linearGradient>
    <filter
       color-interpolation-filters="sRGB"
       id="filter3174">
      <feGaussianBlur
         id="feGaussianBlur3176"
         stdDeviation="1.71" />
    </filter>
    <linearGradient
       x1="36.357143"
       y1="6"
       x2="36.357143"
       y2="63.893143"
       id="linearGradient3188"
       xlink:href="#linearGradient3737"
       gradientUnits="userSpaceOnUse" />
    <filter
       x="-0.192"
       y="-0.192"
       width="1.3839999"
       height="1.3839999"
       color-interpolation-filters="sRGB"
       id="filter3794">
      <feGaussianBlur
         id="feGaussianBlur3796"
         stdDeviation="5.28" />
    </filter>
    <linearGradient
       x1="48"
       y1="20.220806"
       x2="48"
       y2="138.66119"
       id="linearGradient3613"
       xlink:href="#linearGradient3737"
       gradientUnits="userSpaceOnUse" />
    <radialGradient
       cx="48"
       cy="90.171875"
       r="42"
       fx="48"
       fy="90.171875"
       id="radialGradient3619"
       xlink:href="#linearGradient3737"
       gradientUnits="userSpaceOnUse"
       gradientTransform="matrix(1.1573129,0,0,0.99590774,-7.5510206,0.19713193)" />
    <clipPath
       id="clipPath3613">
      <rect
         width="84"
         height="84"
         rx="6"
         ry="6"
         x="6"
         y="6"
         id="rect3615"
         style="fill:#ffffff;fill-opacity:1;fill-rule:nonzero;stroke:none" />
    </clipPath>
    <linearGradient
       x1="48"
       y1="90"
       x2="48"
       y2="5.9877172"
       id="linearGradient3617"
       xlink:href="#linearGradient3700"
       gradientUnits="userSpaceOnUse" />
    <linearGradient
       x1="45.447727"
       y1="92.539597"
       x2="45.447727"
       y2="7.0165396"
       id="ButtonShadow-0"
       gradientUnits="userSpaceOnUse"
       gradientTransform="matrix(1.0058652,0,0,0.994169,100,0)">
      <stop
         id="stop3750-8"
         style="stop-color:#000000;stop-opacity:1"
         offset="0" />
      <stop
         id="stop3752-5"
         style="stop-color:#000000;stop-opacity:0.58823532"
         offset="1" />
    </linearGradient>
    <linearGradient
       x1="32.251034"
       y1="6.1317081"
       x2="32.251034"
       y2="90.238609"
       id="linearGradient3780"
       xlink:href="#ButtonShadow-0"
       gradientUnits="userSpaceOnUse"
       gradientTransform="matrix(1.0238095,0,0,1.0119048,-1.1428571,-98.071429)" />
    <linearGradient
       x1="32.251034"
       y1="6.1317081"
       x2="32.251034"
       y2="90.238609"
       id="linearGradient3772"
       xlink:href="#ButtonShadow-0"
       gradientUnits="userSpaceOnUse"
       gradientTransform="matrix(1.0238095,0,0,1.0119048,-1.1428571,-98.071429)" />
    <linearGradient
       x1="32.251034"
       y1="6.1317081"
       x2="32.251034"
       y2="90.238609"
       id="linearGradient3725"
       xlink:href="#ButtonShadow-0"
       gradientUnits="userSpaceOnUse"
       gradientTransform="matrix(1.0238095,0,0,1.0119048,-1.1428571,-98.071429)" />
    <linearGradient
       x1="32.251034"
       y1="6.1317081"
       x2="32.251034"
       y2="90.238609"
       id="linearGradient3721"
       xlink:href="#ButtonShadow-0"
       gradientUnits="userSpaceOnUse"
       gradientTransform="translate(0,-97)" />
    <linearGradient
       x1="32.251034"
       y1="6.1317081"
       x2="32.251034"
       y2="90.238609"
       id="linearGradient3026"
       xlink:href="#ButtonShadow-0"
       gradientUnits="userSpaceOnUse"
       gradientTransform="matrix(1.0238095,0,0,1.0119048,-1.1428571,-98.071429)" />
    <linearGradient
       id="linearGradient3269">
      <stop
         id="stop3271"
         style="stop-color:#ffffff;stop-opacity:1"
         offset="0" />
      <stop
         id="stop3273"
         style="stop-color:#ffffff;stop-opacity:0"
         offset="1" />
    </linearGradient>
    <linearGradient
       id="linearGradient3421">
      <stop
         id="stop3423"
         style="stop-color:#fe7600;stop-opacity:1"
         offset="0" />
      <stop
         id="stop3425"
         style="stop-color:#f2b26d;stop-opacity:1"
         offset="1" />
    </linearGradient>
    <linearGradient
       x1="312.62323"
       y1="468.58658"
       x2="315.21729"
       y2="471.18063"
       id="linearGradient3847"
       xlink:href="#linearGradient3269"
       gradientUnits="userSpaceOnUse"
       gradientTransform="matrix(0.31400775,0,0,0.31400775,-68.839441,-118.95132)" />
    <linearGradient
       x1="312.62323"
       y1="468.58658"
       x2="315.21729"
       y2="471.18063"
       id="linearGradient3851"
       xlink:href="#linearGradient3269"
       gradientUnits="userSpaceOnUse"
       gradientTransform="matrix(0.31400775,0,0,0.31400775,-69.663245,-106.20134)" />
    <linearGradient
       x1="136.3282"
       y1="151.16792"
       x2="117.66125"
       y2="78.463249"
       id="linearGradient3855"
       xlink:href="#linearGradient3421"
       gradientUnits="userSpaceOnUse"
       gradientTransform="matrix(0.31400775,0,0,0.31400775,8.6076835,9.3242921)" />
    <linearGradient
       x1="48.742641"
       y1="30.801933"
       x2="86.437103"
       y2="30.801933"
       id="linearGradient3871"
       xlink:href="#linearGradient3865"
       gradientUnits="userSpaceOnUse" />
    <linearGradient
       x1="-19.139587"
       y1="-98.684196"
       x2="18.554882"
       y2="-98.684196"
       id="linearGradient3879"
       xlink:href="#linearGradient3865"
       gradientUnits="userSpaceOnUse" />
    <linearGradient
       inkscape:collect="always"
       xlink:href="#linearGradient3865"
       id="linearGradient3054"
       gradientUnits="userSpaceOnUse"
       x1="-19.139587"
       y1="-98.684196"
       x2="18.554882"
       y2="-98.684196"
       gradientTransform="translate(-85.73968,-76.535312)" />
  </defs>
  <metadata
     id="metadata2413">
    <rdf:RDF>
      <cc:Work
         rdf:about="">
        <dc:format>image/svg+xml</dc:format>
        <dc:type
           rdf:resource="http://purl.org/dc/dcmitype/StillImage" />
        <dc:title />
      </cc:Work>
    </rdf:RDF>
  </metadata>
  <g
     id="layer2"
     style="display:none">
    <rect
       width="86"
       height="85"
       rx="6"
       ry="6"
       x="5"
       y="7"
       id="rect3745"
       style="opacity:0.9;fill:url(#ButtonShadow);fill-opacity:1;fill-rule:nonzero;stroke:none;filter:url(#filter3174)" />
  </g>
  <rect
     style="fill:#ee8500;fill-opacity:1;stroke:none"
     id="rect3842"
     width="96"
     height="96"
     x="0"
     y="1.2434498e-14" />
  <rect
     style="fill:#ee8500;fill-opacity:1;fill-rule:evenodd;stroke:#ffffff;stroke-width:1.60000002;stroke-linecap:round;stroke-linejoin:round;stroke-miterlimit:4;stroke-opacity:1;stroke-dasharray:none;stroke-dashoffset:0"
     id="rect3277"
     transform="matrix(0.70710678,0.70710678,-0.70710678,0.70710678,0,0)"
     y="17.841391"
     x="48.293621"
     height="9.5969896"
     width="35.694466" />
  <path
     style="color:#000000;fill:#ffffff;fill-opacity:1;fill-rule:nonzero;stroke:none;stroke-width:1;marker:none;visibility:visible;display:inline;overflow:visible;enable-background:accumulate"
     id="path3861"
     inkscape:connector-curvature="0"
     d="m 47.266157,23.000469 0,4.941621 c -2.16373,0.0889 -4.012483,0.536317 -5.503684,1.321289 -1.491218,0.785032 -2.654606,1.838098 -3.49523,3.171094 -0.840634,1.333049 -1.252023,2.712168 -1.252023,4.148848 -9e-6,1.258987 0.344757,2.523137 1.017268,3.752461 0.672503,1.229361 1.595303,2.220147 2.764884,3.012539 1.169573,0.792424 3.32554,1.734729 6.468785,2.801133 l 0,7.399219 c -0.760237,-0.2666 -1.469533,-0.68237 -2.112789,-1.215586 -0.877192,-0.710937 -1.671893,-1.540296 -2.373626,-2.510449 -0.701751,-0.970135 -1.430829,-2.301787 -2.19104,-3.990294 l -4.199494,1.030606 2.164956,11.706621 2.373627,0 1.069436,-2.616152 c 1.827453,1.347836 3.587655,2.216244 5.26893,2.616152 l 0,5.760821 4.225577,0 0,-5.39086 c 2.032116,-0.148113 3.843326,-0.674649 5.451516,-1.585546 1.608148,-0.910898 2.82569,-2.053681 3.651733,-3.408926 0.825985,-1.355234 1.251989,-2.761795 1.252023,-4.228126 -3.4e-5,-1.362635 -0.348939,-2.671059 -1.043353,-3.937441 -0.694463,-1.266358 -1.709971,-2.331038 -3.025721,-3.19752 -1.315793,-0.866447 -3.406137,-1.707419 -6.286198,-2.536875 l 0,-6.395039 c 2.339129,1.288613 4.0337,3.33465 5.086342,6.104356 l 4.016907,-1.189161 -2.556213,-10.068223 -2.399711,0 -0.808598,1.585547 c -0.731006,-0.459123 -1.316352,-0.777771 -1.747615,-0.977754 -0.431305,-0.199923 -0.962488,-0.415213 -1.591112,-0.607793 l 0,-5.496562 -4.225577,0 z m 0,9.856816 0,5.972227 c -1.374262,-0.473944 -2.324147,-0.996268 -2.843136,-1.559121 -0.519013,-0.56281 -0.78253,-1.163239 -0.782514,-1.770527 -1.6e-5,-0.725734 0.353054,-1.331383 1.069436,-1.849805 0.497053,-0.355448 1.357385,-0.629822 2.556214,-0.792774 z m 4.225577,14.587032 c 1.286512,0.399919 2.271787,0.965504 2.973554,1.69125 0.511668,0.54803 0.756405,1.200137 0.75643,1.955508 -2.5e-5,0.859069 -0.33747,1.531203 -1.017268,2.034785 -0.67984,0.503591 -1.572399,0.829647 -2.712716,0.977754 l 0,-6.659297 z" />
  <rect
     style="fill:none;stroke:#ffffff;stroke-width:1.68034256;stroke-linecap:round;stroke-linejoin:round;stroke-miterlimit:4;stroke-opacity:1;stroke-dasharray:none;stroke-dashoffset:0"
     id="rect2251"
     transform="matrix(0.70248679,0.71169678,-0.70248679,0.71169678,0,0)"
     y="-26.854452"
     x="43.549324"
     height="44.167198"
     width="44.167198" />
  <rect
     width="35.694466"
     height="9.5969896"
     x="-21.74972"
     y="87.681343"
     transform="matrix(-0.70710678,0.70710678,0.70710678,0.70710678,0,0)"
     id="rect3844"
     style="fill:#ee8500;fill-opacity:1;fill-rule:evenodd;stroke:#ffffff;stroke-width:1.60000002;stroke-linecap:round;stroke-linejoin:round;stroke-miterlimit:4;stroke-opacity:1;stroke-dasharray:none;stroke-dashoffset:0" />
</svg>
