<?xml version="1.0" encoding="UTF-8" standalone="no"?>
<!-- Created with Inkscape (http://www.inkscape.org/) -->

<svg
   xmlns:dc="http://purl.org/dc/elements/1.1/"
   xmlns:cc="http://creativecommons.org/ns#"
   xmlns:rdf="http://www.w3.org/1999/02/22-rdf-syntax-ns#"
   xmlns:svg="http://www.w3.org/2000/svg"
   xmlns="http://www.w3.org/2000/svg"
   xmlns:xlink="http://www.w3.org/1999/xlink"
   xmlns:sodipodi="http://sodipodi.sourceforge.net/DTD/sodipodi-0.dtd"
   xmlns:inkscape="http://www.inkscape.org/namespaces/inkscape"
   version="1.0"
   width="96"
   height="96"
   id="svg2408"
   inkscape:version="0.48.4 r9939"
   sodipodi:docname="playonlinux.svg">
  <sodipodi:namedview
     pagecolor="#ffffff"
     bordercolor="#666666"
     borderopacity="1"
     objecttolerance="10"
     gridtolerance="10"
     guidetolerance="10"
     inkscape:pageopacity="0"
     inkscape:pageshadow="2"
     inkscape:window-width="640"
     inkscape:window-height="480"
     id="namedview115"
     showgrid="false"
     inkscape:zoom="3.4766083"
     inkscape:cx="-9.3567966"
     inkscape:cy="21.617916"
     inkscape:window-x="675"
     inkscape:window-y="132"
     inkscape:window-maximized="0"
     inkscape:current-layer="svg2408" />
  <defs
     id="defs2410">
    <linearGradient
       id="linearGradient3780">
      <stop
         id="stop3782"
         style="stop-color:#ffffff;stop-opacity:1"
         offset="0" />
      <stop
         id="stop3784"
         style="stop-color:#ffffff;stop-opacity:0"
         offset="1" />
    </linearGradient>
    <linearGradient
       id="linearGradient3770">
      <stop
         id="stop3772"
         style="stop-color:#ff8080;stop-opacity:1"
         offset="0" />
      <stop
         id="stop3774"
         style="stop-color:#aa0000;stop-opacity:1"
         offset="1" />
    </linearGradient>
    <linearGradient
       id="linearGradient3758">
      <stop
         id="stop3760"
         style="stop-color:#fff6d5;stop-opacity:1"
         offset="0" />
      <stop
         id="stop3762"
         style="stop-color:#f1b31e;stop-opacity:1"
         offset="1" />
    </linearGradient>
    <linearGradient
       id="linearGradient3695">
      <stop
         id="stop3697"
         style="stop-color:#ffffff;stop-opacity:1"
         offset="0" />
      <stop
         id="stop3699"
         style="stop-color:#bebebe;stop-opacity:1"
         offset="1" />
    </linearGradient>
    <linearGradient
       id="linearGradient3663">
      <stop
         id="stop3665"
         style="stop-color:#ffffff;stop-opacity:1"
         offset="0" />
      <stop
         id="stop3667"
         style="stop-color:#b9b9b9;stop-opacity:1"
         offset="1" />
    </linearGradient>
    <linearGradient
       id="linearGradient3703">
      <stop
         id="stop3705"
         style="stop-color:#ffffff;stop-opacity:1"
         offset="0" />
      <stop
         id="stop3711"
         style="stop-color:#ffffff;stop-opacity:0.47058824"
         offset="0.60000002" />
      <stop
         id="stop3707"
         style="stop-color:#ffffff;stop-opacity:0"
         offset="1" />
    </linearGradient>
    <linearGradient
       id="linearGradient3684">
      <stop
         id="stop3686"
         style="stop-color:#5c88bc;stop-opacity:1"
         offset="0" />
      <stop
         id="stop3690"
         style="stop-color:#5c88bc;stop-opacity:1"
         offset="0.7881012" />
      <stop
         id="stop3688"
         style="stop-color:#416da4;stop-opacity:1"
         offset="1" />
    </linearGradient>
    <linearGradient
       id="linearGradient3664">
      <stop
         id="stop3666"
         style="stop-color:#f8e076;stop-opacity:1"
         offset="0" />
      <stop
         id="stop3680"
         style="stop-color:#f8e076;stop-opacity:1"
         offset="0.79928142" />
      <stop
         id="stop3668"
         style="stop-color:#f3db44;stop-opacity:1"
         offset="1" />
    </linearGradient>
    <linearGradient
       id="linearGradient3654">
      <stop
         id="stop3656"
         style="stop-color:#75c624;stop-opacity:1"
         offset="0" />
      <stop
         id="stop3662"
         style="stop-color:#75c624;stop-opacity:1"
         offset="0.78260219" />
      <stop
         id="stop3658"
         style="stop-color:#60a914;stop-opacity:1"
         offset="1" />
    </linearGradient>
    <linearGradient
       id="linearGradient3644">
      <stop
         id="stop3646"
         style="stop-color:#ef2929;stop-opacity:1"
         offset="0" />
      <stop
         id="stop3652"
         style="stop-color:#ef2929;stop-opacity:1"
         offset="0.80064064" />
      <stop
         id="stop3648"
         style="stop-color:#df1616;stop-opacity:1"
         offset="1" />
    </linearGradient>
    <linearGradient
       x1="45.447727"
       y1="92.539597"
       x2="45.447727"
       y2="7.0165396"
       id="ButtonShadow"
       gradientUnits="userSpaceOnUse"
       gradientTransform="scale(1.0058652,0.994169)">
      <stop
         id="stop3750"
         style="stop-color:#000000;stop-opacity:1"
         offset="0" />
      <stop
         id="stop3752"
         style="stop-color:#000000;stop-opacity:0.58823532"
         offset="1" />
    </linearGradient>
    <linearGradient
       id="linearGradient3737">
      <stop
         id="stop3739"
         style="stop-color:#ffffff;stop-opacity:1"
         offset="0" />
      <stop
         id="stop3741"
         style="stop-color:#ffffff;stop-opacity:0"
         offset="1" />
    </linearGradient>
    <filter
       color-interpolation-filters="sRGB"
       id="filter3174">
      <feGaussianBlur
         id="feGaussianBlur3176"
         stdDeviation="1.71" />
    </filter>
    <linearGradient
       x1="36.357143"
       y1="6"
       x2="36.357143"
       y2="63.893143"
       id="linearGradient3188"
       xlink:href="#linearGradient3737"
       gradientUnits="userSpaceOnUse" />
    <filter
       x="-0.192"
       y="-0.192"
       width="1.3839999"
       height="1.3839999"
       color-interpolation-filters="sRGB"
       id="filter3794">
      <feGaussianBlur
         id="feGaussianBlur3796"
         stdDeviation="5.28" />
    </filter>
    <linearGradient
       x1="48"
       y1="20.220806"
       x2="48"
       y2="138.66119"
       id="linearGradient3613"
       xlink:href="#linearGradient3737"
       gradientUnits="userSpaceOnUse" />
    <radialGradient
       cx="48"
       cy="90.171875"
       r="42"
       fx="48"
       fy="90.171875"
       id="radialGradient3619"
       xlink:href="#linearGradient3737"
       gradientUnits="userSpaceOnUse"
       gradientTransform="matrix(1.1573129,0,0,0.99590774,-7.5510206,0.19713193)" />
    <clipPath
       id="clipPath3613">
      <rect
         width="84"
         height="84"
         rx="6"
         ry="6"
         x="6"
         y="6"
         id="rect3615"
         style="fill:#ffffff;fill-opacity:1;fill-rule:nonzero;stroke:none" />
    </clipPath>
    <radialGradient
       cx="48"
       cy="48"
       r="21"
       fx="48"
       fy="48"
       id="radialGradient3650"
       xlink:href="#linearGradient3644"
       gradientUnits="userSpaceOnUse"
       gradientTransform="matrix(7.3015877e-8,-1.9166668,2,7.6190475e-8,-48.000004,140.00001)" />
    <radialGradient
       cx="48"
       cy="67.25"
       r="40.25"
       fx="48"
       fy="67.25"
       id="radialGradient3660"
       xlink:href="#linearGradient3654"
       gradientUnits="userSpaceOnUse"
       gradientTransform="matrix(1,0,0,1.0434782,0,-22.173913)" />
    <radialGradient
       cx="48"
       cy="48"
       r="21"
       fx="48"
       fy="48"
       id="radialGradient3670"
       xlink:href="#linearGradient3664"
       gradientUnits="userSpaceOnUse"
       gradientTransform="matrix(2,0,0,1.9166667,-48,-44)" />
    <radialGradient
       cx="37.645935"
       cy="48"
       r="42"
       fx="37.645935"
       fy="48"
       id="radialGradient3682"
       xlink:href="#linearGradient3684"
       gradientUnits="userSpaceOnUse"
       gradientTransform="matrix(0,1,-1,0,96,10)" />
    <radialGradient
       cx="48"
       cy="48"
       r="42"
       fx="48"
       fy="48"
       id="radialGradient3694"
       xlink:href="#linearGradient3684"
       gradientUnits="userSpaceOnUse"
       gradientTransform="matrix(0,1,-1,0,96,110)" />
    <radialGradient
       cx="48.000004"
       cy="48.000004"
       r="52.679459"
       fx="48.000004"
       fy="48.000004"
       id="radialGradient3709"
       xlink:href="#linearGradient3703"
       gradientUnits="userSpaceOnUse"
       gradientTransform="matrix(0.70857089,0.70857087,-0.69993618,0.6999362,47.585537,-19.60834)" />
    <radialGradient
       cx="48.000004"
       cy="48.000004"
       r="52.679459"
       fx="48.000004"
       fy="48.000004"
       id="radialGradient3661"
       xlink:href="#linearGradient3703"
       gradientUnits="userSpaceOnUse"
       gradientTransform="matrix(-0.70857087,0.70857089,-0.6999362,-0.69993618,115.60834,47.585537)" />
    <filter
       color-interpolation-filters="sRGB"
       id="filter3684">
      <feGaussianBlur
         id="feGaussianBlur3686"
         stdDeviation="1.4950258" />
    </filter>
    <radialGradient
       cx="47.984795"
       cy="48.017754"
       r="37.375645"
       fx="47.984795"
       fy="48.017754"
       id="radialGradient3714"
       xlink:href="#linearGradient3663"
       gradientUnits="userSpaceOnUse"
       gradientTransform="translate(-1.5177772,4.9872854e-7)" />
    <linearGradient
       x1="15"
       y1="48"
       x2="81"
       y2="48"
       id="linearGradient3716"
       xlink:href="#linearGradient3695"
       gradientUnits="userSpaceOnUse"
       gradientTransform="matrix(0,1,-1,0,186,0)" />
    <linearGradient
       x1="23.25"
       y1="77.171875"
       x2="72.75"
       y2="77.171875"
       id="linearGradient3764"
       xlink:href="#linearGradient3770"
       gradientUnits="userSpaceOnUse"
       gradientTransform="matrix(0,-1,-1,0,96,96)" />
    <linearGradient
       x1="23.25"
       y1="77.171875"
       x2="72.75"
       y2="77.171875"
       id="linearGradient3768"
       xlink:href="#linearGradient3758"
       gradientUnits="userSpaceOnUse"
       gradientTransform="matrix(0,-1,1,0,0,96)" />
    <linearGradient
       x1="9.0913734"
       y1="48.017754"
       x2="83.842667"
       y2="48.017754"
       id="linearGradient3786"
       xlink:href="#linearGradient3780"
       gradientUnits="userSpaceOnUse" />
    <radialGradient
       cx="25.872829"
       cy="48.017754"
       r="37.375645"
       fx="25.872829"
       fy="48.017754"
       id="radialGradient3788"
       xlink:href="#linearGradient3663"
       gradientUnits="userSpaceOnUse"
       gradientTransform="matrix(1,0,0,1.1951431,0,-9.3703336)" />
    <linearGradient
       x1="45.447727"
       y1="92.539597"
       x2="45.447727"
       y2="7.0165396"
       id="ButtonShadow-0"
       gradientUnits="userSpaceOnUse"
       gradientTransform="matrix(1.0058652,0,0,0.994169,100,0)">
      <stop
         id="stop3750-8"
         style="stop-color:#000000;stop-opacity:1"
         offset="0" />
      <stop
         id="stop3752-5"
         style="stop-color:#000000;stop-opacity:0.58823532"
         offset="1" />
    </linearGradient>
    <linearGradient
       x1="32.251034"
       y1="6.1317081"
       x2="32.251034"
       y2="90.238609"
       id="linearGradient3780-7"
       xlink:href="#ButtonShadow-0"
       gradientUnits="userSpaceOnUse"
       gradientTransform="matrix(1.0238095,0,0,1.0119048,-1.1428571,-98.071429)" />
    <linearGradient
       x1="32.251034"
       y1="6.1317081"
       x2="32.251034"
       y2="90.238609"
       id="linearGradient3772"
       xlink:href="#ButtonShadow-0"
       gradientUnits="userSpaceOnUse"
       gradientTransform="matrix(1.0238095,0,0,1.0119048,-1.1428571,-98.071429)" />
    <linearGradient
       x1="32.251034"
       y1="6.1317081"
       x2="32.251034"
       y2="90.238609"
       id="linearGradient3725"
       xlink:href="#ButtonShadow-0"
       gradientUnits="userSpaceOnUse"
       gradientTransform="matrix(1.0238095,0,0,1.0119048,-1.1428571,-98.071429)" />
    <linearGradient
       x1="32.251034"
       y1="6.1317081"
       x2="32.251034"
       y2="90.238609"
       id="linearGradient3721"
       xlink:href="#ButtonShadow-0"
       gradientUnits="userSpaceOnUse"
       gradientTransform="translate(0,-97)" />
    <linearGradient
       x1="32.251034"
       y1="6.1317081"
       x2="32.251034"
       y2="90.238609"
       id="linearGradient3071"
       xlink:href="#ButtonShadow-0"
       gradientUnits="userSpaceOnUse"
       gradientTransform="matrix(1.0238095,0,0,1.0119048,-1.1428571,-98.071429)" />
    <radialGradient
       r="7.3461795"
       fy="15.124241"
       fx="32.260715"
       cy="15.124241"
       cx="32.260715"
       gradientTransform="matrix(1.7074105e-6,7.4052962,-6.5340085,1.7074105e-6,130.82188,-222.90019)"
       gradientUnits="userSpaceOnUse"
       id="radialGradient3149"
       xlink:href="#linearGradient4178"
       inkscape:collect="always" />
    <radialGradient
       r="11.930438"
       fy="12.011703"
       fx="32.423401"
       cy="12.011703"
       cx="32.423401"
       gradientTransform="matrix(9.7566314e-7,4.5598183,-4.0233222,7.3174736e-7,80.326933,-131.84483)"
       gradientUnits="userSpaceOnUse"
       id="radialGradient3146"
       xlink:href="#linearGradient4170"
       inkscape:collect="always" />
    <radialGradient
       r="12.223021"
       fy="13.299287"
       fx="32.433777"
       cy="13.299287"
       cx="32.433777"
       gradientTransform="matrix(9.7566314e-7,4.4506694,-3.9270159,8.9435788e-7,84.226494,-128.35204)"
       gradientUnits="userSpaceOnUse"
       id="radialGradient3143"
       xlink:href="#linearGradient4194-8"
       inkscape:collect="always" />
    <radialGradient
       r="8.2291374"
       fy="18.550816"
       fx="32.292049"
       cy="18.550816"
       cx="32.292049"
       gradientTransform="matrix(1.1382737e-6,6.610733,-5.832931,8.9435788e-7,140.2056,-197.47414)"
       gradientUnits="userSpaceOnUse"
       id="radialGradient3140"
       xlink:href="#linearGradient4186"
       inkscape:collect="always" />
    <linearGradient
       id="linearGradient4194-8">
      <stop
         style="stop-color:#ddcd33;stop-opacity:1;"
         offset="0"
         id="stop4196" />
      <stop
         style="stop-color:#a1b53a;stop-opacity:0.57789272;"
         offset="1"
         id="stop4198" />
    </linearGradient>
    <radialGradient
       inkscape:collect="always"
       xlink:href="#linearGradient4194-8"
       id="radialGradient4200"
       cx="32.433777"
       cy="13.299287"
       fx="32.433777"
       fy="13.299287"
       r="12.223021"
       gradientTransform="matrix(-2.7370113,2.7370125,-2.4149832,-2.4149821,162.95858,-38.723506)"
       gradientUnits="userSpaceOnUse" />
    <linearGradient
       id="linearGradient4170">
      <stop
         style="stop-color:#78bf45;stop-opacity:1;"
         offset="0"
         id="stop4172" />
      <stop
         style="stop-color:#98aa46;stop-opacity:0.57466066;"
         offset="1"
         id="stop4174" />
    </linearGradient>
    <radialGradient
       inkscape:collect="always"
       xlink:href="#linearGradient4170"
       id="radialGradient4176"
       cx="32.423401"
       cy="12.011703"
       fx="32.423401"
       fy="12.011703"
       r="11.930438"
       gradientTransform="matrix(-2.8041342,2.8041354,-2.4742082,-2.4742073,162.70843,-43.269554)"
       gradientUnits="userSpaceOnUse" />
    <linearGradient
       id="linearGradient4186">
      <stop
         style="stop-color:#4ab7dc;stop-opacity:1;"
         offset="0"
         id="stop4188" />
      <stop
         style="stop-color:#4c7abe;stop-opacity:0.68842924;"
         offset="1"
         id="stop4190-9" />
    </linearGradient>
    <radialGradient
       inkscape:collect="always"
       xlink:href="#linearGradient4186"
       id="radialGradient4192"
       cx="32.292049"
       cy="18.550816"
       fx="32.292049"
       fy="18.550816"
       r="8.2291374"
       gradientTransform="matrix(-4.0653776,4.065379,-3.5870568,-3.5870557,239.89161,-46.805999)"
       gradientUnits="userSpaceOnUse" />
    <linearGradient
       id="linearGradient4178">
      <stop
         style="stop-color:#c67a48;stop-opacity:1;"
         offset="0"
         id="stop4180" />
      <stop
         style="stop-color:#c2405c;stop-opacity:0.67937946;"
         offset="1"
         id="stop4182" />
    </linearGradient>
    <radialGradient
       inkscape:collect="always"
       xlink:href="#linearGradient4178"
       id="radialGradient4184"
       cx="32.260715"
       cy="15.124241"
       fx="32.260715"
       fy="15.124241"
       r="7.3461795"
       gradientTransform="matrix(-4.5540069,4.554009,-4.0181964,-4.0181943,249.7571,-68.212839)"
       gradientUnits="userSpaceOnUse" />
    <linearGradient
       id="linearGradient5602">
      <stop
         id="stop5604"
         style="stop-color:#4576bf;stop-opacity:1;"
         offset="0" />
      <stop
         id="stop5606"
         style="stop-color:#38567a;stop-opacity:1;"
         offset="1" />
    </linearGradient>
    <linearGradient
       gradientUnits="userSpaceOnUse"
       xlink:href="#linearGradient4052"
       id="linearGradient4176"
       y2="67"
       x2="48"
       y1="31.772171"
       x1="48" />
    <linearGradient
       spreadMethod="reflect"
       gradientUnits="userSpaceOnUse"
       xlink:href="#linearGradient4052"
       id="linearGradient4168"
       y2="43"
       x2="58"
       y1="43"
       x1="48" />
    <linearGradient
       gradientUnits="userSpaceOnUse"
       xlink:href="#linearGradient4142"
       id="linearGradient4148"
       y2="64.021729"
       x2="48"
       y1="41"
       x1="48" />
    <linearGradient
       spreadMethod="reflect"
       gradientTransform="matrix(1,0,0,-1,0,96)"
       gradientUnits="userSpaceOnUse"
       xlink:href="#linearGradient4052"
       id="linearGradient4122"
       y2="15.5"
       x2="90"
       y1="15.5"
       x1="47.997025" />
    <linearGradient
       spreadMethod="reflect"
       gradientUnits="userSpaceOnUse"
       xlink:href="#linearGradient4052"
       id="linearGradient4076"
       y2="25.5"
       x2="90"
       y1="25.5"
       x1="47.973225" />
    <linearGradient
       spreadMethod="reflect"
       gradientUnits="userSpaceOnUse"
       xlink:href="#linearGradient4052"
       id="linearGradient4074"
       y2="70.5"
       x2="90"
       y1="70.5"
       x1="47.973225" />
    <linearGradient
       spreadMethod="reflect"
       gradientUnits="userSpaceOnUse"
       xlink:href="#linearGradient4052"
       id="linearGradient4058"
       y2="15.5"
       x2="90"
       y1="15.5"
       x1="47.997025" />
    <linearGradient
       gradientTransform="translate(0,-100)"
       gradientUnits="userSpaceOnUse"
       xlink:href="#linearGradient3700-1-8"
       id="linearGradient4050"
       y2="5.9877172"
       x2="48"
       y1="90"
       x1="48" />
    <linearGradient
       id="linearGradient3700-1-8">
      <stop
         offset="0"
         style="stop-color:#502d16;stop-opacity:1"
         id="stop3702-3-5" />
      <stop
         offset="1"
         style="stop-color:#ad5b31;stop-opacity:1;"
         id="stop3704-3-1" />
    </linearGradient>
    <linearGradient
       gradientTransform="matrix(1,0,0,0.71875,0,13.5)"
       gradientUnits="userSpaceOnUse"
       xlink:href="#linearGradient3677-7"
       id="linearGradient3792"
       y2="15.501938"
       x2="32"
       y1="80"
       x1="32" />
    <linearGradient
       id="linearGradient3677-7">
      <stop
         offset="0"
         style="stop-color:#000000;stop-opacity:1"
         id="stop3679-0" />
      <stop
         offset="1"
         style="stop-color:#311e12;stop-opacity:1"
         id="stop3681-3" />
    </linearGradient>
    <linearGradient
       gradientUnits="userSpaceOnUse"
       xlink:href="#linearGradient3677"
       id="linearGradient3683"
       y2="48"
       x2="80"
       y1="48"
       x1="16" />
    <linearGradient
       gradientTransform="matrix(1.0238095,0,0,1.0119048,-1.1428571,-98.071429)"
       gradientUnits="userSpaceOnUse"
       xlink:href="#ButtonShadow-0-1"
       id="linearGradient3026"
       y2="90.238609"
       x2="32.251034"
       y1="6.1317081"
       x1="32.251034" />
    <linearGradient
       gradientTransform="translate(0,-97)"
       gradientUnits="userSpaceOnUse"
       xlink:href="#ButtonShadow-0-1"
       id="linearGradient3721-5"
       y2="90.238609"
       x2="32.251034"
       y1="6.1317081"
       x1="32.251034" />
    <linearGradient
       gradientTransform="matrix(1.0238095,0,0,1.0119048,-1.1428571,-98.071429)"
       gradientUnits="userSpaceOnUse"
       xlink:href="#ButtonShadow-0-1"
       id="linearGradient3725-8"
       y2="90.238609"
       x2="32.251034"
       y1="6.1317081"
       x1="32.251034" />
    <linearGradient
       gradientTransform="matrix(1.0238095,0,0,1.0119048,-1.1428571,-98.071429)"
       gradientUnits="userSpaceOnUse"
       xlink:href="#ButtonShadow-0-1"
       id="linearGradient3772-1"
       y2="90.238609"
       x2="32.251034"
       y1="6.1317081"
       x1="32.251034" />
    <linearGradient
       gradientTransform="matrix(1.0238095,0,0,1.0119048,-1.1428571,-98.071429)"
       gradientUnits="userSpaceOnUse"
       xlink:href="#ButtonShadow-0-1"
       id="linearGradient3780-71"
       y2="90.238609"
       x2="32.251034"
       y1="6.1317081"
       x1="32.251034" />
    <linearGradient
       gradientTransform="matrix(1.0058652,0,0,0.994169,100,0)"
       gradientUnits="userSpaceOnUse"
       id="ButtonShadow-0-1"
       y2="7.0165396"
       x2="45.447727"
       y1="92.539597"
       x1="45.447727">
      <stop
         offset="0"
         style="stop-color:#000000;stop-opacity:1"
         id="stop3750-8-6" />
      <stop
         offset="1"
         style="stop-color:#000000;stop-opacity:0.58823532"
         id="stop3752-5-0" />
    </linearGradient>
    <linearGradient
       gradientUnits="userSpaceOnUse"
       xlink:href="#linearGradient3700"
       id="linearGradient3617"
       y2="5.9877172"
       x2="48"
       y1="90"
       x1="48" />
    <clipPath
       id="clipPath3613-0">
      <rect
         style="fill:#ffffff;fill-opacity:1;fill-rule:nonzero;stroke:none"
         id="rect3615-9"
         y="6"
         x="6"
         ry="6"
         rx="6"
         height="84"
         width="84" />
    </clipPath>
    <radialGradient
       gradientTransform="matrix(1.1573129,0,0,0.99590774,-7.5510206,0.19713193)"
       gradientUnits="userSpaceOnUse"
       xlink:href="#linearGradient3737-5"
       id="radialGradient3619-9"
       fy="90.171875"
       fx="48"
       r="42"
       cy="90.171875"
       cx="48" />
    <filter
       id="filter3794-5"
       color-interpolation-filters="sRGB"
       height="1.3839999"
       width="1.3839999"
       y="-0.192"
       x="-0.192">
      <feGaussianBlur
         stdDeviation="5.28"
         id="feGaussianBlur3796-2" />
    </filter>
    <linearGradient
       gradientUnits="userSpaceOnUse"
       xlink:href="#linearGradient3737-5"
       id="linearGradient3188-0"
       y2="63.893143"
       x2="36.357143"
       y1="6"
       x1="36.357143" />
    <filter
       id="filter3174-4"
       color-interpolation-filters="sRGB">
      <feGaussianBlur
         stdDeviation="1.71"
         id="feGaussianBlur3176-2" />
    </filter>
    <linearGradient
       id="linearGradient3700">
      <stop
         offset="0"
         style="stop-color:#502d16;stop-opacity:1"
         id="stop3702" />
      <stop
         offset="1"
         style="stop-color:#8a512c;stop-opacity:1"
         id="stop3704" />
    </linearGradient>
    <linearGradient
       id="linearGradient3737-5">
      <stop
         offset="0"
         style="stop-color:#ffffff;stop-opacity:1"
         id="stop3739-8" />
      <stop
         offset="1"
         style="stop-color:#ffffff;stop-opacity:0"
         id="stop3741-2" />
    </linearGradient>
    <linearGradient
       gradientTransform="scale(1.0058652,0.994169)"
       gradientUnits="userSpaceOnUse"
       id="ButtonShadow-7"
       y2="7.0165396"
       x2="45.447727"
       y1="92.539597"
       x1="45.447727">
      <stop
         offset="0"
         style="stop-color:#000000;stop-opacity:1"
         id="stop3750-2" />
      <stop
         offset="1"
         style="stop-color:#000000;stop-opacity:0.58823532"
         id="stop3752-52" />
    </linearGradient>
    <linearGradient
       id="linearGradient3677">
      <stop
         offset="0"
         style="stop-color:#190e07;stop-opacity:1"
         id="stop3679" />
      <stop
         offset="1"
         style="stop-color:#311e12;stop-opacity:1"
         id="stop3681" />
    </linearGradient>
    <linearGradient
       id="linearGradient4052">
      <stop
         offset="0"
         style="stop-color:#f4a615;stop-opacity:1"
         id="stop4054" />
      <stop
         offset="1"
         style="stop-color:#f47d15;stop-opacity:1"
         id="stop4056" />
    </linearGradient>
    <linearGradient
       id="linearGradient4142">
      <stop
         offset="0"
         style="stop-color:#f4a615;stop-opacity:1"
         id="stop4144" />
      <stop
         offset="1"
         style="stop-color:#f4a615;stop-opacity:0"
         id="stop4146" />
    </linearGradient>
    <linearGradient
       inkscape:collect="always"
       xlink:href="#linearGradient3700-1-8"
       id="linearGradient4283"
       gradientUnits="userSpaceOnUse"
       gradientTransform="translate(-199.44201,23.95895)"
       x1="48"
       y1="90"
       x2="48"
       y2="5.9877172" />
    <linearGradient
       inkscape:collect="always"
       xlink:href="#linearGradient3677"
       id="linearGradient4309"
       gradientUnits="userSpaceOnUse"
       x1="16"
       y1="48"
       x2="80"
       y2="48"
       gradientTransform="matrix(0,-1.125,1.125,0,-15.63209,233.72514)" />
  </defs>
  <metadata
     id="metadata2413">
    <rdf:RDF>
      <cc:Work
         rdf:about="">
        <dc:format>image/svg+xml</dc:format>
        <dc:type
           rdf:resource="http://purl.org/dc/dcmitype/StillImage" />
        <dc:title></dc:title>
      </cc:Work>
    </rdf:RDF>
  </metadata>
  <g
     id="layer2"
     style="display:none">
    <rect
       width="86"
       height="85"
       rx="6"
       ry="6"
       x="5"
       y="7"
       id="rect3745"
       style="opacity:0.9;fill:url(#ButtonShadow);fill-opacity:1;fill-rule:nonzero;stroke:none;filter:url(#filter3174)" />
  </g>
  <g
     transform="translate(-182.36492,21.777199)"
     inkscape:export-ydpi="90"
     inkscape:export-xdpi="90"
     inkscape:export-filename="folder.png"
     id="g3043" />
  <g
     style="fill:#ffffff"
     inkscape:label="#g3701"
     transform="matrix(1.0385892,0,0,1.0385892,1032.9823,1900.507)"
     id="scalable" />
  <g
     inkscape:transform-center-y="-10.413743"
     id="g3005"
     transform="translate(-181.73992,21.694916)" />
  <rect
     style="fill:#be5b31;fill-opacity:1;stroke:none"
     id="rect3985"
     width="96"
     height="96"
     x="0"
     y="0" />
  <g
     id="layer2-2"
     style="display:none"
     transform="translate(-211.6454,121.51827)">
    <rect
       width="86"
       height="85"
       rx="6"
       ry="6"
       x="5"
       y="7"
       id="rect3745-2"
       style="opacity:0.9;fill:url(#ButtonShadow-7);fill-opacity:1;fill-rule:nonzero;stroke:none;filter:url(#filter3174-4)" />
  </g>
  <g
     id="g4320"
     style="fill:#ffffff"
     transform="matrix(1.088829,0,0,1.088829,115.19123,-139.39015)">
    <path
       d="m -61.44201,137.95895 c -18.77768,0 -34,15.22232 -34,34 0,18.77768 15.22232,34 34,34 18.77768,0 34,-15.22232 34,-34 0,-18.77768 -15.22232,-34 -34,-34 z m 0,1 c 18.2254,0 33,14.7746 33,33 0,18.2254 -14.7746,33 -33,33 -18.2254,0 -33,-14.7746 -33,-33 0,-18.2254 14.7746,-33 33,-33 z"
       inkscape:connector-curvature="0"
       id="path3685"
       style="color:#000000;fill:#ffffff;fill-opacity:1;fill-rule:nonzero;stroke:none;stroke-width:1;marker:none;visibility:visible;display:inline;overflow:visible;enable-background:accumulate" />
    <path
       d="m -65.44201,139.95895 0,1 0,6 1,0 0,-6 5,0 0,3 -2,0 0,1 3,0 0,-1 0,-4 -1,0 -5,0 -1,0 z m 2,2 0,1 0,3 0,1 7,0 0,-1 -6,0 0,-3 2,0 0,-1 -3,0 z"
       inkscape:connector-curvature="0"
       id="rect3697"
       style="color:#000000;fill:#ffffff;fill-opacity:1;fill-rule:nonzero;stroke:none;stroke-width:1;marker:none;visibility:visible;display:inline;overflow:visible;enable-background:accumulate" />
    <path
       d="m -55.1995,140.31987 -0.31377,0.9495 -1.88259,5.69701 0.9495,0.31376 1.88259,-5.697 4.7475,1.56883 -0.94129,2.8485 -1.899,-0.62753 -0.31377,0.9495 2.8485,0.9413 0.31377,-0.9495 1.25506,-3.798 -0.9495,-0.31377 -4.7475,-1.56883 -0.9495,-0.31377 z m 1.27147,2.52654 -0.31377,0.9495 -0.9413,2.8485 -0.31376,0.9495 6.6465,2.19636 0.31377,-0.9495 -5.69701,-1.8826 0.9413,-2.8485 1.899,0.62754 0.31377,-0.9495 -2.8485,-0.9413 z"
       inkscape:connector-curvature="0"
       id="path3714"
       style="color:#000000;fill:#ffffff;fill-opacity:1;fill-rule:nonzero;stroke:none;stroke-width:1;marker:none;visibility:visible;display:inline;overflow:visible;enable-background:accumulate" />
    <path
       d="m -45.75194,143.78411 -0.59114,0.80657 -3.54682,4.83943 0.80657,0.59113 3.54682,-4.83943 4.03286,2.95568 -1.77341,2.41972 -1.61314,-1.18227 -0.59114,0.80657 2.41972,1.77341 0.59113,-0.80658 2.36455,-3.22628 -0.80657,-0.59114 -4.03286,-2.95568 -0.80658,-0.59113 z m 0.43087,2.79541 -0.59114,0.80657 -1.77341,2.41972 -0.59113,0.80657 5.646,4.13795 0.59113,-0.80657 -4.83943,-3.54681 1.77341,-2.41972 1.61315,1.18227 0.59113,-0.80657 -2.41971,-1.77341 z"
       inkscape:connector-curvature="0"
       id="path3716"
       style="color:#000000;fill:#ffffff;fill-opacity:1;fill-rule:nonzero;stroke:none;stroke-width:1;marker:none;visibility:visible;display:inline;overflow:visible;enable-background:accumulate" />
    <path
       d="m -37.88043,149.9396 -0.80966,0.5869 -4.85797,3.52138 0.5869,0.80966 4.85797,-3.52138 2.93448,4.04831 -2.42898,1.76069 -1.17379,-1.61933 -0.80967,0.5869 1.76069,2.42899 0.80967,-0.5869 3.23864,-2.34759 -0.58689,-0.80966 -2.93449,-4.04831 -0.5869,-0.80966 z m -0.44552,2.79312 -0.80967,0.58689 -2.42898,1.76069 -0.80966,0.5869 4.10827,5.66763 0.80967,-0.5869 -3.52139,-4.85796 2.42899,-1.7607 1.17379,1.61933 0.80967,-0.5869 -1.76069,-2.42898 z"
       inkscape:connector-curvature="0"
       id="path3718"
       style="color:#000000;fill:#ffffff;fill-opacity:1;fill-rule:nonzero;stroke:none;stroke-width:1;marker:none;visibility:visible;display:inline;overflow:visible;enable-background:accumulate" />
    <path
       d="m -32.23317,158.28987 -0.95131,0.30824 -5.70784,1.84947 0.30824,0.95131 5.70785,-1.84947 1.54122,4.75653 -2.85392,0.92474 -0.61649,-1.90262 -0.9513,0.30825 0.92473,2.85392 0.95131,-0.30824 3.80523,-1.23299 -0.30825,-0.9513 -1.54123,-4.75654 -0.30824,-0.9513 z m -1.28612,2.5191 -0.95131,0.30825 -2.85392,0.92473 -0.95131,0.30825 2.15772,6.65915 0.95131,-0.30825 -1.84948,-5.70784 2.85392,-0.92474 0.61649,1.90262 0.95131,-0.30825 -0.92473,-2.85392 z"
       inkscape:connector-curvature="0"
       id="path3720"
       style="color:#000000;fill:#ffffff;fill-opacity:1;fill-rule:nonzero;stroke:none;stroke-width:1;marker:none;visibility:visible;display:inline;overflow:visible;enable-background:accumulate" />
    <path
       d="m -29.43188,168.04083 -1,-0.003 -5.99998,-0.0154 -0.003,1 5.99998,0.0154 -0.0128,4.99998 -2.99999,-0.008 0.005,-1.99999 -0.99999,-0.003 -0.008,2.99999 0.99999,0.003 3.99999,0.0102 0.003,-1 0.0128,-4.99998 0.003,-1 z m -2.00511,1.99488 -1,-0.003 -2.99999,-0.008 -0.99999,-0.003 -0.0179,6.99998 0.99999,0.003 0.0153,-5.99998 2.99999,0.008 -0.005,1.99999 1,0.003 0.008,-2.99998 z"
       inkscape:connector-curvature="0"
       id="path3722"
       style="color:#000000;fill:#ffffff;fill-opacity:1;fill-rule:nonzero;stroke:none;stroke-width:1;marker:none;visibility:visible;display:inline;overflow:visible;enable-background:accumulate" />
    <path
       d="m -29.81771,178.27586 -0.94874,-0.31604 -5.69256,-1.89599 -0.31604,0.94875 5.69256,1.89599 -1.57999,4.7438 -2.84627,-0.94802 0.63198,-1.89752 -0.94875,-0.31604 -0.94802,2.84627 0.94875,0.31604 3.79504,1.26399 0.31604,-0.94875 1.57999,-4.7438 0.31604,-0.94874 z m -2.52951,1.26553 -0.94875,-0.31604 -2.84627,-0.94802 -0.94875,-0.31604 -2.21199,6.64132 0.94875,0.31604 1.89599,-5.69256 2.84627,0.94802 -0.63198,1.89753 0.94875,0.31603 0.94802,-2.84627 z"
       inkscape:connector-curvature="0"
       id="path3724"
       style="color:#000000;fill:#ffffff;fill-opacity:1;fill-rule:nonzero;stroke:none;stroke-width:1;marker:none;visibility:visible;display:inline;overflow:visible;enable-background:accumulate" />
    <path
       d="m -33.32508,187.75256 -0.80436,-0.59413 -4.82636,-3.5646 -0.59413,0.80437 4.82635,3.5646 -2.97049,4.02196 -2.41316,-1.78232 1.18818,-1.6088 -0.80437,-0.59413 -1.78231,2.41316 0.80436,0.59413 3.21757,2.3764 0.59414,-0.80437 2.97049,-4.02196 0.59413,-0.80436 z m -2.79698,0.42059 -0.80437,-0.59414 -2.41316,-1.78232 -0.80436,-0.59413 -4.1587,5.63075 0.80437,0.59413 3.56459,-4.82635 2.41316,1.78232 -1.18818,1.60879 0.80436,0.59413 1.78232,-2.41315 z"
       inkscape:connector-curvature="0"
       id="path3726"
       style="color:#000000;fill:#ffffff;fill-opacity:1;fill-rule:nonzero;stroke:none;stroke-width:1;marker:none;visibility:visible;display:inline;overflow:visible;enable-background:accumulate" />
    <path
       d="m -39.63828,195.72021 -0.57946,-0.815 -3.47697,-4.88986 -0.815,0.57946 3.47697,4.88986 -4.07488,2.89747 -1.73846,-2.44494 1.62994,-1.159 -0.57946,-0.815 -2.44494,1.73846 0.57946,0.815 2.31798,3.2599 0.815,-0.57946 4.07488,-2.89747 0.815,-0.57947 z m -2.78894,-0.47097 -0.57946,-0.815 -1.73846,-2.44494 -0.57946,-0.815 -5.70484,4.05646 0.57946,0.815 4.88986,-3.47696 1.73846,2.44494 -1.62994,1.159 0.57946,0.815 2.44494,-1.73846 z"
       inkscape:connector-curvature="0"
       id="path3728"
       style="color:#000000;fill:#ffffff;fill-opacity:1;fill-rule:nonzero;stroke:none;stroke-width:1;marker:none;visibility:visible;display:inline;overflow:visible;enable-background:accumulate" />
    <path
       d="m -48.18358,201.35647 -0.29484,-0.95555 -1.76931,-5.7332 -0.95555,0.29485 1.76931,5.7332 -4.77766,1.47442 -0.88463,-2.8666 1.91106,-0.58979 -0.29485,-0.95554 -2.8666,0.88462 0.29484,0.95555 1.17954,3.82213 0.95555,-0.29484 4.77766,-1.47443 0.95555,-0.29484 z m -2.50083,-1.3213 -0.29485,-0.95554 -0.88463,-2.86661 -0.29484,-0.95554 -6.68873,2.06419 0.29484,0.95554 5.7332,-1.76931 0.88463,2.86661 -1.91107,0.58979 0.29485,0.95554 2.8666,-0.88463 z"
       inkscape:connector-curvature="0"
       id="path3730"
       style="color:#000000;fill:#ffffff;fill-opacity:1;fill-rule:nonzero;stroke:none;stroke-width:1;marker:none;visibility:visible;display:inline;overflow:visible;enable-background:accumulate" />
    <path
       d="m -57.95319,204.01871 0.016,-0.99987 0.0958,-5.99924 -0.99987,-0.016 -0.0958,5.99923 -4.99937,-0.0798 0.0479,-2.99961 1.99975,0.0319 0.016,-0.99988 -2.99962,-0.0479 -0.016,0.99988 -0.0638,3.99949 0.99987,0.016 4.99937,0.0798 0.99987,0.016 z m -1.96783,-2.03166 0.016,-0.99987 0.0479,-2.99962 0.016,-0.99987 -6.99911,-0.11171 -0.016,0.99987 5.99924,0.0957 -0.0479,2.99962 -1.99975,-0.0319 -0.016,0.99987 2.99962,0.0479 z"
       inkscape:connector-curvature="0"
       id="path3732"
       style="color:#000000;fill:#ffffff;fill-opacity:1;fill-rule:nonzero;stroke:none;stroke-width:1;marker:none;visibility:visible;display:inline;overflow:visible;enable-background:accumulate" />
    <path
       d="m -67.98811,203.53661 0.32291,-0.94643 1.93723,-5.67866 -0.94643,-0.32291 -1.93723,5.67866 -4.73221,-1.61435 0.96863,-2.83933 1.89289,0.64573 0.32291,-0.94643 -2.83932,-0.96864 -0.32291,0.94643 -1.29148,3.78578 0.94643,0.32291 4.73222,1.61435 0.94643,0.32291 z m -1.24714,-2.53862 0.32291,-0.94644 0.96863,-2.83932 0.32291,-0.94643 -6.6251,-2.26009 -0.32291,0.94643 5.67866,1.93722 -0.96864,2.83932 -1.89289,-0.64572 -0.32291,0.94643 2.83932,0.96863 z"
       inkscape:connector-curvature="0"
       id="path3734"
       style="color:#000000;fill:#ffffff;fill-opacity:1;fill-rule:nonzero;stroke:none;stroke-width:1;marker:none;visibility:visible;display:inline;overflow:visible;enable-background:accumulate" />
    <path
       d="m -84.754029,194.05668 0.788939,-0.61446 4.733496,-3.68701 -0.614475,-0.78896 -4.733484,3.68701 -3.072516,-3.94456 2.366769,-1.84349 1.229007,1.57782 0.788943,-0.61447 -1.843486,-2.36676 -0.788938,0.61447 -3.155662,2.45801 0.614475,0.78894 3.072504,3.94458 0.614475,0.78894 z m 0.348828,-2.80683 0.788941,-0.61448 2.366758,-1.84349 0.788939,-0.61446 -4.301508,-5.5224 -0.788942,0.61447 3.687008,4.73348 -2.366759,1.8435 -1.229017,-1.57783 -0.78894,0.61447 1.843483,2.36676 z"
       inkscape:connector-curvature="0"
       id="path3736"
       style="color:#000000;fill:#ffffff;fill-opacity:1;fill-rule:nonzero;stroke:none;stroke-width:1;marker:none;visibility:visible;display:inline;overflow:visible;enable-background:accumulate" />
    <path
       d="m -77.607038,200.00027 0.620737,-0.78402 3.724207,-4.70428 -0.784021,-0.62074 -3.724207,4.70428 -3.920239,-3.10351 1.86213,-2.35212 1.568098,1.24139 0.620739,-0.78402 -2.352121,-1.86213 -0.620737,0.78403 -2.482811,3.13618 0.78403,0.62074 3.92023,3.10351 0.784021,0.62073 z m -0.326689,-2.8095 0.620737,-0.78402 1.86212,-2.35212 0.620737,-0.78402 -5.488324,-4.34492 -0.620737,0.78402 4.70428,3.72421 -1.862127,2.35213 -1.568101,-1.24139 -0.620736,0.78402 2.352119,1.86212 z"
       inkscape:connector-curvature="0"
       id="path3738"
       style="color:#000000;fill:#ffffff;fill-opacity:1;fill-rule:nonzero;stroke:none;stroke-width:1;marker:none;visibility:visible;display:inline;overflow:visible;enable-background:accumulate" />
    <path
       d="m -90.86112,185.1694 0.95602,-0.29329 5.73608,-1.75995 -0.29328,-0.95602 -5.73608,1.75994 -1.46663,-4.78006 2.86805,-0.87995 0.58667,1.91202 0.95602,-0.29328 -0.87995,-2.86805 -0.95602,0.29329 -3.82406,1.1733 0.29329,0.95602 1.46663,4.78007 0.29328,0.95602 z m 1.32537,-2.49868 0.95603,-0.29328 2.86804,-0.87995 0.95603,-0.29329 -2.05328,-6.69209 -0.95602,0.29329 1.75995,5.73607 -2.86805,0.87995 -0.58666,-1.91202 -0.95603,0.29329 0.87995,2.86804 z"
       inkscape:connector-curvature="0"
       id="path3740"
       style="color:#000000;fill:#ffffff;fill-opacity:1;fill-rule:nonzero;stroke:none;stroke-width:1;marker:none;visibility:visible;display:inline;overflow:visible;enable-background:accumulate" />
    <path
       d="m -93.50227,175.44316 0.99987,0.0161 5.99922,0.0966 0.0161,-0.99988 -5.99922,-0.0966 0.0805,-4.99935 2.99961,0.0483 -0.0322,1.99974 0.99987,0.0161 0.0483,-2.99961 -0.99987,-0.0161 -3.99948,-0.0644 -0.0161,0.99987 -0.0805,4.99936 -0.0161,0.99986 z m 2.03194,-1.96754 0.99987,0.0161 2.99961,0.0483 0.99987,0.0161 0.11272,-6.99909 -0.99987,-0.0161 -0.0966,5.99922 -2.99962,-0.0483 0.0322,-1.99974 -0.99986,-0.0161 -0.0483,2.9996 z"
       inkscape:connector-curvature="0"
       id="path3742"
       style="color:#000000;fill:#ffffff;fill-opacity:1;fill-rule:nonzero;stroke:none;stroke-width:1;marker:none;visibility:visible;display:inline;overflow:visible;enable-background:accumulate" />
    <path
       d="m -93.01298,165.38065 0.9461,0.32388 5.67668,1.94301 0.32388,-0.9461 -5.67668,-1.94301 1.61917,-4.73057 2.83834,0.97153 -0.64766,1.89223 0.9461,0.32387 0.97153,-2.83833 -0.9461,-0.32387 -3.78446,-1.29535 -0.32387,0.94611 -1.61918,4.73056 -0.32387,0.9461 z m 2.5399,-1.24455 0.9461,0.32387 2.83833,0.97153 0.9461,0.32387 2.26685,-6.62279 -0.9461,-0.32387 -1.94301,5.67668 -2.83833,-0.97153 0.64765,-1.89224 -0.9461,-0.32387 -0.97153,2.83833 z"
       inkscape:connector-curvature="0"
       id="path3744"
       style="color:#000000;fill:#ffffff;fill-opacity:1;fill-rule:nonzero;stroke:none;stroke-width:1;marker:none;visibility:visible;display:inline;overflow:visible;enable-background:accumulate" />
    <path
       d="m -89.54688,156.14388 0.80391,0.59475 4.82364,3.56827 0.59474,-0.80391 -4.82363,-3.56828 2.97356,-4.01969 2.41181,1.78416 -1.18942,1.60789 0.80392,0.59474 1.78416,-2.4118 -0.80392,-0.59475 -3.21575,-2.37885 -0.59475,0.80392 -2.97356,4.01969 -0.59474,0.80391 z m 2.7973,-0.41844 0.80392,0.59474 2.4118,1.78416 0.80391,0.59474 4.16299,-5.62757 -0.80391,-0.59474 -3.56828,4.82363 -2.4118,-1.78416 1.18941,-1.60789 -0.80391,-0.59474 -1.78416,2.4118 z"
       inkscape:connector-curvature="0"
       id="path3746"
       style="color:#000000;fill:#ffffff;fill-opacity:1;fill-rule:nonzero;stroke:none;stroke-width:1;marker:none;visibility:visible;display:inline;overflow:visible;enable-background:accumulate" />
    <path
       d="m -83.18458,148.14172 0.57736,0.81648 3.46439,4.89878 0.81649,-0.57737 -3.46439,-4.89877 4.08232,-2.88699 1.73217,2.4494 -1.63292,1.15481 0.57737,0.81648 2.4494,-1.73217 -0.57736,-0.81648 -2.30959,-3.26586 -0.81649,0.57737 -4.08232,2.88699 -0.81648,0.57736 z m 2.78772,0.47813 0.57737,0.81648 1.73217,2.44941 0.57736,0.81648 5.71525,-4.04178 -0.57737,-0.81649 -4.89877,3.46439 -1.73218,-2.4494 1.63292,-1.15481 -0.57737,-0.81649 -2.4494,1.73218 z"
       inkscape:connector-curvature="0"
       id="path3748"
       style="color:#000000;fill:#ffffff;fill-opacity:1;fill-rule:nonzero;stroke:none;stroke-width:1;marker:none;visibility:visible;display:inline;overflow:visible;enable-background:accumulate" />
    <path
       d="m -75.00159,142.69912 0.30464,0.95246 1.82809,5.71473 0.95246,-0.30464 -1.82808,-5.71473 4.76227,-1.5234 0.91402,2.85737 -1.9049,0.60938 0.30464,0.95246 2.85737,-0.91402 -0.30464,-0.95246 -1.21872,-3.80982 -0.95247,0.30464 -4.76227,1.52341 -0.95247,0.30464 z m 2.51427,1.29555 0.30464,0.95246 0.91402,2.85737 0.30464,0.95247 6.66719,-2.13276 -0.30465,-0.95247 -5.71472,1.82809 -0.91402,-2.85738 1.9049,-0.60937 -0.30464,-0.95247 -2.85737,0.91402 z"
       inkscape:connector-curvature="0"
       id="path3750"
       style="color:#000000;fill:#ffffff;fill-opacity:1;fill-rule:nonzero;stroke:none;stroke-width:1;marker:none;visibility:visible;display:inline;overflow:visible;enable-background:accumulate" />
    <path
       d="m -61.44201,147.95895 c -13.25483,0 -24,10.74517 -24,24 0,13.25483 10.74517,24 24,24 13.25483,0 24,-10.74517 24,-24 0,-13.25483 -10.74517,-24 -24,-24 z m 0,1 c 12.70255,0 23,10.29745 23,23 0,12.70255 -10.29745,23 -23,23 -12.70255,0 -23,-10.29745 -23,-23 0,-12.70255 10.29745,-23 23,-23 z"
       inkscape:connector-curvature="0"
       id="path3752"
       style="color:#000000;fill:#ffffff;fill-opacity:1;fill-rule:nonzero;stroke:none;stroke-width:1;marker:none;visibility:visible;display:inline;overflow:visible;enable-background:accumulate" />
  </g>
  <g
     id="g4344"
     transform="matrix(0.88653977,0,0,0.88653977,4.900533,9.0273449)">
    <path
       d="m 41.98756,38.752308 0,25.924133 1.234483,0 0,-25.924133 -1.234483,0 z m 4.93793,0 0,25.924133 1.234483,0 0,-25.924133 -1.234483,0 z m 4.937931,0 0,25.924133 1.234482,0 0,-25.924133 -1.234482,0 z m 4.93793,0 0,25.924133 1.234482,0 0,-25.924133 -1.234482,0 z"
       inkscape:connector-curvature="0"
       id="rect4135"
       style="color:#000000;fill:#ffffff;fill-opacity:1;fill-rule:nonzero;stroke:none;stroke-width:1;marker:none;visibility:visible;display:inline;overflow:visible;enable-background:accumulate" />
    <rect
       width="24.689651"
       height="2.4689651"
       x="37.049618"
       y="39.986797"
       id="rect4131"
       style="color:#000000;fill:#ffffff;fill-opacity:1;fill-rule:nonzero;stroke:none;stroke-width:1;marker:none;visibility:visible;display:inline;overflow:visible;enable-background:accumulate" />
    <path
       d="m 29.642735,27.641965 0,8.641377 3.703448,0 c 0,-6.730645 2.778091,-5.182678 9.87586,-4.93793 0,0 -12.344825,8.641378 -12.344825,18.517238 0,13.076614 11.937964,17.022329 17.784263,17.244178 0.253526,0.0221 0.527433,0.03321 0.848707,0.03852 0.269303,-0.0062 0.513952,-0.01938 0.732974,-0.03852 5.8463,-0.221849 17.784264,-4.167564 17.784264,-17.244178 0,-9.87586 -12.344825,-18.517238 -12.344825,-18.517238 7.097768,-0.244748 9.87586,-1.792715 9.87586,4.93793 l 3.703448,0 0,-8.641377 -16.048273,0 0,3.703447 c 11.992788,10.15715 12.327851,33.226159 -3.703448,33.331029 -0.03271,-0.0025 -0.08592,2.22e-4 -0.115671,0 C 33.363218,64.571633 33.698282,41.502562 45.69107,31.345412 l 0,-3.703447 -16.048273,0 z"
       inkscape:connector-curvature="0"
       id="path4126"
       style="fill:#ffffff;fill-opacity:1;stroke:none" />
    <path
       d="m 29.642735,27.641965 0,1.234482 16.048273,0 0,-1.234482 -16.048273,0 z m 23.570901,0 0,1.234482 16.048273,0 0,-1.234482 -16.048273,0 z M 41.717517,32.50274 c -3.247096,2.621497 -10.840299,9.573486 -10.840299,17.35991 0,0.237453 0.03086,0.462931 0.03851,0.694397 0.434328,-9.64895 12.306248,-17.977152 12.306248,-17.977152 -0.540765,-0.01864 -1.013226,-0.04765 -1.504525,-0.07716 z m 15.469609,0 c -0.491299,0.0295 -0.96376,0.05851 -1.504525,0.07716 0,0 11.87192,8.328202 12.306248,17.977152 0.0074,-0.231466 0.03851,-0.456944 0.03851,-0.694397 0,-7.786424 -7.593203,-14.738413 -10.840299,-17.35991 z M 37.011053,51.058555 c -0.231256,7.900972 3.637946,14.795162 12.383402,14.852368 0.02988,2.22e-4 0.08296,-0.0025 0.115672,0 8.745456,-0.05716 12.614658,-6.951396 12.383402,-14.852368 -0.190098,7.372244 -4.095605,13.563667 -12.383402,13.617886 -0.03271,-0.0025 -0.08592,2.22e-4 -0.115672,0 -8.287797,-0.05419 -12.193304,-6.245642 -12.383402,-13.617886 z"
       inkscape:connector-curvature="0"
       id="path4178"
       style="opacity:0.3;fill:#ffffff;fill-opacity:1;stroke:none" />
    <rect
       width="1.2344825"
       height="1.2344825"
       x="41.987545"
       y="38.752316"
       id="rect4187"
       style="color:#000000;fill:#ffffff;fill-opacity:1;fill-rule:nonzero;stroke:none;stroke-width:1;marker:none;visibility:visible;display:inline;overflow:visible;enable-background:accumulate" />
    <rect
       width="1.2344825"
       height="1.2344825"
       x="46.925476"
       y="38.752316"
       id="rect4189"
       style="color:#000000;fill:#ffffff;fill-opacity:1;fill-rule:nonzero;stroke:none;stroke-width:1;marker:none;visibility:visible;display:inline;overflow:visible;enable-background:accumulate" />
    <rect
       width="1.2344825"
       height="1.2344825"
       x="51.863407"
       y="38.752316"
       id="rect4191"
       style="color:#000000;fill:#ffffff;fill-opacity:1;fill-rule:nonzero;stroke:none;stroke-width:1;marker:none;visibility:visible;display:inline;overflow:visible;enable-background:accumulate" />
    <rect
       width="1.2344825"
       height="1.2344825"
       x="56.801338"
       y="38.752316"
       id="rect4193"
       style="color:#000000;fill:#ffffff;fill-opacity:1;fill-rule:nonzero;stroke:none;stroke-width:1;marker:none;visibility:visible;display:inline;overflow:visible;enable-background:accumulate" />
  </g>
</svg>
