<?xml version="1.0" encoding="UTF-8" standalone="no"?>
<!-- Created with Inkscape (http://www.inkscape.org/) -->

<svg
   xmlns:dc="http://purl.org/dc/elements/1.1/"
   xmlns:cc="http://creativecommons.org/ns#"
   xmlns:rdf="http://www.w3.org/1999/02/22-rdf-syntax-ns#"
   xmlns:svg="http://www.w3.org/2000/svg"
   xmlns="http://www.w3.org/2000/svg"
   xmlns:xlink="http://www.w3.org/1999/xlink"
   xmlns:sodipodi="http://sodipodi.sourceforge.net/DTD/sodipodi-0.dtd"
   xmlns:inkscape="http://www.inkscape.org/namespaces/inkscape"
   version="1.0"
   width="96"
   height="96"
   id="svg2408"
   inkscape:version="0.48.4 r9939"
   sodipodi:docname="preferences-color.svg">
  <sodipodi:namedview
     pagecolor="#ffffff"
     bordercolor="#666666"
     borderopacity="1"
     objecttolerance="10"
     gridtolerance="10"
     guidetolerance="10"
     inkscape:pageopacity="0"
     inkscape:pageshadow="2"
     inkscape:window-width="640"
     inkscape:window-height="480"
     id="namedview107"
     showgrid="false"
     inkscape:zoom="2.4583333"
     inkscape:cx="48"
     inkscape:cy="48"
     inkscape:window-x="515"
     inkscape:window-y="134"
     inkscape:window-maximized="0"
     inkscape:current-layer="svg2408" />
  <defs
     id="defs2410">
    <linearGradient
       id="linearGradient3977">
      <stop
         id="stop3979"
         style="stop-color:#f9f9f9;stop-opacity:1"
         offset="0" />
      <stop
         id="stop3981"
         style="stop-color:#f9f9f9;stop-opacity:0"
         offset="1" />
    </linearGradient>
    <linearGradient
       x1="45.447727"
       y1="92.539597"
       x2="45.447727"
       y2="7.0165396"
       id="ButtonShadow"
       gradientUnits="userSpaceOnUse"
       gradientTransform="scale(1.0058652,0.994169)">
      <stop
         id="stop3750"
         style="stop-color:#000000;stop-opacity:1"
         offset="0" />
      <stop
         id="stop3752"
         style="stop-color:#000000;stop-opacity:0.58823532"
         offset="1" />
    </linearGradient>
    <linearGradient
       id="linearGradient3737">
      <stop
         id="stop3739"
         style="stop-color:#ffffff;stop-opacity:1"
         offset="0" />
      <stop
         id="stop3741"
         style="stop-color:#ffffff;stop-opacity:0"
         offset="1" />
    </linearGradient>
    <linearGradient
       id="linearGradient3700">
      <stop
         id="stop3702"
         style="stop-color:#b4b4b4;stop-opacity:1"
         offset="0" />
      <stop
         id="stop3704"
         style="stop-color:#e6e6e6;stop-opacity:1"
         offset="1" />
    </linearGradient>
    <filter
       color-interpolation-filters="sRGB"
       id="filter3174">
      <feGaussianBlur
         id="feGaussianBlur3176"
         stdDeviation="1.71" />
    </filter>
    <linearGradient
       x1="36.357143"
       y1="6"
       x2="36.357143"
       y2="63.893143"
       id="linearGradient3188"
       xlink:href="#linearGradient3737"
       gradientUnits="userSpaceOnUse" />
    <filter
       x="-0.192"
       y="-0.192"
       width="1.3839999"
       height="1.3839999"
       color-interpolation-filters="sRGB"
       id="filter3794">
      <feGaussianBlur
         id="feGaussianBlur3796"
         stdDeviation="5.28" />
    </filter>
    <linearGradient
       x1="48"
       y1="20.220806"
       x2="48"
       y2="138.66119"
       id="linearGradient3613"
       xlink:href="#linearGradient3737"
       gradientUnits="userSpaceOnUse" />
    <radialGradient
       cx="48"
       cy="90.171875"
       r="42"
       fx="48"
       fy="90.171875"
       id="radialGradient3619"
       xlink:href="#linearGradient3737"
       gradientUnits="userSpaceOnUse"
       gradientTransform="matrix(1.1573129,0,0,0.99590774,-7.5510206,0.19713193)" />
    <clipPath
       id="clipPath3613">
      <rect
         width="84"
         height="84"
         rx="6"
         ry="6"
         x="6"
         y="6"
         id="rect3615"
         style="fill:#ffffff;fill-opacity:1;fill-rule:nonzero;stroke:none" />
    </clipPath>
    <linearGradient
       x1="48"
       y1="90"
       x2="48"
       y2="5.9877172"
       id="linearGradient3617"
       xlink:href="#linearGradient3700"
       gradientUnits="userSpaceOnUse" />
    <linearGradient
       x1="45.447727"
       y1="92.539597"
       x2="45.447727"
       y2="7.0165396"
       id="ButtonShadow-0"
       gradientUnits="userSpaceOnUse"
       gradientTransform="matrix(1.0058652,0,0,0.994169,100,0)">
      <stop
         id="stop3750-8"
         style="stop-color:#000000;stop-opacity:1"
         offset="0" />
      <stop
         id="stop3752-5"
         style="stop-color:#000000;stop-opacity:0.58823532"
         offset="1" />
    </linearGradient>
    <linearGradient
       x1="32.251034"
       y1="6.1317081"
       x2="32.251034"
       y2="90.238609"
       id="linearGradient3780"
       xlink:href="#ButtonShadow-0"
       gradientUnits="userSpaceOnUse"
       gradientTransform="matrix(1.0238095,0,0,1.0119048,-1.1428571,-98.071429)" />
    <linearGradient
       x1="32.251034"
       y1="6.1317081"
       x2="32.251034"
       y2="90.238609"
       id="linearGradient3772"
       xlink:href="#ButtonShadow-0"
       gradientUnits="userSpaceOnUse"
       gradientTransform="matrix(1.0238095,0,0,1.0119048,-1.1428571,-98.071429)" />
    <linearGradient
       x1="32.251034"
       y1="6.1317081"
       x2="32.251034"
       y2="90.238609"
       id="linearGradient3725"
       xlink:href="#ButtonShadow-0"
       gradientUnits="userSpaceOnUse"
       gradientTransform="matrix(1.0238095,0,0,1.0119048,-1.1428571,-98.071429)" />
    <linearGradient
       x1="32.251034"
       y1="6.1317081"
       x2="32.251034"
       y2="90.238609"
       id="linearGradient3721"
       xlink:href="#ButtonShadow-0"
       gradientUnits="userSpaceOnUse"
       gradientTransform="translate(0,-97)" />
    <linearGradient
       x1="32.251034"
       y1="6.1317081"
       x2="32.251034"
       y2="90.238609"
       id="linearGradient3026"
       xlink:href="#ButtonShadow-0"
       gradientUnits="userSpaceOnUse"
       gradientTransform="matrix(1.0238095,0,0,1.0119048,-1.1428571,-98.071429)" />
    <clipPath
       id="clipPath3983">
      <path
         d="m 184.12,701.5 a 2.2363,2.2363 0 0 0 -1.4688,0.90625 c 0,0 -3.328,4.7671 -4.0312,11.156 -5.0181,-4.0229 -10.75,-5.0625 -10.75,-5.0625 a 2.2363,2.2363 0 0 0 -2.5938,2.5625 c 0,0 1.034,5.7649 5.0625,10.781 -6.3978,0.70283 -11.188,4.0312 -11.188,4.0312 a 2.2363,2.2363 0 0 0 0,3.625 c 0,0 4.7948,3.3031 11.188,4 -4.0285,5.0164 -5.0625,10.781 -5.0625,10.781 a 2.2363,2.2363 0 0 0 2.5938,2.5625 c 0,0 5.7319,-1.0396 10.75,-5.0625 0.70267,6.3934 4.0312,11.188 4.0312,11.188 a 2.2363,2.2363 0 0 0 3.625,0 c 0,0 3.3111,-4.8145 4,-11.219 5.0262,4.0467 10.781,5.0938 10.781,5.0938 a 2.2363,2.2363 0 0 0 2.5938,-2.5938 c 0,0 -1.0624,-5.7373 -5.0938,-10.75 6.397,-0.69632 11.219,-4 11.219,-4 a 2.2363,2.2363 0 0 0 0,-3.625 c 0,0 -4.8167,-3.329 -11.219,-4.0312 4.0313,-5.0127 5.0938,-10.75 5.0938,-10.75 a 2.2363,2.2363 0 0 0 -2.59,-2.6 c 0,0 -5.755,1.047 -10.781,5.0938 -0.69265,-6.3936 -4,-11.188 -4,-11.188 a 2.2363,2.2363 0 0 0 -2.16,-0.91 z"
         inkscape:connector-curvature="0"
         id="path3985"
         style="color:#000000;fill:#eeeeec;fill-rule:evenodd;enable-background:new" />
    </clipPath>
    <clipPath
       id="clipPath4169">
      <path
         d="m 471.43,685.93 c 0,22.097 -12.842,40.01 -12.842,40.01 0,0 -12.842,-17.913 -12.842,-40.01 0,-22.097 12.842,-40.01 12.842,-40.01 0,0 12.842,17.913 12.842,40.01 z"
         inkscape:connector-curvature="0"
         id="path4171"
         style="color:#000000;fill:#edd400;fill-rule:evenodd;enable-background:new" />
    </clipPath>
    <filter
       x="-0.24693"
       y="-0.079258002"
       width="1.4938999"
       height="1.1585"
       color-interpolation-filters="sRGB"
       id="filter4173">
      <feGaussianBlur
         stdDeviation="2.642588"
         id="feGaussianBlur4175" />
    </filter>
    <clipPath
       id="clipPath4145">
      <path
         d="m 401.43,865.8 c 0,22.097 -12.842,40.01 -12.842,40.01 0,0 -12.842,-17.913 -12.842,-40.01 0,-22.097 12.842,-40.01 12.842,-40.01 0,0 12.842,17.913 12.842,40.01 z"
         inkscape:connector-curvature="0"
         id="path4147"
         style="color:#000000;fill:#3465a4;fill-rule:evenodd;enable-background:new" />
    </clipPath>
    <filter
       x="-0.24693"
       y="-0.079258002"
       width="1.4938999"
       height="1.1585"
       color-interpolation-filters="sRGB"
       id="filter4149">
      <feGaussianBlur
         stdDeviation="2.642588"
         id="feGaussianBlur4151" />
    </filter>
    <clipPath
       id="clipPath4181">
      <path
         d="m 348.71,698.73 c -22.064,0 -39.951,-12.861 -39.951,-12.861 0,0 17.887,-12.861 39.951,-12.861 22.064,0 39.951,12.861 39.951,12.861 0,0 -17.887,12.861 -39.951,12.861 z"
         inkscape:connector-curvature="0"
         id="path4183"
         style="color:#000000;fill:#ef2929;fill-rule:evenodd;enable-background:new" />
    </clipPath>
    <filter
       x="-0.079314999"
       y="-0.24639"
       width="1.1586"
       height="1.4928"
       color-interpolation-filters="sRGB"
       id="filter4189">
      <feGaussianBlur
         stdDeviation="2.6406013"
         id="feGaussianBlur4191" />
    </filter>
    <clipPath
       id="clipPath4197">
      <path
         d="m 299.47,763.2 c -15.602,15.625 -37.33,19.197 -37.33,19.197 0,0 3.5672,-21.76 19.169,-37.385 15.6018,-15.625 37.33,-19.197 37.33,-19.197 0,0 -3.5672,21.76 -19.169,37.385 z"
         inkscape:connector-curvature="0"
         id="path4199"
         style="color:#000000;fill:#75507b;fill-rule:evenodd;enable-background:new" />
    </clipPath>
    <filter
       x="-0.12009"
       y="-0.11991"
       width="1.2402"
       height="1.2398"
       color-interpolation-filters="sRGB"
       id="filter4201">
      <feGaussianBlur
         stdDeviation="2.8270453"
         id="feGaussianBlur4203" />
    </filter>
    <clipPath
       id="clipPath4133">
      <path
         d="m 538.47,738.73 c -22.064,0 -39.951,-12.861 -39.951,-12.861 0,0 17.887,-12.861 39.951,-12.861 22.064,0 39.951,12.861 39.951,12.861 0,0 -17.887,12.861 -39.951,12.861 z"
         inkscape:connector-curvature="0"
         id="path4135"
         style="color:#000000;fill:#65c808;fill-rule:evenodd;enable-background:new" />
    </clipPath>
    <filter
       x="-0.079314999"
       y="-0.24639"
       width="1.1586"
       height="1.4928"
       color-interpolation-filters="sRGB"
       id="filter4137">
      <feGaussianBlur
         stdDeviation="2.6406015"
         id="feGaussianBlur4139" />
    </filter>
    <clipPath
       id="clipPath4071">
      <path
         d="m 515.87,706.72 c -15.602,15.625 -37.33,19.197 -37.33,19.197 0,0 3.5672,-21.76 19.169,-37.385 15.6018,-15.625 37.33,-19.197 37.33,-19.197 0,0 -3.5672,21.76 -19.169,37.385 z"
         inkscape:connector-curvature="0"
         id="path4073"
         style="color:#000000;fill:#afea2c;fill-rule:evenodd;enable-background:new" />
    </clipPath>
    <filter
       x="-0.12009"
       y="-0.11991"
       width="1.2402"
       height="1.2398"
       color-interpolation-filters="sRGB"
       id="filter4075">
      <feGaussianBlur
         stdDeviation="2.8270455"
         id="feGaussianBlur4077" />
    </filter>
    <clipPath
       id="clipPath4083">
      <path
         d="m 515.87,745.01 c 15.602,15.625 19.169,37.385 19.169,37.385 0,0 -21.729,-3.5724 -37.33,-19.197 -15.602,-15.625 -19.169,-37.385 -19.169,-37.385 0,0 21.729,3.5724 37.33,19.197 z"
         inkscape:connector-curvature="0"
         id="path4085"
         style="color:#000000;fill:#729fcf;fill-rule:evenodd;enable-background:new" />
    </clipPath>
    <filter
       x="-0.12009"
       y="-0.11991"
       width="1.2402"
       height="1.2398"
       color-interpolation-filters="sRGB"
       id="filter4087">
      <feGaussianBlur
         stdDeviation="2.8270455"
         id="feGaussianBlur4089" />
    </filter>
    <clipPath
       id="clipPath4157">
      <path
         d="m 269.47,688.53 c 15.602,15.625 19.169,37.385 19.169,37.385 0,0 -21.729,-3.5724 -37.33,-19.197 -15.602,-15.625 -19.169,-37.385 -19.169,-37.385 0,0 21.729,3.5724 37.33,19.197 z"
         inkscape:connector-curvature="0"
         id="path4159"
         style="color:#000000;fill:#f57900;fill-rule:evenodd;enable-background:new" />
    </clipPath>
    <filter
       x="-0.12009"
       y="-0.11991"
       width="1.2402"
       height="1.2398"
       color-interpolation-filters="sRGB"
       id="filter4161">
      <feGaussianBlur
         stdDeviation="2.8270453"
         id="feGaussianBlur4163" />
    </filter>
    <linearGradient
       x1="184.46346"
       y1="711.15393"
       x2="184.46346"
       y2="804.79529"
       id="linearGradient3983"
       xlink:href="#linearGradient3977"
       gradientUnits="userSpaceOnUse" />
    <linearGradient
       inkscape:collect="always"
       xlink:href="#linearGradient3977"
       id="linearGradient3885"
       gradientUnits="userSpaceOnUse"
       x1="184.46346"
       y1="711.15393"
       x2="184.46346"
       y2="804.79529" />
  </defs>
  <metadata
     id="metadata2413">
    <rdf:RDF>
      <cc:Work
         rdf:about="">
        <dc:format>image/svg+xml</dc:format>
        <dc:type
           rdf:resource="http://purl.org/dc/dcmitype/StillImage" />
        <dc:title />
      </cc:Work>
    </rdf:RDF>
  </metadata>
  <g
     id="layer2"
     style="display:none">
    <rect
       width="86"
       height="85"
       rx="6"
       ry="6"
       x="5"
       y="7"
       id="rect3745"
       style="opacity:0.9;fill:url(#ButtonShadow);fill-opacity:1;fill-rule:nonzero;stroke:none;filter:url(#filter3174)" />
  </g>
  <path
     inkscape:connector-curvature="0"
     style="opacity:0.1;color:#000000;fill:#f9f9f9;fill-rule:evenodd;enable-background:new"
     id="path3975"
     d="m -107.74281,38.915269 c -0.15766,0.01461 -0.15082,0.03414 -0.18033,0.04514 -0.007,0.0029 -0.0407,-0.0029 -0.045,0 0.003,1.31e-4 -0.0149,9.99e-4 -0.045,0 -0.0144,-6.07e-4 -0.0261,0.04471 -0.045,0.04514 -0.007,-6.22e-4 -0.033,-0.04543 -0.045,-0.04514 -0.0189,5.21e-4 -0.0466,0.03993 -0.0902,0.04514 -0.0193,0.0029 -0.0319,-0.0014 -0.045,0 -0.013,0.0014 -0.0449,-4.3e-5 -0.045,0 -0.0704,0.01447 -0.14599,0.03603 -0.18034,0.04514 -0.14022,0.02937 -0.18606,0.03487 -0.22541,0.04514 0.12796,-0.03357 0.006,-0.0087 -0.045,0 -0.0508,0.0087 0.009,-0.02865 -0.22542,0.04514 -0.29964,0.09476 -0.27574,0.114151 -0.31558,0.135563 -0.0372,0.01534 -0.0303,0.03704 -0.045,0.04514 0.041,-0.0087 0.132,-0.06945 -0.13518,0.04514 -0.0323,-0.0014 -0.0101,-0.01505 -0.22542,0.09042 -0.20203,0.09881 -0.12969,0.05917 -0.18033,0.09042 -0.0506,0.03125 -0.1741,0.09158 -0.0902,0.04514 -0.10027,0.05527 -0.11123,0.117768 -0.13518,0.135564 0.041,-0.01924 0.10531,-0.09303 -0.045,0 -0.0263,0.0072 -0.0287,8.7e-5 -0.22542,0.135563 -0.15213,0.104892 -0.195,0.112415 -0.22541,0.135563 0.0146,-0.01157 -0.0495,0.06019 -0.0902,0.09042 -0.0407,0.03024 -0.0365,0.0072 -0.13518,0.09042 -0.12147,0.102866 -0.10531,0.104747 -0.13518,0.135563 -0.0299,0.03082 -0.0923,0.08941 -0.045,0.04514 -0.0959,0.0897 -0.14037,0.139614 -0.18033,0.180848 -0.19656,0.203099 -0.15077,0.184797 -0.18033,0.226059 -0.031,0.0298 -0.001,0.01157 -0.13518,0.180848 -0.0776,0.09809 -0.12349,0.146573 -0.18034,0.226059 0,0 -3.84858,5.885258 -5.50016,14.015689 -6.90041,-4.587134 -13.75041,-6.058394 -13.75041,-6.058394 a 1.1129461,1.1161207 0 0 0 -0.045,0 c -0.0398,-0.0072 -0.087,-0.06409 -0.31558,-0.09042 -0.21,-0.02416 -0.21989,-0.0011 -0.2705,0 -0.0506,0.0011 -0.14542,-0.0058 -0.045,0 -0.24293,-0.01302 -0.29198,-1.16e-4 -0.31559,0 0.0178,-8.7e-5 -0.0763,-0.01548 -0.31558,0 -0.22612,0.01461 -0.16477,0.03414 -0.22542,0.04514 -0.0242,0.0043 -0.0221,-0.0043 -0.045,0 -0.0506,-0.0014 -0.028,-0.01678 -0.36066,0.04514 -0.31736,0.05903 -0.21004,0.06887 -0.2705,0.09042 -0.0605,0.02156 -0.22302,0.04427 -0.045,0 0.0832,-0.02069 0.006,-0.0087 -0.045,0 -0.0508,0.0087 -0.0355,-0.01447 -0.22541,0.04514 -0.14825,0.04644 -0.17508,0.06959 -0.22542,0.09042 -0.0504,0.02083 -0.12363,0.05802 -0.0902,0.04514 -0.069,0.02619 -0.11902,0.02228 -0.2705,0.09042 0.0749,-0.03371 0.006,0.02575 -0.045,0.04514 -0.0509,0.01953 -0.0467,-0.0029 -0.22541,0.09042 -0.22577,0.118346 -0.31253,0.17901 -0.31559,0.180847 6e-4,-3.47e-4 -0.0394,0.01505 -0.0902,0.04514 -0.0508,0.03009 -0.0729,0.06178 -0.18034,0.135563 -0.13185,0.09057 -0.17576,0.142219 -0.22541,0.180848 -0.20687,0.161084 -0.18579,0.13947 -0.22542,0.180847 -0.10373,0.09115 -0.14023,0.139904 -0.18033,0.180848 -0.0401,0.04094 -0.0535,0.05353 -0.045,0.04514 -0.0183,0.01808 -0.0749,0.1033 -0.22542,0.271271 0.0746,-0.08319 -0.004,-0.03993 -0.045,0 -0.0411,0.03993 -0.0329,0.04022 -0.18033,0.22606 -0.0671,0.08449 -0.11441,0.131946 -0.18034,0.226059 -0.09,0.128474 -0.10531,0.129776 -0.13517,0.180848 -0.0299,0.05107 -0.0594,0.113717 -0.045,0.09042 -0.0296,0.04803 -0.084,0.09173 -0.18033,0.271272 -0.10661,0.198874 -0.0708,0.220171 -0.0902,0.271271 -0.0193,0.05107 -0.0446,0.14164 0,0.04514 -0.0244,0.02575 -0.0639,-0.02604 -0.18033,0.271271 -0.12176,0.31061 -0.0818,0.310581 -0.0902,0.361695 -0.017,0.03038 -0.0366,0.02026 -0.0902,0.22606 -0.0554,0.212778 -0.0436,0.263791 -0.045,0.271271 -0.0268,0.135998 -0.0271,0.230661 -0.045,0.361696 0.0156,-0.114296 -0.0339,-0.05049 -0.045,0 -0.0115,0.05049 -0.0275,0.04355 -0.045,0.271271 -0.013,0.170561 -5.7e-4,0.165107 0,0.226059 5.8e-4,0.06091 -6.3e-4,0.172862 0,0.135564 -0.001,0.06395 -0.007,0.112704 0,0.271271 -0.004,-0.0939 8.8e-4,0.02951 0,0.09042 -8.8e-4,0.06091 -0.0231,0.04514 0,0.271271 0.0149,0.145214 0.0358,0.147456 0.045,0.180848 0.003,0.0072 -0.001,0.03545 0,0.04514 a 1.1129461,1.1161207 0 0 0 0.045,0.04514 1.1129461,1.1161207 0 0 0 0,0.09042 c 0,0 1.46046,6.905137 6.04116,13.834841 -8.12523,1.654336 -14.02091,5.515852 -14.02091,5.515852 0.15001,-0.108798 0.006,-0.02922 -0.045,0 -0.0514,0.02922 -0.0276,-0.01808 -0.2705,0.180847 -0.16451,0.134696 -0.14052,0.139615 -0.18033,0.180848 -0.0398,0.04123 -0.10907,0.104313 -0.045,0.04514 -0.1294,0.119504 -0.17271,0.171299 -0.22541,0.226059 -0.16087,0.167162 -0.15095,0.184769 -0.18033,0.22606 -0.0414,0.03964 -0.0524,-0.0029 -0.22542,0.226059 -0.0147,0.01939 -0.0701,0.06105 -0.18033,0.22606 -0.12234,0.182916 -0.11513,0.237012 -0.13518,0.271271 0.0101,-0.0162 -0.0594,0.08507 -0.0902,0.135564 -0.0307,0.05049 -0.0228,0.04861 -0.0902,0.180847 -0.0842,0.16544 -0.0707,0.175061 -0.0902,0.22606 -0.0195,0.05107 -0.0716,0.105615 -0.045,0.04514 -0.0537,0.122687 -0.0534,0.171777 -0.0902,0.271272 0.018,-0.0489 -0.0242,0.03993 -0.045,0.09042 -0.0209,0.05049 -0.0403,0.06149 -0.0902,0.226059 -0.0542,0.178909 -0.0358,0.175177 -0.045,0.22606 -0.009,0.05093 -0.0172,0.116755 0,0.04514 -0.0378,0.157656 -0.0355,0.164991 -0.045,0.226059 -0.0101,0.06105 -0.004,0.161881 0,0.135564 0.007,-0.03762 -0.0343,-0.0058 -0.045,0.04514 -0.0101,0.05064 -0.0273,0.07538 -0.045,0.226059 0.013,-0.105904 0.0115,0.02951 0,0.09042 -0.0115,0.06091 -0.0309,0.02995 -0.045,0.271272 -0.013,0.221198 0,0.270171 0,0.271271 0,0.0011 -0.013,0.05006 0,0.271271 0.0144,0.241352 0.034,0.210435 0.045,0.271272 0.0115,0.06091 0.013,0.196256 0,0.09042 0.0179,0.150639 0.0343,0.175465 0.045,0.226059 0.0101,0.05064 0.0518,0.0829 0.045,0.04514 -0.004,-0.02619 -0.0101,0.07451 0,0.135564 0.0101,0.06105 0.007,0.06843 0.045,0.226059 -0.0172,-0.07147 -0.009,-0.0058 0,0.04514 0.009,0.05093 -0.009,0.04717 0.045,0.22606 0.0499,0.164586 0.0692,0.175596 0.0902,0.226059 0.0209,0.05049 0.063,0.139325 0.045,0.09042 0.0368,0.09954 0.0365,0.148512 0.0902,0.271272 -0.0264,-0.06047 0.0255,-0.0058 0.045,0.04514 0.0195,0.05107 0.006,0.06062 0.0902,0.226059 0.0674,0.132236 0.0594,0.130355 0.0902,0.180848 0.0307,0.05049 0.0997,0.151897 0.0902,0.135563 0.02,0.03429 0.013,0.0884 0.13518,0.271272 0.11022,0.164961 0.16561,0.206643 0.18033,0.226059 0.17303,0.228389 0.18403,0.186374 0.22542,0.22606 0.0294,0.04123 0.0195,0.05888 0.18033,0.226059 0.0527,0.05483 0.0959,0.106628 0.22541,0.22606 -0.064,-0.05903 0.006,0.0043 0.045,0.04514 0.0398,0.04123 0.0159,0.04615 0.18033,0.180847 0.24296,0.19899 0.21915,0.151579 0.2705,0.180848 0.0514,0.02922 0.19509,0.108798 0.045,0 a 1.1129461,1.1161207 0 0 0 0,0.04514 c 0,0 5.90274,3.784633 14.02091,5.425428 -4.58261,6.932713 -6.04311,13.837667 -6.04311,13.837667 a 1.1129461,1.1161207 0 0 0 0,0.0904 1.1129461,1.1161207 0 0 0 -0.045,0.0904 c -0.009,0.0334 -0.0303,0.0356 -0.045,0.18084 -0.0231,0.22612 -8.8e-4,0.21034 0,0.27127 8.8e-4,0.0609 -0.004,0.18434 0,0.0904 -0.007,0.15857 -10e-4,0.20734 0,0.27128 -6.4e-4,-0.0372 5.7e-4,0.0747 0,0.13556 -5.8e-4,0.0609 -0.013,0.0556 0,0.22606 0.0174,0.22777 0.0339,0.22079 0.045,0.27127 0.0115,0.0505 0.0607,0.1143 0.045,0 0.0179,0.13108 0.0182,0.22567 0.045,0.36169 0.001,0.007 -0.0101,0.0585 0.045,0.27128 0.063,0.24204 0.0688,0.22101 0.0902,0.27127 0.0213,0.0502 0.0854,0.16947 0.045,0.0451 -0.003,0.0305 -0.0444,0.0428 0.045,0.27127 0.13056,0.33316 0.14854,0.26657 0.18033,0.31648 0.0193,0.0511 -0.0164,0.0723 0.0902,0.27127 0.0964,0.17956 0.15071,0.22317 0.18033,0.27127 -0.0144,-0.0233 0.0152,0.0393 0.045,0.0904 0.0299,0.0511 0.0452,0.0524 0.13518,0.18085 0.0659,0.094 0.11325,0.14164 0.18033,0.22606 0.14746,0.18577 0.13922,0.1862 0.18034,0.22606 0.0411,0.0399 0.11959,0.0832 0.045,0 0.15048,0.168 0.20712,0.25313 0.22542,0.27127 -0.009,-0.009 0.004,0.004 0.045,0.0451 0.0401,0.0409 0.0766,0.0897 0.18033,0.18085 0.0397,0.0414 0.0186,0.0198 0.22542,0.18085 0.0496,0.0386 0.0936,0.0903 0.22541,0.18084 0.10748,0.0738 0.12955,0.10548 0.18034,0.13557 0.0508,0.0301 0.0907,0.0456 0.0902,0.0451 0.003,0.001 0.0899,0.0625 0.31559,0.18085 0.17873,0.0937 0.17452,0.0709 0.22541,0.0904 0.0509,0.0195 0.12003,0.0789 0.045,0.0451 0.1515,0.0681 0.20159,0.0642 0.2705,0.0904 -0.0335,-0.013 0.0398,0.0243 0.0902,0.0451 0.0504,0.0208 0.0772,0.044 0.22542,0.0904 0.18989,0.0595 0.17463,0.036 0.22541,0.0451 0.0508,0.009 0.1284,0.0207 0.045,0 -0.17793,-0.0443 -0.0154,-0.0216 0.045,0 0.0604,0.0216 -0.0469,0.0314 0.2705,0.0904 0.33269,0.0619 0.31007,0.0472 0.36066,0.0451 0.0231,0.004 0.0208,-0.004 0.045,0 0.0606,0.0116 -7e-4,0.0305 0.22542,0.0451 0.23925,0.0155 0.33333,8e-5 0.31558,0 0.0237,1.1e-4 0.0727,0.013 0.31559,0 -0.10027,0.006 -0.006,-0.001 0.045,0 0.0506,0.001 0.0604,0.0242 0.2705,0 0.22862,-0.0263 0.27581,-0.0835 0.31558,-0.0904 a 1.1129461,1.1161207 0 0 0 0.045,0 c 0,0 6.84999,-1.47126 13.75041,-6.0584 1.6495,8.14506 5.50016,14.0609 5.50016,14.0609 -0.10849,-0.15043 -0.0291,-0.006 0,0.0451 0.0291,0.0515 -0.018,0.0276 0.18034,0.27127 0.13431,0.16498 0.13921,0.14092 0.18033,0.18085 0.0411,0.0399 0.10401,0.10938 0.045,0.0451 0.11916,0.12978 0.17081,0.17321 0.22542,0.22606 0.16668,0.16133 0.18424,0.15138 0.22541,0.18085 0.0395,0.0415 -0.003,0.0525 0.22542,0.22606 0.0193,0.0148 0.0609,0.0702 0.22542,0.18085 0.18239,0.12268 0.23633,0.11545 0.27049,0.13556 -0.0162,-0.0101 0.0848,0.0596 0.13518,0.0904 0.0504,0.0308 0.0485,0.0229 0.18034,0.0904 0.16496,0.0845 0.17456,0.0709 0.22541,0.0904 0.0508,0.0195 0.10532,0.0718 0.045,0.0451 0.12234,0.0538 0.17129,0.0537 0.2705,0.0904 -0.0486,-0.0181 0.0398,0.0243 0.0902,0.0451 0.0504,0.021 0.0613,0.0404 0.22542,0.0904 0.1784,0.0544 0.17468,0.0359 0.22542,0.0451 0.0508,0.009 0.11642,0.0172 0.045,0 0.1572,0.0379 0.16452,0.0356 0.22541,0.0451 0.0609,0.0101 0.16142,0.004 0.13518,0 -0.0375,-0.007 -0.006,0.0344 0.045,0.0451 0.0505,0.0101 0.0752,0.0273 0.22542,0.0451 -0.10546,-0.013 0.0296,-0.0116 0.0902,0 0.0606,0.0116 0.0299,0.031 0.2705,0.0451 0.22057,0.013 0.2694,0 0.2705,0 0.001,0 0.0499,0.013 0.2705,0 0.24066,-0.0145 0.20983,-0.0341 0.2705,-0.0451 0.0606,-0.0116 0.19569,-0.013 0.0902,0 0.15021,-0.0179 0.17496,-0.0344 0.22541,-0.0451 0.0505,-0.0101 0.0827,-0.0519 0.045,-0.0451 -0.0261,0.004 0.0743,0.0101 0.13518,0 0.0609,-0.0101 0.0682,-0.007 0.22542,-0.0451 -0.0713,0.0172 -0.006,0.009 0.045,0 0.0508,-0.009 0.047,0.009 0.22541,-0.0451 0.16412,-0.0501 0.1751,-0.0695 0.22542,-0.0904 0.0504,-0.021 0.13878,-0.0632 0.0902,-0.0451 0.0993,-0.0368 0.14809,-0.0366 0.2705,-0.0904 -0.0603,0.0265 -0.006,-0.0256 0.045,-0.0451 0.0508,-0.0195 0.0605,-0.006 0.22542,-0.0904 0.13186,-0.0676 0.12998,-0.0596 0.18033,-0.0904 0.0504,-0.0308 0.15147,-0.1 0.13518,-0.0904 0.0342,-0.0201 0.0881,-0.013 0.2705,-0.13556 0.16449,-0.11068 0.20605,-0.16609 0.22541,-0.18085 0.22774,-0.17353 0.18585,-0.18455 0.22542,-0.22606 0.0411,-0.0295 0.0587,-0.0195 0.22542,-0.18085 0.0545,-0.0528 0.10632,-0.0962 0.22541,-0.22606 -0.059,0.0642 0.004,-0.006 0.045,-0.0451 0.0411,-0.0399 0.046,-0.0159 0.18034,-0.18085 0.19842,-0.24365 0.15115,-0.21978 0.18033,-0.27127 0.0291,-0.0515 0.10849,-0.19564 0,-0.0451 a 1.1129461,1.1161207 0 0 0 0.045,0 c 0,0 3.780405,-5.94686 5.409997,-14.10611 6.91816,4.61977 13.795492,6.10361 13.795492,6.10361 a 1.1129461,1.1161207 0 0 0 0.04501,0 c 0.04948,0.009 0.09709,0.0648 0.315583,0.0904 0.211495,0.0247 0.219891,0.001 0.2705,0 0.05064,-0.001 0.147051,0.006 0.04501,0 0.247042,0.0145 0.296468,7e-5 0.315584,0 -0.01443,5e-5 0.07949,0.0152 0.315583,0 0.224724,-0.0145 0.164781,-0.0341 0.225416,-0.0451 0.02424,-0.004 0.02222,0.004 0.04501,0 0.06074,0.001 0.0087,0.0289 0.40575,-0.0451 0.289918,-0.0542 0.250764,-0.0696 0.2705,-0.0904 -0.08483,0.0213 -0.0058,0.009 0.04501,0 0.05078,-0.009 0.03405,0.0152 0.225417,-0.0451 0.07675,-0.0242 0.174,-0.0642 0.360666,-0.13557 0.05958,-0.0229 0.110076,-0.0628 0.2705,-0.13556 -0.07935,0.036 -0.0058,0.0194 0.04501,0 0.05093,-0.0194 0.088,0.006 0.2705,-0.0904 0.210932,-0.1114 0.252611,-0.16997 0.2705,-0.18085 0.154553,-0.094 0.140371,-0.10446 0.180333,-0.13556 0.03996,-0.0311 0.102574,-0.0851 0.04501,-0.0451 0.134889,-0.0936 0.12984,-0.0946 0.180333,-0.13556 0.05049,-0.0411 0.107335,-0.10403 0.09017,-0.0904 -0.03087,0.0243 0.04934,-0.0153 0.09017,-0.0451 0.04083,-0.0299 0.02265,-0.0354 0.135177,-0.13557 0.18697,-0.16626 0.224624,-0.22526 0.225417,-0.22606 7.93e-4,-7.9e-4 0.05958,-0.0386 0.225417,-0.22606 0.09983,-0.11299 0.105458,-0.0946 0.135177,-0.13556 0.02986,-0.0411 0.06939,-0.12139 0.04501,-0.0904 -0.01298,0.0172 0.0492,-0.0399 0.09017,-0.0904 0.04097,-0.0505 0.04198,-0.0456 0.135178,-0.18085 -0.03982,0.0577 0.01443,-0.006 0.04501,-0.0451 0.03102,-0.0401 0.04155,-0.0259 0.135178,-0.18084 0.01154,-0.0179 0.06925,-0.0597 0.180333,-0.27128 0.09623,-0.18307 0.07084,-0.22023 0.09017,-0.27127 0.01933,-0.0511 0.03592,-0.12471 0,-0.0451 0.07257,-0.16088 0.112528,-0.2115 0.135177,-0.27127 0.07127,-0.1872 0.111086,-0.28465 0.135178,-0.36169 0.04862,-0.15506 0.04155,-0.14662 0.04501,-0.18085 -0.01154,0.025 0.0011,-0.0538 0,-0.0451 0.0087,-0.0509 0.02121,-0.13036 0,-0.0451 0.02078,-0.0198 0.03607,0.0195 0.09017,-0.27127 0.07401,-0.39806 0.04703,-0.34596 0.04501,-0.40691 0.0043,-0.023 -0.0043,-0.0208 0,-0.0451 0.01154,-0.0608 0.03059,-7e-4 0.04501,-0.22606 0.01515,-0.23675 5.8e-5,-0.3306 0,-0.31648 7.2e-5,-0.0191 0.01443,-0.0687 0,-0.31649 0.0058,0.10229 -0.0011,0.006 0,-0.0451 0.0011,-0.0508 0.02467,-0.0592 0,-0.27127 -0.02554,-0.21907 -0.08137,-0.26687 -0.09017,-0.31648 a 1.1129461,1.1161207 0 0 0 0,-0.0451 c 0,0 -1.495612,-6.87425 -6.086247,-13.78963 8.128326,-1.639941 14.065992,-5.425428 14.065992,-5.425428 a 1.1129461,1.1161207 0 0 0 0,-0.04514 c -0.150008,0.108798 -0.0058,0.02923 0.04501,0 0.05136,-0.02922 0.02755,0.01808 0.2705,-0.180848 0.164507,-0.134695 0.140516,-0.139614 0.180333,-0.180848 0.03982,-0.04123 0.109066,-0.104312 0.04501,-0.04514 0.129407,-0.119504 0.172716,-0.171298 0.225417,-0.226059 0.160872,-0.167161 0.150946,-0.184768 0.180333,-0.22606 0.04141,-0.03964 0.05237,0.0029 0.225417,-0.226059 0.01472,-0.01939 0.07011,-0.06105 0.180333,-0.22606 0.122338,-0.182916 0.115125,-0.237011 0.135178,-0.271271 -0.0101,0.0162 0.05944,-0.08507 0.09017,-0.135563 0.03073,-0.05049 0.02279,-0.04861 0.09017,-0.180848 0.08425,-0.165439 0.07069,-0.17506 0.09017,-0.226059 0.01948,-0.05107 0.07156,-0.105615 0.04501,-0.04514 0.05367,-0.122687 0.05338,-0.171777 0.09017,-0.271272 -0.01803,0.0489 0.02424,-0.03993 0.04501,-0.09042 0.02092,-0.05049 0.04025,-0.06149 0.09017,-0.226059 0.05424,-0.178909 0.03578,-0.175177 0.04501,-0.22606 0.0087,-0.05093 0.01717,-0.116755 0,-0.04514 0.0378,-0.157656 0.03549,-0.164991 0.04501,-0.226059 0.0101,-0.06105 0.0043,-0.161881 0,-0.135564 -0.0072,0.03762 0.03434,0.0058 0.04501,-0.04514 0.0101,-0.05064 0.02727,-0.07538 0.04501,-0.226059 -0.01298,0.105904 -0.01154,-0.02951 0,-0.09042 0.01154,-0.06091 0.03087,-0.02995 0.04501,-0.271272 0.01298,-0.221198 0,-0.270172 0,-0.271271 0,-0.0011 0.01298,-0.05006 0,-0.271271 -0.01443,-0.241352 -0.03405,-0.210435 -0.04501,-0.271272 -0.01154,-0.06091 -0.01298,-0.196256 0,-0.09042 -0.01789,-0.150639 -0.03434,-0.175465 -0.04501,-0.226059 -0.0101,-0.05064 -0.05179,-0.0829 -0.04501,-0.04514 0.0043,0.02619 0.0101,-0.07451 0,-0.135564 -0.0101,-0.06105 -0.0072,-0.06843 -0.04501,-0.226059 0.01717,0.07147 0.0087,0.0058 0,-0.04514 -0.0087,-0.05093 0.0087,-0.04716 -0.04501,-0.22606 -0.04992,-0.164585 -0.06925,-0.175595 -0.09017,-0.226059 -0.02092,-0.05049 -0.06304,-0.139325 -0.04501,-0.09042 -0.03679,-0.09954 -0.0365,-0.148512 -0.09017,-0.271272 0.0264,0.06048 -0.02554,0.0058 -0.04501,-0.04514 -0.01947,-0.05107 -0.0058,-0.06062 -0.09017,-0.22606 -0.06737,-0.132235 -0.05944,-0.130355 -0.09017,-0.180847 -0.03073,-0.05049 -0.09969,-0.151898 -0.09017,-0.135564 -0.02005,-0.03429 -0.01298,-0.0884 -0.135178,-0.271271 -0.11022,-0.164962 -0.165618,-0.206644 -0.180333,-0.22606 -0.173034,-0.228388 -0.184027,-0.186374 -0.225417,-0.226059 -0.02943,-0.04123 -0.01948,-0.05888 -0.180333,-0.22606 -0.05266,-0.05483 -0.09594,-0.106627 -0.225417,-0.226059 0.06405,0.05903 -0.0058,-0.0043 -0.04501,-0.04514 -0.03982,-0.04123 -0.01587,-0.04615 -0.180333,-0.180848 -0.242959,-0.19899 -0.219155,-0.151579 -0.2705,-0.180847 -0.05136,-0.02922 -0.195092,-0.108798 -0.04501,0 a 1.1129461,1.1161207 0 0 0 0,-0.04514 c 0,0 -5.930063,-3.817201 -14.065992,-5.47064 4.590549,-6.915367 6.086247,-13.78963 6.086247,-13.78963 a 1.1129461,1.1161207 0 0 0 0,-0.04514 c 0.0087,-0.04962 0.06463,-0.09737 0.09017,-0.316483 0.02467,-0.212098 0.0011,-0.220518 0,-0.271271 -0.0011,-0.05078 0.0058,-0.147471 0,-0.04514 0.01443,-0.247747 7.2e-5,-0.297313 0,-0.316483 5.8e-5,0.01447 0.01515,-0.07972 0,-0.316483 -0.01443,-0.225365 -0.03405,-0.165252 -0.04501,-0.22606 -0.0043,-0.02431 0.0043,-0.02228 0,-0.04514 0.0014,-0.06091 0.02885,-0.0087 -0.04501,-0.406908 -0.0541,-0.290745 -0.06939,-0.251479 -0.09017,-0.271271 -0.03231,-0.130066 -0.0011,-0.05382 0,-0.04514 -0.0087,-0.05093 0.01515,-0.03415 -0.04501,-0.22606 -0.02409,-0.07711 -0.06405,-0.174496 -0.135178,-0.361695 -0.02279,-0.05975 -0.06261,-0.11039 -0.135177,-0.271272 0.03592,0.07957 0.01933,0.0058 0,-0.04514 -0.01933,-0.05107 0.0058,-0.08825 -0.09017,-0.271272 -0.111085,-0.211533 -0.169484,-0.253331 -0.180333,-0.271271 -0.09377,-0.154994 -0.104161,-0.140772 -0.135178,-0.180848 -0.03102,-0.04007 -0.08483,-0.102866 -0.04501,-0.04514 -0.09334,-0.135274 -0.09435,-0.130355 -0.135178,-0.180848 -0.04097,-0.05049 -0.103728,-0.10764 -0.09017,-0.09042 0.02424,0.03096 -0.01529,-0.04933 -0.04501,-0.09042 -0.02986,-0.04109 -0.03535,-0.02271 -0.135177,-0.135564 -0.165792,-0.187502 -0.224624,-0.225263 -0.225417,-0.226059 -7.93e-4,-7.96e-4 -0.03837,-0.05975 -0.225417,-0.22606 -0.112672,-0.100117 -0.09435,-0.105759 -0.135177,-0.135563 -0.04083,-0.02995 -0.12104,-0.06959 -0.09017,-0.04514 0.01717,0.01302 -0.03967,-0.04933 -0.09017,-0.09042 -0.05049,-0.04109 -0.04544,-0.0421 -0.180333,-0.135564 0.05756,0.03993 -0.0058,-0.01447 -0.04501,-0.04514 -0.03996,-0.03111 -0.02582,-0.04167 -0.180333,-0.135564 -0.01789,-0.01157 -0.05958,-0.06945 -0.2705,-0.180847 -0.182555,-0.0965 -0.219603,-0.07104 -0.2705,-0.09042 -0.05093,-0.01939 -0.124358,-0.03602 -0.04501,0 -0.160424,-0.07277 -0.210903,-0.112849 -0.2705,-0.135563 -0.186666,-0.07147 -0.283844,-0.111403 -0.360666,-0.135564 -0.154611,-0.04876 -0.1462,-0.04167 -0.180334,-0.04514 0.04977,0.02228 0.169283,0.06496 -0.09017,0 -0.01976,-0.02083 0.01948,-0.03617 -0.2705,-0.09042 -0.396921,-0.07422 -0.34497,-0.04716 -0.40575,-0.04514 -0.02294,-0.0043 -0.02077,0.0043 -0.04501,0 -0.06059,-0.01157 -6.92e-4,-0.03067 -0.225416,-0.04514 -0.236078,-0.01519 -0.329664,-5.8e-5 -0.315584,0 -0.01904,-7.3e-5 -0.06853,-0.01447 -0.315583,0 0.101997,-0.0058 0.0058,0.0011 -0.04501,0 -0.05064,-0.0011 -0.059,-0.02474 -0.2705,0 -0.218448,0.02561 -0.266114,0.0816 -0.315583,0.09042 a 1.1129461,1.1161207 0 0 0 -0.04501,0 c 0,0 -6.877448,1.483702 -13.795492,6.103606 -1.632867,-8.142757 -5.41,-14.060901 -5.41,-14.060901 a 1.1129461,1.1161207 0 0 0 -0.045,0 c 0.0916,0.129198 0.0291,0.0058 0,-0.04514 -0.0291,-0.05151 1.6e-4,-0.04774 -0.18033,-0.271272 -0.13099,-0.162271 -0.13922,-0.140916 -0.18033,-0.180847 -0.0411,-0.03993 -0.10099,-0.106194 -0.045,-0.04514 -0.11311,-0.123266 -0.16442,-0.167407 -0.22542,-0.226059 -0.14572,-0.140194 -0.12926,-0.09563 -0.18033,-0.135564 -0.0511,-0.04008 -0.13576,-0.129053 -0.0902,-0.09042 -0.0394,-0.04167 0.007,-0.05223 -0.22542,-0.226059 -0.16214,-0.120806 -0.17439,-0.105905 -0.22542,-0.135564 -0.0511,-0.02966 -0.15096,-0.08478 -0.0902,-0.04514 -0.12334,-0.08044 -0.1731,-0.125725 -0.2705,-0.180848 0.0477,0.02691 -0.04,-0.01447 -0.0902,-0.04514 -0.0502,-0.03111 -0.0147,-0.01013 -0.18033,-0.09042 -0.11989,-0.05816 -0.17463,-0.0706 -0.22542,-0.09042 -0.0508,-0.01982 -0.10257,-0.05035 -0.0902,-0.04514 -0.13633,-0.05585 -0.11945,-0.02532 -0.18033,-0.04514 -0.0609,-0.01982 -0.14181,-0.04745 -0.13518,-0.04514 0.0987,0.03342 0.006,-0.02387 -0.045,-0.04514 -0.0502,-0.02141 -0.0547,-0.03226 -0.2705,-0.09042 -0.20083,-0.05411 -0.16455,-0.03588 -0.22541,-0.04514 -0.0609,-0.0087 -0.16157,-0.01447 -0.0902,0 -0.14483,-0.02937 -0.2394,-0.0285 -0.36067,-0.04514 0.1069,0.01476 0.0503,-0.03386 0,-0.04514 -0.0503,-0.01157 -0.0501,-0.02879 -0.2705,-0.04514 -0.15594,-0.01157 -0.16471,-5.5e-4 -0.22542,0 -0.0607,5.5e-4 -0.15834,-2.61e-4 -0.13518,0 -0.0345,-3.91e-4 -0.12161,-0.0014 -0.22541,0 0.001,4.3e-5 -0.0606,1.4e-5 -0.0902,0 -0.0149,0 -0.0459,1.4e-5 -0.045,0 a 1.1129461,1.1161207 0 0 0 -0.045,0 z" />
  <rect
     style="fill:#b19dff;fill-opacity:1;stroke:none"
     id="rect3093"
     width="96"
     height="96"
     x="0"
     y="-5.3290705e-15"
     rx="0"
     ry="0" />
  <path
     style="color:#000000;fill:#ffffff;fill-rule:evenodd;enable-background:new"
     id="path3689"
     inkscape:connector-curvature="0"
     d="m 53.163584,30.68502 c 0,9.584875 -5.569934,17.354953 -5.569934,17.354953 0,0 -5.569932,-7.770078 -5.569932,-17.354953 0,-9.584875 5.569932,-17.354953 5.569932,-17.354953 0,0 5.569934,7.770078 5.569934,17.354953 z" />
  <path
     style="color:#000000;fill:#ffffff;fill-rule:evenodd;enable-background:new"
     id="path3691"
     inkscape:connector-curvature="0"
     d="m 53.163584,65.331458 c 0,9.584874 -5.569934,17.354951 -5.569934,17.354951 0,0 -5.569932,-7.770077 -5.569932,-17.354951 0,-9.584876 5.569932,-17.354953 5.569932,-17.354953 0,0 5.569934,7.770077 5.569934,17.354953 z" />
  <path
     style="color:#000000;fill:#ffffff;fill-rule:evenodd;enable-background:new"
     id="path3693"
     inkscape:connector-curvature="0"
     d="m 64.887923,53.58968 c -9.569878,0 -17.32775,-5.578651 -17.32775,-5.578651 0,0 7.757872,-5.578653 17.32775,-5.578653 9.56988,0 17.327753,5.578653 17.327753,5.578653 0,0 -7.757873,5.578651 -17.327753,5.578651 z" />
  <path
     style="color:#000000;fill:#ffffff;fill-rule:evenodd;enable-background:new"
     id="path3695"
     inkscape:connector-curvature="0"
     d="m 30.29589,53.58968 c -9.56988,0 -17.32775,-5.578651 -17.32775,-5.578651 0,0 7.75787,-5.578653 17.32775,-5.578653 9.56988,0 17.327751,5.578653 17.327751,5.578653 0,0 -7.757871,5.578651 -17.327751,5.578651 z" />
  <path
     style="color:#000000;fill:#ffffff;fill-rule:evenodd;enable-background:new"
     id="path3697"
     inkscape:connector-curvature="0"
     d="m 63.761523,39.703207 c -6.766779,6.777588 -16.191237,8.327002 -16.191237,8.327002 0,0 1.54718,-9.439106 8.314098,-16.216694 6.766919,-6.77759 16.191237,-8.327351 16.191237,-8.327351 0,0 -1.54718,9.439105 -8.314098,16.216694 z" />
  <path
     style="color:#000000;fill:#ffffff;fill-rule:evenodd;enable-background:new"
     id="path3699"
     inkscape:connector-curvature="0"
     d="m 39.301521,64.205055 c -6.766777,6.777589 -16.191241,8.327003 -16.191241,8.327003 0,0 1.54718,-9.439107 8.3141,-16.216696 6.766921,-6.777589 16.191241,-8.32735 16.191241,-8.32735 0,0 -1.547181,9.439105 -8.3141,16.216694 z" />
  <path
     style="color:#000000;fill:#ffffff;fill-rule:evenodd;enable-background:new"
     id="path3701"
     inkscape:connector-curvature="0"
     d="m 39.301521,31.81491 c 6.76678,6.777588 8.3141,16.216694 8.3141,16.216694 0,0 -9.42411,-1.549587 -16.191241,-8.327002 -6.76782,-6.775845 -8.31514,-16.214951 -8.31514,-16.214951 0,0 9.424109,1.549621 16.191236,8.327351 z" />
  <path
     style="color:#000000;fill:#ffffff;fill-rule:evenodd;enable-background:new"
     id="path3703"
     inkscape:connector-curvature="0"
     d="m 63.761523,56.313271 c 6.766778,6.777587 8.314098,16.216694 8.314098,16.216694 0,0 -9.424109,-1.549587 -16.191237,-8.327003 -6.766779,-6.777588 -8.314098,-16.216694 -8.314098,-16.216694 0,0 9.42411,1.549622 16.191237,8.327351 z" />
  <path
     style="color:#000000;fill:#ffffff;fill-rule:evenodd;filter:url(#filter4137);enable-background:new"
     id="path4129"
     clip-path="url(#clipPath4133)"
     transform="matrix(0.43371689,0,0,0.43378663,-168.65731,-266.84887)"
     inkscape:connector-curvature="0"
     d="m 538.47,738.73 c -22.064,0 -39.951,-12.861 -39.951,-12.861 0,0 17.887,-12.861 39.951,-12.861 22.064,0 39.951,12.861 39.951,12.861 0,0 -17.887,12.861 -39.951,12.861 z" />
</svg>
