<?xml version="1.0" encoding="UTF-8" standalone="no"?>
<!-- Created with Inkscape (http://www.inkscape.org/) -->

<svg
   xmlns:dc="http://purl.org/dc/elements/1.1/"
   xmlns:cc="http://creativecommons.org/ns#"
   xmlns:rdf="http://www.w3.org/1999/02/22-rdf-syntax-ns#"
   xmlns:svg="http://www.w3.org/2000/svg"
   xmlns="http://www.w3.org/2000/svg"
   xmlns:xlink="http://www.w3.org/1999/xlink"
   xmlns:sodipodi="http://sodipodi.sourceforge.net/DTD/sodipodi-0.dtd"
   xmlns:inkscape="http://www.inkscape.org/namespaces/inkscape"
   version="1.0"
   width="96"
   height="96"
   id="svg2408"
   style="display:inline"
   inkscape:version="0.48.4 r9939"
   sodipodi:docname="podcast.svg">
  <sodipodi:namedview
     pagecolor="#ffffff"
     bordercolor="#666666"
     borderopacity="1"
     objecttolerance="10"
     gridtolerance="10"
     guidetolerance="10"
     inkscape:pageopacity="0"
     inkscape:pageshadow="2"
     inkscape:window-width="640"
     inkscape:window-height="480"
     id="namedview121"
     showgrid="false"
     inkscape:zoom="1.7383042"
     inkscape:cx="57.032269"
     inkscape:cy="31.728814"
     inkscape:window-x="514"
     inkscape:window-y="151"
     inkscape:window-maximized="0"
     inkscape:current-layer="svg2408" />
  <defs
     id="defs2410">
    <linearGradient
       id="linearGradient4011">
      <stop
         id="stop4013"
         style="stop-color:#07060b;stop-opacity:1"
         offset="0" />
      <stop
         id="stop4015"
         style="stop-color:#37243e;stop-opacity:1"
         offset="1" />
    </linearGradient>
    <linearGradient
       id="linearGradient3883">
      <stop
         id="stop3885"
         style="stop-color:#000000;stop-opacity:1"
         offset="0" />
      <stop
         id="stop3887"
         style="stop-color:#000000;stop-opacity:0"
         offset="1" />
    </linearGradient>
    <linearGradient
       id="linearGradient3835">
      <stop
         id="stop3837"
         style="stop-color:#4d3557;stop-opacity:1"
         offset="0" />
      <stop
         id="stop3839"
         style="stop-color:#4d3557;stop-opacity:0"
         offset="1" />
    </linearGradient>
    <linearGradient
       id="linearGradient3816">
      <stop
         id="stop3818"
         style="stop-color:#000000;stop-opacity:1"
         offset="0" />
      <stop
         id="stop3820"
         style="stop-color:#000000;stop-opacity:0"
         offset="1" />
    </linearGradient>
    <linearGradient
       id="linearGradient3802">
      <stop
         id="stop3804"
         style="stop-color:#ffffff;stop-opacity:1"
         offset="0" />
      <stop
         id="stop3806"
         style="stop-color:#ffffff;stop-opacity:0"
         offset="1" />
    </linearGradient>
    <linearGradient
       id="linearGradient3783">
      <stop
         id="stop3785"
         style="stop-color:#ae96ba;stop-opacity:1"
         offset="0" />
      <stop
         id="stop3791"
         style="stop-color:#755584;stop-opacity:1"
         offset="0.83590454" />
      <stop
         id="stop3787"
         style="stop-color:#664e70;stop-opacity:0"
         offset="1" />
    </linearGradient>
    <linearGradient
       id="linearGradient3753">
      <stop
         id="stop3755"
         style="stop-color:#dcbff1;stop-opacity:1"
         offset="0" />
      <stop
         id="stop3757"
         style="stop-color:#594b88;stop-opacity:0"
         offset="1" />
    </linearGradient>
    <linearGradient
       id="linearGradient3741">
      <stop
         id="stop3743"
         style="stop-color:#513162;stop-opacity:1"
         offset="0" />
      <stop
         id="stop3749"
         style="stop-color:#340d42;stop-opacity:1"
         offset="0.41123432" />
      <stop
         id="stop3745"
         style="stop-color:#0e0c0f;stop-opacity:1"
         offset="1" />
    </linearGradient>
    <linearGradient
       id="linearGradient3730">
      <stop
         id="stop3732"
         style="stop-color:#b5a7c0;stop-opacity:1"
         offset="0" />
      <stop
         id="stop3734"
         style="stop-color:#b5a7c0;stop-opacity:0"
         offset="1" />
    </linearGradient>
    <linearGradient
       id="linearGradient3722">
      <stop
         id="stop3724"
         style="stop-color:#ead7f5;stop-opacity:1"
         offset="0" />
      <stop
         id="stop3726"
         style="stop-color:#ffffff;stop-opacity:0"
         offset="1" />
    </linearGradient>
    <linearGradient
       id="linearGradient3707">
      <stop
         id="stop3709"
         style="stop-color:#82619a;stop-opacity:1"
         offset="0" />
      <stop
         id="stop3711"
         style="stop-color:#82619a;stop-opacity:0"
         offset="1" />
    </linearGradient>
    <linearGradient
       id="linearGradient3699">
      <stop
         id="stop3701"
         style="stop-color:#d4aeee;stop-opacity:1"
         offset="0" />
      <stop
         id="stop3703"
         style="stop-color:#d9b7f0;stop-opacity:0"
         offset="1" />
    </linearGradient>
    <linearGradient
       id="linearGradient3676">
      <stop
         id="stop3678"
         style="stop-color:#ac65df;stop-opacity:1"
         offset="0" />
      <stop
         id="stop3680"
         style="stop-color:#ac65df;stop-opacity:0"
         offset="1" />
    </linearGradient>
    <linearGradient
       id="linearGradient3668">
      <stop
         id="stop3670"
         style="stop-color:#6d3c8d;stop-opacity:1"
         offset="0" />
      <stop
         id="stop3672"
         style="stop-color:#6d3c8d;stop-opacity:0"
         offset="1" />
    </linearGradient>
    <linearGradient
       x1="45.447727"
       y1="92.539597"
       x2="45.447727"
       y2="7.0165396"
       id="ButtonShadow"
       gradientUnits="userSpaceOnUse"
       gradientTransform="scale(1.0058652,0.994169)">
      <stop
         id="stop3750"
         style="stop-color:#000000;stop-opacity:1"
         offset="0" />
      <stop
         id="stop3752"
         style="stop-color:#000000;stop-opacity:0.58823532"
         offset="1" />
    </linearGradient>
    <linearGradient
       id="linearGradient3737">
      <stop
         id="stop3739"
         style="stop-color:#ffffff;stop-opacity:1"
         offset="0" />
      <stop
         id="stop3741"
         style="stop-color:#ffffff;stop-opacity:0"
         offset="1" />
    </linearGradient>
    <linearGradient
       id="linearGradient3700">
      <stop
         id="stop3702"
         style="stop-color:#ddbef2;stop-opacity:1"
         offset="0" />
      <stop
         id="stop3704"
         style="stop-color:#eddef7;stop-opacity:1"
         offset="1" />
    </linearGradient>
    <filter
       color-interpolation-filters="sRGB"
       id="filter3174">
      <feGaussianBlur
         id="feGaussianBlur3176"
         stdDeviation="1.71" />
    </filter>
    <linearGradient
       x1="36.357143"
       y1="6"
       x2="36.357143"
       y2="63.893143"
       id="linearGradient3188"
       xlink:href="#linearGradient3737"
       gradientUnits="userSpaceOnUse" />
    <filter
       x="-0.192"
       y="-0.192"
       width="1.3839999"
       height="1.3839999"
       color-interpolation-filters="sRGB"
       id="filter3794">
      <feGaussianBlur
         id="feGaussianBlur3796"
         stdDeviation="5.28" />
    </filter>
    <linearGradient
       x1="48"
       y1="20.220806"
       x2="48"
       y2="138.66119"
       id="linearGradient3613"
       xlink:href="#linearGradient3737"
       gradientUnits="userSpaceOnUse" />
    <radialGradient
       cx="48"
       cy="90.171875"
       r="42"
       fx="48"
       fy="90.171875"
       id="radialGradient3619"
       xlink:href="#linearGradient3737"
       gradientUnits="userSpaceOnUse"
       gradientTransform="matrix(1.1573129,0,0,0.99590774,-7.5510206,0.19713193)" />
    <clipPath
       id="clipPath3613">
      <rect
         width="84"
         height="84"
         rx="6"
         ry="6"
         x="6"
         y="6"
         id="rect3615"
         style="fill:#ffffff;fill-opacity:1;fill-rule:nonzero;stroke:none" />
    </clipPath>
    <linearGradient
       x1="48"
       y1="90"
       x2="48"
       y2="5.9877172"
       id="linearGradient3617"
       xlink:href="#linearGradient3700"
       gradientUnits="userSpaceOnUse" />
    <linearGradient
       x1="45.447727"
       y1="92.539597"
       x2="45.447727"
       y2="7.0165396"
       id="ButtonShadow-0"
       gradientUnits="userSpaceOnUse"
       gradientTransform="matrix(1.0058652,0,0,0.994169,100,0)">
      <stop
         id="stop3750-8"
         style="stop-color:#000000;stop-opacity:1"
         offset="0" />
      <stop
         id="stop3752-5"
         style="stop-color:#000000;stop-opacity:0.58823532"
         offset="1" />
    </linearGradient>
    <linearGradient
       x1="32.251034"
       y1="6.1317081"
       x2="32.251034"
       y2="90.238609"
       id="linearGradient3780"
       xlink:href="#ButtonShadow-0"
       gradientUnits="userSpaceOnUse"
       gradientTransform="matrix(1.0238095,0,0,1.0119048,-1.1428571,-98.071429)" />
    <linearGradient
       x1="32.251034"
       y1="6.1317081"
       x2="32.251034"
       y2="90.238609"
       id="linearGradient3772"
       xlink:href="#ButtonShadow-0"
       gradientUnits="userSpaceOnUse"
       gradientTransform="matrix(1.0238095,0,0,1.0119048,-1.1428571,-98.071429)" />
    <linearGradient
       x1="32.251034"
       y1="6.1317081"
       x2="32.251034"
       y2="90.238609"
       id="linearGradient3725"
       xlink:href="#ButtonShadow-0"
       gradientUnits="userSpaceOnUse"
       gradientTransform="matrix(1.0238095,0,0,1.0119048,-1.1428571,-98.071429)" />
    <linearGradient
       x1="32.251034"
       y1="6.1317081"
       x2="32.251034"
       y2="90.238609"
       id="linearGradient3721"
       xlink:href="#ButtonShadow-0"
       gradientUnits="userSpaceOnUse"
       gradientTransform="translate(0,-97)" />
    <linearGradient
       x1="32.251034"
       y1="6.1317081"
       x2="32.251034"
       y2="90.238609"
       id="linearGradient3026"
       xlink:href="#ButtonShadow-0"
       gradientUnits="userSpaceOnUse"
       gradientTransform="matrix(1.0238095,0,0,1.0119048,-1.1428571,-98.071429)" />
    <linearGradient
       x1="78"
       y1="25"
       x2="78"
       y2="56"
       id="linearGradient3674"
       xlink:href="#linearGradient3668"
       gradientUnits="userSpaceOnUse"
       gradientTransform="translate(-30,0)" />
    <linearGradient
       x1="48"
       y1="25"
       x2="48"
       y2="56"
       id="linearGradient3682"
       xlink:href="#linearGradient3676"
       gradientUnits="userSpaceOnUse" />
    <linearGradient
       x1="50"
       y1="37"
       x2="50"
       y2="69.062439"
       id="linearGradient3705"
       xlink:href="#linearGradient3699"
       gradientUnits="userSpaceOnUse" />
    <linearGradient
       x1="79"
       y1="31.991074"
       x2="79"
       y2="72.012497"
       id="linearGradient3713"
       xlink:href="#linearGradient3707"
       gradientUnits="userSpaceOnUse"
       gradientTransform="translate(-30,0)" />
    <linearGradient
       x1="51.459461"
       y1="13.405405"
       x2="51.459461"
       y2="75.675674"
       id="linearGradient3728"
       xlink:href="#linearGradient3722"
       gradientUnits="userSpaceOnUse" />
    <linearGradient
       x1="112"
       y1="32"
       x2="112"
       y2="80"
       id="linearGradient3736"
       xlink:href="#linearGradient3730"
       gradientUnits="userSpaceOnUse"
       gradientTransform="translate(-60,0)" />
    <radialGradient
       cx="48"
       cy="45"
       r="8"
       fx="48"
       fy="45"
       id="radialGradient3747"
       xlink:href="#linearGradient3741"
       gradientUnits="userSpaceOnUse"
       gradientTransform="matrix(1.25,0,0,1,-12,0)" />
    <radialGradient
       cx="42"
       cy="40"
       r="8"
       fx="42"
       fy="40"
       id="radialGradient3761"
       xlink:href="#linearGradient3753"
       gradientUnits="userSpaceOnUse"
       gradientTransform="matrix(2,0,0,1.5,-42,-20)" />
    <linearGradient
       x1="78"
       y1="83"
       x2="78"
       y2="48.867905"
       id="linearGradient3781"
       xlink:href="#linearGradient4011"
       gradientUnits="userSpaceOnUse"
       gradientTransform="translate(-30,0)" />
    <radialGradient
       cx="78"
       cy="55"
       r="9"
       fx="78"
       fy="55"
       id="radialGradient3789"
       xlink:href="#linearGradient3783"
       gradientUnits="userSpaceOnUse"
       gradientTransform="matrix(1,0,0,0.44752096,-30,29.414036)" />
    <linearGradient
       x1="78"
       y1="50"
       x2="78"
       y2="58"
       id="linearGradient3822"
       xlink:href="#linearGradient3816"
       gradientUnits="userSpaceOnUse"
       gradientTransform="matrix(1,0,0,0.72176936,-30,13.973361)" />
    <linearGradient
       x1="77.997711"
       y1="56.796875"
       x2="87"
       y2="56.796875"
       id="linearGradient3862"
       xlink:href="#linearGradient3802"
       gradientUnits="userSpaceOnUse"
       gradientTransform="translate(-30,-1)"
       spreadMethod="reflect" />
    <linearGradient
       x1="80"
       y1="61"
       x2="80"
       y2="79"
       id="linearGradient3879"
       xlink:href="#linearGradient3835"
       gradientUnits="userSpaceOnUse"
       gradientTransform="translate(-30,0)" />
    <radialGradient
       cx="48"
       cy="83"
       r="8"
       fx="48"
       fy="83"
       id="radialGradient3889"
       xlink:href="#linearGradient3883"
       gradientUnits="userSpaceOnUse"
       gradientTransform="matrix(1,0,0,0.25,0,62.25)" />
    <linearGradient
       gradientTransform="matrix(1.0238095,0,0,1.0119048,-1.1428571,-98.071429)"
       gradientUnits="userSpaceOnUse"
       xlink:href="#ButtonShadow-0-2"
       id="linearGradient3122"
       y2="90.238609"
       x2="32.251034"
       y1="6.1317081"
       x1="32.251034" />
    <linearGradient
       gradientTransform="translate(0,-97)"
       gradientUnits="userSpaceOnUse"
       xlink:href="#ButtonShadow-0-2"
       id="linearGradient3721-0"
       y2="90.238609"
       x2="32.251034"
       y1="6.1317081"
       x1="32.251034" />
    <linearGradient
       gradientTransform="matrix(1.0238095,0,0,1.0119048,-1.1428571,-98.071429)"
       gradientUnits="userSpaceOnUse"
       xlink:href="#ButtonShadow-0-2"
       id="linearGradient3725-3"
       y2="90.238609"
       x2="32.251034"
       y1="6.1317081"
       x1="32.251034" />
    <linearGradient
       gradientTransform="matrix(1.0238095,0,0,1.0119048,-1.1428571,-98.071429)"
       gradientUnits="userSpaceOnUse"
       xlink:href="#ButtonShadow-0-2"
       id="linearGradient3772-0"
       y2="90.238609"
       x2="32.251034"
       y1="6.1317081"
       x1="32.251034" />
    <linearGradient
       gradientTransform="matrix(1.0238095,0,0,1.0119048,-1.1428571,-98.071429)"
       gradientUnits="userSpaceOnUse"
       xlink:href="#ButtonShadow-0-2"
       id="linearGradient3780-7"
       y2="90.238609"
       x2="32.251034"
       y1="6.1317081"
       x1="32.251034" />
    <linearGradient
       gradientTransform="matrix(1.0058652,0,0,0.994169,100,0)"
       gradientUnits="userSpaceOnUse"
       id="ButtonShadow-0-2"
       y2="7.0165396"
       x2="45.447727"
       y1="92.539597"
       x1="45.447727">
      <stop
         offset="0"
         style="stop-color:#000000;stop-opacity:1"
         id="stop3750-8-1" />
      <stop
         offset="1"
         style="stop-color:#000000;stop-opacity:0.58823532"
         id="stop3752-5-0" />
    </linearGradient>
    <linearGradient
       gradientTransform="matrix(0,-1,1,0,0,98)"
       gradientUnits="userSpaceOnUse"
       xlink:href="#linearGradient3737-4"
       id="linearGradient4827"
       y2="33"
       x2="44"
       y1="33"
       x1="22" />
    <linearGradient
       gradientTransform="matrix(0.36458332,0,0,0.36458332,48.166668,-49.104165)"
       gradientUnits="userSpaceOnUse"
       xlink:href="#linearGradient3622"
       id="linearGradient4825"
       y2="46"
       x2="80"
       y1="46"
       x1="16" />
    <linearGradient
       gradientTransform="matrix(-0.35714285,0,0,0.35714285,72.142857,47.857143)"
       gradientUnits="userSpaceOnUse"
       xlink:href="#linearGradient3650-2"
       id="linearGradient4823"
       y2="81.071426"
       x2="48"
       y1="48"
       x1="6" />
    <linearGradient
       gradientTransform="matrix(0.35714285,0,0,0.35714285,15.857143,47.857143)"
       gradientUnits="userSpaceOnUse"
       xlink:href="#linearGradient3650-2"
       id="linearGradient4821"
       y2="81.071426"
       x2="48"
       y1="48"
       x1="6" />
    <linearGradient
       gradientTransform="matrix(0.35714285,0,0,-0.35714285,15.857143,82.142857)"
       gradientUnits="userSpaceOnUse"
       xlink:href="#linearGradient3672"
       id="linearGradient4819"
       y2="84.285713"
       x2="48"
       y1="48"
       x1="13.321428" />
    <linearGradient
       gradientTransform="matrix(-0.35714285,0,0,-0.35714285,72.142857,82.142857)"
       gradientUnits="userSpaceOnUse"
       xlink:href="#linearGradient3672"
       id="linearGradient4817"
       y2="84.285713"
       x2="48"
       y1="48"
       x1="13.321428" />
    <linearGradient
       gradientTransform="matrix(0.35714285,0,0,0.35714285,15.857143,47.857143)"
       gradientUnits="userSpaceOnUse"
       xlink:href="#linearGradient3825"
       id="linearGradient4815"
       y2="6"
       x2="32.07143"
       y1="90"
       x1="63.535717" />
    <linearGradient
       gradientTransform="matrix(0,-1,1,0,32,66)"
       gradientUnits="userSpaceOnUse"
       xlink:href="#linearGradient3737-4"
       id="linearGradient4793"
       y2="33"
       x2="44"
       y1="33"
       x1="22" />
    <linearGradient
       gradientTransform="matrix(0.36458332,0,0,0.36458332,16.166668,-81.104165)"
       gradientUnits="userSpaceOnUse"
       xlink:href="#linearGradient3622"
       id="linearGradient4791"
       y2="46"
       x2="80"
       y1="46"
       x1="16" />
    <linearGradient
       gradientTransform="matrix(-0.35714285,0,0,0.35714285,82.142857,15.857143)"
       gradientUnits="userSpaceOnUse"
       xlink:href="#linearGradient3650-2"
       id="linearGradient4789"
       y2="81.071426"
       x2="48"
       y1="48"
       x1="6" />
    <linearGradient
       gradientTransform="matrix(0.35714285,0,0,0.35714285,47.857143,15.857143)"
       gradientUnits="userSpaceOnUse"
       xlink:href="#linearGradient3650-2"
       id="linearGradient4787"
       y2="81.071426"
       x2="48"
       y1="48"
       x1="6" />
    <linearGradient
       gradientTransform="matrix(0.35714285,0,0,-0.35714285,47.857143,50.142857)"
       gradientUnits="userSpaceOnUse"
       xlink:href="#linearGradient3672"
       id="linearGradient4785"
       y2="84.285713"
       x2="48"
       y1="48"
       x1="13.321428" />
    <linearGradient
       gradientTransform="matrix(-0.35714285,0,0,-0.35714285,82.142857,50.142857)"
       gradientUnits="userSpaceOnUse"
       xlink:href="#linearGradient3672"
       id="linearGradient4783"
       y2="84.285713"
       x2="48"
       y1="48"
       x1="13.321428" />
    <linearGradient
       gradientTransform="matrix(0.35714285,0,0,0.35714285,47.857143,15.857143)"
       gradientUnits="userSpaceOnUse"
       xlink:href="#linearGradient3825"
       id="linearGradient4781"
       y2="6"
       x2="32.07143"
       y1="90"
       x1="63.535717" />
    <linearGradient
       gradientTransform="matrix(0.35714285,0,0,0.35714285,-34.142857,15.857143)"
       gradientUnits="userSpaceOnUse"
       xlink:href="#linearGradient3825"
       id="linearGradient4727"
       y2="6"
       x2="32.07143"
       y1="90"
       x1="63.535717" />
    <linearGradient
       gradientTransform="matrix(0,-1,1,0,0,66)"
       gradientUnits="userSpaceOnUse"
       xlink:href="#linearGradient3737-4"
       id="linearGradient4723"
       y2="33"
       x2="44"
       y1="33"
       x1="22" />
    <linearGradient
       gradientTransform="matrix(0.35714285,0,0,0.35714285,15.857143,15.857143)"
       gradientUnits="userSpaceOnUse"
       xlink:href="#linearGradient3825"
       id="linearGradient3869"
       y2="6"
       x2="32.07143"
       y1="90"
       x1="63.535717" />
    <linearGradient
       gradientTransform="matrix(-0.35714285,0,0,-0.35714285,50.142857,50.142857)"
       gradientUnits="userSpaceOnUse"
       xlink:href="#linearGradient3672"
       id="linearGradient3866"
       y2="84.285713"
       x2="48"
       y1="48"
       x1="13.321428" />
    <linearGradient
       gradientTransform="matrix(0.35714285,0,0,-0.35714285,15.857143,50.142857)"
       gradientUnits="userSpaceOnUse"
       xlink:href="#linearGradient3672"
       id="linearGradient3863"
       y2="84.285713"
       x2="48"
       y1="48"
       x1="13.321428" />
    <linearGradient
       gradientTransform="matrix(0.35714285,0,0,0.35714285,15.857143,15.857143)"
       gradientUnits="userSpaceOnUse"
       xlink:href="#linearGradient3650-2"
       id="linearGradient3858"
       y2="81.071426"
       x2="48"
       y1="48"
       x1="6" />
    <linearGradient
       gradientTransform="matrix(-0.35714285,0,0,0.35714285,50.142857,15.857143)"
       gradientUnits="userSpaceOnUse"
       xlink:href="#linearGradient3650-2"
       id="linearGradient3855"
       y2="81.071426"
       x2="48"
       y1="48"
       x1="6" />
    <linearGradient
       gradientTransform="matrix(0.36458332,0,0,0.36458332,16.166668,-49.104165)"
       gradientUnits="userSpaceOnUse"
       xlink:href="#linearGradient3622"
       id="linearGradient3852"
       y2="46"
       x2="80"
       y1="46"
       x1="16" />
    <linearGradient
       id="linearGradient3737-4">
      <stop
         offset="0"
         style="stop-color:#ffffff;stop-opacity:1"
         id="stop3739-4" />
      <stop
         offset="1"
         style="stop-color:#ffffff;stop-opacity:0"
         id="stop3741-9" />
    </linearGradient>
    <linearGradient
       id="linearGradient3622">
      <stop
         offset="0"
         style="stop-color:#d6d6d6;stop-opacity:1"
         id="stop3624" />
      <stop
         offset="1"
         style="stop-color:#eaeaea;stop-opacity:1"
         id="stop3626" />
    </linearGradient>
    <linearGradient
       id="linearGradient3672">
      <stop
         offset="0"
         style="stop-color:#ffffff;stop-opacity:0"
         id="stop3674" />
      <stop
         offset="0.30000001"
         style="stop-color:#ffffff;stop-opacity:0"
         id="stop3676" />
      <stop
         offset="0.5"
         style="stop-color:#ffffff;stop-opacity:0.61240309"
         id="stop3678-6" />
      <stop
         offset="0.75264549"
         style="stop-color:#ffffff;stop-opacity:0"
         id="stop3680-9" />
      <stop
         offset="1"
         style="stop-color:#ffffff;stop-opacity:0"
         id="stop3682" />
    </linearGradient>
    <linearGradient
       id="linearGradient3650-2">
      <stop
         offset="0"
         style="stop-color:#000000;stop-opacity:0"
         id="stop3652" />
      <stop
         offset="0.30000001"
         style="stop-color:#000000;stop-opacity:0"
         id="stop3660" />
      <stop
         offset="0.5"
         style="stop-color:#000000;stop-opacity:0.11764706"
         id="stop3658" />
      <stop
         offset="0.69999999"
         style="stop-color:#000000;stop-opacity:0"
         id="stop3662" />
      <stop
         offset="1"
         style="stop-color:#000000;stop-opacity:0"
         id="stop3654-5" />
    </linearGradient>
    <linearGradient
       gradientUnits="userSpaceOnUse"
       xlink:href="#linearGradient3641"
       id="linearGradient3617-9"
       y2="5.9877172"
       x2="48"
       y1="90"
       x1="48" />
    <clipPath
       id="clipPath3613-1">
      <rect
         style="fill:#ffffff;fill-opacity:1;fill-rule:nonzero;stroke:none"
         id="rect3615-2"
         y="6"
         x="6"
         ry="6"
         rx="6"
         height="84"
         width="84" />
    </clipPath>
    <radialGradient
       gradientTransform="matrix(1.1573129,0,0,0.99590774,-7.5510206,0.19713193)"
       gradientUnits="userSpaceOnUse"
       xlink:href="#linearGradient3737-8"
       id="radialGradient3619-9"
       fy="90.171875"
       fx="48"
       r="42"
       cy="90.171875"
       cx="48" />
    <linearGradient
       gradientUnits="userSpaceOnUse"
       xlink:href="#linearGradient3737-8"
       id="linearGradient3613-2"
       y2="138.66119"
       x2="48"
       y1="20.220806"
       x1="48" />
    <filter
       id="filter3794-1"
       color-interpolation-filters="sRGB"
       height="1.3839999"
       width="1.3839999"
       y="-0.192"
       x="-0.192">
      <feGaussianBlur
         stdDeviation="5.28"
         id="feGaussianBlur3796-9" />
    </filter>
    <linearGradient
       gradientUnits="userSpaceOnUse"
       xlink:href="#linearGradient3737-8"
       id="linearGradient3188-4"
       y2="63.893143"
       x2="36.357143"
       y1="6"
       x1="36.357143" />
    <filter
       id="filter3174-9"
       color-interpolation-filters="sRGB">
      <feGaussianBlur
         stdDeviation="1.71"
         id="feGaussianBlur3176-1" />
    </filter>
    <linearGradient
       id="linearGradient3737-8">
      <stop
         offset="0"
         style="stop-color:#ffffff;stop-opacity:1"
         id="stop3739-1" />
      <stop
         offset="1"
         style="stop-color:#ffffff;stop-opacity:0"
         id="stop3741-6" />
    </linearGradient>
    <linearGradient
       gradientTransform="scale(1.0058652,0.994169)"
       gradientUnits="userSpaceOnUse"
       id="ButtonShadow-9"
       y2="7.0165396"
       x2="45.447727"
       y1="92.539597"
       x1="45.447727">
      <stop
         offset="0"
         style="stop-color:#000000;stop-opacity:1"
         id="stop3750-7" />
      <stop
         offset="1"
         style="stop-color:#000000;stop-opacity:0.58823532"
         id="stop3752-1" />
    </linearGradient>
    <linearGradient
       id="linearGradient3641">
      <stop
         offset="0"
         style="stop-color:#b4b4b4;stop-opacity:1"
         id="stop3643" />
      <stop
         offset="1"
         style="stop-color:#dcdcdc;stop-opacity:1"
         id="stop3645" />
    </linearGradient>
    <linearGradient
       id="linearGradient3825">
      <stop
         offset="0"
         style="stop-color:#b3b3b3;stop-opacity:1"
         id="stop3827" />
      <stop
         offset="1"
         style="stop-color:#d2d2d2;stop-opacity:1"
         id="stop3829" />
    </linearGradient>
    <linearGradient
       inkscape:collect="always"
       xlink:href="#linearGradient3737-4"
       id="linearGradient4296"
       gradientUnits="userSpaceOnUse"
       gradientTransform="matrix(0,-1,1,0,-152.46478,111.55085)"
       x1="22"
       y1="33"
       x2="44"
       y2="33" />
    <linearGradient
       inkscape:collect="always"
       xlink:href="#linearGradient3622"
       id="linearGradient4299"
       gradientUnits="userSpaceOnUse"
       gradientTransform="matrix(0,0.36458332,-0.36458332,0,-103.36061,61.717516)"
       x1="16"
       y1="46"
       x2="80"
       y2="46" />
    <linearGradient
       inkscape:collect="always"
       xlink:href="#linearGradient3650-2"
       id="linearGradient4302"
       gradientUnits="userSpaceOnUse"
       gradientTransform="matrix(-0.35714285,0,0,0.35714285,-80.321923,61.407991)"
       x1="6"
       y1="48"
       x2="48"
       y2="81.071426" />
    <linearGradient
       inkscape:collect="always"
       xlink:href="#linearGradient3650-2"
       id="linearGradient4305"
       gradientUnits="userSpaceOnUse"
       gradientTransform="matrix(0.35714285,0,0,0.35714285,-136.60764,61.407991)"
       x1="6"
       y1="48"
       x2="48"
       y2="81.071426" />
    <linearGradient
       inkscape:collect="always"
       xlink:href="#linearGradient3672"
       id="linearGradient4308"
       gradientUnits="userSpaceOnUse"
       gradientTransform="matrix(0.35714285,0,0,-0.35714285,-136.60764,95.693705)"
       x1="13.321428"
       y1="48"
       x2="48"
       y2="84.285713" />
    <linearGradient
       inkscape:collect="always"
       xlink:href="#linearGradient3672"
       id="linearGradient4311"
       gradientUnits="userSpaceOnUse"
       gradientTransform="matrix(-0.35714285,0,0,-0.35714285,-80.321923,95.693705)"
       x1="13.321428"
       y1="48"
       x2="48"
       y2="84.285713" />
    <linearGradient
       inkscape:collect="always"
       xlink:href="#linearGradient3825"
       id="linearGradient4314"
       gradientUnits="userSpaceOnUse"
       gradientTransform="matrix(0.35714285,0,0,0.35714285,-136.60764,61.407991)"
       x1="63.535717"
       y1="90"
       x2="32.07143"
       y2="6" />
    <linearGradient
       inkscape:collect="always"
       xlink:href="#linearGradient3737-4"
       id="linearGradient4318"
       gradientUnits="userSpaceOnUse"
       gradientTransform="matrix(0,-1,1,0,-61.888509,151.55085)"
       x1="22"
       y1="33"
       x2="44"
       y2="33" />
    <linearGradient
       inkscape:collect="always"
       xlink:href="#linearGradient3650-2"
       id="linearGradient4324"
       gradientUnits="userSpaceOnUse"
       gradientTransform="matrix(-0.35714285,0,0,0.35714285,-70.321923,29.407991)"
       x1="6"
       y1="48"
       x2="48"
       y2="81.071426" />
    <linearGradient
       inkscape:collect="always"
       xlink:href="#linearGradient3650-2"
       id="linearGradient4327"
       gradientUnits="userSpaceOnUse"
       gradientTransform="matrix(0.35714285,0,0,0.35714285,-104.60764,29.407991)"
       x1="6"
       y1="48"
       x2="48"
       y2="81.071426" />
    <linearGradient
       inkscape:collect="always"
       xlink:href="#linearGradient3672"
       id="linearGradient4330"
       gradientUnits="userSpaceOnUse"
       gradientTransform="matrix(0.35714285,0,0,-0.35714285,-104.60764,63.693705)"
       x1="13.321428"
       y1="48"
       x2="48"
       y2="84.285713" />
    <linearGradient
       inkscape:collect="always"
       xlink:href="#linearGradient3672"
       id="linearGradient4333"
       gradientUnits="userSpaceOnUse"
       gradientTransform="matrix(-0.35714285,0,0,-0.35714285,-70.321923,63.693705)"
       x1="13.321428"
       y1="48"
       x2="48"
       y2="84.285713" />
    <linearGradient
       inkscape:collect="always"
       xlink:href="#linearGradient3825"
       id="linearGradient4336"
       gradientUnits="userSpaceOnUse"
       gradientTransform="matrix(0.35714285,0,0,0.35714285,-104.60764,29.407991)"
       x1="63.535717"
       y1="90"
       x2="32.07143"
       y2="6" />
    <linearGradient
       inkscape:collect="always"
       xlink:href="#linearGradient3825"
       id="linearGradient4340"
       gradientUnits="userSpaceOnUse"
       gradientTransform="matrix(0.35714285,0,0,0.35714285,-186.60764,29.407991)"
       x1="63.535717"
       y1="90"
       x2="32.07143"
       y2="6" />
    <linearGradient
       inkscape:collect="always"
       xlink:href="#linearGradient3737-4"
       id="linearGradient4343"
       gradientUnits="userSpaceOnUse"
       gradientTransform="matrix(0,-1,1,0,-152.46478,79.550848)"
       x1="22"
       y1="33"
       x2="44"
       y2="33" />
    <linearGradient
       inkscape:collect="always"
       xlink:href="#linearGradient3622"
       id="linearGradient4348"
       gradientUnits="userSpaceOnUse"
       gradientTransform="matrix(0.36458332,0,0,0.36458332,29.717516,103.36061)"
       x1="16"
       y1="46"
       x2="80"
       y2="46" />
    <linearGradient
       inkscape:collect="always"
       xlink:href="#linearGradient3650-2"
       id="linearGradient4351"
       gradientUnits="userSpaceOnUse"
       gradientTransform="matrix(-0.35714285,0,0,0.35714285,-102.32192,29.407991)"
       x1="6"
       y1="48"
       x2="48"
       y2="81.071426" />
    <linearGradient
       inkscape:collect="always"
       xlink:href="#linearGradient3650-2"
       id="linearGradient4354"
       gradientUnits="userSpaceOnUse"
       gradientTransform="matrix(0.35714285,0,0,0.35714285,-136.60764,29.407991)"
       x1="6"
       y1="48"
       x2="48"
       y2="81.071426" />
    <linearGradient
       inkscape:collect="always"
       xlink:href="#linearGradient3672"
       id="linearGradient4357"
       gradientUnits="userSpaceOnUse"
       gradientTransform="matrix(0.35714285,0,0,-0.35714285,-136.60764,63.693705)"
       x1="13.321428"
       y1="48"
       x2="48"
       y2="84.285713" />
    <linearGradient
       inkscape:collect="always"
       xlink:href="#linearGradient3672"
       id="linearGradient4360"
       gradientUnits="userSpaceOnUse"
       gradientTransform="matrix(-0.35714285,0,0,-0.35714285,-102.32192,63.693705)"
       x1="13.321428"
       y1="48"
       x2="48"
       y2="84.285713" />
    <linearGradient
       inkscape:collect="always"
       xlink:href="#linearGradient3825"
       id="linearGradient4363"
       gradientUnits="userSpaceOnUse"
       gradientTransform="matrix(0.35714285,0,0,0.35714285,-136.60764,29.407991)"
       x1="63.535717"
       y1="90"
       x2="32.07143"
       y2="6" />
  </defs>
  <metadata
     id="metadata2413">
    <rdf:RDF>
      <cc:Work
         rdf:about="">
        <dc:format>image/svg+xml</dc:format>
        <dc:type
           rdf:resource="http://purl.org/dc/dcmitype/StillImage" />
        <dc:title></dc:title>
      </cc:Work>
    </rdf:RDF>
  </metadata>
  <g
     id="layer2"
     style="display:none">
    <rect
       width="86"
       height="85"
       rx="6"
       ry="6"
       x="5"
       y="7"
       id="rect3745"
       style="opacity:0.9;fill:url(#ButtonShadow);fill-opacity:1;fill-rule:nonzero;stroke:none;filter:url(#filter3174)" />
  </g>
  <g
     id="layer5"
     style="display:none">
    <rect
       width="66"
       height="66"
       rx="12"
       ry="12"
       x="15"
       y="15"
       clip-path="url(#clipPath3613)"
       id="rect3171"
       style="opacity:0.1;fill:url(#linearGradient3613);fill-opacity:1;fill-rule:nonzero;stroke:#ffffff;stroke-width:0.5;stroke-linecap:round;stroke-linejoin:miter;stroke-miterlimit:4;stroke-opacity:1;stroke-dasharray:none;stroke-dashoffset:0;filter:url(#filter3794)" />
  </g>
  <rect
     style="fill:#ff5555;fill-opacity:1;stroke:none"
     id="rect3116"
     width="96"
     height="96"
     x="0"
     y="0" />
  <g
     id="layer2-7"
     style="display:none"
     transform="translate(-150.43088,13.550848)">
    <rect
       width="86"
       height="85"
       rx="6"
       ry="6"
       x="5"
       y="7"
       id="rect3745-9"
       style="opacity:0.9;fill:url(#ButtonShadow-9);fill-opacity:1;fill-rule:nonzero;stroke:none;filter:url(#filter3174-9)" />
  </g>
  <g
     id="layer5-8"
     style="display:none"
     transform="translate(-150.43088,13.550848)">
    <rect
       width="66"
       height="66"
       rx="12"
       ry="12"
       x="15"
       y="15"
       clip-path="url(#clipPath3613-1)"
       id="rect3171-3"
       style="opacity:0.5;fill:url(#linearGradient3613-2);fill-opacity:1;fill-rule:nonzero;stroke:#ffffff;stroke-width:0.5;stroke-linecap:round;stroke-linejoin:miter;stroke-miterlimit:4;stroke-opacity:1;stroke-dasharray:none;stroke-dashoffset:0;filter:url(#filter3794-1)" />
  </g>
  <path
     style="color:#000000;fill:#ffffff;fill-opacity:1;fill-rule:nonzero;stroke:none;stroke-width:1;marker:none;visibility:visible;display:inline;overflow:visible;enable-background:accumulate"
     id="rect4831"
     inkscape:connector-curvature="0"
     d="m 19.484372,16.127119 c -1.662,0 -3,1.338 -3,3 l 0,25 0,3 0,32 c 0,1.662 1.338,3 3,3 l 50,0 c 1.662,0 3,-1.338 3,-3 l 0,-29 7,0 c 1.662,0 3,-1.338 3,-3 l 0,-28 c 0,-1.662 -1.338,-3 -3,-3 l -60,0 z" />
  <rect
     style="fill:#ff5555;fill-opacity:1;fill-rule:nonzero;stroke:none"
     id="rect4771"
     transform="matrix(0,1,-1,0,0,0)"
     y="-44.118855"
     x="23.56105"
     ry="2.0360796"
     rx="2.0358763"
     height="21.117058"
     width="21.117058" />
  <path
     style="fill:#ff2a2a;fill-opacity:1;fill-rule:nonzero;stroke:none"
     id="rect4879"
     inkscape:connector-curvature="0"
     d="m 21.23205,19.331132 c -1.139496,0 -2.069712,0.930213 -2.069712,2.069712 l 0,24.656563 c 0,1.139499 0.930216,2.069712 2.069712,2.069712 l 24.656563,0 c 1.139496,0 2.069712,-0.930213 2.069712,-2.069712 l 0,-24.656563 c 0,-1.139499 -0.930216,-2.069712 -2.069712,-2.069712 l -24.656563,0 z m 0,0.899875 24.656563,0 c 0.646432,0 1.169837,0.523403 1.169837,1.169837 l 0,24.656563 c 0,0.646434 -0.523405,1.169837 -1.169837,1.169837 l -24.656563,0 c -0.646432,0 -1.169837,-0.523403 -1.169837,-1.169837 l 0,-24.656563 c 0,-0.646434 0.523405,-1.169837 1.169837,-1.169837 z" />
  <g
     style="font-size:10px;font-style:normal;font-variant:normal;font-weight:normal;font-stretch:normal;text-align:center;line-height:125%;writing-mode:lr-tb;text-anchor:middle;fill:#ffffff;fill-opacity:1;stroke:none;font-family:Liberation Sans;-inkscape-font-specification:Liberation Sans"
     id="text4232"
     transform="matrix(1.5997771,0,0,1.5997771,-6.3039459,-12.664408)">
    <path
       id="path4316"
       inkscape:connector-curvature="0"
       d="m 27.363281,32.439941 -0.786133,-2.011718 -3.134765,0 -0.791016,2.011718 -0.966797,0 2.807617,-6.879882 1.059571,0 2.763672,6.879882 -0.952149,0 m -1.948242,-5.009765 c -0.05209,-0.130203 -0.102543,-0.262039 -0.151367,-0.395508 -0.04558,-0.133458 -0.08627,-0.253901 -0.12207,-0.361328 -0.03581,-0.110671 -0.06674,-0.201817 -0.09277,-0.273438 -0.02279,-0.07486 -0.03581,-0.120436 -0.03906,-0.136718 -0.0065,0.01628 -0.02116,0.06186 -0.04395,0.136718 -0.02279,0.07488 -0.05371,0.167649 -0.09277,0.278321 -0.03581,0.110682 -0.07813,0.232753 -0.126953,0.366211 -0.04558,0.133468 -0.09278,0.265304 -0.141602,0.395507 l -0.878906,2.260743 2.573242,0 -0.883789,-2.270508"
       style="fill:#ffffff" />
  </g>
  <rect
     width="21.117058"
     height="21.117058"
     rx="2.0358763"
     ry="2.0360796"
     x="23.577375"
     y="-75.404152"
     transform="matrix(0,1,-1,0,0,0)"
     id="rect4370"
     style="fill:#ff5555;fill-opacity:1;fill-rule:nonzero;stroke:none" />
  <path
     d="m 52.517351,19.347458 c -1.139496,0 -2.069712,0.930213 -2.069712,2.069712 l 0,24.656563 c 0,1.139499 0.930216,2.069712 2.069712,2.069712 l 24.656564,0 c 1.139495,0 2.069711,-0.930213 2.069711,-2.069712 l 0,-24.656563 c 0,-1.139499 -0.930216,-2.069712 -2.069711,-2.069712 l -24.656564,0 z m 0,0.899875 24.656564,0 c 0.646431,0 1.169836,0.523403 1.169836,1.169837 l 0,24.656563 c 0,0.646434 -0.523405,1.169837 -1.169836,1.169837 l -24.656564,0 c -0.646432,0 -1.169837,-0.523403 -1.169837,-1.169837 l 0,-24.656563 c 0,-0.646434 0.523405,-1.169837 1.169837,-1.169837 z"
     inkscape:connector-curvature="0"
     id="path4372"
     style="fill:#ff2a2a;fill-opacity:1;fill-rule:nonzero;stroke:none" />
  <g
     transform="matrix(1.6666667,0,0,1.6666667,124.02109,-6.6638418)"
     id="g4374"
     style="font-size:10px;font-style:normal;font-variant:normal;font-weight:normal;font-stretch:normal;text-align:center;line-height:125%;writing-mode:lr-tb;text-anchor:middle;fill:#ffffff;fill-opacity:1;stroke:none;font-family:Liberation Sans;-inkscape-font-specification:Liberation Sans">
    <path
       style="fill:#ffffff"
       d="m 27.363281,32.439941 -0.786133,-2.011718 -3.134765,0 -0.791016,2.011718 -0.966797,0 2.807617,-6.879882 1.059571,0 2.763672,6.879882 -0.952149,0 m -1.948242,-5.009765 c -0.05209,-0.130203 -0.102543,-0.262039 -0.151367,-0.395508 -0.04558,-0.133458 -0.08627,-0.253901 -0.12207,-0.361328 -0.03581,-0.110671 -0.06674,-0.201817 -0.09277,-0.273438 -0.02279,-0.07486 -0.03581,-0.120436 -0.03906,-0.136718 -0.0065,0.01628 -0.02116,0.06186 -0.04395,0.136718 -0.02279,0.07488 -0.05371,0.167649 -0.09277,0.278321 -0.03581,0.110682 -0.07813,0.232753 -0.126953,0.366211 -0.04558,0.133468 -0.09278,0.265304 -0.141602,0.395507 l -0.878906,2.260743 2.573242,0 -0.883789,-2.270508"
       inkscape:connector-curvature="0"
       id="path4376" />
  </g>
  <g
     style="font-size:10px;font-style:normal;font-variant:normal;font-weight:normal;font-stretch:normal;text-align:center;line-height:125%;writing-mode:lr-tb;text-anchor:middle;fill:#ffffff;fill-opacity:1;stroke:none;font-family:Liberation Sans;-inkscape-font-specification:Liberation Sans"
     id="text4254"
     transform="matrix(1.6657262,0,0,1.6657262,-10.294997,-14.365381)">
    <path
       id="path4313"
       inkscape:connector-curvature="0"
       d="m 47.744141,32.439941 -5.478516,0 0,-0.698242 4.189453,-5.419922 -3.833008,0 0,-0.761718 4.892578,0 0,0.678711 -4.189453,5.439453 4.418946,0 0,0.761718"
       style="fill:#ffffff" />
  </g>
  <rect
     width="23.557735"
     height="42.920448"
     rx="2.2711797"
     ry="2.1044378"
     x="54.069523"
     y="-65.190033"
     transform="matrix(0,1,-1,0,0,0)"
     id="rect4378"
     style="fill:#ff5555;fill-opacity:1;fill-rule:nonzero;stroke:none" />
  <path
     d="m 21.997305,51.059946 c -2.008724,0 -3.648526,0.930213 -3.648526,2.069712 l 0,24.656563 c 0,1.139499 1.639802,2.069712 3.648526,2.069712 l 43.465037,0 c 2.008724,0 3.648526,-0.930213 3.648526,-2.069712 l 0,-24.656563 c 0,-1.139499 -1.639802,-2.069712 -3.648526,-2.069712 l -43.465037,0 z m 0,0.899875 43.465037,0 c 1.139542,0 2.06221,0.523403 2.06221,1.169837 l 0,24.656563 c 0,0.646434 -0.922668,1.169837 -2.06221,1.169837 l -43.465037,0 c -1.139542,0 -2.06221,-0.523403 -2.06221,-1.169837 l 0,-24.656563 c 0,-0.646434 0.922668,-1.169837 2.06221,-1.169837 z"
     inkscape:connector-curvature="0"
     id="path4380"
     style="fill:#ff5555;fill-opacity:1;fill-rule:nonzero;stroke:none" />
  <g
     style="font-size:10px;font-style:normal;font-variant:normal;font-weight:normal;font-stretch:normal;text-align:start;line-height:125%;writing-mode:lr-tb;text-anchor:start;fill:#ffffff;fill-opacity:1;stroke:none;font-family:Liberation Sans;-inkscape-font-specification:Liberation Sans"
     id="text4236"
     transform="matrix(1.5605106,0,0,1.5605106,-4.0101015,-41.327773)">
    <path
       id="path4292"
       inkscape:connector-curvature="0"
       d="m 27.166992,66.353516 c -0.390628,6e-6 -0.737308,0.06511 -1.040039,0.195312 -0.299482,0.130214 -0.55176,0.315761 -0.756836,0.556641 -0.201825,0.24089 -0.354819,0.530604 -0.458984,0.86914 -0.104168,0.338546 -0.156252,0.714522 -0.15625,1.12793 -2e-6,0.413415 0.05534,0.792646 0.166015,1.137695 0.113931,0.341799 0.275064,0.636395 0.483399,0.883789 0.211586,0.247397 0.468747,0.439455 0.771484,0.576172 0.305987,0.13672 0.649411,0.205079 1.030274,0.205078 0.266923,1e-6 0.509435,-0.03418 0.727539,-0.102539 0.221349,-0.07161 0.419917,-0.170897 0.595703,-0.297851 0.179031,-0.126952 0.338536,-0.276692 0.478515,-0.449219 0.139969,-0.175779 0.263666,-0.369464 0.371094,-0.581055 l 0.761719,0.38086 c -0.123705,0.257163 -0.276699,0.49642 -0.458984,0.717773 -0.182298,0.221355 -0.397142,0.413412 -0.644532,0.576172 -0.244146,0.162761 -0.522466,0.291341 -0.834961,0.385742 -0.309249,0.09115 -0.655928,0.136719 -1.040039,0.136719 -0.556644,0 -1.044924,-0.08789 -1.464843,-0.263672 -0.416669,-0.179036 -0.766604,-0.426432 -1.049805,-0.742187 -0.279949,-0.31901 -0.48991,-0.696613 -0.629883,-1.132813 -0.139974,-0.436195 -0.209961,-0.913083 -0.209961,-1.430664 0,-0.537105 0.07324,-1.022131 0.219727,-1.455078 0.149738,-0.432937 0.36621,-0.800776 0.649414,-1.103516 0.286456,-0.305983 0.638019,-0.540358 1.054687,-0.703125 0.416664,-0.166008 0.891924,-0.249016 1.425782,-0.249023 0.732417,7e-6 1.344395,0.143236 1.835937,0.429687 0.49153,0.286465 0.852858,0.711269 1.083984,1.274414 l -0.883789,0.292969 c -0.06511,-0.162755 -0.153,-0.317377 -0.263672,-0.463867 -0.110682,-0.149734 -0.249028,-0.28157 -0.415039,-0.395508 -0.16602,-0.113926 -0.361333,-0.205072 -0.585937,-0.273437 -0.221359,-0.06835 -0.475265,-0.102533 -0.761719,-0.102539"
       style="fill:#ffffff" />
    <path
       id="path4294"
       inkscape:connector-curvature="0"
       d="m 33.231445,72.535156 c -0.133466,0.03581 -0.270184,0.06348 -0.410156,0.08301 -0.136721,0.02279 -0.296226,0.03418 -0.478516,0.03418 -0.703126,0 -1.054688,-0.398763 -1.054687,-1.196289 l 0,-3.525391 -0.610352,0 0,-0.639648 0.644532,0 0.258789,-1.181641 0.585937,0 0,1.181641 0.976563,0 0,0.639648 -0.976563,0 0,3.334961 c -10e-7,0.253907 0.04069,0.432944 0.12207,0.537109 0.08463,0.100913 0.229491,0.151368 0.434571,0.151368 0.08463,0 0.166013,-0.0065 0.24414,-0.01953 0.08138,-0.01302 0.169269,-0.0293 0.263672,-0.04883 l 0,0.649414"
       style="fill:#ffffff" />
    <path
       id="path4296"
       inkscape:connector-curvature="0"
       d="m 33.993164,72.574219 0,-4.052735 c -10e-7,-0.110673 -0.0016,-0.222977 -0.0049,-0.336914 0,-0.117183 -0.0016,-0.229487 -0.0049,-0.336914 -0.0033,-0.107417 -0.0065,-0.208328 -0.0098,-0.302734 -0.0033,-0.0944 -0.0065,-0.179031 -0.0098,-0.253906 l 0.830078,0 c 0.0033,0.07488 0.0065,0.161138 0.0098,0.258789 0.0065,0.09441 0.01139,0.192062 0.01465,0.292968 0.0065,0.100917 0.0098,0.198573 0.0098,0.292969 0.0033,0.09115 0.0049,0.169275 0.0049,0.234375 l 0.01953,0 c 0.06185,-0.201818 0.126952,-0.375972 0.195313,-0.522461 0.07161,-0.149734 0.15462,-0.271805 0.249023,-0.366211 0.0944,-0.09765 0.206704,-0.169265 0.336914,-0.214843 0.130206,-0.04882 0.288083,-0.07324 0.473633,-0.07324 0.07161,6e-6 0.139971,0.0065 0.205078,0.01953 0.0651,0.0098 0.115557,0.01954 0.151367,0.0293 l 0,0.805665 c -0.0586,-0.01627 -0.126956,-0.02766 -0.205078,-0.03418 -0.07813,-0.0098 -0.166018,-0.01464 -0.263672,-0.01465 -0.201825,5e-6 -0.374351,0.04558 -0.517578,0.136719 -0.139976,0.09115 -0.255536,0.218103 -0.34668,0.38086 -0.08789,0.159509 -0.152996,0.351566 -0.195312,0.576171 -0.04232,0.221358 -0.06348,0.463871 -0.06348,0.727539 l 0,2.753907 -0.878906,0"
       style="fill:#ffffff" />
    <path
       id="path4298"
       inkscape:connector-curvature="0"
       d="m 37.313477,72.574219 0,-7.246094 0.878906,0 0,7.246094 -0.878906,0"
       style="fill:#ffffff" />
  </g>
</svg>
