<?xml version="1.0" encoding="UTF-8" standalone="no"?>
<!-- Created with Inkscape (http://www.inkscape.org/) -->

<svg
   xmlns:dc="http://purl.org/dc/elements/1.1/"
   xmlns:cc="http://creativecommons.org/ns#"
   xmlns:rdf="http://www.w3.org/1999/02/22-rdf-syntax-ns#"
   xmlns:svg="http://www.w3.org/2000/svg"
   xmlns="http://www.w3.org/2000/svg"
   xmlns:xlink="http://www.w3.org/1999/xlink"
   xmlns:sodipodi="http://sodipodi.sourceforge.net/DTD/sodipodi-0.dtd"
   xmlns:inkscape="http://www.inkscape.org/namespaces/inkscape"
   version="1.0"
   width="96"
   height="96"
   id="svg2408"
   inkscape:version="0.48.4 r9939"
   sodipodi:docname="radiotray.svg">
  <sodipodi:namedview
     pagecolor="#ffffff"
     bordercolor="#666666"
     borderopacity="1"
     objecttolerance="10"
     gridtolerance="10"
     guidetolerance="10"
     inkscape:pageopacity="0"
     inkscape:pageshadow="2"
     inkscape:window-width="1366"
     inkscape:window-height="691"
     id="namedview85"
     showgrid="false"
     inkscape:zoom="2.4583333"
     inkscape:cx="48"
     inkscape:cy="48"
     inkscape:window-x="0"
     inkscape:window-y="24"
     inkscape:window-maximized="1"
     inkscape:current-layer="svg2408" />
  <defs
     id="defs2410">
    <linearGradient
       id="linearGradient3916">
      <stop
         id="stop3918"
         style="stop-color:#ffffff;stop-opacity:1"
         offset="0" />
      <stop
         id="stop3920"
         style="stop-color:#ffffff;stop-opacity:0"
         offset="1" />
    </linearGradient>
    <linearGradient
       id="linearGradient3905">
      <stop
         id="stop3907"
         style="stop-color:#47bbee;stop-opacity:1"
         offset="0" />
      <stop
         id="stop3909"
         style="stop-color:#175f7f;stop-opacity:1"
         offset="1" />
    </linearGradient>
    <linearGradient
       id="linearGradient3847">
      <stop
         id="stop3849"
         style="stop-color:#ffffff;stop-opacity:1"
         offset="0" />
      <stop
         id="stop3851"
         style="stop-color:#ffffff;stop-opacity:0"
         offset="1" />
    </linearGradient>
    <linearGradient
       id="linearGradient3790">
      <stop
         id="stop3792"
         style="stop-color:#e6e6e6;stop-opacity:1"
         offset="0" />
      <stop
         id="stop3794"
         style="stop-color:#b4b4b4;stop-opacity:1"
         offset="1" />
    </linearGradient>
    <linearGradient
       id="linearGradient3701">
      <stop
         id="stop3703"
         style="stop-color:#1c4a5b;stop-opacity:1"
         offset="0" />
      <stop
         id="stop3705"
         style="stop-color:#228cb8;stop-opacity:1"
         offset="1" />
    </linearGradient>
    <linearGradient
       x1="45.447727"
       y1="92.539597"
       x2="45.447727"
       y2="7.0165396"
       id="ButtonShadow"
       gradientUnits="userSpaceOnUse"
       gradientTransform="scale(1.0058652,0.994169)">
      <stop
         id="stop3750"
         style="stop-color:#000000;stop-opacity:1"
         offset="0" />
      <stop
         id="stop3752"
         style="stop-color:#000000;stop-opacity:0.58823532"
         offset="1" />
    </linearGradient>
    <linearGradient
       id="linearGradient3737">
      <stop
         id="stop3739"
         style="stop-color:#ffffff;stop-opacity:1"
         offset="0" />
      <stop
         id="stop3741"
         style="stop-color:#ffffff;stop-opacity:0"
         offset="1" />
    </linearGradient>
    <linearGradient
       id="linearGradient3700">
      <stop
         id="stop3702"
         style="stop-color:#3f9fc5;stop-opacity:1"
         offset="0" />
      <stop
         id="stop3704"
         style="stop-color:#89cde9;stop-opacity:1"
         offset="1" />
    </linearGradient>
    <filter
       color-interpolation-filters="sRGB"
       id="filter3174">
      <feGaussianBlur
         id="feGaussianBlur3176"
         stdDeviation="1.71" />
    </filter>
    <linearGradient
       x1="36.357143"
       y1="6"
       x2="36.357143"
       y2="63.893143"
       id="linearGradient3188"
       xlink:href="#linearGradient3737"
       gradientUnits="userSpaceOnUse" />
    <filter
       x="-0.192"
       y="-0.192"
       width="1.3839999"
       height="1.3839999"
       color-interpolation-filters="sRGB"
       id="filter3794">
      <feGaussianBlur
         id="feGaussianBlur3796"
         stdDeviation="5.28" />
    </filter>
    <linearGradient
       x1="48"
       y1="20.220806"
       x2="48"
       y2="138.66119"
       id="linearGradient3613"
       xlink:href="#linearGradient3737"
       gradientUnits="userSpaceOnUse" />
    <radialGradient
       cx="48"
       cy="90.171875"
       r="42"
       fx="48"
       fy="90.171875"
       id="radialGradient3619"
       xlink:href="#linearGradient3737"
       gradientUnits="userSpaceOnUse"
       gradientTransform="matrix(1.1573129,0,0,0.99590774,-7.5510206,0.19713193)" />
    <clipPath
       id="clipPath3613">
      <rect
         width="84"
         height="84"
         rx="6"
         ry="6"
         x="6"
         y="6"
         id="rect3615"
         style="fill:#ffffff;fill-opacity:1;fill-rule:nonzero;stroke:none" />
    </clipPath>
    <linearGradient
       x1="48"
       y1="90"
       x2="48"
       y2="5.9877172"
       id="linearGradient3617"
       xlink:href="#linearGradient3700"
       gradientUnits="userSpaceOnUse" />
    <linearGradient
       x1="45.447727"
       y1="92.539597"
       x2="45.447727"
       y2="7.0165396"
       id="ButtonShadow-0"
       gradientUnits="userSpaceOnUse"
       gradientTransform="matrix(1.0058652,0,0,0.994169,100,0)">
      <stop
         id="stop3750-8"
         style="stop-color:#000000;stop-opacity:1"
         offset="0" />
      <stop
         id="stop3752-5"
         style="stop-color:#000000;stop-opacity:0.58823532"
         offset="1" />
    </linearGradient>
    <linearGradient
       x1="32.251034"
       y1="6.1317081"
       x2="32.251034"
       y2="90.238609"
       id="linearGradient3780"
       xlink:href="#ButtonShadow-0"
       gradientUnits="userSpaceOnUse"
       gradientTransform="matrix(1.0238095,0,0,1.0119048,-1.1428571,-98.071429)" />
    <linearGradient
       x1="32.251034"
       y1="6.1317081"
       x2="32.251034"
       y2="90.238609"
       id="linearGradient3772"
       xlink:href="#ButtonShadow-0"
       gradientUnits="userSpaceOnUse"
       gradientTransform="matrix(1.0238095,0,0,1.0119048,-1.1428571,-98.071429)" />
    <linearGradient
       x1="32.251034"
       y1="6.1317081"
       x2="32.251034"
       y2="90.238609"
       id="linearGradient3725"
       xlink:href="#ButtonShadow-0"
       gradientUnits="userSpaceOnUse"
       gradientTransform="matrix(1.0238095,0,0,1.0119048,-1.1428571,-98.071429)" />
    <linearGradient
       x1="32.251034"
       y1="6.1317081"
       x2="32.251034"
       y2="90.238609"
       id="linearGradient3721"
       xlink:href="#ButtonShadow-0"
       gradientUnits="userSpaceOnUse"
       gradientTransform="translate(0,-97)" />
    <linearGradient
       x1="32.251034"
       y1="6.1317081"
       x2="32.251034"
       y2="90.238609"
       id="linearGradient3026"
       xlink:href="#ButtonShadow-0"
       gradientUnits="userSpaceOnUse"
       gradientTransform="matrix(1.0238095,0,0,1.0119048,-1.1428571,-98.071429)" />
    <linearGradient
       x1="56"
       y1="64"
       x2="56"
       y2="16"
       id="linearGradient3699"
       xlink:href="#linearGradient3701"
       gradientUnits="userSpaceOnUse" />
    <linearGradient
       x1="44"
       y1="66"
       x2="52"
       y2="66"
       id="linearGradient3796"
       xlink:href="#linearGradient3790"
       gradientUnits="userSpaceOnUse" />
    <linearGradient
       x1="49"
       y1="52"
       x2="49"
       y2="77.079872"
       id="linearGradient3853"
       xlink:href="#linearGradient3847"
       gradientUnits="userSpaceOnUse" />
    <radialGradient
       cx="48"
       cy="45.167473"
       r="7"
       fx="48"
       fy="45.167473"
       id="radialGradient3861"
       xlink:href="#linearGradient3905"
       gradientUnits="userSpaceOnUse"
       gradientTransform="matrix(1.1428569,1.5630328e-7,-1.9842221e-7,1.4508217,-6.8571221,-20.529956)" />
    <radialGradient
       cx="48"
       cy="47.930149"
       r="6"
       fx="48"
       fy="47.930149"
       id="radialGradient3891"
       xlink:href="#linearGradient3847"
       gradientUnits="userSpaceOnUse"
       gradientTransform="matrix(1,0,0,0.83333345,0,6.0582042)" />
    <linearGradient
       x1="49.400002"
       y1="34"
       x2="49.400002"
       y2="51.5"
       id="linearGradient3903"
       xlink:href="#linearGradient3847"
       gradientUnits="userSpaceOnUse" />
    <linearGradient
       x1="56"
       y1="48"
       x2="56"
       y2="8"
       id="linearGradient3922"
       xlink:href="#linearGradient3916"
       gradientUnits="userSpaceOnUse" />
    <radialGradient
       inkscape:collect="always"
       xlink:href="#linearGradient3737"
       id="radialGradient3066"
       gradientUnits="userSpaceOnUse"
       gradientTransform="matrix(1.1573129,0,0,0.99590774,-95.415427,25.824251)"
       cx="48"
       cy="90.171875"
       fx="48"
       fy="90.171875"
       r="42" />
    <linearGradient
       inkscape:collect="always"
       xlink:href="#linearGradient3737"
       id="linearGradient3069"
       gradientUnits="userSpaceOnUse"
       x1="36.357143"
       y1="6"
       x2="36.357143"
       y2="63.893143" />
    <linearGradient
       inkscape:collect="always"
       xlink:href="#linearGradient3916"
       id="linearGradient3076"
       gradientUnits="userSpaceOnUse"
       x1="56"
       y1="48"
       x2="56"
       y2="8" />
    <linearGradient
       inkscape:collect="always"
       xlink:href="#linearGradient3700"
       id="linearGradient3079"
       gradientUnits="userSpaceOnUse"
       x1="48"
       y1="90"
       x2="48"
       y2="5.9877172"
       gradientTransform="translate(-110.23729,36.610169)" />
  </defs>
  <metadata
     id="metadata2413">
    <rdf:RDF>
      <cc:Work
         rdf:about="">
        <dc:format>image/svg+xml</dc:format>
        <dc:type
           rdf:resource="http://purl.org/dc/dcmitype/StillImage" />
        <dc:title></dc:title>
      </cc:Work>
    </rdf:RDF>
  </metadata>
  <g
     id="layer2"
     style="display:none">
    <rect
       width="86"
       height="85"
       rx="6"
       ry="6"
       x="5"
       y="7"
       id="rect3745"
       style="opacity:0.9;fill:url(#ButtonShadow);fill-opacity:1;fill-rule:nonzero;stroke:none;filter:url(#filter3174)" />
  </g>
  <rect
     style="fill:#378dd3;fill-opacity:1;stroke:none"
     id="rect3849"
     width="96"
     height="96"
     x="0"
     y="1.4210855e-14"
     rx="0"
     ry="0" />
  <g
     id="g3851"
     transform="translate(148.47458,4.8813559)">
    <path
       d="m -120.84852,9.9925847 a 4.0004001,4.0004001 0 0 0 -2.875,1.2500003 c -13.24432,13.244326 -13.24432,34.880674 0,48.125 a 4.0216698,4.0216698 0 1 0 5.6875,-5.6875 c -10.18713,-10.187134 -10.18713,-26.562867 0,-36.75 a 4.0004001,4.0004001 0 0 0 0.5625,-5.125 4.0004001,4.0004001 0 0 0 -3.375,-1.8125003 z m 42.375003,0 a 4.0004001,4.0004001 0 0 0 -3.375,1.8125003 4.0004001,4.0004001 0 0 0 0.5625,5.125 c 10.187134,10.187133 10.187134,26.562866 0,36.75 a 4.0216698,4.0216698 0 1 0 5.6875,5.6875 c 13.244326,-13.244326 13.244326,-34.880674 0,-48.125 a 4.0004001,4.0004001 0 0 0 -2.875,-1.2500003 z M -111.37977,20.055085 a 4.0004001,4.0004001 0 0 0 -2.46875,1.21875 c -7.77698,7.776984 -7.77698,20.504267 0,28.28125 a 4.0004001,4.0004001 0 1 0 5.65625,-5.65625 c -4.71979,-4.719793 -4.71979,-12.248957 0,-16.96875 a 4.0004001,4.0004001 0 0 0 0.0937,-5.65625 4.0004001,4.0004001 0 0 0 -3.28125,-1.21875 z m 22.625003,0 a 4.0004001,4.0004001 0 0 0 -2.46875,1.21875 4.0004001,4.0004001 0 0 0 0.09375,5.65625 c 4.719794,4.719793 4.719794,12.248957 0,16.96875 a 4.0004001,4.0004001 0 1 0 5.65625,5.65625 c 7.776983,-7.776983 7.776983,-20.504266 0,-28.28125 a 4.0004001,4.0004001 0 0 0 -3.28125,-1.21875 z"
       inkscape:connector-curvature="0"
       id="path3665"
       style="font-size:medium;font-style:normal;font-variant:normal;font-weight:normal;font-stretch:normal;text-indent:0;text-align:start;text-decoration:none;line-height:normal;letter-spacing:normal;word-spacing:normal;text-transform:none;direction:ltr;block-progression:tb;writing-mode:lr-tb;text-anchor:start;color:#000000;fill:#ffffff;fill-opacity:1;stroke:none;stroke-width:3.5;marker:none;visibility:visible;display:inline;overflow:visible;enable-background:accumulate;font-family:Abandoned Bitplane;-inkscape-font-specification:Abandoned Bitplane" />
    <path
       d="m -120.91102,9.9925847 c -0.88091,0.04443 -1.61705,0.3796383 -2.28125,0.8437503 -0.11728,0.08195 -0.23144,0.159167 -0.34375,0.25 -0.0449,0.03817 -0.0806,0.08631 -0.125,0.125 -0.29256,0.254843 -0.5697,0.505944 -0.84375,0.78125 -0.15176,0.1661 -0.29187,0.32594 -0.4375,0.5 -0.6553,0.78327 -1.27298,1.641077 -1.90625,2.34375 -0.21081,0.289952 -0.42208,0.579992 -0.625,0.875 -0.0387,0.05404 -0.0866,0.101983 -0.125,0.15625 -0.31811,0.46645 -0.6328,0.937127 -0.9375,1.40625 -0.0688,0.105871 -0.15046,0.206824 -0.21875,0.3125 -0.0797,0.130315 -0.141,0.274857 -0.21875,0.40625 -0.13833,0.23065 -0.27413,0.453655 -0.40625,0.6875 -0.0753,0.134991 -0.14539,0.270228 -0.21875,0.40625 -0.80142,1.485951 -1.49891,3.03594 -2.0625,4.625 -0.27408,0.772789 -0.50119,1.552971 -0.71875,2.34375 -0.009,0.03203 -0.0225,0.06169 -0.0312,0.09375 -0.21866,0.803893 -0.40234,1.619573 -0.5625,2.4375 -0.14796,0.755674 -0.27712,1.517199 -0.375,2.28125 -0.0173,0.135447 -0.0467,0.270603 -0.0625,0.40625 -0.0613,0.527456 -0.0875,1.063994 -0.125,1.59375 -0.025,0.374084 -0.0495,0.750262 -0.0625,1.125 -0.017,0.437407 -0.0306,0.874775 -0.0312,1.3125 0.001,0.427305 0.0147,0.854254 0.0312,1.28125 0.0127,0.364364 0.0385,0.729999 0.0625,1.09375 0.0399,0.568596 0.0889,1.121583 0.15625,1.6875 0.008,0.06346 0.0233,0.12408 0.0312,0.1875 0.20332,1.632569 0.50604,3.257511 0.9375,4.84375 0.009,0.03206 0.0224,0.06172 0.0312,0.09375 0.21756,0.790779 0.44467,1.570961 0.71875,2.34375 0.2818,0.79453 0.59616,1.603973 0.9375,2.375 0.34135,0.771027 0.72429,1.507025 1.125,2.25 0.15389,0.281915 0.30597,0.566312 0.46875,0.84375 0.0719,0.12438 0.14511,0.251558 0.21875,0.375 0.0562,0.0927 0.0991,0.189088 0.15625,0.28125 0.0553,0.0855 0.13195,0.164362 0.1875,0.25 0.34942,0.559509 0.70841,1.11848 1.09375,1.65625 0.12382,0.180006 0.24837,0.352932 0.375,0.53125 0.0848,0.113289 0.16353,0.231546 0.25,0.34375 0.009,0.01042 0.0219,0.02077 0.0312,0.03125 0.76353,0.853336 1.48792,1.878786 2.3125,2.78125 0.41852,0.420439 0.84945,0.816949 1.3125,1.1875 0.678,0.472352 1.43896,0.779894 2.34375,0.8125 0.14751,0.0046 0.29556,-0.01963 0.4375,-0.03125 1.46812,-0.222104 2.81192,-1.301284 3.34375,-2.6875 0.0679,-0.177052 0.11626,-0.345126 0.15625,-0.53125 0.04,-0.186124 0.0846,-0.369552 0.0937,-0.5625 0.0184,-0.385896 -0.0342,-0.787787 -0.15625,-1.1875 -0.4097,-0.877312 -0.9629,-1.671419 -1.5625,-2.4375 -0.86488,-0.896844 -1.66229,-1.86192 -2.375,-2.875 -0.0742,-0.09271 -0.14599,-0.187538 -0.21875,-0.28125 -0.74666,-0.961702 -1.41604,-1.986516 -1.84375,-3.15625 -0.20888,-0.405799 -0.37851,-0.834452 -0.5625,-1.25 -0.8356,-1.887285 -1.41561,-3.853802 -1.75,-5.875 -0.21101,-1.275474 -0.35698,-2.550705 -0.375,-3.84375 -0.005,-0.177824 0.001,-0.353384 0,-0.53125 0.001,-0.187245 -0.005,-0.375299 0,-0.5625 0.018,-1.293045 0.16399,-2.599526 0.375,-3.875 0.40802,-2.466231 1.15493,-4.876191 2.3125,-7.125 0.42771,-1.169734 1.09709,-2.163298 1.84375,-3.125 0.0668,-0.09794 0.15051,-0.184251 0.21875,-0.28125 0.70854,-1.007146 1.48481,-1.982662 2.34375,-2.875 0.60554,-0.771961 1.18063,-1.552857 1.59375,-2.4375 0.12203,-0.399713 0.17464,-0.801604 0.15625,-1.1875 -0.009,-0.192948 -0.0538,-0.407626 -0.0937,-0.59375 -0.0279,-0.129812 -0.0521,-0.249435 -0.0937,-0.375 -0.0169,-0.05343 -0.0436,-0.103501 -0.0625,-0.15625 -0.54342,-1.416419 -1.9322,-2.498739 -3.4375,-2.6875 -0.13605,-0.01706 -0.26887,-0.02934 -0.40625,-0.03125 z m 42.312503,0 c -1.313556,0.09793 -2.600472,0.8884873 -3.3125,2.0000003 -0.06688,0.115608 -0.131054,0.222629 -0.1875,0.34375 -0.02573,0.05075 -0.03906,0.104414 -0.0625,0.15625 -0.05245,0.124347 -0.115203,0.246642 -0.15625,0.375 -0.03382,0.103311 -0.06937,0.206026 -0.09375,0.3125 -0.03071,0.134116 -0.04777,0.267812 -0.0625,0.40625 -0.04088,0.384165 -0.0047,0.781345 0.09375,1.1875 0.382462,0.973275 0.952194,1.828615 1.59375,2.65625 0.82863,0.857598 1.591866,1.785333 2.28125,2.75 0.01862,0.02268 0.04395,0.03977 0.0625,0.0625 0.866128,1.061483 1.630497,2.181628 2.09375,3.5 0.208911,0.405834 0.378495,0.834419 0.5625,1.25 1.363052,3.078499 2.078572,6.407747 2.125,9.75 0.002,0.07197 -0.0014,0.146766 0,0.21875 0.0012,0.220034 0.0043,0.436222 0,0.65625 -4.07e-4,0.07335 0.001,0.145415 0,0.21875 -0.04643,3.342253 -0.761948,6.640251 -2.125,9.71875 -0.184005,0.415581 -0.353589,0.844166 -0.5625,1.25 -0.437747,1.245784 -1.159729,2.303003 -1.96875,3.3125 -0.04714,0.05882 -0.07731,0.129056 -0.125,0.1875 -0.732038,1.034305 -1.546406,2.025572 -2.4375,2.9375 -0.604411,0.792453 -1.135528,1.603755 -1.5,2.53125 -0.09849,0.406155 -0.134629,0.803335 -0.09375,1.1875 0.01473,0.138438 0.03179,0.272134 0.0625,0.40625 0.0119,0.05197 0.01707,0.10501 0.03125,0.15625 0.0147,0.05254 0.04587,0.104236 0.0625,0.15625 0.05474,0.168459 0.140871,0.341271 0.21875,0.5 0.004,0.0087 -0.0041,0.02255 0,0.03125 0.06253,0.125022 0.111948,0.225809 0.1875,0.34375 0.717569,1.120162 2.01922,1.912002 3.34375,2 0.03235,-9.43e-4 0.06116,0.0018 0.09375,0 0.201892,-0.0011 0.394564,8.01e-4 0.59375,-0.03125 0.575028,-0.09253 1.143033,-0.328674 1.625,-0.65625 0.01669,-0.01488 0.04584,-0.01633 0.0625,-0.03125 0.335307,-0.308311 0.648222,-0.615002 0.96875,-0.9375 0.127957,-0.12603 0.249466,-0.246653 0.375,-0.375 0.0562,-0.05856 0.100532,-0.128515 0.15625,-0.1875 0.378997,-0.401224 0.768287,-0.79839 1.125,-1.21875 0.409155,-0.482158 0.808147,-0.994506 1.1875,-1.5 1.138059,-1.516482 2.139477,-3.121365 3,-4.8125 0.286841,-0.563712 0.557532,-1.139563 0.8125,-1.71875 0.06025,-0.136856 0.129051,-0.268598 0.1875,-0.40625 0.183369,-0.435529 0.366038,-0.900871 0.53125,-1.34375 0.445156,-1.185396 0.81251,-2.397352 1.125,-3.625 0.156245,-0.613824 0.283948,-1.253561 0.40625,-1.875 0.03892,-0.197738 0.08956,-0.395372 0.125,-0.59375 0.07515,-0.426374 0.159672,-0.853015 0.21875,-1.28125 0.01174,-0.08382 0.02013,-0.1661 0.03125,-0.25 0.06679,-0.511515 0.112596,-1.049681 0.15625,-1.5625 0.0018,-0.02091 -0.0018,-0.04159 0,-0.0625 0.05027,-0.599886 0.10682,-1.211015 0.125,-1.8125 9.17e-4,-0.03109 -8.29e-4,-0.06265 0,-0.09375 0.01679,-0.611412 0.01686,-1.201287 0,-1.8125 -5.67e-4,-0.02065 6.05e-4,-0.04185 0,-0.0625 -0.01804,-0.611609 -0.07278,-1.234179 -0.125,-1.84375 -0.0017,-0.02082 0.0018,-0.04169 0,-0.0625 -0.0516,-0.606229 -0.103593,-1.208252 -0.1875,-1.8125 -0.05847,-0.417442 -0.144967,-0.834917 -0.21875,-1.25 -0.03672,-0.208343 -0.08446,-0.417231 -0.125,-0.625 -0.122302,-0.621439 -0.250005,-1.229926 -0.40625,-1.84375 -0.431815,-1.696432 -0.972614,-3.358731 -1.65625,-4.96875 -0.05737,-0.136272 -0.128359,-0.270758 -0.1875,-0.40625 -0.509937,-1.158375 -1.082358,-2.313708 -1.71875,-3.40625 -0.636392,-1.092542 -1.335044,-2.145262 -2.09375,-3.15625 -0.379353,-0.505494 -0.778345,-0.986592 -1.1875,-1.46875 -0.409155,-0.482158 -0.842811,-0.949393 -1.28125,-1.40625 -0.127453,-0.132807 -0.2451,-0.275688 -0.375,-0.40625 -0.320533,-0.315708 -0.633113,-0.636905 -0.96875,-0.9375 -0.01866,-0.01317 -0.04362,-0.01842 -0.0625,-0.03125 -0.148066,-0.100635 -0.308477,-0.2017 -0.46875,-0.28125 -0.180714,-0.08969 -0.370373,-0.157179 -0.5625,-0.21875 -0.384253,-0.123143 -0.783715,-0.1852323 -1.1875,-0.1875003 -0.04183,0.0017 -0.08326,-0.0031 -0.125,0 z m -42.093753,1.9687503 c 1.66573,0.05446 2.62595,2.448554 1.25,3.5625 -0.51383,0.499185 -1.00107,1.024317 -1.46875,1.5625 -0.4238,0.487692 -0.83341,0.983396 -1.21875,1.5 -0.1122,0.150422 -0.20359,0.316039 -0.3125,0.46875 -0.047,0.06586 -0.10978,0.121237 -0.15625,0.1875 -0.29193,0.417352 -0.5763,0.848244 -0.84375,1.28125 -0.74643,1.208501 -1.38572,2.472423 -1.9375,3.78125 -1.10354,2.617653 -1.83453,5.390656 -2.125,8.21875 -0.0587,0.571714 -0.0694,1.144687 -0.0937,1.71875 -0.0104,0.344629 -0.0334,0.686407 -0.0312,1.03125 -0.002,0.339845 0.0212,0.691606 0.0312,1.03125 0.0244,0.574063 0.035,1.147036 0.0937,1.71875 0.29047,2.828094 1.02146,5.632347 2.125,8.25 0.53924,1.2791 1.18103,2.503875 1.90625,3.6875 0.029,0.04734 0.0332,0.109086 0.0625,0.15625 0.35019,0.559147 0.73622,1.091931 1.125,1.625 0.0308,0.04219 0.0627,0.08299 0.0937,0.125 0.39929,0.541011 0.81303,1.08268 1.25,1.59375 0.0192,0.02219 0.0432,0.04037 0.0625,0.0625 0.45889,0.52622 0.93437,1.01121 1.4375,1.5 1.46768,1.188209 0.27537,3.821548 -1.59375,3.53125 -0.27011,-0.03889 -0.54234,-0.115715 -0.78125,-0.25 -0.14797,-0.133141 -0.29279,-0.269632 -0.4375,-0.40625 l -0.0625,0.0625 c -1.93445,-1.885415 -3.55481,-4.031598 -4.90625,-6.34375 -0.57922,-0.99099 -1.12554,-2.014407 -1.59375,-3.0625 -0.18488,-0.413862 -0.36393,-0.828624 -0.53125,-1.25 -0.0462,-0.112629 -0.08,-0.230766 -0.125,-0.34375 -0.0247,-0.06138 -0.0382,-0.125972 -0.0625,-0.1875 -0.11723,-0.31088 -0.23604,-0.623126 -0.34375,-0.9375 -0.20548,-0.577971 -0.3933,-1.16172 -0.5625,-1.75 -0.42643,-1.482634 -0.73756,-3.004619 -0.9375,-4.53125 -0.0977,-0.746318 -0.17413,-1.498641 -0.21875,-2.25 -0.007,-0.10404 0.006,-0.208402 0,-0.3125 -0.0285,-0.573896 -0.0646,-1.144054 -0.0625,-1.71875 -0.002,-0.574696 0.034,-1.144854 0.0625,-1.71875 0.006,-0.104098 -0.007,-0.20846 0,-0.3125 0.0446,-0.751359 0.12101,-1.503682 0.21875,-2.25 0.19823,-1.51358 0.51666,-2.998289 0.9375,-4.46875 0.0116,-0.04166 0.0194,-0.08339 0.0312,-0.125 0.14309,-0.491915 0.30027,-0.984012 0.46875,-1.46875 0.12947,-0.386585 0.26243,-0.774871 0.40625,-1.15625 0.024,-0.06076 0.0381,-0.126879 0.0625,-0.1875 0.0334,-0.08389 0.0597,-0.166305 0.0937,-0.25 0.57956,-1.472678 1.27097,-2.880123 2.0625,-4.25 0.0535,-0.09226 0.10188,-0.189533 0.15625,-0.28125 0.27176,-0.45926 0.57966,-0.898987 0.875,-1.34375 0.63362,-0.954166 1.32199,-1.871845 2.0625,-2.75 0.61064,-0.724136 1.22438,-1.460412 1.90625,-2.125 l 0.0625,0.0625 c 0.14471,-0.136618 0.28953,-0.273109 0.4375,-0.40625 0.23891,-0.134285 0.51114,-0.211109 0.78125,-0.25 0.11682,-0.01814 0.23271,-0.03488 0.34375,-0.03125 z m 41.968753,0.03125 c 0.666302,-0.01426 1.209234,0.251531 1.6875,0.625 l 0.03125,-0.03125 c 0.04154,0.04152 0.08369,0.08325 0.125,0.125 0.184971,0.158079 0.331295,0.343531 0.5,0.53125 0.0557,0.0589 0.100997,0.12818 0.15625,0.1875 1.127896,1.210923 2.166712,2.504253 3.09375,3.875 0.346732,0.512688 0.683954,1.030311 1,1.5625 0.08579,0.144461 0.166537,0.291675 0.25,0.4375 0.0071,0.01237 0.02416,0.01887 0.03125,0.03125 0.396829,0.678345 0.753818,1.388548 1.09375,2.09375 0.004,0.0083 -0.004,0.02291 0,0.03125 1.37711,2.8639 2.2995,5.926303 2.75,9.0625 0.0015,0.01013 -0.0015,0.02112 0,0.03125 0.222962,1.562781 0.347537,3.13916 0.34375,4.71875 3.4e-5,0.01031 -2.5e-5,0.02094 0,0.03125 -0.0026,0.784524 -0.0356,1.561343 -0.09375,2.34375 -7.18e-4,0.01042 7.28e-4,0.02083 0,0.03125 -0.05889,0.78245 -0.135836,1.567593 -0.25,2.34375 -0.0015,0.01024 0.0015,0.02102 0,0.03125 -0.4505,3.136197 -1.37289,6.1986 -2.75,9.0625 -0.0041,0.0086 0.0041,0.02268 0,0.03125 -0.336542,0.709078 -0.703137,1.380664 -1.09375,2.0625 -0.0072,0.01229 -0.02404,0.01897 -0.03125,0.03125 -0.08346,0.145825 -0.16421,0.293039 -0.25,0.4375 -0.316046,0.532189 -0.653268,1.049812 -1,1.5625 -0.44887,0.663713 -0.939911,1.30946 -1.4375,1.9375 -0.50904,0.642494 -1.036959,1.273412 -1.59375,1.875 -0.255224,0.306288 -0.489344,0.602717 -0.78125,0.84375 -0.02255,0.01862 -0.03965,0.04447 -0.0625,0.0625 -0.482067,0.380536 -1.045058,0.608168 -1.71875,0.59375 -1.44698,-0.148606 -2.300378,-1.865917 -1.53125,-3.09375 1.808708,-1.861307 3.462123,-3.885883 4.78125,-6.125 0.215188,-0.365265 0.428566,-0.717494 0.625,-1.09375 0.0043,-0.0084 -0.0043,-0.02289 0,-0.03125 0.200261,-0.384662 0.383545,-0.791081 0.5625,-1.1875 0.167494,-0.348215 0.317841,-0.70802 0.46875,-1.0625 0.48905,-1.203272 0.928711,-2.428081 1.25,-3.6875 0.346242,-1.357232 0.603883,-2.731901 0.75,-4.125 0.002,-0.02068 -0.002,-0.04182 0,-0.0625 0.04595,-0.447375 0.06881,-0.894797 0.09375,-1.34375 0.0054,-0.114743 -0.004,-0.228944 0,-0.34375 0.01305,-0.375883 0.03316,-0.748821 0.03125,-1.125 0.0016,-0.360433 -0.01907,-0.733588 -0.03125,-1.09375 -0.0054,-0.124844 0.0071,-0.25023 0,-0.375 -0.02089,-0.444637 -0.05169,-0.869433 -0.09375,-1.3125 -0.0021,-0.02036 0.0021,-0.04215 0,-0.0625 -0.146105,-1.393394 -0.403685,-2.798735 -0.75,-4.15625 -0.321289,-1.259419 -0.76095,-2.484228 -1.25,-3.6875 -0.150909,-0.35448 -0.301256,-0.714285 -0.46875,-1.0625 -0.182697,-0.404711 -0.357614,-0.79504 -0.5625,-1.1875 -0.195404,-0.379681 -0.412072,-0.754823 -0.625,-1.125 -1.319127,-2.239117 -2.972542,-4.263693 -4.78125,-6.125 -0.769128,-1.227833 0.08427,-2.945144 1.53125,-3.09375 z m -32.218753,8.03125 c -2.93888,0.10461 -4.49098,3.087248 -5.96875,5.21875 -0.88854,1.460015 -1.57617,3.022587 -2.03125,4.65625 -0.14624,0.525007 -0.27277,1.058243 -0.375,1.59375 -0.008,0.04007 0.007,0.08488 0,0.125 -0.076,0.412043 -0.13725,0.833804 -0.1875,1.25 -0.0251,0.208121 -0.0438,0.416148 -0.0625,0.625 -0.0327,0.365384 -0.0493,0.726994 -0.0625,1.09375 -0.0123,0.341728 -0.0359,0.689252 -0.0312,1.03125 0.002,0.115546 0.0271,0.228268 0.0312,0.34375 0.0139,0.387647 0.0267,0.770171 0.0625,1.15625 0.0144,0.155835 0.0132,0.313319 0.0312,0.46875 0.0543,0.468881 0.13171,0.942605 0.21875,1.40625 0.10434,0.555778 0.22331,1.111696 0.375,1.65625 0.45508,1.633663 1.14271,3.196235 2.03125,4.65625 1.47777,2.131502 3.02987,5.11414 5.96875,5.21875 2.22462,0.02556 3.8743,-1.881347 3.96875,-3.90625 -0.009,-0.105929 -0.0121,-0.20485 -0.0312,-0.3125 -0.32861,-1.177843 -1.00366,-2.205063 -1.75,-3.1875 -0.005,-0.0066 0.005,-0.02465 0,-0.03125 -1.24005,-1.630306 -2.63786,-3.170357 -2.75,-5.375 -0.12265,-0.571594 -0.19081,-1.144393 -0.21875,-1.71875 -0.0163,-0.207468 -0.0265,-0.416606 -0.0312,-0.625 1.8e-4,-0.02081 -2.9e-4,-0.04169 0,-0.0625 -0.004,-0.239671 0.0196,-0.478496 0.0312,-0.71875 0.0279,-0.574357 0.0961,-1.147156 0.21875,-1.71875 0.11214,-2.204718 1.50991,-3.775885 2.75,-5.40625 0.005,-0.0057 -0.005,-0.02552 0,-0.03125 0.74634,-0.982437 1.42139,-1.978407 1.75,-3.15625 0.0172,-0.097 0.0222,-0.185639 0.0312,-0.28125 -0.0788,-2.036288 -1.73267,-3.994446 -3.96875,-3.96875 z m 22.625003,0 c -2.278125,-0.108452 -3.956762,1.955209 -4.03125,4.03125 -7.5e-4,0.02091 4.24e-4,0.04159 0,0.0625 5.25e-4,0.01036 -6.05e-4,0.0209 0,0.03125 0.05448,0.933028 0.440963,1.827998 1.21875,2.5 2.383673,2.238551 3.538651,5.438429 3.5,8.625 0.03865,3.186571 -1.116327,6.386449 -3.5,8.625 -0.777787,0.672002 -1.164268,1.566972 -1.21875,2.5 -0.0012,0.02026 8.78e-4,0.04222 0,0.0625 2.78e-4,0.0099 -3.5e-4,0.02138 0,0.03125 0.07368,2.076583 1.752537,4.13973 4.03125,4.03125 0.663466,-0.0095 1.328425,-0.173786 1.90625,-0.5 4.006918,-3.232967 6.270978,-8.139681 6.6875,-13.21875 0.0054,-0.08384 0.02688,-0.16609 0.03125,-0.25 0.0079,-0.112752 -0.0061,-0.230878 0,-0.34375 0.01653,-0.308016 0.02836,-0.629048 0.03125,-0.9375 -0.0031,-0.314059 -0.01404,-0.623906 -0.03125,-0.9375 -0.0037,-0.104266 0.0053,-0.208314 0,-0.3125 -0.0051,-0.07334 -0.02535,-0.145468 -0.03125,-0.21875 -0.409828,-5.090037 -2.672451,-10.041722 -6.6875,-13.28125 -0.577825,-0.326214 -1.242784,-0.490486 -1.90625,-0.5 z m -0.03125,1.71875 c 0.319162,-0.0057 0.656163,0.061 0.96875,0.25 3.509561,3.0467 5.422203,7.543123 5.6875,12.125 0.0063,0.09476 0.02641,0.186398 0.03125,0.28125 0.0027,0.06175 -0.002,0.125724 0,0.1875 0.01909,0.464692 0.01542,0.941324 0,1.40625 -0.0022,0.05266 0.0027,0.103612 0,0.15625 -0.0035,0.08461 -0.0266,0.16545 -0.03125,0.25 -0.253228,4.600539 -2.164237,9.097655 -5.6875,12.15625 -1.509405,0.912647 -3.379048,-0.727797 -2.96875,-2.28125 0.02692,-0.256601 0.10441,-0.516002 0.25,-0.75 1.665311,-1.86382 3.257054,-3.928808 3.90625,-6.40625 0.197282,-0.623739 0.339599,-1.23791 0.4375,-1.875 0.0014,-0.01021 -0.0014,-0.02103 0,-0.03125 0.04739,-0.313373 0.100711,-0.622714 0.125,-0.9375 7.4e-4,-0.01045 -7.16e-4,-0.0208 0,-0.03125 0.0228,-0.304828 0.02954,-0.632465 0.03125,-0.9375 -2.2e-5,-0.02097 1.2e-4,-0.04153 0,-0.0625 3.19e-4,-0.304358 -0.01115,-0.602816 -0.03125,-0.90625 -0.0015,-0.02063 0.0016,-0.04187 0,-0.0625 -0.02151,-0.303653 -0.0836,-0.604656 -0.125,-0.90625 -0.003,-0.02013 0.0031,-0.04238 0,-0.0625 -0.09786,-0.626897 -0.243334,-1.261111 -0.4375,-1.875 -0.649196,-2.477442 -2.240939,-4.54243 -3.90625,-6.40625 -0.14559,-0.233998 -0.223081,-0.493399 -0.25,-0.75 -0.325328,-1.231744 0.778011,-2.509549 2,-2.53125 z m -22.437503,0.03125 c 1.23639,0.03882 1.8986,1.23298 1.78125,2.3125 0.0144,0.528447 -0.13846,1.055193 -0.59375,1.4375 -2.64243,2.514375 -4.00115,6.078124 -4.0625,9.65625 -7.1e-4,0.04174 3.7e-4,0.08326 0,0.125 1.2e-4,0.01046 -1.3e-4,0.02079 0,0.03125 -7e-5,0.01046 5e-5,0.02079 0,0.03125 0.054,3.588661 1.41238,7.134559 4.0625,9.65625 0.459,0.385428 0.61158,0.935952 0.59375,1.46875 0.11735,1.07952 -0.54486,2.242434 -1.78125,2.28125 -2.07554,-0.0039 -3.0416,-2.41792 -4.1875,-3.8125 -1.73734,-2.692206 -2.61244,-5.85287 -2.6875,-9.03125 -0.0202,-0.442019 -0.0111,-0.870258 0,-1.3125 0.0793,-3.1694 0.95499,-6.315287 2.6875,-9 1.1459,-1.39458 2.11196,-3.83985 4.1875,-3.84375 z"
       inkscape:connector-curvature="0"
       id="path3767"
       style="font-size:medium;font-style:normal;font-variant:normal;font-weight:normal;font-stretch:normal;text-indent:0;text-align:start;text-decoration:none;line-height:normal;letter-spacing:normal;word-spacing:normal;text-transform:none;direction:ltr;block-progression:tb;writing-mode:lr-tb;text-anchor:start;color:#000000;fill:#ffffff;fill-opacity:1;stroke:none;stroke-width:3.5;marker:none;visibility:visible;display:inline;overflow:visible;enable-background:accumulate;font-family:Abandoned Bitplane;-inkscape-font-specification:Abandoned Bitplane" />
    <path
       d="m -116.84852,14.555085 a 4.0004001,4.0004001 0 0 1 -1.1875,2.375 c -5.02989,5.029897 -7.56212,11.567531 -7.625,18.125 0.29845,-6.220006 2.84978,-12.349781 7.625,-17.125 a 4.0004001,4.0004001 0 0 0 1.1875,-3.375 z m 34.375003,0 a 4.0004001,4.0004001 0 0 0 1.1875,3.375 c 4.775219,4.775219 7.326549,10.904994 7.625,17.125 -0.06287,-6.557469 -2.595103,-13.095103 -7.625,-18.125 a 4.0004001,4.0004001 0 0 1 -1.1875,-2.375 z m -24.531253,10 a 4.0004001,4.0004001 0 0 1 -1.1875,2.375 c -2.4909,2.490901 -3.66952,5.770052 -3.53125,9 0.12059,-2.894895 1.29883,-5.767572 3.53125,-8 a 4.0004001,4.0004001 0 0 0 1.1875,-3.375 z m 14.687503,0.03125 a 4.0004001,4.0004001 0 0 0 1.1875,3.34375 c 2.232428,2.232428 3.410666,5.105105 3.53125,8 0.138277,-3.229948 -1.040349,-6.509099 -3.53125,-9 a 4.0004001,4.0004001 0 0 1 -1.1875,-2.34375 z m -41.343753,11.21875 c -0.12975,8.887012 3.18804,17.813035 9.9375,24.5625 a 4.0216698,4.0216698 0 0 0 6.8125,-3.34375 4.0216698,4.0216698 0 0 1 -6.8125,2.34375 c -6.49486,-6.494861 -9.81264,-15.010725 -9.9375,-23.5625 z m 68.000003,0 c -0.124855,8.551775 -3.442639,17.067639 -9.9375,23.5625 a 4.0216698,4.0216698 0 0 1 -6.84375,-2.28125 4.0216698,4.0216698 0 0 0 6.84375,3.28125 c 6.749465,-6.749465 10.067249,-15.675488 9.9375,-24.5625 z m -54.000003,0.125 c -0.12957,5.290205 1.79849,10.610988 5.8125,14.625 a 4.0004001,4.0004001 0 0 0 6.84375,-3.25 4.0004001,4.0004001 0 0 1 -6.84375,2.25 c -3.76091,-3.760917 -5.68911,-8.668399 -5.8125,-13.625 z m 40.000003,0 c -0.123389,4.956601 -2.051583,9.864083 -5.8125,13.625 a 4.0004001,4.0004001 0 0 1 -6.84375,-2.3125 4.0004001,4.0004001 0 0 0 6.84375,3.3125 c 4.014012,-4.014012 5.942072,-9.334795 5.8125,-14.625 z"
       inkscape:connector-curvature="0"
       id="path3745"
       style="font-size:medium;font-style:normal;font-variant:normal;font-weight:normal;font-stretch:normal;text-indent:0;text-align:start;text-decoration:none;line-height:normal;letter-spacing:normal;word-spacing:normal;text-transform:none;direction:ltr;block-progression:tb;writing-mode:lr-tb;text-anchor:start;color:#000000;fill:#ffffff;fill-opacity:1;stroke:none;stroke-width:3.5;marker:none;visibility:visible;display:inline;overflow:visible;enable-background:accumulate;font-family:Abandoned Bitplane;-inkscape-font-specification:Abandoned Bitplane" />
    <path
       d="m -120.84852,9.9925847 a 4.0004001,4.0004001 0 0 0 -2.875,1.2500003 c -6.74946,6.749465 -10.06725,15.675488 -9.9375,24.5625 0.12486,-8.551775 3.44264,-17.067639 9.9375,-23.5625 a 4.0004001,4.0004001 0 0 1 2.875,-1.25 4.0004001,4.0004001 0 0 1 3.375,1.8125 4.0004001,4.0004001 0 0 1 0.625,1.75 4.0004001,4.0004001 0 0 0 -0.625,-2.75 4.0004001,4.0004001 0 0 0 -3.375,-1.8125003 z m 42.375003,0 a 4.0004001,4.0004001 0 0 0 -3.375,1.8125003 4.0004001,4.0004001 0 0 0 -0.625,2.75 4.0004001,4.0004001 0 0 1 0.625,-1.75 4.0004001,4.0004001 0 0 1 3.375,-1.8125 4.0004001,4.0004001 0 0 1 2.875,1.25 c 6.494861,6.494861 9.812645,15.010725 9.9375,23.5625 0.129749,-8.887012 -3.188035,-17.813035 -9.9375,-24.5625 a 4.0004001,4.0004001 0 0 0 -2.875,-1.2500003 z M -110.94227,20.023835 a 4.0004001,4.0004001 0 0 0 -0.4375,0.03125 4.0004001,4.0004001 0 0 0 -2.46875,1.21875 c -4.01606,4.016067 -5.94426,9.363382 -5.8125,14.65625 0.12147,-4.959349 2.04953,-9.893279 5.8125,-13.65625 a 4.0004001,4.0004001 0 0 1 2.46875,-1.21875 4.0004001,4.0004001 0 0 1 3.28125,1.21875 4.0004001,4.0004001 0 0 1 1.09375,2.28125 4.0004001,4.0004001 0 0 0 -1.09375,-3.28125 4.0004001,4.0004001 0 0 0 -2.84375,-1.25 z m 22.625003,0 a 4.0004001,4.0004001 0 0 0 -0.4375,0.03125 4.0004001,4.0004001 0 0 0 -2.46875,1.21875 4.0004001,4.0004001 0 0 0 -1.09375,3.3125 4.0004001,4.0004001 0 0 1 1.09375,-2.3125 4.0004001,4.0004001 0 0 1 2.46875,-1.21875 4.0004001,4.0004001 0 0 1 3.28125,1.21875 c 3.762971,3.762971 5.691031,8.696901 5.8125,13.65625 0.13176,-5.292868 -1.796434,-10.640183 -5.8125,-14.65625 a 4.0004001,4.0004001 0 0 0 -2.84375,-1.25 z m -23.406253,15.90625 c -0.13435,3.225485 1.04389,6.481385 3.53125,8.96875 a 4.0004001,4.0004001 0 0 1 1.1875,2.40625 4.0004001,4.0004001 0 0 0 -1.1875,-3.40625 c -2.22889,-2.228892 -3.40751,-5.078548 -3.53125,-7.96875 z m 24.125003,0 c -0.123732,2.890202 -1.302357,5.739858 -3.53125,7.96875 a 4.0004001,4.0004001 0 0 0 -1.1875,3.34375 4.0004001,4.0004001 0 0 1 1.1875,-2.34375 c 2.487366,-2.487365 3.665604,-5.743265 3.53125,-8.96875 z m -38.062503,0.625 c 0.0629,6.557469 2.59511,13.095103 7.625,18.125 a 4.0216698,4.0216698 0 0 1 1.125,2.28125 4.0216698,4.0216698 0 0 0 -1.125,-3.28125 c -4.77522,-4.775219 -7.32655,-10.904994 -7.625,-17.125 z m 52.000003,0 c -0.298451,6.220006 -2.849781,12.349781 -7.625,17.125 a 4.0216698,4.0216698 0 0 0 -1.15625,3.40625 4.0216698,4.0216698 0 0 1 1.15625,-2.40625 c 5.029897,-5.029897 7.562126,-11.567531 7.625,-18.125 z"
       inkscape:connector-curvature="0"
       id="path3754"
       style="font-size:medium;font-style:normal;font-variant:normal;font-weight:normal;font-stretch:normal;text-indent:0;text-align:start;text-decoration:none;line-height:normal;letter-spacing:normal;word-spacing:normal;text-transform:none;direction:ltr;block-progression:tb;writing-mode:lr-tb;text-anchor:start;color:#000000;fill:#ffffff;fill-opacity:1;stroke:none;stroke-width:3.5;marker:none;visibility:visible;display:inline;overflow:visible;enable-background:accumulate;font-family:Abandoned Bitplane;-inkscape-font-specification:Abandoned Bitplane" />
    <g
       transform="translate(-147.66102,-5.6949153)"
       style="fill:#ffffff"
       id="layer4">
      <path
         inkscape:connector-curvature="0"
         style="opacity:0.05;color:#000000;fill:#ffffff;fill-opacity:1;fill-rule:nonzero;stroke:none;stroke-width:1;marker:none;visibility:visible;display:inline;overflow:visible;enable-background:accumulate"
         id="path3838"
         d="m 48,31.90625 c -5.545268,0 -10.09375,4.548482 -10.09375,10.09375 0,4.143487 2.558494,7.732127 6.15625,9.28125 C 42.210175,52.566594 40.90625,54.594096 40.90625,57 l 0,20 c 0,3.894112 3.199638,7.09375 7.09375,7.09375 3.894112,0 7.09375,-3.199638 7.09375,-7.09375 l 0,-20 c 0,-2.405904 -1.303925,-4.433406 -3.15625,-5.71875 C 55.535256,49.732127 58.09375,46.143487 58.09375,42 58.09375,36.454732 53.545268,31.90625 48,31.90625 z" />
      <path
         style="opacity:0.1;color:#000000;fill:#ffffff;fill-opacity:1;fill-rule:nonzero;stroke:none;stroke-width:1;marker:none;visibility:visible;display:inline;overflow:visible;enable-background:accumulate"
         id="path3833"
         inkscape:connector-curvature="0"
         d="m 48,33.03125 c -4.930068,0 -8.96875,4.038682 -8.96875,8.96875 0,4.930068 4.038682,8.96875 8.96875,8.96875 4.930068,0 8.96875,-4.038682 8.96875,-8.96875 0,-4.930068 -4.038682,-8.96875 -8.96875,-8.96875 z m 0,18 c -3.277428,0 -5.96875,2.691322 -5.96875,5.96875 l 0,20 c 0,3.277428 2.691322,5.96875 5.96875,5.96875 3.277428,0 5.96875,-2.691322 5.96875,-5.96875 l 0,-20 c 0,-3.277428 -2.691322,-5.96875 -5.96875,-5.96875 z" />
      <path
         inkscape:connector-curvature="0"
         style="opacity:0.15;color:#000000;fill:#ffffff;fill-opacity:1;fill-rule:nonzero;stroke:none;stroke-width:1;marker:none;visibility:visible;display:inline;overflow:visible;enable-background:accumulate"
         id="path3829"
         d="m 48,34.0625 c -4.369998,0 -7.9375,3.567502 -7.9375,7.9375 0,4.369998 3.567502,7.9375 7.9375,7.9375 4.369998,0 7.9375,-3.567502 7.9375,-7.9375 0,-4.369998 -3.567502,-7.9375 -7.9375,-7.9375 z m 0,18 c -2.71652,0 -4.9375,2.22098 -4.9375,4.9375 l 0,20 c 0,2.71652 2.22098,4.9375 4.9375,4.9375 2.71652,0 4.9375,-2.22098 4.9375,-4.9375 l 0,-20 c 0,-2.71652 -2.22098,-4.9375 -4.9375,-4.9375 z" />
      <path
         style="opacity:0.3;color:#000000;fill:#ffffff;fill-opacity:1;fill-rule:nonzero;stroke:none;stroke-width:1;marker:none;visibility:visible;display:inline;overflow:visible;enable-background:accumulate"
         id="rect3816"
         inkscape:connector-curvature="0"
         d="m 48,35 c -3.865993,0 -7,3.134007 -7,7 0,3.865993 3.134007,7 7,7 3.865993,0 7,-3.134007 7,-7 0,-3.865993 -3.134007,-7 -7,-7 z m 0,18 c -2.216,0 -4,1.784 -4,4 l 0,20 c 0,2.216 1.784,4 4,4 2.216,0 4,-1.784 4,-4 l 0,-20 c 0,-2.216 -1.784,-4 -4,-4 z" />
      <rect
         style="color:#000000;fill:#ffffff;fill-opacity:1;fill-rule:nonzero;stroke:none;stroke-width:1;marker:none;visibility:visible;display:inline;overflow:visible;enable-background:accumulate"
         id="rect3661"
         y="52"
         x="44"
         ry="4"
         rx="4"
         height="28.000004"
         width="7.9999986" />
      <path
         inkscape:connector-curvature="0"
         style="color:#000000;fill:#ffffff;fill-opacity:1;fill-rule:nonzero;stroke:none;stroke-width:1;marker:none;visibility:visible;display:inline;overflow:visible;enable-background:accumulate"
         id="path3663"
         d="m 55,41 a 7,7 0 1 1 -14,0 7,7 0 1 1 14,0 z" />
      <path
         style="opacity:0.2;color:#000000;fill:#ffffff;fill-opacity:1;fill-rule:nonzero;stroke:none;stroke-width:1;marker:none;visibility:visible;display:inline;overflow:visible;enable-background:accumulate"
         id="rect3807"
         inkscape:connector-curvature="0"
         d="m 44,75 0,1 c 0,2.216 1.784,4 4,4 2.216,0 4,-1.784 4,-4 l 0,-1 c 0,2.216 -1.784,4 -4,4 -2.216,0 -4,-1.784 -4,-4 z" />
      <path
         style="opacity:0.6;color:#000000;fill:#ffffff;fill-opacity:1;fill-rule:nonzero;stroke:none;stroke-width:1;marker:none;visibility:visible;display:inline;overflow:visible;enable-background:accumulate"
         id="rect3844"
         inkscape:connector-curvature="0"
         d="m 48,52 c -2.216,0 -4,1.784 -4,4 l 0,20 c 0,2.216 1.784,4 4,4 2.216,0 4,-1.784 4,-4 l 0,-20 c 0,-2.216 -1.784,-4 -4,-4 z m 0,1 c 1.674207,0 3,1.325793 3,3 l 0,20 c 0,1.674207 -1.325793,3 -3,3 -1.674207,0 -3,-1.325793 -3,-3 l 0,-20 c 0,-1.674207 1.325793,-3 3,-3 z" />
      <path
         style="opacity:0.3;color:#000000;fill:#ffffff;fill-opacity:1;fill-rule:nonzero;stroke:none;stroke-width:1;marker:none;visibility:visible;display:inline;overflow:visible;enable-background:accumulate"
         id="path3868"
         inkscape:connector-curvature="0"
         d="M 42.03125,40.625 C 42.023779,40.747591 42,40.875529 42,41 c 0,3.313709 2.686291,6 6,6 3.313709,0 6,-2.686291 6,-6 0,-0.124471 -0.02378,-0.252409 -0.03125,-0.375 C 53.66149,43.650536 51.106602,46 48,46 44.893398,46 42.33851,43.650536 42.03125,40.625 z" />
      <path
         inkscape:connector-curvature="0"
         style="color:#000000;fill:#ffffff;fill-opacity:1;fill-rule:nonzero;stroke:none;stroke-width:1;marker:none;visibility:visible;display:inline;overflow:visible;enable-background:accumulate"
         id="path3893"
         transform="matrix(0.71428569,0,0,0.5,13.714287,18)"
         d="m 55,41 a 7,7 0 1 1 -14,0 7,7 0 1 1 14,0 z" />
    </g>
  </g>
</svg>
