<?xml version="1.0" encoding="UTF-8" standalone="no"?>
<!-- Created with Inkscape (http://www.inkscape.org/) -->

<svg
   xmlns:dc="http://purl.org/dc/elements/1.1/"
   xmlns:cc="http://creativecommons.org/ns#"
   xmlns:rdf="http://www.w3.org/1999/02/22-rdf-syntax-ns#"
   xmlns:svg="http://www.w3.org/2000/svg"
   xmlns="http://www.w3.org/2000/svg"
   xmlns:xlink="http://www.w3.org/1999/xlink"
   xmlns:sodipodi="http://sodipodi.sourceforge.net/DTD/sodipodi-0.dtd"
   xmlns:inkscape="http://www.inkscape.org/namespaces/inkscape"
   version="1.0"
   width="96"
   height="96"
   id="svg2408"
   inkscape:version="0.48.4 r9939"
   sodipodi:docname="shutter.svg">
  <sodipodi:namedview
     pagecolor="#ffffff"
     bordercolor="#666666"
     borderopacity="1"
     objecttolerance="10"
     gridtolerance="10"
     guidetolerance="10"
     inkscape:pageopacity="0"
     inkscape:pageshadow="2"
     inkscape:window-width="1366"
     inkscape:window-height="691"
     id="namedview143"
     showgrid="false"
     inkscape:zoom="2.4583333"
     inkscape:cx="47.999999"
     inkscape:cy="47.999999"
     inkscape:window-x="0"
     inkscape:window-y="24"
     inkscape:window-maximized="1"
     inkscape:current-layer="svg2408" />
  <defs
     id="defs2410">
    <linearGradient
       id="linearGradient4068">
      <stop
         id="stop4070"
         style="stop-color:#45a4d4;stop-opacity:1"
         offset="0" />
      <stop
         id="stop4072"
         style="stop-color:#94c8e0;stop-opacity:1"
         offset="1" />
    </linearGradient>
    <linearGradient
       x1="45.447727"
       y1="92.539597"
       x2="45.447727"
       y2="7.0165396"
       id="ButtonShadow"
       gradientUnits="userSpaceOnUse"
       gradientTransform="scale(1.0058652,0.994169)">
      <stop
         id="stop3750"
         style="stop-color:#000000;stop-opacity:1"
         offset="0" />
      <stop
         id="stop3752"
         style="stop-color:#000000;stop-opacity:0.58823532"
         offset="1" />
    </linearGradient>
    <linearGradient
       id="linearGradient3737">
      <stop
         id="stop3739"
         style="stop-color:#ffffff;stop-opacity:1"
         offset="0" />
      <stop
         id="stop3741"
         style="stop-color:#ffffff;stop-opacity:0"
         offset="1" />
    </linearGradient>
    <filter
       color-interpolation-filters="sRGB"
       id="filter3174">
      <feGaussianBlur
         id="feGaussianBlur3176"
         stdDeviation="1.71" />
    </filter>
    <linearGradient
       x1="36.357143"
       y1="6"
       x2="36.357143"
       y2="63.893143"
       id="linearGradient3188"
       xlink:href="#linearGradient3737"
       gradientUnits="userSpaceOnUse" />
    <filter
       x="-0.192"
       y="-0.192"
       width="1.3839999"
       height="1.3839999"
       color-interpolation-filters="sRGB"
       id="filter3794">
      <feGaussianBlur
         id="feGaussianBlur3796"
         stdDeviation="5.28" />
    </filter>
    <linearGradient
       x1="48"
       y1="20.220806"
       x2="48"
       y2="138.66119"
       id="linearGradient3613"
       xlink:href="#linearGradient3737"
       gradientUnits="userSpaceOnUse" />
    <radialGradient
       cx="48"
       cy="90.171875"
       r="42"
       fx="48"
       fy="90.171875"
       id="radialGradient3619"
       xlink:href="#linearGradient3737"
       gradientUnits="userSpaceOnUse"
       gradientTransform="matrix(1.1573129,0,0,0.99590774,-7.5510206,0.19713193)" />
    <clipPath
       id="clipPath3613">
      <rect
         width="84"
         height="84"
         rx="6"
         ry="6"
         x="6"
         y="6"
         id="rect3615"
         style="fill:#ffffff;fill-opacity:1;fill-rule:nonzero;stroke:none" />
    </clipPath>
    <linearGradient
       x1="48"
       y1="90"
       x2="48"
       y2="5.9877172"
       id="linearGradient3617"
       xlink:href="#linearGradient4068"
       gradientUnits="userSpaceOnUse" />
    <linearGradient
       x1="45.447727"
       y1="92.539597"
       x2="45.447727"
       y2="7.0165396"
       id="ButtonShadow-0"
       gradientUnits="userSpaceOnUse"
       gradientTransform="matrix(1.0058652,0,0,0.994169,100,0)">
      <stop
         id="stop3750-8"
         style="stop-color:#000000;stop-opacity:1"
         offset="0" />
      <stop
         id="stop3752-5"
         style="stop-color:#000000;stop-opacity:0.58823532"
         offset="1" />
    </linearGradient>
    <linearGradient
       x1="32.251034"
       y1="6.1317081"
       x2="32.251034"
       y2="90.238609"
       id="linearGradient3780"
       xlink:href="#ButtonShadow-0"
       gradientUnits="userSpaceOnUse"
       gradientTransform="matrix(1.0238095,0,0,1.0119048,-1.1428571,-98.071429)" />
    <linearGradient
       x1="32.251034"
       y1="6.1317081"
       x2="32.251034"
       y2="90.238609"
       id="linearGradient3772"
       xlink:href="#ButtonShadow-0"
       gradientUnits="userSpaceOnUse"
       gradientTransform="matrix(1.0238095,0,0,1.0119048,-1.1428571,-98.071429)" />
    <linearGradient
       x1="32.251034"
       y1="6.1317081"
       x2="32.251034"
       y2="90.238609"
       id="linearGradient3725"
       xlink:href="#ButtonShadow-0"
       gradientUnits="userSpaceOnUse"
       gradientTransform="matrix(1.0238095,0,0,1.0119048,-1.1428571,-98.071429)" />
    <linearGradient
       x1="32.251034"
       y1="6.1317081"
       x2="32.251034"
       y2="90.238609"
       id="linearGradient3721"
       xlink:href="#ButtonShadow-0"
       gradientUnits="userSpaceOnUse"
       gradientTransform="translate(0,-97)" />
    <linearGradient
       x1="32.251034"
       y1="6.1317081"
       x2="32.251034"
       y2="90.238609"
       id="linearGradient3026"
       xlink:href="#ButtonShadow-0"
       gradientUnits="userSpaceOnUse"
       gradientTransform="matrix(1.0238095,0,0,1.0119048,-1.1428571,-98.071429)" />
    <radialGradient
       cx="353.6283"
       cy="241.04938"
       r="220.11942"
       fx="353.6283"
       fy="241.04938"
       id="radialGradient2625"
       xlink:href="#linearGradient6793"
       gradientUnits="userSpaceOnUse"
       gradientTransform="matrix(-1,0,0,0.9878188,582.03434,46.933265)" />
    <radialGradient
       cx="353.6283"
       cy="241.04938"
       r="220.11942"
       fx="353.6283"
       fy="241.04938"
       id="radialGradient2623"
       xlink:href="#linearGradient6793"
       gradientUnits="userSpaceOnUse"
       gradientTransform="matrix(-1,0,0,0.9878188,582.03434,46.933265)" />
    <radialGradient
       cx="353.6283"
       cy="241.04938"
       r="220.11942"
       fx="353.6283"
       fy="241.04938"
       id="radialGradient2621"
       xlink:href="#linearGradient6793"
       gradientUnits="userSpaceOnUse"
       gradientTransform="matrix(-1,0,0,0.9878188,582.03434,46.933265)" />
    <radialGradient
       cx="353.6283"
       cy="241.04938"
       r="220.11942"
       fx="353.6283"
       fy="241.04938"
       id="radialGradient2619"
       xlink:href="#linearGradient6793"
       gradientUnits="userSpaceOnUse"
       gradientTransform="matrix(-1,0,0,0.9878188,582.03434,46.933265)" />
    <radialGradient
       cx="353.6283"
       cy="241.04938"
       r="220.11942"
       fx="353.6283"
       fy="241.04938"
       id="radialGradient2617"
       xlink:href="#linearGradient6793"
       gradientUnits="userSpaceOnUse"
       gradientTransform="matrix(-0.999176,-0.04058612,-0.04009174,0.9870049,587.79647,48.361326)" />
    <radialGradient
       cx="353.6283"
       cy="241.04938"
       r="220.11942"
       fx="353.6283"
       fy="241.04938"
       id="radialGradient2615"
       xlink:href="#linearGradient6793"
       gradientUnits="userSpaceOnUse"
       gradientTransform="matrix(-1,0,0,0.9878188,582.03434,46.933265)" />
    <radialGradient
       cx="353.6283"
       cy="241.04938"
       r="220.11942"
       fx="353.6283"
       fy="241.04938"
       id="radialGradient2613"
       xlink:href="#linearGradient6793"
       gradientUnits="userSpaceOnUse"
       gradientTransform="matrix(-1,0,0,0.9878188,582.03434,46.933265)" />
    <radialGradient
       cx="353.6283"
       cy="241.04938"
       r="220.11942"
       fx="353.6283"
       fy="241.04938"
       id="radialGradient2611"
       xlink:href="#linearGradient6793"
       gradientUnits="userSpaceOnUse"
       gradientTransform="matrix(-1,0,0,0.9878188,582.03434,46.933265)" />
    <radialGradient
       cx="353.6283"
       cy="241.04938"
       r="220.11942"
       fx="353.6283"
       fy="241.04938"
       id="radialGradient2609"
       xlink:href="#linearGradient6793"
       gradientUnits="userSpaceOnUse"
       gradientTransform="matrix(-0.999176,-0.04058612,-0.04009174,0.9870049,587.79647,48.361326)" />
    <radialGradient
       cx="353.6283"
       cy="241.04938"
       r="220.11942"
       fx="353.6283"
       fy="241.04938"
       id="radialGradient2607"
       xlink:href="#linearGradient6793"
       gradientUnits="userSpaceOnUse"
       gradientTransform="matrix(-1,0,0,0.9878188,582.03434,46.933265)" />
    <filter
       x="-0.11224329"
       y="-0.079873785"
       width="1.2244866"
       height="1.1597476"
       color-interpolation-filters="sRGB"
       id="filter4009">
      <feGaussianBlur
         stdDeviation="6.7803529"
         id="feGaussianBlur4011" />
    </filter>
    <filter
       x="-0.12232576"
       y="-0.076450996"
       width="1.2446516"
       height="1.152902"
       color-interpolation-filters="sRGB"
       id="filter4005">
      <feGaussianBlur
         stdDeviation="6.7803529"
         id="feGaussianBlur4007" />
    </filter>
    <filter
       x="-0.07492853"
       y="-0.12866202"
       width="1.149857"
       height="1.257324"
       color-interpolation-filters="sRGB"
       id="filter4001">
      <feGaussianBlur
         stdDeviation="6.7803529"
         id="feGaussianBlur4003" />
    </filter>
    <filter
       x="-0.081570871"
       y="-0.11038305"
       width="1.1631417"
       height="1.2207661"
       color-interpolation-filters="sRGB"
       id="filter3997">
      <feGaussianBlur
         stdDeviation="6.7803529"
         id="feGaussianBlur3999" />
    </filter>
    <filter
       x="-0.1490933"
       y="-0.072374105"
       width="1.2981865"
       height="1.1447482"
       color-interpolation-filters="sRGB"
       id="filter3993">
      <feGaussianBlur
         stdDeviation="6.7803529"
         id="feGaussianBlur3995" />
    </filter>
    <filter
       color-interpolation-filters="sRGB"
       id="filter3989">
      <feGaussianBlur
         stdDeviation="6.7803529"
         id="feGaussianBlur3991" />
    </filter>
    <filter
       x="-0.071800567"
       y="-0.15538733"
       width="1.1436011"
       height="1.3107746"
       color-interpolation-filters="sRGB"
       id="filter3985">
      <feGaussianBlur
         stdDeviation="6.7803529"
         id="feGaussianBlur3987" />
    </filter>
    <filter
       color-interpolation-filters="sRGB"
       id="filter3383">
      <feBlend
         in2="BackgroundImage"
         mode="multiply"
         id="feBlend3385" />
    </filter>
    <linearGradient
       id="linearGradient6793">
      <stop
         id="stop6795"
         style="stop-color:#44b5e8;stop-opacity:1"
         offset="0" />
      <stop
         id="stop6797"
         style="stop-color:#116b98;stop-opacity:1"
         offset="1" />
    </linearGradient>
    <radialGradient
       cx="353.6283"
       cy="241.04938"
       r="220.11942"
       fx="353.6283"
       fy="241.04938"
       id="radialGradient4075"
       xlink:href="#linearGradient6793"
       gradientUnits="userSpaceOnUse"
       gradientTransform="matrix(-0.14010564,0,0,0.13702439,96.633969,20.542549)" />
    <radialGradient
       cx="353.6283"
       cy="241.04938"
       r="220.11942"
       fx="353.6283"
       fy="241.04938"
       id="radialGradient4078"
       xlink:href="#linearGradient6793"
       gradientUnits="userSpaceOnUse"
       gradientTransform="matrix(-0.14010564,0,0,0.13702439,96.633969,20.542549)" />
    <radialGradient
       cx="353.6283"
       cy="241.04938"
       r="220.11942"
       fx="353.6283"
       fy="241.04938"
       id="radialGradient4081"
       xlink:href="#linearGradient6793"
       gradientUnits="userSpaceOnUse"
       gradientTransform="matrix(-0.14010564,0,0,0.13702439,96.633969,20.542549)" />
    <radialGradient
       cx="353.6283"
       cy="241.04938"
       r="220.11942"
       fx="353.6283"
       fy="241.04938"
       id="radialGradient4086"
       xlink:href="#linearGradient6793"
       gradientUnits="userSpaceOnUse"
       gradientTransform="matrix(-0.13999019,-0.00562986,-0.00561708,0.1369115,97.441273,20.740641)" />
    <radialGradient
       cx="353.6283"
       cy="241.04938"
       r="220.11942"
       fx="353.6283"
       fy="241.04938"
       id="radialGradient4089"
       xlink:href="#linearGradient6793"
       gradientUnits="userSpaceOnUse"
       gradientTransform="matrix(-0.14010564,0,0,0.13702439,96.633969,20.542549)" />
    <radialGradient
       cx="353.6283"
       cy="241.04938"
       r="220.11942"
       fx="353.6283"
       fy="241.04938"
       id="radialGradient4105"
       xlink:href="#linearGradient6793"
       gradientUnits="userSpaceOnUse"
       gradientTransform="matrix(-0.14010564,0,0,0.13702439,186.63397,20.542549)" />
    <radialGradient
       cx="353.6283"
       cy="241.04938"
       r="220.11942"
       fx="353.6283"
       fy="241.04938"
       id="radialGradient4107"
       xlink:href="#linearGradient6793"
       gradientUnits="userSpaceOnUse"
       gradientTransform="matrix(-0.13999019,-0.00562986,-0.00561708,0.1369115,187.44127,20.740641)" />
    <radialGradient
       cx="353.6283"
       cy="241.04938"
       r="220.11942"
       fx="353.6283"
       fy="241.04938"
       id="radialGradient4109"
       xlink:href="#linearGradient6793"
       gradientUnits="userSpaceOnUse"
       gradientTransform="matrix(-0.14010564,0,0,0.13702439,186.63397,20.542549)" />
    <radialGradient
       cx="353.6283"
       cy="241.04938"
       r="220.11942"
       fx="353.6283"
       fy="241.04938"
       id="radialGradient4111"
       xlink:href="#linearGradient6793"
       gradientUnits="userSpaceOnUse"
       gradientTransform="matrix(-0.14010564,0,0,0.13702439,186.63397,20.542549)" />
    <radialGradient
       cx="353.6283"
       cy="241.04938"
       r="220.11942"
       fx="353.6283"
       fy="241.04938"
       id="radialGradient4113"
       xlink:href="#linearGradient6793"
       gradientUnits="userSpaceOnUse"
       gradientTransform="matrix(-0.14010564,0,0,0.13702439,186.63397,20.542549)" />
    <radialGradient
       cx="353.6283"
       cy="241.04938"
       r="220.11942"
       fx="353.6283"
       fy="241.04938"
       id="radialGradient4128"
       xlink:href="#linearGradient6793"
       gradientUnits="userSpaceOnUse"
       gradientTransform="matrix(-0.14010564,0,0,0.13702439,96.633969,110.54255)" />
    <clipPath
       id="clipPath4136">
      <path
         d="m 69.59375,-44 c -9.3899,0.107682 -23.87987,2.6857 -28.40625,8.03125 -3.614707,5.19851 -4.058095,25.56562 -3.125,24.3125 7.690474,-10.32808 26.131922,-23.08265 37.125,-28.21875 5.944988,-2.777574 1.709505,-4.208752 -5.59375,-4.125 z m -9.0625,16.84375 c -6.358079,0.45418 -17.54026,11.14799 -15.96875,11.09375 12.998614,-0.44859 21.139031,0.31977 31.28125,3.4375 1.501742,0.46164 -1.635623,-13.48623 -15.3125,-14.53125 z M 53.6875,-16 c -0.335662,0.0171 -0.487336,0.12156 -0.375,0.28125 C 60.745916,-5.15172 64.517184,1.9985 67.375,12.125 67.798153,13.62441 77.940461,3.47276 71.40625,-8.46875 68.050526,-12.87991 56.037137,-16.1197 53.6875,-16 z m 3.84375,8.46875 c -0.07395,-0.0188 -0.13144,0.0309 -0.15625,0.125 -3.283392,12.46026 -6.331882,19.9571 -12.25,28.6875 -0.876283,1.2927 13.514543,2.30156 18.4375,-10.375 1.292639,-5.77676 -4.922018,-18.15493 -6.03125,-18.4375 z m -3.625,7.96875 c -0.03023,-0.007 -0.04942,0.0103 -0.09375,0.0312 -11.733345,5.55657 -19.475906,8.09299 -30.03125,9.25 -1.562909,0.17132 6.916816,11.70602 19.875,7.25 5.467993,-2.84143 11.187041,-16.30416 10.25,-16.53125 z"
         inkscape:connector-curvature="0"
         id="path4138"
         style="fill:#ff0000;fill-opacity:1;fill-rule:nonzero;stroke:none;stroke-width:1;marker-mid:none" />
    </clipPath>
    <filter
       color-interpolation-filters="sRGB"
       id="filter4144">
      <feGaussianBlur
         id="feGaussianBlur4146"
         stdDeviation="1.2041748" />
    </filter>
  </defs>
  <metadata
     id="metadata2413">
    <rdf:RDF>
      <cc:Work
         rdf:about="">
        <dc:format>image/svg+xml</dc:format>
        <dc:type
           rdf:resource="http://purl.org/dc/dcmitype/StillImage" />
        <dc:title />
      </cc:Work>
    </rdf:RDF>
  </metadata>
  <g
     id="layer2"
     style="display:none">
    <rect
       width="86"
       height="85"
       rx="6"
       ry="6"
       x="5"
       y="7"
       id="rect3745"
       style="opacity:0.9;fill:url(#ButtonShadow);fill-opacity:1;fill-rule:nonzero;stroke:none;filter:url(#filter3174)" />
  </g>
  <path
     style="fill:#dbdbdb;fill-opacity:1;fill-rule:nonzero;stroke:none;stroke-width:25;marker-mid:none;display:none;filter:url(#filter3985);enable-background:new"
     id="path3095"
     transform="matrix(0.17756176,0,0,0.17756176,3.02459,8.9267243)"
     inkscape:connector-curvature="0"
     d="m 324.38759,135.62452 c -45.38059,3.2742 -125.14974,80.45343 -113.93317,80.06244 92.77726,-3.23392 150.72813,2.10512 223.11793,24.5811 10.71863,3.32799 -11.56647,-97.10992 -109.18476,-104.64354 z" />
  <path
     style="fill:#dbdbdb;fill-opacity:1;fill-rule:nonzero;stroke:#000000;stroke-width:0;stroke-linecap:butt;stroke-linejoin:round;stroke-miterlimit:4;stroke-opacity:1;stroke-dasharray:none;stroke-dashoffset:1;marker-mid:none;display:none;filter:url(#filter3989);enable-background:new"
     id="path3097"
     transform="matrix(0.17756176,0,0,0.17756176,3.02459,8.9267243)"
     inkscape:connector-curvature="0"
     d="M 186.37822,72.150309 C 160.57833,109.62675 157.33905,256.29261 163.99898,247.2588 218.88951,172.80293 350.45207,80.852043 428.9148,43.825512 525.90264,-1.943011 243.81268,3.6410539 186.37822,72.150309 z" />
  <path
     style="fill:#dbdbdb;fill-opacity:1;fill-rule:nonzero;stroke:none;stroke-width:25;marker-mid:none;display:none;filter:url(#filter3993);enable-background:new"
     id="path3099"
     transform="matrix(0.17756176,0,0,0.17756176,3.02459,8.9267243)"
     inkscape:connector-curvature="0"
     d="M 69.5521,231.67976 C 84.41923,274.68075 179.56014,331.84683 176.28962,321.11052 149.23774,232.30583 139.45061,174.93843 142.49683,99.2009 142.94789,87.986573 51.65499,135.42084 69.5521,231.67976 z" />
  <path
     style="fill:#dbdbdb;fill-opacity:1;fill-rule:nonzero;stroke:none;stroke-width:25;marker-mid:none;display:none;filter:url(#filter3997);enable-background:new"
     id="path3101"
     transform="matrix(0.17756176,0,0,0.17756176,3.02459,8.9267243)"
     inkscape:connector-curvature="0"
     d="m 81.97729,372.8505 c 42.13653,17.1648 147.83895,-16.69886 137.60948,-21.31646 -84.61255,-38.1942 -134.204,-68.649 -189.1504,-120.86343 -8.1358,-7.73129 -32.64264,92.18775 51.54092,142.17989 z" />
  <path
     style="fill:#dbdbdb;fill-opacity:1;fill-rule:nonzero;stroke:none;stroke-width:25;marker-mid:none;display:none;filter:url(#filter4001);enable-background:new"
     id="path3103"
     transform="matrix(0.17756176,0,0,0.17756176,3.02459,8.9267243)"
     inkscape:connector-curvature="0"
     d="m 203.88504,453.62703 c 40.28664,-21.14484 82.54559,-123.77977 72.42084,-118.93689 -83.74641,40.05772 -138.99861,58.33341 -214.33707,66.67436 -11.15521,1.23503 49.42757,84.38627 141.91623,52.26253 z" />
  <path
     style="fill:#dbdbdb;fill-opacity:1;fill-rule:nonzero;stroke:none;stroke-width:25;marker-mid:none;display:none;filter:url(#filter4005);enable-background:new"
     id="path3105"
     transform="matrix(0.17756176,0,0,0.17756176,3.02459,8.9267243)"
     inkscape:connector-curvature="0"
     d="m 345.96158,410.03296 c 9.84126,-44.42146 -41.30053,-142.93171 -44.13379,-132.07183 -23.43513,89.82691 -45.12493,143.83025 -87.36533,206.76832 -6.25446,9.31914 96.3617,16.68976 131.49912,-74.69649 z" />
  <path
     style="fill:#dbdbdb;fill-opacity:1;fill-rule:nonzero;stroke:none;stroke-width:25;marker-mid:none;display:none;filter:url(#filter4009);enable-background:new"
     id="path3107"
     transform="matrix(0.17756176,0,0,0.17756176,3.02459,8.9267243)"
     inkscape:connector-curvature="0"
     d="M 401.89383,270.24178 C 374.5208,233.89852 266.4087,208.76833 272.82303,217.97814 c 53.05584,76.17847 80.01415,127.7542 100.41172,200.75689 3.02024,10.80938 75.29683,-62.40604 28.65908,-148.49325 z" />
  <rect
     style="fill:#007caa;fill-opacity:1;stroke:none"
     id="rect3194"
     width="96"
     height="96"
     x="0"
     y="-2.9976022e-15" />
  <path
     style="fill:#007caa;fill-opacity:1;fill-rule:nonzero;stroke:#ffffff;stroke-width:1.2;stroke-miterlimit:4;stroke-opacity:1;stroke-dasharray:none;marker-mid:none"
     id="path4091"
     inkscape:connector-curvature="0"
     d="m 61.451465,32.438497 c -6.35808,0.454178 -17.53419,11.160026 -15.96268,11.10579 12.99861,-0.448591 21.11786,0.29201 31.26008,3.409745 1.50174,0.461639 -1.62053,-13.470515 -15.2974,-14.515535 z" />
  <path
     style="fill:#007caa;fill-opacity:1;fill-rule:nonzero;stroke:#ffffff;stroke-width:1.2;stroke-linecap:butt;stroke-linejoin:round;stroke-miterlimit:4;stroke-opacity:1;stroke-dasharray:none;stroke-dashoffset:1;marker-mid:none"
     id="path4093"
     inkscape:connector-curvature="0"
     d="m 42.115565,23.63373 c -3.6147,5.19851 -4.06854,25.543133 -3.13545,24.290016 7.69047,-10.328079 26.12312,-23.082963 37.1162,-28.219065 13.58854,-6.34874 -25.93385,-5.574151 -33.98075,3.929049 z" />
  <path
     style="fill:#ffffff;fill-opacity:1;fill-rule:nonzero;stroke:none;stroke-width:25;marker-mid:none"
     id="path4095"
     inkscape:connector-curvature="0"
     d="m 25.747565,45.762714 c 2.08297,5.964843 15.41275,13.894584 14.95453,12.405307 -3.79012,-12.318463 -5.16135,-20.27613 -4.73455,-30.781993 0.0632,-1.555585 -12.72746,5.024216 -10.21998,18.376686 z" />
  <path
     style="fill:#ffffff;fill-opacity:1;fill-rule:nonzero;stroke:none;stroke-width:25;marker-mid:none"
     id="path4097"
     inkscape:connector-curvature="0"
     d="m 27.488415,65.345086 c 5.90356,2.380999 20.71306,-2.316368 19.27986,-2.956894 -11.8547,-5.298074 -18.80274,-9.522584 -26.50104,-16.765462 -1.13987,-1.072439 -4.57342,12.787741 7.22118,19.722356 z" />
  <path
     style="fill:#007caa;fill-opacity:1;fill-rule:nonzero;stroke:#ffffff;stroke-width:1.2;stroke-miterlimit:4;stroke-opacity:1;stroke-dasharray:none;marker-mid:none"
     id="path4099"
     inkscape:connector-curvature="0"
     d="m 44.568375,76.549929 c 5.64438,-2.933087 11.5651,-17.169999 10.14657,-16.498223 -11.73335,5.55657 -19.47449,8.091666 -30.02983,9.248674 -1.56291,0.171315 6.92508,11.705564 19.88326,7.249549 z" />
  <path
     style="fill:#007caa;fill-opacity:1;fill-rule:nonzero;stroke:#ffffff;stroke-width:1.2;stroke-miterlimit:4;stroke-opacity:1;stroke-dasharray:none;marker-mid:none"
     id="path4101"
     inkscape:connector-curvature="0"
     d="m 64.474105,70.502817 c 1.37881,-6.161883 -5.78644,-19.826643 -6.1834,-18.320225 -3.28339,12.460259 -6.32226,19.951284 -12.24037,28.681681 -0.87629,1.292696 13.50081,2.315105 18.42377,-10.361456 z" />
  <path
     style="fill:#007caa;fill-opacity:1;fill-rule:nonzero;stroke:#ffffff;stroke-width:1.2;stroke-miterlimit:4;stroke-opacity:1;stroke-dasharray:none;marker-mid:none"
     id="path4103"
     inkscape:connector-curvature="0"
     d="m 72.310515,51.11181 c -3.83511,-5.041323 -18.98222,-8.527235 -18.08354,-7.249704 7.43342,10.567027 11.21043,17.721309 14.06825,27.847811 0.42315,1.499413 10.5495,-8.656598 4.01529,-20.598107 z" />
</svg>
