<?xml version="1.0" encoding="UTF-8" standalone="no"?>
<!-- Created with Inkscape (http://www.inkscape.org/) -->

<svg
   xmlns:dc="http://purl.org/dc/elements/1.1/"
   xmlns:cc="http://creativecommons.org/ns#"
   xmlns:rdf="http://www.w3.org/1999/02/22-rdf-syntax-ns#"
   xmlns:svg="http://www.w3.org/2000/svg"
   xmlns="http://www.w3.org/2000/svg"
   xmlns:xlink="http://www.w3.org/1999/xlink"
   xmlns:sodipodi="http://sodipodi.sourceforge.net/DTD/sodipodi-0.dtd"
   xmlns:inkscape="http://www.inkscape.org/namespaces/inkscape"
   version="1.0"
   width="96"
   height="96"
   id="svg2408"
   inkscape:version="0.48.4 r9939"
   sodipodi:docname="ubuntu-tweak.svg">
  <sodipodi:namedview
     pagecolor="#ffffff"
     bordercolor="#666666"
     borderopacity="1"
     objecttolerance="10"
     gridtolerance="10"
     guidetolerance="10"
     inkscape:pageopacity="0"
     inkscape:pageshadow="2"
     inkscape:window-width="1068"
     inkscape:window-height="663"
     id="namedview64"
     showgrid="false"
     inkscape:zoom="2.4583333"
     inkscape:cx="48"
     inkscape:cy="48"
     inkscape:window-x="41"
     inkscape:window-y="30"
     inkscape:window-maximized="0"
     inkscape:current-layer="svg2408" />
  <defs
     id="defs2410">
    <linearGradient
       id="linearGradient3767">
      <stop
         id="stop3769"
         style="stop-color:#6bd107;stop-opacity:1"
         offset="0" />
      <stop
         id="stop3771"
         style="stop-color:#6bd107;stop-opacity:0"
         offset="1" />
    </linearGradient>
    <linearGradient
       id="linearGradient3703">
      <stop
         id="stop3705"
         style="stop-color:#a8e66c;stop-opacity:1"
         offset="0" />
      <stop
         id="stop3707"
         style="stop-color:#dbfabd;stop-opacity:1"
         offset="1" />
    </linearGradient>
    <linearGradient
       id="linearGradient3676">
      <stop
         id="stop3678"
         style="stop-color:#68d003;stop-opacity:1"
         offset="0" />
      <stop
         id="stop3680"
         style="stop-color:#c0f988;stop-opacity:1"
         offset="1" />
    </linearGradient>
    <linearGradient
       x1="45.447727"
       y1="92.539597"
       x2="45.447727"
       y2="7.0165396"
       id="ButtonShadow"
       gradientUnits="userSpaceOnUse"
       gradientTransform="scale(1.0058652,0.994169)">
      <stop
         id="stop3750"
         style="stop-color:#000000;stop-opacity:1"
         offset="0" />
      <stop
         id="stop3752"
         style="stop-color:#000000;stop-opacity:0.58823532"
         offset="1" />
    </linearGradient>
    <linearGradient
       id="linearGradient3737">
      <stop
         id="stop3739"
         style="stop-color:#ffffff;stop-opacity:1"
         offset="0" />
      <stop
         id="stop3741"
         style="stop-color:#ffffff;stop-opacity:0"
         offset="1" />
    </linearGradient>
    <filter
       color-interpolation-filters="sRGB"
       id="filter3174">
      <feGaussianBlur
         id="feGaussianBlur3176"
         stdDeviation="1.71" />
    </filter>
    <linearGradient
       x1="36.357143"
       y1="6"
       x2="36.357143"
       y2="63.893143"
       id="linearGradient3188"
       xlink:href="#linearGradient3737"
       gradientUnits="userSpaceOnUse" />
    <filter
       x="-0.192"
       y="-0.192"
       width="1.3839999"
       height="1.3839999"
       color-interpolation-filters="sRGB"
       id="filter3794">
      <feGaussianBlur
         id="feGaussianBlur3796"
         stdDeviation="5.28" />
    </filter>
    <linearGradient
       x1="48"
       y1="20.220806"
       x2="48"
       y2="138.66119"
       id="linearGradient3613"
       xlink:href="#linearGradient3737"
       gradientUnits="userSpaceOnUse" />
    <radialGradient
       cx="48"
       cy="90.171875"
       r="42"
       fx="48"
       fy="90.171875"
       id="radialGradient3619"
       xlink:href="#linearGradient3737"
       gradientUnits="userSpaceOnUse"
       gradientTransform="matrix(1.1573129,0,0,0.99590774,-7.5510206,0.19713193)" />
    <clipPath
       id="clipPath3613">
      <rect
         width="84"
         height="84"
         rx="6"
         ry="6"
         x="6"
         y="6"
         id="rect3615"
         style="fill:#ffffff;fill-opacity:1;fill-rule:nonzero;stroke:none" />
    </clipPath>
    <linearGradient
       x1="48"
       y1="90"
       x2="48"
       y2="5.9877172"
       id="linearGradient3617"
       xlink:href="#linearGradient3676"
       gradientUnits="userSpaceOnUse" />
    <linearGradient
       x1="45.447727"
       y1="92.539597"
       x2="45.447727"
       y2="7.0165396"
       id="ButtonShadow-0"
       gradientUnits="userSpaceOnUse"
       gradientTransform="matrix(1.0058652,0,0,0.994169,100,0)">
      <stop
         id="stop3750-8"
         style="stop-color:#000000;stop-opacity:1"
         offset="0" />
      <stop
         id="stop3752-5"
         style="stop-color:#000000;stop-opacity:0.58823532"
         offset="1" />
    </linearGradient>
    <linearGradient
       x1="32.251034"
       y1="6.1317081"
       x2="32.251034"
       y2="90.238609"
       id="linearGradient3780"
       xlink:href="#ButtonShadow-0"
       gradientUnits="userSpaceOnUse"
       gradientTransform="matrix(1.0238095,0,0,1.0119048,-1.1428571,-98.071429)" />
    <linearGradient
       x1="32.251034"
       y1="6.1317081"
       x2="32.251034"
       y2="90.238609"
       id="linearGradient3772"
       xlink:href="#ButtonShadow-0"
       gradientUnits="userSpaceOnUse"
       gradientTransform="matrix(1.0238095,0,0,1.0119048,-1.1428571,-98.071429)" />
    <linearGradient
       x1="32.251034"
       y1="6.1317081"
       x2="32.251034"
       y2="90.238609"
       id="linearGradient3725"
       xlink:href="#ButtonShadow-0"
       gradientUnits="userSpaceOnUse"
       gradientTransform="matrix(1.0238095,0,0,1.0119048,-1.1428571,-98.071429)" />
    <linearGradient
       x1="32.251034"
       y1="6.1317081"
       x2="32.251034"
       y2="90.238609"
       id="linearGradient3721"
       xlink:href="#ButtonShadow-0"
       gradientUnits="userSpaceOnUse"
       gradientTransform="translate(0,-97)" />
    <linearGradient
       x1="32.251034"
       y1="6.1317081"
       x2="32.251034"
       y2="90.238609"
       id="linearGradient3026"
       xlink:href="#ButtonShadow-0"
       gradientUnits="userSpaceOnUse"
       gradientTransform="matrix(1.0238095,0,0,1.0119048,-1.1428571,-98.071429)" />
    <linearGradient
       x1="12.75"
       y1="48"
       x2="83.25"
       y2="48"
       id="linearGradient3709"
       xlink:href="#linearGradient3703"
       gradientUnits="userSpaceOnUse"
       gradientTransform="matrix(0,-1,1,0,0,96)" />
    <radialGradient
       cx="48"
       cy="48"
       r="35.25"
       fx="48"
       fy="48"
       id="radialGradient3773"
       xlink:href="#linearGradient3767"
       gradientUnits="userSpaceOnUse" />
    <radialGradient
       inkscape:collect="always"
       xlink:href="#linearGradient3767"
       id="radialGradient3045"
       gradientUnits="userSpaceOnUse"
       cx="48"
       cy="48"
       fx="48"
       fy="48"
       r="35.25"
       gradientTransform="translate(19.118644,5.2881356)" />
    <linearGradient
       inkscape:collect="always"
       xlink:href="#linearGradient3703"
       id="linearGradient3048"
       gradientUnits="userSpaceOnUse"
       gradientTransform="matrix(0,-1,1,0,15.457627,96)"
       x1="12.75"
       y1="48"
       x2="83.25"
       y2="48" />
  </defs>
  <metadata
     id="metadata2413">
    <rdf:RDF>
      <cc:Work
         rdf:about="">
        <dc:format>image/svg+xml</dc:format>
        <dc:type
           rdf:resource="http://purl.org/dc/dcmitype/StillImage" />
        <dc:title />
      </cc:Work>
    </rdf:RDF>
  </metadata>
  <g
     id="layer2"
     style="display:none">
    <rect
       width="86"
       height="85"
       rx="6"
       ry="6"
       x="5"
       y="7"
       id="rect3745"
       style="opacity:0.9;fill:url(#ButtonShadow);fill-opacity:1;fill-rule:nonzero;stroke:none;filter:url(#filter3174)" />
  </g>
  <rect
     style="fill:#86df71;fill-opacity:1;stroke:none"
     id="rect3054"
     width="96"
     height="96"
     x="0"
     y="0" />
  <path
     style="color:#000000;fill:#ffffff;fill-opacity:1;fill-rule:nonzero;stroke:#ffffff;stroke-width:1;stroke-opacity:1;marker:none;visibility:visible;display:inline;overflow:visible;enable-background:accumulate"
     id="path3711"
     inkscape:connector-curvature="0"
     d="m 41.03178,13.93644 c -4.47894,0.933301 -8.644572,2.72742 -12.34375,5.15625 0.107811,2.695429 -0.851192,5.413692 -2.90625,7.46875 -2.055058,2.055058 -4.773321,3.014061 -7.46875,2.90625 -2.42883,3.699178 -4.222949,7.86481 -5.15625,12.34375 1.998159,1.828374 3.25,4.453115 3.25,7.375 0,2.921885 -1.251841,5.546626 -3.25,7.375 0.933301,4.47894 2.72742,8.644572 5.15625,12.34375 2.695429,-0.107811 5.413692,0.851192 7.46875,2.90625 2.055058,2.055058 3.014061,4.773321 2.90625,7.46875 3.699178,2.42883 7.86481,4.222949 12.34375,5.15625 1.828374,-1.998159 4.453115,-3.25 7.375,-3.25 2.921885,0 5.546626,1.251841 7.375,3.25 4.464448,-0.930281 8.622233,-2.708308 12.3125,-5.125 -0.0063,-0.144349 0,-0.293178 0,-0.4375 0,-2.559223 0.984879,-5.109879 2.9375,-7.0625 2.055058,-2.055058 4.773321,-3.014061 7.46875,-2.90625 2.42883,-3.699178 4.222949,-7.86481 5.15625,-12.34375 -1.998159,-1.828374 -3.25,-4.453115 -3.25,-7.375 0,-2.921885 1.251841,-5.546626 3.25,-7.375 -0.933301,-4.47894 -2.72742,-8.644572 -5.15625,-12.34375 -2.695429,0.107811 -5.413692,-0.851192 -7.46875,-2.90625 -1.952621,-1.952621 -2.9375,-4.503277 -2.9375,-7.0625 0,-0.144322 -0.0063,-0.293151 0,-0.4375 -3.690267,-2.416692 -7.848052,-4.194719 -12.3125,-5.125 -1.828374,1.998159 -4.453115,3.25 -7.375,3.25 -2.921885,0 -5.546626,-1.251841 -7.375,-3.25 z m -0.15625,1.15625 c 1.978403,1.87706 4.593547,3.125 7.53125,3.125 2.937703,0 5.552847,-1.24794 7.53125,-3.125 4.020606,0.887442 7.782051,2.480073 11.15625,4.625 0.05544,2.75148 1.094541,5.500791 3.1875,7.59375 2.07834,2.07834 4.804992,2.992809 7.53125,3.0625 2.183669,3.404955 3.789691,7.215438 4.6875,11.28125 -1.87706,1.978403 -3.125,4.593547 -3.125,7.53125 0,2.937703 1.24794,5.552847 3.125,7.53125 -0.897809,4.065812 -2.503831,7.876295 -4.6875,11.28125 -2.726258,0.06969 -5.45291,0.98416 -7.53125,3.0625 -2.092959,2.092959 -3.132063,4.84227 -3.1875,7.59375 -3.374199,2.144927 -7.135644,3.737558 -11.15625,4.625 -1.978403,-1.87706 -4.593547,-3.125 -7.53125,-3.125 -2.937703,0 -5.552847,1.24794 -7.53125,3.125 -4.065812,-0.897809 -7.876295,-2.503831 -11.28125,-4.6875 -0.06969,-2.726258 -0.98416,-5.45291 -3.0625,-7.53125 -2.07834,-2.07834 -4.804992,-2.992809 -7.53125,-3.0625 -2.183669,-3.404955 -3.789691,-7.215438 -4.6875,-11.28125 1.87706,-1.978403 3.125,-4.593547 3.125,-7.53125 0,-2.937703 -1.24794,-5.552847 -3.125,-7.53125 0.897809,-4.065812 2.503831,-7.876295 4.6875,-11.28125 2.726258,-0.06969 5.45291,-0.98416 7.53125,-3.0625 2.07834,-2.07834 2.992809,-4.804992 3.0625,-7.53125 3.404955,-2.183669 7.215438,-3.789691 11.28125,-4.6875 z m 7.53125,25.09375 c -4.970563,0 -9,4.029437 -9,9 0,4.970563 4.029437,9 9,9 4.970563,0 9,-4.029437 9,-9 0,-4.970563 -4.029437,-9 -9,-9 z m 0,1 c 4.418278,0 8,3.581722 8,8 0,4.418278 -3.581722,8 -8,8 -4.418278,0 -8,-3.581722 -8,-8 0,-4.418278 3.581722,-8 8,-8 z" />
  <path
     style="fill:#ffffff;overflow:visible"
     id="path3324"
     inkscape:connector-curvature="0"
     d="m 58.193288,25.906843 c -2.62508,0 -4.75069,2.137213 -4.75069,4.771918 0,2.634704 2.12561,4.771918 4.75069,4.771918 2.62508,0 4.75069,-2.137214 4.75069,-4.771918 0,-2.634705 -2.12561,-4.771918 -4.75069,-4.771918 z m -10.03293,3.737446 c -2.92977,3.82e-4 -5.90015,0.74311 -8.57118,2.068944 -0.095,0.04732 -0.15422,0.13131 -0.18271,0.233591 -0.0289,0.10228 -0.023,0.210262 0.0332,0.30033 l 3.8537,6.123406 c 0.0976,0.15571 0.29603,0.221533 0.4651,0.150164 1.42632,-0.605668 2.9064,-0.90099 4.40187,-0.90099 5.50087,0 10.29998,4.094443 11.16246,9.527149 0.0289,0.182427 0.18192,0.317018 0.36544,0.317018 l 7.24231,0 c 0.10562,0 0.21133,-0.03817 0.28238,-0.116796 0.071,-0.07862 0.10955,-0.177548 0.0997,-0.283647 -0.39058,-4.030926 -2.10621,-7.933715 -4.81713,-10.962062 -0.12234,-0.137392 -0.32708,-0.150427 -0.48172,-0.05006 -1.0931,0.709095 -2.33334,1.084527 -3.58793,1.084527 -3.66002,0 -6.62733,-2.986779 -6.62771,-6.640642 3.8e-4,-0.0019 0,-0.127373 0,-0.13348 0,-0.182044 -0.13589,-0.352461 -0.3156,-0.383756 -1.1444,-0.199219 -2.25528,-0.333701 -3.32217,-0.333701 z m -11.62756,4.004407 c -0.0502,0.01236 -0.10828,0.03449 -0.1495,0.06673 -3.1414,2.430312 -5.49726,5.84822 -6.64432,9.627262 -0.0448,0.147697 -0.005,0.304267 0.11627,0.400441 1.57868,1.255992 2.52485,3.189335 2.52485,5.172358 0,1.983023 -0.94579,3.916366 -2.52485,5.172357 -0.12044,0.0958 -0.16111,0.252364 -0.11627,0.400442 1.13794,3.747366 3.47523,7.152238 6.57788,9.577205 0.0832,0.06526 0.17828,0.101747 0.28238,0.08342 0.10373,-0.01793 0.19255,-0.09461 0.24916,-0.183534 l 3.88693,-6.106721 c 0.0992,-0.156092 0.0722,-0.361358 -0.0665,-0.483866 -2.43508,-2.152092 -3.8371,-5.23785 -3.8371,-8.459308 0,-3.245504 1.40979,-6.339823 3.87032,-8.492678 0.13868,-0.121746 0.18146,-0.327012 0.0831,-0.483867 l -3.8537,-6.123399 c -0.0562,-0.08931 -0.14544,-0.148532 -0.24917,-0.166851 -0.0519,-0.0092 -0.0993,-0.01236 -0.14949,0 z m -10.71397,10.478198 c -2.68657,0 -4.86697,2.192041 -4.86697,4.888714 0,2.69667 2.1804,4.872025 4.86697,4.872025 2.68656,0 4.86696,-2.175355 4.86696,-4.872025 0,-2.696673 -2.1804,-4.888714 -4.86696,-4.888714 z m 41.11174,6.306939 -7.24231,0.01669 c -0.18275,3.82e-4 -0.35279,0.136116 -0.38205,0.317014 -0.87425,5.392253 -5.66018,9.460413 -11.14585,9.460413 -1.51295,0 -3.00942,-0.313809 -4.45169,-0.934362 -0.1687,-0.07213 -0.36594,-0.02108 -0.46511,0.133479 l -3.88693,6.123405 c -0.0566,0.08969 -0.0613,0.197669 -0.0332,0.30033 0.0281,0.102282 0.0881,0.186267 0.18272,0.233592 2.69192,1.353692 5.69065,2.068942 8.65423,2.068942 1.09919,0 2.24676,-0.110545 3.40522,-0.317015 0.16262,-0.02862 0.27962,-0.152528 0.29899,-0.317015 0.38603,-3.348929 3.20558,-5.87313 6.56127,-5.87313 1.0403,0 2.11098,0.263741 3.073,0.767511 0.14628,0.07671 0.316,0.05195 0.43188,-0.06674 3.03388,-3.107729 4.9518,-7.205051 5.3819,-11.512669 0.0106,-0.105717 -0.0282,-0.204643 -0.0997,-0.283644 -0.0714,-0.079 -0.17676,-0.117177 -0.28238,-0.116797 z m -8.55456,12.897528 c -2.68657,0 -4.86697,2.172582 -4.86697,4.855343 0,2.682761 2.1804,4.855343 4.86697,4.855343 2.68656,0 4.86696,-2.172582 4.86696,-4.855343 0,-2.682761 -2.1804,-4.855343 -4.86696,-4.855343 z" />
</svg>
