<?xml version="1.0" encoding="UTF-8" standalone="no"?>
<!-- Created with Inkscape (http://www.inkscape.org/) -->

<svg
   xmlns:dc="http://purl.org/dc/elements/1.1/"
   xmlns:cc="http://creativecommons.org/ns#"
   xmlns:rdf="http://www.w3.org/1999/02/22-rdf-syntax-ns#"
   xmlns:svg="http://www.w3.org/2000/svg"
   xmlns="http://www.w3.org/2000/svg"
   xmlns:xlink="http://www.w3.org/1999/xlink"
   xmlns:sodipodi="http://sodipodi.sourceforge.net/DTD/sodipodi-0.dtd"
   xmlns:inkscape="http://www.inkscape.org/namespaces/inkscape"
   version="1.0"
   width="96"
   height="96"
   id="svg2408"
   inkscape:version="0.48.4 r9939"
   sodipodi:docname="vim.svg">
  <sodipodi:namedview
     pagecolor="#ffffff"
     bordercolor="#666666"
     borderopacity="1"
     objecttolerance="10"
     gridtolerance="10"
     guidetolerance="10"
     inkscape:pageopacity="0"
     inkscape:pageshadow="2"
     inkscape:window-width="640"
     inkscape:window-height="480"
     id="namedview98"
     showgrid="false"
     inkscape:zoom="2.4583333"
     inkscape:cx="48"
     inkscape:cy="48"
     inkscape:window-x="605"
     inkscape:window-y="132"
     inkscape:window-maximized="0"
     inkscape:current-layer="svg2408" />
  <defs
     id="defs2410">
    <linearGradient
       id="linearGradient3909">
      <stop
         id="stop3911"
         style="stop-color:#c6c3c6;stop-opacity:1"
         offset="0" />
      <stop
         id="stop3913"
         style="stop-color:#eae9ea;stop-opacity:1"
         offset="1" />
    </linearGradient>
    <linearGradient
       id="linearGradient3867">
      <stop
         id="stop3869"
         style="stop-color:#000000;stop-opacity:1"
         offset="0" />
      <stop
         id="stop3871"
         style="stop-color:#000000;stop-opacity:0"
         offset="1" />
    </linearGradient>
    <linearGradient
       id="linearGradient3844">
      <stop
         id="stop3846"
         style="stop-color:#0b700b;stop-opacity:1"
         offset="0" />
      <stop
         id="stop3848"
         style="stop-color:#28a528;stop-opacity:1"
         offset="1" />
    </linearGradient>
    <linearGradient
       x1="45.447727"
       y1="92.539597"
       x2="45.447727"
       y2="7.0165396"
       id="ButtonShadow"
       gradientUnits="userSpaceOnUse"
       gradientTransform="scale(1.0058652,0.994169)">
      <stop
         id="stop3750"
         style="stop-color:#000000;stop-opacity:1"
         offset="0" />
      <stop
         id="stop3752"
         style="stop-color:#000000;stop-opacity:0.58823532"
         offset="1" />
    </linearGradient>
    <linearGradient
       id="linearGradient3737">
      <stop
         id="stop3739"
         style="stop-color:#ffffff;stop-opacity:1"
         offset="0" />
      <stop
         id="stop3741"
         style="stop-color:#ffffff;stop-opacity:0"
         offset="1" />
    </linearGradient>
    <filter
       color-interpolation-filters="sRGB"
       id="filter3174">
      <feGaussianBlur
         id="feGaussianBlur3176"
         stdDeviation="1.71" />
    </filter>
    <filter
       x="-0.192"
       y="-0.192"
       width="1.3839999"
       height="1.3839999"
       color-interpolation-filters="sRGB"
       id="filter3794">
      <feGaussianBlur
         id="feGaussianBlur3796"
         stdDeviation="5.28" />
    </filter>
    <linearGradient
       x1="48"
       y1="20.220806"
       x2="48"
       y2="138.66119"
       id="linearGradient3613"
       xlink:href="#linearGradient3737"
       gradientUnits="userSpaceOnUse" />
    <clipPath
       id="clipPath3613">
      <rect
         width="84"
         height="84"
         rx="6"
         ry="6"
         x="6"
         y="6"
         id="rect3615"
         style="fill:#ffffff;fill-opacity:1;fill-rule:nonzero;stroke:none" />
    </clipPath>
    <linearGradient
       x1="45.447727"
       y1="92.539597"
       x2="45.447727"
       y2="7.0165396"
       id="ButtonShadow-0"
       gradientUnits="userSpaceOnUse"
       gradientTransform="matrix(1.0058652,0,0,0.994169,100,0)">
      <stop
         id="stop3750-8"
         style="stop-color:#000000;stop-opacity:1"
         offset="0" />
      <stop
         id="stop3752-5"
         style="stop-color:#000000;stop-opacity:0.58823532"
         offset="1" />
    </linearGradient>
    <linearGradient
       x1="32.251034"
       y1="6.1317081"
       x2="32.251034"
       y2="90.238609"
       id="linearGradient3780"
       xlink:href="#ButtonShadow-0"
       gradientUnits="userSpaceOnUse"
       gradientTransform="matrix(1.0238095,0,0,1.0119048,-1.1428571,-98.071429)" />
    <linearGradient
       x1="32.251034"
       y1="6.1317081"
       x2="32.251034"
       y2="90.238609"
       id="linearGradient3772"
       xlink:href="#ButtonShadow-0"
       gradientUnits="userSpaceOnUse"
       gradientTransform="matrix(1.0238095,0,0,1.0119048,-1.1428571,-98.071429)" />
    <linearGradient
       x1="32.251034"
       y1="6.1317081"
       x2="32.251034"
       y2="90.238609"
       id="linearGradient3725"
       xlink:href="#ButtonShadow-0"
       gradientUnits="userSpaceOnUse"
       gradientTransform="matrix(1.0238095,0,0,1.0119048,-1.1428571,-98.071429)" />
    <linearGradient
       x1="32.251034"
       y1="6.1317081"
       x2="32.251034"
       y2="90.238609"
       id="linearGradient3721"
       xlink:href="#ButtonShadow-0"
       gradientUnits="userSpaceOnUse"
       gradientTransform="translate(0,-97)" />
    <linearGradient
       x1="32.251034"
       y1="6.1317081"
       x2="32.251034"
       y2="90.238609"
       id="linearGradient3026"
       xlink:href="#ButtonShadow-0"
       gradientUnits="userSpaceOnUse"
       gradientTransform="matrix(1.0238095,0,0,1.0119048,-1.1428571,-98.071429)" />
    <linearGradient
       id="linearGradient854">
      <stop
         id="stop855"
         style="stop-color:#000000;stop-opacity:1"
         offset="0" />
      <stop
         id="stop877"
         style="stop-color:#f5f5f5;stop-opacity:1"
         offset="0.87778628" />
      <stop
         id="stop856"
         style="stop-color:#ffffff;stop-opacity:1"
         offset="1" />
    </linearGradient>
    <linearGradient
       x1="508.58997"
       y1="267.27991"
       x2="508.45602"
       y2="269.14072"
       id="linearGradient3776"
       xlink:href="#linearGradient854"
       gradientUnits="userSpaceOnUse"
       gradientTransform="matrix(0.80571178,0,0,3.2149984,-388.10346,-834.60928)" />
    <linearGradient
       x1="195.59776"
       y1="696.40906"
       x2="193.063"
       y2="694.71436"
       id="linearGradient3779"
       xlink:href="#linearGradient854"
       gradientUnits="userSpaceOnUse"
       gradientTransform="matrix(2.1044799,0,0,1.23088,-388.10346,-834.60928)" />
    <linearGradient
       x1="196.80382"
       y1="764.65295"
       x2="192.15778"
       y2="763.52991"
       id="linearGradient3782"
       xlink:href="#linearGradient854"
       gradientUnits="userSpaceOnUse"
       gradientTransform="matrix(2.3159568,0,0,1.1184848,-388.10346,-834.60928)" />
    <linearGradient
       x1="432.77563"
       y1="444.33771"
       x2="431.5174"
       y2="448.10916"
       id="linearGradient3785"
       xlink:href="#linearGradient854"
       gradientUnits="userSpaceOnUse"
       gradientTransform="matrix(1.4043897,0,0,1.8444751,-544.59431,-797.79148)" />
    <linearGradient
       x1="247.91669"
       y1="577.09601"
       x2="247.84926"
       y2="571.18286"
       id="linearGradient3788"
       xlink:href="#linearGradient854"
       gradientUnits="userSpaceOnUse"
       gradientTransform="matrix(1.7367898,0,0,1.4914657,-388.10346,-834.60928)" />
    <linearGradient
       x1="737.87024"
       y1="197.2177"
       x2="723.66583"
       y2="197.2661"
       id="linearGradient3791"
       xlink:href="#linearGradient854"
       gradientUnits="userSpaceOnUse"
       gradientTransform="matrix(0.58266718,0,0,4.4456981,-388.10346,-834.60928)" />
    <linearGradient
       x1="279.12204"
       y1="547.95782"
       x2="275.03989"
       y2="543.9057"
       id="linearGradient3794"
       xlink:href="#linearGradient854"
       gradientUnits="userSpaceOnUse"
       gradientTransform="matrix(1.6002994,0,0,1.6186737,-388.10346,-834.60928)" />
    <radialGradient
       cx="48"
       cy="90.171875"
       r="42"
       fx="48"
       fy="90.171875"
       id="radialGradient3619-1"
       xlink:href="#linearGradient3737-9"
       gradientUnits="userSpaceOnUse"
       gradientTransform="matrix(1.1573129,0,0,0.99590774,-7.551021,0.1971319)" />
    <linearGradient
       id="linearGradient3737-9">
      <stop
         id="stop3739-7"
         style="stop-color:#ffffff;stop-opacity:1"
         offset="0" />
      <stop
         id="stop3741-0"
         style="stop-color:#ffffff;stop-opacity:0"
         offset="1" />
    </linearGradient>
    <linearGradient
       x1="36.357143"
       y1="6"
       x2="36.357143"
       y2="63.893143"
       id="linearGradient3188-2"
       xlink:href="#linearGradient3737-9"
       gradientUnits="userSpaceOnUse" />
    <linearGradient
       x1="48"
       y1="90"
       x2="48"
       y2="5.9877172"
       id="linearGradient2883"
       xlink:href="#linearGradient3844"
       gradientUnits="userSpaceOnUse" />
    <linearGradient
       x1="102.04063"
       y1="22.844667"
       x2="16.970562"
       y2="-62.225395"
       id="linearGradient3875"
       xlink:href="#linearGradient3867"
       gradientUnits="userSpaceOnUse" />
    <linearGradient
       x1="48"
       y1="80"
       x2="48"
       y2="15.501938"
       id="linearGradient3915"
       xlink:href="#linearGradient3909"
       gradientUnits="userSpaceOnUse" />
    <linearGradient
       x1="387.5567"
       y1="527.42371"
       x2="387.5567"
       y2="513.37085"
       id="linearGradient4031"
       xlink:href="#linearGradient3909"
       gradientUnits="userSpaceOnUse" />
    <linearGradient
       inkscape:collect="always"
       xlink:href="#linearGradient3844"
       id="linearGradient3096"
       gradientUnits="userSpaceOnUse"
       x1="48.40678"
       y1="129.45763"
       x2="48"
       y2="107.27586"
       gradientTransform="matrix(1.1428571,0,0,1.1428571,-6.8571559,-6.8571403)" />
  </defs>
  <metadata
     id="metadata2413">
    <rdf:RDF>
      <cc:Work
         rdf:about="">
        <dc:format>image/svg+xml</dc:format>
        <dc:type
           rdf:resource="http://purl.org/dc/dcmitype/StillImage" />
        <dc:title />
      </cc:Work>
    </rdf:RDF>
  </metadata>
  <g
     id="layer2"
     style="display:none">
    <rect
       width="86"
       height="85"
       rx="6"
       ry="6"
       x="5"
       y="7"
       id="rect3745"
       style="opacity:0.9;fill:url(#ButtonShadow);fill-opacity:1;fill-rule:nonzero;stroke:none;filter:url(#filter3174)" />
  </g>
  <rect
     style="fill:url(#linearGradient3096);fill-opacity:1;fill-rule:nonzero;stroke:none"
     id="rect2419-4"
     y="5.3290705e-15"
     x="0"
     ry="0"
     rx="0"
     height="96"
     width="96" />
  <path
     style="fill:#ffffff;fill-opacity:1;fill-rule:evenodd;stroke:#28a528;stroke-width:0.25;stroke-opacity:1"
     id="path846"
     inkscape:connector-curvature="0"
     d="m 24.380993,78.571611 c 0.59537,-0.05246 1.40083,-0.787957 2.10125,-1.575917 L 77.62577,25.000986 c 0.560333,-0.612867 1.170545,-1.324118 1.153033,-1.936985 l -0.102359,-4.15981 c 0,-0.542825 -0.418912,-0.934712 -1.101823,-0.899691 L 56.774936,17.9559 c -0.893026,-0.03509 -1.681002,0.507783 -1.575935,1.470854 l 0,2.176971 c 0.03509,1.316121 1.049464,1.505893 1.767396,1.470855 l 2.53482,0.0031 c 0.665398,0.280176 0.918549,0.669393 0.953573,1.474878 -0.08225,1.658324 -0.117169,1.629806 -1.701506,3.231604 l -23.887351,24.556915 -0.10236,-28.751399 2.75564,0 c 0.5078,-0.05246 1.16785,-0.622361 1.25541,-1.252739 l 0,-3.23025 c -0.0175,-0.612836 -0.40275,-1.068087 -1.15567,-1.050577 l -21.57567,0 c -0.78796,-0.03508 -1.31326,0.665399 -1.26074,1.470853 l -0.0512,2.392432 c -0.003,0.805487 0.57651,1.444041 1.31194,1.51407 l 3.39987,0 -0.0525,54.087955 c -0.0525,0.560335 0.0525,0.858001 0.47278,1.050622 l 4.51767,-1.7e-5 z" />
  <path
     style="fill:#ffffff;fill-opacity:1;fill-rule:evenodd;stroke:#28a528;stroke-opacity:1"
     id="path866"
     inkscape:connector-curvature="0"
     d="m 51.786224,52.990693 c 0,2.121594 -1.58231,3.841487 -3.534162,3.841487 -1.951868,0 -3.534161,-1.719893 -3.534161,-3.841487 0,-2.121576 1.582293,-3.84147 3.534161,-3.84147 1.951852,0 3.534162,1.719894 3.534162,3.84147 z M 38.3848,73.369108 c 5.943099,-10.792416 5.068055,-11.703922 5.031576,-12.907127 -0.08505,-1.604273 0.267379,-2.224115 2.041803,-2.18767 l 2.698108,-0.07292 c 1.640735,-0.07292 2.187653,0.510438 1.750122,1.750105 -0.700435,1.890711 -5.99003,10.484626 -4.98888,12.220626 l 1.063624,1.32511 c 0.448597,0.94136 -0.598119,2.29525 -1.180781,2.30848 l -5.030073,0.0425 c -1.227507,0.0137 -1.944576,-1.25181 -1.385516,-2.47934 z M 58.774024,57.75875 c -1.853925,-0.335573 -3.744329,-0.233615 -5.452421,-0.0222 -0.66843,-0.04867 -0.929968,1.035546 -0.686892,1.789078 l 0.709179,1.41834 c 0.09137,1.144302 0.66498,2.349436 -5.014873,12.663832 -0.559077,1.2275 0.190817,2.49426 1.418341,2.4821 l 5.014873,-0.0506 c 0.582663,-0.0137 1.613649,-1.33809 1.165069,-2.27948 l -1.06376,-1.31703 c -0.483676,-0.83872 0.546883,-3.31454 1.772939,-5.82536 1.772477,-2.327236 3.818977,-2.458944 5.116181,-2.482102 0.386911,0.0883 0.543963,0.532008 0.658525,1.013105 -0.655843,1.799867 -1.497123,3.911067 -4.001784,8.459427 -0.559061,1.2275 0.140213,2.49426 1.367703,2.4821 l 5.065527,-0.0506 c 0.582663,-0.0137 1.613666,-1.33809 1.165069,-2.27949 l -1.06376,-1.31703 c -0.490678,-0.85086 0.572911,-3.37764 1.823593,-5.92667 1.639147,-2.34911 3.62478,-2.38079 4.862893,-2.38079 0.494248,0.151997 0.607648,0.776212 0.60787,1.41834 -0.684364,1.806 -1.366166,3.72804 -3.748495,8.05419 -0.559061,1.22751 0.140213,2.49428 1.367703,2.4821 l 5.014856,-0.0506 c 0.582662,-0.0137 1.664354,-1.33807 1.21574,-2.27948 l -1.06376,-1.31702 c -1.001167,-1.73601 3.024083,-6.79466 4.198527,-9.961551 0.729229,-2.260577 -1.772921,-4.238063 -3.158438,-4.675611 l -3.815015,-0.05875 c -0.688087,0.15695 -0.832194,0.553339 -1.021457,1.274439 l -2.610137,-0.0222 c 0.05141,-0.667491 -0.122623,-1.108369 -0.614257,-1.156991 l -3.99731,-0.05875 c -1.289502,-0.02647 -1.161961,0.437274 -1.327348,1.229898 l -3.892636,0.0016 c 0.214675,-0.418693 0.210593,-0.983252 -0.01366,-1.256079 z" />
  <path
     style="opacity:0.6;fill:#ffffff;fill-opacity:1;fill-rule:evenodd;stroke:none"
     id="path4038"
     inkscape:connector-curvature="0"
     d="m -9.5142939,102.03337 c -1.9518691,0 -3.5312501,1.72217 -3.5312501,3.84375 0,1.36946 0.663866,2.5698 1.65625,3.25 -0.418458,-0.63119 -0.65625,-1.41258 -0.65625,-2.25 0,-2.12158 1.579382,-3.84375 3.5312501,-3.84375 0.691956,0 1.329966,0.22017 1.875,0.59375 -0.641706,-0.96792 -1.693567,-1.59375 -2.875,-1.59375 z m 7.75,8.375 c -0.917853,0.01 -1.833454,0.11304 -2.6875,0.21875 -0.66843,-0.0487 -0.930576,1.02772 -0.6875,1.78125 l 0.71875,1.40625 c 0.09137,1.1443 0.679853,2.37311 -5,12.68749 -0.477201,1.04774 -0.0069,2.08978 0.90625,2.375 -0.138021,-0.41684 -0.127896,-0.88835 0.09375,-1.375 5.679853,-10.31438 5.09137,-11.54319 5,-12.68749 l -0.71875,-1.40625 c -0.243076,-0.75353 0.01907,-1.82992 0.6875,-1.78125 1.442505,-0.17854 3.022975,-0.26894 4.59375,-0.0937 0.06935,-0.33878 0.03814,-0.70778 -0.125,-0.90625 -0.926962,-0.16779 -1.863397,-0.22872 -2.78125,-0.21875 z m 16.2499999,0.21875 c -0.688087,0.15695 -0.841988,0.56015 -1.03125,1.28125 l -1.875,-0.0312 c 0.226908,0.18517 0.317971,0.52322 0.28125,1 l 2.59375,0.0312 c 0.189263,-0.7211 0.343163,-1.1243 1.03125,-1.28125 l 3.8125,0.0625 c 0.430896,0.13608 0.98389,0.41634 1.5,0.8125 -0.714411,-0.91248 -1.764335,-1.58018 -2.5,-1.8125 l -3.8125,-0.0625 z m -8.2499999,0.0312 c -1.289502,-0.0265 -1.147113,0.45737 -1.3125,1.25 l -2.78125,0 c 0.08569,0.29351 0.03601,0.68598 -0.125,1 l 3.90625,0 c 0.165387,-0.79263 0.023,-1.27647 1.3125,-1.25 l 3.6249999,0.0625 c 0.0095,-0.56984 -0.177261,-0.95572 -0.625,-1 l -3.9999999,-0.0625 z m -15.84375,0.4375 -2.6875001,0.0625 c -1.774425,-0.0365 -2.14755,0.58323 -2.0625,2.1875 0.03648,1.2032 0.911849,2.11383 -5.03125,12.90624 -0.477186,1.04776 1.4e-4,2.12224 0.90625,2.40625 -0.139488,-0.42104 -0.131747,-0.91112 0.09375,-1.40625 5.943099,-10.79241 5.067729,-11.70304 5.03125,-12.90624 -0.08505,-1.60427 0.288076,-2.22395 2.0625,-2.1875 l 2.6875001,-0.0625 c 0.354657,-0.0158 0.652704,-0.0143 0.90625,0.0312 9.11e-4,-0.74374 -0.624779,-1.08821 -1.90625,-1.03125 z m 14.59375,6.90625 c -0.101968,0.002 -0.233019,0.0271 -0.34375,0.0312 -0.655843,1.79986 -1.495339,3.92038 -4,8.46874 -0.484216,1.06318 -0.02308,2.14066 0.90625,2.40625 -0.13824,-0.42265 -0.132852,-0.90871 0.09375,-1.40625 2.504661,-4.54836 3.344157,-6.66888 4,-8.46875 -0.114562,-0.48109 -0.269339,-0.94294 -0.65625,-1.03124 z m 9.8749999,0 c -0.122056,0 -0.270713,0.0284 -0.40625,0.0312 0.01342,0.13291 0.0312,0.26703 0.03125,0.40624 -0.684364,1.80601 -1.367671,3.73635 -3.75,8.0625 -0.477186,1.04774 -0.0273,2.08979 0.875,2.375 -0.128417,-0.41684 -0.09664,-0.88835 0.125,-1.375 2.382329,-4.32615 3.065636,-6.25649 3.75,-8.0625 -2.22e-4,-0.64212 -0.130752,-1.28549 -0.625,-1.43749 z" />
</svg>
