<?xml version="1.0" encoding="UTF-8" standalone="no"?>
<!-- Created with Inkscape (http://www.inkscape.org/) -->

<svg
   xmlns:dc="http://purl.org/dc/elements/1.1/"
   xmlns:cc="http://creativecommons.org/ns#"
   xmlns:rdf="http://www.w3.org/1999/02/22-rdf-syntax-ns#"
   xmlns:svg="http://www.w3.org/2000/svg"
   xmlns="http://www.w3.org/2000/svg"
   xmlns:xlink="http://www.w3.org/1999/xlink"
   xmlns:sodipodi="http://sodipodi.sourceforge.net/DTD/sodipodi-0.dtd"
   xmlns:inkscape="http://www.inkscape.org/namespaces/inkscape"
   version="1.0"
   width="96"
   height="96"
   id="svg2408"
   style="display:inline"
   inkscape:version="0.48.4 r9939"
   sodipodi:docname="zim.svg">
  <sodipodi:namedview
     pagecolor="#ffffff"
     bordercolor="#666666"
     borderopacity="1"
     objecttolerance="10"
     gridtolerance="10"
     guidetolerance="10"
     inkscape:pageopacity="0"
     inkscape:pageshadow="2"
     inkscape:window-width="640"
     inkscape:window-height="480"
     id="namedview81"
     showgrid="false"
     inkscape:zoom="2.4583333"
     inkscape:cx="-24.560602"
     inkscape:cy="48"
     inkscape:window-x="717"
     inkscape:window-y="51"
     inkscape:window-maximized="0"
     inkscape:current-layer="svg2408" />
  <defs
     id="defs2410">
    <linearGradient
       id="linearGradient3095">
      <stop
         offset="0"
         style="stop-color:#f06805;stop-opacity:1"
         id="stop3097" />
      <stop
         offset="1"
         style="stop-color:#ffffff;stop-opacity:1"
         id="stop3099" />
    </linearGradient>
    <linearGradient
       id="linearGradient4161">
      <stop
         id="stop4163"
         style="stop-color:#737373;stop-opacity:1"
         offset="0" />
      <stop
         id="stop4165"
         style="stop-color:#989898;stop-opacity:1"
         offset="1" />
    </linearGradient>
    <linearGradient
       x1="45.447727"
       y1="92.539597"
       x2="45.447727"
       y2="7.0165396"
       id="ButtonShadow"
       gradientUnits="userSpaceOnUse"
       gradientTransform="scale(1.0058652,0.994169)">
      <stop
         id="stop3750"
         style="stop-color:#000000;stop-opacity:1"
         offset="0" />
      <stop
         id="stop3752"
         style="stop-color:#000000;stop-opacity:0.58823532"
         offset="1" />
    </linearGradient>
    <linearGradient
       id="linearGradient3700">
      <stop
         id="stop3702"
         style="stop-color:#b5b5b5;stop-opacity:1"
         offset="0" />
      <stop
         id="stop3704"
         style="stop-color:#dedede;stop-opacity:1"
         offset="1" />
    </linearGradient>
    <filter
       color-interpolation-filters="sRGB"
       id="filter3174">
      <feGaussianBlur
         id="feGaussianBlur3176"
         stdDeviation="1.71" />
    </filter>
    <linearGradient
       x1="45.447727"
       y1="92.539597"
       x2="45.447727"
       y2="7.0165396"
       id="ButtonShadow-0"
       gradientUnits="userSpaceOnUse"
       gradientTransform="matrix(1.0058652,0,0,0.994169,100,0)">
      <stop
         id="stop3750-8"
         style="stop-color:#000000;stop-opacity:1"
         offset="0" />
      <stop
         id="stop3752-5"
         style="stop-color:#000000;stop-opacity:0.58823532"
         offset="1" />
    </linearGradient>
    <linearGradient
       x1="32.251034"
       y1="6.1317081"
       x2="32.251034"
       y2="90.238609"
       id="linearGradient3780"
       xlink:href="#ButtonShadow-0"
       gradientUnits="userSpaceOnUse"
       gradientTransform="matrix(1.0238095,0,0,1.0119048,-1.1428571,-98.071429)" />
    <linearGradient
       x1="32.251034"
       y1="6.1317081"
       x2="32.251034"
       y2="90.238609"
       id="linearGradient3772"
       xlink:href="#ButtonShadow-0"
       gradientUnits="userSpaceOnUse"
       gradientTransform="matrix(1.0238095,0,0,1.0119048,-1.1428571,-98.071429)" />
    <linearGradient
       x1="32.251034"
       y1="6.1317081"
       x2="32.251034"
       y2="90.238609"
       id="linearGradient3725"
       xlink:href="#ButtonShadow-0"
       gradientUnits="userSpaceOnUse"
       gradientTransform="matrix(1.0238095,0,0,1.0119048,-1.1428571,-98.071429)" />
    <linearGradient
       x1="32.251034"
       y1="6.1317081"
       x2="32.251034"
       y2="90.238609"
       id="linearGradient3721"
       xlink:href="#ButtonShadow-0"
       gradientUnits="userSpaceOnUse"
       gradientTransform="translate(0,-97)" />
    <linearGradient
       x1="32.251034"
       y1="6.1317081"
       x2="32.251034"
       y2="90.238609"
       id="linearGradient3760"
       xlink:href="#ButtonShadow-0"
       gradientUnits="userSpaceOnUse"
       gradientTransform="matrix(1.0238095,0,0,1.0119048,-1.1428571,-98.071429)" />
    <linearGradient
       id="linearGradient3325">
      <stop
         id="stop3327"
         style="stop-color:#f06805;stop-opacity:1"
         offset="0" />
      <stop
         id="stop3329"
         style="stop-color:#ffb03c;stop-opacity:1"
         offset="1" />
    </linearGradient>
    <linearGradient
       x1="84.25"
       y1="128.9995"
       x2="84.25"
       y2="216.5005"
       id="color_3_"
       gradientUnits="userSpaceOnUse">
      <stop
         id="stop48"
         style="stop-color:#d8d8d8;stop-opacity:1"
         offset="0" />
      <stop
         id="stop50"
         style="stop-color:#f9f9f9;stop-opacity:1"
         offset="1" />
    </linearGradient>
    <linearGradient
       x1="36.357143"
       y1="6"
       x2="36.357143"
       y2="63.893143"
       id="linearGradient3923-0"
       xlink:href="#linearGradient3737-1-9"
       gradientUnits="userSpaceOnUse" />
    <linearGradient
       id="linearGradient3737-1-9">
      <stop
         id="stop3739-9-7"
         style="stop-color:#ffffff;stop-opacity:1"
         offset="0" />
      <stop
         id="stop3741-3-7"
         style="stop-color:#ffffff;stop-opacity:0"
         offset="1" />
    </linearGradient>
    <radialGradient
       cx="48"
       cy="90.171875"
       r="42"
       fx="48"
       fy="90.171875"
       id="radialGradient2886-8"
       xlink:href="#linearGradient3737-0-2"
       gradientUnits="userSpaceOnUse"
       gradientTransform="matrix(1.1573129,0,0,0.99590774,-7.551021,0.1971319)" />
    <linearGradient
       id="linearGradient3737-0-2">
      <stop
         id="stop3739-6-6"
         style="stop-color:#ffffff;stop-opacity:1"
         offset="0" />
      <stop
         id="stop3741-0-7"
         style="stop-color:#ffffff;stop-opacity:0"
         offset="1" />
    </linearGradient>
    <linearGradient
       id="linearGradient3737-9-3">
      <stop
         id="stop3739-2-0"
         style="stop-color:#ffffff;stop-opacity:1"
         offset="0" />
      <stop
         id="stop3741-1-9"
         style="stop-color:#ffffff;stop-opacity:0"
         offset="1" />
    </linearGradient>
    <clipPath
       id="clipPath3613-0">
      <rect
         width="84"
         height="84"
         rx="6"
         ry="6"
         x="6"
         y="6"
         id="rect3615-6"
         style="fill:#ffffff;fill-opacity:1;fill-rule:nonzero;stroke:none" />
    </clipPath>
    <filter
       x="-0.192"
       y="-0.192"
       width="1.3839999"
       height="1.3839999"
       color-interpolation-filters="sRGB"
       id="filter3794">
      <feGaussianBlur
         id="feGaussianBlur3796"
         stdDeviation="5.28" />
    </filter>
    <linearGradient
       x1="48"
       y1="20.220806"
       x2="48"
       y2="138.66119"
       id="linearGradient3121"
       xlink:href="#linearGradient3737-9-3"
       gradientUnits="userSpaceOnUse" />
    <linearGradient
       x1="64"
       y1="64"
       x2="64"
       y2="8"
       id="linearGradient4143"
       xlink:href="#color_3_"
       gradientUnits="userSpaceOnUse" />
    <linearGradient
       x1="24"
       y1="88"
       x2="24"
       y2="48"
       id="linearGradient4159"
       xlink:href="#linearGradient3700"
       gradientUnits="userSpaceOnUse" />
    <linearGradient
       x1="72"
       y1="88"
       x2="72"
       y2="48"
       id="linearGradient3999"
       xlink:href="#linearGradient4161"
       gradientUnits="userSpaceOnUse" />
    <linearGradient
       x1="24"
       y1="64"
       x2="24"
       y2="8"
       id="linearGradient4007"
       xlink:href="#linearGradient3325"
       gradientUnits="userSpaceOnUse" />
    <radialGradient
       inkscape:collect="always"
       xlink:href="#linearGradient3737-0-2"
       id="radialGradient3071"
       gradientUnits="userSpaceOnUse"
       gradientTransform="matrix(1.1573129,0,0,0.99590774,-150.33068,-12.819817)"
       cx="48"
       cy="90.171875"
       fx="48"
       fy="90.171875"
       r="42" />
    <linearGradient
       inkscape:collect="always"
       xlink:href="#linearGradient3737-1-9"
       id="linearGradient3074"
       gradientUnits="userSpaceOnUse"
       x1="36.357143"
       y1="6"
       x2="36.357143"
       y2="63.893143"
       gradientTransform="translate(-142.77966,-13.016949)" />
    <linearGradient
       inkscape:collect="always"
       xlink:href="#linearGradient3325"
       id="linearGradient3077"
       gradientUnits="userSpaceOnUse"
       x1="24"
       y1="64"
       x2="24"
       y2="8"
       gradientTransform="translate(-142.77966,-13.016949)" />
    <linearGradient
       inkscape:collect="always"
       xlink:href="#linearGradient3700"
       id="linearGradient3080"
       gradientUnits="userSpaceOnUse"
       x1="24"
       y1="88"
       x2="24"
       y2="48"
       gradientTransform="translate(-142.77966,-13.016949)" />
    <linearGradient
       inkscape:collect="always"
       xlink:href="#color_3_"
       id="linearGradient3083"
       gradientUnits="userSpaceOnUse"
       x1="64"
       y1="64"
       x2="64"
       y2="8"
       gradientTransform="translate(-142.77966,-13.016949)" />
    <linearGradient
       inkscape:collect="always"
       xlink:href="#linearGradient4161"
       id="linearGradient3086"
       gradientUnits="userSpaceOnUse"
       x1="72"
       y1="88"
       x2="72"
       y2="48"
       gradientTransform="translate(-142.77966,-13.016949)" />
    <radialGradient
       inkscape:collect="always"
       xlink:href="#linearGradient3737-0-2"
       id="radialGradient3089"
       gradientUnits="userSpaceOnUse"
       gradientTransform="matrix(1.1573129,0,0,0.99590774,-241.8561,-11.192698)"
       cx="48"
       cy="90.171875"
       fx="48"
       fy="90.171875"
       r="42" />
    <linearGradient
       inkscape:collect="always"
       xlink:href="#color_3_"
       id="linearGradient3091"
       gradientUnits="userSpaceOnUse"
       gradientTransform="matrix(0,-1,1,0,-60.594304,189.83101)"
       x1="64"
       y1="64"
       x2="64"
       y2="8" />
  </defs>
  <metadata
     id="metadata2413">
    <rdf:RDF>
      <cc:Work
         rdf:about="">
        <dc:format>image/svg+xml</dc:format>
        <dc:type
           rdf:resource="http://purl.org/dc/dcmitype/StillImage" />
        <dc:title />
      </cc:Work>
    </rdf:RDF>
  </metadata>
  <g
     id="layer2"
     style="display:none">
    <rect
       width="86"
       height="85"
       rx="6"
       ry="6"
       x="5"
       y="7"
       id="rect3745"
       style="opacity:0.9;fill:url(#ButtonShadow);fill-opacity:1;fill-rule:nonzero;stroke:none;filter:url(#filter3174)" />
  </g>
  <g
     id="layer3"
     style="display:none">
    <rect
       width="66"
       height="66"
       rx="12"
       ry="12"
       x="15"
       y="15"
       clip-path="url(#clipPath3613-0)"
       id="rect3171"
       style="opacity:0.5;fill:url(#linearGradient3121);fill-opacity:1;fill-rule:nonzero;stroke:#ffffff;stroke-width:0.5;stroke-linecap:round;stroke-linejoin:miter;stroke-miterlimit:4;stroke-opacity:1;stroke-dasharray:none;stroke-dashoffset:0;display:inline;filter:url(#filter3794)" />
  </g>
  <g
     id="layer4" />
  <rect
     style="fill:#ffb03c;fill-opacity:1;stroke:none"
     id="rect3101"
     width="96"
     height="96"
     x="0"
     y="-3.5527137e-15" />
  <path
     style="color:#000000;fill:#ffffff;fill-opacity:1;fill-rule:nonzero;stroke:none;stroke-width:2;marker:none;visibility:visible;display:inline;overflow:visible;enable-background:accumulate"
     id="path4115"
     inkscape:connector-curvature="0"
     d="m 25.932235,66.764323 c 0,3.324 2.676,6 6,6 l 36.593746,0 0,-9.375 c -0.003,-0.15215 0.0849,-0.30257 0.21875,-0.375 1.06366,-0.53183 2.75574,-0.42872 5.1875,1.375 0.0158,0.008 0.0461,0.0225 0.0625,0.0312 0.35352,0.18791 0.83974,0.45869 1.34375,0.6875 0.52735,0.2394 1.06754,0.43176 1.40625,0.4375 1.32762,0 2.55399,-0.79222 3.46875,-2.125 0.91477,-1.33278 1.5,-3.20464 1.5,-5.28125 0,-2.07661 -0.58571,-3.95653 -1.5,-5.28125 -0.9071,-1.31431 -2.1206,-2.08175 -3.4375,-2.09375 -0.009,9.7e-4 -0.0226,-0.001 -0.0312,0 -0.98111,0.11994 -2.38305,0.84254 -2.75,1.125 -2.46773,1.8508 -4.18402,1.90799 -5.25,1.375 -0.13383,-0.0724 -0.22157,-0.22285 -0.21875,-0.375 l 0,-14.125 0,-4.1875 0,-4.40625 -5.40625,0 -3.1875,0 -7.312496,0 c -0.152154,0.003 -0.302567,-0.0849 -0.375,-0.21875 -0.5284,-1.0568 -0.460719,-2.75384 1.343746,-5.1875 0.0157,-0.0211 0.0153,-0.0413 0.0312,-0.0625 0.19057,-0.35734 0.48258,-0.83932 0.71875,-1.34375 0.247,-0.52754 0.43185,-1.07228 0.4375,-1.40625 0,-1.32761 -0.79222,-2.55398 -2.124996,-3.46875 -1.332779,-0.91476 -3.204642,-1.5 -5.28125,-1.5 -2.076608,0 -3.956526,0.58572 -5.28125,1.5 -1.314311,0.90711 -2.081752,2.12061 -2.09375,3.4375 -9.5e-5,0.0104 0,0.0208 0,0.0312 0.119944,0.98112 0.842546,2.38306 1.125,2.75 1.8508,2.46774 1.907989,4.18403 1.375,5.25 -0.07243,0.13384 -0.222846,0.22158 -0.375,0.21875 l -16.1875,0 z" />
  <path
     style="font-size:18.26544952px;font-style:normal;font-variant:normal;font-weight:normal;font-stretch:normal;text-align:center;line-height:100%;writing-mode:lr-tb;text-anchor:middle;fill:#ffb03c;fill-opacity:1;stroke:none;display:inline;font-family:Hoefler Text;-inkscape-font-specification:Hoefler Text"
     id="text2810"
     inkscape:connector-curvature="0"
     d="m 63.931906,41.219128 c -2e-5,0.13452 -0.0357,0.258072 -0.10681,0.370588 -0.0714,0.11256 -0.14952,0.16884 -0.23468,0.16882 -0.70294,0.07896 -1.27749,0.346063 -1.72363,0.801368 -0.44624,0.455356 -0.90662,1.323971 -1.38119,2.605882 l -7.26311,19.37808 c -0.0474,0.17979 -0.18044,0.26969 -0.39895,0.26969 -0.17096,0 -0.30367,-0.0899 -0.39811,-0.2697 l -4.07312,-10.085864 -4.68589,10.085864 c -0.0945,0.1798 -0.22718,0.2697 -0.3981,0.2697 -0.20921,0 -0.34683,-0.0899 -0.41288,-0.2697 l -7.13533,-19.378072 c -0.44621,-1.203676 -0.91615,-2.044336 -1.40986,-2.521988 -0.49372,-0.477612 -1.18213,-0.772692 -2.06523,-0.885261 -0.0759,1.3e-5 -0.14707,-0.04787 -0.21339,-0.1436 -0.0664,-0.09576 -0.0994,-0.205324 -0.0994,-0.328887 0,-0.314964 0.0759,-0.472456 0.22773,-0.472481 0.63625,2.5e-5 1.30091,0.03401 1.99397,0.101893 0.64552,0.06724 1.25308,0.10088 1.82271,0.10088 0.5789,1.2e-5 1.26237,-0.03364 2.05047,-0.10088 0.82632,-0.06789 1.55733,-0.101906 2.19301,-0.101906 0.15236,2.5e-5 0.22861,0.15752 0.22861,0.472481 0,0.315008 -0.0476,0.472503 -0.1425,0.472492 -0.63628,0.05636 -1.13724,0.247407 -1.50287,0.573355 -0.36566,0.326 -0.54848,0.753193 -0.54846,1.281585 -2e-5,0.269717 0.0763,0.607012 0.22859,1.011873 l 5.89584,15.769076 3.34646,-7.487708 -3.11873,-7.740934 c -0.56035,-1.383464 -1.0209,-2.274747 -1.3816,-2.673819 -0.36073,-0.399035 -0.90675,-0.643516 -1.63803,-0.733428 -0.066,1.2e-5 -0.12997,-0.04787 -0.19166,-0.1436 -0.0617,-0.09576 -0.0926,-0.205324 -0.0926,-0.328887 0,-0.314961 0.0664,-0.472456 0.19904,-0.472481 0.63625,2.5e-5 1.22008,0.03401 1.75146,0.101893 0.51282,0.06724 1.05869,0.10088 1.6376,0.10088 0.5696,1.2e-5 1.17255,-0.03364 1.80882,-0.10088 0.65537,-0.06789 1.3009,-0.101906 1.9366,-0.101906 0.15236,2.5e-5 0.22859,0.15752 0.2286,0.472481 -10e-6,0.315012 -0.0474,0.472503 -0.1425,0.472492 -1.27253,0.10088 -1.9088,0.528083 -1.90878,1.281575 -2e-5,0.337656 0.14724,0.860577 0.44155,1.56877 l 2.06525,4.958527 2.05045,-4.537503 c 0.28509,-0.640256 0.42763,-1.179648 0.42765,-1.618192 -2e-5,-1.034846 -0.63627,-1.585905 -1.90877,-1.653177 -0.11365,1.1e-5 -0.1704,-0.15748 -0.1704,-0.472492 -2e-5,-0.11256 0.0283,-0.2194 0.0852,-0.320649 0.0567,-0.101134 0.11384,-0.1518 0.17116,-0.15182 0.45544,2.5e-5 1.01551,0.03401 1.68017,0.101893 0.63625,0.06725 1.15835,0.10088 1.56632,0.10088 0.29435,1.3e-5 0.72636,-0.02809 1.29599,-0.08444 0.72142,-0.07896 1.32436,-0.118333 1.80883,-0.118333 0.11345,2.5e-5 0.17038,0.1352 0.17038,0.405565 -4e-5,0.359632 -0.10436,0.53942 -0.31293,0.539407 -0.74059,0.08985 -1.33627,0.331649 -1.78708,0.725188 -0.45085,0.393593 -1.01352,1.287609 -1.688,2.682061 l -2.73367,5.986864 3.70197,8.938113 5.46905,-15.060856 c 0.19004,-0.550353 0.28507,-1.056132 0.28511,-1.517316 -4e-5,-1.102093 -0.63629,-1.686782 -1.90879,-1.754054 -0.11421,1.3e-5 -0.17134,-0.15748 -0.17114,-0.472492 -2e-5,-0.314963 0.0854,-0.472455 0.25642,-0.47248 0.46529,2.5e-5 1.01608,0.03401 1.65237,0.101893 0.58872,0.06724 1.08241,0.10088 1.48113,0.10088 0.41777,1.3e-5 0.90191,-0.03363 1.45245,-0.10088 0.56959,-0.06788 1.08213,-0.101893 1.53763,-0.101893 0.1332,2.5e-5 0.19988,0.1352 0.19992,0.405565 l 0,0 z" />
</svg>
